<?xml version="1.0" encoding="UTF-8"?>
<!DOCTYPE svg PUBLIC "-//W3C//DTD SVG 1.1//EN" "http://www.w3.org/Graphics/SVG/1.1/DTD/svg11.dtd">
<!-- Creator: CorelDRAW 2017 -->
<svg xmlns="http://www.w3.org/2000/svg" xml:space="preserve" width="210mm" height="297mm" version="1.1" shape-rendering="geometricPrecision" text-rendering="geometricPrecision" image-rendering="optimizeQuality" fill-rule="evenodd" clip-rule="evenodd"
viewBox="0 0 21000 29700"
 xmlns:xlink="http://www.w3.org/1999/xlink">
 <g id="Layer_x0020_1">
  <metadata id="CorelCorpID_0Corel-Layer"/>
  <path fill="black" fill-rule="nonzero" d="M5746 2286c-43,134 -144,200 -306,200l-359 0 -235 651 -448 0 235 -651 -384 0c-421,508 -832,761 -1234,761 -117,0 -215,-22 -296,-65 -101,-55 -152,-136 -152,-243 0,-91 38,-180 113,-267 121,-139 304,-243 550,-309 192,-52 404,-78 636,-78l243 0 759 -910 604 0 -323 910 597 0zm-782 -703l-549 703 279 0 269 -703zm-1023 903c-313,0 -533,45 -659,135 -104,75 -157,155 -157,239 0,72 38,108 113,108 104,0 233,-58 388,-175 136,-101 241,-203 314,-307z"/>
  <path fill="black" fill-rule="nonzero" d="M5754 13474c-40,134 -142,200 -307,200l-475 0c-135,0 -203,-43 -203,-130 -91,104 -203,155 -336,155 -98,0 -177,-30 -238,-90 -61,-60 -91,-139 -91,-235 0,-174 67,-312 200,-413 121,-92 271,-138 450,-138l715 0 -235 651 520 0zm-808 -451l-277 0 -88 292c-5,18 -8,35 -8,50 0,73 71,109 213,109l159 -451z"/>
  <path fill="black" fill-rule="nonzero" d="M14360 1731c0,83 -33,153 -98,212 -64,58 -143,88 -235,88 -91,0 -169,-29 -234,-88 -64,-58 -96,-129 -96,-212 0,-38 6,-72 18,-100l-148 0c-48,0 -88,20 -121,60 -33,39 -49,83 -49,131 0,39 13,96 40,169 27,73 40,129 40,168 0,47 -48,94 -145,140 -139,67 -230,117 -271,152 -98,82 -147,190 -147,323 0,100 57,165 170,195 56,15 153,23 292,23l913 0c-11,64 -49,115 -114,153 -57,32 -121,48 -192,48l-1028 0c-154,0 -283,-26 -389,-79 -137,-68 -205,-171 -205,-308 0,-149 74,-284 223,-407 122,-100 265,-173 431,-219 -48,-104 -71,-199 -71,-284 0,-163 86,-286 258,-368 133,-64 291,-96 473,-96l382 0c84,0 156,30 215,90 59,59 89,129 89,210z"/>
  <path fill="black" fill-rule="nonzero" d="M12807 13474c-18,64 -58,115 -120,152 -56,33 -120,49 -192,49l-698 0c-406,0 -609,-122 -609,-367 0,-157 69,-280 208,-369 119,-77 261,-115 426,-115l182 0c106,0 199,16 279,49 107,43 163,109 168,198 4,89 -39,164 -129,223l-415 0 135 -269 -264 0 -103 302c-6,18 -9,33 -9,48 0,68 54,101 163,101l977 0z"/>
  <path fill="black" fill-rule="nonzero" d="M10038 1736c0,88 -35,162 -104,222 -66,57 -143,85 -232,85 -89,0 -167,-28 -234,-85 -69,-60 -104,-134 -104,-222 0,-29 3,-54 10,-75 -179,2 -341,94 -487,278 -137,174 -205,352 -205,536 0,345 225,517 675,517l630 0c-26,134 -127,200 -304,200l-462 0c-288,0 -522,-42 -701,-125 -246,-115 -368,-303 -366,-562 2,-145 46,-291 134,-436 119,-199 289,-356 508,-471 213,-112 439,-168 679,-168l250 0c81,0 153,31 217,93 64,62 96,133 96,213z"/>
  <path fill="black" fill-rule="nonzero" d="M9436 13472c-18,65 -57,116 -115,152 -53,33 -116,49 -187,49l-754 0c-144,0 -264,-24 -362,-73 -124,-61 -185,-153 -185,-276 0,-13 1,-27 3,-41 17,-149 94,-266 233,-351 122,-74 266,-111 432,-111l316 0c71,0 131,23 182,68 50,45 75,100 75,165 0,66 -25,122 -76,168 -50,46 -110,69 -180,69 -71,0 -131,-23 -182,-69 -49,-47 -73,-104 -73,-170 0,0 0,-10 0,-30l-152 0 -98 277c-8,23 -13,45 -13,64 0,73 58,110 174,110l962 0z"/>
  <path fill="black" fill-rule="nonzero" d="M19021 1576c0,87 -35,159 -104,217 -65,55 -142,83 -230,83 -88,0 -164,-28 -230,-83 -68,-58 -103,-130 -103,-217 0,-27 4,-56 13,-88l-28 0c-201,0 -382,91 -541,273 -154,175 -232,365 -232,569 0,171 64,301 192,389 110,77 255,115 435,115l233 -651 467 0c-68,198 -172,494 -311,888 -66,186 -224,279 -473,279 -29,0 -63,-1 -100,-3l115 -313c-291,0 -527,-42 -710,-126 -249,-115 -373,-301 -373,-556 0,-142 44,-286 132,-433 123,-206 300,-367 531,-483 218,-109 453,-163 705,-163l279 0c87,0 163,29 229,86 70,59 105,132 105,217z"/>
  <path fill="black" fill-rule="nonzero" d="M16219 13487c-38,134 -162,200 -372,200l-223 0c-74,202 -148,348 -222,438 -108,132 -244,198 -410,198 -94,0 -168,-26 -224,-79 -55,-52 -83,-124 -83,-217 0,-181 53,-298 159,-351 -78,-18 -143,-55 -194,-109 -59,-62 -89,-137 -89,-224 0,-34 5,-70 16,-108 36,-136 115,-239 237,-308 107,-62 235,-93 386,-93l716 0 -229 651 531 0zm-825 -451l-267 0 -100 318c-6,19 -9,37 -9,53 0,71 52,106 155,106 7,0 16,0 29,-1 13,-1 23,-1 30,-1l162 -475zm-220 685c-54,0 -105,31 -153,93 -47,63 -70,125 -70,187 0,55 24,99 71,133l152 -412z"/>
  <polygon fill="black" fill-rule="nonzero" points="6546,23030 6152,23940 6392,23940 6297,24140 6066,24140 5787,24792 5335,24792 5619,24140 5350,24140 5445,23940 5697,23940 5946,23386 5396,23386 5332,23517 5083,23517 5281,23030 "/>
  <path fill="black" fill-rule="nonzero" d="M9935 23710c0,245 -100,473 -299,686 -167,177 -378,322 -634,435l-387 0c252,-186 432,-373 541,-560 -186,-3 -340,-53 -461,-152 -131,-106 -197,-249 -197,-430 0,-186 66,-340 199,-461 128,-117 286,-177 476,-180 508,-11 761,210 761,661zm-477 -213c0,-166 -57,-249 -172,-249 -85,0 -157,61 -215,183 -49,101 -74,200 -74,297 0,75 24,145 71,209 51,68 114,107 190,119 48,-53 92,-138 134,-254 43,-119 65,-221 65,-304z"/>
  <path fill="black" fill-rule="nonzero" d="M11542 8650c-33,134 -136,200 -308,200l-1762 0c81,-204 173,-306 277,-306 13,0 27,2 41,5l418 100c107,0 228,-58 364,-174 128,-109 224,-230 289,-362 70,-143 105,-273 105,-391 0,-136 -46,-244 -138,-324 -82,-72 -183,-108 -303,-108 -118,0 -218,29 -301,86 -92,65 -138,153 -138,264 68,-73 153,-110 255,-110 93,0 172,30 237,89 65,58 98,129 98,212 0,87 -35,159 -105,218 -65,55 -142,83 -229,83 -154,0 -278,-53 -369,-159 -83,-97 -125,-216 -125,-357 0,-160 65,-297 195,-410 146,-127 344,-190 595,-190 275,0 485,67 632,200 130,119 195,276 195,468 0,210 -77,407 -232,590 -164,195 -374,320 -630,374l937 0z"/>
  <path fill="black" fill-rule="nonzero" d="M10186 17985c-21,73 -69,128 -144,163 -53,25 -109,38 -169,38l-262 0 -177 513 -95 0c-65,0 -123,-22 -173,-65 -53,-46 -80,-104 -80,-175 0,-32 6,-65 18,-99l105 -302c-90,102 -205,153 -344,153 -24,0 -50,-2 -76,-5 -76,-9 -136,-46 -179,-109 -39,-58 -59,-130 -59,-215 0,-48 7,-96 20,-144 39,-140 123,-245 250,-316 106,-58 230,-88 373,-88l715 0 -225 651 502 0zm-800 -451l-267 0 -95 269c-8,22 -11,42 -11,60 0,81 71,121 214,121l159 -451z"/>
  <path fill="black" fill-rule="nonzero" d="M5775 10035c0,96 -22,219 -66,369 -38,129 -83,248 -134,354 -134,283 -266,480 -394,591 -165,143 -388,214 -667,214 -147,0 -265,-31 -356,-94 -104,-73 -157,-179 -157,-319 0,-64 12,-130 35,-198l313 -879 -700 0 190 -316 1074 0 -411 1172c-22,63 -33,123 -33,179 0,63 21,113 63,149 39,34 91,51 155,51 228,0 427,-189 597,-567 67,-147 109,-275 128,-384 -99,0 -184,-29 -257,-88 -78,-63 -118,-142 -118,-238 0,-93 38,-171 115,-234 73,-61 157,-91 252,-91 101,0 187,29 257,88 75,62 113,142 113,240z"/>
  <path fill="black" fill-rule="nonzero" d="M6497 19656c-18,69 -56,122 -115,158 -47,28 -96,43 -149,43l-523 0c-123,0 -184,-39 -184,-118 -65,78 -153,118 -264,118l-220 0c-68,0 -120,-18 -158,-53 -35,-33 -53,-76 -53,-129 0,-30 6,-61 18,-93l210 -577 455 0 -234 651 254 0 233 -651 450 0 -228 651 510 0z"/>
  <path fill="black" fill-rule="nonzero" d="M16847 7322c0,83 -33,153 -99,212 -65,58 -144,88 -235,88 -92,0 -170,-29 -235,-88 -65,-58 -98,-129 -98,-212 0,-19 3,-44 10,-75 -38,-3 -61,-5 -71,-5 -127,0 -190,53 -190,159 0,54 37,176 111,364 75,189 113,336 113,443 0,229 -126,400 -379,515 -189,84 -410,126 -662,126 -231,0 -436,-32 -615,-96 -251,-90 -377,-229 -377,-416 0,-272 232,-408 695,-408l477 0 91 200 -372 0c-94,0 -175,16 -244,49 -90,43 -135,106 -135,189 0,94 62,168 187,222 96,41 199,61 308,61 139,0 254,-30 347,-91 108,-70 162,-171 162,-302 0,-90 -34,-220 -103,-388 -68,-169 -103,-300 -103,-393 0,-305 259,-457 778,-457l309 0c85,0 161,29 228,86 69,61 104,133 104,217z"/>
  <path fill="black" fill-rule="nonzero" d="M13325 17984c-3,56 -35,104 -96,143 -60,38 -126,58 -198,58l-952 0c-183,0 -274,-56 -274,-168 0,-10 1,-21 3,-33 7,-50 33,-89 80,-116 40,-24 86,-36 138,-35 90,3 212,52 367,149 44,-55 66,-111 66,-168 0,-28 -18,-93 -54,-194l-142 129 -250 0 333 -308c-15,-26 -25,-47 -31,-64 -11,-31 -17,-66 -18,-105l308 -328c139,23 208,86 208,189 0,60 -18,116 -54,167 31,82 62,164 94,245 38,105 58,190 58,255 0,72 -28,133 -85,184l500 0z"/>
  <path fill="black" fill-rule="nonzero" d="M10946 9754l-887 1603c-59,106 -150,159 -272,159l-157 0 0 -1113 -616 959c-66,103 -163,154 -292,154l-178 0 132 -1446 -582 0 193 -316 554 0c68,0 126,15 174,46 65,43 98,109 98,199 0,13 -1,27 -3,41l-90 849 597 -948c43,-68 81,-114 114,-138 47,-33 111,-50 192,-50l123 0 0 1111 601 -1111 299 0z"/>
  <path fill="black" fill-rule="nonzero" d="M10294 18998l-227 651c-62,134 -166,200 -312,200l-634 0c-111,0 -173,-37 -185,-110 -61,73 -149,110 -264,110l-223 0c-124,0 -185,-44 -185,-132 0,-21 5,-44 14,-69l228 -651 455 0 -234 651 218 0 234 -651 448 0 -228 651 213 0 233 -651 450 0z"/>
  <path fill="black" fill-rule="nonzero" d="M7943 1825c0,123 -65,238 -194,344 -78,64 -196,135 -354,213 64,111 96,212 96,302 0,186 -120,324 -361,413 -172,63 -372,95 -601,95l-651 0 452 -1285 451 0 -384 1085 64 0c146,0 270,-17 371,-50 149,-51 224,-134 224,-249 0,-37 -17,-81 -50,-131 -33,-52 -50,-89 -50,-113 0,-12 1,-20 3,-25 17,-37 62,-73 137,-108 103,-49 178,-95 225,-137 80,-69 120,-149 120,-240 0,-129 -98,-193 -294,-193l-1465 0 193 -316 1461 0c192,0 336,26 432,78 118,63 177,169 177,317z"/>
  <path fill="black" fill-rule="nonzero" d="M8085 12819c-55,134 -147,200 -277,200l-676 0c-33,239 -156,415 -369,527 -157,83 -340,124 -550,124l-228 0c-41,0 -77,-10 -108,-30 -41,-27 -61,-67 -61,-121 0,-31 7,-66 20,-105l447 -1254 451 0 -467 1307c179,4 307,-68 383,-215 -78,-48 -116,-114 -116,-198 0,-65 25,-121 75,-167 51,-46 111,-69 182,-69l1295 0z"/>
  <path fill="black" fill-rule="nonzero" d="M17028 1430l-193 316 -443 0 -208 595 403 0c-12,132 -91,199 -239,200l-235 3 -98 277c-87,248 -259,372 -516,372l-877 0c37,-94 69,-160 96,-199 48,-69 105,-104 170,-104 10,0 20,1 31,3l585 93 433 -1239 -716 0c-108,0 -205,31 -291,94 -94,68 -140,154 -140,258 0,72 24,113 73,123 16,-78 57,-140 123,-187 62,-45 133,-68 213,-68 87,0 162,27 225,80 68,57 103,130 103,220 0,100 -41,178 -123,234 -70,48 -157,73 -262,73 -161,0 -295,-38 -402,-113 -119,-84 -178,-200 -178,-348 0,-221 88,-394 263,-518 154,-109 346,-164 576,-164l1626 0z"/>
  <path fill="black" fill-rule="nonzero" d="M14746 12836c-27,134 -134,200 -323,200l-833 0c77,71 112,196 105,374 -8,211 -121,399 -338,565 -195,149 -383,222 -562,217 -34,-1 -65,-14 -91,-40 -27,-26 -40,-57 -40,-93 0,-14 3,-29 9,-44l317 -895c-43,-12 -78,-34 -108,-68 -33,-37 -50,-79 -50,-126 0,-29 7,-59 20,-90l235 0 234 -659 451 0 -277 659 1251 0zm-1420 769c22,-64 33,-121 33,-169 0,-68 -22,-120 -66,-154 -68,160 -175,401 -321,721 68,-35 139,-95 213,-180 73,-82 120,-154 142,-218z"/>
  <path fill="black" fill-rule="nonzero" d="M12376 2015c0,153 -53,314 -159,485 -140,225 -344,399 -611,522 -246,114 -511,170 -794,170l-413 0 453 -1285 452 0 -384 1085c164,0 327,-51 488,-152 162,-101 280,-226 354,-374 67,-131 100,-240 100,-328 0,-144 -40,-247 -120,-309 -72,-55 -182,-83 -331,-83l-1211 0 193 -316 1212 0c210,0 384,44 523,133 164,104 247,255 247,452z"/>
  <path fill="black" fill-rule="nonzero" d="M11180 13475c-42,134 -144,200 -307,200l-477 0c-138,0 -205,-43 -203,-130 -92,108 -215,162 -369,162 -101,0 -183,-28 -245,-85 -65,-58 -98,-138 -98,-238 0,-181 73,-323 220,-426 129,-89 288,-134 477,-134l260 0 234 -661 456 0 -466 1312 517 0zm-810 -451l-318 0 -95 269c-8,25 -13,48 -13,68 0,56 35,91 106,106 25,5 78,8 160,8l159 -451z"/>
  <path fill="black" fill-rule="nonzero" d="M6161 5030c-23,134 -116,200 -277,200l-421 0 -230 651 -451 0 233 -651 -423 0c-237,582 -611,873 -1121,874 -138,0 -251,-27 -339,-81 -107,-65 -160,-163 -160,-293 0,-102 34,-205 103,-308 173,-261 490,-392 953,-392l183 0 387 -1101 450 0 -393 1101 431 0 321 -910 452 0 -323 910 627 0zm-2023 200l-36 0c-164,0 -312,42 -443,126 -151,97 -227,223 -227,378 0,108 48,162 144,162 120,0 239,-84 357,-253 88,-126 156,-264 205,-413z"/>
  <path fill="black" fill-rule="nonzero" d="M6141 15935c-22,73 -68,128 -139,163 -51,25 -106,38 -164,38l-533 0c-94,0 -142,-34 -142,-103 0,-27 6,-59 19,-98l90 -267 -475 391c-58,51 -120,76 -185,76l-258 0 536 -1513 451 0 -377 1064 382 -313c99,-81 210,-121 336,-121 83,0 125,43 125,128 0,31 -8,66 -23,106l-159 448 516 0z"/>
  <path fill="black" fill-rule="nonzero" d="M8228 23513c0,149 -78,274 -233,374 94,108 140,225 140,353 0,186 -86,336 -258,450 -151,99 -325,149 -521,149 -227,0 -407,-43 -539,-128 -159,-101 -239,-258 -239,-471 0,-216 113,-387 339,-512 -45,-66 -68,-138 -68,-215 0,-154 79,-280 238,-376 136,-82 286,-123 450,-123 187,0 342,35 465,106 150,88 225,218 225,392zm-453 -105c0,-43 -14,-78 -43,-105 -28,-28 -63,-41 -104,-41 -90,0 -153,51 -188,152l-110 323 147 0c90,0 156,-24 197,-71 23,-28 53,-90 88,-188 9,-23 14,-46 14,-69zm-115 549l-234 0c-71,0 -129,24 -174,71 -33,37 -63,93 -90,168 -20,63 -40,126 -61,189 -10,28 -15,55 -15,80 0,46 20,83 59,113 36,27 78,40 128,40 110,0 185,-57 223,-172l165 -490z"/>
  <path fill="black" fill-rule="nonzero" d="M11994 23835c0,290 -84,528 -253,716 -175,194 -406,291 -693,291 -230,0 -416,-70 -556,-210 -139,-141 -209,-327 -209,-559 0,-288 85,-527 255,-716 176,-196 407,-294 691,-294 231,0 416,71 555,213 139,142 209,329 209,560zm-536 -144c0,-248 -73,-372 -218,-372 -142,0 -254,121 -337,364 -63,184 -94,366 -94,546 0,246 73,369 220,369 143,0 255,-121 337,-363 61,-181 91,-363 91,-545z"/>
  <path fill="black" fill-rule="nonzero" d="M13986 8615c-3,63 -33,113 -88,150 -50,33 -108,50 -174,50l-482 0c-66,0 -116,-18 -150,-53 -23,-23 -51,-72 -85,-148l-247 -546c31,-6 102,-30 214,-71 109,-40 177,-68 204,-83 166,-86 249,-194 249,-323 0,-149 -105,-223 -316,-223l-1277 0 195 -316 1261 0c453,0 680,144 680,433 0,245 -236,458 -708,641l225 487 497 0zm-1048 -1085l-457 1285 -451 0 453 -1285 455 0z"/>
  <path fill="black" fill-rule="nonzero" d="M11715 17985c0,58 -32,108 -96,148 -57,35 -116,53 -178,53l-480 0c-127,0 -190,-53 -190,-158 0,-27 5,-56 16,-86l142 -407 -267 0 -139 359c-23,61 -74,91 -152,91l-133 0 164 -451c-52,-12 -94,-38 -126,-78 -32,-41 -48,-88 -48,-140 0,-96 45,-170 134,-223 74,-43 163,-65 266,-65l203 0 -105 306 693 0 -228 651 525 0z"/>
  <path fill="black" fill-rule="nonzero" d="M8003 10038c-1,110 -39,212 -115,306l-805 989c-109,134 -231,200 -367,200l-321 0 126 -1446 -580 0 187 -316 606 0c68,0 124,21 170,63 46,42 69,95 69,159 0,8 0,17 -1,25l-130 1274 766 -956c-78,-15 -144,-50 -195,-104 -51,-55 -76,-120 -76,-194 0,-83 33,-153 98,-212 65,-59 144,-89 235,-89 93,0 172,30 237,89 65,59 97,130 96,212z"/>
  <path fill="black" fill-rule="nonzero" d="M8429 19002c-21,73 -69,128 -144,163 -53,25 -109,38 -169,38l-526 0 -530 651 -501 0 -54 -852 455 0 8 616 470 -616 992 0z"/>
  <path fill="black" fill-rule="nonzero" d="M19475 7053l-169 316 -465 0 -382 1074c-89,248 -260,372 -513,372l-877 0c37,-94 69,-160 96,-199 48,-69 105,-104 170,-104 10,0 20,1 31,3l585 93 438 -1239 -724 0c-107,0 -203,31 -288,94 -94,68 -140,154 -140,258 0,72 24,113 73,123 24,-84 70,-150 137,-197 61,-42 130,-63 207,-63 98,0 177,31 237,94 56,58 84,128 84,209 0,86 -33,157 -99,214 -74,65 -178,98 -312,98 -146,0 -271,-40 -376,-121 -119,-92 -178,-217 -178,-376 0,-171 69,-318 207,-441 155,-139 367,-208 635,-208l1623 0z"/>
  <path fill="black" fill-rule="nonzero" d="M14576 17981c-39,134 -144,200 -313,200l-639 0c-124,0 -185,-43 -185,-130 0,-22 5,-45 14,-70l159 -451 -205 0 79 -200c146,-38 255,-86 326,-144 80,-66 166,-185 257,-358l244 0 -177 502 323 0c-52,134 -157,200 -316,200l-83 0 -157 451 673 0z"/>
  <path fill="black" fill-rule="nonzero" d="M13320 10002c0,87 -34,159 -103,218 -65,55 -141,83 -228,83 -58,0 -117,-15 -175,-45 -58,-31 -102,-71 -133,-119l-423 443 198 751 654 0c-11,66 -51,117 -119,154 -58,31 -123,46 -197,46l-492 0c-81,0 -151,-25 -210,-74 -55,-48 -94,-111 -118,-190l-85 -289 -399 417c-109,114 -225,170 -349,170 -88,0 -164,-28 -230,-83 -68,-58 -103,-131 -103,-218 0,-83 33,-154 98,-213 65,-58 144,-88 235,-88 139,0 239,58 301,173l382 -401 -154 -651 -622 0 189 -316 526 0c217,0 344,91 382,272l61 296 374 -391c90,-94 149,-151 178,-172 68,-49 144,-74 230,-74 88,0 165,28 230,83 68,58 103,130 103,217z"/>
  <polygon fill="black" fill-rule="nonzero" points="11700,18991 11206,19353 11531,19842 11023,19842 10861,19604 10533,19842 10141,19842 10728,19409 10444,18991 10966,18991 11074,19152 11292,18991 "/>
  <path fill="black" fill-rule="nonzero" d="M8256 4135l-490 1390c-87,248 -260,372 -518,372l-877 0c37,-94 69,-160 96,-199 48,-69 105,-104 170,-104 10,0 20,1 31,3l585 93 438 -1239 -724 0c-107,0 -203,31 -288,94 -94,68 -140,154 -140,258 0,72 24,113 73,123 16,-78 57,-140 123,-187 62,-45 133,-68 213,-68 87,0 162,27 225,80 68,57 103,130 103,220 0,100 -41,178 -123,234 -70,48 -157,73 -262,73 -161,0 -295,-38 -402,-113 -119,-84 -178,-200 -178,-348 0,-221 88,-394 263,-518 154,-109 347,-164 579,-164l1102 0z"/>
  <path fill="black" fill-rule="nonzero" d="M7080 14766c0,83 -33,154 -98,213 -64,58 -142,88 -233,88 -93,0 -172,-29 -237,-88 -64,-58 -96,-129 -96,-213 0,-83 32,-153 96,-212 65,-58 144,-88 237,-88 91,0 169,29 233,88 65,58 98,129 98,212zm90 1165c-22,73 -67,128 -135,163 -49,25 -103,38 -160,38l-495 0c-119,0 -179,-50 -179,-150 0,-28 6,-59 18,-91l218 -610 455 0 -232 651 511 0z"/>
  <path fill="black" fill-rule="nonzero" d="M18752 5688c-35,134 -151,200 -348,200l-450 0c-140,0 -210,-40 -210,-121 0,-28 9,-66 26,-111l208 -541 -621 681c-67,74 -140,111 -219,111 -15,0 -31,-1 -48,-4 -95,-11 -143,-58 -143,-143 0,-33 8,-68 23,-105l308 -795 -773 933c-52,63 -128,95 -228,95l-254 0 506 -1446 -695 0 189 -316 837 0c115,0 173,42 173,126 0,33 -8,72 -24,118l-269 776 539 -610c68,-78 121,-129 158,-153 61,-38 140,-58 237,-58 28,0 56,10 86,29 46,30 69,75 69,134 0,37 -9,78 -28,124l-243 631 482 -485c68,-68 114,-110 137,-124 39,-23 96,-33 169,-33 29,0 60,11 93,33 50,33 75,80 75,143 0,36 -8,76 -25,119l-299 790 564 0z"/>
  <path fill="black" fill-rule="nonzero" d="M14014 15912c-24,134 -119,200 -284,200l-508 0c-40,0 -77,-16 -111,-49 -33,-33 -50,-71 -50,-113 0,-13 2,-26 5,-39 18,-62 46,-152 83,-269l-423 354c-107,89 -198,133 -274,133 -114,0 -170,-43 -170,-128 0,-28 6,-58 19,-90l100 -269 -498 416c-43,36 -96,54 -159,54l-255 0 299 -852 452 0 -142 401 384 -316c96,-79 204,-119 323,-119 99,0 148,38 148,114 0,22 -5,46 -14,71l-90 249 374 -318c91,-78 192,-116 303,-116 105,0 158,45 158,134 0,30 -7,63 -20,100l-162 451 513 0z"/>
  <path fill="black" fill-rule="nonzero" d="M13000 4135l-1024 910 95 0c117,0 175,51 175,154 0,34 -8,73 -24,118l-133 379 520 0c-38,134 -160,200 -364,200l-438 0c-120,0 -180,-45 -180,-134 0,-21 4,-43 11,-66l167 -500 -654 582c-89,78 -190,118 -306,118l-210 0 511 -1446 -700 0 192 -316 780 0c143,0 214,54 214,162 0,37 -8,79 -25,128l-304 903 1307 -1192 391 0z"/>
  <path fill="black" fill-rule="nonzero" d="M10419 15908c-21,73 -69,128 -144,163 -53,25 -109,38 -169,38l-492 0c-114,0 -172,-44 -172,-133 0,-28 6,-58 18,-90l129 -349c-38,40 -192,180 -460,418 -66,60 -116,99 -150,118 -45,24 -99,36 -163,36l-187 0 533 -1510 451 0 -333 935 500 -497 288 0 -291 301 95 0c116,0 174,45 174,134 0,28 -7,61 -20,99l-123 338 515 0z"/>
  <path fill="black" fill-rule="nonzero" d="M7182 7687c0,309 -121,578 -364,806 -235,221 -500,332 -794,332 -216,0 -387,-58 -512,-175 -125,-117 -188,-277 -188,-481 0,-105 25,-218 74,-338 47,-114 109,-218 185,-311l551 0c-94,83 -172,190 -234,321 -63,134 -94,262 -94,384 0,101 21,187 63,257 50,83 122,125 217,125 157,0 299,-101 426,-304 113,-182 169,-357 169,-523 0,-133 -38,-236 -115,-309 -77,-74 -183,-111 -318,-111l-1236 0 192 -316 1152 0c234,0 424,48 570,143 172,113 258,280 258,501z"/>
  <path fill="black" fill-rule="nonzero" d="M7035 17293c-33,134 -134,200 -301,200l-784 0c28,18 50,52 68,101 18,48 25,91 21,126 -12,139 -73,249 -184,328 -106,76 -244,114 -413,115 -197,2 -349,-37 -455,-116 -94,-70 -142,-162 -142,-277 0,-23 2,-45 6,-68 22,-126 84,-225 188,-297 110,-76 257,-114 441,-114l1554 0zm-1365 200l-287 0 -113 321c-6,17 -9,33 -9,48 0,72 67,108 200,108 16,0 30,0 41,-1l167 -475z"/>
  <path fill="black" fill-rule="nonzero" d="M14133 24587c0,63 -32,114 -95,153 -53,32 -114,48 -182,48l-1106 0c-141,0 -258,-26 -351,-79 -114,-66 -172,-164 -172,-296 0,-157 75,-293 224,-410 104,-81 255,-158 455,-232l-98 -282c-10,-30 -15,-61 -15,-93 0,-131 74,-234 223,-308 119,-59 250,-89 396,-89 357,0 536,119 536,356 0,118 -58,220 -175,307 -71,53 -201,121 -389,202 29,85 115,326 257,723l492 0zm-539 -1212c0,-43 -16,-76 -49,-101 -33,-25 -72,-38 -118,-38 -43,0 -84,13 -125,40 -48,31 -73,69 -73,115 0,15 3,30 8,45 7,20 28,82 63,187 196,-88 294,-170 294,-248zm-402 1212l-193 -551c-188,103 -282,219 -282,348 0,135 88,203 264,203l210 0z"/>
  <path fill="black" fill-rule="nonzero" d="M15723 9754l-531 1524c-26,73 -71,131 -134,174 -63,43 -134,64 -212,64l-969 0c20,-75 59,-134 116,-177 58,-43 126,-65 204,-65l541 0 264 -743 -377 400c-78,82 -181,123 -311,123 -75,0 -139,-17 -190,-50 -59,-38 -89,-94 -89,-165 0,-34 6,-68 18,-103l264 -740 -225 0c3,23 5,43 5,59 0,83 -33,153 -98,212 -64,58 -142,88 -234,88 -92,0 -170,-29 -235,-88 -65,-58 -98,-129 -98,-212 0,-87 34,-159 103,-218 65,-55 141,-83 228,-83l814 0c58,0 104,17 140,51 36,33 54,79 54,137 0,33 -6,66 -18,99l-267 749 736 -943c19,-25 50,-47 93,-65 43,-18 80,-28 113,-28l294 0z"/>
  <path fill="black" fill-rule="nonzero" d="M13339 19664c-49,134 -142,200 -277,200l-306 0c-73,197 -149,343 -229,438 -112,132 -251,198 -417,198 -104,0 -185,-30 -242,-91 -49,-53 -74,-122 -74,-207 0,-67 14,-131 43,-194 29,-63 67,-111 114,-144l-95 0c-55,0 -101,-17 -138,-50 -36,-34 -54,-77 -54,-128 0,-23 4,-47 13,-71l218 -602 455 0 -234 651 254 0 230 -651 452 0 -230 651 517 0zm-1048 234c-55,0 -106,31 -154,93 -47,63 -70,125 -70,187 0,55 24,99 73,133l152 -412z"/>
  <path fill="black" fill-rule="nonzero" d="M9462 20571l-433 631c87,46 161,112 222,199 66,93 99,185 99,278 0,197 -74,355 -222,475 -124,99 -289,165 -497,198 -132,21 -283,28 -453,20 -89,-4 -165,-34 -230,-90 -68,-59 -103,-132 -103,-218 0,-87 34,-159 103,-218 65,-55 141,-83 228,-83 89,0 165,28 230,83 68,58 103,131 103,218 0,40 -8,77 -23,110 94,-5 170,-45 230,-120 58,-73 88,-160 88,-262 0,-119 -53,-220 -158,-303 -88,-69 -184,-109 -286,-118l363 -443 -684 0 138 -357 1285 0z"/>
  <path fill="black" fill-rule="nonzero" d="M5882 20958l-492 1405 -455 0 495 -1444 -397 0 167 -318 490 0c65,0 117,19 157,56 42,40 63,94 63,162 0,43 -9,89 -26,139z"/>
  <path fill="black" fill-rule="nonzero" d="M13095 20547l-152 357 -644 0 -110 302 177 0c195,0 342,41 442,124 108,89 162,199 164,328 1,139 -58,270 -178,392 -195,201 -468,302 -819,302 -75,0 -151,-6 -227,-18 -87,-12 -159,-46 -217,-103 -58,-57 -86,-124 -86,-202 0,-83 32,-153 96,-212 65,-59 143,-89 234,-89 93,0 172,30 237,89 65,58 98,129 98,212 0,36 -7,72 -21,108 99,-13 184,-61 254,-145 67,-81 100,-169 100,-263 0,-87 -35,-157 -105,-212 -79,-63 -194,-94 -344,-94l-333 0 308 -877 1126 0z"/>
  <path fill="black" fill-rule="nonzero" d="M10338 3943l-433 1236c-106,303 -269,537 -488,701 -186,139 -380,209 -581,209 -124,0 -226,-28 -306,-84 -82,-58 -123,-134 -123,-229 0,-83 33,-153 98,-212 65,-58 144,-88 235,-88 93,0 172,29 237,88 65,58 98,129 98,212 0,14 -2,31 -5,51 80,-34 150,-106 210,-214 33,-60 73,-156 120,-288l377 -1067 -721 0c-108,0 -205,31 -291,94 -94,68 -140,154 -140,258 0,72 24,113 73,123 16,-78 57,-140 123,-187 62,-45 133,-68 213,-68 87,0 162,27 225,80 68,57 103,130 103,220 0,100 -41,178 -123,234 -70,48 -157,73 -262,73 -161,0 -295,-38 -402,-113 -119,-84 -178,-200 -178,-348 0,-221 88,-394 263,-518 154,-109 346,-164 576,-164l1102 0z"/>
  <path fill="black" fill-rule="nonzero" d="M8474 14756c0,83 -33,154 -98,213 -64,58 -142,88 -233,88 -93,0 -172,-29 -237,-88 -64,-58 -96,-129 -96,-213 0,-83 32,-153 96,-212 65,-58 144,-88 237,-88 91,0 169,29 233,88 65,58 98,129 98,212zm115 1165c-39,134 -152,200 -338,200l-264 0 -61 172c-42,115 -110,205 -205,268 -92,61 -200,91 -326,91 -83,0 -152,-34 -204,-101 -48,-63 -73,-137 -73,-224 0,-130 47,-233 142,-307 88,-69 200,-104 338,-104l233 -646 453 0 -230 651 536 0zm-1054 200c-53,8 -94,33 -125,73 -31,41 -46,89 -46,143 0,58 16,101 49,128l123 -343z"/>
  <path fill="black" fill-rule="nonzero" d="M4862 7315c0,87 -35,159 -104,217 -65,56 -142,84 -230,84 -89,0 -165,-28 -228,-83l-416 1155c-39,111 -107,167 -204,167 -130,0 -207,-56 -232,-169l-208 -986 -282 834c-29,87 -85,156 -168,208 -78,49 -164,74 -258,74l-595 0c37,-92 68,-157 94,-194 49,-73 107,-109 173,-109 40,0 101,9 182,26 82,17 144,25 185,25 88,0 150,-54 187,-162l386 -1118c33,-97 61,-159 84,-187 39,-50 101,-75 185,-75 126,0 207,89 243,267l172 857 259 -728c96,-269 242,-403 438,-403 89,0 166,28 232,83 70,58 105,131 105,218z"/>
  <path fill="black" fill-rule="nonzero" d="M15779 15902c-22,73 -70,128 -144,163 -53,25 -109,38 -169,38l-500 0c-114,0 -172,-38 -172,-113 0,-25 6,-54 18,-88l95 -269 -431 364c-101,70 -184,105 -249,105l-230 0 299 -852 452 0 -142 401 382 -313c104,-84 216,-125 337,-121 82,3 123,47 123,130 0,31 -7,66 -20,104l-162 451 512 0z"/>
  <path fill="black" fill-rule="nonzero" d="M15617 4427c0,86 -35,158 -104,217 -66,56 -142,84 -229,84 -98,0 -179,-32 -244,-96 -65,-64 -94,-145 -86,-243 -27,-3 -67,7 -120,31 -119,53 -191,252 -218,595 -28,339 -225,571 -592,698l1484 0c-36,134 -148,200 -336,200l-2298 0c70,-202 157,-303 259,-303 46,0 126,18 239,55 114,37 195,55 245,55 144,0 261,-131 352,-392l199 -577c145,-419 507,-629 1086,-629 97,0 180,26 249,78 76,58 114,134 114,228z"/>
  <path fill="black" fill-rule="nonzero" d="M11463 15913c-21,73 -69,128 -144,163 -53,25 -109,38 -169,38l-482 0c-124,0 -185,-42 -185,-126 0,-22 5,-46 14,-74l465 -1310 443 0 -467 1310 526 0z"/>
  <path fill="black" fill-rule="nonzero" d="M9492 7471c0,247 -171,459 -512,636 -228,119 -499,210 -814,272l-153 436 -457 0 457 -1285 453 0 -215 602c162,-37 306,-94 431,-172 174,-109 265,-237 272,-382 4,-94 -27,-155 -94,-184 -40,-18 -112,-26 -217,-26l-1280 0 195 -316 1290 0c189,0 333,23 432,70 141,66 212,182 212,348z"/>
  <path fill="black" fill-rule="nonzero" d="M8496 17965c-8,64 -41,115 -101,152 -53,33 -116,49 -189,49l-683 0c-103,0 -155,-53 -158,-159 38,-16 77,-31 116,-46 55,-25 97,-56 125,-91 38,-48 58,-109 58,-183 0,-46 -21,-86 -64,-121 -43,-35 -90,-52 -142,-50l-392 1133 -455 0 565 -1637 453 0 -104 303c188,0 312,9 373,26 149,41 220,137 214,287 -3,67 -33,134 -89,202 -58,70 -124,116 -199,137l670 0z"/>
  <path fill="black" fill-rule="nonzero" d="M18055 10496c-40,134 -118,200 -234,200l-771 0c2,12 3,30 3,54 0,243 -123,463 -369,659 -232,185 -473,277 -724,277 -118,0 -212,-33 -282,-100 -70,-66 -102,-156 -95,-269 15,-224 120,-412 314,-565 171,-135 371,-217 600,-245 -44,-87 -115,-168 -213,-243l691 -362 -941 0 189 -316 1304 0c1,98 -11,174 -36,230 -30,67 -85,121 -164,164l-505 273c89,70 150,151 182,243l1052 0zm-1451 244c-3,-13 -10,-27 -21,-44 -73,8 -154,42 -245,101 -86,55 -154,114 -203,178 -129,165 -193,300 -193,403 0,73 33,110 98,110 120,0 245,-76 374,-229 129,-154 194,-306 194,-457 0,-22 -1,-43 -4,-63z"/>
  <path fill="black" fill-rule="nonzero" d="M14847 19657c-39,134 -136,200 -291,200l-818 0c-157,0 -235,-41 -235,-123 0,-53 21,-102 64,-147l372 -382 -426 0 69 -200 1059 0 -595 651 800 0z"/>
  <path fill="black" fill-rule="nonzero" d="M11275 21525l-130 357 -323 0 -180 495 -451 0 177 -495 -654 0c-127,0 -190,-48 -190,-144 0,-43 17,-83 51,-120l411 -445c-66,-20 -120,-56 -162,-108 -41,-53 -61,-111 -61,-177 0,-87 34,-159 103,-218 66,-55 143,-82 230,-81 94,0 173,31 238,94 65,62 98,139 98,232 0,77 -35,153 -105,228l-356 382 507 0 333 -910 455 0 -318 910 328 0z"/>
  <path fill="black" fill-rule="nonzero" d="M7732 21050c0,225 -114,433 -343,626 -193,163 -412,277 -659,343l857 0 -129 364 -1307 0 108 -357c187,-76 379,-199 575,-369 235,-205 353,-386 353,-544 0,-164 -63,-245 -189,-245l-16 0c4,23 6,41 6,54 0,85 -35,157 -104,215 -65,56 -142,84 -230,84 -87,0 -163,-28 -228,-84 -68,-58 -103,-130 -103,-215 0,-139 65,-233 195,-282 88,-33 235,-50 441,-50 215,0 375,18 478,54 197,68 296,203 296,406z"/>
  <path fill="black" fill-rule="nonzero" d="M14785 21666c0,221 -86,398 -257,530 -157,121 -349,182 -577,182 -212,0 -392,-54 -540,-163 -164,-120 -247,-282 -247,-486 0,-246 107,-479 321,-699 166,-169 383,-319 651,-451l362 0c-245,188 -427,354 -545,500 -180,221 -269,445 -269,670 0,108 26,196 79,266 58,78 140,116 244,116 167,0 275,-82 323,-247 6,-18 13,-37 21,-56 -88,-1 -164,-29 -228,-84 -68,-58 -103,-130 -103,-215 0,-87 34,-159 103,-218 65,-55 142,-83 230,-83 129,0 233,41 312,123 79,81 119,186 119,316z"/>
 </g>
</svg>
