<?xml version="1.0" encoding="UTF-8"?>
<!DOCTYPE svg PUBLIC "-//W3C//DTD SVG 1.1//EN" "http://www.w3.org/Graphics/SVG/1.1/DTD/svg11.dtd">
<!-- Creator: CorelDRAW 2017 -->
<svg xmlns="http://www.w3.org/2000/svg" xml:space="preserve" width="210mm" height="297mm" version="1.1" shape-rendering="geometricPrecision" text-rendering="geometricPrecision" image-rendering="optimizeQuality" fill-rule="evenodd" clip-rule="evenodd"
viewBox="0 0 21000 29700"
 xmlns:xlink="http://www.w3.org/1999/xlink">
 <g id="Layer_x0020_1">
  <metadata id="CorelCorpID_0Corel-Layer"/>
  <path fill="black" fill-rule="nonzero" d="M3790 1740c-10,-31 -18,-49 -25,-56 -7,-7 -16,-7 -25,2 -10,8 -25,51 -46,129 -22,77 -32,131 -32,159 0,32 -6,60 -17,83 -9,18 -13,36 -13,56 0,73 59,110 176,110l86 0 -5 -68c-7,-50 -19,-119 -36,-207 -17,-87 -29,-134 -36,-139 -7,-11 -16,-33 -25,-68zm-384 -417c16,-11 133,-16 354,-16 225,0 338,5 338,16 0,10 -11,18 -33,23 -13,7 -22,14 -26,25 -4,10 -5,33 -5,67 0,52 -7,96 -20,133 -11,32 -16,54 -16,67 0,32 11,52 33,60 19,5 34,27 46,66 12,39 25,115 41,228 20,142 35,225 44,248 4,14 11,56 22,127 11,71 19,112 25,125 11,22 17,45 17,71 0,24 3,41 9,48 9,21 20,60 30,117 6,37 9,64 9,79 0,35 -15,52 -44,52 -19,0 -22,13 -9,39 10,19 22,30 39,33 23,5 40,28 49,67 9,36 16,54 22,54 6,0 12,26 20,79 4,65 12,119 24,161 6,24 8,45 8,63 0,11 -1,24 -4,41 -3,18 -4,30 -4,37 0,24 12,47 37,72 13,15 32,52 57,112 25,59 41,95 49,108 21,30 31,47 31,52 0,11 18,22 53,35l56 25 -59 11c-55,10 -187,16 -398,16 -223,0 -335,-5 -335,-16 0,-7 9,-16 28,-24 19,-9 38,-12 58,-12 15,0 40,-12 74,-37 34,-24 62,-49 83,-73 18,-24 27,-58 27,-106 0,-53 -9,-152 -26,-300 -18,-147 -30,-226 -39,-236 -8,-11 -12,-31 -12,-62 0,-52 7,-85 22,-96 14,-13 18,-29 13,-47 -5,-18 -17,-28 -35,-28 -50,0 -86,-75 -105,-223 -10,-82 -23,-123 -39,-123 -5,0 -19,7 -39,20 -11,9 -37,13 -76,13 -47,0 -94,-5 -143,-14 -49,-10 -73,-20 -73,-30 0,-16 -7,-23 -22,-23 -21,0 -39,66 -53,199 -6,53 -16,80 -31,83 -16,5 -24,32 -24,79 0,43 -7,107 -20,194 -13,87 -24,132 -32,137 -6,8 -22,76 -47,206 -18,102 -27,182 -27,240 0,63 10,107 31,134 21,26 52,39 95,39 55,0 83,12 83,38 0,11 -5,18 -14,21 -24,8 -176,12 -456,12 -211,0 -337,-1 -377,-4 -40,-3 -60,-12 -60,-29 0,-23 32,-37 95,-42 121,-11 191,-56 210,-138 8,-37 28,-83 62,-138 30,-39 44,-76 44,-114 0,-20 14,-54 41,-102 27,-48 47,-72 61,-72 26,0 39,-28 39,-83 0,-32 -4,-54 -14,-67 -2,-3 -3,-7 -3,-12 0,-32 9,-96 28,-193 19,-97 33,-155 43,-174 7,-18 18,-61 31,-129l27 -142c4,-13 3,-22 -1,-26 -5,-3 -15,-5 -32,-5 -30,0 -67,7 -111,21 -43,14 -69,28 -76,42 -6,10 -30,31 -72,63 -42,31 -66,51 -71,58 -2,3 -11,11 -28,24 -17,13 -32,27 -46,41 -14,14 -21,24 -21,29 0,7 -12,21 -37,40 -20,13 -32,15 -36,8 -4,-8 0,-26 11,-56 11,-23 46,-74 107,-153 61,-79 95,-118 105,-118 6,0 18,-11 37,-33 33,-39 95,-74 185,-106 69,-23 112,-47 130,-72 18,-25 33,-81 46,-168 6,-37 13,-61 22,-72 9,-10 26,-15 52,-15 23,0 34,-9 34,-27 0,-17 -9,-34 -26,-52 -18,-24 -25,-60 -22,-110 4,-55 13,-99 27,-131 23,-75 34,-127 34,-154 0,-36 -22,-60 -67,-71 -27,-5 -40,-12 -40,-20 0,-3 2,-5 5,-7z"/>
  <path fill="black" fill-rule="nonzero" d="M6967 2881c-17,-50 -38,-75 -62,-75 -13,0 -20,8 -20,23 0,35 24,70 73,106l28 25c3,0 4,-1 4,-5 0,-3 -8,-28 -24,-74zm-263 -217c-50,-60 -91,-91 -123,-91 -11,0 -32,5 -62,16 -29,10 -55,16 -76,19 -55,12 -85,21 -89,29 -4,11 -15,15 -34,15 -14,0 -24,5 -29,14 -4,9 -9,33 -13,73 -8,58 -14,89 -20,95 -9,5 -12,22 -12,51 1,29 6,43 14,43 8,0 12,20 12,60 0,43 -4,64 -11,64 -11,0 -16,109 -16,327 0,218 7,331 22,339 3,2 12,3 25,3 88,0 157,-17 209,-52 75,-52 134,-106 177,-161 28,-35 51,-54 69,-54 2,0 5,1 10,2 5,1 9,2 13,2 11,3 20,4 26,4 6,0 10,-2 12,-6 2,-4 3,-11 3,-23 0,-26 -6,-46 -19,-62 -25,-35 -29,-62 -12,-83 4,-14 8,-76 12,-186 2,-113 13,-187 33,-223l26 -52 -35 -4c-25,-5 -40,-18 -42,-40 -3,-28 -28,-68 -73,-117zm205 -950c-6,-31 -19,-47 -40,-47l-33 0 42 68c24,47 45,71 61,71 16,0 16,-8 0,-24 -16,-16 -25,-39 -29,-68zm-650 679c25,0 55,6 90,17 36,12 67,18 95,18l23 0c33,0 69,-19 109,-56 41,-36 70,-66 87,-91 16,-20 39,-27 67,-19 29,5 44,0 44,-16 0,-18 -4,-27 -12,-27 -7,0 -11,-8 -11,-25 0,-10 -5,-20 -15,-29 -10,-9 -13,-23 -9,-42 8,-20 13,-85 17,-192 3,-110 13,-177 30,-200l25 -40 -37 -12c-26,-8 -39,-24 -39,-47 0,-24 -7,-42 -20,-54 -16,-17 -35,-39 -56,-68 -28,-37 -60,-61 -97,-71 -38,-11 -94,-16 -169,-16l-131 0 -14 117c-11,95 -19,257 -23,484l-8 367 53 0zm-546 -1127c7,-3 52,-4 134,-4 454,0 687,9 700,27 12,11 32,16 59,16 43,0 92,8 148,25 64,18 99,27 104,27 9,0 34,30 76,89 42,58 64,96 66,111 5,28 12,41 20,41 12,0 23,75 36,225 2,20 3,51 3,91 0,133 -14,215 -42,244 -12,10 -28,48 -50,113 -19,66 -31,101 -37,106 -9,11 -17,28 -24,48 -6,12 -8,23 -8,31 0,16 17,43 50,79 39,47 59,75 59,83 0,11 9,29 26,52 16,20 29,56 39,106 13,67 22,104 26,112 9,26 14,107 14,243 0,136 -5,218 -14,245 -4,8 -14,45 -32,114 -27,95 -91,180 -190,256 -87,65 -203,99 -349,102 -26,0 -64,1 -115,2 -50,1 -88,2 -111,2 -446,0 -669,-14 -669,-43 0,-5 10,-9 30,-11 12,-3 25,-10 40,-22 15,-12 29,-18 42,-18 26,0 54,-10 84,-31 30,-20 50,-44 59,-71 16,-37 36,-62 59,-75 34,-21 40,-46 19,-75 -11,-12 -2,-36 25,-71 24,-28 36,-51 36,-66 0,-16 -13,-24 -39,-24 -13,0 -23,-5 -29,-13 -6,-9 -12,-30 -18,-60 -6,-32 -9,-65 -9,-99 0,-26 2,-65 6,-117 4,-53 6,-93 6,-119 0,-58 4,-90 13,-98 9,-8 14,-22 14,-43 0,-27 -6,-54 -19,-81 -13,-28 -27,-41 -43,-41 -9,0 -17,-16 -22,-48 -2,-26 -16,-47 -43,-62 -25,-12 -41,-21 -44,-29 -4,-5 -34,-23 -90,-53 -56,-30 -86,-49 -89,-56 -9,-18 -24,-35 -44,-52 -6,-5 -12,-11 -18,-16 -5,-5 -10,-9 -13,-13 -3,-4 -3,-7 -1,-10l3 0c9,0 38,11 85,34 46,22 72,37 77,45 4,8 27,18 69,31 42,13 72,20 91,20 13,0 22,-2 26,-6 4,-4 7,-15 7,-33 0,-30 3,-44 11,-44 9,0 14,-17 14,-51 0,-34 9,-60 27,-78 9,-10 16,-23 20,-39 4,-16 4,-29 1,-39 -3,-10 -8,-15 -16,-15 -20,0 -30,-25 -30,-75 0,-70 15,-119 44,-146 9,-11 14,-17 14,-19 0,-3 -6,-4 -20,-4 -12,0 -21,-5 -24,-14 -3,-10 -5,-30 -5,-61 0,-70 0,-123 -1,-159 -1,-35 -1,-69 -1,-99 0,-30 -2,-52 -7,-66 -5,-14 -7,-25 -8,-33 -1,-9 -8,-22 -20,-39 -12,-18 -21,-33 -26,-44 -6,-16 -26,-31 -62,-47 -35,-15 -67,-23 -96,-23 -22,0 -33,-9 -33,-26 0,-18 10,-28 30,-30z"/>
  <path fill="black" fill-rule="nonzero" d="M9055 1172c8,-10 15,-15 23,-15 14,0 22,34 22,102 -2,150 -8,330 -18,541 -10,210 -19,328 -26,354 -13,62 -25,93 -36,90 -2,-3 -3,-6 -3,-11 0,-37 -6,-116 -17,-237 -11,-146 -29,-243 -53,-290 -21,-47 -32,-83 -32,-108 0,-31 -17,-61 -50,-91 -36,-33 -53,-53 -53,-58 0,-14 -19,-28 -56,-40 -37,-13 -73,-19 -109,-19 -50,0 -93,15 -129,46 -98,82 -151,156 -161,221 -8,37 -24,89 -47,154 -16,43 -32,102 -47,181 -13,82 -20,186 -20,311 0,68 3,123 9,165 3,43 5,68 5,75 0,28 -4,53 -14,75 -14,33 -18,54 -11,63 5,3 16,22 31,58 37,95 75,180 114,256 6,14 15,43 28,85 13,43 31,74 53,93 30,23 49,49 60,78 10,29 19,43 26,43 6,0 17,20 35,60 37,75 82,114 134,114 24,0 38,7 42,23 4,14 24,33 62,58 37,25 66,37 86,37 17,0 27,7 31,19 8,11 42,16 103,16 58,0 93,-5 105,-16 18,-18 63,-27 133,-27 27,0 41,3 43,8 4,11 6,18 6,23 0,31 -19,57 -57,79 -35,21 -54,33 -56,39 -17,30 -117,44 -303,44 -171,0 -266,-13 -285,-40 -9,-13 -40,-27 -92,-43 -52,-15 -82,-26 -89,-32 -5,-5 -14,-9 -23,-10 -10,-1 -16,-1 -18,2 -7,9 -25,-5 -53,-43 -25,-34 -37,-67 -37,-98 0,-55 38,-85 114,-91 33,0 53,-3 60,-9 7,-6 7,-18 1,-35 -8,-18 -28,-27 -62,-27 -29,0 -63,6 -99,17 -36,12 -54,23 -54,33 0,8 -13,20 -38,37 -16,7 -30,11 -41,11 -28,0 -51,-14 -71,-43 -20,-28 -30,-64 -30,-106 0,-5 0,-11 1,-16 1,-5 1,-10 1,-15 2,-14 4,-30 7,-46 2,-17 4,-30 5,-39 1,-10 1,-18 1,-26 0,-15 -3,-26 -9,-31 -6,-5 -19,-10 -38,-15 -6,-3 -10,-4 -11,-4 -32,-5 -58,-20 -80,-43 -22,-24 -32,-51 -32,-80 0,-10 -8,-62 -24,-157 -15,-73 -23,-167 -23,-283l0 -83 3 -240 53 -7c37,-3 56,-15 56,-37 0,-26 -11,-47 -33,-66 -24,-27 -39,-68 -43,-123l0 -39c0,-30 3,-44 11,-44 10,0 26,16 50,48 28,33 58,50 87,50 17,0 29,-7 35,-19 6,-13 -8,-41 -44,-83 -37,-50 -56,-91 -56,-121 0,-19 9,-32 26,-40 15,-5 32,-34 53,-87 33,-90 69,-135 109,-135 14,0 24,-8 33,-23 9,-20 45,-51 107,-93 62,-41 110,-66 145,-77 41,-13 137,-22 286,-27l223 -4 20 -48c16,-35 30,-58 42,-72z"/>
  <path fill="black" fill-rule="nonzero" d="M11647 1718c20,3 31,0 33,-9 2,-9 -4,-16 -19,-24l-23 -11c-19,-3 -30,0 -32,7 -2,8 3,16 18,24l23 13zm-375 -308c-58,-22 -113,-32 -165,-32 -28,0 -47,2 -55,7 -8,5 -16,17 -23,37 -28,81 -42,347 -42,800 0,318 -3,520 -9,606 -5,77 -8,165 -8,267 0,270 10,449 30,536 12,52 52,79 120,79 41,0 81,-10 119,-31 29,-14 62,-41 96,-79 34,-39 51,-66 51,-82 0,-14 8,-43 24,-87 16,-44 29,-76 41,-95 14,-18 29,-70 48,-155 19,-85 28,-148 28,-187 0,-37 5,-62 15,-75 8,-10 13,-49 13,-117l0 -72 0 -52c0,-70 4,-119 12,-144 11,-27 11,-43 0,-48 -8,-3 -12,-16 -12,-40 0,-18 -6,-30 -19,-35 -8,-3 -11,-33 -11,-91 0,-55 -6,-91 -17,-106 -12,-16 -14,-36 -6,-59 7,-12 11,-45 11,-98l0 -64c0,-145 10,-225 29,-240 16,-11 24,-22 24,-35 0,-14 -13,-30 -38,-47 -25,-18 -38,-32 -38,-43 0,-19 -20,-55 -59,-108 -37,-50 -90,-86 -159,-110zm-792 -146c17,-16 57,-23 120,-23 41,0 65,5 70,15 3,11 18,15 42,15 19,0 28,-5 28,-15 0,-13 15,-19 44,-19 20,0 40,5 59,15 19,13 128,22 325,27 207,5 318,15 332,29 19,11 40,16 62,16 23,0 57,22 101,68 44,45 74,89 89,131 14,40 24,60 32,60 8,0 18,43 28,128 11,85 16,163 16,234 0,97 5,154 17,169 10,14 16,87 16,221 0,128 5,199 14,212 10,14 15,73 15,178 0,150 -7,232 -20,244 -10,8 -28,12 -56,12 -35,0 -53,11 -53,31 0,5 5,11 14,17 16,8 31,32 43,74 13,41 19,80 19,114 0,26 -4,43 -14,52 -2,3 -5,3 -9,2 -3,-1 -5,-4 -5,-7 0,-13 -18,-35 -55,-65 -36,-30 -61,-45 -74,-45 -16,0 -24,7 -24,23 0,27 15,60 44,100 30,33 44,68 44,102 0,31 -13,56 -39,75 -23,18 -39,37 -47,57 -6,22 -21,49 -46,80 -25,32 -44,47 -56,47 -12,0 -33,12 -62,35 -29,24 -48,37 -55,39 -20,8 -30,17 -30,27 0,24 -58,45 -173,60 -2,0 -17,1 -45,2 -28,1 -55,2 -81,2 -60,0 -173,-3 -336,-8 -239,-8 -358,-15 -358,-23 0,-3 6,-8 18,-16 12,-9 37,-19 76,-32 39,-13 72,-27 101,-41 28,-15 43,-32 43,-49 0,-13 13,-34 39,-64l34 -42 -12 -194c-5,-86 -8,-167 -8,-244 0,-173 10,-270 31,-290 11,-11 16,-26 16,-45 0,-38 -19,-72 -56,-102 -29,-18 -44,-45 -44,-79 0,-26 10,-52 29,-78 20,-26 28,-58 24,-95 0,-3 0,-7 -1,-13 -1,-7 -1,-11 -1,-14 0,-27 8,-57 23,-91 18,-39 27,-75 27,-108 0,-26 -8,-45 -24,-58 -17,-14 -26,-33 -26,-59 0,-53 22,-89 65,-108 17,-11 25,-25 25,-43 0,-20 -6,-31 -20,-31 -4,0 -11,1 -21,4 -10,3 -17,4 -21,4 -10,0 -15,-7 -15,-21 0,-10 3,-27 9,-50 7,-25 6,-49 -6,-72 -9,-20 -14,-58 -14,-114l0 -40 0 -52c0,-49 -8,-85 -24,-110 -4,-8 -10,-20 -19,-36 -9,-16 -15,-27 -19,-33 -4,-7 -10,-13 -20,-21 -9,-8 -19,-14 -31,-17 -11,-4 -25,-7 -42,-10 -58,-8 -87,-17 -87,-29 0,-5 4,-12 14,-19z"/>
  <path fill="black" fill-rule="nonzero" d="M14034 1194c12,-8 22,-12 30,-12 13,0 20,33 20,98 0,88 -3,183 -8,284 -6,102 -12,152 -18,152 -3,0 -22,-22 -56,-68l-50 -71 -188 -4c-100,-3 -188,-12 -263,-27 -30,-8 -49,-12 -59,-12 -13,0 -28,11 -47,31 -20,27 -30,47 -30,60 0,11 -3,26 -10,45 -7,20 -10,36 -10,49 0,12 2,24 6,32 10,21 14,42 14,65 0,22 -4,37 -14,45 -7,5 -11,58 -11,158 0,68 1,109 4,124 3,14 12,24 27,30l10 0c9,0 26,-3 49,-9 23,-6 39,-9 46,-9 16,0 24,7 24,21 0,5 -1,10 -4,15 -6,16 -2,23 9,23 12,0 28,-7 49,-23 30,-15 77,-26 142,-31 51,-6 84,-12 100,-19 16,-7 35,-25 58,-56l50 -67 0 106c0,58 -1,120 -4,187 -3,68 -7,123 -11,167 -5,45 -9,66 -13,66 -10,0 -28,-20 -53,-60l-42 -54 -199 -7c-51,-3 -113,-4 -188,-4l-33 0c-14,3 -22,87 -26,252 -2,73 -4,146 -6,220 -2,74 -3,130 -4,169 -1,39 -1,71 -1,95 0,31 2,75 6,133 8,87 21,131 40,131 9,0 21,-6 36,-19 41,-39 62,-37 62,8 0,26 7,40 21,44 14,4 27,-5 41,-25 14,-23 31,-31 53,-23 17,8 37,-3 59,-33 17,-18 28,-27 34,-27 16,0 24,18 24,56 0,53 12,58 37,15 11,-19 32,-31 65,-36 59,-16 118,-35 176,-58 37,-16 63,-48 78,-94l20 -71 11 50c6,55 9,153 9,292l2 237 -272 4c-231,3 -481,4 -750,4 -227,0 -341,-7 -341,-20 0,-3 8,-9 23,-21 13,-8 39,-17 80,-29 41,-11 77,-24 108,-37 31,-14 47,-28 47,-43 0,-15 17,-41 51,-79 34,-37 58,-56 72,-56 16,0 25,-5 27,-15 2,-16 -11,-26 -39,-31 -24,-3 -36,-12 -36,-29 0,-8 6,-12 19,-12 10,0 23,-10 41,-31 18,-20 26,-37 26,-51 0,-14 -13,-20 -39,-20 -21,0 -36,-16 -45,-47 -9,-32 -13,-92 -13,-182l0 -58c1,-97 4,-157 7,-180 3,-22 13,-37 29,-45 19,-11 28,-24 28,-41 0,-13 -13,-36 -39,-70 -26,-34 -45,-51 -57,-51 -8,0 -16,-16 -23,-49 -8,-33 -8,-51 -1,-53 30,-14 45,-54 47,-119 4,-108 8,-171 11,-189 4,-18 14,-30 30,-36 41,-16 40,-33 -3,-54 -20,-11 -30,-32 -30,-64 0,-39 15,-71 44,-95 30,-22 44,-41 44,-59 0,-18 -15,-27 -44,-27 -25,0 -40,-3 -43,-8 -2,-5 2,-20 15,-44 9,-24 7,-53 -7,-91 -11,-32 -17,-65 -17,-98 0,-15 1,-28 3,-40 0,-3 0,-8 1,-16 1,-7 1,-14 1,-19 0,-35 -4,-72 -12,-110 -7,-39 -15,-59 -23,-59 -3,0 -19,-14 -44,-43 -26,-28 -53,-43 -82,-43 -32,0 -48,-7 -50,-20 0,-9 6,-16 17,-21 20,-5 55,-8 103,-8 54,0 136,3 244,8 108,5 166,8 173,8 46,3 71,11 73,25 2,3 3,9 3,19 0,28 5,45 16,51 11,6 23,-3 37,-24 19,-26 40,-38 62,-38 29,0 50,-5 65,-16 17,-16 33,-18 47,-4 13,13 16,20 8,20 -8,0 -14,4 -16,13 -2,9 -1,18 2,27 3,9 9,14 16,14 14,0 26,-11 37,-31 11,-18 56,-32 135,-39 80,-9 125,-22 135,-39 8,-16 18,-27 32,-35z"/>
  <path fill="black" fill-rule="nonzero" d="M16285 1266c18,-23 35,-35 50,-35 12,0 19,8 22,23 3,16 4,58 4,129 0,105 -5,160 -14,165 -8,6 -12,45 -12,115 0,68 -2,102 -8,102 -4,0 -22,-22 -56,-68l-50 -71 -185 -4c-127,-5 -214,-14 -261,-27 -30,-8 -50,-12 -62,-12 -14,0 -24,5 -30,16 -9,18 -19,27 -28,27 -14,0 -24,28 -29,83 -5,55 -8,173 -10,356l-3 362 36 -12c27,-5 40,-14 40,-27 5,-12 13,-17 24,-17 13,0 19,21 17,63 -2,13 2,20 12,20 14,3 30,-4 47,-24 17,-18 53,-27 106,-27 27,0 46,-1 58,-3 12,-3 24,-9 36,-16 12,-9 24,-15 38,-20 25,-5 52,-26 79,-62l36 -56 0 138c0,60 -1,122 -4,184 -3,63 -6,115 -11,156 -4,41 -8,61 -12,61 -5,0 -24,-21 -56,-63l-43 -60 -188 0c-20,0 -40,0 -59,0 -20,0 -37,-1 -53,-2 -16,-1 -30,-2 -42,-2 -12,0 -22,0 -30,0l-13 0c-17,0 -26,143 -26,429l0 60 0 291c-2,129 38,218 120,265 47,26 70,48 70,66 0,18 -44,28 -132,28 -74,0 -141,-1 -199,-3 -53,0 -109,-1 -165,-2 -56,-1 -100,-3 -130,-4 -31,-1 -47,-2 -49,-2 -4,0 -6,-1 -6,-4 0,-8 10,-22 31,-43 21,-21 42,-37 64,-47 36,-22 60,-47 70,-75 6,-16 16,-121 29,-312 14,-192 24,-295 29,-310 10,-26 9,-42 -2,-48 -7,-3 -12,-13 -15,-31 -3,-18 -4,-36 -3,-53 1,-17 5,-26 12,-26 7,0 18,-9 31,-27 12,-11 17,-26 17,-45 0,-33 -10,-50 -31,-50 -16,0 -32,-18 -49,-54 -16,-36 -24,-68 -24,-96 0,-7 1,-17 5,-29 8,-12 19,-92 35,-238 3,-53 17,-83 39,-92 11,-5 20,-12 25,-22 6,-9 6,-17 1,-25 -4,-7 -13,-12 -24,-15 -22,-5 -34,-25 -36,-60 -2,-35 13,-65 44,-91 30,-24 44,-45 44,-63 0,-18 -16,-27 -47,-27 -11,0 -20,0 -26,0 -6,0 -10,-1 -12,-4 -2,-3 -2,-6 0,-10 2,-4 6,-10 13,-19 30,-46 30,-80 0,-102 -15,-13 -22,-68 -22,-165 0,-98 -9,-158 -27,-182 -18,-24 -31,-35 -41,-35 -10,0 -16,-7 -20,-20 -2,-5 -20,-14 -53,-27 -33,-12 -50,-23 -50,-31 0,-11 56,-17 168,-17 278,3 423,14 436,37 8,10 26,15 56,15 50,0 89,-11 117,-31 17,-14 31,-17 42,-9 11,9 15,23 11,43 -6,26 -1,39 14,39 14,0 20,-5 20,-16 0,-31 57,-50 171,-58 67,-3 109,-18 126,-48z"/>
  <path fill="black" fill-rule="nonzero" d="M17434 2952c0,10 7,26 20,47 13,21 19,38 19,51 0,23 16,56 46,98 55,73 95,132 120,177 48,79 88,123 120,131 36,5 62,22 80,51 18,29 38,43 60,43 13,3 21,1 24,-4 3,-5 3,-21 1,-47 -2,-26 -1,-41 1,-45 3,-3 13,-3 29,2 19,8 38,-5 57,-40 18,-33 27,-91 27,-173 0,-83 4,-129 14,-136 6,-3 8,-17 8,-44 0,-20 -5,-122 -17,-304l-8 -110 -53 11c-22,5 -35,7 -40,4 -4,-3 -6,-9 -4,-19 1,-11 0,-18 -3,-23 -4,-5 -9,-7 -16,-6 -6,1 -12,6 -16,14 -4,7 -41,16 -111,27 -49,5 -81,12 -95,20 -15,9 -32,26 -52,51 -27,42 -44,57 -51,44 -2,-3 -3,-22 -3,-56 0,-27 2,-93 5,-198 6,-154 16,-231 29,-231 8,0 22,16 44,50 19,32 42,51 67,56 15,3 25,7 30,12 5,5 7,14 5,27 -5,16 -5,25 0,25 2,0 10,-7 25,-21 19,-18 65,-27 138,-27 61,0 101,7 121,20 20,14 36,13 49,-1 16,-15 55,-26 118,-31 43,-5 66,-8 70,-8 20,0 34,13 42,39 4,8 6,28 6,60 0,108 -11,176 -33,205 -7,11 -11,34 -11,70 0,37 -8,65 -23,86 -14,19 -14,33 0,44 15,12 23,35 23,67 0,40 -11,74 -31,102 -38,47 -38,71 0,71 15,0 24,7 28,19 4,13 0,28 -11,43 -12,16 -11,47 3,92 11,33 17,70 17,110 0,22 -1,37 -3,48 -2,12 -3,31 -3,54 0,32 10,73 30,123 21,50 31,83 31,98 0,20 -27,35 -82,44 -39,5 -80,8 -123,8 -90,0 -187,-5 -291,-16 -104,-11 -159,-22 -165,-32 -7,-13 -36,-25 -84,-35 -43,-8 -88,-29 -136,-64 -47,-35 -79,-68 -93,-102 -10,-24 -14,-41 -13,-48 1,-8 10,-22 27,-43 26,-32 52,-43 80,-33 25,8 45,12 62,12 23,0 34,-7 34,-19 0,-5 -5,-14 -17,-27 -24,-24 -58,-37 -103,-37 -54,0 -96,17 -126,52 -19,26 -41,39 -67,39 -34,0 -59,-22 -76,-66 -12,-24 -18,-52 -18,-83 0,-30 6,-77 18,-142 3,-20 3,-33 0,-39 -4,-6 -17,-9 -39,-9 -30,0 -59,-11 -86,-31 -27,-20 -42,-45 -46,-75 -25,-165 -44,-260 -59,-283 -8,-11 -12,-30 -12,-54 0,-25 4,-41 12,-49 9,-5 14,-22 14,-50 0,-32 -5,-51 -14,-56 -8,-8 -12,-29 -12,-64 0,-35 5,-71 15,-106 9,-30 8,-53 -3,-71 -6,-8 -9,-16 -9,-23 0,-25 25,-37 76,-37 38,0 56,-11 56,-31 0,-18 -11,-38 -32,-60 -29,-31 -46,-75 -50,-133l0 -40c0,-31 4,-47 11,-47 8,0 24,17 49,51 25,34 54,51 86,51 29,0 44,-7 44,-20 0,-14 -17,-43 -50,-87 -34,-44 -50,-81 -50,-111 0,-23 11,-47 33,-71 11,-13 28,-41 51,-85 22,-43 44,-73 64,-89 23,-18 37,-31 43,-38 10,-14 42,-41 94,-80 53,-39 91,-65 115,-77 27,-13 130,-23 308,-29l266 -8 36 -70c19,-42 36,-63 50,-63 16,0 23,33 23,102 -7,404 -20,661 -36,771 -6,32 -12,48 -20,48 -11,0 -21,-21 -29,-64 -29,-167 -57,-283 -83,-346 -11,-23 -17,-48 -17,-75 0,-18 -15,-45 -45,-81 -30,-36 -62,-66 -95,-89 -26,-20 -68,-31 -129,-31 -59,0 -104,11 -136,31 -82,50 -136,134 -163,252 -14,65 -25,98 -33,98 -10,0 -22,38 -37,114 -15,77 -25,157 -31,241 -4,58 -6,100 -6,125 0,47 4,102 12,165 4,27 5,55 5,86 0,30 -5,57 -17,83 -15,32 -16,60 -2,83 9,13 22,41 38,83 16,43 24,69 24,79 0,5 10,26 32,62 22,36 32,58 32,66z"/>
  <path fill="black" fill-rule="nonzero" d="M2845 7226c5,0 20,-29 42,-87 22,-58 36,-86 41,-86 7,0 29,-24 64,-72 40,-47 70,-79 93,-94 29,-21 44,-35 44,-43 0,-9 22,-25 65,-49 43,-24 71,-37 84,-37 13,0 19,-6 19,-17 0,-23 72,-40 217,-50l150 -12 3 -44c2,-32 18,-52 49,-60 29,-11 44,-19 44,-27 0,-13 -8,-28 -24,-43 -16,-16 -30,-24 -44,-24 -11,0 -18,-11 -20,-32 -2,-21 -3,-87 -3,-197 0,-146 -4,-243 -13,-291 -19,-92 -60,-138 -123,-138 -31,0 -45,-6 -43,-19 2,-8 11,-14 29,-19 1,0 7,-1 16,-2 9,-1 17,-2 22,-2 86,0 148,7 187,19 10,5 15,22 15,51 0,29 4,43 11,43 11,0 18,11 22,35 6,24 12,36 17,36 8,0 12,-20 12,-60l0 -30 -6 -87 44 0c45,0 90,3 137,7 47,5 86,12 116,20 31,7 46,14 46,19 0,16 -9,28 -27,33 -22,10 -48,37 -77,79 -28,43 -45,82 -51,117 -10,65 -16,157 -20,275 -4,105 -8,167 -12,187 -3,20 -13,32 -27,34 -21,7 -32,25 -32,52 0,28 11,42 32,42 18,0 33,17 44,52 11,37 38,68 79,91 14,8 34,20 59,35 25,16 43,27 52,32 10,5 26,12 51,22 24,9 54,18 89,29 80,24 128,41 142,52 8,10 26,15 56,15 44,0 80,-9 104,-27 75,-47 112,-91 112,-131 0,-26 -16,-39 -47,-39l-46 0 6 -114c4,-82 12,-139 23,-171 10,-28 14,-45 14,-50 0,-5 -4,-13 -14,-24 -15,-11 -23,-29 -23,-52 0,-20 11,-28 32,-23 14,5 23,6 27,2 4,-4 6,-19 6,-46 0,-35 -10,-64 -30,-87 -19,-20 -31,-67 -37,-138 -8,-73 -17,-116 -24,-129 -32,-52 -58,-79 -79,-79 -11,0 -22,-2 -33,-6 -11,-4 -19,-10 -22,-18 -4,-9 -4,-16 0,-24 6,-12 122,-19 349,-19 226,0 340,8 340,23 0,30 -23,45 -70,45 -21,0 -53,28 -96,86l-64 87 0 161c0,98 -4,199 -13,304 -5,53 -8,91 -8,114 0,26 3,43 8,51 6,8 9,54 9,137 0,22 -2,129 -6,323 -4,160 -6,345 -6,552 4,289 14,432 30,432 6,0 11,16 17,49 4,28 13,51 26,68 14,17 41,39 80,64l59 36 -50 12c-38,8 -156,12 -355,12 -263,0 -395,-5 -395,-16 0,-12 7,-19 20,-19 12,0 25,-5 42,-16 10,-6 38,-18 85,-36 82,-28 123,-95 123,-200 0,-45 6,-75 17,-91 11,-14 16,-105 16,-273 0,-160 8,-268 23,-323 14,-38 20,-67 20,-87 0,-15 -7,-27 -22,-34 -19,-8 -27,-47 -27,-116 0,-47 -1,-75 -4,-86 -3,-11 -10,-16 -22,-16 -15,0 -28,12 -39,36 -10,26 -30,57 -62,95 -29,38 -62,58 -99,58 -37,0 -65,-12 -83,-35 -18,-23 -29,-35 -35,-35 -6,0 -22,-11 -47,-33 -26,-22 -43,-33 -50,-33 -13,0 -22,-6 -25,-16 -4,-11 -24,-29 -62,-54 -37,-25 -63,-37 -76,-37 -37,0 -56,56 -56,167l0 43c0,97 -3,152 -8,165 -5,5 -7,46 -7,123 0,113 3,253 9,419 6,167 12,261 18,285 15,62 55,94 120,94 27,0 50,10 67,29 14,13 18,20 15,23 -2,3 -6,5 -12,8 -24,8 -174,12 -451,12 -212,0 -336,-1 -373,-4 -37,-3 -55,-13 -55,-31 0,-24 22,-37 65,-37 60,0 114,-16 160,-47 47,-31 70,-68 70,-110 0,-20 3,-31 9,-31 6,0 20,-24 42,-71 22,-48 40,-77 55,-87 16,-13 24,-32 24,-56 0,-28 -11,-49 -33,-62 -24,-11 -37,-22 -39,-33l0 -4c0,-2 0,-5 -1,-9 -1,-4 -1,-9 -1,-16 0,-6 0,-12 0,-17 0,-270 10,-514 30,-732 4,-30 4,-49 1,-60 -3,-11 -15,-22 -35,-35 -43,-30 -123,-44 -240,-44 -134,0 -216,25 -243,75 -13,23 -42,49 -85,79 -33,18 -78,62 -134,134 -56,71 -84,117 -84,137 0,17 -5,25 -14,25 -8,0 -12,-17 -12,-52 0,-34 4,-52 12,-52z"/>
  <path fill="black" fill-rule="nonzero" d="M6027 6089c0,-23 -5,-42 -14,-58 -9,-16 -14,-35 -14,-58 0,-32 -9,-64 -27,-95 -18,-32 -36,-47 -54,-47 -19,0 -34,-5 -45,-13 -11,-9 -14,-20 -8,-33 3,-13 120,-20 349,-20 226,0 340,8 340,24 0,28 -23,42 -70,42 -13,0 -39,20 -76,62 -37,41 -58,62 -62,65 -11,5 -20,102 -26,291 -5,152 -8,262 -8,331 0,37 0,112 1,224 1,113 1,202 1,268 0,69 0,154 -1,257 -1,102 -1,165 -1,189l0 102c0,320 10,490 31,507 10,12 18,28 26,48 10,21 35,46 74,75 31,20 46,34 46,42 2,3 -1,7 -9,12 -17,9 -146,13 -387,13 -242,0 -364,-5 -364,-13 0,-21 36,-41 109,-62 62,-19 104,-48 127,-86 22,-37 34,-100 34,-187 0,-78 4,-120 13,-125 10,-5 15,-24 15,-58 0,-34 -5,-54 -15,-60 -8,-11 -13,-48 -13,-114 0,-58 4,-102 13,-135 8,-20 18,-60 32,-119 13,-59 20,-93 20,-104 0,-14 -11,-24 -32,-29 -13,-5 -22,-12 -26,-21 -4,-9 -6,-31 -6,-66 0,-12 -3,-63 -9,-150 -3,-21 -4,-37 -2,-50 1,-13 5,-22 11,-28 5,-6 13,-12 25,-20 52,-33 80,-70 82,-110 2,-18 0,-29 -4,-33 -5,-5 -20,-5 -46,-3 -26,3 -43,3 -48,-1 -5,-5 -8,-17 -8,-37 0,-30 4,-44 13,-44 10,0 15,-24 15,-73 0,-53 5,-93 17,-123 13,-32 13,-58 0,-79 -21,-31 -25,-56 -12,-75l18 -7 2 0c19,0 27,-18 27,-52 0,-36 -9,-64 -26,-82 -18,-18 -26,-45 -26,-80z"/>
  <path fill="black" fill-rule="nonzero" d="M8374 5802c8,-11 123,-16 345,-16 227,0 341,5 341,16 0,23 -23,35 -70,35 -22,0 -36,8 -42,25 -4,15 -19,33 -44,54 -26,19 -44,47 -51,83 -7,37 -12,117 -14,243 0,147 -5,241 -17,281 -11,39 -17,67 -17,82 0,18 6,35 17,51 10,14 15,69 15,165l0 123c0,165 -6,332 -18,500 -5,95 -8,173 -8,236 0,95 6,142 20,142 7,0 11,12 11,35 0,24 -4,46 -11,66 -45,129 -83,210 -115,244 -9,11 -23,27 -42,49 -19,22 -35,41 -50,55 -15,14 -31,26 -48,34 -20,8 -30,18 -30,31 0,11 -20,22 -58,35 -39,14 -74,20 -105,20 -35,0 -85,7 -148,19 -39,8 -66,12 -79,12 -13,0 -27,-7 -42,-19 -13,-20 -34,-29 -62,-29 -19,0 -32,5 -40,17 -2,3 -8,4 -19,4 -19,0 -44,-6 -76,-17 -34,-11 -55,-20 -65,-29 -10,-9 -14,-22 -14,-37 0,-37 -13,-56 -39,-56 -11,0 -22,4 -34,12 -8,5 -17,7 -27,7 -19,0 -40,-32 -62,-98 -13,-47 -24,-75 -34,-83 -6,-5 -13,-34 -21,-87 -8,-53 -12,-95 -12,-127 0,-5 0,-11 1,-16 1,-5 1,-9 1,-11 5,-23 2,-45 -12,-64 -19,-26 -25,-47 -17,-66 4,-6 9,-8 14,-5l6 0c10,0 14,-12 14,-35 0,-5 -2,-29 -5,-71 -8,-66 -22,-136 -44,-211 -22,-75 -41,-123 -58,-144 -22,-29 -33,-51 -33,-63 0,-11 90,-16 270,-16 180,0 270,4 270,12 0,12 -22,49 -67,110l-67 96 0 188c0,131 8,207 23,229 14,23 24,54 33,95 3,26 9,43 16,51 6,9 22,14 46,16 75,16 113,52 113,110 0,5 -1,12 -1,21 -1,9 -1,15 -1,18 0,16 5,25 16,25 14,0 34,-18 62,-52 25,-32 60,-52 105,-60 39,-11 59,-19 59,-27 0,-11 18,-25 53,-44 33,-18 56,-40 67,-66 6,-16 13,-31 22,-44 9,-13 15,-22 17,-27 1,-5 4,-16 7,-34 3,-17 5,-39 6,-65 1,-26 1,-64 1,-115 0,-133 11,-222 33,-267 17,-39 26,-66 26,-79 0,-12 -9,-20 -26,-23 -14,-3 -24,-12 -28,-30 -5,-17 -9,-58 -13,-124 -4,-57 -5,-90 -5,-98 0,-35 8,-61 25,-79 57,-60 86,-108 86,-142 0,-23 -17,-35 -50,-35 -30,0 -44,-11 -44,-32 0,-3 0,-18 1,-45 1,-28 1,-51 1,-68 1,-60 14,-104 36,-131 21,-28 31,-45 31,-51 0,-9 -10,-18 -31,-29 -22,-12 -33,-30 -33,-50 0,-19 4,-30 11,-33 7,-2 15,3 22,16 17,14 27,0 31,-43 0,-37 -10,-70 -31,-98 -20,-24 -33,-70 -39,-138 -8,-73 -22,-125 -44,-157 -23,-32 -41,-48 -54,-48 -34,-5 -52,-17 -56,-35z"/>
  <path fill="black" fill-rule="nonzero" d="M11054 5928c-6,0 -19,14 -38,43 -20,29 -31,43 -35,43 -8,0 -40,36 -95,110 -56,73 -88,120 -98,142 -4,7 -19,24 -45,51 -26,26 -41,51 -43,74 -6,30 -28,72 -66,127 -16,23 -45,70 -90,140 -45,70 -82,126 -111,168 -38,55 -56,94 -56,117 0,20 9,35 27,44 13,5 20,14 20,27 0,11 27,55 82,135 53,71 89,133 106,188 9,31 17,51 23,61 6,9 17,14 32,14 22,0 51,22 87,66 36,44 54,79 54,106 0,26 8,50 24,71 16,22 32,32 51,32 19,0 28,7 28,23 0,9 28,56 85,142 55,79 83,133 83,161 0,10 4,20 11,32 8,11 16,20 23,26 8,6 19,13 32,21 14,7 22,11 23,11l53 37c18,11 38,35 59,76 22,40 34,63 38,68 2,3 3,6 3,9 0,11 -93,16 -279,16 -200,0 -300,-7 -300,-21 0,-16 9,-30 27,-43 23,-23 34,-65 34,-127 0,-13 -2,-32 -5,-58 -8,-32 -26,-56 -55,-72 -29,-15 -49,-36 -59,-62 -10,-26 -23,-45 -38,-56 -12,-3 -19,-13 -19,-31 0,-20 -19,-53 -56,-98 -37,-48 -55,-83 -55,-106 0,-3 0,-8 1,-13 1,-5 1,-11 1,-15 4,-28 5,-45 3,-51 -2,-6 -13,-5 -33,1 -6,3 -13,4 -20,4 -16,0 -41,-28 -73,-83 -43,-74 -65,-135 -65,-182 0,-23 1,-43 3,-58 2,-16 3,-28 3,-36 0,-7 0,-14 -1,-19 -1,-5 -3,-8 -8,-8 -4,0 -9,0 -15,0 -17,5 -28,21 -34,47 -4,22 -10,34 -18,38 -8,4 -27,5 -56,2l-29 0c-29,0 -57,11 -82,31 -28,24 -44,51 -50,78 -6,28 -10,96 -12,207l0 54c0,260 22,446 67,559 6,14 31,38 76,72l70 44 -70 12c-93,10 -207,16 -341,19l-269 8 59 -72c37,-45 61,-81 72,-108 10,-28 16,-64 16,-108 0,-45 6,-74 19,-90 10,-14 14,-105 14,-273 0,-160 8,-268 23,-323 14,-38 22,-67 22,-87 0,-15 -8,-27 -24,-34 -17,-8 -25,-46 -25,-115 0,-68 -6,-102 -18,-102 -10,0 -17,-11 -19,-30 -2,-20 1,-36 9,-49 8,-15 28,-33 59,-54 48,-34 72,-66 72,-96 0,-11 -1,-18 -4,-23 -2,-13 -12,-20 -29,-20 -4,0 -11,1 -21,2 -10,1 -18,2 -24,2 -9,0 -16,-4 -20,-11 -2,-3 -3,-11 -3,-25 0,-33 4,-83 13,-147 8,-65 17,-106 26,-124 11,-21 9,-37 -7,-51 -13,-14 -20,-31 -20,-52 0,-20 11,-28 33,-23 16,5 24,6 27,2 3,-4 4,-19 4,-46 0,-35 -11,-64 -32,-87 -20,-23 -33,-66 -39,-127 -6,-65 -18,-118 -38,-158 -20,-41 -43,-60 -68,-60 -33,0 -51,-11 -53,-33 -2,-5 -1,-11 3,-16 7,-7 124,-16 352,-27 161,-5 244,-7 249,-7 57,0 86,6 86,19 0,32 -23,48 -70,48 -17,0 -48,29 -95,87l-67 83 0 244c0,168 -3,261 -11,279 -4,10 -6,22 -6,34 0,40 7,85 20,137 14,51 27,78 42,81 14,5 20,12 20,23 0,22 10,25 29,9 8,-6 15,-16 19,-29 6,-20 29,-54 70,-102 41,-47 68,-71 82,-71 14,0 19,-13 14,-39l0 -10c-2,-2 -3,-5 -3,-7 0,-18 10,-53 30,-106 15,-40 27,-63 35,-70 8,-7 27,-9 58,-9 57,0 86,-14 86,-43 0,-11 -4,-22 -12,-33 -22,-28 -29,-53 -22,-75l9 -4c12,0 36,-23 69,-70 34,-47 51,-79 51,-99 0,-20 5,-33 17,-38 11,-5 19,1 25,19 4,13 10,12 20,-4 12,-24 20,-79 22,-165 0,-12 -16,-32 -47,-56 -31,-25 -47,-39 -47,-41 0,-8 99,-12 296,-12l299 4 -39 39c-7,7 -20,22 -38,43 -18,21 -30,35 -38,43 -26,29 -41,44 -44,44z"/>
  <path fill="black" fill-rule="nonzero" d="M12415 5799c4,-5 81,-8 229,-8 304,0 456,5 456,16 0,23 -22,35 -65,35 -14,0 -27,5 -39,16 -11,11 -23,26 -37,45 -13,18 -22,32 -28,39 -31,36 -50,68 -56,97 -6,29 -9,103 -9,222 0,152 -3,245 -11,283 -11,32 -10,71 3,117 7,31 11,100 11,205 0,83 -1,157 -3,221 -7,288 -13,453 -17,496 -4,63 -5,96 -5,102 0,11 0,18 1,23 1,5 2,10 3,14 1,4 3,7 6,11 3,3 6,5 9,7 2,1 7,3 14,4 7,1 12,3 16,6 4,33 9,68 16,106 12,93 26,138 43,138 2,0 11,-6 27,-17 37,-31 56,-28 56,9 0,23 12,35 34,35 19,0 30,-9 36,-27 4,-14 17,-21 40,-21 51,0 88,16 111,48 16,20 31,31 44,31 15,0 32,9 50,29 19,18 37,15 55,-9 18,-24 35,-36 51,-36 27,0 62,-32 105,-94 43,-63 65,-114 65,-154 0,-20 6,-32 19,-34l3 0c19,0 29,117 29,354l0 205 -281 0c-188,0 -285,5 -290,16 -6,12 -148,19 -425,19 -278,0 -417,-8 -417,-23 0,-14 32,-32 97,-52 62,-18 107,-44 132,-78 26,-34 40,-81 40,-143 0,-55 5,-85 16,-91 12,-5 17,-95 17,-271 2,-186 10,-296 23,-331 14,-45 22,-71 22,-79 0,-11 -8,-19 -24,-27 -17,-8 -25,-46 -25,-115 0,-70 -5,-106 -15,-106 -8,0 -13,-17 -13,-51 0,-33 7,-51 22,-51 15,0 31,-13 46,-39 16,-26 23,-54 23,-84 0,-20 -2,-33 -5,-38 -4,-5 -12,-7 -24,-4l-9 0c-11,0 -17,-14 -17,-41 0,-28 1,-54 3,-79 4,-83 11,-140 23,-169 16,-30 16,-57 0,-79 -29,-45 -32,-67 -9,-67 4,0 10,1 19,4 14,6 22,7 26,3 4,-5 6,-16 6,-33 0,-28 -3,-46 -9,-52 -9,-5 -21,-31 -35,-78 -14,-47 -22,-91 -26,-134 -11,-108 -46,-161 -103,-161 -26,0 -44,-12 -50,-36 -4,-21 -3,-35 3,-43z"/>
  <path fill="black" fill-rule="nonzero" d="M15017 8242c0,8 11,30 32,66 22,37 32,59 32,66 0,11 -120,16 -361,16 -240,0 -361,-5 -361,-16 0,-23 27,-52 82,-87 65,-35 97,-79 97,-129 0,-19 13,-45 39,-79 53,-72 79,-131 79,-178 0,-18 -5,-31 -15,-39 -8,-8 -13,-219 -13,-635 0,-152 0,-266 0,-342 0,-76 1,-136 3,-181 2,-45 5,-72 8,-81 3,-9 7,-13 13,-13 33,0 50,-15 50,-45 0,-26 -14,-42 -42,-50 -15,-7 -24,-16 -28,-31 -3,-14 -5,-55 -5,-123 0,-237 -20,-385 -59,-442 -21,-33 -32,-53 -32,-58 0,-9 -17,-13 -50,-13 -34,0 -51,-7 -53,-20 0,-7 8,-14 24,-19 4,-3 19,-4 46,-4 96,0 158,5 185,16 8,2 15,25 19,67 2,37 13,57 34,60 13,3 20,2 23,-2 3,-4 4,-15 4,-35 0,-33 -4,-51 -12,-54 -8,-7 -13,-16 -13,-29 0,-7 30,-11 89,-11 28,0 64,1 107,4 43,2 78,3 107,3l47 4c15,0 16,14 3,41 -8,12 -18,23 -32,31 -31,20 -47,40 -47,60 0,26 8,75 23,151 16,75 32,135 49,179 17,58 26,100 26,125 0,37 10,64 30,83 41,47 67,117 79,209 8,53 17,85 27,98 12,15 28,64 49,145 22,81 35,129 41,143 11,31 26,81 44,151 18,70 26,114 26,132 0,18 4,27 12,27 8,0 12,11 12,32 0,21 3,32 9,32 9,0 21,-25 34,-75 18,-50 30,-75 36,-75 8,0 21,-23 39,-70 17,-45 33,-67 47,-67 14,0 22,-11 26,-32 4,-22 1,-44 -9,-69 -12,-28 -11,-66 3,-113 15,-55 24,-96 26,-121 5,-30 22,-48 50,-56 28,-8 55,-22 83,-41 27,-20 41,-37 41,-53 0,-8 -13,-22 -39,-43 -26,-22 -40,-37 -40,-47 0,-22 7,-33 20,-33 8,0 21,-29 39,-87 23,-60 43,-95 59,-106 14,-8 21,-14 23,-21 2,-7 2,-24 0,-54 -4,-20 -5,-34 -5,-41 0,-7 1,-12 5,-16 4,-4 12,-2 23,6 2,0 4,1 8,2 3,1 6,2 8,2 27,0 40,-24 40,-70 0,-16 -3,-35 -8,-56 -12,-45 -13,-83 -3,-114 9,-32 14,-60 14,-87 0,-18 -5,-37 -16,-55 -11,-18 -22,-28 -34,-28 -8,0 -10,-7 -6,-20 7,-10 111,-15 315,-15 205,0 308,12 308,35 0,24 -5,35 -16,35 -17,0 -31,11 -43,31 -14,24 -26,37 -36,37 -19,0 -44,44 -73,133 -12,37 -19,100 -22,190 -3,89 -5,318 -5,689 0,530 7,812 22,846 11,32 17,61 17,87 0,30 -6,52 -17,67 -13,13 -19,25 -19,37 0,15 14,61 42,136 29,85 58,136 86,154 24,20 37,35 37,49 0,20 -126,30 -378,30 -201,0 -302,-6 -302,-19 0,-18 21,-34 62,-48 43,-16 79,-43 109,-83 43,-58 68,-111 76,-159 8,-48 11,-163 11,-345 0,-220 6,-333 19,-338 13,-5 20,-22 20,-51 0,-29 -7,-43 -20,-43 -13,0 -19,-54 -19,-161 0,-82 1,-132 4,-150 3,-18 15,-41 35,-68 22,-31 34,-58 34,-82 0,-24 -12,-37 -34,-39 -22,-5 -37,-14 -43,-30 -7,-14 -10,-41 -10,-80 -2,-39 -6,-58 -11,-56 -8,3 -12,20 -12,51 0,30 -14,45 -42,48 -25,5 -47,24 -64,56 -17,33 -25,73 -25,120 0,48 -9,89 -26,122 -17,34 -26,60 -26,76 0,18 -15,68 -46,151 -30,83 -50,131 -60,143 -7,8 -17,30 -28,68 -11,37 -21,76 -31,116 -9,41 -16,64 -20,72 -8,19 -8,40 2,62 10,22 15,38 15,50 0,26 8,58 24,96 16,38 30,60 44,65 15,5 23,14 23,27 0,11 -73,16 -219,16 -164,0 -254,-7 -268,-20 -12,-10 -25,-10 -40,0 -20,13 -51,20 -92,20 -33,0 -50,-5 -50,-16 0,-12 14,-38 42,-75 37,-50 56,-99 56,-146 0,-8 -2,-43 -6,-106 -7,-97 -22,-167 -44,-209 -22,-47 -34,-85 -34,-117 0,-35 -9,-66 -27,-95 -15,-27 -22,-62 -22,-106 0,-89 -22,-143 -65,-161 -26,-14 -36,-33 -30,-56 4,-24 10,-36 19,-36 6,0 9,-9 10,-25 1,-17 0,-35 -3,-53 -3,-18 -8,-30 -14,-32 -4,-3 -9,-4 -15,-4 -31,0 -47,35 -47,106 0,50 -6,75 -17,75 -21,0 -34,33 -40,101 -5,67 -8,232 -8,495 0,349 8,543 24,583 11,28 24,56 37,83 12,15 19,28 19,39 0,10 11,15 32,15 22,0 32,9 32,25z"/>
  <path fill="black" fill-rule="nonzero" d="M17170 8054c0,-11 15,-35 45,-73 30,-39 45,-62 45,-70 0,-11 7,-25 22,-44 11,-16 17,-39 17,-70 0,-27 -6,-44 -17,-52 -15,-5 -22,-107 -22,-306 0,-199 4,-303 13,-308 4,-3 16,-30 37,-83 19,-53 27,-93 27,-121 0,-37 -15,-60 -44,-67 -11,-5 -19,-17 -22,-36 -3,-18 -5,-68 -8,-149l0 -83c0,-62 7,-94 22,-94 33,0 50,-15 50,-45 0,-23 -14,-43 -42,-59 -15,-11 -24,-26 -28,-45 -3,-19 -5,-75 -5,-167 0,-297 -49,-446 -146,-446 -31,0 -47,-7 -47,-20 2,-7 12,-14 30,-19 6,-3 22,-4 50,-4 90,0 148,5 175,16 10,5 16,22 16,52 0,20 5,39 14,54 10,16 22,24 35,24 14,0 18,-24 12,-72l-6 -71 149 12c110,5 168,7 174,7 21,0 26,12 17,37 -8,12 -18,23 -32,31 -29,15 -50,37 -62,66 -12,29 -26,52 -41,68 -9,8 -14,27 -14,58 0,62 12,109 37,142 16,24 32,58 47,102 9,27 20,51 32,72 12,21 23,49 35,85 22,55 37,83 44,83 32,0 55,45 70,135 6,40 19,79 41,116 22,38 43,61 63,68 17,8 33,32 46,72 14,39 24,60 32,60 4,0 11,11 22,33 11,22 22,45 31,68 10,23 16,37 17,40 8,11 23,47 47,110 35,98 61,146 76,146 6,0 14,-14 24,-43 10,-29 15,-51 15,-67 0,-16 -9,-27 -27,-32 -15,-5 -23,-43 -23,-114 0,-71 -5,-110 -14,-114 -10,-8 -15,-20 -15,-35 0,-35 18,-62 52,-83 51,-32 77,-70 77,-112 0,-23 -14,-35 -42,-35l-11 0 -42 4 3 -87c2,-60 -4,-93 -18,-98 -16,-8 -24,-54 -24,-138l0 -110 0 -44c0,-246 -26,-393 -79,-440 -21,-20 -31,-34 -31,-45 0,-10 101,-15 302,-15 74,0 129,0 166,0 37,0 67,1 89,4 22,3 36,6 42,9 5,4 8,10 8,18 0,22 -13,41 -39,60 -22,15 -51,51 -88,106l-56 79 0 146c0,93 -9,150 -27,173 -15,22 -22,42 -22,60 0,18 7,48 22,91 10,27 16,73 18,138 2,65 3,237 3,515 0,390 -4,626 -13,705 -2,20 -3,48 -3,83 0,28 3,54 9,79 10,31 35,74 74,131 39,56 67,89 85,96 28,14 31,29 11,44 -7,5 -17,9 -28,12 -28,5 -144,7 -350,7 -199,0 -299,-6 -299,-19 0,-15 22,-32 67,-48 43,-13 78,-39 105,-80 27,-40 40,-87 40,-139 0,-43 -9,-89 -26,-140 -18,-51 -38,-91 -60,-119 -19,-22 -34,-57 -44,-108 -10,-47 -18,-71 -26,-71 -4,0 -11,-19 -23,-58 -10,-42 -26,-72 -47,-91 -20,-19 -39,-47 -56,-85 -17,-38 -26,-69 -26,-93 0,-26 -5,-39 -16,-39 -2,0 -6,-1 -11,-2 -6,-1 -11,-2 -15,-2 -3,0 -28,-30 -73,-90 -39,-58 -67,-89 -83,-95 -13,-11 -22,-33 -26,-64 -3,-22 -14,-41 -31,-59 -17,-18 -33,-27 -51,-27 0,15 -6,62 -19,139 -13,77 -22,117 -28,120 -13,8 -20,146 -22,413 0,40 0,87 -1,142 -1,55 -1,91 -1,106 0,85 3,143 11,176 7,33 25,85 54,159 18,42 46,77 86,106 44,39 67,62 67,67 0,13 -121,20 -364,20 -244,0 -367,-3 -367,-8 0,-13 3,-26 10,-41 6,-14 13,-21 19,-21 27,0 60,-19 96,-58 36,-38 54,-70 54,-96z"/>
  <path fill="black" fill-rule="nonzero" d="M3762 10473c-37,-24 -61,-37 -70,-37 -16,0 -39,5 -70,16 -131,34 -200,60 -209,79 -11,16 -20,25 -25,25 -18,0 -54,49 -108,147 -53,98 -88,177 -105,238 -9,45 -20,126 -31,243 -12,117 -18,213 -18,285 0,118 12,269 35,453 23,184 43,280 58,287 9,5 14,13 14,23 0,13 9,46 28,98 19,52 33,87 44,104 136,218 272,327 407,327 25,0 44,-1 56,-4 39,-9 66,-24 82,-44 14,-23 26,-35 36,-35 10,0 36,-28 80,-83 44,-55 66,-89 66,-103 0,-13 8,-30 24,-51 23,-32 43,-110 59,-233 4,-39 22,-87 56,-142l46 -79 -23 -75c-11,-45 -21,-115 -29,-211 -1,-22 -2,-49 -2,-83 0,-47 7,-94 23,-138 13,-43 20,-73 20,-94 0,-37 -14,-67 -43,-90 -18,-13 -27,-31 -27,-56 0,-18 9,-30 26,-37 18,-7 32,-3 44,10 6,7 21,11 44,11 53,0 79,-9 79,-27 0,-11 -20,-24 -59,-36 -37,-13 -59,-34 -65,-64 -5,-23 -13,-35 -22,-35 -2,0 -9,4 -21,12 -12,7 -23,11 -35,11 -9,0 -25,-30 -48,-90 -22,-60 -38,-115 -46,-165 -8,-50 -29,-93 -62,-129 -6,-9 -24,-34 -57,-75 -32,-42 -59,-75 -82,-98 -22,-24 -45,-42 -69,-54zm-210 -108c44,-23 94,-35 149,-35 34,0 129,21 285,64 75,18 118,34 129,50 8,16 17,25 29,25 7,0 22,12 44,35 19,20 39,31 59,31 21,0 55,34 102,102 47,69 71,119 71,151 0,55 20,102 59,140 10,11 24,56 45,138 21,81 35,127 43,139 14,18 22,75 22,173 0,83 -1,156 -4,219 -6,245 -13,368 -23,371 -9,5 -14,16 -14,31 0,77 -30,167 -89,269 -30,55 -57,99 -79,133 -97,165 -206,289 -325,371 -31,18 -47,32 -47,42 0,11 -8,18 -25,25 -7,0 -16,3 -27,8 -12,5 -26,10 -44,15 -18,5 -32,11 -44,16 -55,20 -138,31 -249,31 -108,0 -180,-11 -218,-31 -37,-18 -64,-24 -79,-19l-3 0c-4,2 -7,3 -8,3 -17,0 -36,-5 -60,-16 -23,-11 -37,-21 -41,-32 -3,-8 -47,-41 -132,-102 -127,-90 -206,-178 -238,-263 -6,-22 -9,-38 -9,-49 0,-33 25,-63 76,-90 26,-16 44,-24 56,-24 13,0 34,9 62,27 33,22 57,33 70,33 10,0 21,-8 32,-24 12,-16 18,-31 18,-43 0,-55 -57,-83 -171,-83 -49,0 -73,-3 -73,-8 0,-42 30,-64 90,-64 52,0 77,-9 77,-27 0,-16 -6,-25 -18,-25 -12,0 -25,-9 -38,-27 -12,-15 -63,-28 -151,-36 -60,-5 -97,-11 -112,-16 -15,-5 -23,-16 -25,-35 -2,-10 -3,-83 -3,-217l0 -150c4,-215 15,-352 33,-409 9,-33 18,-56 24,-66 6,-11 16,-16 27,-16l10 0c21,0 38,9 51,29 24,31 62,47 115,50 29,0 44,-12 44,-35 0,-18 -7,-37 -21,-58 -14,-21 -27,-32 -41,-32 -17,0 -41,-16 -71,-49 -31,-33 -46,-59 -46,-78 0,-23 16,-59 49,-108 32,-49 59,-78 80,-89 11,-5 35,-7 70,-7 17,2 26,1 29,-4 3,-5 4,-21 4,-48 0,-73 37,-127 111,-162 43,-18 68,-34 76,-50 9,-16 32,-33 68,-48 36,-15 66,-23 90,-23l14 0c2,0 5,1 9,2 3,1 6,2 8,2 17,0 49,-10 95,-29z"/>
  <path fill="black" fill-rule="nonzero" d="M6576 10748c-36,0 -39,21 -12,63 10,16 25,35 46,57 22,22 35,33 41,33l0 -4c0,-22 -9,-52 -28,-91 -19,-39 -35,-58 -48,-58zm-414 -285c-52,-15 -100,-23 -143,-23 -29,0 -45,4 -47,11 -2,8 -8,58 -20,150 -12,97 -22,156 -30,177 -10,27 -10,51 0,72 9,15 14,44 14,87 0,34 -4,52 -11,52 -8,0 -12,110 -12,331l6 331 89 -4c58,-5 89,-12 93,-22 6,-7 22,-16 47,-26 66,-21 137,-82 213,-185 24,-32 49,-45 75,-40 1,0 4,1 8,2 4,1 7,2 9,2 15,0 23,-8 23,-24 0,-12 -7,-28 -20,-46 -12,-14 -18,-30 -19,-48 0,-18 3,-31 13,-39 8,-3 9,-20 6,-52 -4,-20 -6,-43 -6,-67 0,-53 4,-110 13,-173 9,-63 18,-100 27,-114 16,-19 23,-32 22,-38 -2,-7 -13,-11 -33,-14 -22,-5 -36,-18 -40,-39 -1,-22 -20,-55 -53,-100 -33,-45 -64,-77 -91,-98 -32,-23 -76,-45 -132,-64zm-727 -133c4,0 12,-1 23,-2 12,-1 22,-2 29,-2 8,0 19,1 34,2 15,1 25,2 31,2 26,3 107,4 243,4 121,0 214,6 276,19 47,5 77,8 90,8 15,0 24,-1 27,-4 7,-5 21,-8 40,-8 35,0 80,5 135,16 55,10 90,21 105,32 28,16 45,24 53,24 36,0 74,28 116,86 42,58 70,121 86,189 6,29 12,55 20,77 7,22 12,38 15,47 3,9 5,26 7,51 2,25 3,61 3,108l0 23c0,93 -11,169 -34,229 -22,60 -65,131 -128,211 -76,98 -129,158 -157,182 -28,24 -77,46 -148,66 -41,14 -75,28 -101,41 -26,12 -49,22 -69,27 -20,5 -54,12 -102,23l-112 25 -9 129c-3,63 -5,159 -5,289l0 133c4,199 15,324 34,371 14,35 29,58 43,70 14,11 44,24 87,36 9,5 18,11 24,18 7,7 9,13 7,18 -2,12 -132,19 -390,19 -259,0 -388,-7 -388,-19 0,-24 50,-47 151,-68 56,-12 108,-65 154,-157 13,-27 31,-43 56,-48 17,-3 27,-7 33,-14 6,-6 6,-12 0,-17 -6,-5 -17,-9 -33,-12 -26,-5 -40,-12 -40,-23 0,-14 15,-29 43,-44 32,-15 47,-35 47,-60 0,-20 -14,-35 -42,-42 -23,-5 -39,-20 -48,-43 -9,-24 -14,-70 -14,-138 0,-9 0,-24 1,-46 1,-22 1,-40 1,-54 2,-96 5,-157 11,-184 5,-26 16,-39 31,-39 11,0 17,-10 17,-29 0,-31 -12,-62 -37,-94 -32,-40 -84,-70 -156,-91 -23,-5 -41,-16 -53,-31 -9,-14 -32,-33 -67,-56 -22,-15 -51,-41 -86,-77 -35,-36 -52,-58 -52,-66 0,-3 1,-4 3,-4 8,0 32,12 73,38 41,25 64,41 67,49 4,8 33,21 87,39 54,19 91,28 111,28 21,0 36,-9 43,-26 8,-17 12,-50 12,-99 0,-53 9,-89 27,-112 21,-23 31,-53 31,-90 0,-35 -10,-52 -29,-52 -23,0 -36,-18 -36,-54 0,-58 19,-98 56,-119 22,-13 33,-26 33,-39 0,-18 -13,-27 -39,-27 -21,0 -33,-7 -36,-22 -2,-15 3,-33 19,-53 7,-14 11,-24 10,-31 -1,-7 -7,-18 -19,-36 -16,-22 -24,-50 -24,-83 0,-27 1,-49 3,-64 0,-8 0,-18 1,-30 1,-12 1,-21 1,-26 0,-102 -27,-171 -82,-204 -6,-3 -23,-12 -52,-30 -29,-17 -56,-26 -80,-26 -25,0 -39,-5 -39,-15 0,-11 17,-18 50,-23z"/>
  <path fill="black" fill-rule="nonzero" d="M7874 12331c0,-16 -17,-31 -49,-47 -33,-16 -63,-24 -88,-24 -18,0 -26,5 -26,16 0,11 21,45 63,103 42,58 74,96 97,117 47,45 99,105 156,180 51,69 107,104 169,104 85,0 128,-14 128,-44 0,-13 -7,-28 -22,-47 -68,-82 -137,-153 -208,-213 -16,-15 -26,-28 -30,-36 -7,-16 -41,-35 -99,-58 -61,-24 -91,-42 -91,-52zm422 -1796c-10,-15 -49,-23 -117,-23 -55,0 -92,7 -112,19 -5,5 -15,12 -27,22 -13,10 -21,16 -24,18 -20,11 -51,41 -92,94 -41,53 -62,84 -62,95 0,13 -5,24 -17,35 -16,14 -32,49 -48,106 -17,56 -24,102 -24,138 0,42 -9,75 -27,100 -39,44 -59,100 -59,169 0,20 1,36 3,46 4,32 5,52 5,60 0,20 -11,47 -34,79 -27,37 -42,80 -42,129 0,48 10,79 30,93 17,13 31,36 43,70 7,32 25,54 53,67 28,17 42,28 42,33 0,8 25,23 76,46 49,22 81,40 95,54 15,14 22,39 22,74 0,5 0,11 0,19 0,20 0,34 1,41 1,7 4,13 10,18 6,5 16,10 30,15 27,5 62,8 105,8 84,0 141,30 171,91 78,157 123,239 134,244 6,3 19,25 38,67 20,43 35,64 47,64 12,0 36,-26 72,-77 36,-51 54,-87 54,-106 0,-8 8,-27 23,-58 20,-40 36,-90 47,-150 13,-70 20,-196 20,-375 0,-163 -5,-318 -16,-465 -10,-146 -24,-232 -43,-255 -11,-16 -17,-30 -17,-40 0,-11 -9,-44 -28,-100 -19,-56 -30,-87 -34,-92 -9,-5 -19,-25 -28,-60 -17,-40 -45,-87 -87,-140 -42,-54 -80,-91 -113,-112 -43,-30 -66,-49 -70,-60zm-146 -169c41,-7 82,-11 123,-11 109,0 176,17 202,52 17,23 45,35 85,35 48,0 108,28 180,83 72,55 108,100 108,135 0,10 16,23 47,38 29,13 53,46 70,98 14,37 20,70 20,100 0,50 -21,75 -62,75 -19,0 -44,-7 -73,-21 -51,-26 -81,-38 -90,-38 -12,0 -22,12 -27,38 -4,22 -6,35 -6,41 0,47 47,71 140,71 44,0 71,2 82,6 10,4 16,13 16,29 0,12 -5,21 -14,25 -10,4 -32,7 -67,9 -55,7 -83,16 -83,29 0,21 19,40 57,57 39,17 85,27 141,30 75,5 119,16 131,31 12,22 17,165 17,430 0,121 -3,200 -8,239 -14,135 -42,201 -85,201 -20,0 -43,-13 -69,-40 -25,-23 -53,-37 -85,-43 -25,-5 -41,-5 -45,-2 -5,4 -7,15 -7,33 0,47 29,83 89,108 19,8 37,24 53,47 17,24 25,46 25,66 0,20 -13,52 -40,96 -26,43 -51,73 -75,88 -27,16 -52,20 -73,12 -20,-5 -33,-6 -37,-2 -5,4 -7,23 -7,58 0,47 -10,81 -31,102 -20,19 -30,34 -30,45 0,18 52,57 156,117 41,24 62,51 62,79 0,27 7,58 22,92 15,33 30,56 46,66 6,3 29,18 69,45 40,28 79,53 117,77 38,24 64,35 77,35 24,0 40,5 47,15 6,13 31,22 76,29 28,5 44,8 47,8 19,0 38,-9 56,-25 15,-11 66,-26 153,-45 87,-20 138,-33 154,-41 47,-23 70,-22 70,4 0,22 -14,48 -43,78 -28,30 -58,51 -89,64 -37,15 -61,28 -70,36 -10,13 -55,27 -133,43 -79,15 -143,23 -192,23 -49,0 -121,-9 -216,-25 -95,-16 -152,-32 -169,-46 -15,-11 -34,-16 -55,-16 -21,0 -56,-10 -104,-31 -48,-20 -75,-37 -81,-52 -4,-12 -30,-30 -79,-50 -47,-24 -74,-44 -83,-60 -9,-18 -19,-27 -29,-27 -7,0 -13,-18 -17,-56 -2,-37 -17,-60 -44,-67 -55,-16 -82,-47 -82,-95 0,-20 -2,-32 -8,-35 -5,-3 -20,-2 -45,5 -31,8 -76,12 -134,12 -87,0 -174,-7 -260,-22 -86,-14 -132,-31 -140,-49 -3,-7 -30,-27 -79,-58 -48,-32 -78,-47 -88,-47 -10,0 -41,-35 -93,-104 -52,-70 -78,-112 -78,-124 -2,-63 -14,-112 -37,-146 -24,-37 -41,-83 -50,-138 -9,-55 -23,-99 -42,-133 -15,-24 -23,-77 -23,-157 0,-85 1,-161 3,-229 4,-226 11,-350 20,-375 2,-3 15,-44 39,-124 24,-80 41,-123 50,-128 11,-5 17,-15 17,-31 0,-18 13,-44 39,-79 32,-47 53,-84 65,-110 19,-35 48,-75 86,-123 38,-47 69,-80 93,-98 2,0 21,-18 56,-56 10,-12 38,-32 85,-58 47,-26 78,-39 92,-39 7,0 11,-5 11,-16 0,-3 9,-7 28,-15 19,-8 43,-16 72,-26 29,-9 58,-16 85,-18z"/>
  <path fill="black" fill-rule="nonzero" d="M11084 10636c-36,-13 -97,-19 -185,-19 -57,0 -97,4 -121,11 -17,5 -28,14 -33,28 -5,13 -11,49 -20,106 -9,78 -14,236 -14,473l3 350 153 -4c160,-3 255,-31 284,-86 15,-27 31,-41 50,-41 22,0 37,-12 44,-39 3,-10 1,-18 -9,-23 -10,-7 -16,-20 -17,-40 -1,-21 4,-35 14,-43 10,-6 12,-25 6,-56 -2,-10 -3,-32 -3,-67 0,-156 10,-245 29,-271 25,-35 22,-56 -9,-64 -17,-3 -30,-24 -39,-64 -8,-35 -17,-54 -29,-54 -15,0 -28,-13 -39,-40 -7,-23 -30,-43 -67,-60zm329 -31c0,8 11,32 32,72 22,39 32,64 32,75 0,18 5,33 15,46 7,12 11,72 11,182 0,131 -5,242 -14,335 -8,63 -22,107 -44,133 -21,24 -32,49 -32,72 0,30 -22,74 -68,133 -45,59 -88,100 -130,123 -47,30 -72,53 -76,72l0 7c-2,8 -3,13 -3,16 0,27 4,57 11,91 8,34 16,54 24,58 8,8 24,46 48,115 24,68 40,106 45,114 5,8 17,41 35,98 18,58 34,104 48,138 17,43 25,72 25,87 0,16 27,60 83,134 55,74 91,113 108,118 18,11 27,19 27,27 0,8 16,18 48,30 32,12 63,21 92,26 21,5 31,18 31,39 0,9 -1,14 -3,17 -2,3 -7,5 -16,8 -9,3 -21,4 -38,4 -17,0 -42,0 -75,0l-182 0c-207,0 -314,-4 -320,-12 -2,-3 2,-18 12,-48 7,-18 11,-46 11,-83 0,-68 -10,-123 -31,-165 -12,-20 -23,-54 -34,-102 -11,-48 -15,-81 -11,-98 0,-58 -7,-87 -20,-87l-9 8c-8,11 -18,15 -27,15 -8,0 -20,-16 -35,-49 -16,-33 -24,-59 -24,-78 0,-15 -8,-30 -25,-42 -16,-13 -24,-30 -24,-52 0,-16 6,-41 19,-78 13,-37 20,-63 20,-80 0,-23 -2,-37 -6,-44 -3,-7 -12,-7 -25,-2 -22,8 -37,-3 -44,-33 -10,-26 -22,-38 -39,-38 -14,0 -31,11 -53,34 -19,22 -35,33 -48,33 -24,0 -36,92 -36,275 0,90 1,163 3,221 8,259 26,400 56,425 1,0 14,4 36,12 22,8 43,15 60,23 18,8 26,16 26,25 0,16 -125,23 -375,23 -248,0 -372,-7 -372,-23 0,-22 60,-44 179,-67 8,-3 28,-26 63,-72 34,-45 51,-72 51,-83 0,-12 12,-24 36,-33 49,-12 73,-22 73,-26 0,-3 -2,-7 -8,-12 -12,-11 -26,-16 -44,-16 -19,0 -28,-7 -26,-23 0,-16 12,-32 36,-44 24,-11 37,-29 37,-56 0,-20 -11,-35 -32,-42 -18,-5 -37,-33 -56,-83 -20,-51 -30,-94 -30,-131 0,-20 4,-34 12,-42 14,-14 22,-44 22,-91 0,-14 -2,-29 -6,-44 -4,-11 -6,-20 -6,-31 0,-22 4,-42 12,-60 8,-18 16,-27 26,-27 25,0 22,-33 -9,-100 -13,-28 -30,-49 -49,-61 -20,-12 -59,-30 -118,-53 -48,-18 -73,-31 -73,-39 0,-9 -22,-27 -65,-55 -24,-12 -51,-36 -81,-71 -30,-35 -45,-56 -45,-64 0,-3 1,-4 3,-4 2,0 5,1 9,4 84,45 126,73 126,83 0,8 28,21 83,39 55,19 93,28 114,28 20,0 38,-8 53,-23 9,-8 15,-18 19,-32 4,-13 5,-24 3,-33 -2,-9 -6,-13 -13,-13 -10,0 -15,-12 -15,-36 0,-24 5,-35 15,-35 8,0 13,-7 13,-19 0,-8 4,-19 13,-33 8,-15 15,-27 19,-36 3,-9 2,-18 -6,-29 -13,-11 -14,-29 -3,-52 10,-24 9,-36 -3,-36 -15,0 -23,-17 -23,-51 0,-15 2,-41 7,-79 5,-37 7,-62 7,-75 0,-3 -1,-7 -3,-11l0 -8 0 -25c0,-13 1,-30 4,-51 2,-21 4,-35 4,-43 0,-18 -4,-36 -14,-54 -20,-35 -30,-73 -30,-116 0,-26 5,-38 15,-38 8,0 13,-18 14,-52 1,-35 -2,-53 -10,-56 -11,-8 -21,-26 -30,-54 -11,-40 -39,-72 -82,-95 -43,-24 -78,-36 -106,-36 -27,0 -42,-5 -42,-15 0,-11 18,-18 53,-23 4,0 12,-1 25,-2 13,-1 23,-2 31,-2 8,0 19,1 32,2 14,1 23,2 29,2 24,3 139,4 347,4 334,0 518,16 551,50 6,9 29,21 70,37 69,20 103,52 103,94z"/>
  <path fill="black" fill-rule="nonzero" d="M13355 13001c-23,0 -66,-8 -128,-25 -63,-16 -104,-25 -124,-25 -28,0 -44,-6 -47,-17 -3,-13 -27,-22 -70,-27 -23,-5 -38,-8 -44,-8 -19,0 -35,12 -49,35 -16,27 -28,63 -36,108 -4,43 -9,68 -17,74 -8,6 -11,22 -11,51 0,27 -3,43 -10,49 -4,3 -8,-3 -11,-16 -4,-14 -7,-30 -9,-48 -4,-32 -6,-187 -6,-465 0,-278 2,-438 6,-481 6,-75 18,-113 36,-113 8,0 17,7 26,20 10,14 17,60 21,138 4,78 9,152 15,220 6,69 17,103 35,103 7,0 11,14 11,43 0,14 6,31 18,52 12,20 24,39 37,56 13,17 28,37 46,58 18,21 27,33 29,35 36,45 102,68 196,68 60,0 105,-7 133,-20 29,-14 59,-41 89,-82 28,-37 54,-83 80,-137 25,-54 38,-91 38,-113 0,-18 11,-44 33,-77 21,-37 31,-64 31,-83 0,-16 -7,-25 -23,-25 -17,0 -25,-10 -25,-31 0,-18 -14,-45 -40,-83 -27,-37 -47,-55 -60,-55 -12,0 -24,-18 -37,-55 -13,-37 -20,-71 -20,-103 0,-23 -2,-37 -7,-42 -5,-5 -17,-8 -37,-8 -20,0 -32,-2 -37,-7 -5,-5 -7,-17 -7,-37 0,-18 3,-31 11,-39 8,-9 29,-19 65,-32 50,-18 76,-35 76,-51 0,-16 -6,-24 -17,-24 -12,0 -28,-17 -50,-51 -22,-33 -45,-51 -70,-51 -10,0 -14,5 -14,15 0,13 -20,31 -59,53 -39,22 -71,33 -97,33 -76,0 -130,-47 -162,-140 -15,-45 -35,-79 -59,-104 -21,-20 -31,-47 -31,-79 0,-26 1,-51 2,-75l9 -117 -44 0c-37,0 -56,-18 -56,-56 0,-23 6,-56 19,-98 15,-55 17,-91 6,-106 -8,-10 -12,-32 -12,-67 0,-71 12,-122 35,-154 2,-3 8,-16 19,-40 11,-24 23,-46 35,-67 12,-21 22,-32 29,-32 13,0 26,-13 40,-39 14,-20 35,-42 62,-64 27,-22 48,-33 62,-33 14,0 29,-15 46,-45 15,-31 56,-49 123,-54l36 0c51,0 104,6 158,18 55,11 83,22 83,32 0,8 20,12 59,12 32,0 63,-10 90,-29 28,-19 42,-43 42,-70 0,-35 8,-54 23,-54 18,0 29,24 33,70 2,19 3,60 3,123 0,200 -7,318 -22,354 -7,20 -9,51 -5,95 12,69 19,124 19,165 0,47 -6,87 -19,119 -10,28 -17,42 -23,42 -10,0 -19,-75 -27,-227 -4,-114 -13,-198 -28,-253 -16,-55 -46,-113 -92,-173 -58,-78 -121,-124 -188,-136 -4,0 -9,-1 -16,-2 -7,-1 -12,-2 -16,-2 -76,0 -140,34 -191,102 -35,48 -55,102 -59,161 -2,21 -3,51 -3,91 0,75 7,150 20,221 4,18 8,41 12,70 3,29 7,51 10,68 3,16 9,32 18,49 9,17 22,32 37,45 16,14 37,35 65,66 27,30 53,53 77,68 26,15 40,28 40,39 0,11 12,22 36,35 52,35 95,72 129,114 19,27 36,40 50,40 11,0 21,14 29,43 3,19 22,54 54,106 32,51 50,85 54,100 6,18 13,32 20,43 9,7 17,42 26,108 9,65 13,124 13,177 0,48 -4,105 -13,171 -9,67 -17,104 -26,112 -4,3 -18,39 -43,108 -18,46 -48,99 -91,159 -43,60 -80,100 -112,120 -22,15 -37,27 -43,35 -8,14 -36,28 -83,40 -47,13 -89,19 -126,19z"/>
  <path fill="black" fill-rule="nonzero" d="M14983 10818c-6,0 -25,17 -57,51 -33,34 -51,51 -55,51 -5,0 -29,32 -70,94 -33,53 -55,79 -65,79 -2,0 -3,-2 -3,-7 0,-26 25,-89 76,-188 20,-43 49,-87 88,-133 38,-46 64,-69 77,-69 10,0 15,-5 15,-15 0,-13 12,-26 36,-39 19,-12 45,-32 79,-60 72,-58 202,-92 390,-102 24,-3 59,-4 106,-4 199,0 306,16 319,50 4,10 18,16 42,16 26,0 43,5 50,17 17,23 70,45 158,64 88,20 181,30 279,30 123,0 202,-9 238,-26 36,-17 66,-64 93,-139 26,-68 41,-102 44,-102 5,0 8,67 8,200 0,95 -1,152 -3,173 -1,20 -8,32 -20,36 -17,5 -25,13 -25,23 0,11 8,22 25,35 16,14 23,46 23,95 0,53 -4,79 -14,79 -6,0 -16,-11 -31,-31 -28,-37 -73,-56 -136,-56 -25,0 -44,1 -59,4 -23,5 -38,8 -45,8 -7,0 -12,-3 -15,-8 -3,-5 -4,-16 -4,-31 0,-30 -4,-44 -11,-44 -6,0 -22,17 -46,52 -25,34 -59,52 -100,52 -24,0 -72,-10 -145,-29l-99 -23c-4,0 -8,49 -14,148 -5,99 -8,181 -8,246 0,78 0,177 1,297 1,120 1,200 1,241 0,53 -1,119 -1,201 -1,81 -1,139 -1,174l0 123c0,309 14,482 42,519 8,11 17,25 26,43 10,19 20,34 29,45 10,12 24,21 44,29 25,14 37,22 37,25 2,3 -4,4 -17,4 -24,0 -38,7 -42,19 -6,11 -126,16 -361,16 -232,0 -348,-8 -348,-24 0,-16 28,-32 85,-47 59,-15 112,-52 159,-110 13,-12 23,-65 29,-157 3,-87 11,-137 21,-150 8,-13 12,-32 12,-57 0,-25 -4,-40 -12,-45 -8,-5 -12,-50 -12,-135 0,-78 4,-117 13,-117 10,0 15,-19 15,-56 0,-37 6,-66 17,-87 13,-20 20,-42 20,-64 0,-23 -9,-35 -26,-35 -15,0 -25,-9 -31,-28 -5,-18 -10,-71 -14,-157 -1,-30 -2,-63 -2,-100 0,-28 3,-43 11,-43 20,0 52,-36 97,-110 6,-9 9,-18 9,-29 0,-18 -14,-27 -42,-27 -12,0 -20,1 -26,4 -19,5 -31,6 -35,2 -4,-4 -6,-16 -6,-38 0,-28 4,-43 13,-43 10,0 15,-24 15,-71 0,-55 6,-99 17,-131 15,-39 15,-69 0,-91 -28,-39 -31,-60 -9,-66 4,0 9,1 15,4 9,5 16,5 21,0 4,-5 6,-20 6,-44 0,-40 -9,-74 -27,-102 -16,-27 -23,-49 -23,-67 0,-32 -25,-63 -77,-93 -51,-30 -102,-45 -153,-45 -43,0 -69,-5 -79,-15 -20,-16 -83,-24 -188,-24 -74,0 -115,5 -123,16 -12,15 -29,23 -50,23 -26,0 -57,20 -92,60 -43,42 -69,63 -79,63z"/>
  <path fill="black" fill-rule="nonzero" d="M17255 10536c248,-5 382,-10 401,-13l13 0c29,0 43,5 43,17 0,8 -10,15 -31,23 -28,11 -46,26 -56,48 -16,31 -32,51 -50,58 -15,8 -33,55 -53,142 -14,81 -25,121 -35,121 -5,0 -14,24 -24,71 -7,32 -11,166 -11,402 0,35 1,104 1,208 1,104 1,190 1,257l3 792 36 70c27,53 55,87 85,104 35,18 53,31 53,39 0,10 18,21 55,33 36,12 70,18 102,18 41,0 74,-7 99,-20 31,-14 66,-38 102,-72 36,-34 56,-60 60,-78 2,-12 14,-30 36,-56 22,-26 34,-44 34,-56 0,-13 8,-32 23,-58 15,-22 31,-67 51,-136 20,-69 29,-119 29,-148 0,-26 8,-53 23,-79 17,-26 26,-53 26,-83 0,-20 -6,-32 -17,-34 -10,-5 -20,-20 -29,-45 -10,-25 -15,-49 -15,-70 0,-26 10,-39 30,-39l9 0c20,5 40,-5 59,-31l36 -40 -56 -52c-35,-33 -53,-62 -53,-87 0,-11 4,-22 14,-35 4,-5 6,-11 6,-19 0,-19 -10,-51 -29,-95 -18,-53 -27,-85 -27,-100 0,-8 2,-16 6,-27 4,-8 8,-13 12,-17 4,-4 9,-6 14,-6 5,0 8,1 11,2 3,1 8,3 16,6 7,3 14,5 19,7l8 0c10,0 15,-9 15,-27 0,-39 -12,-73 -36,-100 -23,-31 -39,-119 -48,-263 -13,-153 -22,-244 -30,-275 -6,-27 -21,-60 -46,-99 -25,-39 -44,-59 -57,-59 -7,0 -20,-10 -38,-30 -18,-20 -27,-33 -27,-41 0,-8 92,-12 277,-12 267,0 401,14 401,43 0,14 -6,26 -17,37 -13,5 -32,37 -56,98 -21,60 -35,92 -40,95 -36,39 -53,112 -53,217 0,39 4,70 12,90 9,26 14,77 14,154 0,91 -7,164 -20,219 -11,27 -16,51 -16,71 0,19 5,39 16,60 13,37 20,247 20,631l0 571 42 62c27,42 49,66 67,71 19,5 34,18 44,41 6,12 9,22 9,27 0,12 -28,19 -83,19l-65 0 -120 -4 -3 -50c0,-37 -12,-57 -37,-60l-8 0c-18,0 -44,22 -78,68 -30,45 -56,67 -76,67l-8 0c-16,-3 -25,-11 -30,-26 -4,-15 -7,-55 -9,-121 -3,-92 -8,-142 -14,-150 -2,-3 -5,-4 -8,-4 -22,0 -60,34 -112,102 -35,43 -58,64 -67,64 -11,0 -30,13 -56,39 -29,30 -71,53 -126,71 -25,8 -52,18 -78,32 -26,14 -49,22 -69,24 -20,3 -53,4 -100,4 -63,0 -109,-7 -136,-19 -28,-13 -54,-39 -78,-79 -17,-31 -33,-43 -49,-32 -2,3 -6,5 -13,5 -17,0 -38,-17 -61,-52 -23,-34 -39,-63 -46,-87 -10,-29 -20,-44 -27,-44 -16,0 -30,-70 -43,-211 0,-3 -1,-8 -2,-16 -1,-9 -2,-15 -2,-20 0,-38 5,-75 15,-112 10,-35 22,-54 35,-54 8,0 18,-11 31,-32 13,-21 20,-38 20,-51 0,-10 -11,-18 -34,-23 -18,-3 -30,-11 -35,-26 -4,-15 -8,-59 -10,-132 0,-13 0,-34 -1,-64 -1,-30 -1,-53 -1,-70 0,-16 0,-37 1,-63 1,-26 1,-43 1,-51l8 -98 70 -3c6,0 13,0 23,0 51,-17 78,-32 80,-45 0,-62 -38,-107 -114,-133 -43,-14 -68,-29 -76,-44 -8,-21 -13,-106 -13,-256 0,-145 4,-238 13,-279 8,-37 26,-68 54,-91 28,-24 59,-35 92,-35 24,0 44,5 62,15 20,11 33,11 39,0 6,-10 4,-32 -6,-67 -16,-58 -47,-87 -94,-87 -31,0 -67,13 -106,40 -23,16 -41,24 -55,24 -14,0 -21,-10 -21,-28 0,-18 2,-33 6,-43 7,-28 11,-50 11,-66 0,-16 -6,-24 -20,-24 -11,0 -20,1 -26,3 -4,0 -10,1 -16,2 -6,1 -9,2 -11,2 -15,0 -41,-19 -76,-58l-56 -67 358 -8z"/>
  <path fill="black" fill-rule="nonzero" d="M5085 16560c0,24 11,70 32,135 22,66 32,108 32,129 0,34 22,108 65,221l20 55 42 -106c27,-79 48,-159 62,-240 9,-55 20,-107 31,-156 11,-49 21,-108 31,-179 25,-199 45,-300 59,-300 7,0 16,-24 24,-73 8,-49 13,-96 13,-144 0,-47 4,-95 14,-141 9,-47 17,-70 25,-70 4,0 8,-18 13,-54 5,-36 10,-73 15,-112 5,-39 9,-60 11,-63 10,-27 14,-87 14,-180 0,-124 -5,-201 -17,-229 -10,-32 -34,-58 -70,-79 -61,-39 -92,-72 -92,-98 0,-8 121,-12 364,-12 242,0 364,4 364,12 0,23 -35,56 -103,98 -38,23 -57,48 -59,75 -3,20 -17,49 -39,86 -22,37 -40,56 -51,56 -6,0 -13,13 -22,39 0,8 -5,26 -14,53 -10,28 -15,49 -15,65 0,6 2,17 6,32 10,24 10,61 3,114 -19,153 -37,229 -53,229 -7,0 -11,18 -11,56 0,33 -4,61 -13,83 -9,23 -19,34 -31,34 -12,0 -18,12 -18,36 0,33 10,69 30,106 17,33 25,65 25,95 0,32 -11,58 -33,79 -17,13 -26,38 -26,75 0,55 -27,106 -82,154 -20,18 -30,40 -30,67 0,23 8,36 24,39 17,8 25,26 25,56 0,50 -18,81 -53,94 -34,13 -50,34 -50,64 0,20 11,31 33,31 17,0 26,3 27,8 1,5 -3,21 -13,48 -11,26 -17,72 -17,140 0,27 -2,64 -7,112 -5,47 -7,81 -7,102 0,37 4,68 14,94 15,53 23,81 23,83 0,25 -19,39 -58,45 -38,5 -122,8 -253,8l-65 0c-241,0 -361,-7 -361,-20 0,-9 1,-14 3,-17 12,-23 27,-37 44,-43 13,-2 32,-23 56,-61 24,-39 43,-59 55,-62 25,-11 31,-20 20,-31 -9,-8 -21,-11 -34,-8 -7,3 -15,4 -24,4 -15,0 -23,-5 -23,-15 0,-17 9,-34 26,-52 22,-28 33,-51 33,-68 0,-18 -15,-27 -44,-27 -44,0 -74,-42 -87,-127 -7,-31 -14,-47 -22,-47 -8,0 -12,-28 -12,-83 0,-57 -5,-89 -14,-94 -8,-5 -11,-29 -11,-72 0,-39 3,-59 11,-59 9,0 14,-11 14,-32 0,-21 -9,-41 -28,-60 -19,-19 -37,-29 -57,-29 -35,0 -53,-24 -53,-71 0,-24 2,-45 6,-60 9,-50 9,-85 0,-106 -6,-11 -9,-25 -9,-45 0,-3 4,-37 12,-106 7,-58 11,-89 11,-94 0,-27 -11,-42 -34,-45 -15,0 -27,-5 -39,-15 -10,-8 -15,-28 -15,-58 0,-32 6,-56 18,-72 13,-18 20,-39 20,-62 0,-19 -1,-31 -4,-35 -3,-4 -12,-3 -27,2 -14,5 -23,5 -27,0 -3,-5 -5,-22 -5,-50 0,-40 -6,-60 -17,-60 -30,0 -48,-45 -56,-135 -4,-43 -17,-90 -41,-138 -23,-49 -44,-73 -60,-73 -7,0 -17,-8 -28,-24 -12,-16 -23,-35 -35,-58 -12,-22 -19,-35 -21,-37 -13,-18 -22,-37 -25,-58 -9,-22 -27,-43 -56,-63 -27,-22 -42,-39 -42,-53 0,-23 154,-34 461,-34 254,0 381,9 381,27 0,30 -31,52 -92,67 -24,5 -54,28 -87,66 -34,39 -55,77 -65,115 -4,10 -6,39 -6,87 0,120 9,200 26,240 2,7 17,79 44,214 27,135 44,209 50,222 17,30 33,132 46,308 5,53 15,89 30,111 13,18 25,51 36,96 11,46 17,89 17,127z"/>
  <path fill="black" fill-rule="nonzero" d="M6642 14891c4,-5 27,-8 70,-8 33,0 60,1 80,4 3,0 58,3 164,10 106,7 187,11 245,13 132,5 211,10 236,14 25,4 38,14 38,31 0,18 -4,30 -11,35 -8,5 -32,14 -73,27 -33,14 -69,45 -109,92l-56 73 3 127c0,82 6,138 17,170 12,31 13,49 3,51 -9,3 -15,16 -16,41 -1,25 3,47 13,64 2,5 14,75 37,211 22,135 36,205 40,211 8,10 13,50 13,119 0,71 10,146 31,227 22,87 33,154 33,202 0,47 6,83 20,110 15,45 26,95 33,150 4,45 16,104 37,177 21,73 35,109 42,109 10,0 27,-33 52,-102 25,-68 41,-121 46,-161 11,-65 19,-98 24,-98 6,0 16,-35 31,-104 15,-70 22,-119 22,-148 0,-20 -20,-54 -59,-102 -38,-48 -56,-77 -56,-91 0,-12 7,-21 20,-29 18,-11 112,-15 282,-15 127,0 196,3 205,11 10,14 15,26 15,37 0,26 -16,57 -49,94 -33,43 -50,85 -50,129 0,55 7,112 22,171 19,66 27,110 27,134 0,24 4,38 12,43 3,3 17,39 39,108 22,70 40,104 51,104 6,0 12,-11 19,-35 2,-19 16,-79 43,-180 30,-115 52,-227 67,-335 20,-137 32,-213 36,-228 60,-208 90,-356 90,-446 0,-39 7,-85 22,-140 11,-35 21,-90 28,-165 4,-64 12,-104 24,-119 11,-13 17,-76 17,-189 0,-112 -3,-169 -8,-169 -8,0 -19,-18 -33,-52 -17,-40 -39,-66 -65,-79 -58,-33 -87,-60 -87,-83 0,-7 122,-11 367,-11 242,0 364,4 364,11 0,27 -31,58 -92,95 -31,19 -51,34 -60,44 -8,11 -13,24 -13,43 0,22 -10,50 -29,83 -20,34 -35,51 -46,51 -4,0 -9,8 -15,24 -6,16 -12,34 -18,54 -6,20 -9,33 -11,39 -8,27 -8,51 0,71 4,8 5,25 5,52 0,81 -14,158 -42,233 -17,60 -25,99 -25,117 0,77 -17,116 -50,116 -17,0 -26,12 -26,35 0,30 13,64 38,106 25,40 39,68 39,87 0,16 -8,37 -24,62 -16,25 -28,37 -38,37 -10,0 -15,17 -15,51 0,34 -4,65 -12,94 -8,29 -17,43 -27,43 -15,0 -29,11 -42,32 -13,21 -20,42 -20,62 0,20 6,32 18,35 12,3 18,22 18,56 0,34 -7,60 -22,78 -10,18 -23,27 -40,27 -26,0 -39,24 -39,71 0,12 13,17 39,17 44,0 48,21 11,62 -26,30 -32,53 -20,72 2,2 5,3 9,3 7,0 11,16 11,49 0,53 -7,91 -20,117 -12,24 -19,53 -19,87 0,45 8,88 23,129 16,41 36,66 60,73 15,5 20,14 14,27 -6,12 -93,19 -263,19l-259 0 3 -38c0,-8 0,-18 1,-32 1,-13 1,-22 1,-28 0,-53 -14,-84 -40,-94 -26,-10 -53,-56 -81,-138 -26,-78 -44,-117 -52,-117 -8,0 -17,24 -27,71 -7,33 -14,54 -20,62 -5,9 -18,11 -38,8 -20,-3 -31,-2 -35,4 -4,6 -6,25 -6,58 0,32 -4,57 -12,76 -8,18 -13,37 -15,54 -6,31 0,52 17,64 12,8 19,15 19,23 0,18 -89,27 -268,27 -234,0 -351,-11 -351,-35 0,-12 17,-28 52,-44 35,-18 57,-40 64,-66 13,-24 27,-39 44,-44 18,-3 27,-9 27,-19 0,-11 -13,-16 -39,-16 -26,0 -39,-9 -39,-29 0,-10 9,-26 27,-46 16,-16 23,-33 23,-48 0,-26 -17,-43 -50,-52 -19,-5 -32,-12 -39,-20 -7,-7 -15,-26 -23,-54 -12,-52 -17,-110 -17,-171 0,-63 -6,-98 -18,-106 -14,-10 -21,-34 -21,-72 0,-39 7,-58 21,-58 14,0 21,-11 21,-33 0,-18 -11,-38 -32,-60 -22,-22 -45,-37 -71,-45 -23,-7 -35,-29 -35,-63 0,-26 6,-54 17,-87 10,-26 15,-43 15,-51 0,-9 -5,-16 -15,-24 -13,-11 -20,-28 -20,-51 0,-30 9,-68 26,-115 14,-37 22,-65 22,-83 0,-28 -14,-43 -42,-43 -13,0 -25,-9 -35,-28 -10,-19 -15,-39 -15,-63 0,-27 8,-47 24,-59 18,-13 25,-38 23,-75 -2,-15 -7,-22 -17,-19 -26,8 -42,9 -47,4 -5,-5 -7,-21 -5,-48 4,-43 -2,-70 -19,-83 -14,-11 -23,-51 -29,-121 -4,-55 -13,-98 -28,-128 -15,-30 -40,-60 -75,-89 -21,-18 -41,-49 -59,-94 -27,-70 -62,-117 -105,-142 -14,-8 -23,-22 -27,-43 -3,-21 -1,-38 9,-51z"/>
  <path fill="black" fill-rule="nonzero" d="M11495 15187c-6,0 -29,26 -69,77 -40,51 -63,77 -68,77 -11,0 -13,24 -7,71 2,11 3,24 3,39 0,27 -12,52 -34,75 -26,35 -44,71 -53,108 -11,36 -19,54 -23,54 -8,0 -13,7 -13,20 0,14 -22,49 -65,107 -62,81 -107,173 -134,279 -14,62 -29,99 -47,109 -13,12 -20,26 -20,41 0,18 9,43 27,75 28,55 45,92 51,110 18,45 29,68 33,68 6,0 19,28 39,83 17,58 32,93 45,106 13,16 19,29 19,37 0,10 14,33 41,70 27,36 44,83 49,141 2,42 5,67 10,75 5,8 17,13 35,16 26,3 48,25 65,63 15,43 26,64 32,64 6,0 18,16 35,48 12,26 34,56 66,89 32,34 54,51 66,51 6,0 20,17 42,52 17,35 35,52 53,52 10,0 20,3 30,8 10,5 18,11 23,17 5,7 7,12 5,18 -2,3 -128,4 -379,4 -226,-3 -339,-9 -339,-20l11 -7c28,-13 42,-30 42,-51 0,-21 9,-38 26,-51 18,-11 27,-37 27,-79 0,-30 -4,-62 -13,-99 -9,-36 -18,-58 -25,-66 -7,-7 -22,-39 -45,-100 -22,-60 -34,-96 -34,-106 0,-13 -7,-31 -22,-53 -15,-22 -29,-36 -43,-41 -16,-5 -35,-30 -56,-75 -20,-45 -44,-72 -73,-79 -3,0 -7,-1 -12,-2 -5,-1 -8,-2 -10,-2 -36,0 -66,43 -93,131 -16,50 -37,87 -62,110 -27,20 -42,42 -42,64 0,12 -8,33 -23,60 -16,28 -23,49 -23,64 0,5 0,13 1,24 1,11 1,22 1,32 0,16 -2,45 -6,87 -6,40 -9,72 -9,98 0,58 16,96 47,115 25,16 37,27 37,35 0,11 -89,15 -269,15 -194,0 -320,4 -378,12 -16,3 -36,4 -59,4 -34,0 -50,-5 -50,-16 0,-10 18,-24 53,-43 35,-19 53,-33 53,-43 0,-11 18,-22 53,-35 40,-14 66,-41 79,-79 22,-70 49,-115 79,-138 16,-13 26,-30 30,-51 4,-21 16,-47 35,-79 20,-32 29,-53 29,-62 0,-8 11,-29 31,-64 82,-123 123,-205 123,-248 0,-65 35,-123 103,-173 24,-20 38,-35 42,-47 4,-11 8,-41 12,-89l0 -27c0,-37 -6,-76 -20,-118 -13,-41 -20,-75 -22,-102 -4,-48 -19,-75 -44,-83 -27,-11 -49,-42 -67,-94 -54,-152 -90,-235 -107,-248 -26,-20 -39,-63 -39,-127l0 -23c1,-24 1,-39 -1,-45 -3,-7 -13,-11 -29,-11 -23,0 -41,-12 -54,-35 -59,-98 -94,-173 -103,-225 -10,-50 -22,-84 -36,-102 -11,-16 -17,-28 -17,-39 0,-53 -35,-79 -106,-79 -41,0 -62,-7 -62,-21 0,-11 6,-16 19,-16 13,0 20,-6 20,-19 0,-8 10,-11 31,-11 28,0 86,7 174,23 46,10 71,28 73,52 7,45 12,74 17,87 5,12 12,19 22,19l9 0c18,-5 27,-18 27,-39 0,-6 -1,-18 -3,-36 -1,-18 -2,-32 -2,-43 0,-14 30,-21 90,-21l87 0c135,3 203,14 203,33 0,8 -9,16 -27,27 -23,12 -34,23 -34,31 0,11 -8,20 -24,25 -11,5 -26,26 -44,62 -18,37 -28,57 -32,62 -12,17 -17,38 -17,64 0,30 7,53 21,71 14,18 21,31 21,39 0,11 10,37 31,75 20,37 44,91 70,161 23,63 42,104 53,124 11,20 30,41 56,62 26,26 43,45 50,58 4,8 8,14 13,18 5,5 9,5 13,0 3,-5 5,-12 5,-22 0,-18 11,-33 33,-46 13,-14 31,-52 52,-114 22,-61 36,-98 44,-112 14,-18 27,-45 39,-83 11,-34 20,-52 26,-52 3,0 11,-16 26,-49 14,-33 28,-66 43,-101l23 -54c19,-24 29,-57 29,-98 0,-32 -6,-62 -17,-89 -12,-28 -26,-45 -44,-53 -25,-13 -33,-26 -26,-37 8,-11 97,-16 269,-16 280,0 419,8 419,24 0,6 -11,19 -33,38 -22,19 -34,33 -34,41 0,11 -19,30 -56,56 -35,24 -57,44 -64,59 -8,16 -17,24 -26,24z"/>
  <path fill="black" fill-rule="nonzero" d="M13553 15775c-6,0 -20,26 -41,77 -22,51 -34,77 -38,77 -8,0 -15,12 -19,38 -2,8 -11,27 -28,57 -17,30 -25,53 -25,70 0,10 3,22 10,35 4,5 6,12 6,23 0,27 -8,56 -23,89 -16,33 -30,49 -44,49 -12,0 -24,11 -36,32 -11,16 -21,78 -29,187 -8,109 -12,213 -12,313 0,73 2,117 6,133 10,40 16,96 16,169 0,137 27,234 82,289 6,5 14,13 25,25 11,11 22,20 31,28 10,7 20,11 32,11 14,0 12,4 -6,12 -6,3 -13,5 -23,8 -31,7 -149,11 -352,11l-294 4 39 -52c28,-36 45,-54 53,-54 15,0 32,-21 51,-64 19,-42 28,-82 28,-119 0,-43 6,-73 19,-90 9,-13 14,-145 14,-396l0 -375 -47 -64c-31,-35 -47,-64 -47,-86 0,-18 -4,-28 -12,-28 -7,0 -14,-13 -20,-40 -4,-20 -29,-93 -76,-219 -47,-125 -76,-187 -86,-187 -13,0 -28,-20 -44,-58 -15,-43 -26,-64 -34,-64 -6,0 -4,-10 6,-31 9,-24 -1,-60 -30,-108 -41,-70 -80,-115 -117,-136 -25,-14 -40,-39 -46,-75 -20,-90 -34,-146 -43,-168 -8,-22 -23,-43 -43,-61 -24,-27 -55,-40 -90,-40l-50 0 33 -35c15,-20 37,-31 65,-31 17,0 31,1 43,4 112,13 173,41 182,83 3,20 12,31 26,31 14,0 22,-11 26,-31 11,-45 42,-67 91,-67 12,0 20,1 23,3 12,5 57,14 135,26 78,11 126,17 142,17 13,3 15,12 5,29l-16 8c-17,0 -33,12 -48,38 -13,22 -29,39 -50,52 -14,5 -29,28 -43,68 -14,41 -22,74 -22,101 0,3 1,7 3,12l0 4c10,22 8,39 -6,52 -16,18 -22,33 -20,47 3,14 14,19 32,16 19,-7 37,-1 53,16 10,12 25,51 48,115 22,64 34,108 34,129 0,10 6,23 17,38 39,52 59,106 59,161 0,35 10,62 30,83 8,8 22,32 43,72 7,15 16,23 27,23 21,0 42,-28 62,-83 15,-43 27,-66 36,-66 13,0 35,-59 65,-178 3,-23 14,-37 32,-43 18,-5 29,-30 35,-75 8,-47 18,-83 32,-106 4,-11 19,-52 44,-123 25,-71 43,-112 53,-125 11,-16 17,-39 17,-67 0,-24 -13,-55 -39,-92 -26,-36 -48,-54 -64,-54 -13,0 -27,-3 -43,-8 -12,-3 -19,-7 -19,-15 0,-19 133,-29 400,-29 244,0 367,7 367,21l-6 8c-20,15 -40,23 -59,23 -24,0 -40,8 -47,23 -4,8 -22,29 -56,64 -47,42 -74,90 -82,142 -8,39 -21,64 -39,75 -21,20 -46,60 -75,117 -28,57 -50,96 -66,115 -22,21 -46,51 -71,90 -25,39 -38,64 -38,75 0,16 -4,23 -11,23z"/>
  <path fill="black" fill-rule="nonzero" d="M14686 15137c-5,-21 -7,-45 -7,-72 0,-83 11,-125 33,-125 10,0 22,14 36,42 24,60 58,91 99,91 27,0 46,-7 56,-19 10,-13 56,-20 140,-20 112,0 182,9 212,27 33,20 52,18 56,-4 4,-23 13,-34 29,-34 7,0 43,-3 106,-8 8,0 17,-1 27,-2 10,-1 17,-2 21,-2 25,0 46,18 65,54 21,52 47,79 79,79 8,0 11,-19 11,-58l0 -63 81 11c46,5 84,16 113,31 24,17 41,17 50,0 18,-28 34,-35 47,-19 6,5 8,14 6,27 -2,14 -1,24 3,29 4,5 14,8 30,8 25,0 43,-12 53,-37 9,-20 40,-31 90,-31 37,0 60,2 67,6 8,4 11,16 11,38 0,28 -8,43 -25,43 -67,0 -131,45 -194,135 -67,89 -114,133 -142,133 -11,0 -26,-4 -43,-11 -39,-13 -65,-13 -76,-1 -12,13 -18,27 -18,41 0,18 17,35 50,50l53 29 -36 83c-6,13 -17,40 -32,82 -16,41 -30,77 -44,108 -13,30 -27,51 -42,62 -11,11 -17,22 -17,35 0,15 -15,45 -44,90 -28,40 -43,79 -43,119 0,28 -6,62 -19,102 -13,40 -24,60 -34,60 -4,0 -11,12 -22,37 -11,25 -22,51 -31,77 -10,26 -16,41 -17,43 -9,11 -26,49 -53,117 -41,105 -71,157 -91,157 -10,0 -15,16 -15,47 0,37 -6,62 -20,75 -16,24 -32,53 -47,87 -18,42 -30,63 -36,63 -7,0 -13,24 -17,72 -4,42 -14,88 -31,138 -18,47 -27,76 -27,86 0,11 142,16 425,16l428 0 30 -68c15,-35 28,-54 40,-54 9,0 14,45 14,133l0 98c-4,163 -6,248 -6,256 0,19 -4,29 -14,29 -11,0 -28,-16 -50,-49 -13,-20 -39,-47 -77,-77 -38,-32 -62,-53 -71,-63 -26,-30 -40,-33 -42,-13 0,19 -22,40 -65,64 -39,24 -105,36 -196,36 -92,0 -153,-8 -182,-25 -28,-18 -47,-18 -59,0 -10,17 -48,25 -115,25 -70,0 -118,-14 -143,-44 -29,-28 -49,-43 -59,-43 -10,0 -14,14 -14,43 0,20 -4,33 -12,37 -8,5 -31,7 -68,7 -49,0 -87,-8 -115,-25 -23,-15 -39,-15 -48,0 -7,11 -16,18 -26,22 -11,5 -20,4 -28,-2 -8,-6 -11,-15 -8,-28 2,-10 1,-17 -4,-21 -4,-4 -14,-5 -29,-2 -23,0 -44,11 -59,32 -15,21 -30,30 -44,26 -14,-4 -21,-19 -21,-46 0,-28 4,-43 12,-43 24,0 84,-68 179,-205 95,-136 143,-222 143,-257 0,-10 11,-25 33,-44 19,-18 37,-49 53,-94 43,-146 81,-235 114,-267 19,-12 29,-32 29,-56 0,-10 15,-27 46,-51 30,-24 45,-42 45,-55 0,-11 -5,-19 -16,-27 -8,-8 -11,-18 -11,-33 0,-26 10,-70 30,-133 12,-42 22,-71 30,-85 8,-15 23,-29 45,-41 41,-18 65,-27 70,-27 8,0 20,-7 38,-20 18,-14 26,-26 26,-35 0,-5 -3,-9 -9,-12 -15,-12 -27,-19 -36,-19 -13,0 -21,-11 -23,-32 -2,-22 2,-40 11,-55 15,-24 22,-39 22,-44 0,-13 16,-41 48,-83 32,-43 53,-64 62,-64l13 -8 -5 -4c-11,-5 -16,-25 -16,-59 0,-24 1,-37 4,-41 3,-4 12,-3 26,2 21,5 31,-5 31,-31 0,-35 3,-72 9,-112l10 -75 -44 0c-16,0 -94,-5 -235,-15 -78,-5 -128,-8 -149,-8 -110,0 -180,25 -209,75 -23,40 -44,126 -65,260 -15,102 -30,154 -44,154 -4,0 -8,-5 -11,-16 -10,-22 -16,-136 -20,-342 -8,-215 -15,-339 -20,-371z"/>
  <path fill="black" fill-rule="nonzero" d="M5345 19165l-76 -119 -103 0c-56,0 -99,7 -127,22 -28,15 -58,45 -89,90 -24,33 -52,96 -86,188 -33,92 -55,169 -65,228 -10,73 -14,186 -14,339 0,173 5,341 15,502 10,161 22,249 35,261 6,3 20,51 42,146 21,92 39,146 53,161 15,20 22,35 22,44 0,16 21,48 62,98 41,50 74,81 98,94 28,16 61,23 96,23 43,0 82,-11 117,-34 34,-24 50,-42 50,-52 0,-11 10,-30 31,-60 16,-21 35,-56 55,-106 21,-51 31,-84 31,-102 0,-10 4,-18 11,-23 6,-3 13,-37 20,-104 4,-53 18,-112 42,-177 16,-33 23,-60 23,-83 0,-5 -4,-23 -11,-54 -10,-34 -14,-117 -14,-250 0,-128 6,-201 20,-219 10,-13 14,-24 13,-34 -1,-9 -8,-30 -22,-60 -21,-42 -32,-75 -32,-100 0,-16 3,-24 10,-27 7,-3 25,-1 54,4 10,2 21,3 35,3 18,0 27,-4 27,-11 0,-11 -13,-25 -39,-43 -26,-18 -41,-41 -44,-66 -2,-14 -5,-24 -10,-29 -5,-5 -10,-7 -14,-4 -5,3 -9,8 -13,16 -4,9 -8,12 -13,12 -10,0 -21,-13 -33,-39 -12,-26 -21,-58 -24,-95 -22,-148 -38,-221 -47,-221 -6,0 -34,-41 -86,-121zm-263 -217c20,-12 60,-19 120,-19 99,0 176,12 229,35 37,14 91,58 163,131 94,93 142,167 142,225 0,15 6,39 17,71 41,94 66,179 76,256 6,45 18,81 36,110 15,20 23,78 23,173 0,103 -4,230 -13,381 -8,151 -17,232 -25,242 -8,10 -12,22 -12,34 0,20 -9,60 -27,123 -18,63 -32,100 -43,114 -1,3 -8,18 -20,45 -11,28 -23,54 -36,81 -13,26 -22,39 -25,39 -7,0 -23,28 -47,83 -14,32 -28,58 -44,79 -16,20 -36,44 -62,70 -25,26 -44,47 -55,60 -30,33 -51,50 -66,50 -14,0 -26,9 -38,25 -36,41 -118,62 -246,62 -100,0 -151,-14 -151,-42 0,-16 -15,-24 -46,-24 -23,0 -54,-12 -90,-35 -36,-24 -54,-43 -54,-56 0,-11 -5,-16 -15,-16 -11,0 -40,-24 -87,-71 -46,-47 -73,-81 -81,-102 -3,-11 -13,-29 -29,-55 -16,-26 -25,-51 -29,-74 -5,-27 6,-57 36,-92 29,-31 53,-47 70,-47 12,0 27,11 47,31 15,22 31,33 47,33 24,0 37,-21 37,-64 0,-39 -33,-64 -99,-75 -50,-12 -76,-26 -78,-40 0,-18 19,-29 56,-33 37,-4 56,-14 56,-29 0,-5 -5,-18 -14,-41 -14,-20 -56,-34 -126,-42l-106 -12 -6 -327 0 -96c0,-251 16,-397 47,-436 15,-18 39,-13 70,15 28,27 54,46 79,56 14,5 23,6 27,2 4,-4 6,-19 6,-46 0,-33 -14,-60 -42,-79 -58,-39 -88,-87 -88,-144 0,-32 4,-51 12,-56 5,-5 22,-29 47,-71 23,-43 47,-62 73,-60 15,3 25,1 28,-4 4,-5 6,-20 6,-46 0,-35 14,-70 42,-107 28,-37 45,-54 53,-54 11,0 27,-14 47,-41 43,-53 85,-79 126,-79 2,0 5,1 9,2 3,1 6,2 8,2 20,7 41,1 62,-16z"/>
  <path fill="black" fill-rule="nonzero" d="M7609 18893c0,-3 42,-4 126,-4 323,0 488,5 495,16 2,3 3,21 3,56 0,26 -2,96 -6,211 -3,116 -7,187 -11,215 -4,28 -11,43 -23,47 -29,8 -43,18 -39,31 0,8 5,13 14,16 18,7 30,32 36,71 13,87 20,360 20,819 0,100 -1,154 -3,161 -2,5 -3,32 -3,79 0,43 2,136 6,283 1,30 3,68 5,115 4,125 13,198 27,215 2,5 9,14 20,29 13,15 25,30 36,42 23,32 52,52 88,60 41,8 62,14 62,19 0,16 -113,24 -338,24 -248,0 -372,-8 -372,-24 0,-5 18,-11 53,-19 37,-8 64,-26 80,-54 16,-29 25,-78 29,-146 4,-69 16,-112 36,-130 21,-18 31,-45 31,-83 0,-30 -1,-47 -5,-52 -4,-5 -13,-5 -26,0l-13 0c-14,0 -20,-7 -20,-19 0,-18 11,-39 33,-64l31 -31 -31 -75c-24,-53 -36,-105 -36,-158l-3 -83 53 -8c38,-3 56,-14 56,-35 0,-14 -15,-41 -44,-79 -30,-39 -49,-59 -59,-59 -12,0 -17,-25 -17,-75 0,-37 1,-68 2,-94 4,-87 16,-140 35,-158 20,-18 29,-33 29,-48 0,-10 -9,-37 -27,-83 -20,-53 -29,-159 -29,-319 0,-160 -6,-253 -17,-279 -9,-20 -9,-45 0,-75 4,-16 6,-24 6,-27 0,-27 -13,-41 -39,-41 -1,0 -4,1 -8,2 -4,1 -7,2 -9,2 -20,8 -34,0 -42,-23 -5,-18 -24,-35 -56,-51 -31,-16 -60,-24 -85,-24 -11,0 -23,-11 -35,-32 -12,-21 -18,-42 -18,-62z"/>
  <path fill="black" fill-rule="nonzero" d="M10938 19243c-4,0 -16,-20 -38,-59 -22,-40 -36,-60 -44,-60 -9,0 -24,-11 -44,-31 -24,-35 -91,-52 -199,-52 -41,0 -64,7 -67,21 -4,18 -37,39 -98,62 -58,24 -87,43 -87,56 0,12 -13,31 -39,56 -19,15 -45,51 -79,106 -31,50 -55,75 -70,75 -10,0 -15,-8 -15,-23 0,-12 1,-20 3,-25 4,-31 10,-49 18,-54 5,-3 16,-24 31,-64 20,-55 48,-107 85,-156 36,-49 68,-81 97,-96 39,-18 68,-39 86,-63 15,-21 32,-31 50,-31 16,0 31,10 46,31 20,20 34,31 42,31 8,0 30,-14 67,-43 37,-29 84,-43 140,-43 24,0 36,6 36,17 0,8 20,18 59,33 39,14 60,24 62,29 4,16 25,37 65,60 67,42 123,93 168,154 25,26 49,68 73,128 24,60 36,107 36,143 0,24 -4,49 -13,75 -8,22 -5,62 9,119 12,39 19,69 19,91 0,31 -20,46 -59,46l-47 0 8 123c4,47 6,74 6,79 0,23 -6,38 -20,46 -13,5 -18,13 -14,25 6,8 3,22 -6,43 -10,21 -20,32 -29,32 -12,0 -23,18 -35,54 -14,40 -34,69 -59,87 -25,22 -58,33 -97,33 -30,0 -54,-7 -73,-21 -19,-13 -31,-12 -39,4 -13,32 -33,68 -59,110 -26,41 -44,61 -52,61 -10,0 -24,16 -43,47 -45,70 -93,106 -145,106 -35,0 -57,6 -65,17 -13,11 -39,54 -77,132 -38,77 -59,127 -63,147 -4,32 -11,48 -21,48 -10,0 -15,4 -15,12 0,20 20,44 59,71 41,31 63,56 65,74 2,18 10,28 24,28 25,0 43,-14 53,-44 6,-12 21,-19 46,-19 8,0 36,3 83,8 78,10 119,19 123,27 11,29 78,44 199,44 104,0 171,-12 199,-35 2,0 12,-7 31,-22 19,-15 33,-25 43,-30 70,-45 110,-108 120,-188 6,-40 13,-60 19,-60 9,0 14,28 14,83 0,5 0,13 -1,23 -1,11 -1,20 -1,29 -9,141 -40,250 -91,327 -55,78 -154,117 -298,117 -35,0 -63,-1 -83,-4 -121,-10 -195,-34 -222,-71 -14,-13 -39,-20 -74,-20 -35,0 -65,1 -90,4 -92,5 -154,22 -188,51 -34,29 -64,43 -92,43 -41,0 -62,-30 -62,-91 0,-32 -7,-52 -23,-60 -37,-12 -56,-107 -56,-282 0,-11 0,-28 1,-53 1,-25 1,-45 1,-58 4,-102 10,-171 18,-208 8,-37 21,-56 38,-56 8,0 26,-20 56,-59 34,-41 60,-69 79,-83 27,-16 42,-26 42,-31 0,-8 19,-23 56,-47 46,-30 115,-111 205,-244 26,-39 54,-72 85,-95 31,-24 66,-55 105,-94 39,-39 59,-63 59,-72 0,-8 16,-25 47,-51 28,-24 44,-57 50,-98 13,-127 30,-198 50,-213 2,0 3,-4 3,-11 0,-25 -12,-72 -36,-140 -24,-70 -40,-104 -47,-104z"/>
  <path fill="black" fill-rule="nonzero" d="M13279 21127c4,0 31,-20 81,-60 50,-41 78,-61 84,-61 8,0 7,-12 -3,-36 -11,-20 -3,-49 23,-87 24,-33 36,-72 36,-117 0,-24 -5,-99 -15,-225 -10,-125 -24,-188 -41,-188 -7,0 -24,-12 -50,-36 -15,-16 -36,-25 -60,-29 -25,-4 -82,-6 -172,-6 -97,0 -158,-3 -181,-8 -23,-5 -35,-20 -35,-44 0,-8 19,-19 56,-35 37,-15 61,-30 70,-44 11,-16 32,-23 62,-23 80,0 145,-34 196,-102 47,-62 70,-133 70,-209 0,-58 -3,-128 -11,-211 -10,-108 -22,-161 -36,-161 -2,0 -9,-18 -20,-53 -8,-28 -29,-66 -65,-115 -35,-49 -64,-79 -85,-93 -18,-12 -57,-17 -117,-17 -53,0 -82,-8 -86,-23 -2,-16 -22,-11 -62,15 -13,8 -36,22 -69,41 -32,20 -61,39 -85,58 -24,18 -43,35 -57,51 -41,45 -75,91 -103,138 -27,43 -47,64 -59,64 -7,0 -11,-10 -11,-29 0,-20 9,-58 28,-112 19,-54 33,-83 42,-89 14,-5 21,-16 21,-32 0,-21 15,-50 45,-88 31,-37 62,-66 93,-85 26,-13 47,-27 62,-42 15,-16 29,-28 43,-37 12,-8 25,-12 39,-12 25,0 47,18 64,52 6,11 29,1 70,-27 52,-34 103,-52 153,-52 21,0 31,5 31,16 0,10 17,18 50,23 22,3 50,20 84,54 34,33 57,53 69,58 27,10 70,50 130,119 60,70 89,115 89,137 0,16 9,38 27,68 17,31 26,68 26,110 0,37 -7,64 -20,79 -10,11 -15,18 -15,25 0,7 7,23 20,50 19,31 27,68 23,110 -2,27 -5,44 -11,51 -6,6 -22,11 -46,13 -25,3 -41,7 -47,12 -6,5 -9,20 -9,44 0,31 6,49 19,54 9,3 14,21 14,56 0,42 -6,70 -20,83 -33,26 -30,56 9,91 21,18 31,35 31,52 0,12 13,36 39,71 21,31 44,108 70,231 0,3 1,8 3,17 0,18 -7,33 -22,46 -15,13 -31,20 -48,20 -9,0 -17,3 -21,9 -4,6 -5,11 -2,16 2,10 23,15 65,15 25,-3 41,-2 48,2 7,4 11,12 11,25 0,24 -15,47 -44,68 -29,24 -44,40 -44,48 0,11 9,24 27,42 14,16 20,29 20,41 0,5 -4,14 -12,29 -8,14 -12,30 -12,46 0,18 -9,43 -26,76 -17,33 -28,55 -32,68 -8,27 -27,62 -56,104 -33,44 -52,72 -56,86 -4,13 -17,20 -39,20 -2,0 -26,-3 -73,-7 -13,-3 -22,-1 -26,5 -4,7 -7,20 -9,41 -6,64 -28,96 -67,96 -15,0 -36,-12 -62,-37 -26,-25 -40,-47 -40,-66 0,-10 -11,-20 -33,-29 -22,-9 -41,-13 -56,-13 -10,0 -15,3 -15,7 0,11 11,16 32,16 14,0 27,9 37,26 11,18 16,37 16,57 0,11 -3,22 -8,35 -10,14 -31,21 -65,21 -32,0 -58,-1 -79,-4 -80,-5 -151,-28 -212,-68 -68,-47 -116,-77 -146,-90 -41,-20 -62,-35 -62,-48 0,-8 -13,-21 -39,-39 -17,-12 -33,-31 -48,-58 -15,-28 -22,-49 -22,-65 0,-5 2,-10 5,-15l6 0c2,-3 4,-4 6,-4 29,0 59,20 88,60 43,58 124,93 244,106 24,3 60,4 106,4 25,0 40,-1 46,-4 123,-39 193,-74 209,-102 9,-22 19,-33 28,-33z"/>
  <path fill="black" fill-rule="nonzero" d="M15043 20299c-18,20 -27,33 -27,41 0,8 -15,33 -44,75 -30,43 -44,68 -44,73 0,6 28,9 86,9l28 0c98,0 167,13 206,39 15,12 30,18 44,17 14,-1 21,-9 21,-21 0,-31 22,-47 65,-47 5,0 10,-1 13,-5 3,-3 5,-11 7,-22 2,-11 3,-29 3,-52l0 -71c-2,-27 -3,-57 -3,-91 0,-42 9,-68 27,-79 45,-32 67,-72 67,-119 0,-33 -16,-50 -47,-50 -18,0 -28,-5 -31,-16 -3,-11 -5,-45 -7,-102l0 -53c0,-46 7,-77 22,-94 23,-26 32,-52 26,-79 -2,-8 -6,-12 -11,-12 -12,0 -22,-9 -33,-27 -9,-10 -16,-14 -19,-13 -3,1 -7,12 -13,33 -10,39 -15,63 -15,71 0,15 -4,23 -13,23 -10,0 -14,10 -14,29 0,23 -14,51 -42,83 -19,26 -39,58 -59,98 -62,148 -110,237 -143,268 -16,15 -23,32 -23,48 0,11 -9,26 -26,45zm399 -770c-6,11 -9,20 -9,27 0,22 6,33 17,33 8,0 12,-9 12,-29 0,-23 0,-36 -1,-40 -1,-4 -7,-1 -19,9zm-176 -177c10,0 20,-17 29,-52 10,-35 21,-52 32,-52 13,0 27,-8 41,-23 14,-16 21,-30 21,-43 0,-5 6,-32 17,-79 13,-43 31,-64 56,-64 16,0 30,9 41,27 21,32 41,32 59,0 9,-18 34,-24 73,-19 26,5 43,12 51,19 9,8 14,22 16,41 4,28 7,49 11,62 0,3 0,9 1,17 1,8 1,15 1,23 0,73 -5,189 -14,348 -10,159 -17,243 -23,254 -8,16 -5,41 8,72 14,34 20,139 20,315 0,180 2,277 6,288 2,5 29,13 80,24 53,10 83,20 90,30 11,11 22,11 33,0 10,-7 25,-16 46,-27 18,-5 26,-1 24,12 -6,20 -1,37 13,51 14,13 28,13 43,0 14,-14 24,-20 32,-20 4,0 6,46 6,138l0 138 -108 0c-68,0 -115,-5 -139,-16 -5,-4 -16,-6 -32,-6 -16,0 -35,5 -58,14 -30,13 -47,23 -53,31 -5,8 -8,28 -8,60 0,42 4,68 11,79 10,10 17,39 23,87 4,50 -3,77 -20,83 -15,5 -23,18 -24,37 -1,20 5,32 19,37 16,15 28,47 39,94 10,51 27,94 54,132 26,38 55,60 87,68 18,5 26,9 26,10 0,1 -15,5 -46,11 -59,11 -192,16 -399,16 -220,0 -331,-5 -331,-16 0,-14 38,-29 113,-44 22,-5 53,-28 94,-68 30,-28 47,-50 53,-66 6,-16 12,-58 18,-126 4,-39 5,-122 5,-247 0,-106 -1,-161 -5,-165l-23 0c-16,-3 -40,-5 -69,-8 -30,-3 -60,-5 -89,-8 -123,-9 -191,-21 -202,-36 -8,-11 -22,-16 -42,-16 -30,0 -44,9 -44,27 0,11 -63,15 -188,15 -78,0 -119,-2 -123,-7 -2,0 -2,-7 -1,-20 1,-12 2,-26 4,-38 10,-30 20,-87 27,-174 7,-87 19,-138 34,-153 14,-19 32,-55 53,-108 15,-36 42,-87 83,-151 41,-65 77,-112 108,-140 20,-24 25,-45 16,-63 -10,-23 -7,-51 12,-83 22,-45 42,-81 56,-110 17,-40 47,-69 90,-87 43,-22 69,-38 77,-48 8,-11 10,-22 4,-35 -5,-14 -15,-20 -28,-20 -19,0 -24,-16 -15,-47 6,-10 13,-21 21,-32 16,-18 24,-36 24,-54 0,-13 11,-31 32,-55 22,-24 39,-35 52,-35z"/>
  <path fill="black" fill-rule="nonzero" d="M4655 23271c3,0 9,-1 20,-2 10,-1 20,-2 27,-2 5,0 17,1 33,2 17,1 29,2 37,2 125,10 216,15 271,15 11,0 27,0 47,0 95,3 152,12 169,29l13 12c21,20 37,31 48,31 18,0 27,-14 27,-43 0,-22 19,-36 56,-44 23,-5 39,-8 47,-8 34,0 62,24 82,72 15,35 17,59 6,71 -12,15 -34,56 -66,121 -33,65 -56,108 -69,127l-44 54 -143 -12c-100,-10 -152,-18 -156,-23 -8,-10 -24,-15 -50,-15 -39,0 -72,9 -99,27 -24,12 -38,26 -42,39 -3,13 -7,48 -11,103 -4,78 -11,146 -22,203 -8,63 -10,100 -6,112 2,8 57,12 165,12 160,0 267,31 319,94 26,28 44,43 56,43 9,0 34,26 73,79 39,53 59,87 59,104 0,11 -13,34 -40,71 -18,21 -27,37 -27,51 0,7 6,11 19,11 30,0 61,-16 90,-50 12,-17 18,-19 20,-8 0,8 0,22 0,43 0,42 -9,74 -28,94 -22,22 -32,37 -30,45 2,7 16,11 42,11 22,0 35,3 39,8 4,5 6,22 6,52 0,39 5,62 14,71 8,3 12,17 12,43 0,20 -4,31 -12,31 -6,0 -9,6 -11,18 -2,12 -2,26 0,43 2,17 5,32 11,47 8,20 5,45 -8,75 -12,23 -23,61 -36,114 -7,35 -15,56 -22,65 -8,9 -27,18 -59,26 -43,10 -64,25 -64,44 0,12 6,27 18,42 12,16 18,33 18,51 0,18 -9,40 -27,64 -19,20 -38,31 -56,31 -19,0 -39,-8 -58,-24 -20,-16 -50,-24 -91,-24 -31,0 -52,6 -62,17 2,11 12,16 29,16 26,0 48,7 68,23 20,15 29,32 29,51 0,19 -21,43 -63,74 -42,30 -85,51 -128,64 -55,14 -149,21 -282,21 -117,0 -198,-6 -242,-18 -44,-12 -66,-32 -66,-60 0,-12 9,-18 28,-21 19,-3 68,-4 149,-4 117,0 194,-13 229,-39 40,-27 63,-40 70,-40 13,0 47,-34 102,-102 50,-63 85,-101 106,-114 14,-5 22,-16 22,-33 0,-18 8,-50 25,-96 18,-46 30,-69 38,-69 8,0 15,-13 21,-39 2,-15 8,-32 19,-51 10,-19 16,-36 16,-52 0,-16 -2,-30 -6,-39 -9,-33 -10,-72 -3,-114 6,-24 9,-49 9,-72 0,-53 -12,-85 -34,-98 -30,-19 -59,-72 -89,-157 -6,-20 -25,-29 -58,-29 -33,0 -59,-18 -79,-54 -15,-32 -34,-49 -56,-49 -17,0 -34,1 -50,4 -53,5 -81,14 -85,25 -4,8 -18,17 -42,27 -13,3 -39,25 -76,66 -37,42 -65,63 -82,63 -16,0 -37,9 -63,26 -25,18 -42,35 -49,53 -3,9 -6,13 -8,13 -8,0 -13,-67 -15,-201 0,-24 0,-56 -1,-98 -1,-42 -1,-72 -1,-90 0,-301 11,-482 34,-545 9,-30 14,-56 14,-75 0,-28 -8,-42 -25,-42 -22,0 -33,-59 -33,-177 0,-69 6,-106 19,-112 14,-12 20,-27 20,-43 0,-16 4,-26 13,-32 8,-5 33,-12 74,-23z"/>
  <path fill="black" fill-rule="nonzero" d="M8159 24319c-34,-26 -97,-39 -191,-39 -20,0 -34,1 -42,4 -60,15 -105,53 -134,114 -16,32 -40,66 -71,101 -31,35 -51,53 -61,53 -12,0 -31,20 -56,60l-44 64 0 236c0,154 5,247 14,279 2,5 9,31 22,77 13,46 26,88 39,126 13,38 23,58 31,60 11,3 17,16 17,41 0,18 15,35 44,50 31,22 54,41 67,60 11,18 40,33 84,47 45,13 87,20 126,20 18,0 31,-1 39,-4 36,-10 65,-28 87,-55 26,-28 43,-43 50,-43 9,0 27,-28 53,-83 26,-55 39,-94 39,-119 0,-35 16,-83 49,-142 10,-18 9,-50 -3,-95 -14,-47 -20,-98 -20,-154 0,-63 9,-108 27,-137l26 -49 -33 -46c-17,-24 -26,-44 -26,-60 0,-12 13,-19 39,-19l23 0c39,5 62,1 67,-12 2,-11 -2,-17 -12,-17 -15,0 -33,-8 -54,-23 -21,-16 -31,-30 -31,-45 0,-15 -9,-19 -27,-11 -2,3 -6,4 -12,4 -15,0 -30,-9 -44,-27 -14,-18 -21,-37 -21,-56 0,-31 -7,-62 -21,-93 -14,-32 -28,-54 -44,-68zm-663 9c14,0 20,-9 20,-28 0,-18 -2,-28 -5,-28 -8,11 -15,20 -20,27 -6,8 -4,18 5,29zm739 -990c0,3 34,21 102,53 68,32 103,50 103,55 0,5 13,15 39,31 22,12 48,41 78,84 30,44 45,74 45,89 0,14 -7,21 -20,21 -12,0 -41,-16 -86,-48 -80,-58 -143,-93 -188,-106 -26,-5 -50,-8 -70,-8 -17,0 -30,1 -39,4 -29,8 -59,9 -90,4l-14 0c-53,0 -96,22 -129,66 -8,11 -36,28 -83,50 -46,22 -73,42 -79,62 -6,23 -20,41 -42,54 -15,11 -37,32 -65,63 -23,27 -50,54 -82,83 -43,37 -55,64 -36,79 9,3 13,12 13,29 0,18 -11,44 -33,77 -37,56 -56,110 -56,158 0,9 1,14 3,17 2,3 4,4 5,4 2,0 4,-2 7,-6 3,-4 5,-9 7,-15 8,-20 34,-40 77,-59 43,-18 65,-33 65,-43 0,-26 72,-46 216,-60 9,0 21,-1 36,-2 16,-1 27,-2 35,-2 182,0 293,26 332,79 18,19 43,37 76,52 25,11 52,34 78,71 26,37 40,69 40,95 0,18 10,40 29,66 20,26 35,63 47,111 12,47 23,79 35,94 10,14 15,63 15,146l0 150c-2,123 -5,202 -10,238 -5,35 -17,78 -37,128 -25,69 -47,112 -67,127 -17,13 -25,27 -25,43 0,11 -22,45 -65,102 -43,56 -68,85 -76,85 -2,0 -14,10 -33,31 -37,47 -97,83 -179,106 -28,9 -51,18 -69,29 -19,10 -37,17 -54,21 -17,4 -47,6 -90,6 -74,0 -118,-9 -130,-27 -10,-19 -31,-29 -65,-29 -21,0 -54,-11 -99,-33 -45,-22 -72,-39 -80,-54 0,-3 -24,-19 -73,-50 -30,-22 -58,-51 -83,-87 -24,-37 -37,-68 -37,-95 0,-36 26,-54 77,-54 12,0 20,1 26,3 12,3 23,5 37,8 13,3 22,5 29,6 7,1 13,2 19,2 18,0 27,-14 27,-43 0,-22 -4,-34 -12,-38 -8,-4 -32,-7 -71,-10 -55,-5 -82,-13 -82,-24 0,-11 15,-16 44,-16 50,0 76,-11 76,-31 0,-8 -1,-13 -3,-16 -11,-20 -52,-33 -120,-36 -71,-5 -110,-13 -117,-24 -6,-7 -9,-114 -9,-318 0,-205 -7,-316 -20,-336 -10,-18 -16,-32 -16,-42 0,-30 23,-54 68,-75 41,-17 62,-37 62,-60 0,-18 -20,-27 -59,-27 -41,0 -63,5 -65,15 -6,13 -14,19 -22,18 -7,-1 -11,-11 -11,-29 0,-17 5,-36 17,-58 11,-22 20,-33 28,-33 6,0 17,-9 32,-28 16,-19 25,-30 29,-32 9,-5 9,-11 0,-19 -6,-3 -21,-17 -44,-44 -19,-21 -21,-42 -6,-64 14,-18 20,-36 20,-55 0,-18 8,-52 22,-100 15,-48 25,-72 31,-72 7,0 11,-10 11,-29 0,-20 10,-53 29,-98 20,-45 37,-73 51,-83 16,-16 28,-37 37,-64 8,-26 21,-39 38,-39 18,0 35,1 51,4l79 12 0 -64c0,-35 3,-61 9,-75 6,-15 21,-33 44,-53 9,-12 22,-17 37,-17 25,0 51,28 77,83 9,24 26,44 49,59 23,16 45,24 65,24 10,0 17,-1 20,-4 16,-8 18,-17 9,-27 -8,-8 -17,-12 -29,-12 -16,0 -33,-12 -51,-35 -18,-24 -26,-46 -26,-66 0,-24 14,-45 42,-60 24,-15 50,-23 79,-23 22,0 40,1 53,4 13,0 28,1 45,4 17,3 30,4 42,5 11,1 19,2 22,2 16,0 41,7 76,20 35,12 53,22 53,27z"/>
  <path fill="black" fill-rule="nonzero" d="M10404 23307c8,-3 22,-4 44,-4 112,0 172,13 179,39 6,20 18,40 35,58 18,19 33,28 46,28 17,0 24,-18 24,-52l0 -50 99 0c65,0 103,9 115,27 24,32 43,30 56,-8 13,-26 27,-39 41,-39 14,0 21,11 21,31 0,28 5,45 14,48 4,0 11,0 22,0 23,0 42,-13 57,-40 20,-43 44,-43 72,0 13,23 37,35 70,35 23,0 41,-9 53,-27 8,-13 14,-20 20,-20 9,0 14,16 14,47 0,22 -2,32 -6,32 -7,0 -18,28 -31,83 -31,108 -53,161 -65,161 -7,0 -10,11 -10,31 0,20 -4,34 -12,45 -5,5 -14,26 -24,64 -10,38 -21,78 -31,120 -10,42 -16,68 -18,75 -30,98 -47,167 -53,208 -3,31 -14,57 -31,75 -7,3 -11,6 -14,11 -3,5 -4,10 -4,16 0,7 0,12 0,17 0,5 0,14 0,25 0,12 0,22 0,31 0,36 -7,89 -20,159 -14,70 -25,111 -36,124 -2,3 -15,57 -38,163 -23,106 -37,161 -41,163 -3,3 -19,54 -44,154 -25,103 -42,159 -52,169 -14,18 -22,60 -22,125 0,69 -10,115 -31,138 -30,31 -44,75 -44,131 0,28 6,47 17,58 14,14 22,35 22,63l0 45 -176 0c-102,0 -167,-3 -194,-10 -27,-7 -41,-22 -41,-46 0,-16 9,-43 26,-83 18,-40 31,-62 41,-68 6,-3 8,-11 8,-27 0,-15 10,-52 30,-110 20,-58 34,-94 44,-112 10,-12 22,-69 36,-169 12,-94 27,-151 47,-169 17,-13 26,-34 26,-64 0,-26 13,-53 39,-83 23,-28 34,-49 34,-62 0,-11 -8,-21 -23,-29 -18,-7 -27,-29 -27,-63 0,-31 7,-61 22,-91 14,-31 20,-60 20,-87 0,-23 7,-45 20,-66 13,-21 27,-32 42,-32 12,0 32,-14 62,-41 30,-28 44,-47 44,-57 0,-12 -18,-26 -53,-40 -28,-13 -44,-23 -47,-31 -4,-8 1,-19 14,-35 13,-16 23,-49 33,-96 11,-53 29,-89 53,-110 17,-13 27,-23 29,-29 2,-7 -2,-24 -12,-54 -13,-45 -14,-68 -3,-68 4,0 10,4 18,12 10,11 22,4 36,-23 21,-37 22,-69 3,-95 -14,-18 -20,-41 -20,-71 0,-31 -7,-53 -22,-68 -8,-8 -17,-14 -29,-19 -11,-5 -21,-7 -29,-4 -8,3 -12,8 -12,15 0,30 -52,45 -157,45 -53,0 -95,-1 -126,-4 -137,-11 -210,-22 -218,-37 -8,-15 -26,-14 -56,4 -32,19 -70,29 -115,29 -35,0 -56,-2 -63,-6 -6,-4 -10,-18 -10,-42 0,-32 7,-54 23,-68 20,-20 36,-52 47,-94 12,-40 29,-74 53,-101 24,-28 46,-41 67,-41 8,0 16,3 24,8 16,11 30,12 45,1 15,-11 22,-26 22,-47 0,-12 10,-22 31,-27z"/>
  <path fill="black" fill-rule="nonzero" d="M13332 24523c-24,-5 -65,-8 -123,-8 -86,0 -170,9 -253,24 -83,16 -126,33 -128,51 0,57 -17,109 -50,154 -9,11 -16,18 -19,23 -3,5 -5,11 -6,16 -1,6 -1,9 1,11 2,1 7,5 15,10 25,20 37,73 37,157 0,36 -5,70 -14,102 -8,18 -12,32 -13,39 -1,9 0,14 3,18 3,4 8,10 16,18 17,15 24,32 24,50 0,22 -18,33 -53,33l-56 3 44 24c23,15 49,23 79,23l8 0c11,0 21,6 28,18 7,12 17,37 28,74l29 94 80 23c49,13 83,25 102,35 20,11 62,16 126,16 63,0 102,-6 117,-17 6,-5 36,-23 92,-54 44,-24 76,-49 93,-74 18,-25 33,-66 47,-124 11,-55 17,-110 17,-165 0,-55 -6,-114 -17,-177 -14,-63 -18,-101 -12,-114 4,-11 -3,-25 -20,-45 -16,-15 -24,-32 -24,-50 0,-11 -22,-45 -67,-100 -43,-55 -87,-85 -132,-91zm156 -1192c-30,-24 -93,-38 -189,-41l-59 0c-105,0 -184,16 -236,49 -52,33 -88,89 -107,168 -8,37 -12,90 -12,157 0,161 10,271 29,331 13,40 36,77 67,110 32,32 47,56 47,72 0,30 15,44 44,44 7,0 19,-3 34,-8 16,-9 52,-13 106,-13 41,0 73,1 97,4 29,3 66,4 110,4 88,0 141,-24 156,-70 11,-37 17,-61 17,-71 0,-17 14,-41 42,-72 19,-24 29,-41 30,-50 1,-9 -3,-22 -13,-40 -13,-27 -20,-71 -20,-131 0,-47 5,-77 15,-90 11,-13 9,-30 -6,-52 -15,-24 -23,-40 -23,-51 0,-7 5,-11 14,-11 4,0 12,1 25,2 13,1 22,2 28,2 15,0 24,-4 28,-12 2,-5 2,-9 1,-12 -1,-3 -4,-5 -8,-7 -5,-1 -10,-2 -16,-2 -13,0 -25,-5 -36,-15 -11,-11 -25,-13 -43,-8 -4,3 -11,4 -19,4 -13,0 -27,-26 -43,-79 -18,-55 -40,-93 -64,-114zm-391 -146c48,-11 116,-15 202,-15 106,0 185,7 238,23l3 0 3 0 3 4 4 0 3 0 3 0 6 3c95,30 151,53 166,72 20,20 35,31 44,31 7,0 19,20 33,60 15,42 30,64 43,67 14,5 32,39 53,102 18,51 27,102 27,154 0,37 -1,68 -3,94 -4,105 -13,175 -27,210 -15,42 -44,89 -86,139 -42,51 -79,85 -110,105 -11,7 -21,17 -28,29 -7,11 -10,22 -9,33 1,11 7,18 17,20 86,33 129,80 129,140 0,9 -1,16 -3,22 -6,33 -38,50 -97,50 -16,0 -27,-1 -35,-4 -25,-11 -46,-15 -62,-15 -20,0 -30,11 -30,32 0,16 28,24 85,24 63,0 94,5 94,15 0,10 -20,22 -59,35 -33,11 -50,22 -50,33 0,15 43,23 129,23 80,0 122,7 126,23 7,32 10,103 10,213l0 42c0,169 -21,254 -62,254 -20,0 -31,-6 -33,-17 -4,-13 -26,-22 -67,-27 -27,-5 -45,-7 -51,-4 -7,3 -9,11 -7,23 2,22 22,41 62,56 49,16 73,37 73,64 0,18 -7,35 -20,54 -22,30 -38,44 -47,44 -12,0 -17,5 -17,16 0,12 -15,19 -44,19 -19,0 -32,3 -38,9 -6,6 -10,19 -12,39 -2,20 -9,37 -23,49 -13,12 -45,31 -97,56 -82,43 -131,64 -146,64 -11,0 -64,8 -159,23 -26,5 -70,8 -131,8 -155,0 -244,-17 -269,-50 -14,-20 -30,-29 -47,-29 -27,0 -57,-14 -89,-43 -32,-29 -54,-60 -66,-93 -15,-45 -28,-68 -37,-68 -8,0 -22,-24 -44,-73 -22,-49 -34,-74 -39,-77 -17,-23 -26,-116 -26,-279 0,-67 3,-118 9,-154 7,-48 19,-87 35,-119 16,-32 50,-82 103,-153 92,-121 146,-182 159,-182 8,0 13,-3 17,-10 4,-6 4,-13 1,-21 -3,-7 -8,-14 -16,-19 -15,-8 -39,-30 -70,-68 -31,-37 -47,-60 -47,-71 0,-32 35,-48 106,-48 11,0 27,3 47,9 45,13 66,7 65,-17 0,-5 -2,-12 -6,-19 -6,-13 -30,-16 -71,-8 -12,3 -26,4 -43,4 -28,0 -42,-8 -42,-23 0,-8 1,-13 3,-16 4,-16 22,-25 56,-25 24,0 36,-3 36,-7 0,0 -3,-3 -10,-8 -19,-13 -56,-20 -110,-20 -25,0 -43,0 -51,0 -9,0 -18,-1 -28,-3 -10,-3 -16,-7 -18,-12 -2,-5 -5,-13 -9,-25 -9,-33 -14,-96 -14,-188 0,-75 4,-114 12,-114 7,0 13,-12 17,-37 4,-45 22,-67 56,-67 15,0 34,5 56,13 24,8 44,12 62,12 17,0 26,-5 26,-16 0,-6 -1,-11 -3,-13 -4,-11 -20,-18 -48,-23 -46,-13 -69,-32 -69,-56 0,-16 11,-36 33,-62 28,-35 54,-52 80,-52 25,0 38,-7 38,-19 0,-24 28,-52 84,-84 56,-32 115,-52 177,-62z"/>
  <path fill="black" fill-rule="nonzero" d="M15165 23284c0,-10 -5,-15 -14,-15 -39,0 -87,42 -142,127 -31,44 -46,78 -46,102 0,7 3,11 8,11 6,0 11,-1 15,-4 4,-3 9,-4 17,-4 10,0 16,7 16,20 0,20 -8,45 -24,75 -22,47 -40,120 -50,217 -6,66 -9,140 -9,223 0,142 7,232 22,269 31,89 70,167 118,236 48,68 95,112 140,130 24,10 57,15 96,15 43,0 76,-8 100,-23 22,-15 49,-48 82,-98 33,-51 53,-89 61,-115 7,-26 15,-39 24,-39 7,0 11,-17 11,-52 0,-31 11,-67 32,-110 22,-42 27,-75 18,-98 -6,-10 -13,-56 -22,-138 -2,-16 -3,-37 -3,-64 0,-33 8,-65 24,-94l28 -56 -25 -24c-19,-15 -27,-41 -27,-79 0,-31 -14,-64 -40,-102 -26,-35 -39,-66 -39,-95 0,-27 -13,-58 -40,-93 -26,-35 -55,-62 -87,-79 -30,-19 -73,-29 -132,-29 -20,0 -49,3 -88,8l-40 5c9,-6 14,-16 14,-29zm-296 91c0,-15 -4,-30 -13,-45 -8,-14 -13,-32 -13,-52 0,-28 10,-43 31,-43 18,0 41,-6 67,-17 20,-13 65,-19 136,-19 64,0 103,-7 118,-20 7,-7 36,-11 84,-11 59,0 119,6 182,19 53,13 90,19 112,19 15,0 27,5 34,16 6,9 33,28 80,56 47,32 79,70 96,114 20,47 32,71 36,71 6,0 17,24 35,71 18,48 33,74 46,79 15,5 23,15 23,29l0 24c0,53 -5,85 -15,98 -7,10 -11,23 -11,39 0,30 9,44 26,44 12,0 23,-11 33,-31 13,-30 27,-44 42,-44 15,0 20,29 14,87 -5,55 -22,101 -50,138 -21,28 -32,49 -32,60 0,18 22,28 65,31l49 8 3 240 0 106c0,113 -7,199 -20,260 -4,19 -8,41 -12,66 -4,25 -7,45 -10,58 -3,14 -4,24 -4,29 0,19 -13,45 -39,79 -26,32 -58,48 -97,48 -39,0 -58,12 -58,35 0,11 7,30 20,60 14,23 20,56 20,98 0,43 -13,78 -40,106 -23,32 -43,48 -59,48 -12,0 -29,-7 -51,-19 -22,-13 -32,-24 -32,-33 0,-11 -17,-22 -50,-35 -21,-8 -44,-12 -67,-12 -62,0 -95,17 -99,51 -2,14 1,23 10,27 8,3 29,5 63,5 38,0 60,2 69,6 9,4 17,16 24,37 10,30 12,57 3,83 -8,26 -39,58 -94,95 -54,37 -103,61 -146,74 -39,9 -65,24 -77,44 -7,13 -49,19 -126,19l-152 0c-129,-3 -209,-5 -241,-9 -32,-4 -62,-16 -92,-37 -52,-37 -79,-70 -79,-100 0,-5 2,-13 6,-23 2,-5 15,-8 39,-8 69,0 111,9 126,27 7,9 40,13 96,13 76,0 117,-5 123,-17 2,-11 14,-15 36,-15 19,0 47,-12 83,-36 36,-24 56,-43 60,-58 4,-18 18,-27 42,-27 15,0 39,-11 72,-33 32,-23 48,-39 48,-49 0,-8 11,-26 32,-56 72,-123 111,-188 117,-196 22,-30 39,-69 50,-119 17,-55 27,-83 33,-83 6,0 18,-26 37,-75 19,-50 28,-81 28,-94 0,-8 6,-17 20,-27 13,-5 20,-19 20,-41 0,-10 -1,-16 -3,-17 -2,-1 -5,1 -9,6 -5,12 -31,33 -76,62 -45,29 -67,47 -67,53 0,11 -9,16 -26,16 -18,0 -26,5 -26,15 0,11 -22,21 -67,31 -45,11 -92,16 -143,16l-42 0c-153,-13 -244,-36 -273,-70 -14,-19 -26,-29 -37,-29 -28,0 -70,-30 -126,-89 -56,-58 -84,-101 -84,-127 0,-16 16,-35 47,-56 17,-11 30,-15 42,-15 8,0 24,6 49,19 25,12 44,19 54,19 19,0 29,-14 29,-42 0,-37 -37,-56 -112,-56 -37,0 -56,-5 -56,-16 0,-7 18,-14 53,-19 39,-5 59,-17 59,-37 0,-7 -6,-15 -17,-23 -12,-7 -53,-14 -123,-19l-103 -12 5 -253c2,-168 11,-262 27,-283 13,-18 32,-27 56,-27 17,0 30,5 37,15 12,16 28,24 50,24 28,0 42,-9 42,-27 0,-13 -10,-26 -30,-37 -26,-16 -44,-28 -53,-39 -11,-15 -21,-23 -29,-23 -7,0 -11,-12 -11,-35 0,-24 14,-50 41,-79 27,-29 51,-43 73,-43 25,0 38,-11 38,-33z"/>
 </g>
</svg>
