<?xml version="1.0" encoding="UTF-8"?>
<!DOCTYPE svg PUBLIC "-//W3C//DTD SVG 1.1//EN" "http://www.w3.org/Graphics/SVG/1.1/DTD/svg11.dtd">
<!-- Creator: CorelDRAW 2017 -->
<svg xmlns="http://www.w3.org/2000/svg" xml:space="preserve" width="210mm" height="297mm" version="1.1" shape-rendering="geometricPrecision" text-rendering="geometricPrecision" image-rendering="optimizeQuality" fill-rule="evenodd" clip-rule="evenodd"
viewBox="0 0 21000 29700"
 xmlns:xlink="http://www.w3.org/1999/xlink">
 <g id="Layer_x0020_1">
  <metadata id="CorelCorpID_0Corel-Layer"/>
  <path fill="black" fill-rule="nonzero" d="M3436 2643c147,31 228,123 243,274l-1 721c7,77 39,120 95,130l-157 192c-54,-30 -89,-69 -108,-118l-30 -71 -124 152c-20,-6 -40,-19 -61,-37l-61 -74 -44 -81 -39 -104 -28 -111 -11 -215 5 -59c2,-41 8,-80 16,-119l28 -111c8,-32 21,-66 39,-104 12,-27 27,-54 44,-81l193 -185zm-83 185l-44 230 -11 266 11 126 28 111c12,26 27,53 44,81 15,26 31,51 49,75l50 -75 0 -688c-14,-63 -56,-105 -127,-126z"/>
  <path fill="black" fill-rule="nonzero" d="M2156 1996l221 1525 39 259 182 37c97,13 178,1 241,-39 -49,165 -186,255 -411,270l-236 -48 -142 -8 -104 22c32,-88 97,-160 196,-215l-8 -68 -47 -409 -94 111c-106,66 -189,39 -247,-80l-36 157 -47 267c63,18 129,50 200,95l-95 176c-87,-61 -196,-93 -328,-96l-129 15 94 -109c59,-52 115,-81 170,-87l66 -307 59 -283 58 -283 130 -539 59 -222 211 -141zm-203 202l-74 322 -116 579 128 -80c46,61 105,92 178,96l-116 -918z"/>
  <path fill="black" fill-rule="nonzero" d="M6033 2154l61 22 39 45 28 66 16 74 6 414 33 -15 176 155 39 44 65 150 36 133 21 138 -6 193 -28 155 -49 133 -61 104 -39 52 -44 37 -121 -133 -22 -30 -33 89 -33 52 -66 54 -165 -195 33 -8c15,-11 28,-26 39,-44l22 -67 0 -1265 -6 -89 -27 -59 -61 -15 149 -193zm265 792c-24,13 -48,31 -72,52 -16,23 -31,51 -44,81l0 711 66 37 76 -139 29 -143 11 -126 0 -148c-3,-84 -14,-163 -33,-237 -8,-30 -19,-59 -33,-89z"/>
  <path fill="black" fill-rule="nonzero" d="M4450 1921l116 116 69 45 81 24 186 -8 251 -6 283 143 74 83 65 126 29 94 11 121 -18 109 -33 83 -54 107 24 33 41 78 29 91 16 116c4,37 6,78 6,124l-22 105 -334 487c-57,-32 -125,-64 -205,-94l-179 -30 -96 0 -241 44 51 -63 112 -98 99 -70 1 -113 0 -1140 -28 -15 -80 -32 -64 -48c-18,-14 -37,-31 -56,-52l-61 -83 -45 -129 -28 -150zm802 309l-73 22c-19,11 -39,27 -58,46 -13,20 -23,46 -29,78l0 363 3 90 186 0 58 -118 19 -107 -14 -145 -22 -90c-7,-25 -17,-51 -30,-78 -9,-23 -23,-44 -40,-61zm-160 785l0 622 81 11 86 30 120 70c27,-65 42,-130 45,-194l-5 -76 -8 -75 -28 -102 -72 -140 -59 -76 -68 -48c-27,-11 -58,-18 -92,-22z"/>
  <path fill="black" fill-rule="nonzero" d="M9068 2310c35,3 72,13 110,30l83 67c20,30 39,64 55,104 9,36 17,75 22,118l-190 8c-37,-110 -93,-162 -168,-155l-51 100 -37 141 -7 153c5,97 20,173 46,227 12,35 29,72 50,111l66 81c26,25 55,44 88,59 32,13 69,21 110,22l61 -8 -176 215 -33 30 -61 -22c-26,-10 -55,-27 -88,-52l-77 -74 -61 -97 -39 -118 -27 -148 0 -133 5 -29c5,-45 12,-94 22,-148l33 -133 49 -111c16,-29 36,-61 61,-96 16,-27 39,-54 66,-81l88 -59z"/>
  <path fill="black" fill-rule="nonzero" d="M7793 2130c51,4 104,18 160,43l119 96c30,44 56,93 80,150 14,52 24,109 32,172l-274 9c-54,-158 -135,-232 -242,-224l-73 145 -56 203 -9 224c7,141 28,250 66,328 17,49 40,103 72,161l95 116c37,37 79,66 127,87 47,18 100,29 160,32l87 -11 -254 310 -48 44 -88 -35c-37,-13 -79,-38 -127,-74l-112 -104 -88 -141 -55 -172 -40 -213 0 -193 8 -42c7,-64 17,-136 32,-215l47 -193 72 -160c23,-44 53,-90 88,-139 24,-39 56,-78 96,-119l127 -85z"/>
  <path fill="black" fill-rule="nonzero" d="M12159 2293c57,26 95,66 114,122 13,39 19,79 19,123l0 1330c0,59 22,100 66,122l18 4 0 6 -149 181c-48,-21 -84,-56 -106,-105l-21 -57 -149 163c-90,-66 -158,-180 -202,-340 -17,-87 -27,-161 -28,-224 0,-181 36,-347 109,-500 44,-66 92,-116 143,-152 30,-22 55,-47 76,-74 8,0 20,9 39,26l6 0 0 -315c0,-56 -22,-95 -66,-120l-18 -2 0 -8 149 -179zm-190 800c-42,128 -64,290 -64,486 0,89 18,177 55,265 29,58 55,99 79,122 34,-21 51,-51 51,-90l0 -641c0,-61 -37,-108 -112,-142l-3 -4 -7 4z"/>
  <path fill="black" fill-rule="nonzero" d="M10183 1982l142 87 164 44 379 15 153 72 119 104 88 147 65 174 30 342 -18 387 -55 191 -87 159 -239 320 -251 -78 -240 -24 -103 9 -91 35 61 -59 102 -100c39,-26 74,-61 107,-104 10,-68 18,-145 22,-233l-42 -481 20 -233 54 -191c24,-51 53,-104 87,-159 -213,-54 -346,-137 -399,-250 -27,-53 -49,-111 -68,-174zm587 424c-29,51 -51,109 -64,176l0 202 11 183 33 462 -11 100c-21,53 -47,107 -77,161l153 29 142 73c60,-41 103,-148 129,-322l12 -383 -30 -292 -69 -198 -87 -133c-40,-22 -88,-41 -142,-57z"/>
  <path fill="black" fill-rule="nonzero" d="M15358 2444l193 444 -342 348c4,18 9,35 17,52l49 96 61 66 83 52c31,8 66,13 104,15l56 -8 -213 244 -107 -44 -72 -59 -61 -74c-17,-25 -34,-57 -50,-97l-39 -104c-8,-38 -13,-83 -16,-133 -4,-34 -6,-74 -6,-118l6 -30c2,-39 8,-83 16,-133l28 -126 39 -104 83 -148 88 -90 83 -50zm-116 207l-36 72 -36 111 -9 139 7 100 19 78 165 -181 -110 -318z"/>
  <path fill="black" fill-rule="nonzero" d="M13758 2144l98 0 22 7 299 45 37 0c32,-4 66,-14 103,-30l28 -15 -28 80 -64 75 -81 57 -98 37 -120 8c-30,-11 -65,-18 -104,-22l-81 -15 -11 30c-8,42 -13,88 -16,139l0 109 6 22 0 30 22 299 65 -30c30,-16 62,-28 98,-37 114,-11 208,23 283,102l-88 165 -102 -57 -134 -30 -116 4 15 346 -15 179c-7,37 -18,76 -33,116l408 67 98 0 92 -22c-12,31 -30,62 -54,94l-72 65 -87 52 -109 22 -331 -52 -126 0 -92 30c14,-33 30,-66 49,-97 17,-29 32,-65 43,-107l11 -153 -44 -679 5 -154 33 -211c9,-36 22,-75 39,-118 8,-30 23,-64 43,-102l16 -37 -76 0c-32,4 -66,13 -104,30 23,-68 54,-119 92,-154 23,-18 50,-35 81,-50l98 -37z"/>
  <path fill="black" fill-rule="nonzero" d="M18580 1382l88 0 11 8c30,1 61,8 94,22l72 37c22,16 44,35 66,59 14,25 27,54 39,89l5 104 -5 22 -33 96 -22 30 -154 -155c46,-61 42,-123 -11,-185 -25,-12 -53,-22 -83,-30l-83 0 -16 8c-20,14 -40,33 -61,59 -12,28 -21,61 -27,96l5 133 22 111 11 126 0 454 149 -9 -105 200 -44 0 0 1169 -28 133 -55 67 -61 22 -11 -22 -138 -171 50 -8c15,-23 28,-51 39,-81l6 -111 0 -999 -72 -4 72 -196 0 -422 -11 -118c-7,-35 -13,-74 -16,-119l-6 -111 6 -23 33 -96 50 -74 66 -52 77 -37 82 -22z"/>
  <path fill="black" fill-rule="nonzero" d="M16953 1843l116 0 297 52 77 0 33 -8 83 -30c-12,30 -27,59 -44,89l-61 66 -77 52c-24,11 -53,21 -88,29 -31,9 -66,14 -104,15l-199 -44 -21 148 9 518 77 -52 83 -37 111 -8c78,12 144,52 198,118l-110 178 -22 -23 -77 -44c-27,-12 -56,-22 -88,-30l-111 -7 -55 7c3,18 5,37 6,59 17,216 19,359 5,430l-27 129c22,3 46,8 72,18l83 44 72 59 -94 163 -66 -30c-25,-15 -55,-27 -88,-37 -28,-10 -59,-18 -94,-23l-94 0 0 8 -17 0 -94 22 33 -59 60 -74c33,-26 46,-58 39,-96l-39 -858 24 -241 46 -155 64 -145 -56 0 -136 30 54 -96 99 -95 122 -46z"/>
  <path fill="black" fill-rule="nonzero" d="M3253 5756c24,6 48,16 72,30l55 37 50 52 39 67c8,26 16,56 22,89l11 807 28 193 0 118c-6,27 -13,57 -22,89l-33 74 -104 96 -66 30 -77 15 -83 0 -149 -37 -61 -37c-15,-15 -32,-32 -50,-52l-32 -66 -12 -111 22 -89 33 -66 154 141 -11 74c-8,42 -4,74 11,96l55 44 77 15 72 -15c17,-12 36,-27 55,-44l27 -74 6 -81 -6 -22c-2,-33 -5,-68 -11,-104l-22 -141 -171 185 -61 -30 -55 -44 -44 -67 -22 -81 -11 -104 0 -356 27 -231 83 -205 204 -193zm-77 248l-39 156 0 614c3,57 19,99 48,128l112 -116 0 -648 -5 -22c-12,-26 -27,-51 -44,-74 -22,-15 -46,-27 -72,-37z"/>
  <path fill="black" fill-rule="nonzero" d="M1828 5817l94 95 112 78 142 80 192 54 -68 70 -114 48 -159 -9 -171 -69 -136 -112 -59 133 -59 210 -24 254c63,418 202,652 418,703 0,-170 24,-325 73,-462 -48,0 -95,-8 -141,-24 -47,-16 -104,-9 -172,22 27,-157 116,-226 269,-207 152,19 251,13 296,-20l-18 56c-64,89 -96,169 -98,241l0 196 32 339 -9 181 -52 128 -96 70 -73 28c29,-126 29,-239 0,-339l-120 148c-96,3 -212,-88 -349,-276 -137,-188 -192,-459 -164,-812 28,-354 179,-622 455,-803z"/>
  <path fill="black" fill-rule="nonzero" d="M6236 5860l72 37c17,21 34,46 49,75l22 104 0 592 182 -177 88 59 50 74c10,26 19,56 27,88l11 126 0 659c7,59 32,99 77,118l-132 163 -61 -20 -39 -46 -33 -89 -11 -785c3,-80 -9,-126 -34,-139l-124 118 -1 109 0 533c12,93 43,140 94,141l-149 181c-32,-16 -60,-35 -83,-56 -14,-21 -27,-45 -39,-74l-16 -111 0 -1332c-3,-99 -29,-153 -77,-163l127 -185z"/>
  <path fill="black" fill-rule="nonzero" d="M4453 5501l98 102 108 57 150 0 141 28c83,53 119,145 108,275l0 550 367 0 0 -500c-5,-102 -37,-157 -98,-164l163 -174c92,-8 160,66 207,224l-3 1373 87 81 -172 185 -76 -28 -87 -100 -21 -187 0 -566 -362 0 -4 609 -32 159 168 28 154 72 -161 176 -76 -46 -129 -42 -141 -15 -290 30c26,-28 91,-76 195,-144 22,-42 36,-102 42,-178l0 -1342 -42 -13c-32,-15 -68,-35 -108,-59l-87 -87 -63 -129 -35 -174z"/>
  <path fill="black" fill-rule="nonzero" d="M8885 5907c18,70 75,115 171,133 -51,94 -102,147 -152,159 -36,0 -68,-11 -96,-33 -22,-27 -42,-61 -61,-104l138 -155zm-6 348l58 22 52 59 28 81 11 96 0 673c0,102 32,158 94,171l-144 185c-73,-11 -121,-88 -144,-229l-5 -704c-3,-108 -31,-169 -83,-181l132 -174z"/>
  <path fill="black" fill-rule="nonzero" d="M7900 5755l71 39 157 40 233 11 214 -28 -77 61 -132 75 -53 35 -12 113 0 1225 -16 80 171 32 136 65 -147 152 -156 -57 -171 -32 -179 0 -17 6 -94 6 -59 15 76 -63 111 -69 77 -33 9 -119 -7 -1119 7 -105c7,-25 12,-51 16,-80l-167 -32 -146 -69 157 -148z"/>
  <path fill="black" fill-rule="nonzero" d="M11846 5781l157 178 -39 7c-17,23 -34,51 -49,81l-6 67 -6 1392 -6 22c-6,36 -19,70 -39,104l-66 59c-27,-10 -51,-30 -72,-59l-99 -118 51 -19 32 -50 6 -168 0 -1207 11 -159 54 -92 70 -37zm-3 -337c18,70 75,115 171,133 -51,94 -102,147 -152,159 -36,0 -68,-11 -96,-33 -22,-27 -42,-61 -61,-104l138 -155z"/>
  <path fill="black" fill-rule="nonzero" d="M10635 5546l106 0 88 21c26,7 58,12 94,15l189 15c26,-9 54,-21 84,-37 7,35 9,72 9,113l0 1077 -3 61 8 78 28 105c16,76 11,154 -16,233l-39 68c-72,80 -181,122 -328,126l-99 9c-26,-4 -58,-9 -95,-16 -27,-3 -56,-9 -84,-21 -24,-6 -51,-15 -82,-28l-69 -50c-16,-20 -32,-42 -47,-68l-11 -54 0 -57 33 -100 31 -50 207 153 -23 59 4 61c19,27 41,49 65,63 24,11 51,18 83,22l84 0 96 -37 44 -59 14 -65 -1 -56c-2,-38 -12,-92 -31,-161l-11 -64 -10 -1107 -80 4 -182 -37c-28,0 -57,-4 -90,-13l-142 0 -51 13 -48 24 9 -44 54 -78 98 -74 116 -45z"/>
  <path fill="black" fill-rule="nonzero" d="M14791 5642c94,20 144,104 149,251l0 770 165 -193c7,-15 12,-32 16,-52l-5 -59c-17,-26 -37,-49 -61,-67l66 -207c6,-15 11,-32 16,-52l39 30 60 66c15,26 28,56 39,89l6 81 -11 52 -39 88 -55 81c45,23 80,80 104,169l0 557c8,32 18,64 33,96l56 44 -138 171 -55 -15c-21,-20 -41,-45 -61,-75 -11,-33 -20,-70 -28,-111l4 -552c-16,-60 -42,-86 -76,-78l-77 89 0 400c4,36 12,73 22,111 20,18 42,35 66,52l-138 177c-16,-1 -32,-6 -49,-15 -20,-16 -40,-36 -61,-59 -14,-32 -25,-69 -33,-111l-5 -1429 -6 -22c-11,-30 -28,-57 -49,-81l-39 -15 143 -185z"/>
  <path fill="black" fill-rule="nonzero" d="M13317 5698c33,6 68,18 104,37 23,20 47,47 71,80l27 141 0 557 175 -235 50 -102c21,-45 25,-99 11,-161 -9,-40 -21,-77 -36,-113l216 -189 40 91 19 80 6 72 0 20 5 0c-2,18 -4,38 -5,61 -7,39 -17,83 -33,131 -11,32 -27,66 -48,102l-186 272c23,16 51,30 83,42 26,16 52,39 80,66 23,24 43,53 61,89 15,33 27,75 39,126l6 448 5 15 11 20c18,28 44,50 77,65l37 0 -212 192c-31,-9 -63,-25 -98,-46 -25,-20 -47,-49 -66,-89 -11,-35 -20,-79 -27,-129l5 -337c-2,-49 -8,-100 -18,-153 -12,-35 -30,-67 -54,-96 -17,-11 -38,-21 -61,-28l-81 116 0 461 6 16 6 28c20,27 45,49 76,65l40 0 -215 192c-28,-11 -58,-27 -93,-46 -24,-18 -45,-48 -64,-89 -14,-39 -23,-84 -28,-135l0 -1337 -9 -32c-15,-32 -37,-58 -65,-80l-51 -5 196 -185z"/>
  <path fill="black" fill-rule="nonzero" d="M17884 5565c27,6 54,21 83,44 16,25 33,54 49,89 7,40 10,87 11,140l3 1353c5,61 37,95 96,105l-149 185c-29,-5 -59,-20 -88,-44 -16,-26 -31,-56 -44,-89 -7,-39 -13,-83 -16,-133l0 -1362c-9,-33 -26,-63 -49,-89l-44 -15 149 -185z"/>
  <path fill="black" fill-rule="nonzero" d="M16676 5494l144 67 88 16c27,5 56,8 89,8l101 0 138 -32 -77 76 -134 81 -150 37 -16 83 -4 166 39 491c24,347 12,570 -34,671l89 -8 262 45c25,5 55,7 88,7l79 0 88 -37c-6,43 -28,87 -68,131l-61 52 -72 39 -79 23 -94 9 -256 -46c-27,-5 -56,-8 -90,-8l-94 8 -72 22c11,-28 24,-56 39,-81l44 -68 17 -102 4 -128 -42 -716 5 -128 33 -209 82 -232 -110 -30 -106 -59 128 -150z"/>
  <path fill="black" fill-rule="nonzero" d="M3614 10433c31,9 58,26 80,52 26,31 45,68 58,111l176 -163c27,-8 68,20 121,81 18,28 35,63 49,104l182 -185c38,10 76,37 116,81 20,27 39,62 55,104 9,44 15,94 16,148l0 659 6 22c10,59 33,97 69,114l-136 167c-16,-4 -32,-11 -49,-22 -24,-21 -44,-51 -61,-89 -12,-38 -21,-83 -28,-133l1 -759c-12,-36 -23,-58 -34,-66l-116 126 -6 70 0 511 3 100c10,42 35,75 74,100 -16,25 -39,52 -66,81 -18,28 -42,56 -72,81 -29,-11 -54,-28 -74,-52 -24,-33 -41,-73 -52,-119l3 -836 -64 -63 -105 107 0 681c4,47 29,85 75,114l-136 167c-16,-4 -32,-11 -49,-22 -24,-18 -44,-45 -61,-81 -14,-41 -23,-88 -28,-141l0 -681c0,-69 -7,-116 -22,-141l-61 -66 66 -81c22,-23 44,-51 66,-81z"/>
  <path fill="black" fill-rule="nonzero" d="M1643 9550c46,12 85,38 117,78 37,43 65,97 84,161l258 -239c40,-10 99,30 176,120 27,42 50,92 72,150l266 -270c56,13 112,54 169,120 29,40 55,90 79,150 15,66 24,138 26,217l0 961 7 33c15,86 48,141 101,166l-197 243c-23,-8 -47,-19 -72,-35 -36,-30 -65,-73 -88,-129 -17,-54 -31,-117 -41,-191l1 -1107c-16,-52 -33,-83 -49,-96l-168 181 -8 104 0 746 4 144c15,62 50,111 107,147 -23,35 -55,73 -95,115 -27,42 -63,82 -105,122 -43,-17 -80,-43 -110,-78 -34,-48 -59,-105 -74,-171l4 -1219 -93 -91 -153 155 0 994c5,66 40,122 108,166l-196 243c-24,-8 -48,-19 -73,-35 -35,-26 -64,-65 -88,-118 -20,-58 -34,-125 -41,-202l0 -994c0,-101 -10,-169 -29,-205l-91 -96 96 -119c32,-35 64,-75 96,-120z"/>
  <path fill="black" fill-rule="nonzero" d="M7037 10067l64 26 47 56 27 81 3 24 179 -187 61 37 49 44 47 78 22 89 8 759c6,23 16,48 27,74 17,13 38,22 61,30l-149 185 -44 -15c-16,-14 -32,-31 -50,-52l-33 -75 -16 -88 -1 -762c-17,-49 -37,-72 -59,-67l-94 97 0 681c8,22 19,44 33,66l50 37 -149 177 -44 -22c-16,-14 -32,-31 -49,-52l-28 -74 -11 -97 0 -689c-1,-30 -5,-63 -11,-96 -7,-23 -18,-45 -33,-66 -15,-8 -27,-20 -39,-37l132 -163z"/>
  <path fill="black" fill-rule="nonzero" d="M5458 9448l92 37 69 81 41 121 4 35 262 -274 88 54 73 64 69 113 30 131 12 1110c9,35 23,71 41,109 26,17 55,31 88,40l-218 272 -64 -24c-23,-18 -48,-44 -73,-76l-48 -105 -24 -131 -1 -1116c-27,-71 -56,-104 -88,-96l-136 140 0 998c13,32 29,64 48,98l73 54 -218 259 -64 -35c-23,-20 -47,-44 -73,-74l-41 -107 -15 -140 0 -1007c-1,-46 -6,-93 -15,-141 -10,-35 -26,-67 -48,-98 -22,-10 -41,-28 -58,-54l193 -239z"/>
  <path fill="black" fill-rule="nonzero" d="M10164 10129l77 45 86 70 85 129 33 104 22 178 0 74 -29 171 -48 155 -88 171 -116 133 -72 44 -88 22c-25,-10 -50,-25 -77,-44l-66 -52 -61 -67 -44 -81 -33 -104 -22 -111 0 -140 44 -230 33 -96 88 -170 116 -126 72 -52 88 -22zm-166 207l-55 111c-13,39 -24,83 -33,133 -10,48 -16,100 -16,155 0,47 6,99 16,155l39 126 61 97c23,25 50,47 83,66 29,19 62,31 99,37l55 -111c14,-38 24,-83 33,-133 10,-48 16,-100 16,-155 -2,-49 -7,-101 -16,-155l-39 -126 -61 -97 -77 -66c-31,-16 -66,-28 -105,-37z"/>
  <path fill="black" fill-rule="nonzero" d="M8935 10008l112 65 125 104 124 187 48 150 32 260 0 107 -43 248 -71 226 -127 248 -169 191 -104 64 -128 35c-37,-16 -74,-39 -112,-66l-98 -76 -87 -94 -64 -119 -48 -150 -32 -163 0 -203 65 -335 48 -139 127 -248 169 -184 104 -76 128 -32zm-240 302l-81 161c-18,56 -34,120 -47,195 -16,69 -24,144 -25,226 0,68 8,143 25,226l56 183 88 139c32,37 72,70 119,98 43,27 91,45 144,54l81 -161c19,-55 35,-120 47,-194 16,-69 24,-145 24,-226 -3,-73 -12,-148 -24,-226l-56 -183 -88 -139 -110 -98c-46,-23 -97,-41 -153,-54z"/>
  <path fill="black" fill-rule="nonzero" d="M12611 9722c18,4 39,11 61,22l44 44 39 89 184 -155 92 32 64 54 48 81 19 100 -6 870 -22 85 -33 59 -55 30 -61 -8 -50 -29 -176 -75 0 437 28 66 49 30 -132 203 -61 -40 -44 -44 -22 -67 -17 -81 0 -1318 -5 -88c-4,-23 -11,-47 -22,-75 -12,-13 -27,-26 -44,-37 -7,-1 -12,-6 -16,-15l22 -22 116 -148zm259 172l-94 87c-10,36 -16,78 -17,126l0 618 182 92 22 -40 6 -85 0 -644c-17,-97 -51,-148 -99,-154z"/>
  <path fill="black" fill-rule="nonzero" d="M11130 9628c48,21 106,40 174,57 56,18 120,28 193,30l411 30c113,25 203,97 270,216 69,111 98,266 87,465 -38,215 -124,359 -259,435l-170 -87 -176 -15 0 625 -9 80 -13 50 120 13 161 74 -129 189 -97 -44 -233 -39 -144 -6 -119 15 -55 15 22 -30 130 -100c78,-43 114,-92 107,-146l0 -1303 43 -292c-81,-18 -149,-47 -204,-87 -44,-30 -80,-78 -109,-145zm529 276l0 711c148,-49 271,-49 368,0l21 -131c2,-168 -20,-293 -64,-376 -24,-61 -64,-114 -119,-161 -63,-26 -131,-40 -206,-42z"/>
  <path fill="black" fill-rule="nonzero" d="M15511 9747l174 159 28 -59 39 -59 64 -48 157 189 -50 22 -33 66 -6 89 0 1229c2,25 8,52 16,81 9,20 20,40 33,59l33 30 -144 170 -33 -15 -49 -45 -33 -59 -16 -74 -6 -548c-8,4 -17,11 -27,22l-138 119c-17,-3 -36,-8 -55,-15l-56 -30 -44 -45c-13,-15 -26,-32 -39,-52l-33 -59 -16 -81 0 -718 11 -89 22 -74 58 -87 74 -46 69 -33zm80 189c-65,-3 -104,49 -116,155l0 622c8,95 41,152 99,170l110 -100 0 -759 -94 -89z"/>
  <path fill="black" fill-rule="nonzero" d="M14512 9603l114 65 124 105 125 187 50 154 32 259 0 109 -43 250 -70 228 -129 248 -170 195 -106 63 -128 35c-37,-16 -75,-39 -114,-66l-96 -76 -88 -92 -64 -120 -50 -154 -32 -162 0 -206 65 -337 48 -140 130 -248 169 -185 106 -78 128 -32zm-243 306l-81 159c-18,57 -34,123 -47,196 -16,70 -24,147 -25,229 0,68 8,144 25,228l55 183 89 142c33,36 74,69 121,99 43,26 92,43 146,52l81 -159c19,-57 35,-123 47,-198 16,-69 24,-145 25,-227 -3,-72 -11,-148 -25,-228l-55 -183 -89 -142 -113 -98c-46,-23 -97,-40 -154,-52zm593 1256l50 94 23 100 8 71 0 31 -6 33 -4 13 -27 -54 -44 -61 -69 -61 -287 -213 -69 -78 -55 -105 -20 -98 -7 -61 0 -32c2,-15 4,-26 6,-33l4 -13 8 25 16 22c6,13 12,23 18,30l19 29 77 76 287 207 70 78z"/>
  <path fill="black" fill-rule="nonzero" d="M18496 10634c126,20 192,116 199,289l-171 22c-18,-62 -45,-94 -81,-98l-114 116 -3 679c13,63 41,105 86,126l-132 194c-36,-11 -66,-37 -91,-78 -16,-31 -29,-65 -39,-104 -6,-43 -10,-92 -11,-148l0 -637c-4,-85 -31,-145 -83,-177l138 -171c61,13 105,69 132,171l171 -185z"/>
  <path fill="black" fill-rule="nonzero" d="M16835 9626c59,30 126,52 201,67 68,17 143,27 224,27l239 17c148,32 256,104 326,215 55,85 82,212 80,379 -9,124 -53,236 -131,339l-49 56 91 67c50,53 80,126 90,219l-1 333c11,66 45,117 103,153l-190 183c-111,-47 -166,-171 -164,-372l0 -259 -10 -54c-19,-75 -60,-129 -121,-163 -55,-23 -119,-37 -191,-40l0 502 -21 94c72,21 127,61 163,121l-112 120c-56,-44 -127,-70 -212,-78 -67,1 -141,11 -220,28 34,-61 87,-113 158,-157l1 -46 0 -1206c3,-90 17,-181 41,-270 -55,-23 -109,-56 -160,-95 -52,-40 -96,-99 -133,-177zm506 257l-11 123 0 625 134 -9 160 33c59,-66 82,-161 70,-283 -8,-84 -25,-170 -51,-257 -22,-64 -59,-123 -110,-176 -56,-30 -120,-48 -192,-56z"/>
  <path fill="black" fill-rule="nonzero" d="M3449 13865l77 8c22,6 44,16 66,30l50 44 39 52 33 67c8,23 14,48 16,74l-143 141 -37 -113 -57 -72 -60 -30c-18,5 -34,17 -50,37 -8,26 -13,56 -16,89 4,22 11,47 22,74 10,21 23,41 39,59 15,16 31,31 49,44 18,11 39,21 61,30l50 37c17,11 36,26 55,44l44 44 33 67 22 81 6 104 -17 81 -33 74 -74 92 -152 145 -115 -22 -79 -59 -39 -52 -33 -66 -16 -75 144 -133 27 59 33 74 39 52 60 30c18,-6 34,-18 50,-37 7,-27 12,-57 16,-89 -5,-23 -12,-48 -22,-74 -13,-37 -40,-74 -83,-111l-60 -30c-17,-8 -35,-17 -56,-30l-99 -88 -33 -67 -22 -81 -5 -104 16 -81 27 -74 226 -244z"/>
  <path fill="black" fill-rule="nonzero" d="M2112 13853l112 11c32,9 63,23 95,43l72 63 56 76 48 99c12,33 20,69 25,107l-208 205 -55 -165 -81 -105 -88 -42c-25,7 -48,25 -72,52 -11,38 -19,81 -24,129 5,33 15,69 30,107 16,31 35,60 57,87 22,24 46,45 72,65 27,16 57,30 89,42l72 56c25,15 52,36 79,63l66 64 47 97 32 118 8 150 -24 118 -48 109 -108 133 -221 209 -167 -33 -114 -87 -57 -73 -47 -98 -25 -107 209 -195 39 87 48 107 56 76 88 43c24,-10 48,-28 72,-54 9,-40 17,-83 24,-130 -7,-34 -16,-70 -31,-107 -20,-53 -61,-107 -121,-161l-88 -43c-23,-11 -49,-25 -80,-42l-145 -129 -47 -96 -32 -119 -8 -152 24 -117 40 -109 329 -353z"/>
  <path fill="black" fill-rule="nonzero" d="M6292 13522c66,28 108,89 124,182l11 289 4 31 123 -1 -37 188 -87 4c-1,44 -2,93 -2,148l0 814 11 30c17,33 41,55 72,66l-49 81 -66 81 -27 22c-22,-6 -44,-16 -66,-30 -21,-25 -40,-57 -55,-96 -8,-44 -14,-93 -16,-148l0 -970 -99 0 3 -189 96 -3c-1,-120 -8,-204 -22,-252 -19,-30 -40,-52 -61,-66l146 -182z"/>
  <path fill="black" fill-rule="nonzero" d="M4772 13582l110 0c28,4 60,11 94,22l94 15c29,8 62,13 101,15l204 15c27,-4 59,-11 94,-22l65 -35 -4 28c-12,30 -27,59 -44,89 -16,22 -34,44 -55,66l-66 61 -79 43 -81 31c-23,14 -41,39 -55,74l-44 228 -6 971 0 52 -29 139 56 7 84 30 99 59 -138 150 -29 -24 -171 -59 -215 -8 -143 22 104 -89 73 -44c21,-20 33,-50 37,-91l7 -136 -7 -718 18 -120 32 -104c11,-29 24,-61 39,-96l95 -163 65 -59 -181 -37c-28,-8 -62,-13 -99,-15l-144 -23 -160 8c-25,9 -51,21 -77,39l-22 7 6 -24 22 -59 51 -74 131 -111 171 -59z"/>
  <path fill="black" fill-rule="nonzero" d="M8976 13858l66 30c14,16 28,35 44,59 8,25 18,54 29,87l4 91 0 689c3,30 8,60 16,88l36 33 108 -119 -1 -681c-14,-57 -43,-95 -87,-111l149 -167c19,9 40,21 60,37 16,16 31,35 44,59l22 81 6 785 16 89c12,20 27,39 44,59l33 7 -135 172c-38,-10 -66,-23 -86,-39l-39 -66 -22 -81 -138 148 -41 43c-51,-14 -92,-45 -124,-95l-39 -74 -16 -81 3 -766c-8,-45 -35,-83 -80,-114l127 -163z"/>
  <path fill="black" fill-rule="nonzero" d="M7608 13743c73,6 131,47 172,124 17,36 27,81 29,137l0 692 -11 153c-5,43 -12,92 -22,145l-24 138c-19,136 -8,231 33,285 55,68 116,101 185,99l56 0c18,-3 37,-8 56,-17 32,-9 62,-27 93,-50 17,-28 32,-64 45,-109l6 -116 -22 -176 -21 -172 -14 -796c-12,-87 -56,-136 -132,-146l211 -191c112,6 176,75 190,207l6 822 46 322c8,128 -7,224 -44,287l-50 96 -84 85c-72,45 -149,71 -232,78l-186 0 -131 -41c-29,-12 -59,-30 -93,-53l-73 -69c-22,-23 -43,-54 -64,-90 -14,-35 -26,-76 -39,-123 -12,-59 -15,-128 -9,-205l41 -313 2 -81 -1 -629c-24,-57 -59,-88 -103,-93l182 -200z"/>
  <path fill="black" fill-rule="nonzero" d="M11802 14017l162 181c-36,11 -62,30 -77,56l-14 52 0 636c2,26 8,53 16,81l33 59 56 30 56 -46 -1 -87 0 -637 16 -185c7,-23 16,-48 28,-74l44 -44c17,-9 38,-14 61,-15l144 178 -33 7c-16,11 -31,26 -44,45l-16 81 0 677 -309 285c-20,-1 -40,-6 -60,-15l-56 -30 -44 -45 -39 -52 -28 -66c-8,-27 -13,-57 -16,-89l-6 -733 11 -89 22 -74 39 -59 56 -30z"/>
  <path fill="black" fill-rule="nonzero" d="M10326 13640l234 178 -86 55 -30 83 1 1125 40 270 34 107 36 54 56 -146c30,-109 47,-208 53,-300l-1 -1081 5 -139 35 -114 69 -71 81 -22 223 193c-50,1 -86,19 -109,54 -16,30 -24,71 -24,124l0 809 -11 155 -29 122 -85 209 -120 161 -127 83 -33 0 -110 -61 -69 -70 -109 -174 -76 -224 -16 -139 0 -979c3,-42 11,-85 24,-131 32,-70 80,-114 144,-131z"/>
  <path fill="black" fill-rule="nonzero" d="M15078 14047c27,9 54,26 83,52 20,27 37,62 49,104 7,44 10,93 11,148l0 651c-7,51 6,91 39,122l117 -118 -1 -63 0 -562 -11 -75c-16,-33 -40,-56 -72,-66 13,-25 28,-49 44,-74l94 -119 50 22c21,20 41,45 60,75 14,35 25,78 33,126l0 770 6 48 33 37 121 -126 0 -618c-4,-39 -15,-78 -33,-119l-44 -59 132 -148c27,5 55,20 83,44 16,28 31,61 44,97 8,43 14,92 17,148l0 599 -359 385c-25,-3 -51,-10 -77,-23 -24,-17 -48,-42 -72,-74l-49 -74 -166 185 -44 -22c-24,-15 -50,-37 -77,-67 -18,-26 -34,-57 -50,-96 -9,-39 -15,-83 -16,-133l0 -651c-5,-40 -17,-76 -39,-111l-55 -30 149 -185z"/>
  <path fill="black" fill-rule="nonzero" d="M13205 13673c40,12 80,37 123,76 29,40 53,92 72,153 10,63 16,136 18,219l0 958c-10,76 9,136 56,181l173 -176 -1 -92 0 -829 -18 -109c-23,-48 -58,-80 -105,-96 19,-37 41,-74 66,-111l138 -174 72 32c31,30 62,66 91,111 19,53 35,115 48,185l0 1134 8 71 48 55 179 -186 0 -911c-6,-57 -22,-114 -50,-174l-64 -87 194 -219c41,8 82,29 122,65 25,42 47,90 66,143 12,63 20,135 24,218l0 883 -528 566c-37,-4 -74,-14 -113,-32 -36,-26 -71,-63 -106,-111l-73 -107 -246 274 -65 -35c-35,-21 -72,-54 -113,-99 -25,-38 -50,-85 -73,-140 -13,-56 -21,-121 -25,-195l0 -962c-6,-58 -24,-112 -55,-163l-83 -43 219 -274z"/>
  <path fill="black" fill-rule="nonzero" d="M18274 13879l44 -2 41 16 61 67 182 318c14,21 29,45 46,71l70 -211 39 -107 50 -81 55 -48c26,-13 55,-20 88,-22 31,1 62,25 94,70l22 63 -138 104c-19,-36 -41,-56 -66,-59 -22,-1 -44,16 -66,52l-110 316 33 54 182 325 55 67 50 22 33 -15 -21 277 -70 11 -58 -15 -61 -59 -55 -75 -133 -244 -51 -85 -109 292c-12,26 -26,53 -44,81 -16,22 -35,44 -55,66 -26,17 -56,27 -88,30 -31,-11 -60,-32 -86,-63l-36 -63 132 -111c20,33 41,53 66,59 33,4 57,-11 72,-45l113 -309 -36 -68 -182 -318 -55 -74 -28 -15 -72 4 40 -268 51 -9z"/>
  <path fill="black" fill-rule="nonzero" d="M16764 13665l65 -2 62 24 88 100 269 466c19,31 41,66 66,105l104 -311 56 -159 74 -120 80 -71c38,-18 81,-29 129,-33 46,3 92,37 138,104l33 94 -203 150c-29,-52 -61,-81 -98,-87 -32,-1 -65,25 -98,78l-161 464 48 80 267 479 81 98 74 33 47 -20 -31 403 -103 23 -84 -26 -90 -87 -81 -107 -195 -359 -76 -126 -160 431c-18,37 -40,76 -65,119 -25,32 -52,64 -81,98 -39,25 -82,39 -129,42 -46,-16 -88,-47 -127,-92l-52 -93 194 -163c28,49 61,79 98,89 48,6 84,-15 106,-65l166 -455 -52 -102 -268 -469 -81 -109 -41 -23 -105 6 59 -394 74 -15z"/>
  <path fill="black" fill-rule="nonzero" d="M8616 17733c27,8 54,26 83,52 16,28 31,60 44,96 8,42 14,89 16,141l6 733 11 22 33 15 111 -104 0 -629c6,-59 -3,-105 -28,-138l-49 -24 61 -81c20,-21 40,-46 60,-75 72,11 118,51 138,119 6,43 9,92 11,148l0 778 22 133c7,38 13,83 16,133 -3,38 -10,83 -22,133l-44 78 -72 78c-21,16 -49,31 -83,44l-104 22 -66 0 -44 -8c-29,-4 -61,-15 -94,-29 -26,-10 -58,-33 -96,-71l-47 -56c-18,-39 -24,-83 -16,-133 8,-38 18,-78 33,-118l17 -44 160 152 -16 78 6 66c18,35 48,57 88,67l88 8c27,-10 54,-25 83,-45 24,-30 37,-61 39,-96l0 -89 -6 -59c-3,-40 -10,-84 -22,-133l-6 -59 -165 170 -11 15 -33 -8 -39 -30c-22,-22 -44,-47 -66,-74 -17,-30 -30,-64 -39,-104 -6,-42 -10,-89 -11,-141l0 -629c-8,-48 -23,-83 -44,-104l-49 -15 149 -185z"/>
  <path fill="black" fill-rule="nonzero" d="M7230 17315c32,11 66,32 102,63 20,35 38,76 54,120 10,52 17,109 21,172l7 906 14 28 41 17 135 -128 0 -777c8,-73 -3,-129 -33,-171l-62 -30 74 -102c25,-26 51,-56 76,-90 88,13 145,62 169,146 8,53 13,114 16,183l0 961 26 165c9,47 16,102 21,164 -4,47 -13,101 -27,163l-56 96 -87 97c-27,20 -61,37 -102,54l-129 30 -83 0 -55 -11c-35,-6 -73,-18 -114,-37 -32,-12 -72,-41 -119,-87l-57 -69c-23,-48 -30,-102 -22,-161 10,-48 24,-97 41,-148l21 -54 197 187 -22 94 7 81c23,44 60,71 110,83l108 9c33,-13 67,-31 102,-56 30,-37 46,-76 48,-119l0 -107 -7 -74c-4,-49 -13,-104 -26,-164l-8 -73 -204 211 -13 17 -42 -9 -47 -37c-27,-27 -54,-57 -81,-90 -21,-37 -37,-80 -48,-128 -8,-53 -12,-111 -13,-174l0 -777c-10,-59 -28,-102 -54,-128l-62 -20 184 -228z"/>
  <path fill="black" fill-rule="nonzero" d="M12989 18203l116 0 199 45 188 7 16 -7 16 0 72 -37 -5 30 -97 200 -184 311 55 0 -77 189 -141 0 -41 41 -193 215 -55 92 16 -11c27,-8 56,-21 88,-37l110 -8 309 52 111 0c26,-8 56,-20 88,-37 -5,29 -34,81 -88,155l-77 52c-27,12 -56,22 -88,30 -32,8 -69,13 -110,15l-204 -37c-29,-8 -62,-13 -99,-15l-116 0 -88 30c7,-35 18,-71 33,-111l94 -185 110 -163 53 -74 -64 0 72 -185 151 -2 32 -28 248 -289 28 -33 -144 56 -110 8 -199 -44 -171 -8 -132 30c14,-33 30,-66 49,-96l94 -104 138 -45z"/>
  <path fill="black" fill-rule="nonzero" d="M11401 17539l171 0 289 65 276 11 24 -11 25 0 105 -54 -8 44 -141 291 -270 457 80 0 -113 275 -207 2 -59 59 -284 313 -81 135 25 -15c39,-12 81,-31 128,-56l163 -9 454 76 161 0c39,-11 82,-29 130,-54 -8,43 -51,117 -130,224l-113 78c-39,18 -82,32 -129,42 -47,12 -101,20 -161,24l-299 -56c-42,-13 -91,-21 -146,-22l-170 0 -129 42c10,-51 26,-104 48,-161l138 -270 161 -239 76 -109 -91 0 105 -270 219 -4 47 -40 364 -424 40 -48 -209 83 -161 9 -291 -64 -251 -11 -194 43c20,-49 44,-95 72,-141l138 -152 203 -65z"/>
  <path fill="black" fill-rule="nonzero" d="M2292 21010c44,26 83,51 116,76l124 188 74 252c8,44 14,95 16,152l6 251 -26 239 -65 267 -43 117c-15,33 -32,69 -54,107l-176 255c-47,-10 -94,-35 -141,-74l-124 -189 -75 -251 -22 -296 0 -30 32 -309 65 -267 91 -231 201 -258zm-114 322l-33 80 -43 159 -26 195 -6 216 21 195 22 87c7,22 15,46 26,72l27 80 37 65 91 92c18,11 40,21 64,30l28 -72 59 -259 15 -202 -6 -217 -32 -181 -54 -152 -80 -122 -50 -43 -63 -22z"/>
  <path fill="black" fill-rule="nonzero" d="M5413 21061l80 0 255 365 33 100 21 217 -6 20c-1,39 -6,78 -15,114l-28 100 -59 116 -84 98 -134 95 -48 70 -32 87c-7,32 -12,70 -16,115l90 13 160 57 80 0 16 -8c21,-13 42,-30 64,-50l-21 107 -37 87c-15,23 -33,47 -54,70 -17,18 -37,36 -58,52 -47,40 -128,30 -245,-30l-86 -15c-28,1 -57,8 -86,22l-42 35 5 -43 26 -100c14,-25 26,-54 37,-87l-32 -92 -21 -107 -6 -128c2,-35 7,-73 15,-115 7,-32 20,-84 40,-155l68 -111 123 -107c20,-11 41,-28 63,-50l54 -63 37 -80 21 -115c3,-92 -14,-155 -53,-193 -42,-4 -83,32 -122,107l-33 93 -21 100 -5 42 -171 -257 28 -100 37 -93 43 -80 52 -64 65 -43z"/>
  <path fill="black" fill-rule="nonzero" d="M3774 21072l138 0 6 1567c11,61 41,93 89,99l-142 177c-94,-16 -142,-101 -144,-255l0 -1312c-10,-68 -40,-99 -89,-91l142 -185z"/>
  <path fill="black" fill-rule="nonzero" d="M7056 21053l95 0 69 35 47 56 79 148 39 128 14 169 0 128 -21 98 -75 148 35 87 29 167 -9 241 -16 98 -50 133 -61 93 -52 48c-20,15 -43,27 -68,35l-84 15 -75 -28 -52 -50 -47 -63 -37 -70 -32 -85c-8,-28 -12,-59 -15,-90l174 -206 32 141 36 78 43 63c51,-16 88,-89 111,-219l9 -76c6,-79 -17,-143 -67,-191l-142 -183c-11,-12 -18,-27 -21,-42l73 20 64 0 21 -13c19,-14 39,-30 58,-51 69,-162 56,-306 -37,-429l-58 -50 -84 -13c-25,1 -51,6 -79,13l-79 22 236 -304z"/>
  <path fill="black" fill-rule="nonzero" d="M8472 21018l141 80 71 174 44 203 6 122 -11 117c-3,35 -8,73 -17,116l-16 57 81 33 87 18 5 -22 0 -500c-10,-83 -40,-124 -92,-124l16 -30 123 -159 46 15 59 51 32 87 11 117 0 1320c8,70 35,114 81,131l-150 174c-64,-23 -103,-76 -114,-159l-11 -777 -42 72 -66 52 -150 -57 -55 0 -21 28 -98 -209 42 -74 39 -87 38 -217 -11 -246 -37 -211 -28 -95z"/>
  <path fill="black" fill-rule="nonzero" d="M10546 21063c52,-5 92,-1 120,11l160 48 83 -13 41 -42 -5 42 -25 96 -41 78c-14,20 -29,40 -47,61l-67 50 -41 6 -119 -33c-18,15 -35,35 -51,61l-11 111 0 325 41 8 164 -9c120,38 177,160 171,366l6 226 5 124c-1,36 -6,73 -15,111l-32 91 -51 56 -67 48 -77 20 -98 0 -77 -28 -62 -48c-16,-20 -32,-43 -47,-70 -8,-31 -15,-66 -21,-104 1,-75 20,-131 56,-166l130 126c-42,47 -46,104 -11,172 23,16 48,28 73,35l72 -8 15 -5c17,-16 33,-37 47,-63 9,-33 14,-70 15,-111l-4 -118 -11 -205c-5,-105 -34,-166 -88,-182 -24,-9 -51,-17 -81,-22l-94 0 -77 28 -36 22 0 -714c0,-34 3,-74 10,-118l26 -96 56 -115 66 -50z"/>
  <path fill="black" fill-rule="nonzero" d="M12896 21050l80 0 -122 137 -76 115 -58 122 -81 267 0 20 113 -179 59 15 91 87c13,16 25,35 37,57 11,17 22,39 32,65l27 64 32 165 5 100 -22 281 -15 85 -76 209 -69 123 -91 87 -48 35c-17,-3 -34,-10 -48,-22l-43 -43 -76 -107 -59 -130 -43 -152 -26 -172 -6 -100 22 -289 37 -157c5,-25 11,-52 21,-80 6,-21 13,-45 22,-73l80 -200 33 -65 117 -159 43 -42 107 -65zm-267 718l-11 274 5 28c2,40 7,86 16,137l27 122 91 194 63 73 44 35 10 -42c12,-37 21,-80 27,-129 9,-41 14,-87 15,-137l0 -122 -4 -28c-4,-37 -11,-80 -22,-129l-37 -107 -54 -87 -70 -64c-31,-9 -64,-14 -101,-15z"/>
  <path fill="black" fill-rule="nonzero" d="M16504 21042l75 0 47 28 37 42 64 107 43 135 10 48 -6 22 -153 361c1,18 7,34 16,51l37 42c10,13 21,30 32,50l32 56 41 128 11 85 -6 177 -32 148 -26 57 -164 248c-10,15 -22,29 -37,42l-69 8 -47 -28 -37 -42 -64 -107 -42 -135 -16 -70 164 -396 -16 -15 -37 -42 -64 -105 -41 -128 -11 -85 5 -177 11 -78 21 -71 26 -57 196 -298zm-42 275l-26 57 -11 78 5 85 16 70 21 57 32 57 37 35 26 15 58 -143 5 -22 -26 -120 -21 -63 -28 -50c-10,-15 -22,-29 -36,-42l-54 -15zm11 824l-52 120 -11 50 0 13 6 0 10 78 22 65c7,18 16,37 26,55 8,18 19,34 32,51l47 29c13,-7 25,-20 37,-37l16 -70 6 -56 0 -22 -6 0c-1,-27 -4,-52 -11,-78 -5,-22 -12,-44 -21,-64l-26 -56c-11,-15 -23,-29 -37,-42l-37 -35z"/>
  <path fill="black" fill-rule="nonzero" d="M14686 21033l89 0 227 57 168 0 64 -35 16 -15 0 28 -48 114 -41 71 -175 596 90 0 -58 193 -90 0 -164 553 -16 98c8,26 18,52 32,78l21 22 -151 109c-32,-28 -58,-53 -77,-74 -10,-26 -19,-54 -26,-85l-6 -28 6 -78 153 -511 26 -90 -49 2 -3 -191 106 2 21 -64 100 -346c8,-23 13,-50 16,-80l-311 -63 -84 0 -74 28 -26 22c2,-17 6,-34 11,-50 8,-27 19,-53 32,-78l47 -64 112 -93 64 -28z"/>
  <path fill="black" fill-rule="nonzero" d="M18450 21046l89 93 74 105 58 129 53 241 11 85 -11 298 -96 390 -116 257 -74 105 -89 85 -53 35 -59 22c-17,-1 -35,-6 -52,-15l84 -85 80 -105 95 -185 48 -143 21 -120 -16 28 -73 107c-10,16 -23,30 -37,42l-106 -64 -74 -105 -52 -135 -26 -171 -6 -100 26 -270 16 -85 47 -142 64 -121c10,-17 22,-33 37,-50 14,-15 30,-29 48,-42l90 -85zm-159 285l-32 121c-7,40 -13,85 -16,135l-6 148 17 128c7,36 20,74 37,115l41 100 63 70c26,18 56,29 91,35 30,-10 46,-40 47,-93l-9 -298 -59 -228 -47 -100 -54 -78c-20,-20 -45,-38 -73,-56z"/>
 </g>
</svg>
