<?xml version="1.0" encoding="UTF-8"?>
<!DOCTYPE svg PUBLIC "-//W3C//DTD SVG 1.1//EN" "http://www.w3.org/Graphics/SVG/1.1/DTD/svg11.dtd">
<!-- Creator: CorelDRAW 2017 -->
<svg xmlns="http://www.w3.org/2000/svg" xml:space="preserve" width="210mm" height="297mm" version="1.1" shape-rendering="geometricPrecision" text-rendering="geometricPrecision" image-rendering="optimizeQuality" fill-rule="evenodd" clip-rule="evenodd"
viewBox="0 0 21000 29700"
 xmlns:xlink="http://www.w3.org/1999/xlink">
 <g id="Layer_x0020_1">
  <metadata id="CorelCorpID_0Corel-Layer"/>
  <path fill="black" fill-rule="nonzero" d="M4301 7248c20,-22 33,-43 39,-63 0,-4 0,-5 1,-5 1,0 1,-1 1,-3 0,-2 0,-4 0,-5 3,-15 3,-32 0,-52 -1,-7 -4,-17 -8,-30 -4,-18 -6,-30 -6,-35 -1,-2 -2,-5 -2,-8 -19,-53 -44,-93 -75,-121 -31,-28 -64,-44 -99,-48 -35,-4 -66,-3 -92,3 -26,5 -52,13 -76,22 -8,4 -17,8 -26,14 46,145 93,250 140,316 34,47 67,70 99,68 38,0 73,-17 105,-52zm-1166 -1576c-3,13 1,19 10,19l2 0c110,-2 219,-4 329,-5 3,0 5,0 8,0 1,-2 2,-3 3,-4 1,-1 1,-2 1,-4 0,-4 -1,-8 -2,-14 0,-4 0,-6 0,-8 -58,-234 -118,-475 -181,-722 -5,-15 -10,-14 -14,3l0 3c-54,252 -105,495 -154,727 0,2 -1,4 -2,5zm-756 1655c-32,44 -47,106 -43,188 4,82 22,142 55,182 72,85 163,138 273,159 110,21 217,3 319,-53 49,-29 100,-70 155,-124 55,-54 101,-104 140,-152 39,-48 91,-114 157,-199 66,-84 118,-148 154,-192 72,-87 143,-157 213,-210 -15,-49 -30,-102 -45,-158 -38,-149 -66,-262 -85,-340 -5,-22 -10,-43 -14,-63 -26,-116 -66,-283 -120,-501 -3,-2 -4,-5 -4,-8 -1,-2 -2,-5 -3,-8 -1,-4 -2,-7 -3,-11 -1,-4 -2,-6 -2,-8 -1,-7 -3,-13 -4,-16 -3,-9 -13,-14 -30,-14 -123,0 -246,1 -369,3 -7,0 -12,1 -14,3 -1,0 -3,3 -4,8 -82,396 -132,635 -148,719 -4,40 15,68 57,84l-282 -3c65,-20 105,-54 120,-103 5,-20 41,-169 107,-447 66,-278 130,-550 193,-817 62,-267 94,-401 95,-403 5,-20 5,-38 0,-54 -11,-36 -23,-65 -37,-87 -8,-16 -17,-29 -27,-38 -10,-9 -19,-15 -25,-16l-8 -3 256 0c145,614 263,1114 355,1500 19,65 39,142 59,229l75 316c15,56 29,108 43,155 88,-38 175,-48 262,-30 72,15 130,44 175,87 45,44 76,93 92,150 11,36 15,75 12,117 -4,65 -21,119 -51,161 -58,103 -133,157 -223,161 -74,2 -142,-34 -203,-109 -46,-54 -93,-149 -142,-283 -12,-33 -24,-65 -34,-98 -38,31 -79,69 -123,116 -44,46 -81,88 -111,124 -30,36 -71,88 -125,157 -53,68 -93,118 -119,151 -210,258 -403,387 -580,387 -84,0 -160,-14 -228,-42 -68,-28 -122,-65 -162,-110 -40,-45 -70,-94 -89,-147 -20,-53 -27,-106 -23,-161 4,-51 18,-98 43,-142 24,-44 55,-77 91,-101 32,-20 68,-30 105,-30 9,0 19,0 28,1 9,1 18,2 24,3 7,1 13,1 19,1 6,0 10,0 13,0l6 3c-43,2 -80,9 -110,22 -37,18 -72,50 -107,95z"/>
  <path fill="black" fill-rule="nonzero" d="M5723 4962c-3,2 -6,5 -9,8 -3,4 -10,15 -19,33 -9,18 -18,40 -26,67 -8,26 -16,64 -23,113 -7,49 -12,105 -13,169 0,129 0,280 0,455 65,-13 134,-13 206,-1 72,12 146,39 222,83 81,47 153,128 217,244 64,115 97,248 101,399 3,84 -4,171 -21,263 -17,92 -43,183 -78,274 -35,91 -84,175 -147,253 -63,78 -134,139 -214,182 -122,67 -243,108 -363,123 -120,15 -229,7 -324,-23 -96,-30 -181,-79 -254,-146 11,5 26,14 46,25 20,11 59,27 118,48 59,21 117,35 175,42 58,7 128,5 210,-8 82,-13 159,-40 232,-82 165,-96 283,-234 354,-412 71,-179 100,-383 86,-614 -5,-87 -22,-169 -49,-246 -27,-77 -63,-145 -109,-203 -45,-58 -103,-103 -173,-133 -70,-31 -149,-42 -235,-33 3,610 3,1019 2,1228 0,180 -54,289 -162,327 -24,9 -45,13 -63,11 1,-2 4,-5 7,-8 3,-4 9,-14 16,-31 7,-17 14,-39 20,-64 6,-25 11,-62 16,-109 5,-47 7,-100 7,-158 0,-4 1,-112 2,-324 1,-212 2,-442 2,-690 0,-248 -2,-448 -6,-600 -1,-78 6,-147 22,-206 16,-59 37,-104 62,-135 25,-31 50,-56 75,-75 25,-19 46,-30 64,-34l26 -8zm-763 35c-22,58 -30,124 -24,199 5,74 26,134 61,180 72,94 162,104 272,30 -5,7 -13,15 -21,25 -9,9 -28,23 -58,41 -30,18 -60,28 -91,30 -150,16 -233,-85 -247,-305 -5,-71 7,-144 39,-219 31,-75 74,-143 129,-204 55,-61 122,-112 203,-152 80,-41 165,-63 253,-67 184,-5 335,36 454,125 119,89 190,220 213,392 18,131 -9,259 -80,384 -71,125 -161,211 -269,256 61,-56 105,-110 132,-161 16,-33 30,-63 41,-91 11,-28 21,-63 29,-103 9,-41 13,-83 11,-125 -1,-43 -5,-94 -12,-154 -19,-123 -71,-230 -157,-319 -86,-89 -200,-133 -342,-133 -115,0 -223,34 -326,102 -102,68 -171,158 -208,271z"/>
  <path fill="black" fill-rule="nonzero" d="M8501 5040c-32,-105 -86,-190 -163,-255 -77,-65 -163,-98 -258,-99 -105,-3 -214,30 -326,99 -52,39 -101,89 -146,150 8,10 32,45 74,104 42,59 68,96 79,111 11,14 34,45 69,90 35,46 62,78 80,95 18,18 41,42 71,73 30,31 58,54 83,71 26,17 53,32 81,46 166,78 286,8 360,-211 23,-97 21,-188 -4,-275zm-1843 51c33,46 66,78 101,97 13,7 27,12 44,15 16,3 30,6 42,8l15 0c-27,5 -54,8 -83,8 -35,2 -68,-8 -97,-31 -34,-24 -63,-58 -85,-102 -23,-44 -36,-93 -40,-148 -4,-54 3,-109 22,-163 18,-54 46,-104 83,-150 37,-46 87,-83 150,-112 63,-29 132,-43 210,-43 145,0 303,104 474,311 96,-71 189,-120 278,-145 89,-25 186,-36 289,-33 4,0 8,0 13,0 1,0 3,0 4,0 72,-2 142,17 210,56 68,39 124,90 169,151 45,62 80,130 105,205 25,75 36,145 32,211 -1,14 -3,27 -4,41l-2 0c-8,73 -35,146 -83,218 -47,72 -101,117 -160,134 -174,49 -362,-61 -563,-331 -5,-7 -76,-105 -212,-295 -97,146 -172,323 -225,531 -52,208 -76,408 -71,600 6,306 53,560 139,764 87,204 211,346 373,428 75,37 157,58 247,62 90,4 173,-4 248,-24 75,-20 145,-43 211,-69 65,-25 117,-49 155,-71l55 -33c-149,156 -306,266 -471,331 -165,65 -327,71 -486,20 -134,-42 -255,-131 -362,-266 -107,-135 -193,-300 -257,-495 -64,-195 -100,-404 -109,-626 -5,-143 0,-278 15,-406 15,-128 37,-239 66,-334 29,-94 64,-181 103,-260 40,-79 80,-144 119,-195 40,-51 81,-93 122,-127 -81,-102 -155,-175 -222,-219 -96,-59 -195,-78 -297,-56 -102,22 -186,76 -251,163 -30,42 -48,106 -52,190 -4,84 9,148 39,192z"/>
  <path fill="black" fill-rule="nonzero" d="M10006 4920c-3,2 -6,5 -9,8 -3,4 -10,15 -19,33 -9,18 -18,40 -26,67 -8,26 -16,64 -23,113 -7,49 -12,105 -13,169l2 1715c0,65 -8,122 -23,169 -16,47 -34,81 -57,102 -22,21 -44,37 -66,49 -22,12 -41,18 -57,18l-22 0c1,-2 4,-5 7,-8 3,-4 9,-14 16,-31 7,-17 14,-39 20,-64 6,-25 11,-62 16,-109 5,-47 7,-100 7,-158 0,-4 1,-112 2,-324 1,-212 2,-442 2,-690 0,-248 -2,-448 -6,-600 -1,-78 6,-147 22,-206 16,-59 37,-104 62,-135 25,-31 50,-56 75,-75 25,-19 46,-30 64,-34l26 -8zm-414 -384c130,-16 252,-14 366,7 114,21 234,70 358,148 61,38 120,91 178,159 58,68 113,149 163,244 51,94 92,205 125,331 32,126 51,257 55,393 3,116 -4,237 -20,363 -16,126 -44,256 -83,391 -39,134 -88,260 -146,378 -58,118 -131,227 -220,328 -89,101 -187,181 -295,241 -165,94 -330,132 -495,113 -165,-19 -333,-100 -503,-244 14,7 31,16 54,26 22,10 67,26 135,48 68,22 133,38 197,49 64,11 137,14 219,8 82,-5 156,-24 221,-54 143,-67 265,-159 364,-275 99,-116 176,-250 229,-403 53,-152 89,-314 107,-486 18,-172 22,-358 11,-560 -8,-143 -35,-284 -82,-421 -47,-137 -109,-258 -186,-363 -80,-96 -181,-178 -303,-246 -122,-68 -247,-100 -374,-97 -116,2 -225,37 -327,105 -101,68 -170,157 -207,268 -22,58 -30,124 -24,199 5,74 26,134 61,180 72,94 162,104 272,30 -5,7 -13,15 -21,25 -9,9 -28,23 -58,41 -30,18 -60,28 -91,30 -150,16 -233,-85 -247,-305 -8,-118 28,-237 109,-358 80,-121 184,-204 311,-249 37,-22 86,-36 148,-44z"/>
  <path fill="black" fill-rule="nonzero" d="M11254 5070c-22,58 -30,125 -24,200 5,75 26,136 61,181 73,94 164,104 272,30 -4,7 -11,15 -20,25 -9,9 -29,22 -58,39 -29,17 -60,28 -92,31 -149,15 -231,-87 -247,-305 -4,-73 9,-146 40,-221 30,-74 73,-142 128,-204 55,-62 122,-113 203,-152 80,-40 165,-62 253,-65 184,-5 336,36 455,125 120,89 191,220 214,392 18,129 -9,256 -81,383 -72,126 -162,212 -270,257 62,-58 106,-113 132,-163 18,-33 31,-63 42,-91 10,-28 20,-63 28,-103 9,-41 13,-82 11,-124 -1,-42 -5,-93 -12,-155 -18,-122 -69,-227 -155,-316 -86,-89 -200,-133 -342,-133 -116,0 -225,34 -327,102 -101,68 -171,157 -209,268zm306 2214c30,-7 50,-24 62,-50 12,-26 17,-65 17,-116l0 -1620c0,-45 -7,-91 -20,-138 -14,-46 -27,-82 -41,-108l-18 -35 237 8c0,276 -1,553 -2,830 1,2 2,4 2,5 0,16 0,27 0,33 0,5 1,9 2,11 1,2 4,3 8,3 4,2 12,3 22,3 142,4 285,6 428,8l-124 245c1,-4 2,-8 2,-14 0,-5 -1,-15 -2,-29 -1,-14 -4,-26 -9,-37 -5,-11 -14,-21 -27,-31 -14,-10 -31,-17 -53,-20 -74,-4 -149,-8 -223,-14 -9,0 -16,2 -18,5 -4,4 -6,17 -6,41 3,309 5,616 6,923 0,4 1,6 2,8 1,2 5,4 10,5l957 5 -99 210c0,-4 0,-9 -1,-15 -1,-6 -4,-17 -9,-31 -5,-15 -13,-28 -21,-39 -9,-12 -22,-22 -41,-31 -18,-9 -40,-15 -66,-16l-976 0z"/>
  <path fill="black" fill-rule="nonzero" d="M13028 5079c-22,58 -30,124 -24,199 5,74 26,135 61,182 72,94 162,104 272,30 -5,5 -13,13 -21,23 -9,10 -28,24 -58,41 -30,17 -60,28 -91,31 -150,15 -233,-88 -247,-308 -5,-71 7,-144 39,-219 31,-75 74,-143 129,-204 55,-61 122,-112 203,-152 80,-41 165,-62 253,-64 184,-7 335,34 454,123 119,89 190,220 213,392 18,131 -9,259 -80,385 -71,126 -161,212 -269,257 61,-58 105,-113 132,-163 16,-33 30,-63 41,-91 11,-28 21,-63 29,-103 9,-41 13,-83 11,-125 -1,-43 -5,-94 -12,-154 -19,-123 -71,-230 -157,-319 -86,-89 -200,-133 -342,-133 -115,0 -223,34 -326,103 -102,69 -171,159 -208,270zm288 2238c31,-7 55,-29 72,-64 17,-35 25,-79 23,-129l0 -1617c0,-45 -6,-92 -19,-139 -13,-47 -26,-83 -40,-106l-20 -38 237 8c0,278 0,555 0,833l0 3c0,16 0,28 0,35 1,5 2,9 3,10 1,1 3,2 7,4 4,0 11,1 22,3l430 8 -124 242c0,-2 0,-5 1,-11 1,-5 0,-15 -1,-29 -1,-14 -5,-26 -10,-37 -5,-11 -15,-22 -28,-33 -14,-11 -30,-17 -51,-19 -76,-5 -151,-11 -225,-16 -9,2 -16,4 -18,5 -3,5 -4,21 -4,46 0,2 -1,4 -2,5l-10 1035 -243 0z"/>
  <path fill="black" fill-rule="nonzero" d="M16402 5278c-20,-64 -58,-124 -114,-182l0 -3c-105,-83 -225,-87 -359,-11 -53,31 -101,71 -144,120 -43,49 -76,101 -99,155 119,160 231,257 337,291 84,27 161,27 230,-1 70,-28 121,-76 153,-143 12,-36 18,-71 16,-103l0 -3c0,-31 -6,-70 -18,-117l-2 -3zm-1955 -90c35,49 71,84 107,103 12,5 27,10 45,15 18,5 32,7 45,7l16 3c-27,4 -57,6 -89,8 -37,0 -70,-11 -101,-33 -37,-25 -67,-62 -90,-110 -24,-48 -38,-99 -42,-154 -4,-58 3,-116 22,-174 19,-58 48,-112 88,-161 40,-49 93,-88 159,-118 66,-30 141,-45 223,-45 173,-2 362,138 568,419 28,36 87,119 174,248 32,-49 66,-91 99,-125 151,-158 326,-206 523,-144 101,31 179,81 233,151 54,70 82,143 83,219 8,96 -14,185 -67,267l-2 3c-16,25 -35,49 -57,71 -53,64 -120,98 -201,103 -93,7 -180,-11 -260,-56 -80,-44 -171,-134 -274,-268 -70,200 -105,437 -103,711 3,436 87,766 254,991 61,82 135,129 223,142 88,13 167,-12 237,-74 0,-327 -2,-624 -6,-893 0,-34 -7,-64 -22,-90 -15,-25 -29,-43 -43,-52l-22 -11 369 0c-1,0 -4,1 -8,4 -4,3 -12,8 -22,16 -11,8 -20,18 -28,29 -8,11 -15,27 -21,49 -6,22 -9,45 -9,71 0,54 0,114 0,180 0,65 0,128 0,189 0,61 0,121 0,181 0,60 0,114 0,163 0,49 0,93 0,131 0,38 0,68 0,90l0 30c-46,33 -108,56 -187,71 -288,65 -517,-29 -688,-283 -169,-256 -252,-583 -249,-980 1,-310 72,-585 211,-825 -8,-11 -32,-44 -71,-99 -39,-55 -64,-91 -75,-106 -11,-15 -32,-45 -65,-90 -32,-44 -57,-76 -74,-94 -17,-18 -39,-42 -66,-72 -27,-30 -52,-54 -75,-74 -23,-19 -46,-36 -69,-50 -101,-64 -206,-84 -314,-61 -108,23 -197,80 -266,173 -32,45 -51,113 -55,201 -4,89 9,157 41,204z"/>
  <path fill="black" fill-rule="nonzero" d="M3901 10265c72,40 153,47 245,22 -5,-212 -10,-380 -14,-504 -7,-105 -8,-216 -5,-332 3,-116 17,-204 40,-264 22,-54 48,-98 80,-129 32,-32 58,-50 78,-56l32 -5c-3,2 -6,6 -11,12 -5,6 -13,22 -24,46 -11,25 -22,53 -30,84 -9,32 -17,76 -23,133 -7,57 -9,120 -8,189 5,229 12,483 18,762 99,-69 179,-176 241,-321 -43,209 -123,360 -239,455 8,316 15,576 20,781 3,103 10,187 23,249 13,63 32,109 59,139 26,30 54,49 82,57 28,8 67,11 116,10 66,-4 118,-40 156,-110 38,-70 54,-136 49,-197 -1,-15 -4,-29 -9,-42 -5,-14 -10,-26 -17,-37 -7,-11 -15,-22 -23,-33 -9,-11 -18,-20 -26,-27 -9,-7 -18,-15 -26,-22 -9,-7 -17,-13 -24,-18 -7,-5 -14,-8 -20,-11 -6,-3 -10,-5 -13,-7l-6 -3c32,-2 64,2 94,11 30,9 59,27 86,54 27,27 45,64 53,110 8,46 6,105 -6,176 -15,73 -56,130 -125,173 -68,43 -141,57 -218,42 -35,-7 -71,-20 -106,-39 -36,-19 -71,-44 -104,-75 -34,-31 -62,-71 -84,-120 -22,-49 -35,-103 -38,-161 -5,-143 -13,-415 -22,-814 -41,22 -83,34 -127,37 -44,3 -82,0 -115,-7 -32,-7 -70,-24 -114,-49 -43,-25 -76,-46 -98,-63 -22,-16 -54,-42 -96,-76 0,151 1,277 2,378 1,80 2,155 3,225 1,70 -3,139 -10,207 -7,68 -19,123 -36,165 -15,34 -31,64 -50,90 -18,25 -35,44 -51,56 -16,12 -31,21 -48,27 -16,6 -27,10 -33,11 -6,1 -10,1 -13,1 3,-2 6,-6 11,-12 5,-6 13,-22 25,-46 12,-25 23,-53 32,-84 9,-32 18,-76 25,-132 7,-56 11,-119 11,-188 -1,-238 -3,-503 -4,-795 -37,-22 -68,-37 -95,-45 -27,-8 -53,-10 -79,-4 -26,5 -48,21 -68,48 -20,26 -36,64 -50,113 0,-13 1,-29 4,-48 3,-19 11,-49 24,-91 14,-42 32,-74 55,-95 43,-44 112,-51 207,-22 -3,-298 -5,-544 -6,-738 -1,-103 -8,-187 -19,-250 -11,-64 -30,-111 -56,-142 -26,-31 -53,-50 -82,-59 -29,-8 -68,-12 -117,-12 -66,2 -119,37 -158,105 -39,68 -56,133 -51,195 4,40 20,77 47,112 27,34 53,58 79,71l39 22c-34,2 -66,-3 -96,-14 -30,-11 -59,-30 -85,-57 -26,-27 -43,-64 -50,-110 -7,-46 -3,-105 10,-176 16,-73 58,-129 127,-170 68,-41 141,-52 218,-34 35,7 70,21 105,41 35,20 70,46 103,78 34,32 62,73 83,123 22,50 33,105 34,165 3,134 5,436 8,904 49,24 150,80 304,169z"/>
  <path fill="black" fill-rule="nonzero" d="M5965 8952c-3,2 -6,5 -9,8 -3,4 -10,15 -19,33 -9,18 -18,40 -26,67 -8,26 -16,64 -23,113 -7,49 -12,105 -13,169l2 1715c0,65 -8,122 -23,169 -16,47 -34,81 -57,102 -22,21 -44,37 -66,49 -22,12 -41,18 -57,18l-22 0c1,-2 4,-5 7,-8 3,-4 9,-14 16,-31 7,-17 14,-39 20,-64 6,-25 11,-62 16,-109 5,-47 7,-100 7,-158 0,-4 1,-112 2,-324 1,-212 2,-442 2,-690 0,-248 -2,-448 -6,-600 -1,-78 6,-147 22,-206 16,-59 37,-104 62,-135 25,-31 50,-56 75,-75 25,-19 46,-30 64,-34l26 -8z"/>
  <path fill="black" fill-rule="nonzero" d="M7121 11239c26,58 64,102 116,132 51,30 108,39 170,27 62,-12 117,-46 164,-102l-2 0c1,-2 4,-5 7,-8 3,-4 9,-15 16,-33 7,-18 14,-39 20,-64 6,-25 11,-60 16,-108 5,-47 7,-100 7,-158 0,-4 1,-112 2,-324 1,-212 2,-442 2,-690 0,-248 -2,-448 -6,-600 -1,-78 6,-147 22,-207 16,-60 37,-105 62,-135 25,-30 50,-54 75,-74 25,-19 46,-30 64,-34l26 -8c-1,2 -4,5 -8,8 -4,4 -11,15 -20,33 -9,18 -18,40 -26,67 -8,26 -16,64 -23,113 -7,49 -12,105 -13,169l4 1715c-1,58 -8,110 -20,155 -16,69 -44,130 -82,182 -39,53 -76,90 -113,112 -37,22 -71,35 -103,41 -99,16 -188,11 -268,-16 -80,-27 -139,-72 -177,-133 -39,-62 -50,-133 -33,-212 35,-174 113,-256 233,-245 27,4 50,10 69,19 -43,2 -74,7 -92,15 -18,8 -39,27 -62,56 -26,33 -41,83 -47,150 -5,67 1,120 20,158z"/>
  <path fill="black" fill-rule="nonzero" d="M8341 9047c-38,2 -74,-4 -109,-16 -34,-13 -67,-34 -97,-65 -30,-31 -50,-73 -58,-127 -8,-54 -4,-120 12,-200 19,-84 68,-148 146,-195 78,-46 162,-59 249,-39 39,9 79,25 120,48 41,23 80,52 119,88 39,36 70,83 94,140 24,57 37,119 39,187 3,162 5,443 8,844 8,-2 16,-3 24,-3 142,-4 259,15 350,56 91,41 171,105 240,192 46,58 82,122 109,191 26,69 43,142 49,221 6,78 8,147 7,206 -1,59 -5,132 -12,219 -7,87 -11,150 -12,188 -3,145 11,252 42,320 30,68 92,98 184,91 -9,5 -22,11 -39,18 -16,6 -44,10 -83,11 -39,1 -72,-10 -99,-31 -19,-15 -36,-36 -52,-65 -16,-29 -28,-60 -39,-93 -10,-33 -19,-75 -27,-128 -8,-53 -14,-98 -18,-137 -4,-39 -7,-93 -10,-161 -3,-68 -5,-121 -6,-158 -1,-37 -3,-92 -4,-165 0,-38 0,-67 0,-87 -1,-53 -9,-108 -23,-167 -14,-59 -37,-119 -68,-181 -31,-62 -69,-115 -113,-159 -44,-44 -100,-77 -169,-97 -69,-20 -144,-21 -225,-3 -1,0 -3,0 -4,0 3,350 5,605 8,765 0,91 1,176 2,256 1,80 -2,158 -11,236 -9,77 -23,139 -42,187 -50,123 -119,194 -207,212l-14 3c3,-4 7,-9 12,-16 5,-7 15,-25 28,-53 14,-28 26,-60 37,-95 11,-35 21,-86 29,-151 9,-65 13,-136 11,-212 -1,-721 -5,-1360 -12,-1920 -1,-94 -7,-174 -17,-240 -10,-65 -23,-117 -38,-155 -15,-38 -36,-67 -64,-87 -28,-20 -56,-33 -84,-38 -28,-5 -65,-8 -110,-8 -76,2 -136,42 -181,121 -45,79 -64,153 -57,222 3,47 20,90 51,128 31,38 62,65 91,82l43 25zm732 -602c19,-20 46,-32 81,-37 35,-5 73,2 115,19 41,17 80,45 118,83 37,38 68,95 92,170 24,75 36,164 34,265 0,60 -9,118 -26,173 -18,55 -40,104 -68,147 -28,43 -58,82 -91,118 -33,36 -66,67 -99,93 -33,25 -64,47 -91,65 -28,18 -50,32 -68,41l-24 11c222,-247 335,-457 339,-632 1,-80 -3,-151 -13,-214 -10,-63 -24,-112 -43,-147 -18,-35 -39,-65 -61,-90 -22,-25 -45,-41 -67,-49 -22,-8 -43,-14 -62,-18 -19,-4 -34,-5 -47,-3l-18 3z"/>
  <path fill="black" fill-rule="nonzero" d="M11291 11188c116,29 246,90 390,184 144,93 313,220 508,380 115,94 232,164 351,210 119,45 225,67 319,64 94,-3 177,-19 248,-49 72,-30 126,-69 164,-118 38,-49 68,-103 89,-163 22,-60 37,-145 47,-256 1,9 3,21 4,37 1,15 2,46 2,91 0,45 -2,89 -6,131 -4,42 -13,88 -26,140 -14,52 -32,97 -55,135 -42,71 -92,129 -151,174 -59,45 -125,77 -200,95 -74,18 -159,15 -253,-8 -94,-24 -193,-70 -297,-139 -62,-40 -154,-105 -275,-195 -121,-90 -232,-171 -334,-242 -101,-72 -210,-143 -327,-215 -116,-72 -225,-123 -327,-154 -101,-31 -188,-37 -260,-19 -19,5 -28,2 -28,-11 3,-27 38,-51 105,-71 31,-9 67,-15 107,-19 5,0 10,0 14,0 16,-38 24,-90 22,-155l0 -1585c0,-45 -7,-82 -22,-109 -15,-27 -29,-43 -43,-46l-22 -8 262 3 -10 1920z"/>
  <path fill="black" fill-rule="nonzero" d="M13220 11246c1,-2 4,-4 7,-7 3,-3 9,-9 18,-19 9,-10 17,-21 23,-34 7,-13 13,-31 19,-54 6,-24 9,-49 9,-76 1,-67 2,-335 1,-803 -1,-468 -1,-719 -1,-751 0,-76 -11,-142 -34,-199 -15,-31 -32,-60 -51,-87l0 -3c-95,-131 -226,-196 -395,-196 -116,0 -225,34 -327,103 -101,69 -171,159 -209,270 -22,58 -30,124 -24,199 5,74 26,135 61,182 73,94 164,104 272,30 -4,5 -11,13 -20,23 -9,10 -29,24 -59,41 -30,17 -60,28 -91,31 -150,15 -233,-88 -247,-308 -4,-71 9,-144 40,-219 30,-75 73,-143 128,-204 55,-61 122,-112 203,-152 80,-41 165,-62 252,-64 162,-5 300,26 413,94 113,68 190,170 230,306l2 3c3,13 6,25 10,35l347 1285 430 -1413 185 -3c-5,2 -11,5 -17,10 -6,5 -15,19 -25,42 -11,24 -16,52 -16,84 0,971 1,1530 4,1677 0,45 4,83 11,112 7,29 13,46 17,52 4,5 7,8 10,8l-168 0c-1,-310 -1,-868 0,-1672 -7,22 -14,44 -20,65l-436 1413c0,2 -1,4 -2,5l-379 -1372 -2 0c-1,0 -3,2 -4,5 -1,519 -3,1039 -6,1560l-156 0z"/>
  <path fill="black" fill-rule="nonzero" d="M15571 11154c3,0 6,-1 9,-4 3,-3 9,-9 18,-19 9,-10 17,-22 23,-35 7,-14 13,-32 18,-54 5,-23 8,-48 8,-75 9,-840 9,-1353 0,-1538 -4,-73 -11,-132 -20,-177 -23,-54 -45,-110 -65,-166 -24,-62 -47,-112 -69,-151 -22,-39 -46,-70 -73,-94 -27,-24 -57,-33 -91,-29 -34,5 -71,24 -112,59 7,-11 16,-24 28,-39 12,-15 35,-36 70,-63 34,-26 67,-39 98,-37 27,0 55,12 84,37 29,25 55,53 78,86 23,33 49,79 77,137 28,59 52,111 71,157 19,45 44,105 75,180 31,74 55,132 73,172 38,89 75,189 112,300l379 953c0,2 1,4 2,5 3,4 5,6 6,8l2 0c1,0 3,-3 4,-8 0,-2 0,-4 0,-5l-4 -1560c46,-2 92,-3 138,-3 -20,7 -32,57 -34,150 -1,34 -1,307 0,818 1,511 1,795 0,854 0,34 2,66 6,95 5,18 12,37 18,57 20,65 40,118 60,158 20,40 43,73 69,99 26,26 56,38 90,35 34,-3 72,-20 114,-50 -7,11 -17,24 -29,38 -13,15 -37,34 -72,57 -35,24 -68,34 -99,30 -26,-2 -51,-13 -77,-33 -26,-20 -52,-51 -78,-93 -26,-42 -50,-81 -71,-118 -21,-37 -45,-89 -73,-157 -28,-67 -49,-121 -64,-161 -15,-40 -37,-97 -65,-172 -14,-34 -24,-60 -30,-76 -11,-29 -28,-75 -52,-138 -24,-63 -41,-108 -52,-135l-327 -836c-3,-4 -5,-6 -6,-8l-2 0c-1,0 -2,3 -2,8 -3,514 -5,1027 -8,1541l-156 0zm941 -1966c3,0 5,0 8,0 -3,-2 -5,-2 -8,0z"/>
  <path fill="black" fill-rule="nonzero" d="M3326 13435c-46,2 -93,23 -140,64 -47,41 -91,98 -130,172 -39,74 -71,169 -95,286 -24,117 -35,244 -32,380 7,294 49,524 127,689 78,165 171,247 279,245 45,-2 88,-20 131,-54 43,-34 83,-86 121,-154 38,-68 69,-162 93,-283 24,-121 39,-261 43,-421 3,-127 -4,-245 -21,-353 -17,-108 -40,-196 -69,-265 -29,-69 -62,-128 -98,-176 -37,-48 -72,-82 -106,-102 -34,-20 -67,-29 -98,-27l-2 0zm-8 -87c81,0 155,22 222,65 67,44 123,100 167,169 45,69 82,148 113,237 30,89 52,178 66,267 14,89 20,176 20,261 0,123 -14,244 -42,362 -28,118 -66,224 -115,319 -49,94 -110,171 -183,229 -73,58 -152,87 -237,87 -77,2 -148,-18 -212,-59 -64,-41 -119,-94 -163,-161 -45,-66 -82,-143 -114,-231 -31,-88 -54,-178 -70,-271 -16,-93 -24,-186 -25,-280 0,-85 8,-174 24,-267 16,-93 41,-182 74,-268 33,-86 72,-163 118,-231 45,-68 99,-123 161,-165 62,-42 127,-63 195,-63z"/>
  <path fill="black" fill-rule="nonzero" d="M4513 12971c-22,56 -32,123 -30,200 1,77 20,137 55,181 72,94 162,104 272,30 -5,7 -13,15 -21,25 -9,9 -28,22 -58,39 -30,17 -60,28 -91,31 -150,15 -233,-87 -247,-305 -5,-73 7,-146 38,-221 30,-74 73,-142 129,-201 55,-60 123,-110 204,-151 80,-41 164,-64 250,-69 238,-13 428,34 571,142 143,107 239,256 289,447 24,93 35,181 32,264 -3,83 -13,161 -31,233 -18,72 -45,139 -81,201 -36,63 -73,119 -113,169 -39,50 -81,94 -127,133 -45,39 -87,71 -125,95 -38,25 -73,43 -105,56 8,-7 19,-18 32,-31 14,-14 39,-40 76,-80 37,-40 72,-79 103,-118 32,-39 64,-84 97,-135 33,-51 58,-98 74,-142 37,-98 56,-200 60,-306 3,-106 -5,-201 -26,-286 -21,-84 -50,-162 -88,-233 -115,-216 -311,-324 -588,-324 -119,0 -231,32 -336,95 -105,64 -176,151 -214,261zm2 2355c26,58 64,102 116,132 51,30 108,39 170,27 62,-12 117,-46 164,-102l-2 0c1,-2 4,-5 7,-8 3,-4 9,-15 16,-33 7,-18 14,-39 20,-64 6,-25 11,-60 16,-108 5,-47 7,-100 7,-158 0,-4 1,-112 2,-324 1,-212 2,-442 2,-690 0,-248 -2,-448 -6,-600 -1,-78 6,-147 22,-207 16,-60 37,-105 62,-135 25,-30 50,-54 75,-74 25,-19 46,-30 64,-34l26 -8c-1,2 -4,5 -8,8 -4,4 -11,15 -20,33 -9,18 -18,40 -26,67 -8,26 -16,64 -23,113 -7,49 -12,105 -13,169l4 1715c-1,58 -8,110 -20,155 -16,69 -44,130 -82,182 -39,53 -76,90 -113,112 -37,22 -71,35 -103,41 -99,16 -188,11 -268,-16 -80,-27 -139,-72 -177,-133 -39,-62 -50,-133 -33,-212 35,-174 113,-256 233,-245 27,4 50,10 69,19 -43,2 -74,7 -92,15 -18,8 -39,27 -62,56 -26,33 -41,83 -47,150 -5,67 1,120 20,158z"/>
  <path fill="black" fill-rule="nonzero" d="M6975 13249c-46,2 -93,23 -140,64 -47,41 -91,98 -130,172 -39,74 -71,168 -94,285 -24,116 -34,242 -31,378 5,292 47,521 125,686 78,165 170,246 277,242 45,-2 88,-20 131,-53 43,-34 83,-84 121,-152 38,-68 69,-162 93,-283 24,-121 39,-260 43,-418 3,-127 -5,-244 -22,-351 -18,-107 -41,-195 -69,-264 -28,-69 -61,-128 -97,-176 -37,-48 -72,-82 -106,-102 -34,-20 -67,-29 -98,-27zm-95 1892c-78,-20 -149,-63 -212,-129 -63,-66 -113,-147 -151,-241 -38,-94 -67,-194 -87,-299 -20,-105 -31,-211 -32,-319 -1,-85 6,-174 22,-265 16,-92 41,-181 74,-267 33,-86 72,-163 118,-231 45,-68 99,-123 160,-165 62,-42 126,-62 194,-60l2 -3c80,2 153,24 220,67 67,43 122,98 166,167 44,69 81,147 113,236 31,88 53,177 66,265 13,89 19,176 19,261 0,183 -29,358 -88,524 -59,166 -138,291 -238,374 64,4 131,21 204,52 72,31 137,64 194,99 57,35 124,72 202,110 78,38 152,64 224,79 69,15 130,17 184,8 53,-9 99,-23 136,-41 37,-18 68,-39 91,-61 24,-23 41,-42 53,-57 11,-15 17,-24 17,-26 -12,87 -49,167 -111,240 -62,73 -138,124 -228,154 -91,30 -189,28 -296,-7 -122,-42 -245,-106 -370,-193 -125,-87 -223,-147 -293,-180 -38,-18 -75,-30 -112,-35 -37,-5 -85,-3 -144,8 -59,11 -129,34 -209,68 3,-5 6,-13 10,-22 4,-9 16,-25 34,-49 19,-24 42,-44 69,-63z"/>
  <path fill="black" fill-rule="nonzero" d="M9388 12930c-3,2 -6,5 -9,8 -3,4 -10,15 -19,33 -9,18 -18,40 -26,67 -8,26 -16,64 -23,113 -7,49 -13,105 -15,169 1,349 3,687 4,1016 139,-4 254,15 345,56 91,41 170,104 237,189 46,58 82,122 109,191 26,69 43,142 49,221 6,78 9,147 8,207 -1,60 -4,133 -11,221 -7,87 -11,150 -12,188 -4,143 9,250 41,319 31,69 93,100 185,93 -11,4 -24,9 -40,15 -16,6 -43,10 -82,11 -39,1 -73,-9 -101,-29 -19,-15 -36,-37 -52,-67 -16,-30 -28,-61 -39,-93 -10,-32 -19,-74 -26,-127 -7,-53 -13,-99 -17,-139 -4,-40 -8,-93 -11,-161 -3,-67 -5,-120 -6,-158 -1,-38 -2,-93 -3,-166 -1,-38 -2,-66 -2,-84 -1,-53 -9,-108 -22,-165 -14,-57 -35,-116 -65,-177 -30,-61 -66,-113 -108,-158 -42,-44 -96,-78 -161,-101 -66,-23 -137,-28 -214,-15 0,292 0,502 0,629 0,65 -8,122 -24,169 -16,47 -34,81 -55,102 -20,21 -43,37 -69,49 -26,12 -44,18 -54,18 -10,0 -18,0 -23,0 1,-2 4,-5 7,-8 3,-4 9,-14 16,-31 7,-17 14,-39 20,-64 6,-25 11,-62 16,-109 5,-47 6,-100 5,-158 0,-13 0,-46 1,-101 1,-54 1,-128 2,-222 1,-93 1,-182 1,-265 -4,-5 -4,-12 0,-19 3,-450 1,-786 -4,-1007 -1,-78 6,-147 22,-206 16,-59 37,-104 62,-135 25,-31 50,-56 75,-75 25,-19 46,-30 64,-34l26 -8zm-765 30c-23,56 -33,123 -31,200 2,77 20,137 54,181 73,94 164,104 272,30 -4,7 -11,15 -20,25 -9,9 -29,22 -58,39 -29,17 -60,28 -92,31 -149,15 -231,-87 -247,-305 -4,-71 9,-144 40,-219 30,-75 73,-143 128,-203 55,-60 122,-110 203,-151 80,-41 165,-64 253,-69 237,-13 427,34 570,142 143,107 239,256 288,447 26,93 37,181 34,264 -3,83 -14,161 -32,233 -19,72 -46,139 -81,201 -35,63 -73,119 -113,169 -40,50 -82,94 -127,133 -45,39 -86,71 -125,95 -39,25 -74,43 -106,56 8,-7 19,-18 33,-31 14,-14 40,-40 77,-80 37,-40 71,-79 102,-118 31,-39 63,-84 96,-135 33,-51 58,-98 74,-142 37,-98 57,-200 61,-306 4,-106 -4,-201 -25,-286 -21,-84 -50,-162 -88,-233 -116,-216 -312,-324 -588,-324 -119,0 -231,32 -337,95 -105,64 -176,151 -213,261z"/>
  <path fill="black" fill-rule="nonzero" d="M11020 15097c-47,107 -76,208 -85,302 -9,94 -2,174 22,238 24,64 59,120 105,167 46,47 98,81 156,102 58,21 119,31 182,30 63,-1 121,-14 175,-39 127,-58 226,-128 298,-208 72,-81 114,-167 126,-257 12,-91 2,-185 -30,-282 -32,-97 -87,-192 -162,-286 -76,-93 -169,-182 -280,-265 -64,-47 -115,-86 -153,-116 -39,-30 -86,-69 -142,-116 -56,-47 -101,-88 -136,-124 -34,-35 -71,-78 -111,-127 -39,-49 -70,-95 -92,-138 -22,-43 -41,-90 -56,-143 -15,-53 -22,-105 -20,-158 0,-171 50,-316 149,-437 99,-121 237,-194 413,-219 27,-7 62,-10 103,-7 42,3 87,7 135,12 48,5 97,20 147,45 50,25 96,54 139,88 43,34 79,83 111,146 31,63 51,134 61,214 9,76 5,149 -13,218 -18,69 -43,126 -75,170 -32,44 -65,83 -98,116 -34,33 -63,56 -87,71l-37 22c59,-65 104,-139 133,-221 29,-82 43,-162 41,-240 -2,-78 -16,-154 -42,-227 -26,-74 -60,-137 -103,-191 -43,-54 -95,-95 -156,-124 -61,-29 -124,-40 -191,-33 -45,5 -86,14 -125,26 -39,12 -79,31 -121,59 -42,27 -77,60 -106,99 -29,39 -53,91 -72,155 -19,64 -28,138 -28,219 0,33 4,65 12,98 8,33 22,65 42,98 20,33 39,64 59,93 20,29 46,60 79,94 33,34 62,63 87,88 25,25 58,55 99,88 41,34 75,61 100,82 26,21 60,49 104,83 44,34 76,60 96,76 149,118 271,254 366,407 95,153 144,290 147,410 0,53 -5,106 -16,161 -11,54 -31,113 -61,174 -30,62 -68,119 -115,172 -47,53 -109,101 -187,146 -78,44 -166,78 -265,99 -168,38 -319,29 -454,-27 -135,-56 -224,-152 -268,-289 -20,-62 -32,-121 -34,-177 -3,-56 1,-104 10,-143 9,-39 23,-75 42,-108 18,-33 38,-59 58,-79 20,-20 40,-37 60,-52 20,-15 35,-24 46,-29 11,-5 17,-8 18,-10z"/>
  <path fill="black" fill-rule="nonzero" d="M12477 13986c7,-65 22,-122 45,-170 23,-48 49,-86 79,-113 30,-27 66,-49 109,-65 43,-16 83,-27 121,-33 38,-5 80,-8 128,-8 70,-2 152,5 246,19 94,15 178,30 254,48 75,17 182,44 319,80 425,111 677,158 759,142 77,-16 131,-57 162,-121 31,-64 41,-136 28,-214 -7,-40 -20,-72 -41,-97 -20,-25 -39,-39 -57,-42l-26 -5c12,-5 28,-4 48,4 20,8 40,22 60,42 20,20 36,51 48,94 12,43 15,93 9,151 -4,49 -14,92 -28,128 -15,36 -35,65 -60,86 -25,21 -48,36 -70,46 -22,10 -49,20 -81,31 -49,11 -109,13 -182,5 -72,-7 -142,-18 -208,-33l-99 -19c4,713 6,1188 6,1424 0,40 3,68 8,83 5,15 15,27 28,34l-181 0c20,-15 30,-70 30,-166 0,-85 0,-185 0,-298 0,-113 0,-236 -1,-369 -1,-133 -1,-253 -1,-361 0,-108 0,-200 0,-276l-2 -109c-99,-18 -224,-44 -377,-76 -60,-13 -109,-23 -148,-31 -39,-8 -91,-18 -155,-29 -64,-11 -121,-19 -171,-23 -50,-5 -106,-7 -167,-7 -62,0 -119,5 -171,14 -37,4 -70,15 -101,33 -31,18 -56,39 -75,61 -19,23 -35,44 -49,65 -14,21 -23,39 -28,53l-6 22z"/>
  <path fill="black" fill-rule="nonzero" d="M15447 14022c-55,9 -105,0 -150,-29 -45,-28 -78,-66 -99,-114 -22,-48 -31,-104 -28,-169 3,-64 21,-126 55,-184 37,-65 96,-105 178,-120 82,-15 170,1 262,46 38,18 70,44 97,79 27,34 48,75 64,123 16,47 28,101 38,162 9,61 16,128 18,200 3,73 5,151 6,236 1,84 1,173 0,265 -1,250 23,454 73,610 50,156 120,243 209,261 200,38 383,-83 548,-362 0,-154 0,-323 -1,-506 -1,-183 -1,-329 -1,-436l-2 -161c-1,-80 -6,-152 -14,-215 -8,-64 -17,-112 -26,-146 -9,-34 -19,-61 -28,-83 -9,-22 -18,-36 -24,-44l-8 -8c8,0 19,2 31,7 13,5 36,20 68,45 32,25 61,57 86,95 25,38 47,96 66,173 19,77 28,165 26,263 -7,354 -6,739 2,1154 0,47 1,93 2,136 1,44 3,82 4,116 1,34 3,65 5,94 2,29 4,54 5,74 1,20 2,37 3,52 1,15 2,25 3,33l0 8c-5,0 -13,0 -21,0 -9,0 -24,-6 -47,-19 -22,-13 -42,-32 -59,-57 -17,-25 -32,-68 -47,-127 -14,-59 -21,-130 -21,-214 0,-49 -1,-97 -2,-144 -28,60 -60,114 -94,163 -34,49 -75,95 -123,139 -47,44 -102,74 -165,93 -63,18 -129,21 -200,8 -54,-11 -104,-35 -149,-72 -45,-37 -87,-91 -125,-162 -38,-71 -68,-165 -91,-283 -23,-118 -37,-255 -41,-411 -1,-65 -1,-157 1,-274 2,-117 2,-223 1,-317 -1,-94 -6,-176 -14,-245 -14,-96 -40,-170 -78,-221 -39,-51 -83,-75 -133,-74 -50,2 -103,22 -160,60 -43,33 -72,85 -87,157 -15,72 -10,136 14,192 16,38 39,70 68,95 29,25 54,41 76,46l30 11z"/>
  <path fill="black" fill-rule="nonzero" d="M2959 17104c-19,24 -31,45 -37,65 -1,2 -2,3 -2,4 0,1 0,2 0,4 0,2 -1,3 -2,3 -1,15 -1,32 2,52 1,7 3,17 6,30 4,18 7,30 8,35 1,2 2,4 2,5 19,53 44,93 75,121 31,28 64,44 98,46 34,3 65,2 90,-3 26,-5 51,-12 75,-23 8,-4 17,-7 26,-11 -46,-143 -92,-247 -138,-310 -35,-49 -68,-73 -99,-71 -38,2 -73,19 -105,52zm1900 -84c32,-44 46,-106 42,-187 -5,-81 -23,-141 -56,-181 -70,-84 -160,-135 -269,-155 -109,-20 -214,-2 -315,54 -47,29 -98,70 -152,123 -54,53 -100,103 -139,151 -39,48 -90,114 -155,197 -65,83 -116,147 -152,191 -70,87 -140,157 -209,210 15,47 30,98 45,152 38,149 66,261 85,338 4,20 8,40 12,60 64,272 181,744 353,1416 5,13 10,11 14,-5l0 -3c192,-906 301,-1429 327,-1571 3,-20 0,-37 -9,-50 -9,-14 -19,-23 -29,-29l-16 -5 278 0c-64,20 -103,54 -118,103 -5,20 -41,167 -105,441 -65,274 -128,543 -190,807 -62,264 -92,397 -92,399 -5,20 -5,38 0,54 11,36 23,65 37,87 8,15 17,26 27,35 10,9 18,15 23,16l-243 3c-143,-604 -261,-1098 -353,-1481 -19,-64 -39,-138 -59,-223l-75 -310c-15,-56 -29,-108 -43,-155 -88,38 -174,49 -260,33 -70,-15 -128,-43 -173,-86 -45,-43 -75,-92 -90,-148 -12,-36 -17,-75 -14,-117 4,-65 22,-118 53,-158 64,-103 137,-156 219,-158 73,-4 140,31 201,103 45,54 91,149 140,283 12,31 24,63 34,95 38,-31 78,-69 121,-116 43,-46 79,-88 109,-124 30,-36 71,-88 123,-155 52,-67 92,-116 119,-147 206,-256 396,-384 572,-384 161,-2 286,44 375,138 89,93 130,197 122,312 -4,51 -18,98 -43,142 -24,44 -54,77 -89,101 -32,20 -67,29 -103,27l-91 -5c43,-2 79,-9 107,-22 38,-18 74,-50 107,-95z"/>
  <path fill="black" fill-rule="nonzero" d="M4960 17997c14,67 40,126 78,177 39,51 82,79 131,84 50,5 94,-10 132,-48 38,-37 68,-91 91,-162 0,9 -1,21 -4,37 -3,15 -11,43 -26,82 -15,39 -33,73 -55,102 -110,138 -222,130 -337,-25 -51,-69 -80,-163 -85,-283 -5,-120 15,-248 61,-384 46,-136 113,-255 201,-357 68,-80 142,-138 224,-176 82,-37 162,-51 239,-42 78,9 151,48 219,117 68,69 122,163 161,283 30,94 47,152 51,172 88,318 240,955 456,1911 3,4 5,5 6,5 3,0 5,-5 6,-14l2 -3c196,-911 307,-1439 333,-1582 3,-13 3,-25 0,-35 -14,-22 -35,-40 -65,-54l294 5c-1,0 -3,1 -4,3 -32,33 -41,84 -26,152 20,100 62,279 125,536 63,258 120,490 171,697l77 313c200,-928 314,-1467 343,-1617 3,-18 0,-34 -9,-49 -9,-15 -19,-25 -29,-30l-16 -5 280 3c-65,20 -105,54 -120,103 -5,20 -41,168 -107,444 -66,276 -131,546 -195,811l-93 400c-5,22 -5,41 0,57 11,34 22,64 34,87 19,33 39,51 61,54l-254 0c-184,-757 -318,-1315 -404,-1674 -31,129 -76,316 -135,562 -59,246 -110,460 -153,641l-65 272c-5,22 -5,41 0,57 11,34 23,64 37,87 19,33 39,51 61,54l-254 0c-302,-1260 -499,-2036 -592,-2328 -3,-5 -5,-12 -8,-19 -24,-58 -58,-111 -101,-158 -43,-47 -92,-84 -145,-109 -53,-25 -112,-30 -175,-15 -64,15 -124,53 -181,113 -89,100 -157,219 -203,358 -46,139 -57,267 -32,385z"/>
  <path fill="black" fill-rule="nonzero" d="M8090 19085c3,136 42,263 119,381 76,118 169,201 277,250 127,56 251,44 373,-38 122,-82 229,-211 322,-389 50,-105 163,-364 339,-776 -127,-319 -212,-535 -256,-645 -34,-87 -67,-161 -98,-221 -32,-60 -55,-98 -70,-114l-20 -25 268 0c-3,5 -6,12 -9,20 -3,8 -5,26 -6,53 -1,27 5,55 17,84 12,33 31,81 56,146 25,64 57,149 97,253 40,104 73,192 100,263l345 -820c1,0 3,-2 6,-5 187,-432 428,-584 724,-455 58,25 112,62 162,109 50,47 91,99 123,157 32,57 58,118 79,184 21,65 32,129 32,191 1,62 -6,120 -19,174 -61,205 -151,276 -272,212 -26,-13 -49,-31 -69,-56 -20,-25 -34,-46 -41,-64l-12 -25c74,105 152,125 233,60 39,-33 69,-83 89,-150 20,-67 28,-135 24,-204 -7,-118 -45,-226 -115,-324 -70,-98 -152,-166 -248,-204 -119,-47 -233,-26 -343,64 -110,90 -202,223 -278,399 -8,20 -17,41 -26,63 -12,27 -35,82 -68,165 -33,83 -76,191 -129,324 -53,133 -100,252 -142,355 142,367 243,618 302,754 26,58 53,108 82,148 29,41 49,66 60,76 11,10 19,17 24,20l-312 -3c1,-2 3,-5 6,-10 3,-5 6,-15 10,-30 4,-15 7,-32 8,-50 1,-18 -1,-43 -7,-75 -6,-32 -17,-65 -31,-99 -95,-240 -167,-422 -217,-547 -131,314 -232,539 -302,675 -4,5 -8,12 -12,19 -224,445 -498,586 -821,425 -65,-33 -125,-78 -181,-136 -55,-58 -100,-121 -135,-188 -34,-67 -63,-139 -84,-215 -22,-76 -32,-149 -30,-219 1,-70 11,-137 28,-200 77,-229 184,-303 320,-223 28,16 54,39 76,68 22,29 38,54 46,76l10 30c-38,-60 -79,-97 -123,-112 -44,-15 -91,-5 -141,30 -46,33 -82,87 -107,163 -26,76 -37,152 -34,229z"/>
  <path fill="black" fill-rule="nonzero" d="M12962 16747c8,2 19,5 31,10 13,5 35,20 68,45 32,25 61,57 86,95 25,38 47,95 66,172 19,76 28,164 26,264 -4,196 -6,452 -6,769 0,317 1,611 2,884 1,272 2,410 2,414 0,76 3,144 8,204 5,60 12,106 18,139 7,33 14,60 21,82 7,22 14,36 19,44l8 8c-7,0 -16,0 -27,-1 -11,-1 -32,-8 -61,-22 -29,-14 -54,-34 -76,-61 -22,-27 -42,-71 -60,-131 -18,-60 -27,-133 -27,-218l2 -2197c-1,-80 -6,-152 -14,-215 -8,-64 -17,-112 -26,-146 -9,-34 -19,-61 -28,-83 -9,-22 -17,-36 -22,-44l-10 -11zm-1162 594c-57,11 -107,2 -152,-26 -45,-28 -78,-67 -99,-116 -22,-49 -31,-106 -28,-170 3,-64 21,-126 55,-184 37,-64 96,-103 178,-117 82,-15 170,0 262,44 38,20 70,47 97,80 27,34 48,74 64,121 16,47 28,102 38,163 9,62 16,128 18,200 3,72 5,150 6,234 1,84 1,174 0,268 -1,260 16,464 52,614 36,150 95,241 177,274 46,18 91,23 136,15 45,-8 87,-23 128,-45 41,-22 77,-45 109,-71 32,-25 57,-47 76,-65 19,-18 28,-28 28,-30 -4,11 -10,25 -18,42 -8,17 -27,46 -56,87 -29,41 -60,76 -93,105 -33,29 -76,52 -129,69 -53,17 -107,19 -162,4 -257,-65 -392,-375 -406,-928 -1,-64 -1,-154 1,-271 2,-117 3,-223 2,-319 -1,-95 -6,-177 -15,-244 -14,-96 -40,-170 -78,-221 -39,-51 -83,-75 -133,-74 -50,2 -103,22 -160,60 -43,31 -72,83 -87,155 -15,73 -10,137 14,193 16,38 39,69 68,94 29,25 54,40 76,48l32 8z"/>
  <path fill="black" fill-rule="nonzero" d="M14925 19067l-71 19c5,-2 13,-6 23,-12 10,-6 26,-23 49,-49 22,-26 39,-58 50,-94l531 -1732 55 -185 -357 8c-45,2 -75,15 -91,39 -16,25 -27,64 -32,118l-162 -248 953 -3c-1,0 -4,1 -9,3 -5,2 -13,6 -24,12 -12,6 -23,15 -33,26 -11,11 -23,27 -37,49 -14,22 -25,46 -34,74l-436 1408 -140 457c142,-9 305,38 489,142 184,103 410,265 677,485 123,102 248,177 376,226 128,49 242,72 343,68 101,-4 190,-21 268,-53 78,-32 137,-74 177,-127 41,-53 72,-111 95,-176 23,-64 40,-157 51,-276 0,11 1,25 2,42 1,17 2,50 3,98 1,48 -1,95 -6,140 -5,45 -14,96 -28,151 -14,55 -33,103 -58,143 -46,76 -100,139 -163,188 -63,49 -135,83 -215,102 -80,19 -171,16 -272,-10 -101,-25 -207,-74 -317,-147 -66,-44 -165,-114 -295,-211 -130,-97 -250,-184 -359,-261 -109,-77 -226,-154 -351,-230 -125,-76 -242,-131 -351,-165 -109,-34 -202,-40 -279,-20 -8,2 -15,2 -20,0z"/>
 </g>
</svg>
