<?xml version="1.0" encoding="UTF-8"?>
<!DOCTYPE svg PUBLIC "-//W3C//DTD SVG 1.1//EN" "http://www.w3.org/Graphics/SVG/1.1/DTD/svg11.dtd">
<!-- Creator: CorelDRAW 2017 -->
<svg xmlns="http://www.w3.org/2000/svg" xml:space="preserve" width="210mm" height="297mm" version="1.1" shape-rendering="geometricPrecision" text-rendering="geometricPrecision" image-rendering="optimizeQuality" fill-rule="evenodd" clip-rule="evenodd"
viewBox="0 0 21000 29700"
 xmlns:xlink="http://www.w3.org/1999/xlink">
 <g id="Layer_x0020_1">
  <metadata id="CorelCorpID_0Corel-Layer"/>
  <path fill="black" fill-rule="nonzero" d="M2541 1948c-44,45 -83,104 -118,175 -78,167 -116,373 -116,617l53 0c0,-65 18,-122 53,-169 35,-47 78,-71 128,-71 50,0 92,24 128,71 35,47 53,104 53,169l53 0c0,-245 -39,-450 -118,-617 -33,-68 -71,-126 -116,-175zm-789 1586l502 -1893 565 0 493 1893 -545 0 -45 -238 -383 0 -42 238 -545 0z"/>
  <path fill="black" fill-rule="nonzero" d="M5405 2180c-28,-61 -62,-114 -101,-158 -96,-104 -216,-156 -360,-156l0 72c38,0 71,24 99,71 27,48 41,105 41,171 0,68 -14,125 -41,173 -28,47 -61,70 -99,70l0 72c142,0 262,-53 360,-158 40,-44 74,-97 101,-157zm131 715c-39,-63 -83,-115 -131,-156 -124,-106 -277,-158 -461,-158l0 71c49,0 91,24 127,71 35,48 53,105 53,172 0,68 -18,125 -53,172 -35,47 -78,71 -127,71l0 71c185,0 338,-52 461,-156 49,-41 93,-93 131,-158zm-868 598l0 -1893 761 0c164,0 291,46 382,138 92,92 138,218 138,379 0,104 -22,190 -65,256 -43,70 -104,114 -184,134 108,28 189,78 241,151 54,75 80,175 80,300 0,176 -50,309 -151,400 -100,90 -248,136 -442,136l-760 0z"/>
  <path fill="black" fill-rule="nonzero" d="M8023 3421c-55,30 -110,53 -164,68 -56,15 -112,23 -167,23 -70,0 -136,-10 -197,-30 -64,-20 -121,-50 -173,-89 -126,-95 -220,-218 -282,-366 -65,-147 -97,-316 -97,-507 0,-140 18,-271 55,-394 36,-119 90,-225 159,-319 71,-93 152,-163 243,-211 93,-48 193,-71 299,-71 28,0 57,1 85,4 29,3 57,9 84,21l163 71 -1 385 -6 0c-233,0 -427,86 -583,258 -67,72 -122,157 -166,257 45,102 100,187 166,254 156,172 350,259 583,259l3 0 -3 388zm0 -507c-63,0 -116,-39 -160,-116 -44,-77 -66,-171 -66,-280 0,-108 22,-201 66,-278 44,-77 97,-116 160,-116l6 0 -3 790 -3 0z"/>
  <path fill="black" fill-rule="nonzero" d="M9481 3480l0 -432c221,-3 408,-88 562,-257 65,-68 120,-153 166,-254 -45,-100 -100,-185 -166,-257 -152,-166 -340,-252 -562,-258l0 -436 410 0c131,0 243,10 334,28 92,21 167,51 225,91 121,86 214,201 281,343 66,145 98,306 98,487 0,178 -33,339 -98,483 -64,140 -157,254 -281,343 -64,42 -139,73 -228,91 -92,19 -214,28 -368,28l-374 0zm0 -551l0 -786c58,10 106,53 146,127 40,75 59,163 59,265 0,103 -20,192 -59,268 -40,75 -88,117 -146,126z"/>
  <polygon fill="black" fill-rule="nonzero" points="11751,3441 11751,1548 12694,1548 12694,2061 12249,2061 12249,2244 12653,2244 12653,2728 12249,2728 12249,2929 12706,2929 12706,3441 "/>
  <polygon fill="black" fill-rule="nonzero" points="14006,3490 14006,1596 14947,1596 14947,2109 14513,2109 14513,2330 14906,2330 14906,2815 14513,2815 14513,3490 "/>
  <path fill="black" fill-rule="nonzero" d="M16753 2352l542 0c2,51 3,79 3,87 1,13 1,29 1,49 0,112 -8,211 -23,298 -16,89 -38,169 -68,237 -72,162 -164,286 -278,372 -112,85 -242,128 -387,128 -109,0 -208,-24 -296,-72 -90,-45 -172,-115 -244,-211 -70,-91 -122,-198 -159,-319 -35,-122 -54,-252 -54,-390 0,-141 18,-272 55,-393 36,-122 89,-227 159,-317 69,-93 150,-163 242,-211 93,-49 192,-73 298,-73 143,0 271,42 384,128 114,87 205,211 276,373l-451 225c-174,0 -320,64 -438,192 -48,53 -90,116 -124,192 34,77 75,141 124,192 118,128 264,192 438,192 23,-5 34,-21 31,-49 -3,-28 -13,-41 -31,-40 -47,0 -88,-28 -121,-86 -33,-57 -49,-127 -49,-210 0,-82 16,-151 49,-209 33,-58 73,-87 121,-87z"/>
  <polygon fill="black" fill-rule="nonzero" points="1989,7945 1989,6051 2497,6051 2497,6681 2805,6681 2805,6051 3312,6051 3312,7945 2805,7945 2805,7277 2497,7277 2497,7945 "/>
  <path fill="black" fill-rule="nonzero" d="M4858 7939l0 -1893 515 0 0 1893 -515 0zm918 -2457c-38,68 -87,127 -146,178 -139,118 -311,177 -518,177 -206,0 -379,-59 -518,-177 -58,-50 -107,-108 -147,-178 40,-68 89,-127 147,-177 139,-118 313,-178 518,-178 207,0 380,59 518,178 59,51 108,111 146,177zm-664 -274c-56,0 -104,27 -143,80 -40,53 -59,118 -59,193 0,75 20,140 59,194 39,53 87,80 143,80 56,0 103,-26 142,-80 39,-53 59,-118 59,-194 0,-75 -20,-140 -59,-193 -39,-53 -86,-80 -142,-80z"/>
  <path fill="black" fill-rule="nonzero" d="M6955 7087l0 -1046 507 0 0 1231c0,104 -5,188 -16,251 -12,64 -29,120 -52,170 -44,93 -102,164 -173,215 -73,50 -154,75 -243,75 -88,0 -165,-17 -231,-49 -69,-33 -136,-85 -199,-157l166 -509c27,42 53,73 79,93 25,20 47,30 66,30 36,0 62,-19 76,-57 13,-37 20,-119 20,-247z"/>
  <path fill="black" fill-rule="nonzero" d="M8592 7926l0 -1893 579 0 0 405 320 -405 575 0 -546 931 607 962 -614 0 -341 -391 0 391 -579 0zm897 -549l0 -93c-63,0 -118,-30 -163,-92 -45,-62 -68,-136 -68,-223 0,-87 23,-160 68,-221 45,-61 99,-91 163,-91l0 -95c-237,0 -435,68 -595,204 -66,57 -123,124 -168,203 46,79 102,147 168,204 160,136 359,203 595,203z"/>
  <polygon fill="black" fill-rule="nonzero" points="11253,7939 11253,6046 11762,6046 11762,7325 12253,7325 12253,7939 "/>
  <path fill="black" fill-rule="nonzero" d="M14678 7947l-83 -508 -226 508 -301 0 -224 -508 -83 508 -497 0 240 -1893 523 0 192 409 10 0 201 -409 521 0 225 1893 -497 0zm142 -979c-35,-60 -79,-113 -129,-158 -124,-106 -277,-158 -461,-158 -183,0 -337,53 -461,158 -49,41 -93,94 -130,158 38,64 82,116 130,156 122,104 276,156 461,156 185,0 338,-52 461,-156 51,-42 94,-95 129,-156zm-590 -243c49,0 91,24 126,71 35,48 52,105 52,170 0,68 -17,125 -52,172 -35,47 -77,71 -126,71 -49,0 -92,-24 -126,-71 -35,-47 -52,-104 -52,-172 0,-65 17,-122 52,-170 35,-48 77,-71 126,-71z"/>
  <path fill="black" fill-rule="nonzero" d="M17186 6858c-36,-60 -79,-113 -129,-158 -124,-106 -277,-158 -461,-158 -184,0 -337,53 -461,158 -50,44 -94,97 -130,158 36,63 80,115 130,156 122,104 275,156 461,156 185,0 338,-52 461,-156 51,-42 93,-95 129,-156zm-590 -243c49,0 91,24 126,71 35,48 53,105 53,170 0,68 -17,125 -53,172 -35,47 -77,71 -126,71 -49,0 -92,-24 -127,-71 -35,-47 -52,-104 -52,-172 0,-65 17,-122 52,-170 35,-48 77,-71 127,-71zm-685 1222l0 -1893 498 0 425 443 -4 -443 489 0 0 1893 -501 0 -421 -436 4 436 -489 0z"/>
  <path fill="black" fill-rule="nonzero" d="M3209 11390c-36,-60 -80,-113 -130,-158 -125,-104 -279,-156 -461,-156 -182,0 -336,52 -461,156 -51,46 -94,98 -131,158 35,60 78,113 131,157 124,106 278,158 461,158 183,0 337,-53 461,-158 51,-44 95,-97 130,-157zm-591 -243c48,0 91,24 126,72 35,48 53,105 53,171 0,68 -18,125 -53,173 -35,47 -77,70 -126,70 -50,0 -92,-23 -127,-70 -35,-48 -52,-105 -52,-173 0,-66 17,-124 52,-171 35,-48 77,-72 127,-72zm768 279c0,135 -18,264 -55,389 -36,118 -91,225 -162,320 -70,91 -151,162 -244,211 -92,49 -189,73 -293,73 -106,0 -204,-24 -295,-73 -93,-48 -175,-120 -246,-215 -70,-91 -122,-196 -159,-315 -35,-120 -53,-250 -53,-391 0,-138 18,-268 53,-388 35,-118 89,-225 159,-319 70,-90 151,-161 244,-211 91,-49 189,-73 296,-73 106,0 205,24 296,73 92,50 173,121 244,211 68,93 121,199 159,319 36,120 55,250 55,388z"/>
  <path fill="black" fill-rule="nonzero" d="M5352 11145c-35,-60 -79,-113 -129,-158 -124,-106 -277,-158 -461,-158l0 72c48,0 91,24 126,71 35,48 53,105 53,172 0,68 -18,125 -53,172 -35,47 -77,70 -126,70l0 72c183,0 336,-52 461,-156 50,-43 93,-95 129,-157zm-1014 1256l0 -1893 605 0c212,0 368,55 466,166 99,109 149,284 149,524 0,224 -45,387 -133,490 -89,102 -230,153 -421,153l-159 0 0 561 -507 0z"/>
  <path fill="black" fill-rule="nonzero" d="M7718 11419c-37,-62 -80,-115 -131,-158 -124,-106 -277,-158 -461,-158 -183,0 -336,53 -461,158 -50,44 -94,97 -130,158 36,63 80,115 130,156 123,104 276,156 461,156 185,0 338,-52 461,-156 50,-41 93,-93 131,-156zm-153 1129l-101 -190c-13,8 -23,13 -29,15 -92,50 -190,74 -293,74 -106,0 -204,-24 -295,-74 -92,-48 -174,-118 -245,-213 -70,-93 -123,-198 -159,-317 -36,-119 -54,-248 -54,-388 0,-137 18,-267 54,-391 35,-119 88,-225 159,-317 73,-94 154,-165 244,-213 91,-49 190,-73 297,-73 105,0 204,24 296,73 90,49 171,120 244,213 69,92 121,198 159,319 36,120 55,249 55,389 0,140 -18,268 -55,386 -24,77 -55,147 -90,211l215 259 -400 237zm-438 -1373c49,0 91,24 126,71 35,48 53,105 53,170 0,68 -17,125 -53,172 -35,47 -77,71 -126,71 -49,0 -92,-24 -126,-71 -34,-47 -51,-104 -51,-172 0,-65 17,-122 51,-170 34,-48 76,-71 126,-71z"/>
  <path fill="black" fill-rule="nonzero" d="M10016 11233c-35,-60 -79,-113 -129,-158 -124,-106 -278,-158 -461,-158l0 72c48,0 91,24 126,71 35,48 53,105 53,172 0,68 -18,125 -53,172 -35,47 -77,70 -126,70l0 72c182,0 336,-52 461,-156 50,-43 93,-95 129,-157zm-990 1256l0 -1893 638 0c184,0 325,55 422,164 98,109 146,267 146,473 0,136 -24,246 -73,332 -49,87 -115,138 -199,153l376 772 -568 0 -245 -626 0 626 -497 0z"/>
  <path fill="black" fill-rule="nonzero" d="M11779 12327l162 -530c70,67 134,116 194,149 54,32 107,47 159,47 35,0 62,-9 82,-26 20,-16 30,-40 30,-71 0,-51 -49,-92 -149,-121 -40,-11 -65,-18 -76,-21 -105,-35 -186,-97 -242,-185 -55,-84 -82,-194 -82,-328 0,-202 54,-367 161,-496 108,-129 250,-192 427,-192 79,0 158,14 239,43 78,29 157,72 237,130l-154 494c-52,-49 -102,-86 -148,-109 -46,-25 -94,-38 -142,-38 -36,0 -63,8 -81,23 -20,15 -30,37 -30,66 0,55 70,102 210,142 26,8 44,14 52,17 94,29 171,88 229,178 57,90 84,200 84,329 0,209 -57,380 -170,513 -113,132 -258,198 -438,198 -95,0 -187,-18 -278,-53 -89,-32 -181,-84 -277,-158z"/>
  <path fill="black" fill-rule="nonzero" d="M13955 12548l0 -1164 -282 0 0 -730 1070 0 0 730 -282 0 0 1164 -505 0zm673 -1531c-28,-43 -58,-77 -91,-104 -85,-70 -191,-104 -318,-104 -129,0 -236,35 -320,104 -35,28 -65,63 -92,104 26,41 57,76 92,104 84,69 191,104 320,104 127,0 232,-35 318,-104 33,-25 63,-60 91,-104zm-409 -160c82,0 124,53 124,160 0,107 -41,160 -124,160 -83,0 -125,-53 -125,-160 0,-107 42,-160 125,-160z"/>
  <path fill="black" fill-rule="nonzero" d="M16560 10718l507 0 0 1026c0,132 -7,243 -20,332 -14,88 -35,161 -63,218 -59,121 -136,211 -232,272 -95,63 -207,95 -333,95 -129,0 -241,-32 -336,-95 -96,-60 -174,-151 -232,-272 -28,-54 -48,-125 -60,-215 -13,-89 -20,-201 -20,-335l0 -1026 223 0 283 0 0 0c-66,157 -100,350 -100,579 0,246 39,452 118,618 32,69 70,127 116,175 44,-45 83,-104 116,-175 79,-166 118,-373 118,-618 0,-227 -33,-420 -100,-579l11 0zm-327 579c0,-66 17,-122 53,-169 35,-47 78,-71 128,-71 49,0 92,24 128,71 36,48 54,104 54,169 0,66 -18,123 -54,169 -35,47 -78,70 -128,70 -51,0 -93,-23 -128,-70 -35,-46 -53,-103 -53,-169z"/>
  <path fill="black" fill-rule="nonzero" d="M3854 16859l-538 -1893 549 0c40,189 81,376 124,563 42,187 73,376 94,570l10 0c25,-192 59,-382 103,-570 43,-187 86,-375 128,-564l539 0 -536 1893 -472 0z"/>
  <path fill="black" fill-rule="nonzero" d="M7295 15913c-37,-60 -80,-113 -131,-156 -124,-106 -277,-158 -461,-158 -183,0 -336,53 -459,158 -50,42 -94,95 -132,156 36,64 81,116 132,158 122,104 275,156 459,156 185,0 338,-52 461,-156 52,-43 95,-96 131,-158zm-592 -241c50,0 92,23 127,71 35,47 53,104 53,171 0,68 -17,125 -53,172 -35,47 -77,71 -127,71 -48,0 -90,-24 -125,-71 -35,-47 -52,-105 -52,-172 0,-67 17,-124 52,-171 35,-48 77,-71 125,-71zm-17 779l-146 405 -442 0 -411 -1893 509 0 143 588 12 0 167 -588 359 0 165 588 13 0 142 -588 510 0 -413 1893 -442 0 -146 -405 -17 0z"/>
  <path fill="black" fill-rule="nonzero" d="M10037 15212c-56,4 -113,22 -170,55 -134,75 -253,215 -358,419 -104,202 -159,402 -164,597 -3,79 5,158 23,236 58,-5 115,-24 170,-56 135,-77 254,-217 358,-421 103,-201 158,-400 164,-597 3,-82 -4,-160 -23,-232zm-483 515c27,-54 65,-87 114,-99 49,-12 93,1 135,39 41,39 67,91 76,156 10,66 0,125 -26,180 -28,54 -67,86 -116,98 -49,12 -94,-2 -134,-40 -42,-37 -68,-89 -76,-154 -9,-65 0,-125 29,-179zm150 781l-207 383 -649 0 414 -1032 -349 -862 642 0 149 213 151 -213 639 0 -347 862 413 1032 -649 0 -207 -383z"/>
  <path fill="black" fill-rule="nonzero" d="M11593 16927l0 -837 -472 -1056 660 0 157 511 3 14c24,-88 50,-176 77,-263 27,-86 55,-174 83,-262l662 0 -489 1056 0 837 -681 0z"/>
  <path fill="black" fill-rule="nonzero" d="M14526 15431c-59,0 -116,14 -173,42 -136,65 -261,195 -375,390 -113,195 -176,390 -190,586 -6,80 -1,159 12,236 60,-1 118,-15 173,-43 136,-66 261,-196 375,-392 112,-194 175,-388 190,-583 5,-80 1,-159 -13,-236zm-504 477c29,-51 69,-81 118,-89 50,-8 94,8 134,50 39,41 62,95 69,161 7,66 -5,125 -35,176 -31,53 -71,83 -120,91 -49,8 -93,-10 -133,-51 -39,-41 -62,-93 -69,-160 -6,-66 6,-125 36,-178zm-689 1092l630 -1330 -493 0 0 -564 1507 0 -614 1308 545 0 0 585 -1576 0z"/>
  <path fill="black" fill-rule="nonzero" d="M3646 19877c0,-304 54,-543 162,-716 107,-174 256,-262 445,-262 189,0 337,87 444,260 108,174 162,413 162,718 0,310 -54,550 -162,722 -106,174 -255,261 -444,261 -188,0 -337,-88 -445,-264 -108,-174 -162,-413 -162,-719zm493 0c0,133 9,234 27,300 18,63 47,95 87,95 38,0 66,-31 84,-93 19,-63 28,-163 28,-302 0,-135 -10,-234 -28,-298 -19,-64 -47,-96 -84,-96 -40,0 -69,32 -87,95 -18,61 -27,162 -27,299z"/>
  <polygon fill="black" fill-rule="nonzero" points="6880,19478 6669,19478 6669,18905 7385,18905 7385,20780 6880,20780 "/>
  <path fill="black" fill-rule="nonzero" d="M9097 20811l629 -1007c31,-49 52,-89 63,-118 11,-32 17,-62 17,-93 0,-38 -8,-67 -23,-87 -16,-21 -37,-32 -63,-32 -34,0 -57,18 -70,53 -15,35 -23,91 -23,168l-471 0 0 -23c0,-243 51,-432 153,-570 101,-136 242,-203 421,-203 172,0 310,64 413,190 104,127 156,293 156,497 0,108 -18,207 -55,294 -37,89 -99,181 -184,275l-118 132 355 0 0 523 -1202 0z"/>
  <path fill="black" fill-rule="nonzero" d="M12061 19674l21 0c42,0 75,-10 98,-32 22,-22 33,-54 33,-98 0,-35 -7,-62 -21,-81 -15,-20 -35,-30 -58,-30 -24,0 -43,12 -55,34 -13,24 -20,57 -20,100l-464 0c1,-206 49,-363 143,-471 93,-107 229,-160 409,-160 158,0 286,49 383,147 96,98 144,226 144,383 0,98 -17,178 -50,239 -35,63 -85,110 -151,142 81,25 144,75 188,151 43,76 65,172 65,290 0,187 -53,335 -157,445 -106,109 -248,164 -426,164 -193,0 -343,-64 -449,-190 -108,-125 -162,-301 -162,-524l0 -3 484 0c1,64 11,111 30,143 18,33 44,49 77,49 33,0 59,-14 80,-43 20,-26 30,-63 30,-109 0,-51 -12,-91 -35,-120 -23,-28 -57,-42 -101,-42 -5,0 -10,0 -13,0 -3,0 -7,0 -10,0 -3,1 -8,2 -14,2l0 -383z"/>
  <path fill="black" fill-rule="nonzero" d="M14028 20057l201 0 0 -256c0,-38 1,-79 3,-125 1,-23 3,-51 7,-86 -12,37 -24,71 -35,102 -7,19 -27,63 -60,134l-115 232zm164 871l0 -377 -603 0 0 -494 528 -1022 557 0 0 1022 151 0 0 494 -151 0 0 377 -483 0z"/>
  <path fill="black" fill-rule="nonzero" d="M3704 24316l133 -1126 873 0 0 506 -555 0 -15 113c22,-3 53,-6 94,-11 43,-3 74,-4 94,-4 155,0 276,55 362,166 88,109 132,260 132,452 0,224 -57,397 -172,521 -115,123 -275,185 -479,185 -97,0 -192,-15 -285,-44 -90,-28 -176,-70 -259,-128l63 -528c112,61 200,104 267,126 73,25 138,38 195,38 69,0 118,-12 149,-34 31,-24 46,-61 46,-111 0,-58 -23,-103 -70,-136 -46,-32 -112,-47 -198,-47 -42,0 -93,5 -154,15 -41,8 -116,23 -222,47z"/>
  <path fill="black" fill-rule="nonzero" d="M7016 23762c3,0 5,0 8,-1 3,-1 6,-1 10,-1 3,0 7,0 12,0 6,0 12,0 18,0 140,0 250,52 329,155 78,104 116,248 116,433 0,236 -57,427 -170,575 -113,149 -259,223 -438,223 -179,0 -325,-72 -438,-215 -114,-144 -171,-327 -171,-551 0,-131 23,-259 69,-386 47,-131 138,-304 273,-521l166 -264 660 0 -444 552zm-116 807c35,0 63,-17 85,-51 22,-34 33,-78 33,-132 0,-54 -11,-98 -33,-132 -22,-34 -50,-51 -85,-51 -35,0 -63,17 -86,51 -22,34 -33,78 -33,132 0,55 11,99 33,132 23,34 51,51 86,51z"/>
  <polygon fill="black" fill-rule="nonzero" points="9119,25138 9620,23845 9130,23845 9130,23264 10394,23264 9689,25138 "/>
  <path fill="black" fill-rule="nonzero" d="M11728 23998c-76,-29 -133,-77 -171,-145 -40,-64 -60,-145 -60,-243 0,-154 51,-284 154,-387 103,-100 235,-151 397,-151 161,0 294,50 397,151 102,102 153,231 153,387 0,97 -20,178 -59,243 -39,66 -96,115 -170,145 88,38 156,96 205,174 47,78 71,169 71,274 0,177 -54,319 -163,426 -107,107 -253,160 -435,160 -182,0 -326,-53 -435,-160 -109,-106 -163,-248 -163,-426 0,-104 24,-196 72,-274 47,-78 116,-136 206,-174zm319 -177c24,0 44,-12 58,-36 15,-23 23,-54 23,-94 0,-41 -7,-73 -21,-98 -16,-24 -35,-35 -59,-35 -25,0 -44,12 -58,35 -14,26 -21,58 -21,98 0,39 7,70 21,94 15,24 34,36 58,36zm1 743c32,0 58,-15 77,-47 21,-33 31,-76 31,-130 0,-51 -10,-94 -30,-126 -21,-32 -47,-48 -79,-48 -32,0 -58,16 -77,48 -21,33 -31,76 -31,126 0,53 10,95 31,128 19,33 45,49 77,49z"/>
  <path fill="black" fill-rule="nonzero" d="M14058 24449c-8,0 -15,1 -20,2 -3,0 -8,0 -13,0 -5,0 -11,0 -18,0 -139,0 -248,-53 -327,-159 -81,-108 -121,-252 -121,-433 0,-78 8,-156 24,-232 18,-75 42,-144 73,-205 54,-109 126,-196 216,-258 86,-59 186,-89 301,-89 177,0 323,71 438,213 113,142 170,324 170,545 0,131 -23,259 -69,384 -47,129 -137,302 -271,517l-165 264 -662 0 443 -548zm117 -801c-36,0 -64,16 -84,49 -23,33 -34,78 -34,132 0,55 11,98 34,130 21,33 48,49 84,49 36,0 65,-16 85,-49 22,-33 33,-76 33,-130 0,-53 -11,-97 -33,-132 -23,-33 -52,-49 -85,-49z"/>
 </g>
</svg>
