<?xml version="1.0" encoding="UTF-8"?>
<!DOCTYPE svg PUBLIC "-//W3C//DTD SVG 1.1//EN" "http://www.w3.org/Graphics/SVG/1.1/DTD/svg11.dtd">
<!-- Creator: CorelDRAW 2017 -->
<svg xmlns="http://www.w3.org/2000/svg" xml:space="preserve" width="210mm" height="297mm" version="1.1" shape-rendering="geometricPrecision" text-rendering="geometricPrecision" image-rendering="optimizeQuality" fill-rule="evenodd" clip-rule="evenodd"
viewBox="0 0 21000 29700"
 xmlns:xlink="http://www.w3.org/1999/xlink">
 <g id="Layer_x0020_1">
  <metadata id="CorelCorpID_0Corel-Layer"/>
  <path fill="black" fill-rule="nonzero" d="M2245 4934c5,-38 173,-423 506,-1157 169,-371 337,-741 506,-1110l18 0c21,39 199,419 533,1140 334,721 507,1098 521,1133l-446 182c-37,-72 -74,-142 -110,-212 -78,-147 -123,-231 -136,-252l-686 0c-11,31 -45,113 -104,247 -58,134 -90,206 -97,216l-506 -188zm1255 -778c-71,-159 -142,-322 -216,-489 0,2 -33,83 -98,243 -66,160 -99,242 -99,246l413 0z"/>
  <path fill="black" fill-rule="nonzero" d="M4974 5045c2,-12 22,-402 61,-1167 39,-766 59,-1150 59,-1152 37,-8 117,-20 239,-34 167,-19 303,-27 407,-25 230,2 399,57 506,164 84,82 123,186 117,312 -8,91 -23,173 -46,247 -54,177 -140,295 -258,355 95,31 170,99 225,204 67,126 97,292 87,500 -17,132 -56,244 -117,337 -147,224 -393,337 -736,337 -163,0 -344,-26 -545,-77zm483 -451c17,0 41,1 72,3 31,2 54,3 68,3 63,0 108,-14 136,-43 34,-37 52,-107 55,-209 5,-153 -60,-230 -193,-230 -34,0 -71,5 -113,15l-25 460zm60 -1059c21,4 42,6 62,6 77,0 137,-27 182,-81 38,-48 57,-105 55,-171 -5,-91 -54,-137 -150,-137 -23,0 -49,3 -78,9 -18,2 -36,5 -53,9l-18 364z"/>
  <path fill="black" fill-rule="nonzero" d="M8972 4836c-213,119 -446,205 -697,258 -84,19 -165,28 -242,28 -322,0 -571,-147 -745,-441 -137,-228 -205,-481 -205,-759 0,-27 1,-53 2,-77 23,-298 127,-552 311,-762 247,-277 604,-416 1070,-416 78,0 160,4 246,12 9,37 -53,284 -186,741 -32,0 -64,0 -94,0 -192,0 -344,50 -458,150 -103,90 -154,199 -154,330 0,47 8,94 25,141 51,149 164,222 340,220 80,0 178,-27 294,-82 71,-34 142,-69 214,-103l278 761z"/>
  <path fill="black" fill-rule="nonzero" d="M9783 2658c400,43 686,89 856,136 324,93 552,248 686,466 92,150 132,317 120,500 -26,453 -212,802 -557,1047 -291,204 -638,306 -1040,306 -69,0 -137,-3 -202,-9 46,-813 92,-1629 138,-2446zm467 1572c110,14 207,-14 290,-86 90,-80 136,-193 136,-337 0,-206 -127,-324 -380,-355l-46 778z"/>
  <path fill="black" fill-rule="nonzero" d="M13220 5129c-52,-2 -262,-19 -630,-49 -377,-31 -565,-47 -564,-49 41,-784 83,-1570 124,-2357 383,29 770,56 1159,80l-25 540c-167,-20 -337,-39 -508,-59l-9 225c104,14 227,25 368,31l-48 849c-26,0 -88,-5 -186,-14 -98,-9 -158,-15 -179,-17l-21 318c87,8 174,16 260,25 178,19 273,27 285,25l-25 451z"/>
  <path fill="black" fill-rule="nonzero" d="M14957 5051c-219,23 -437,43 -653,62 -35,-776 -71,-1554 -108,-2332 379,-39 760,-80 1143,-124l28 531c-166,10 -334,22 -504,34l14 222c104,-4 225,-15 363,-34l37 840c-26,4 -86,10 -181,19 -94,8 -152,13 -174,15l35 766z"/>
  <path fill="black" fill-rule="nonzero" d="M17863 4749c-167,253 -394,383 -681,389 -239,4 -436,-78 -591,-247 -167,-179 -267,-442 -299,-788 -5,-49 -7,-100 -7,-151 0,-336 90,-632 270,-888 180,-256 389,-385 627,-385 195,0 377,94 548,281 6,8 -48,95 -161,261 -113,166 -175,247 -184,242 -51,-29 -100,-43 -150,-43 -106,0 -196,64 -271,191 -66,115 -97,234 -94,355 3,144 35,259 94,346 60,86 145,130 255,130 28,0 57,-3 87,-9 106,-21 169,-92 191,-213 -178,-159 -275,-242 -290,-250l761 -371c8,60 16,120 25,182 14,119 21,230 21,330 0,274 -51,486 -152,636z"/>
  <path fill="black" fill-rule="nonzero" d="M2406 8562c-49,-758 -99,-1514 -150,-2270l548 -65c2,-6 10,102 25,324 6,109 13,218 21,327l603 -68c-25,-395 -39,-609 -44,-642l534 -62c52,752 104,1502 154,2252l-575 71c-11,-138 -28,-399 -53,-784l-531 65c29,484 46,745 51,784l-582 68z"/>
  <path fill="black" fill-rule="nonzero" d="M4744 8519c11,-68 51,-476 120,-1223 67,-729 102,-1119 104,-1171l775 62c-6,31 -45,428 -117,1191 -72,763 -109,1165 -110,1206l-771 -65z"/>
  <path fill="black" fill-rule="nonzero" d="M6403 8034c86,-43 173,-86 260,-130 97,-49 168,-109 214,-179 61,-91 97,-218 108,-383l32 -482c11,-124 21,-247 32,-371 18,-226 27,-355 25,-386l564 59c-18,93 -41,346 -69,760l-32 485c-21,317 -110,572 -267,766 -135,169 -327,299 -575,389l-292 -528z"/>
  <path fill="black" fill-rule="nonzero" d="M9685 7188c84,-121 198,-288 340,-500l-405 -565c-92,163 -271,484 -538,964l0 -3c-6,-138 -12,-275 -18,-411 -14,-286 -18,-440 -14,-460l-591 46c8,37 31,420 71,1147 40,728 60,1119 60,1172l557 -65c-2,-2 -5,-56 -10,-162 -5,-106 -8,-170 -8,-193l225 -324c58,68 137,169 235,303 107,148 178,253 212,315l398 -553c-144,-191 -315,-428 -513,-710z"/>
  <path fill="black" fill-rule="nonzero" d="M12271 8360c-712,121 -1067,182 -1067,182 -2,2 -35,-384 -99,-1158 -67,-782 -103,-1185 -106,-1208l531 -93c-2,6 44,543 136,1609 321,-56 481,-83 481,-83l124 751z"/>
  <path fill="black" fill-rule="nonzero" d="M12968 8423c12,-43 235,-781 667,-2214 15,10 123,138 324,383 201,245 303,377 306,395 -3,-21 86,-167 267,-440 94,-143 188,-284 283,-425l803 2115 -600 251c-3,-6 -64,-148 -183,-426 -119,-278 -179,-419 -181,-423 2,4 -111,201 -338,590 -5,-2 -133,-179 -384,-531 -95,277 -194,570 -297,880l-667 -154z"/>
  <path fill="black" fill-rule="nonzero" d="M16244 8193c5,4 94,-696 269,-2100 66,91 238,291 515,601 265,295 406,458 423,486 29,-270 60,-547 92,-831l571 164c-9,53 -97,732 -262,2035 -43,-47 -103,-110 -179,-188 -186,-185 -445,-427 -778,-726 -28,189 -59,411 -94,664l-557 -105z"/>
  <path fill="black" fill-rule="nonzero" d="M3047 9604c275,0 493,102 656,306 170,214 255,507 255,877 0,303 -76,574 -228,815 -189,305 -456,457 -803,457 -273,0 -492,-111 -658,-334 -161,-212 -242,-484 -242,-815 0,-348 89,-647 267,-896 192,-274 442,-411 752,-411zm-41 1600c67,0 130,-29 189,-86 80,-78 120,-195 122,-349 0,-136 -35,-238 -106,-306 -54,-54 -114,-80 -182,-80 -72,0 -139,33 -200,99 -75,82 -113,194 -113,334 0,124 37,223 110,300 60,60 120,90 179,90z"/>
  <path fill="black" fill-rule="nonzero" d="M4971 12087c-2,-4 -106,-778 -313,-2323 391,-95 675,-141 851,-139 373,6 582,176 628,510 5,37 7,76 7,117 0,211 -68,413 -205,606 -144,206 -344,370 -598,492l16 130c38,283 63,447 74,492l-460 114zm324 -1489c178,-27 268,-108 269,-243 2,-114 -61,-171 -189,-171 -41,0 -87,6 -138,19l58 395z"/>
  <path fill="black" fill-rule="nonzero" d="M8136 12096c-169,-37 -337,-74 -504,-111 -247,-72 -446,-194 -598,-364 -172,-194 -258,-456 -258,-788 0,-323 84,-599 251,-828 179,-245 410,-368 690,-368 245,0 445,96 598,289 153,193 230,446 230,761 -5,84 -18,168 -39,250 -52,198 -143,374 -271,528 21,12 115,57 281,133l-380 497zm-453 -973c66,0 128,-35 186,-105 66,-78 99,-176 99,-293 0,-103 -31,-189 -92,-259 -54,-62 -111,-93 -173,-93 -78,0 -149,41 -212,124 -63,82 -94,173 -94,272 0,103 34,190 101,263 58,62 120,93 184,93z"/>
  <path fill="black" fill-rule="nonzero" d="M10012 11289c2,0 -18,112 -59,335 -41,223 -61,339 -61,347l-529 -151c11,-33 76,-397 196,-1093 120,-696 180,-1058 182,-1087 147,41 294,82 442,124 189,54 324,99 407,136 147,68 263,156 349,266 85,109 128,230 128,361 0,43 -5,86 -14,130 -23,103 -62,190 -117,263 -34,43 -80,86 -138,130 -41,33 -61,55 -60,65 5,27 66,349 184,967l-575 15c2,-6 -13,-130 -44,-371 -31,-241 -48,-362 -53,-364 -40,-12 -79,-24 -116,-34 -38,-10 -75,-21 -112,-31l-9 -6zm110 -667c58,21 117,31 175,31 92,0 144,-31 156,-93 3,-19 5,-37 5,-56 0,-117 -92,-204 -276,-259 -34,208 -54,318 -60,330l0 46z"/>
  <path fill="black" fill-rule="nonzero" d="M11764 11307c41,16 83,33 124,49 77,29 146,43 209,43 28,0 54,-3 81,-9 100,-21 172,-98 216,-232 29,-86 54,-233 74,-439 9,-128 19,-255 30,-383 17,-169 48,-305 94,-408 61,-134 151,-225 269,-275 54,-23 106,-34 156,-34 117,0 238,76 363,229l-120 612c6,-2 -5,-17 -33,-45 -28,-28 -56,-42 -84,-42 -23,0 -44,11 -64,34 -55,64 -97,248 -124,553 -31,364 -61,595 -92,692 -31,97 -90,185 -177,266 -107,101 -229,154 -366,161 -153,6 -281,6 -382,0 -78,-4 -117,-9 -115,-15l-60 -757z"/>
  <path fill="black" fill-rule="nonzero" d="M14894 12083c0,0 -65,-554 -196,-1662l-448 90 -71 -612c172,-33 621,-125 1348,-275l69 595c-271,58 -425,92 -460,100l191 1674 -432 90z"/>
  <path fill="black" fill-rule="nonzero" d="M18199 10302c9,126 14,242 14,349 0,237 -23,442 -69,615 -38,148 -99,292 -182,432 -144,239 -343,358 -596,358 -155,0 -275,-23 -359,-68 -110,-60 -208,-177 -292,-352 -77,-161 -126,-277 -147,-349 -49,-167 -74,-374 -74,-621 0,-113 5,-239 16,-377 31,-416 55,-645 74,-689l561 124c-44,276 -67,515 -67,717 0,74 2,150 7,229 5,111 31,206 78,284 57,93 128,137 214,133 63,-4 120,-51 170,-142 41,-76 67,-158 78,-244 15,-128 23,-246 23,-355 0,-185 -26,-395 -78,-630l541 -96c11,66 21,133 32,201 25,165 43,325 55,482z"/>
  <path fill="black" fill-rule="nonzero" d="M3512 13346c156,319 339,692 548,1118 120,-385 246,-805 380,-1260l504 219c-218,638 -475,1384 -773,2236l-16 0c-77,-117 -279,-456 -607,-1016 -333,-570 -508,-869 -527,-896l492 -402z"/>
  <path fill="black" fill-rule="nonzero" d="M6286 13214c14,66 73,274 177,624 103,340 157,530 163,571 15,-29 123,-226 322,-593 29,62 113,279 251,652 12,-6 94,-181 244,-525 150,-344 239,-558 267,-642l433 318c-12,29 -320,712 -923,2051 -14,-2 -74,-93 -182,-272 -98,-167 -153,-265 -166,-293 3,10 -132,178 -405,503 -112,-354 -224,-708 -336,-1062 -196,-622 -311,-1011 -345,-1167l499 -164z"/>
  <path fill="black" fill-rule="nonzero" d="M8939 15216c81,-131 163,-264 244,-398 140,-228 205,-344 196,-348 -11,-6 -94,-84 -251,-234 -156,-150 -252,-244 -285,-281l315 -543c34,41 119,130 255,266 146,142 238,235 276,278 121,-198 266,-445 435,-741l373 395c-17,29 -87,160 -212,392 -112,208 -168,310 -168,306 81,93 163,184 244,275 198,235 298,354 301,358l-313 513c-28,-33 -127,-126 -299,-278 -176,-154 -277,-246 -301,-275 -143,230 -297,486 -462,769l-347 -453z"/>
  <path fill="black" fill-rule="nonzero" d="M12205 15564c9,-89 31,-303 64,-642 3,-25 -79,-246 -245,-664 -166,-418 -255,-632 -266,-642l456 -402c6,10 146,352 421,1025 6,-25 109,-166 309,-423 200,-257 310,-392 330,-405l403 515c-11,12 -152,190 -423,533 -273,350 -410,528 -412,534 -48,409 -71,634 -71,675l-566 -105z"/>
  <path fill="black" fill-rule="nonzero" d="M16103 15669c-21,-4 -507,-81 -1456,-231 9,8 136,-232 380,-721 244,-488 361,-734 352,-736 -9,-2 -205,-35 -587,-99l62 -669c0,0 482,80 1445,240 -43,62 -271,545 -683,1450 365,64 548,95 548,93l-60 672z"/>
  <path fill="black" fill-rule="nonzero" d="M4716 17770c5,350 -56,645 -183,886 -127,241 -293,372 -498,392 -209,21 -385,-70 -528,-272 -143,-202 -228,-467 -254,-797 -5,-70 -7,-140 -7,-210 0,-309 50,-565 150,-769 115,-237 286,-371 513,-402 21,-2 43,-3 64,-3 206,0 381,120 527,361 141,231 213,501 216,812zm-1008 154c31,282 135,411 313,386 74,-10 133,-55 177,-133 51,-84 72,-197 64,-337 -17,-338 -115,-507 -294,-507 -17,0 -35,2 -53,6 -144,25 -216,165 -216,420 0,51 3,106 9,164z"/>
  <path fill="black" fill-rule="nonzero" d="M6915 19079c0,2 -35,-544 -104,-1637 2,0 -83,-141 -253,-423 -2,0 219,-133 663,-398 49,803 99,1605 150,2406l-456 53z"/>
  <path fill="black" fill-rule="nonzero" d="M10413 19070c-67,4 -548,-27 -1442,-93 181,-171 357,-373 527,-605 236,-323 358,-585 366,-784 11,-264 -74,-395 -255,-395 -92,0 -213,30 -363,90l-202 -492c230,-117 436,-175 619,-175 256,0 452,110 587,330 107,175 155,363 143,565 -9,152 -37,291 -83,417 -35,95 -87,196 -154,303 -55,84 -111,169 -168,253l550 34 -122 553z"/>
  <path fill="black" fill-rule="nonzero" d="M12155 18468c193,10 281,15 262,15 229,0 344,-67 345,-201 3,-142 -53,-213 -168,-213 -46,0 -106,12 -179,37 -49,14 -99,30 -150,46l-60 -533c32,2 105,-19 219,-62 149,-56 222,-121 221,-198 -6,-143 -50,-214 -131,-214 -38,0 -93,18 -163,54 -63,36 -127,72 -191,107l-85 -513c172,-126 355,-188 550,-188 158,0 287,44 386,133 110,97 169,237 175,420 3,80 -5,163 -23,247 -25,119 -66,197 -124,232 149,4 247,130 294,377 20,103 29,225 28,368 -9,210 -75,368 -198,473 -98,84 -246,141 -444,170 -75,10 -267,23 -575,37l12 -593z"/>
  <path fill="black" fill-rule="nonzero" d="M15481 19018c0,-19 8,-185 23,-500l-863 -80 51 -559 828 -1276 577 59 -62 1226 269 15 -90 652 -223 -22c-14,327 -22,503 -25,528l-485 -43zm156 -1708l-451 547 451 31 0 -578z"/>
  <path fill="black" fill-rule="nonzero" d="M3489 21517c124,10 212,15 265,15 109,0 185,-18 228,-53 49,-35 77,-101 83,-200 14,-214 -171,-350 -554,-407l67 -1119c342,34 689,74 1040,120l-39 559 -488 -53 -18 90c216,60 374,168 474,324 78,119 117,261 117,426 0,33 -2,66 -7,99 -28,280 -104,489 -228,627 -155,175 -398,263 -729,263 -121,0 -254,-11 -398,-34l189 -658z"/>
  <path fill="black" fill-rule="nonzero" d="M7347 20161c-40,31 -79,61 -117,90 -77,60 -137,140 -182,240 193,0 346,98 458,293 97,169 143,363 140,583 -3,224 -74,421 -212,589 -138,168 -296,253 -474,253 -202,-2 -351,-58 -446,-167 -66,-74 -121,-171 -166,-291 -44,-120 -66,-235 -64,-344 2,-321 67,-635 198,-941 140,-321 321,-558 543,-712l322 407zm-350 1449c60,0 110,-30 150,-90 40,-60 60,-137 60,-232 0,-111 -26,-188 -78,-232 -40,-33 -99,-48 -177,-46 -40,2 -77,27 -113,76 -35,48 -53,107 -53,175 0,101 19,184 58,250 38,66 90,99 154,99z"/>
  <path fill="black" fill-rule="nonzero" d="M9262 21962c26,-60 123,-313 290,-760 164,-441 255,-688 271,-741l-665 0 -166 -695c914,0 1421,3 1521,9l-35 167c-55,173 -176,558 -361,1155 -202,653 -317,1028 -343,1127l-513 -263z"/>
  <path fill="black" fill-rule="nonzero" d="M12036 21508c0,-121 33,-244 99,-368 60,-113 130,-199 212,-256 -127,-74 -191,-229 -191,-463 0,-163 40,-305 120,-426 101,-152 246,-231 435,-235 158,-2 291,73 400,225 94,130 137,254 131,374 0,45 0,91 0,136 -2,80 -12,149 -30,207 -25,80 -64,137 -120,170 94,49 168,124 223,222 57,105 85,224 85,358 0,191 -44,356 -131,494 -115,181 -289,272 -522,272 -229,0 -408,-75 -538,-225 -115,-130 -173,-291 -173,-485zm849 -124c0,-78 -16,-140 -49,-185 -33,-45 -72,-68 -116,-68 -54,0 -96,25 -128,76 -31,50 -47,114 -47,190 0,70 16,127 49,171 33,44 73,66 121,66 48,0 88,-22 121,-65 33,-43 49,-105 49,-185zm-311 -874c0,56 13,103 40,142 27,39 59,59 98,59 40,0 74,-19 102,-56 28,-37 43,-89 43,-154 0,-134 -45,-201 -136,-201 -46,0 -82,20 -108,59 -26,39 -39,90 -39,151z"/>
  <path fill="black" fill-rule="nonzero" d="M14784 21761c236,-107 413,-247 531,-420 -193,-35 -339,-123 -437,-263 -86,-126 -129,-280 -129,-463 0,-60 5,-120 14,-182 29,-191 113,-351 251,-477 138,-127 294,-190 467,-190 44,0 89,4 133,12 198,43 354,156 469,340 75,121 113,265 113,429 0,56 -4,113 -12,173 -41,309 -177,610 -407,905 -209,270 -439,468 -692,596l-301 -460zm720 -1464c-152,-14 -241,72 -267,259 -2,23 -2,44 -2,65 0,86 26,152 78,198 48,39 105,56 173,49 127,-27 196,-108 207,-244 2,-19 2,-37 2,-56 0,-171 -64,-261 -191,-272z"/>
 </g>
</svg>
