<?xml version="1.0" encoding="UTF-8"?>
<!DOCTYPE svg PUBLIC "-//W3C//DTD SVG 1.1//EN" "http://www.w3.org/Graphics/SVG/1.1/DTD/svg11.dtd">
<!-- Creator: CorelDRAW 2017 -->
<svg xmlns="http://www.w3.org/2000/svg" xml:space="preserve" width="210mm" height="297mm" version="1.1" shape-rendering="geometricPrecision" text-rendering="geometricPrecision" image-rendering="optimizeQuality" fill-rule="evenodd" clip-rule="evenodd"
viewBox="0 0 21000 29700"
 xmlns:xlink="http://www.w3.org/1999/xlink">
 <g id="Layer_x0020_1">
  <metadata id="CorelCorpID_0Corel-Layer"/>
  <path fill="black" fill-rule="nonzero" d="M3655 2143c89,18 133,77 133,178l-66 178c207,0 340,656 398,1966 -44,116 -66,206 -66,269 90,18 134,77 134,178l0 269 -333 0c-89,0 -133,-268 -133,-805 -166,59 -388,238 -666,536l66 178 0 91 -333 0c0,-57 -44,-296 -132,-716 111,-178 199,-267 267,-267l0 -89c-89,0 -134,-30 -134,-91 0,-1250 289,-1875 866,-1875zm-466 1876l134 0c144,-119 255,-178 333,-178 0,-147 -45,-475 -134,-982l-66 0c-101,0 -190,387 -267,1161z"/>
  <path fill="black" fill-rule="nonzero" d="M5579 1923c359,0 803,477 1331,1431l-134 625c62,0 196,179 399,537l-66 180 66 0c0,-59 22,-89 66,-89l67 178 0 447c-72,0 -139,59 -200,178 -180,0 -580,29 -1197,87l-66 -176 -134 89c-88,0 -132,-59 -132,-178l0 -983c0,-134 22,-254 66,-358 -44,-105 -66,-224 -66,-358l0 -803c0,-119 67,-178 200,-178l-200 -358 0 -269zm399 805l0 178 66 893c-44,0 -66,30 -66,89l133 0c183,-81 316,-230 399,-447l0 -89c0,-87 -155,-296 -465,-625l-66 0zm-66 1878c57,296 123,445 199,445l134 -89c44,0 66,30 66,89l333 -89 267 0 0 -178c-225,-357 -402,-535 -533,-535 -310,81 -465,201 -465,358z"/>
  <path fill="black" fill-rule="nonzero" d="M8746 2162l267 0 0 267 -134 0 134 269 0 358c0,119 -45,178 -134,178l-265 0 0 -269c-116,0 -205,239 -267,716l0 178c103,596 325,894 666,894l0 535c-316,0 -627,-268 -932,-805l68 -178c-133,0 -200,-59 -200,-178l0 -627c0,-442 266,-888 798,-1338z"/>
  <path fill="black" fill-rule="nonzero" d="M10142 2179l267 0c516,464 849,999 996,1606l68 0 0 358c-154,832 -465,1248 -932,1248l-398 0 0 -535c0,-59 22,-89 66,-89l-66 -178 0 -1608 133 -267 -133 -269 0 -267zm398 893l0 1696 132 0c266,-179 399,-448 399,-805 -146,-410 -323,-707 -531,-891z"/>
  <path fill="black" fill-rule="nonzero" d="M13951 1783l66 178 0 269c0,133 -222,252 -666,358l0 713 666 -267 0 535 -666 267 0 893 666 -269 0 447c-56,90 -278,238 -666,446l0 178 -398 0c0,-93 -44,-211 -133,-356l0 -180 133 0 0 -713c0,-59 23,-89 67,-89l-134 -446 66 -535 0 -178 134 0 0 -180c-102,0 -190,-119 -267,-356 0,-191 377,-429 1131,-715z"/>
  <path fill="black" fill-rule="nonzero" d="M16347 2011l0 627c-322,0 -543,149 -665,446l0 535 665 -269 0 625c-277,0 -499,149 -665,446 0,134 22,254 66,358 -44,89 -66,267 -66,535l-265 0c-89,0 -134,-59 -134,-178l0 -180c0,-134 22,-252 66,-355 -90,-239 -134,-448 -134,-627l134 -89 -66 -178 0 -358 200 0 0 -178c-179,0 -268,-179 -268,-535 178,-180 555,-388 1132,-627z"/>
  <path fill="black" fill-rule="nonzero" d="M17921 2352c86,59 153,89 200,89l0 269c0,178 -133,267 -399,267l66 180c0,61 -89,417 -267,1070l0 267c94,238 272,357 533,357l199 -448c-266,0 -399,-119 -399,-356l0 -91c362,-357 739,-535 1131,-535 44,104 66,224 66,358l0 178c-282,120 -459,180 -532,180 89,144 133,263 133,356 0,340 -222,698 -666,1071l-864 -714 0 -358 134 0 0 -89c-48,0 -115,-30 -200,-89 284,-1308 572,-1963 864,-1963z"/>
  <path fill="black" fill-rule="nonzero" d="M3321 6759l66 625 1 1071c312,-141 468,-261 468,-358l0 -1071c266,0 398,239 398,716l0 894 -134 0c89,195 134,373 134,535l0 892 -266 0c-88,0 -132,-59 -132,-178l0 -625 -69 -447c-146,119 -279,178 -400,178l0 625 -133 0 133 269c0,119 -44,178 -132,178l-266 0 0 -625 -133 -625c89,0 133,-59 133,-178l0 -716 134 0 0 -89 -134 0 0 -714c20,-124 131,-243 332,-358z"/>
  <path fill="black" fill-rule="nonzero" d="M5771 6754l398 0 0 357c0,118 -44,178 -132,178l-266 0 0 -535zm0 714l398 0 0 1698 -132 267 132 0 0 447 -398 0 0 -1608 132 -269c-88,0 -132,-59 -132,-178l0 -358z"/>
  <path fill="black" fill-rule="nonzero" d="M7931 6749l266 0c88,18 132,77 132,178l0 180c0,118 -44,178 -132,178l-266 0 0 -535zm66 714l200 0c88,19 132,79 132,180l0 625c0,1109 -199,2121 -597,3037l-68 0c-89,0 -132,-60 -132,-180l0 -267c55,-477 187,-716 399,-716l0 -89 -133 0c97,-1310 163,-1965 199,-1965 -89,-244 -133,-423 -133,-536l133 -88z"/>
  <path fill="black" fill-rule="nonzero" d="M9628 6649l201 0c177,0 266,625 266,1874 532,-536 798,-923 798,-1161l134 0c88,18 132,78 132,178l0 91c-128,417 -261,625 -399,625l0 267c355,424 532,663 532,716l-66 178c196,0 351,149 465,447l0 89c0,86 -66,176 -199,269 -213,-357 -346,-536 -399,-536 -176,-296 -375,-564 -599,-805l-532 358 66 178 0 178 -66 446 -266 0 0 -982c0,-283 -23,-580 -68,-892 45,-222 68,-490 68,-805l0 -89 134 0 0 -178c-134,0 -202,-149 -202,-447z"/>
  <path fill="black" fill-rule="nonzero" d="M12542 6575l66 0c89,19 133,79 133,180l0 802 -66 180c88,18 131,77 131,178l0 1517c479,-357 768,-535 866,-535l0 269c0,333 -222,570 -666,713 -133,75 -200,194 -200,358l-398 0c-44,-183 -66,-361 -66,-535l66 0 -1 -715 135 -267 -134 0 0 -1963c14,-120 59,-180 134,-180z"/>
  <path fill="black" fill-rule="nonzero" d="M15779 6762l331 0 67 1071 0 1518c0,134 -23,254 -68,358 45,115 68,203 68,267l-134 89 -132 0c-88,0 -132,-59 -132,-178l0 -1160 -68 -627 134 0 0 -88 -134 0 0 -178 68 -178 -68 0c0,75 -177,312 -532,714l-66 0c0,-357 -67,-536 -200,-536l-66 0 0 447c0,178 -22,267 -66,267l66 447 0 982 -266 0c-88,0 -132,-59 -132,-178l0 -2143c0,-120 67,-180 200,-180l0 -89 -200 0 0 -446c194,0 460,208 798,625 141,0 318,-267 533,-803z"/>
  <path fill="black" fill-rule="nonzero" d="M18098 6735l132 0c88,18 132,77 132,178l0 1965 68 446 -134 89 66 180 0 267 -265 0c-89,0 -134,-59 -134,-178l0 -1518c-25,-143 -181,-292 -469,-447 0,476 -22,714 -66,714l66 447 0 982 -266 0c-88,0 -132,-59 -132,-178l0 -2322 133 0 0 -89 -133 0 0 -446 133 0c24,0 247,208 668,625l66 0 0 -535c14,-119 59,-178 134,-178z"/>
  <path fill="black" fill-rule="nonzero" d="M3478 11573l133 0c488,535 732,1101 732,1700 0,513 -199,989 -598,1429l-67 0c-277,0 -587,-268 -931,-803l0 -178 133 0 -133 -269c0,-680 244,-1306 732,-1878zm0 718c-222,632 -333,1078 -333,1338 113,298 291,447 532,447 133,-218 200,-426 200,-625l0 -178c-68,-655 -179,-982 -333,-982l-66 0z"/>
  <path fill="black" fill-rule="nonzero" d="M5279 11240l133 0c642,637 1019,1202 1133,1696l68 0 0 269c0,486 -312,932 -935,1338l-132 269 132 0 0 803 -332 89 -66 0 0 -1608c0,-134 22,-253 66,-356 -44,-104 -66,-224 -66,-358l0 -1161c0,-119 67,-180 200,-180l-200 -356 0 -447zm398 982l0 1608 133 0c179,-120 312,-298 401,-536 0,-357 -178,-714 -534,-1071z"/>
  <path fill="black" fill-rule="nonzero" d="M8163 11415l466 447 -66 178c178,17 266,136 266,358l-132 0 0 89c177,30 265,119 265,269l0 625 -132 625c43,0 154,209 333,625l0 180 -333 0 -333 -358c0,119 -44,178 -133,178 -301,0 -634,-297 -998,-891l0 -91 133 0 0 -178 -133 0c0,-574 244,-1259 732,-2054l66 0zm1 715c-222,586 -333,1003 -333,1252l0 178c0,89 133,238 399,447l134 0 0 -89 -200 -358c0,-118 133,-178 399,-178l0 -89c0,-510 -133,-898 -399,-1163z"/>
  <path fill="black" fill-rule="nonzero" d="M10230 11065c764,889 1163,1543 1198,1965 0,536 -134,805 -401,805 162,474 340,861 533,1161l-66 625 -134 0c-54,0 -253,-447 -597,-1340l-134 0c-110,179 -198,269 -265,269l132 267 0 538c-44,178 -177,267 -398,267l0 -1608c0,-134 22,-254 66,-358 -44,-104 -66,-223 -66,-356l0 -1340c134,0 200,-59 200,-178 -87,-61 -153,-91 -200,-91l0 -446c13,-119 58,-178 132,-178zm266 1071l0 1608 66 0c310,-193 465,-432 465,-714 -127,-422 -304,-720 -531,-894z"/>
  <path fill="black" fill-rule="nonzero" d="M13677 11330l132 0c0,315 -155,731 -465,1250l0 178c354,170 575,380 666,627 0,578 -266,1322 -798,2233l-133 89 -68 0 0 -536c105,-357 283,-536 533,-536l0 -89 -134 0c133,-625 200,-983 200,-1071 -411,-298 -655,-447 -732,-447l0 -178c318,-1013 584,-1519 798,-1519z"/>
  <path fill="black" fill-rule="nonzero" d="M14962 11481l1064 0 0 358c0,133 -155,252 -465,356 0,222 -44,401 -132,536l132 0 0 2054 -266 0c-88,0 -132,-59 -132,-178l0 -982 132 -267c-88,0 -132,-60 -132,-180l0 -982 -66 -178 -134 89c-89,0 -133,-59 -133,-178l0 -269c14,-119 58,-178 133,-178z"/>
  <path fill="black" fill-rule="nonzero" d="M17403 11368l0 2680 67 178c218,-96 374,-216 469,-358l-66 -178 0 -267c0,-60 22,-90 66,-90l-66 -178c0,-118 22,-178 66,-178l-66 -627 0 -803 66 0 332 88 0 2678c-136,0 -358,119 -665,358 -400,0 -600,-268 -600,-804 0,-59 22,-89 66,-89l-66 -624 0 -625c0,-120 67,-180 200,-180l0 -88c-133,0 -200,-59 -200,-178l0 -178c0,-358 133,-537 398,-537z"/>
  <path fill="black" fill-rule="nonzero" d="M4477 15726l198 0 0 2055c168,357 279,535 335,535 0,-94 45,-213 134,-358l0 -625 267 0 0 -91c-178,0 -267,-59 -267,-178l0 -1160 66 0 332 88 0 2322c-127,0 -238,238 -333,714l-266 0c-262,-357 -417,-535 -466,-535l0 -89 66 -180 -267 -89 0 -1429 132 0 -132 -267 0 -446c0,-85 67,-175 200,-269z"/>
  <path fill="black" fill-rule="nonzero" d="M7816 15900l0 2769 66 0c149,0 303,-89 464,-267l-66 -447 0 -178c0,-179 22,-269 66,-269l-66 -447 0 -982c266,38 398,127 398,269l0 2321c-221,298 -487,448 -796,448l-198 0 0 -178 -200 178 -66 0c-490,0 -735,-238 -735,-714l0 -1429c0,-357 111,-536 333,-536l0 1965c3,81 114,200 333,356 12,-357 57,-536 133,-536l-65 -178 0 -805c0,-133 22,-252 66,-356 -44,-104 -66,-224 -66,-358l0 -447 398 -178z"/>
  <path fill="black" fill-rule="nonzero" d="M10723 15846l333 0 0 178c-134,616 -201,1063 -201,1340 314,774 514,1161 599,1161l0 267c0,120 -44,180 -132,180l-599 -982c-133,629 -199,1016 -199,1161l-333 0c65,-714 153,-1071 265,-1071 0,-63 -22,-153 -66,-267l66 -447c-355,-708 -532,-1155 -532,-1340l132 -89 134 0c0,164 133,431 399,803l133 -892z"/>
  <path fill="black" fill-rule="nonzero" d="M12495 15704c0,158 177,516 532,1071 89,-417 177,-625 267,-625 177,89 265,179 265,269 -476,1611 -785,2534 -930,2767 -178,-89 -267,-178 -267,-267 266,-923 399,-1429 399,-1518 0,-164 -155,-491 -465,-982l66 -180c-44,-103 -66,-222 -66,-356l200 -180z"/>
  <path fill="black" fill-rule="nonzero" d="M15896 15514l0 89c-274,1548 -496,2322 -666,2322l66 356 0 269c145,-119 278,-180 399,-180l0 447c-58,84 -324,262 -798,535l-201 0c-88,0 -132,-59 -132,-178l0 -178c133,-148 333,-832 599,-2054l66 -446 -134 0 -199 178 -267 0 -66 -446 1331 -714z"/>
 </g>
</svg>
