<?xml version="1.0" encoding="UTF-8"?>
<!DOCTYPE svg PUBLIC "-//W3C//DTD SVG 1.1//EN" "http://www.w3.org/Graphics/SVG/1.1/DTD/svg11.dtd">
<!-- Creator: CorelDRAW 2017 -->
<svg xmlns="http://www.w3.org/2000/svg" xml:space="preserve" width="210mm" height="297mm" version="1.1" shape-rendering="geometricPrecision" text-rendering="geometricPrecision" image-rendering="optimizeQuality" fill-rule="evenodd" clip-rule="evenodd"
viewBox="0 0 21000 29700"
 xmlns:xlink="http://www.w3.org/1999/xlink">
 <g id="Layer_x0020_1">
  <metadata id="CorelCorpID_0Corel-Layer"/>
  <path fill="black" fill-rule="nonzero" d="M4174 5194l-32 -49c-62,-5 -119,-35 -170,-90 -51,-55 -88,-120 -111,-196 -140,-436 -271,-873 -392,-1313 -121,-440 -246,-879 -376,-1320 -7,-9 -17,-16 -30,-18 -13,-3 -22,4 -29,18 -25,65 -47,135 -65,210 -18,75 -37,148 -58,217l-260 899c-64,220 -128,440 -193,658 -65,219 -132,440 -199,661l0 -4c-25,72 -62,135 -111,189 -49,54 -104,83 -166,88l-25 22 14 38 8 8c167,-13 331,-19 493,-22l25 -20 0 -37c-22,-13 -42,-23 -62,-32 -20,-9 -29,-36 -29,-80 0,-11 6,-41 19,-91 13,-50 29,-111 50,-182 21,-71 43,-147 69,-229 25,-81 49,-160 71,-237 22,-76 42,-143 60,-202 18,-58 30,-100 38,-124l590 0c5,19 16,58 33,116 17,58 37,125 60,201 23,76 48,157 73,242 26,85 49,163 69,235 21,71 38,131 51,180 14,49 20,76 18,81 2,28 -4,52 -18,72 -14,21 -31,32 -52,34l-22 18 14 38 11 11c101,5 202,9 304,11 102,2 203,7 304,14l25 -18zm-929 -1444c-78,0 -157,1 -236,2 -79,1 -158,1 -236,-2 43,-135 83,-271 120,-409 37,-138 76,-276 118,-413l235 821z"/>
  <path fill="black" fill-rule="nonzero" d="M6218 4925c52,-71 90,-151 116,-241 25,-90 38,-182 40,-276 2,-94 -7,-187 -28,-278 -21,-91 -51,-175 -91,-251 -40,-76 -90,-141 -148,-193 -59,-53 -125,-86 -200,-101 80,-73 143,-167 188,-279 45,-113 69,-234 73,-365 4,-100 -9,-193 -37,-283 -28,-89 -69,-170 -120,-243 -52,-73 -112,-126 -182,-162 -69,-34 -141,-52 -216,-52 -71,0 -143,0 -216,0 -70,0 -141,-1 -214,-4 -71,-3 -143,-6 -215,-11 -72,-4 -144,-9 -215,-14l-25 18 27 49c51,5 94,34 129,88 35,54 54,113 57,178 2,50 4,141 6,272 1,131 3,283 5,454 2,172 3,352 3,543 0,188 -1,364 -3,528 -2,164 -4,304 -8,420 -4,116 -10,187 -18,213 -15,45 -37,83 -69,113 -31,30 -65,48 -103,53l-24 26 14 38 8 4c176,-12 351,-20 525,-24 174,-4 350,-3 527,2 38,0 75,-4 112,-12 37,-8 75,-22 112,-41 73,-40 136,-96 188,-169zm-566 -2476c84,50 146,126 187,226 41,100 60,205 57,316 -3,110 -26,214 -69,314 -43,99 -106,173 -190,224 -32,19 -65,33 -100,39 -35,7 -69,10 -105,10 -36,0 -71,-2 -107,-6 -35,-4 -70,-4 -104,-1 0,-195 -1,-389 -2,-581 -2,-192 -4,-386 -6,-580 28,0 63,-1 103,-2 40,-1 81,-1 123,2 42,3 82,6 120,11 38,4 69,14 94,29l-3 0zm201 2445c-54,30 -113,44 -177,42 -64,-3 -125,-4 -184,-4 -15,0 -35,1 -59,2 -25,1 -51,2 -78,2 -27,0 -51,-3 -73,-8 -22,-4 -37,-13 -44,-26 -4,-8 -8,-20 -14,-34 -6,-15 -9,-28 -9,-41 -4,-55 -4,-111 -1,-170 3,-58 5,-115 7,-170 1,-120 2,-237 2,-352 0,-119 0,-238 0,-358l464 0c75,0 140,23 196,68 56,45 102,103 137,173 36,70 60,148 72,235 13,86 13,170 0,253 -12,83 -38,158 -78,227 -40,69 -95,122 -164,159l3 0z"/>
  <path fill="black" fill-rule="nonzero" d="M9005 4810l-11 -373 -21 -29 -28 0 -8 8c-41,80 -88,152 -141,217 -54,66 -112,121 -176,166l3 0c-91,58 -187,97 -286,118 -100,21 -199,23 -296,4 -98,-19 -192,-59 -282,-119 -90,-61 -170,-142 -241,-244l3 0c-93,-126 -161,-266 -205,-421 -43,-155 -64,-319 -62,-492 0,-183 22,-353 68,-510 46,-157 109,-292 191,-407 82,-115 180,-205 295,-271 115,-65 242,-98 380,-98 146,-3 281,34 406,109 125,75 231,192 318,349l29 15 22 -19c2,-3 3,-21 5,-56 2,-35 4,-74 6,-116 2,-43 3,-83 4,-120 1,-38 1,-62 1,-75l-11 -28c-61,-59 -122,-108 -183,-144 -61,-36 -123,-64 -187,-84 -63,-21 -128,-33 -194,-38 -66,-5 -137,-8 -211,-8 -176,3 -338,36 -485,99 -148,64 -277,158 -386,282 -109,124 -194,279 -255,466 -61,187 -90,404 -88,652 2,251 33,470 93,656 61,187 145,342 252,466 107,124 235,217 383,278 148,61 311,93 488,95 76,0 150,-3 219,-9 70,-6 138,-19 203,-41 66,-22 130,-53 192,-93 62,-41 125,-95 187,-162l8 -26z"/>
  <path fill="black" fill-rule="nonzero" d="M11231 3658c0,-165 -16,-322 -47,-470 -31,-148 -79,-282 -141,-403 -63,-121 -140,-225 -232,-314 -92,-89 -199,-156 -320,-201 -76,-27 -153,-47 -229,-59 -76,-13 -154,-21 -232,-25 -78,-4 -156,-5 -234,-4 -77,1 -155,1 -234,-2 -160,-3 -320,-9 -479,-22l-25 14c4,10 7,19 11,28 4,9 9,18 16,26 53,3 98,30 135,83 38,53 58,113 62,180 16,381 25,770 25,1169 0,397 -8,786 -25,1168 -3,69 -24,130 -62,182 -37,51 -82,80 -135,85l-24 18 11 38 11 11c161,-13 322,-19 482,-22 76,0 154,0 232,0 78,0 157,-2 235,-6 78,-4 156,-12 234,-25 77,-13 153,-33 228,-59 119,-45 225,-112 317,-202 92,-90 169,-195 232,-317 62,-122 110,-257 141,-405 31,-148 47,-304 47,-466zm-537 904c-73,103 -146,179 -219,229 -73,50 -148,85 -226,104 -77,19 -158,28 -242,28 -84,0 -174,0 -270,0 -55,0 -98,-25 -131,-75 -32,-50 -49,-109 -49,-176 0,-191 2,-381 6,-570 4,-189 5,-380 5,-573 0,-190 -1,-379 -5,-569 -4,-189 -8,-379 -13,-568 66,3 135,3 209,0 74,-3 148,-2 222,2 75,4 147,13 218,26 71,14 137,37 199,70 103,55 192,130 266,226 75,95 135,202 182,321 46,119 78,246 96,381 18,135 21,270 8,406 -13,136 -40,267 -83,394 -43,127 -102,242 -176,345z"/>
  <path fill="black" fill-rule="nonzero" d="M13154 4664l-14 -33 -28 -8 -19 15c-17,81 -52,145 -104,190 -54,43 -110,63 -168,61 -123,-5 -245,-8 -366,-9 -121,-1 -243,1 -366,6 2,-200 3,-399 5,-597 2,-197 3,-396 3,-597l388 0c44,0 81,18 110,54 30,36 49,81 58,133 7,9 20,16 37,20 18,4 27,-6 27,-28l0 -567 -19 -31 -27 4 -18 20c-11,50 -32,93 -63,129 -31,36 -66,54 -105,54l-388 0c0,-188 -1,-376 -3,-562 -2,-187 -3,-373 -5,-560 59,3 118,4 176,4 59,0 118,0 179,0 59,-3 118,-6 177,-9 59,-4 118,-4 178,-2 14,0 26,9 34,28 7,18 14,39 17,63 4,24 7,48 10,71 3,24 7,42 12,54 7,21 19,31 34,29 15,-1 25,-13 31,-33 0,-22 0,-51 1,-88 1,-36 1,-73 1,-110 0,-38 0,-75 1,-111 1,-36 1,-66 1,-89 -4,-4 -8,-11 -13,-18 -4,-8 -10,-11 -18,-11 -108,0 -216,3 -322,9 -107,6 -214,9 -321,9 -108,0 -216,-3 -322,-9 -107,-6 -214,-14 -321,-24 0,0 -5,2 -15,6 -11,4 -16,10 -16,20 -4,13 -1,20 8,24 9,4 18,10 26,18 52,5 96,34 132,86 35,53 54,114 56,183 9,388 14,775 15,1162 1,387 -4,775 -15,1164 -2,67 -21,127 -57,180 -36,53 -80,81 -130,86l-26 22 11 38 12 8c239,-17 476,-26 711,-26 235,0 472,6 710,18 4,-4 9,-7 17,-7 7,0 13,-4 18,-11 2,-11 6,-36 14,-76 7,-40 15,-83 23,-130 8,-46 16,-92 24,-136 8,-44 13,-73 14,-88z"/>
  <path fill="black" fill-rule="nonzero" d="M15206 2198c-7,-5 -12,-11 -15,-18 -3,-8 -9,-11 -19,-11 -106,5 -212,11 -319,18 -106,8 -214,11 -322,11 -106,0 -212,-3 -319,-8 -106,-5 -213,-12 -319,-22l-25 18 27 49c38,5 71,24 101,56 30,32 53,72 67,120 6,17 11,61 14,131 3,70 5,158 7,264 2,105 3,222 4,353 0,130 1,264 1,401 0,138 0,275 -1,409 -1,135 -2,260 -3,376 -1,116 -2,216 -4,301 -2,85 -3,147 -3,185 -2,67 -20,126 -55,178 -35,51 -77,81 -129,88l-24 26 14 38 8 4c106,-10 214,-16 321,-20 107,-4 214,-6 320,-6l26 -24 -8 -37c-16,-7 -28,-12 -38,-14 -10,-3 -21,-6 -32,-10 -12,-4 -23,-10 -35,-18 -12,-8 -26,-22 -41,-44 -35,-48 -53,-105 -53,-173 -2,-176 -1,-352 1,-527 3,-175 4,-351 4,-525 65,3 130,3 193,0 63,-3 128,-1 194,4 41,2 77,22 109,58 32,37 52,81 62,134l22 22 31 -14 8 -17 0 -570c-6,-19 -15,-28 -28,-28 -14,1 -24,8 -34,21 -11,50 -32,93 -64,129 -32,36 -67,56 -106,59 -66,5 -130,7 -194,6 -63,-1 -128,-3 -193,-6 0,-195 0,-389 0,-579 0,-193 -1,-388 -3,-582 15,0 44,0 84,0 41,0 89,-1 143,-2 54,-1 110,-2 167,-2 60,0 114,-1 162,-2 49,-1 90,-2 123,-2 34,0 51,0 53,0l22 19c4,4 9,17 16,38 7,20 9,34 7,41 11,-2 21,-4 32,-5 10,-1 21,-2 32,-2 0,-50 1,-98 3,-145 2,-46 4,-95 6,-145z"/>
  <path fill="black" fill-rule="nonzero" d="M16973 2134c319,0 560,103 724,308l0 249c0,95 -11,141 -33,141l-21 0c-194,-308 -415,-462 -663,-462l-77 -11c-433,0 -731,301 -894,903 -23,153 -35,274 -35,363l0 60c0,514 184,901 551,1161 135,62 254,93 358,93l53 0c185,0 355,-75 510,-225l-11 -176 0 -413c0,-103 -26,-154 -78,-154 -163,-83 -277,-178 -341,-286 -75,-172 -112,-271 -112,-297l0 -22c21,-158 79,-237 173,-237 118,30 176,109 176,237 0,83 -23,142 -70,176 36,111 109,167 217,167l157 26c104,0 265,-59 481,-180l69 -13c83,48 125,136 125,264l0 22 -53 83c-51,-88 -86,-132 -104,-132l-8 0c-235,93 -353,164 -353,215l-8 176 19 655c-147,220 -429,330 -843,330 -535,0 -902,-284 -1103,-853 -57,-201 -86,-413 -86,-639 0,-716 242,-1195 727,-1434 155,-63 339,-95 552,-95z"/>
  <path fill="black" fill-rule="nonzero" d="M4364 9481c-4,-10 -7,-19 -11,-27 -3,-8 -9,-14 -16,-19 -55,-5 -100,-33 -135,-85 -35,-51 -55,-112 -59,-182 -9,-186 -15,-377 -19,-573 -4,-196 -6,-393 -6,-592 0,-200 2,-399 7,-598 5,-198 11,-389 18,-574 4,-70 24,-130 62,-182 37,-51 83,-80 135,-86l25 -23 -14 -36 -8 -8c-110,10 -219,16 -326,18 -108,3 -216,6 -326,11l-25 18 3 39 22 11c37,-4 71,9 101,39 30,31 52,69 64,115 4,12 6,45 7,99 1,54 1,118 1,194 0,75 0,157 -1,245 -1,89 -2,173 -4,254 -2,80 -3,152 -4,216 -1,64 -1,110 -1,137 -200,3 -398,5 -596,5 -198,0 -396,0 -596,0 0,-28 0,-74 -1,-137 -1,-64 -2,-136 -4,-217 -2,-81 -3,-165 -4,-254 -1,-88 -1,-170 -1,-245 0,-78 0,-144 1,-198 1,-54 3,-87 7,-99 13,-46 34,-83 64,-111 30,-29 64,-43 101,-43l25 -18 -14 -38 -11 -11c-108,-3 -217,-6 -325,-11 -109,-4 -217,-9 -325,-14l-25 14c4,10 7,19 11,28 4,9 9,18 16,26 39,0 75,16 105,49 31,33 54,73 68,120 12,29 21,103 26,219 6,117 9,257 11,419 2,163 3,337 3,523 0,185 -1,363 -4,533 -3,170 -6,322 -8,455 -3,133 -5,227 -7,282 -3,67 -23,127 -60,180 -37,53 -81,81 -134,86l-24 18 11 38 11 11c108,-8 216,-13 325,-16 108,-4 217,-7 325,-9l25 -20 -3 -37 -22 -11c-37,0 -71,-14 -101,-43 -30,-29 -51,-67 -64,-115 -4,-13 -6,-46 -7,-100 -1,-54 -1,-119 -1,-193 0,-75 0,-157 1,-246 1,-89 2,-174 4,-254 2,-80 3,-152 4,-216 0,-63 1,-110 1,-137 200,0 398,1 596,1 198,1 396,1 596,-1 0,176 1,351 4,526 3,175 6,351 9,527 3,68 -13,126 -46,178 -34,51 -77,76 -130,74l-22 18 14 38 11 11c109,3 217,6 326,9 108,3 216,9 325,16l22 -22z"/>
  <path fill="black" fill-rule="nonzero" d="M5572 9476l-25 -49c-48,-10 -90,-41 -124,-94 -35,-53 -52,-112 -52,-180l0 -2293c0,-67 18,-127 53,-180 34,-53 75,-85 123,-97l25 -28 -16 -37 -8 -4c-101,20 -202,29 -305,29 -103,0 -205,-9 -306,-26l-25 15 25 53c51,7 92,38 125,93 32,55 49,115 51,180 5,200 7,396 6,588 -1,192 -1,386 -1,584 0,188 0,375 1,560 1,185 -1,372 -6,560 0,65 -17,125 -52,180 -32,53 -73,84 -124,94l-25 26 16 38 8 4c204,-38 408,-38 610,0l25 -18z"/>
  <path fill="black" fill-rule="nonzero" d="M7442 6544l0 -68c-208,43 -416,54 -624,34l-25 22 8 39c19,13 36,21 53,26 17,5 33,13 48,22 15,10 29,24 44,43 14,19 27,49 37,89 4,15 7,29 8,45 2,15 3,31 3,49l0 2449c0,95 -8,192 -25,290 -12,59 -29,120 -51,180 -22,61 -49,117 -81,170 -31,53 -67,99 -106,138 -39,40 -82,68 -127,86l-25 27 19 33 8 4c90,-12 175,-44 254,-95 79,-51 149,-118 208,-199 60,-81 106,-175 140,-282 34,-106 51,-222 51,-347 -2,-205 -3,-411 -3,-616 0,-205 0,-411 0,-616 0,-205 0,-411 0,-617 0,-205 2,-411 6,-616 2,-70 19,-132 51,-187 32,-55 75,-89 127,-103z"/>
  <path fill="black" fill-rule="nonzero" d="M10786 9496c-246,-270 -490,-542 -732,-813 -242,-272 -485,-544 -729,-818 139,-175 274,-351 406,-529 132,-178 268,-353 409,-526 57,-71 124,-130 198,-180 71,-43 148,-66 232,-71l26 -24 -14 -37 -9 -3c-108,4 -215,8 -323,11 -107,3 -215,6 -324,11l-25 18 6 39c13,4 25,8 36,9 11,1 21,11 31,28 9,14 14,35 15,65 1,30 -5,51 -18,63l0 -4c-151,193 -300,386 -446,579 -146,192 -294,386 -444,582 0,-26 0,-71 -1,-136 -1,-64 -2,-138 -4,-219 -2,-81 -3,-167 -4,-256 -1,-89 -1,-172 -1,-249 0,-78 0,-145 1,-200 1,-55 3,-89 7,-101 11,-45 32,-83 62,-113 31,-30 65,-45 103,-45l25 -18 -14 -38 -11 -8c-108,-3 -217,-6 -325,-11 -109,-5 -217,-9 -325,-14 0,0 -4,1 -13,4 -8,3 -12,9 -12,22 0,19 3,29 8,29 6,0 12,3 19,9 53,3 97,31 134,85 36,54 56,115 60,182 9,196 14,391 15,584 1,194 1,389 1,584 0,196 0,390 0,582 0,193 -5,388 -14,584 -3,67 -23,127 -59,180 -35,53 -79,81 -131,86l-28 18 11 38 11 11c109,-8 216,-13 324,-16 107,-4 215,-7 324,-9l28 -20 -6 -33 -19 -11c-37,5 -71,-9 -101,-41 -30,-33 -51,-71 -64,-117 -3,-9 -6,-42 -7,-97 -1,-55 -1,-121 -1,-200 0,-80 0,-165 1,-255 1,-91 2,-178 3,-262 1,-84 2,-158 3,-224 0,-66 1,-112 1,-138 91,103 183,202 274,298 91,96 183,191 275,285 91,95 184,188 277,282 93,95 186,192 280,292 23,24 51,50 83,76 32,26 62,45 90,58 64,28 132,63 201,106 69,42 137,75 202,98l22 -60z"/>
  <path fill="black" fill-rule="nonzero" d="M12698 9040l-15 -33 -28 -8 -19 15c-17,81 -52,145 -104,190 -26,23 -53,39 -80,48 -27,9 -56,13 -88,13 -123,-5 -245,-8 -366,-9 -121,-1 -244,1 -367,6 3,-406 5,-809 5,-1209 0,-401 -1,-805 -2,-1210 0,-70 16,-128 48,-176 32,-48 75,-72 128,-72l26 -18 -14 -39 -13 -11c-107,-3 -215,-6 -321,-9 -107,-4 -214,-10 -322,-20l-25 14c4,10 7,19 11,28 4,9 9,18 16,26 53,5 97,34 133,86 35,53 54,114 56,183 11,388 17,775 18,1162 1,387 -5,775 -18,1164 -4,67 -23,127 -57,180 -35,53 -78,81 -132,86l-24 22 11 38 11 8c239,-17 477,-26 712,-26 235,0 472,6 710,18 4,-4 9,-7 17,-7 9,0 14,-4 16,-11 10,-33 17,-68 21,-105 3,-38 9,-74 16,-110 7,-35 14,-71 21,-107 7,-36 13,-72 19,-107z"/>
  <path fill="black" fill-rule="nonzero" d="M15744 9506c14,-3 22,-13 22,-29 0,-21 -9,-34 -28,-38 -55,-13 -98,-38 -131,-76 -33,-38 -54,-93 -63,-165 -27,-205 -51,-424 -72,-656 -21,-232 -39,-465 -53,-701 -15,-235 -27,-470 -38,-702 -10,-233 -19,-455 -27,-665l-19 -26c-10,3 -18,4 -25,6 -6,1 -13,4 -21,9 -71,190 -140,386 -207,588 -67,201 -132,404 -197,608 -65,204 -129,408 -192,612 -63,204 -127,404 -190,600 -147,-391 -292,-794 -436,-1208 -144,-414 -295,-813 -453,-1196 -9,-10 -21,-16 -36,-19 -15,-3 -24,6 -28,26 -9,69 -13,140 -13,215 1,75 0,147 -4,219 -7,150 -15,300 -24,448 -8,148 -18,298 -29,448 -7,110 -15,224 -25,342 -9,118 -19,237 -28,356 -9,120 -20,240 -32,359 -12,120 -25,233 -37,341 -4,33 -10,63 -20,91 -9,28 -23,52 -42,74 -35,43 -78,67 -127,72l-27 18 11 38 11 11c92,-5 183,-9 275,-11 91,-2 182,-6 274,-11l28 -24 -11 -37 -14 -8c-37,5 -72,-6 -104,-34 -32,-28 -55,-65 -70,-113 -5,-26 -8,-53 -8,-83 0,-5 0,-8 1,-11 1,-3 1,-6 1,-11 7,-71 14,-146 21,-225 7,-79 14,-158 21,-239 7,-80 14,-160 20,-239 7,-78 13,-154 18,-226 9,-143 19,-285 29,-426 11,-141 21,-284 29,-427 66,165 129,331 191,497 62,167 124,335 188,507 20,58 40,118 61,182 21,63 41,128 62,193 21,65 42,130 63,193 21,64 43,123 66,178 20,50 39,105 58,163 19,59 41,112 65,160 7,13 17,20 28,20 13,0 24,-7 33,-20 107,-321 211,-652 314,-994 103,-341 208,-672 316,-993 9,136 20,271 31,406 11,135 22,270 34,404 9,136 21,284 37,444 16,160 28,308 38,444 4,39 0,75 -11,108 -14,43 -37,76 -68,101 -31,25 -63,38 -97,38l-22 19 16 42 8 8c73,3 146,4 220,6 74,1 147,4 220,9 35,0 72,3 111,8 39,5 75,5 108,0z"/>
  <path fill="black" fill-rule="nonzero" d="M17844 6393c-92,5 -183,9 -272,13 -89,4 -180,8 -272,13l-25 18 6 39 16 8c37,-5 72,9 103,41 31,32 53,72 66,120 5,29 8,60 8,93 -4,327 -7,653 -11,977 -4,324 -4,649 0,977l-772 -1150c-87,-130 -174,-265 -260,-407 -86,-142 -173,-277 -263,-404 -41,-60 -82,-123 -124,-188 -42,-66 -86,-126 -132,-181 -7,-9 -18,-13 -31,-9 -14,4 -21,14 -21,33 -5,70 -4,142 2,214 6,73 10,144 11,213 4,150 7,306 10,466 3,160 4,316 4,466 0,220 0,440 1,660 1,219 -5,439 -18,659 -4,72 -23,133 -59,182 -36,49 -81,77 -135,85l-25 18 11 38 11 11c90,-5 180,-10 270,-14 90,-5 180,-8 270,-8l25 -24 0 -37c-15,-8 -28,-12 -42,-14 -13,-3 -25,-6 -37,-9 -11,-4 -23,-10 -35,-19 -12,-9 -24,-23 -38,-43 -31,-45 -46,-103 -46,-172 0,-163 2,-325 6,-487 3,-162 5,-324 5,-487 0,-165 0,-334 -1,-507 -1,-173 -2,-342 -4,-507 128,193 257,392 386,596 129,205 257,404 386,600 87,132 174,262 260,390 86,128 173,257 263,386 43,61 85,124 127,188 42,65 85,125 130,180 8,9 20,13 34,11 14,-3 22,-13 22,-33 -2,-73 -5,-145 -8,-214 -4,-70 -6,-141 -8,-215 -11,-300 -17,-600 -17,-901 0,-220 1,-441 4,-663 3,-222 9,-443 18,-663 4,-72 23,-135 59,-187 17,-26 38,-46 61,-61 23,-15 48,-24 73,-26 3,-13 4,-22 4,-29 0,-10 1,-21 3,-33z"/>
  <path fill="black" fill-rule="nonzero" d="M4243 12287c0,-202 -23,-391 -68,-568 -45,-177 -121,-341 -226,-491l3 0c-92,-133 -203,-235 -333,-304 -131,-69 -262,-105 -395,-105 -87,0 -170,7 -249,20 -78,14 -159,43 -241,88 -110,59 -208,138 -294,237 -85,98 -158,208 -216,332 -59,125 -103,259 -133,404 -30,145 -45,296 -45,454 0,200 23,389 69,564 47,175 122,336 227,481 97,135 210,237 336,307 127,70 260,105 401,105 83,0 165,-7 243,-21 78,-14 158,-41 238,-83 108,-55 205,-131 290,-229 85,-98 156,-210 214,-337 58,-126 103,-262 133,-408 31,-145 47,-294 47,-447zm-216 121c0,72 -3,145 -10,219 -6,74 -17,148 -33,221 -30,135 -77,249 -140,341 -63,93 -137,166 -221,219 -84,53 -174,85 -271,97 -97,12 -194,7 -291,-16 -97,-23 -191,-64 -282,-124 -90,-59 -169,-136 -236,-229l3 0c-92,-122 -160,-264 -205,-424 -44,-160 -66,-326 -64,-499 0,-171 17,-326 52,-463 35,-138 85,-255 153,-351 67,-97 150,-172 249,-226 99,-54 214,-81 345,-81 132,-3 256,29 370,93 115,64 218,160 312,287 96,133 164,277 206,430 42,153 63,322 63,505zm-831 -756l53 0 56 75 0 75 -56 99 19 26 0 23 -37 425 0 75c0,60 19,110 56,149 65,-42 139,-183 221,-424l76 -26 -38 -71 0 -53 56 -75 38 0 74 101c0,66 -37,99 -112,99 0,89 -50,222 -149,398 -75,239 -130,381 -165,423l-19 0c-210,-40 -316,-123 -316,-247 0,-230 -43,-413 -130,-548l0 -75 21 -22 0 -28c-55,0 -92,-34 -112,-101l0 -23c24,-67 61,-101 112,-101l56 101 0 48 -40 75c43,0 99,133 168,399l72 0c37,-123 56,-257 56,-399l0 -101 56 -98c-49,0 -73,-25 -73,-75 15,-83 34,-125 56,-125z"/>
  <path fill="black" fill-rule="nonzero" d="M4392 10794l8 0c57,58 91,88 103,88l731 -16c247,0 456,137 627,411 46,96 68,181 68,257 5,0 10,46 17,136 0,355 -154,597 -464,728l-166 33c-85,0 -181,-42 -290,-126 -76,-82 -113,-184 -113,-306l0 -39c0,-131 83,-219 249,-262 56,14 85,30 85,49l0 17c0,6 -30,29 -89,71 -57,51 -86,111 -86,180 21,204 91,306 212,306l62 0c137,0 236,-138 300,-414l8 -143 0 -132c0,-327 -146,-531 -436,-613 -26,-8 -65,-11 -118,-11 -144,0 -216,60 -216,182l0 2725c5,76 22,114 54,114l61 -17 32 44 0 5c-2,26 -111,99 -326,219 -63,92 -121,138 -175,138l-23 0 -33 -39c106,-94 159,-222 159,-383l0 -2883c0,-70 -38,-105 -115,-105 -54,0 -138,34 -251,105l-12 -23 0 -33c82,-165 128,-253 138,-262z"/>
  <path fill="black" fill-rule="nonzero" d="M10489 14302l-11 -14c-8,-5 -20,-10 -34,-15 -95,18 -189,34 -282,53 -93,18 -189,25 -286,23 -66,0 -148,-14 -245,-42 -97,-28 -197,-61 -301,-98 -104,-37 -205,-76 -304,-116 -98,-40 -184,-74 -255,-101 -128,-50 -257,-99 -387,-147 -130,-48 -260,-96 -390,-143 118,-67 220,-158 308,-271 88,-114 159,-241 215,-382 56,-140 95,-290 119,-448 24,-158 29,-316 16,-473 -14,-158 -45,-312 -94,-461 -50,-149 -120,-284 -211,-403 -216,-290 -476,-435 -780,-435 -84,0 -163,6 -236,19 -74,12 -151,39 -231,82 -90,46 -172,107 -245,185 -73,78 -138,166 -194,264 -56,98 -103,206 -140,322 -37,117 -64,238 -79,363 -14,136 -18,276 -9,422 8,145 29,283 62,413 58,232 148,428 268,586 120,158 271,265 452,320l1146 349c192,58 383,116 571,176 188,60 379,121 571,182 77,24 156,36 239,35 83,-1 167,-11 252,-29 85,-18 168,-41 250,-70 82,-29 160,-59 232,-91 4,-11 6,-21 7,-29 1,-8 3,-16 7,-24zm-2048 -1871c-2,153 -19,298 -50,436 -32,137 -90,261 -173,371 -86,114 -186,195 -299,243 -114,48 -230,68 -348,59 -118,-8 -233,-45 -344,-110 -111,-65 -206,-156 -284,-272l3 0c-84,-115 -150,-245 -197,-392 -48,-146 -77,-296 -87,-450 -10,-154 -2,-304 25,-451 27,-147 73,-277 139,-391 66,-113 150,-205 254,-274 103,-70 227,-103 371,-100 270,3 506,134 705,394 97,128 169,271 218,429 49,158 72,327 70,507z"/>
  <path fill="black" fill-rule="nonzero" d="M9029 10924l862 29c289,0 481,199 576,598l6 165c0,316 -121,548 -363,699 -30,5 -45,14 -45,29 192,313 423,649 694,1007 362,413 585,632 671,657 62,81 217,150 467,207l79 11c175,0 391,-128 649,-384l176 -244 14 0 0 7c0,108 -163,334 -489,677 -110,73 -253,108 -429,108 -211,0 -466,-108 -767,-322 -171,-173 -307,-301 -409,-384 -108,-103 -461,-573 -1058,-1412l0 -7c0,-33 71,-57 213,-71 213,-118 319,-303 319,-556l0 -49c0,-255 -106,-424 -319,-510l-235 -18 -133 0 10 79 14 1126 -14 1262c0,101 56,170 168,207 18,0 28,6 28,19l0 22c0,16 -12,25 -37,28l-641 22 -14 -49c140,-42 211,-136 211,-284l14 -548 0 -1237c0,-471 -19,-706 -56,-706 -16,-48 -71,-86 -163,-117l-14 -22 0 -8 14 -29z"/>
  <path fill="black" fill-rule="nonzero" d="M12379 10903l17 0c329,0 493,85 493,257l19 458 -19 26 -16 0 -183 -409c-85,-103 -171,-154 -257,-154l-110 0c-169,63 -254,190 -254,383l0 75c0,150 194,379 582,690 305,316 457,621 457,917 0,416 -182,704 -547,864l-217 26c-487,-73 -731,-310 -731,-714l0 -26c0,-285 140,-471 419,-560l37 53c-135,115 -202,250 -202,406l0 126c0,284 134,461 403,534l90 0c230,0 364,-220 403,-661 0,-284 -263,-623 -787,-1018 -121,-173 -181,-336 -181,-486l0 -48c0,-435 195,-682 584,-741z"/>
  <path fill="black" fill-rule="nonzero" d="M15510 11375l3 -39c-32,-50 -62,-101 -92,-152 -30,-51 -60,-103 -90,-156 -7,-3 -33,-4 -75,-4 -43,0 -96,1 -160,2 -64,1 -132,3 -206,4 -73,1 -144,3 -211,6 -67,3 -127,4 -179,6 -52,1 -88,2 -109,2 -146,0 -283,0 -411,0 -128,0 -264,-6 -409,-19 -5,-4 -11,-3 -17,6 -6,9 -11,16 -14,22 -4,68 -7,135 -10,203 -2,69 -7,137 -12,206 4,9 9,16 15,20 7,4 14,8 22,13l28 -22c7,-26 14,-53 20,-81 6,-29 14,-56 23,-80l-3 4c5,-19 15,-36 30,-49 10,-9 18,-15 23,-16 6,-1 13,-1 22,2 97,12 191,15 281,9 90,-6 184,-9 282,-9 4,403 7,806 9,1208 3,401 0,805 -9,1208 0,36 -5,69 -16,100 -10,31 -25,59 -42,83 -18,24 -38,42 -60,56 -22,13 -47,19 -73,16l-22 11 -3 38 25 19c108,-3 217,-4 325,-4 108,0 217,0 325,0l11 -11 14 -38 -25 -19c-55,3 -99,-21 -132,-71 -34,-50 -51,-110 -53,-180 -4,-403 -5,-806 -3,-1206 2,-401 4,-803 6,-1206 45,0 105,-3 180,-8 74,-5 151,-9 231,-11 80,-3 154,-2 224,2 70,4 122,13 155,28 52,23 97,65 134,125l21 8 30 -22z"/>
  <path fill="black" fill-rule="nonzero" d="M17763 11038c-91,5 -182,9 -273,13 -90,4 -181,8 -272,13l-26 22 8 39 15 8c52,-5 95,19 128,71 34,53 50,111 48,176 -5,244 -9,492 -14,746 -5,254 -6,502 -4,746 0,125 -15,242 -46,351 -31,110 -74,205 -132,286 -57,81 -125,146 -203,193 -78,48 -165,71 -261,71 -90,0 -174,-22 -254,-66 -80,-44 -152,-110 -216,-198 -65,-90 -112,-188 -142,-293 -30,-105 -44,-220 -42,-345 2,-120 2,-246 1,-379 -1,-133 -2,-261 -4,-384 0,-19 0,-52 -1,-97 -1,-45 -2,-96 -3,-154 -1,-58 -1,-116 -1,-176 0,-63 0,-120 0,-173 0,-55 0,-102 1,-141 1,-39 3,-65 7,-77 11,-46 32,-83 63,-111 31,-29 65,-43 103,-43l25 -18 -14 -38 -11 -11c-110,-3 -219,-6 -326,-11 -107,-4 -215,-9 -326,-14 0,0 -3,1 -10,4 -7,3 -12,6 -16,11 -9,20 -8,31 2,35 11,4 20,10 27,18 52,3 97,31 134,85 38,54 58,115 62,182 13,244 19,494 19,752 0,255 -2,503 -5,747 -4,155 16,307 59,455 21,73 47,140 77,203 31,63 66,123 107,181 85,120 180,206 286,259 106,53 220,79 341,79 123,0 236,-27 340,-81 104,-54 199,-141 284,-260 41,-58 78,-118 111,-183 33,-64 59,-132 79,-204 41,-146 60,-296 56,-451 -4,-244 -5,-493 -4,-749 1,-256 9,-506 25,-749 4,-70 23,-130 59,-182 36,-51 82,-80 136,-86 0,-13 0,-23 0,-33 0,-10 1,-21 3,-33z"/>
  <path fill="black" fill-rule="nonzero" d="M5687 15175c-166,13 -332,19 -496,22l-28 26 11 35c32,12 56,28 71,47 15,19 20,53 12,103 -61,165 -115,334 -163,507 -48,172 -96,345 -144,519l-294 1025c-48,-172 -97,-342 -146,-510 -49,-168 -97,-339 -145,-511 -34,-115 -67,-229 -101,-342 -34,-113 -67,-227 -101,-342 -16,-55 -33,-110 -51,-163 -18,-54 -34,-108 -49,-163 -7,-28 -10,-48 -8,-60 2,-13 7,-33 16,-61l19 -26c4,-3 9,-6 17,-9 7,-4 14,-4 17,-2l25 -22 -16 -38 -8 -4c-101,-5 -202,-9 -304,-11 -102,-3 -203,-8 -304,-18l-22 22 16 37 8 4c65,6 122,38 170,95 48,58 84,123 110,198 140,435 272,871 395,1310 123,439 249,878 377,1317 8,9 19,16 32,18 13,3 22,-4 27,-18 27,-65 49,-135 67,-210 18,-75 37,-148 58,-219 43,-150 85,-300 127,-448 42,-149 84,-298 127,-448 62,-220 125,-440 191,-658 65,-218 132,-438 201,-657l0 4c25,-72 63,-136 112,-191 50,-55 107,-86 170,-91 0,-13 0,-23 0,-29 0,-10 1,-21 3,-33z"/>
  <path fill="black" fill-rule="nonzero" d="M8362 15168c-76,3 -152,6 -226,11 -74,5 -150,7 -226,7l-28 23 11 38 15 4c22,-5 38,-2 47,9 10,11 15,26 17,44 2,19 2,38 0,58 -2,19 -2,34 0,46l0 -4c-76,302 -148,605 -215,908 -67,304 -131,609 -194,917 -66,-301 -130,-600 -194,-898 -63,-298 -124,-599 -182,-902 -7,-36 -6,-72 3,-109 9,-38 32,-56 67,-56l26 -18 -14 -38 -12 -8c-97,0 -193,1 -289,2 -96,1 -193,-1 -291,-6l-24 22 11 39c17,5 33,9 47,13 14,4 27,8 39,13 13,5 25,13 37,23 13,11 26,24 41,41 23,27 42,64 59,112 16,48 32,99 46,154 14,55 27,110 37,163 11,54 21,100 29,138 -48,220 -96,439 -141,657 -46,218 -93,438 -141,657 -32,-153 -64,-304 -95,-455 -31,-151 -63,-302 -95,-455 -32,-150 -64,-301 -98,-450 -34,-150 -69,-300 -106,-450l-6 -23c-9,-35 -7,-68 6,-96 14,-29 35,-43 64,-43l26 -19c-4,-11 -7,-20 -11,-28 -4,-7 -10,-13 -18,-18 -97,-5 -193,-8 -289,-11 -96,-3 -193,-8 -290,-15l-25 22 19 37c6,5 14,8 24,10 11,2 23,5 37,10 14,5 30,13 48,24 18,11 36,29 56,55 21,27 38,56 52,89 14,33 25,66 35,102 112,435 212,873 300,1314 89,441 178,883 270,1327l26 22c4,-3 10,-6 19,-11 9,-5 16,-10 21,-14 70,-306 138,-612 204,-917 65,-306 131,-613 195,-921 67,311 134,619 201,925 67,306 137,611 210,917 10,12 22,19 36,22 14,3 23,-6 30,-26 18,-65 33,-136 44,-214 12,-78 24,-150 36,-219 30,-150 59,-301 88,-450 28,-150 59,-300 91,-450 44,-222 91,-441 140,-661 49,-219 101,-437 157,-655 21,-78 52,-140 93,-187 42,-53 93,-81 150,-88 0,-13 0,-22 0,-29 0,-10 1,-21 3,-33z"/>
  <path fill="black" fill-rule="nonzero" d="M11077 18185c-4,-10 -7,-19 -11,-27 -4,-8 -9,-14 -16,-19 -64,-3 -126,-26 -187,-72 -30,-19 -56,-44 -80,-74 -23,-30 -44,-63 -63,-98 -107,-208 -212,-414 -315,-620 -103,-205 -206,-413 -309,-624 106,-196 212,-391 316,-584 104,-194 212,-388 322,-581 35,-67 83,-120 141,-158 59,-36 118,-57 176,-60l24 -23 -14 -36 -8 -8c-92,5 -184,9 -275,13 -91,4 -183,8 -275,13l-25 18 3 39 22 11c14,0 25,5 35,16 10,11 17,24 22,39 5,15 6,31 6,49 -1,17 -5,32 -13,46 -97,165 -190,332 -279,503 -90,170 -181,340 -274,512 -16,-28 -38,-71 -66,-128 -29,-58 -61,-121 -97,-192 -35,-71 -73,-143 -112,-219 -39,-75 -75,-147 -108,-214 -33,-68 -61,-126 -84,-176 -23,-51 -37,-84 -43,-101 -9,-30 -9,-61 0,-93 9,-31 28,-44 59,-39l25 -22 -17 -38 -8 -8c-112,-3 -225,-6 -338,-11 -113,-4 -225,-9 -337,-14l-25 14c4,10 7,19 11,28 4,9 9,18 16,26 69,5 132,28 189,70 54,40 101,100 142,178 107,208 212,415 315,622 103,207 207,416 309,629 -103,187 -205,374 -305,560 -101,187 -204,373 -311,558 -20,36 -42,68 -65,98 -23,30 -49,56 -77,78 -28,21 -58,38 -90,49 -32,13 -63,19 -94,19l-26 22 11 38 12 8c93,-5 185,-9 275,-13 91,-4 182,-6 276,-6l26 -24 -4 -37c-23,-9 -44,-19 -61,-28 -17,-9 -25,-36 -25,-80 0,-18 13,-54 37,-106 25,-53 55,-108 88,-168 34,-60 67,-117 98,-171 32,-54 54,-92 64,-115l265 -491c44,83 86,166 126,249 40,82 82,165 125,247 11,23 30,60 56,111 27,51 55,105 83,162 28,56 54,108 77,156 23,48 37,80 43,98 9,28 7,56 -6,83 -13,28 -31,43 -56,45l-21 18 14 38 11 11c114,3 227,5 339,8 112,3 225,8 339,18l22 -22z"/>
  <path fill="black" fill-rule="nonzero" d="M13295 15270c-90,10 -180,15 -270,16 -90,1 -180,4 -270,9l-25 20 3 37c14,14 30,19 48,14 9,10 19,23 29,39 11,17 16,32 16,47 0,26 -7,49 -21,71 -91,188 -186,374 -284,557 -98,183 -194,367 -290,552 -45,-92 -90,-183 -134,-275 -44,-91 -90,-184 -137,-277 -42,-85 -90,-175 -141,-270 -51,-95 -96,-187 -133,-275 -4,-8 -8,-19 -13,-33 -4,-14 -7,-29 -7,-42 0,-27 6,-50 19,-69 13,-19 30,-28 53,-25l25 -18 -14 -37 -11 -13c-103,-5 -206,-9 -308,-13 -103,-4 -205,-8 -308,-13l-25 14c4,14 7,24 11,33 4,9 9,15 16,20 62,5 121,28 178,68 26,19 49,43 70,72 21,29 42,59 61,93 110,213 217,426 321,640 104,214 210,427 317,640l0 1071c0,72 -19,132 -57,180 -38,48 -83,73 -134,75l-25 19 14 38 11 11c218,-8 437,-8 656,0l25 -19 -3 -38c-15,-8 -28,-13 -42,-16 -13,-4 -26,-8 -38,-13 -12,-5 -24,-11 -36,-18 -12,-8 -26,-21 -41,-43 -18,-24 -31,-51 -38,-80 -7,-29 -13,-61 -15,-96 -3,-188 -5,-375 -5,-559 0,-188 0,-376 0,-563 106,-213 214,-424 321,-633 108,-209 217,-418 328,-625 36,-63 80,-113 133,-150 50,-38 106,-57 168,-57 0,-12 0,-24 0,-34 0,-10 1,-21 3,-33z"/>
  <path fill="black" fill-rule="nonzero" d="M15470 15345l-30 -15c-163,8 -315,14 -457,19 -141,4 -281,8 -419,9 -138,1 -278,1 -420,-2 -141,-3 -294,-7 -457,-14l-19 11c-32,43 -69,91 -112,145 -43,54 -77,105 -104,152 -9,17 -6,34 10,49 7,8 17,7 30,-1 13,-8 28,-19 45,-33 17,-13 35,-28 53,-44 19,-17 38,-29 57,-36 27,-13 55,-20 83,-23 28,-2 57,-3 88,-3 114,2 217,4 310,5 93,1 184,2 275,2 89,0 180,0 273,0 94,0 197,-3 312,-7 -291,447 -579,897 -862,1350 -283,452 -572,901 -865,1346l-8 39 31 14c164,-10 326,-13 485,-11 160,2 321,3 485,3 23,0 62,1 117,2 55,1 118,3 188,4 70,1 145,3 222,4 77,1 149,2 215,2 68,0 125,0 171,0 47,0 74,-1 81,-4l213 -301c4,-8 5,-16 3,-26 -2,-10 -5,-18 -8,-24 -7,-10 -18,-11 -31,-3 -14,8 -28,19 -44,34 -16,15 -34,31 -53,49 -20,18 -40,30 -60,38 -53,17 -110,26 -171,26 -229,0 -458,-5 -686,-14 -228,-10 -456,-13 -686,-8 297,-451 586,-902 867,-1353 281,-450 571,-898 870,-1344l8 -38z"/>
  <path fill="black" fill-rule="nonzero" d="M4261 19344c98,0 194,58 289,176 94,117 167,285 220,503 53,217 79,445 79,682 0,237 -26,464 -77,679 -52,215 -124,383 -217,503 -93,120 -191,180 -293,180 -102,0 -200,-59 -293,-180 -93,-120 -166,-287 -217,-503 -51,-215 -77,-441 -77,-679 0,-237 26,-465 78,-682 52,-218 125,-386 219,-503 94,-118 191,-176 290,-176zm-369 1412c13,220 41,428 84,624 43,195 97,344 162,447 59,96 118,143 176,143 5,0 11,-1 16,-2 64,-9 122,-73 174,-192 53,-120 90,-282 111,-487 14,-131 21,-265 21,-404 0,-76 -2,-153 -7,-231 -13,-221 -41,-431 -85,-629 -44,-198 -98,-347 -163,-447 -59,-93 -118,-140 -175,-140 -6,0 -10,1 -15,2 -62,8 -119,71 -172,188 -53,117 -90,279 -112,485 -15,135 -22,272 -22,413 0,76 2,152 7,229z"/>
  <path fill="black" fill-rule="nonzero" d="M6876 21990l0 -92 131 0c94,0 141,-143 141,-431l0 -1456c0,-158 -54,-237 -160,-237l-134 0 0 -92c266,-77 415,-184 447,-322l68 0 0 2107c0,287 47,431 141,431l131 0 0 92 -765 0z"/>
  <path fill="black" fill-rule="nonzero" d="M9950 20120c0,-181 -39,-331 -118,-450 -78,-118 -163,-178 -254,-178 -155,0 -280,80 -375,240l-30 0 0 -90c35,-61 88,-125 157,-191 69,-66 153,-99 253,-99 167,0 306,74 419,222 112,148 169,329 169,545 0,321 -285,880 -857,1680l576 0c118,0 214,-68 286,-205l67 0 -141 426 -982 0 1 -92c553,-825 829,-1428 829,-1808z"/>
  <path fill="black" fill-rule="nonzero" d="M11852 22015c138,0 237,-71 298,-213 61,-142 91,-314 91,-515 0,-127 -20,-252 -61,-377 -41,-124 -121,-215 -241,-272l0 -34c74,-55 139,-129 197,-221 57,-93 86,-220 86,-384 0,-135 -25,-250 -75,-347 -50,-98 -125,-154 -227,-170 -62,0 -118,28 -169,83 -50,54 -76,123 -76,203l-58 0 0 -292c0,-24 34,-45 101,-61 67,-17 138,-25 212,-25 141,0 258,51 351,154 93,103 139,255 139,457 0,106 -28,208 -83,304 -56,96 -143,182 -263,255 85,18 173,100 266,247 93,148 139,318 139,511 0,200 -66,379 -197,540 -131,160 -279,240 -444,240 -139,0 -251,-24 -338,-71 -87,-48 -131,-101 -131,-162l0 -183 67 0c0,101 39,183 118,244 78,61 177,91 296,91z"/>
  <path fill="black" fill-rule="nonzero" d="M14066 21331l0 -1258 -579 1258 579 0zm187 183l0 314c0,143 33,214 98,214l104 0 0 92 -604 0 0 -92 104 0c74,0 111,-73 111,-220l0 -308 -761 0 0 -64 902 -1946 46 0 0 1827 26 0c121,0 209,-81 263,-242l67 0 -141 426 -216 0z"/>
  <path fill="black" fill-rule="nonzero" d="M3917 24597l197 -1067 541 0c94,0 145,-32 153,-96l69 0 -86 316 -586 0 -142 761c206,0 383,76 530,229 148,152 222,336 222,551 0,286 -65,510 -196,670 -131,160 -278,240 -443,240 -139,0 -251,-24 -339,-71 -84,-45 -125,-95 -125,-150l0 -195 63 0c0,108 39,191 118,249 78,58 177,87 297,87 138,0 236,-71 297,-213 61,-142 91,-355 91,-637 0,-194 -50,-356 -150,-486 -100,-130 -230,-195 -389,-195 -36,0 -76,3 -118,9z"/>
  <path fill="black" fill-rule="nonzero" d="M6928 26171c92,0 166,-60 222,-181 56,-120 85,-272 85,-454 0,-248 -46,-452 -137,-612 -91,-160 -189,-239 -295,-239 -83,0 -157,62 -222,186 -66,124 -98,277 -98,460 0,187 43,374 130,560 87,187 192,280 315,280zm332 -2656l0 88c-161,15 -310,125 -446,329 -136,205 -243,491 -319,858 88,-114 208,-171 363,-171 98,0 194,35 289,105 94,70 167,169 220,298 53,129 79,265 79,406 0,142 -26,277 -77,404 -52,128 -117,227 -197,298 -80,71 -157,106 -232,106 -221,0 -388,-99 -501,-298 -112,-198 -168,-426 -168,-683 0,-391 95,-779 285,-1164 190,-384 425,-577 704,-577z"/>
  <path fill="black" fill-rule="nonzero" d="M9931 23820l-545 0c-121,0 -208,69 -262,205l-69 0 141 -425 983 0 -1 91c-337,1059 -506,1796 -506,2211 0,157 30,236 91,236l160 0 0 92 -562 0 0 -92 91 0c65,0 98,-80 98,-240 17,-362 144,-1055 380,-2079z"/>
  <path fill="black" fill-rule="nonzero" d="M11962 24558c111,-31 181,-106 213,-227 25,-91 37,-177 37,-257 0,-24 -1,-48 -4,-71 -11,-100 -35,-193 -72,-283 -37,-89 -83,-157 -136,-202 -50,-40 -98,-61 -145,-61l-13 0c-52,4 -100,32 -144,85 -44,53 -75,126 -93,219 -12,60 -18,121 -18,183 0,34 1,69 5,105 11,98 35,191 70,279 36,88 136,165 298,231zm-109 83c-104,26 -187,122 -247,288 -51,141 -76,267 -76,378 0,22 0,43 2,64 13,127 41,247 84,361 43,113 97,199 162,257 58,54 117,81 175,81l18 0c64,-4 122,-41 174,-110 53,-69 90,-162 111,-281 14,-76 21,-153 21,-233 0,-44 -2,-88 -7,-134 -10,-136 -43,-267 -100,-389 -57,-123 -162,-217 -316,-282zm224 -48c38,17 76,39 112,64 94,68 167,165 220,291 53,125 79,257 79,393 0,137 -26,268 -77,392 -52,124 -124,220 -217,290 -93,69 -191,103 -293,103 -102,0 -200,-34 -293,-103 -93,-69 -166,-166 -217,-290 -51,-124 -77,-255 -77,-392 0,-136 26,-268 78,-393 52,-125 125,-222 219,-291 37,-26 75,-48 112,-64 -21,-11 -43,-24 -65,-39 -78,-53 -139,-129 -182,-225 -43,-96 -64,-198 -64,-304 0,-106 21,-208 65,-306 44,-98 104,-173 182,-226 78,-53 159,-79 241,-79 82,0 162,26 241,79 78,53 139,128 183,226 43,98 65,200 65,306 0,106 -21,208 -64,304 -42,96 -103,172 -180,225 -23,16 -46,29 -69,39z"/>
  <path fill="black" fill-rule="nonzero" d="M13868 23473c-92,0 -166,60 -222,181 -56,120 -84,272 -84,454 0,248 45,452 137,612 91,160 189,239 294,239 83,0 157,-62 223,-186 66,-125 99,-277 99,-460 0,-187 -44,-374 -131,-560 -88,-187 -193,-280 -316,-280zm-332 2656l0 -88c161,-15 310,-125 446,-329 136,-205 243,-491 319,-858 -87,114 -208,171 -364,171 -98,0 -194,-35 -288,-105 -94,-70 -167,-169 -220,-299 -53,-129 -79,-264 -79,-406 0,-142 26,-277 77,-404 52,-128 117,-227 197,-299 80,-71 157,-106 232,-106 221,0 388,99 500,298 113,198 169,426 169,683 0,391 -95,779 -285,1164 -190,384 -425,577 -704,577z"/>
 </g>
</svg>
