<?xml version="1.0" encoding="UTF-8"?>
<!DOCTYPE svg PUBLIC "-//W3C//DTD SVG 1.1//EN" "http://www.w3.org/Graphics/SVG/1.1/DTD/svg11.dtd">
<!-- Creator: CorelDRAW 2017 -->
<svg xmlns="http://www.w3.org/2000/svg" xml:space="preserve" width="210mm" height="297mm" version="1.1" shape-rendering="geometricPrecision" text-rendering="geometricPrecision" image-rendering="optimizeQuality" fill-rule="evenodd" clip-rule="evenodd"
viewBox="0 0 21000 29700"
 xmlns:xlink="http://www.w3.org/1999/xlink">
 <g id="Layer_x0020_1">
  <metadata id="CorelCorpID_0Corel-Layer"/>
  <path fill="black" fill-rule="nonzero" d="M2607 2649l208 -620 104 -312 64 -223c4,-22 0,-40 -13,-54 -13,-14 -24,-20 -34,-19l0 -15 183 0 0 15c-12,-5 -23,0 -32,18 -10,17 -6,45 9,84l15 39 53 156 108 310 215 621c52,155 105,227 159,218l0 15 -223 0 -223 0 0 -15c61,1 100,-16 117,-50 16,-34 12,-90 -15,-168l-81 -240 0 0 -461 0 -55 165c-38,110 -53,186 -45,230 7,43 51,64 132,63l0 15 -175 0 -175 0 0 -15c48,-6 80,-23 96,-49 16,-27 39,-83 69,-170zm173 -309l421 1 -212 -663 -209 661zm-338 -1040l0 -28 1257 0 0 28 -1257 0z"/>
  <path fill="black" fill-rule="nonzero" d="M1164 2737l267 -811 133 -405 82 -291c5,-30 0,-53 -16,-71 -16,-17 -31,-25 -43,-23l0 -20 234 0 0 20c-15,-7 -29,0 -41,22 -12,22 -8,59 11,109l19 51 69 203 137 405 275 812c67,201 135,295 204,282l0 20 -285 0 -286 0 0 -20c78,1 129,-21 150,-65 22,-44 15,-116 -19,-217l-103 -314 0 0 -591 0 -69 215c-48,144 -67,244 -58,300 10,56 66,83 169,81l0 20 -224 0 -224 0 0 -20c61,-8 102,-29 123,-63 20,-34 49,-107 87,-220zm222 -404l539 1 -271 -866 -268 864z"/>
  <path fill="black" fill-rule="nonzero" d="M5686 1408l532 0c167,0 293,31 378,91 85,61 127,152 127,273 0,116 -34,204 -103,263 -41,35 -95,59 -161,73 76,17 140,43 191,79 92,66 138,166 138,298 0,132 -44,232 -132,299 -88,66 -218,100 -390,100l-580 0 0 -16c85,-1 135,-18 152,-51 18,-33 27,-89 27,-169l0 -1002c-4,-109 -26,-175 -64,-196 -35,-21 -74,-29 -115,-26l0 -15zm407 177l0 486 185 0c104,0 182,-23 232,-69 51,-46 76,-116 76,-211 -8,-136 -47,-230 -118,-283 -70,-52 -146,-75 -227,-67 -81,8 -126,24 -135,49 -9,26 -13,57 -13,93zm0 573l0 527c0,45 9,83 25,115 16,33 82,47 196,43 114,-4 196,-38 244,-103 48,-65 73,-152 73,-261 0,-109 -37,-190 -109,-243 -73,-53 -184,-79 -333,-79l-96 0zm-407 -858l0 -28 1100 0 0 28 -1100 0z"/>
  <path fill="black" fill-rule="nonzero" d="M4209 1115l627 0c197,0 346,40 445,120 100,79 149,198 149,355 0,151 -41,265 -122,342 -48,46 -111,77 -189,95 91,22 166,57 225,104 109,87 163,216 163,389 0,172 -52,301 -155,388 -103,88 -257,131 -461,131l-683 0 0 -20c100,-2 160,-24 180,-67 21,-44 31,-117 31,-220l0 -1310c-5,-142 -30,-227 -75,-255 -42,-26 -87,-37 -136,-33l0 -19zm451 231l0 633 206 0c115,0 201,-29 257,-89 56,-60 84,-151 84,-274 -9,-177 -52,-300 -130,-369 -78,-68 -162,-97 -253,-87 -90,10 -140,32 -150,65 -10,33 -15,73 -15,121zm0 748l0 688c0,59 10,109 28,151 19,42 91,60 218,56 127,-5 217,-49 270,-134 54,-84 81,-198 81,-340 0,-143 -40,-249 -121,-318 -81,-69 -204,-103 -369,-103l-107 0z"/>
  <path fill="black" fill-rule="nonzero" d="M9201 2759c-19,-16 -38,-34 -55,-54 -125,-136 -187,-319 -187,-549 0,-220 61,-400 183,-542 122,-142 277,-212 466,-212 92,0 194,22 307,65 31,11 61,13 90,6 29,-8 51,-16 64,-23l29 0 0 416 -20 0c-32,-132 -88,-228 -167,-287 -79,-59 -170,-89 -271,-89 -144,0 -257,60 -339,178 -82,118 -123,282 -123,490 0,203 42,363 125,481l-1 -1c87,106 201,159 341,159 84,0 162,-18 234,-55 72,-36 143,-93 212,-172l36 42c-73,96 -154,167 -241,213 -87,46 -183,70 -288,70 -159,0 -291,-45 -397,-136l1 1zm-251 -1468l0 -28 1357 0 0 28 -1357 0z"/>
  <path fill="black" fill-rule="nonzero" d="M7676 2873c-23,-22 -44,-45 -64,-70 -143,-177 -214,-416 -214,-714 0,-287 70,-523 210,-706 140,-184 318,-276 535,-276 105,0 223,27 352,83 36,16 71,19 104,9 33,-10 58,-21 74,-32l33 0 0 542 -23 0c-37,-172 -100,-296 -191,-374 -91,-77 -194,-116 -311,-116 -165,0 -294,77 -388,232 -95,154 -142,367 -142,639 0,264 48,472 144,625l-1 -3c100,138 230,207 391,207 97,0 186,-24 268,-71 82,-47 163,-122 244,-224l41 54c-84,125 -176,217 -276,278 -100,61 -211,91 -331,91 -182,0 -334,-59 -456,-177l2 3z"/>
  <path fill="black" fill-rule="nonzero" d="M12111 1408l466 0c247,0 436,63 565,189 129,126 194,309 194,549 0,230 -65,410 -193,541 -128,131 -306,196 -532,196l-500 0 0 -16c71,-1 116,-16 134,-47 18,-30 26,-88 24,-173l0 -1002c0,-78 -8,-134 -23,-169 -15,-34 -60,-51 -135,-51l0 -16zm354 1268c0,44 6,86 17,123 12,38 82,53 212,46 129,-7 238,-73 327,-199 89,-125 133,-292 133,-500 0,-209 -53,-377 -158,-507 -105,-130 -218,-196 -339,-200 -121,-4 -184,11 -187,43 -3,33 -5,68 -5,105l0 1088zm-354 -1376l0 -28 1258 0 0 28 -1258 0z"/>
  <path fill="black" fill-rule="nonzero" d="M10698 1115l520 0c275,0 485,82 630,247 144,164 216,404 216,716 0,300 -72,535 -215,705 -143,170 -341,256 -594,256l-557 0 0 -22c80,-2 130,-22 150,-62 20,-39 29,-114 26,-224l0 -1310c0,-101 -9,-174 -25,-219 -17,-45 -68,-67 -151,-67l0 -22zm389 1655c0,59 6,113 19,162 13,49 90,68 232,59 142,-10 262,-96 359,-259 98,-163 146,-380 146,-652 0,-273 -57,-493 -173,-661 -115,-168 -240,-255 -373,-261 -133,-6 -202,12 -205,55 -4,43 -5,88 -5,138l0 1421z"/>
  <path fill="black" fill-rule="nonzero" d="M15834 2883l229 0 133 -205 -17 0c-57,67 -125,101 -202,102l-143 0 0 104zm0 0l-797 0 0 -15c50,3 92,-12 127,-45 35,-33 53,-92 53,-177l0 -1002c1,-80 -12,-136 -39,-168 -27,-33 -74,-50 -141,-54l0 -15 1067 0c17,-2 25,4 26,16l1 307 -15 0c-7,-85 -37,-146 -89,-185 -53,-38 -142,-56 -267,-54l-261 0c-29,0 -49,6 -58,16 -10,11 -15,32 -15,65l0 491 295 0c91,-3 159,-17 204,-44 43,-30 66,-82 70,-156l16 0 0 494 -18 0c-17,-81 -45,-137 -85,-169 -43,-23 -105,-34 -187,-33l-295 0 0 541c5,55 37,83 94,83l314 0 0 104zm-800 -1582l0 -28 1258 0 0 28 -1258 0z"/>
  <path fill="black" fill-rule="nonzero" d="M14494 3041l229 0 133 -268 -17 0c-57,88 -125,132 -202,134l-143 0 0 134zm0 0l-797 0 0 -20c50,5 92,-15 127,-58 35,-43 53,-120 53,-230l0 -1310c1,-104 -12,-177 -39,-218 -27,-42 -74,-65 -141,-69l0 -20 1067 0c17,-2 25,6 26,22l1 401 -15 0c-7,-112 -37,-192 -89,-242 -53,-49 -142,-73 -267,-71l-261 0c-29,0 -49,7 -58,21 -10,14 -15,42 -15,84l0 641 295 0c91,-4 159,-23 204,-58 43,-40 66,-108 70,-202l16 0 0 644 -18 0c-17,-107 -45,-180 -85,-222 -43,-29 -105,-44 -187,-43l-295 0 0 705c5,73 37,110 94,110l314 0 0 134z"/>
  <path fill="black" fill-rule="nonzero" d="M18331 2648c0,10 0,20 1,30 2,62 16,110 42,142 25,33 77,49 155,49l0 15 -587 0 0 -15c62,2 107,-15 136,-50 29,-35 43,-92 43,-170l0 -1001c1,-80 -12,-136 -39,-167 -27,-32 -74,-49 -141,-53l0 -15 1067 0c17,-2 25,4 26,16l1 307 -15 0c-6,-86 -36,-148 -89,-185 -53,-38 -142,-55 -267,-54l-261 0c-29,0 -49,5 -59,15 -10,11 -14,32 -14,64l0 492 295 0c91,-3 159,-17 204,-44 43,-31 66,-83 70,-156l16 0 0 492 -18 0c-17,-81 -45,-137 -85,-169 -43,-22 -105,-33 -187,-32l-295 0 0 490zm-389 -1347l0 -28 1258 0 0 28 -1258 0z"/>
  <path fill="black" fill-rule="nonzero" d="M17034 2733c0,13 0,27 1,39 2,82 16,143 42,186 25,43 77,63 155,62l0 20 -587 0 0 -20c62,3 107,-19 137,-65 29,-45 43,-120 43,-223l0 -1310c1,-104 -12,-177 -39,-218 -27,-42 -74,-65 -141,-69l0 -20 1067 0c17,-2 25,6 26,22l1 401 -15 0c-6,-112 -36,-192 -89,-242 -53,-49 -142,-73 -267,-71l-261 0c-29,0 -49,7 -59,21 -10,14 -14,42 -14,84l0 641 295 0c91,-4 159,-23 204,-58 43,-40 66,-108 70,-202l16 0 0 644 -18 0c-17,-107 -45,-180 -85,-222 -43,-29 -105,-44 -187,-43l-295 0 0 641z"/>
  <path fill="black" fill-rule="nonzero" d="M3601 5280c-1,-82 -15,-137 -42,-165 -29,-30 -70,-42 -124,-37l0 -15 485 0 0 16c-45,-2 -79,10 -102,38 -18,22 -28,64 -30,125l0 353c-155,94 -313,142 -473,142 -210,0 -377,-67 -501,-200 -125,-133 -187,-312 -187,-536 0,-216 61,-393 184,-531 122,-138 278,-208 467,-208 92,0 195,21 307,63 32,11 62,14 91,6 29,-7 51,-16 64,-23l29 0 0 408 -21 0c-31,-130 -87,-224 -166,-282 -80,-58 -171,-87 -273,-87 -144,0 -257,58 -339,175 -83,116 -124,276 -124,481 0,202 44,361 131,477 87,116 207,175 360,175 78,-1 149,-17 214,-48 18,-9 31,-20 38,-33 7,-14 11,-33 11,-56l0 -236zm-971 -1125l0 -28 1204 0 0 28 -1204 0z"/>
  <path fill="black" fill-rule="nonzero" d="M2145 5304c0,-109 -16,-181 -48,-219 -33,-40 -80,-56 -142,-48l0 -20 555 0 0 22c-52,-4 -91,13 -117,49 -21,29 -32,85 -35,166l0 470c-177,125 -357,188 -541,189 -240,0 -431,-89 -574,-266 -142,-177 -213,-416 -213,-714 0,-287 70,-523 210,-706 140,-184 318,-276 535,-276 105,0 223,27 352,83 36,16 71,19 104,9 33,-10 58,-21 74,-32l33 0 0 542 -23 0c-37,-172 -100,-296 -191,-374 -91,-77 -195,-116 -311,-116 -165,0 -294,77 -388,232 -95,154 -142,367 -142,639 0,269 50,481 150,635 100,154 237,232 412,232 89,-1 171,-22 245,-65 21,-11 35,-27 44,-44 8,-18 12,-43 12,-75l0 -314z"/>
  <path fill="black" fill-rule="nonzero" d="M6311 5502l0 -1002c0,-79 -14,-135 -43,-167 -29,-33 -70,-51 -124,-55l0 -15 265 0 264 0 0 15c-65,-3 -111,13 -139,49 -28,37 -42,94 -42,173l0 442 0 0 541 0 0 0 0 -442c0,-79 -17,-136 -52,-170 -35,-35 -77,-52 -128,-51l0 -15 263 0 263 0 0 16c-46,-4 -85,11 -116,48 -32,37 -47,94 -47,173l0 1002c-1,82 12,140 40,175 28,35 69,51 124,47l1 15 -263 0 -263 0 -1 -15c55,1 99,-14 131,-44 32,-30 48,-89 49,-177l0 -470 0 0 -541 0 0 0 0 470c0,79 15,135 46,169 31,33 75,51 134,53l0 15 -263 0 -266 0 0 -15c51,0 91,-17 121,-52 30,-34 45,-91 45,-170zm-167 -1346l0 -28 1388 0 0 28 -1388 0z"/>
  <path fill="black" fill-rule="nonzero" d="M4764 5576l0 -1287c0,-101 -17,-172 -49,-214 -33,-42 -80,-64 -142,-68l0 -20 304 0 303 0 0 20c-74,-5 -128,16 -159,62 -32,45 -47,119 -47,220l0 567 0 0 621 0 0 0 0 -567c0,-101 -20,-174 -60,-218 -40,-44 -89,-66 -146,-64l0 -20 302 0 302 0 0 22c-53,-6 -97,15 -133,60 -36,45 -54,119 -54,220l0 1287c-2,104 13,178 45,222 32,44 80,64 142,60l1 20 -302 0 -301 0 -1 -20c63,2 113,-17 150,-56 37,-38 55,-114 56,-226l0 -603 0 0 -621 0 0 0 0 603c0,101 18,173 53,215 35,43 87,65 154,66l0 20 -302 0 -305 0 0 -20c58,0 104,-22 139,-65 35,-44 52,-115 52,-217z"/>
  <path fill="black" fill-rule="nonzero" d="M9962 5719c-83,-5 -131,-18 -146,-42 -15,-23 -23,-51 -24,-84l0 -1223c-1,-28 5,-50 20,-67 14,-15 64,-22 150,-22l0 -19 -513 0 0 19c77,1 123,8 139,20 17,15 28,38 31,69l0 1223c2,28 -6,56 -25,82 -19,26 -67,41 -145,44l0 19 513 0 0 -19zm32 -1563l-545 0 0 -28 545 0 0 28z"/>
  <path fill="black" fill-rule="nonzero" d="M8930 3995l0 -24 -502 0 -155 0 0 24c103,0 164,9 186,28 21,19 34,48 38,87l0 873 0 437 0 217 0 69c1,70 -9,115 -30,137 -21,22 -86,31 -194,28l0 24 657 0 0 -24c-118,-1 -185,-16 -202,-48 -16,-31 -24,-70 -22,-117l0 -69 0 -217 0 -437 0 -873c-1,-36 7,-65 24,-86 18,-22 84,-32 200,-29z"/>
  <path fill="black" fill-rule="nonzero" d="M12451 4215l582 0 0 17c-61,4 -98,9 -112,16 -19,10 -33,24 -44,43 -10,18 -15,73 -13,166l0 894c-3,153 -32,262 -87,328 -56,66 -128,100 -217,104 -10,1 -20,2 -30,3l-21 0c-69,-1 -125,-7 -170,-17 -61,-13 -106,-38 -134,-72 -28,-35 -44,-71 -46,-109 -2,-38 -4,-78 -8,-121 -3,-43 -32,-60 -85,-52l0 -21 388 0 1 21c-55,-10 -86,10 -95,59 -9,50 -4,107 12,170 23,65 65,96 127,95 15,3 39,0 72,-9 31,-20 52,-46 64,-79 13,-33 18,-70 16,-111l0 -1093c10,-122 -9,-187 -57,-193 -48,-6 -96,-12 -143,-17l0 -20zm-385 -107l0 -28 1054 0 0 28 -1054 0z"/>
  <path fill="black" fill-rule="nonzero" d="M11257 3933l582 0 0 23c-61,4 -98,11 -112,20 -19,12 -33,29 -44,53 -10,24 -15,95 -13,213l0 1137c-3,196 -32,336 -87,420 -56,83 -128,127 -217,132 -10,1 -20,2 -30,3l-21 0c-69,-1 -125,-8 -170,-22 -61,-17 -106,-48 -134,-93 -28,-45 -44,-91 -46,-140 -2,-48 -4,-99 -8,-154 -3,-55 -32,-77 -85,-66l0 -28 388 0 1 28c-55,-13 -86,13 -95,77 -9,63 -4,135 12,216 23,82 65,123 127,122 15,4 39,0 72,-12 31,-26 52,-60 64,-102 13,-42 18,-89 16,-142l0 -1389c10,-157 -9,-240 -57,-247 -48,-8 -96,-15 -143,-22l0 -25z"/>
  <path fill="black" fill-rule="nonzero" d="M16337 5738l-455 0 0 -16c85,-4 132,-14 141,-31 7,-17 -39,-89 -139,-216l-171 -203 -85 -102 -43 -50 -21 -27 -11 -12c-8,-10 -16,-10 -26,0l-14 15 0 406c0,79 18,136 55,170 29,28 73,44 133,47l0 17 -564 0 0 -16c70,-3 118,-18 143,-46 28,-29 42,-87 43,-173l0 -1001c1,-88 -16,-147 -50,-176 -32,-26 -77,-40 -136,-43l0 -16 564 0 0 15c-52,4 -94,20 -127,49 -41,36 -61,93 -61,172l0 468 357 -390c115,-115 163,-194 144,-238 -18,-40 -62,-60 -132,-59l0 -16 455 0 0 16c-55,-1 -95,9 -120,30 -27,21 -83,82 -168,184l-434 490 477 603c81,93 163,137 245,133l0 16zm-1200 -1582l0 -28 1271 0 0 28 -1271 0z"/>
  <path fill="black" fill-rule="nonzero" d="M14308 5895l-669 0 0 -20c89,-1 149,-21 180,-60 31,-39 47,-115 48,-227l0 -1310c1,-115 -18,-192 -57,-230 -39,-38 -95,-57 -170,-57l0 -20 668 0 0 19c-66,1 -119,22 -159,63 -46,47 -69,122 -69,225l0 613 400 -512c129,-149 183,-252 161,-310 -22,-57 -77,-84 -166,-79l0 -20 546 0 0 20c-71,-3 -122,10 -153,39 -30,28 -93,109 -188,241l-487 640 535 789c93,125 186,183 281,175l0 20 -523 0 0 -20c100,-5 155,-18 164,-41 9,-23 -43,-118 -156,-284l-190 -264 -96 -133 -48 -66 -24 -33 -12 -16c-8,-13 -18,-13 -29,0l-16 19 0 531c0,103 20,177 61,221 35,40 91,62 167,65l0 22z"/>
  <path fill="black" fill-rule="nonzero" d="M18019 5738l890 0 117 -205 -15 0c-50,67 -110,98 -180,94l-448 0c-9,0 -13,-7 -13,-22l0 -142 -1 -164 0 -921c-1,-19 12,-40 38,-64 22,-22 67,-33 135,-33l0 -19 -523 0 0 19c71,-1 117,6 138,21 22,15 33,40 35,77l0 1239c-5,38 -21,64 -46,77 -26,13 -68,21 -127,23l0 19zm1081 -1582l-1107 0 0 -28 1107 0 0 28z"/>
  <path fill="black" fill-rule="nonzero" d="M16655 3990c110,0 173,10 188,30 15,20 24,54 27,101l0 1617c2,46 -8,80 -30,102 -22,22 -83,33 -185,33l0 20 1034 0 133 -268 -17 0c-57,88 -126,128 -206,122l-511 0c-11,0 -16,-9 -16,-27l0 -186 -1 -213 0 -1201c4,-40 12,-71 25,-91 13,-21 38,-34 75,-39l115 -1 0 -19 -631 0 0 20z"/>
  <path fill="black" fill-rule="nonzero" d="M3054 8225c0,132 11,216 32,251 21,35 63,54 127,58l0 15 -195 0 -195 0 0 -15c53,0 94,-22 120,-66 27,-44 40,-125 39,-242l0 -828c1,-139 -13,-225 -42,-257 -29,-33 -68,-49 -117,-51l0 -15 163 0 164 0 0 0 381 1115 0 0 0 0 365 -1115 0 0 163 0 164 0 0 15c-59,0 -97,16 -116,47 -18,31 -27,89 -27,175l0 1002c0,79 9,136 28,170 19,35 57,52 115,51l0 15 -235 0 -235 0 0 -15c60,0 102,-18 126,-54 23,-36 34,-92 33,-168l0 -1034 0 0 -416 1271 -13 0 -13 0 -416 -1220 0 0 0 897zm-233 -1259l0 -28 1475 0 0 28 -1475 0z"/>
  <path fill="black" fill-rule="nonzero" d="M1241 8274c0,170 13,277 39,321 27,44 79,69 159,73l0 20 -243 0 -243 0 0 -19c67,0 117,-28 150,-85 33,-57 49,-160 48,-311l0 -1062c1,-179 -16,-289 -53,-330 -36,-41 -85,-63 -145,-65l0 -20 203 0 204 0 0 0 474 1429 0 0 0 0 455 -1429 0 0 203 0 204 0 0 20c-73,-1 -121,18 -144,58 -23,39 -34,114 -34,224l0 1287c0,101 12,174 35,218 24,44 71,66 142,64l0 20 -292 0 -293 0 0 -20c75,0 127,-22 156,-68 29,-45 43,-116 42,-214l0 -1329 0 0 -518 1631 -16 0 -16 0 -518 -1563 0 0 0 1149z"/>
  <path fill="black" fill-rule="nonzero" d="M7205 7060l426 0 0 19c-47,3 -86,26 -117,69 -31,43 -47,121 -47,235l0 1179 -34 0 -992 -1236 0 889c0,115 16,195 47,241 31,46 74,68 127,65l0 19 -436 0 0 -19c71,-6 117,-29 137,-71 20,-42 29,-120 27,-235l0 -1000c-4,-53 -23,-88 -56,-105 -34,-17 -70,-27 -107,-27l0 -20 315 0c15,0 26,6 35,17l14 16 399 498 427 533 0 -742c1,-115 -13,-193 -42,-237 -30,-44 -70,-66 -121,-67l0 -17zm-1028 -107l0 -28 1475 0 0 28 -1475 0z"/>
  <path fill="black" fill-rule="nonzero" d="M4599 8684l0 -58 0 58zm0 -15c89,1 143,-28 163,-87 20,-59 30,-164 31,-315l0 -1303c-6,-115 -71,-175 -194,-180l0 -20 363 0c16,0 29,7 39,22l15 22 446 649 475 694 0 -965c0,-149 -16,-254 -49,-317 -33,-62 -81,-91 -144,-86l0 -19 498 0 0 20c-75,-6 -126,22 -154,84 -28,62 -42,168 -42,317l0 1534 -38 0 -1106 -1609 0 1157c0,149 11,254 33,314 22,60 75,89 160,88l0 19 -497 0 0 -20z"/>
  <path fill="black" fill-rule="nonzero" d="M10304 8313c82,-106 123,-266 123,-479 0,-238 -41,-405 -123,-500 -82,-96 -184,-144 -305,-144 -121,0 -220,48 -297,144 -76,96 -114,262 -114,500 0,210 38,369 114,477 76,108 175,162 297,162 121,0 223,-53 305,-160zm-735 29c-112,-138 -168,-316 -168,-532 0,-216 56,-393 168,-532 112,-138 255,-208 430,-208 175,0 319,70 431,208 112,139 168,316 168,532 0,216 -56,394 -168,532 -112,138 -256,208 -431,208 -175,0 -318,-69 -430,-208zm-180 -1378l0 -28 1222 0 0 28 -1222 0z"/>
  <path fill="black" fill-rule="nonzero" d="M8664 8701c-235,0 -429,-90 -580,-269 -151,-180 -227,-409 -227,-688 0,-280 76,-510 227,-690 151,-180 345,-270 580,-270 236,0 430,90 581,270 152,180 227,410 227,690 0,279 -75,508 -227,688 -151,179 -345,269 -581,269zm-24 -99c161,-23 288,-102 383,-236 95,-134 156,-341 184,-619 -27,-349 -95,-579 -203,-691 -108,-112 -229,-169 -363,-172 -129,3 -246,67 -351,194 -105,126 -170,350 -194,669 17,278 73,485 169,619 96,134 221,213 376,236z"/>
  <path fill="black" fill-rule="nonzero" d="M12475 8312l0 -1002c2,-73 -5,-128 -21,-164 -16,-36 -67,-57 -153,-63l0 -10 278 0 0 0 258 0c169,0 301,35 397,105 96,70 144,165 144,287 0,142 -46,251 -138,326 -92,75 -227,113 -403,113 -55,0 -106,-2 -153,-5l0 413c-1,70 6,124 21,161 15,38 74,58 177,60l0 15 -290 0 -291 0 0 -15c83,-1 134,-22 151,-62 17,-41 25,-94 23,-159zm213 -497c45,49 110,70 197,60 87,-9 159,-49 217,-120 58,-72 87,-166 87,-284 0,-103 -35,-190 -105,-261 -70,-71 -145,-108 -225,-111 -80,-3 -129,9 -146,35 -17,27 -26,59 -25,98l0 582zm-489 -849l0 -28 1339 0 0 28 -1339 0z"/>
  <path fill="black" fill-rule="nonzero" d="M11155 8387l0 -1287c2,-94 -5,-164 -21,-209 -16,-45 -67,-72 -153,-79l0 -13 278 0 0 0 258 0c169,0 301,45 397,134 96,89 144,212 144,368 0,183 -46,323 -138,419 -92,96 -227,144 -403,144 -55,0 -106,-2 -153,-6l0 530c-1,88 6,157 21,205 15,48 74,74 177,78l0 19 -290 0 -291 0 0 -20c83,-1 134,-27 151,-79 17,-52 25,-120 23,-202zm213 -639c45,65 110,91 197,79 87,-11 159,-63 217,-155 58,-92 87,-213 87,-363 0,-132 -35,-244 -105,-335 -70,-91 -145,-138 -225,-142 -80,-3 -129,12 -146,45 -17,34 -26,75 -25,124l0 746z"/>
  <path fill="black" fill-rule="nonzero" d="M16542 8809c-212,12 -381,-18 -506,-91 -105,-63 -204,-170 -296,-323l0 0c-99,-33 -184,-99 -257,-197 -113,-152 -169,-347 -169,-584 0,-237 56,-432 169,-585 113,-153 257,-229 433,-229 176,0 320,77 433,229 113,153 169,347 169,585 0,237 -57,432 -170,584 -85,115 -188,186 -310,213l0 0c61,104 128,185 200,243 95,78 196,121 303,130l0 26zm-629 -1966c-119,-2 -214,69 -284,213 -70,144 -104,330 -104,557 0,226 33,409 98,547 66,138 162,208 290,208 129,-11 227,-82 294,-215 67,-133 100,-312 100,-539 0,-227 -34,-411 -103,-551 -69,-139 -166,-213 -291,-220zm-764 -150l0 -28 1452 0 0 28 -1452 0z"/>
  <path fill="black" fill-rule="nonzero" d="M15220 8950c-247,15 -444,-22 -590,-111 -124,-75 -239,-205 -347,-389l0 0c-115,-41 -214,-121 -299,-240 -132,-184 -198,-419 -198,-706 0,-286 66,-522 198,-706 131,-185 300,-277 505,-277 206,0 375,92 506,277 132,184 198,420 198,706 0,287 -66,522 -198,706 -99,139 -220,226 -362,259l0 0c71,126 149,224 233,294 111,94 229,146 354,157l0 31zm-734 -2377c-139,-2 -250,84 -331,257 -82,174 -123,398 -123,672 0,273 38,494 115,661 76,167 189,251 339,251 150,-12 265,-99 343,-260 78,-161 117,-379 117,-652 0,-275 -40,-496 -121,-664 -81,-169 -194,-257 -340,-266z"/>
  <path fill="black" fill-rule="nonzero" d="M18066 6966l0 -28 1339 0 0 28 -1339 0zm444 837c30,4 78,3 145,-2 67,-5 130,-36 191,-92 61,-56 91,-141 91,-252 0,-99 -32,-183 -98,-251 -65,-68 -131,-104 -200,-107 -68,-4 -107,8 -117,36 -10,27 -14,66 -12,116l0 553zm341 29l295 471c52,82 93,141 124,175 31,34 63,52 95,53l0 16 -258 0c-25,0 -44,-12 -58,-36l-22 -38 -169 -282 -201 -339 -138 8c-2,1 -5,1 -9,1l0 449c-3,82 9,140 36,173 27,33 73,48 140,46l0 16 -518 0 0 -16c64,-3 106,-20 126,-52 19,-33 29,-88 29,-167l0 -1005c1,-81 -14,-137 -43,-170 -29,-33 -67,-49 -112,-49l0 -16 514 0c141,0 252,34 332,103 80,69 120,163 120,284 0,124 -44,222 -131,293 -43,35 -94,61 -153,80z"/>
  <path fill="black" fill-rule="nonzero" d="M17201 7733c34,5 88,4 163,-2 74,-6 146,-45 214,-118 68,-72 102,-180 102,-323 0,-127 -36,-234 -109,-322 -73,-87 -148,-134 -224,-138 -76,-4 -120,11 -131,46 -11,36 -16,85 -14,148l0 709zm383 38l330 605c58,106 104,180 140,224 35,44 70,66 106,68l0 20 -289 0c-28,0 -50,-15 -65,-46l-25 -48 -189 -362 -226 -433 -154 11c-3,1 -7,1 -11,1l0 576c-3,106 11,180 41,222 30,42 82,61 157,60l0 20 -581 0 0 -20c72,-4 119,-26 141,-68 22,-42 33,-113 33,-214l0 -1287c1,-104 -16,-176 -48,-218 -33,-42 -75,-62 -126,-62l0 -22 576 0c158,0 283,44 373,131 90,88 135,209 135,364 0,160 -49,285 -147,376 -48,45 -105,79 -171,102z"/>
  <path fill="black" fill-rule="nonzero" d="M2206 9956l0 -28 1339 0 0 28 -1339 0zm1166 569c-83,-177 -170,-296 -261,-357 -91,-61 -186,-87 -284,-77 -98,10 -167,40 -208,91 -41,51 -57,107 -48,169 9,61 37,118 84,170 46,52 130,106 251,162 217,95 362,175 435,241 75,63 113,141 113,235 0,115 -50,210 -151,284 -101,74 -230,111 -387,111 -138,2 -254,-17 -347,-56 -19,-11 -41,-13 -63,-8 -23,6 -47,23 -73,53l-28 0 -96 -447 0 0 30 0c63,129 141,231 233,307 93,76 201,114 324,113 123,-1 207,-29 253,-85 46,-56 67,-119 64,-190 -3,-71 -36,-132 -100,-184 -53,-52 -152,-113 -298,-182 -169,-82 -284,-153 -344,-215 -60,-61 -90,-137 -90,-227 0,-107 43,-195 129,-263 86,-68 196,-102 331,-102 81,0 177,20 287,59 34,9 64,11 90,6 26,-5 48,-21 67,-48l44 0 73 440 0 0 -30 0z"/>
  <path fill="black" fill-rule="nonzero" d="M2012 10370c-77,-230 -158,-384 -243,-463 -85,-79 -173,-111 -263,-98 -91,13 -155,52 -193,118 -38,66 -53,139 -45,219 9,80 34,154 77,222 43,67 121,137 234,210 202,123 336,227 404,313 70,82 105,183 105,305 0,149 -47,272 -141,368 -93,96 -213,143 -359,143 -129,2 -236,-23 -323,-74 -18,-13 -38,-17 -59,-10 -22,7 -44,29 -67,68l-27 0 -89 -579 0 0 28 0c59,167 131,299 217,398 86,98 187,147 301,146 114,-1 193,-38 235,-111 42,-73 62,-155 59,-246 -3,-91 -33,-171 -92,-239 -49,-66 -142,-145 -278,-236 -157,-105 -264,-198 -319,-278 -56,-79 -84,-177 -84,-295 0,-137 40,-251 120,-339 80,-88 182,-133 307,-133 76,0 165,26 268,77 31,12 59,14 83,8 24,-6 45,-27 63,-63l40 1 69 570 0 0 -28 0z"/>
  <path fill="black" fill-rule="nonzero" d="M5381 9965l0 -28 1553 0 0 28 -1553 0zm664 1346l-1 -1166 -350 0c-115,18 -175,121 -181,309l-30 0 0 -381 682 0 0 0 671 0 0 0 6 191 7 191 -30 0c-29,-119 -64,-199 -106,-241 -42,-42 -89,-65 -143,-67l-282 0 -1 1166c0,79 16,135 48,167 32,33 91,51 177,55l0 15 -344 0 -346 0 0 -15c84,0 142,-17 174,-52 32,-34 49,-91 49,-170z"/>
  <path fill="black" fill-rule="nonzero" d="M4478 11386l-1 -1498 -350 0c-115,22 -175,154 -181,395l-30 0 0 -489 683 0 0 0 671 0 0 0 5 244 7 245 -29 0c-30,-152 -66,-255 -106,-309 -41,-54 -89,-82 -143,-86l-282 0 -1 1498c0,102 16,174 48,215 32,42 91,64 177,68l0 20 -344 0 -345 0 0 -20c84,0 142,-22 174,-65 32,-44 48,-116 48,-218z"/>
  <path fill="black" fill-rule="nonzero" d="M8399 9946l0 -28 1338 0 0 28 -1338 0zm1121 1051c0,191 -39,333 -116,427 -77,94 -194,142 -350,142 -158,0 -275,-46 -351,-139 -76,-93 -114,-236 -115,-430l0 -710c3,-82 -12,-139 -47,-172 -35,-34 -75,-50 -119,-49l0 -16 266 0 267 0 0 22c-56,-7 -100,7 -131,43 -31,36 -47,93 -47,173l0 736c0,154 24,277 72,367 48,90 117,138 206,143 90,6 176,-40 259,-139 83,-98 125,-222 125,-372l0 -649c0,-115 -18,-196 -53,-241 -36,-45 -77,-68 -125,-68l0 -16 215 0 216 0 0 16c-49,-4 -90,18 -123,65 -32,47 -49,128 -49,243l0 623z"/>
  <path fill="black" fill-rule="nonzero" d="M8118 10983c1,242 -42,424 -128,543 -86,120 -216,180 -390,180 -176,0 -306,-59 -391,-177 -85,-118 -127,-300 -128,-546l0 -903c4,-104 -14,-177 -53,-219 -39,-43 -83,-63 -133,-62l0 -20 296 0 297 0 0 27c-62,-9 -110,9 -145,55 -35,45 -53,119 -53,220l0 935c0,197 27,353 81,467 54,115 130,175 230,183 100,7 196,-52 288,-177 93,-126 139,-284 139,-473l0 -824c0,-147 -20,-249 -59,-306 -40,-57 -86,-86 -139,-87l0 -20 240 0 240 0 0 20c-55,-5 -100,23 -137,83 -37,60 -55,163 -55,310l0 792z"/>
  <path fill="black" fill-rule="nonzero" d="M11298 9950l0 -28 1338 0 0 28 -1338 0zm208 345c-44,-109 -77,-174 -100,-194 -22,-20 -51,-29 -86,-27l0 -16 246 0 246 0 0 16c-46,-1 -82,11 -109,40 -27,28 -26,89 1,182l333 929 0 0 0 0 272 -852c37,-111 45,-188 25,-230 -20,-42 -61,-65 -121,-68l0 -16 186 0 187 0 0 16c-45,0 -77,17 -96,50 -18,34 -41,91 -68,171l-417 1267 -15 0 -14 0 -469 -1267z"/>
  <path fill="black" fill-rule="nonzero" d="M10086 10084c-49,-139 -85,-221 -110,-246 -25,-26 -56,-38 -95,-36l0 -20 271 0 272 0 0 20c-52,-2 -92,15 -121,51 -29,36 -29,113 2,231l367 1186 0 0 0 0 300 -1087c40,-142 49,-241 27,-295 -22,-54 -67,-83 -133,-87l0 -20 205 0 206 0 0 20c-50,1 -85,22 -105,65 -20,43 -45,115 -75,217l-460 1618 -16 0 -16 0 -517 -1618z"/>
  <path fill="black" fill-rule="nonzero" d="M14783 9950l0 -28 1658 0 0 28 -1658 0zm609 1612l-26 0 -331 -1268c-22,-79 -41,-135 -60,-169 -18,-33 -48,-51 -90,-52l0 -16 425 0 0 16c-48,0 -84,17 -104,52 -21,34 -21,91 0,169l224 852 173 -670 -51 -182c-23,-79 -44,-135 -65,-169 -21,-33 -54,-51 -98,-52l0 -16 437 0 0 17c-52,-2 -87,15 -106,49 -19,34 -17,91 5,170l231 846 191 -768c27,-111 31,-189 11,-233 -20,-44 -55,-67 -104,-67l0 -15 330 0 0 16c-44,1 -72,18 -85,52 -13,33 -30,90 -52,169l-326 1268 -25 0 -255 -940 -249 940z"/>
  <path fill="black" fill-rule="nonzero" d="M13551 11702l-32 0 -419 -1618c-27,-101 -53,-173 -76,-215 -23,-43 -61,-65 -114,-66l0 -20 537 0 0 20c-61,0 -105,22 -132,66 -27,44 -27,115 1,216l283 1087 219 -855 -64 -232c-29,-101 -56,-173 -83,-215 -26,-43 -68,-65 -125,-66l0 -20 553 0 0 22c-66,-2 -111,19 -135,63 -24,44 -22,116 7,217l293 1079 241 -980c34,-142 39,-241 14,-298 -25,-56 -69,-85 -131,-85l0 -19 417 0 0 20c-56,1 -92,23 -108,66 -16,43 -38,115 -65,216l-412 1618 -32 0 -323 -1201 -315 1201z"/>
  <path fill="black" fill-rule="nonzero" d="M18174 9965l0 -28 1339 0 0 28 -1339 0zm316 1346l305 -491 0 0 -263 -492c-44,-82 -88,-142 -131,-180 -43,-38 -85,-57 -125,-58l0 -17 282 0 258 0 0 17c-59,-2 -98,22 -115,69 -18,48 2,123 58,226l143 263 0 0 0 0 196 -317c52,-79 71,-140 59,-183 -12,-43 -49,-63 -112,-60l0 -16 205 0 225 0 0 16c-41,-2 -83,14 -126,49 -43,35 -89,93 -140,171l-263 421 0 0 317 581c43,93 76,150 100,174 24,24 61,39 111,46l0 16 -259 0 -260 0 0 -16c53,-2 91,-24 115,-66 23,-43 4,-119 -56,-230l-175 -330 0 0 0 0 -205 330c-65,101 -94,171 -88,210 6,39 49,59 131,60l0 43 -201 0 -201 0 0 -16c37,0 70,-16 99,-47 28,-31 67,-89 115,-173z"/>
  <path fill="black" fill-rule="nonzero" d="M16905 11385l359 -631 0 0 -310 -631c-52,-105 -103,-181 -154,-230 -51,-49 -100,-73 -147,-75l0 -22 332 0 302 0 0 22c-69,-2 -113,28 -134,90 -21,62 2,159 69,290l168 335 0 0 0 0 231 -405c60,-101 83,-179 69,-234 -14,-55 -58,-81 -131,-78l0 -20 241 0 264 0 0 20c-47,-3 -96,18 -147,63 -51,44 -105,117 -165,219l-309 541 0 0 372 745c51,118 90,192 119,222 29,30 72,50 130,60l0 20 -305 0 -306 0 0 -20c63,-4 109,-33 135,-87 27,-54 5,-152 -66,-295l-206 -423 0 0 0 0 -241 423c-76,130 -110,219 -103,269 7,50 58,76 154,79l0 54 -236 0 -237 0 0 -20c44,-1 83,-21 116,-61 33,-40 78,-114 136,-221z"/>
  <path fill="black" fill-rule="nonzero" d="M7501 12253l0 -28 1338 0 0 28 -1338 0zm703 878l1 1 -12 20 0 447c0,80 12,137 34,170 23,33 71,50 143,50l0 16 -488 0 0 -16c64,0 110,-17 138,-50 27,-33 40,-90 40,-170l0 -415 -329 -588c-44,-80 -81,-137 -111,-172 -30,-35 -63,-51 -98,-49l0 -16 479 0 0 16c-65,0 -104,18 -117,55 -13,36 2,96 45,180l192 373 36 64 180 -355c60,-118 82,-200 67,-246 -15,-46 -50,-70 -104,-71l0 -16 395 0 0 17c-48,-1 -86,17 -113,53 -27,36 -63,96 -108,180l-271 519z"/>
  <path fill="black" fill-rule="nonzero" d="M6818 13071l1 3 -13 26 0 573c0,101 13,173 39,217 26,44 79,65 160,64l0 22 -544 0 0 -20c72,-1 123,-23 153,-66 30,-43 45,-115 45,-216l0 -531 -367 -754c-49,-101 -90,-174 -124,-219 -34,-45 -70,-66 -109,-63l0 -20 534 0 0 22c-73,0 -116,23 -130,69 -14,46 2,123 50,230l214 479 41 82 200 -455c67,-151 92,-257 75,-316 -17,-59 -56,-89 -116,-90l0 -22 441 0 0 23c-53,-1 -95,22 -126,68 -31,46 -71,123 -121,230l-302 666z"/>
  <path fill="black" fill-rule="nonzero" d="M10897 12253l0 -28 1339 0 0 28 -1339 0zm130 1507l4 -7 873 -1333 -309 0c-205,-1 -337,15 -399,46 -61,32 -106,123 -135,273l-14 0 19 -192 19 -192 1093 0 0 35 -902 1361 -15 16 -6 7 328 -1c205,1 338,-14 400,-44 61,-31 106,-118 135,-263l14 0 -19 184 -19 185 -1095 0 0 -33 27 -40 1 -1z"/>
  <path fill="black" fill-rule="nonzero" d="M9509 13883l4 -10 873 -1711 -309 0c-205,-1 -337,19 -399,60 -61,41 -106,158 -135,350l-14 0 19 -246 19 -247 1093 0 0 44 -902 1748 -15 20 -6 8 328 -1c205,1 339,-18 400,-58 61,-39 106,-152 135,-337l14 0 -19 236 -19 238 -1095 0 0 -43 27 -51 1 -1z"/>
  <path fill="black" fill-rule="nonzero" d="M3395 14686c72,0 142,43 211,129 69,86 122,208 161,368 39,159 58,325 58,499 0,174 -19,339 -56,497 -38,158 -91,280 -159,368 -68,88 -140,131 -215,131 -74,0 -146,-44 -214,-131 -68,-88 -121,-210 -159,-368 -38,-157 -56,-323 -56,-497 0,-174 19,-340 57,-499 38,-159 92,-282 160,-368 69,-86 140,-129 212,-129zm-270 1033c10,161 30,313 62,457 31,143 71,252 118,327 43,70 86,105 129,105 4,0 8,0 12,-1 47,-6 89,-53 127,-140 39,-88 66,-206 82,-356 10,-96 15,-194 15,-295 0,-55 -2,-112 -5,-169 -9,-162 -30,-315 -62,-460 -32,-145 -72,-254 -119,-327 -43,-68 -86,-102 -128,-102 -4,0 -8,0 -11,1 -45,6 -87,52 -126,137 -39,86 -66,204 -82,355 -11,98 -16,199 -16,302 0,55 2,111 5,168z"/>
  <path fill="black" fill-rule="nonzero" d="M5973 15267c0,-132 -29,-242 -86,-329 -57,-87 -119,-130 -186,-130 -113,0 -205,59 -275,176l-22 0 0 -66c26,-45 64,-91 115,-140 51,-48 112,-72 185,-72 122,0 224,54 306,163 82,108 124,241 124,399 0,235 -209,644 -627,1229l422 0c87,0 156,-50 209,-150l49 0 -103 312 -719 0 1 -67c405,-604 607,-1045 607,-1323z"/>
  <path fill="black" fill-rule="nonzero" d="M4377 16644l0 -67 96 0c69,0 103,-105 103,-315l0 -1066c0,-115 -39,-173 -117,-173l-98 0 0 -67c195,-56 303,-135 327,-236l50 0 0 1542c0,210 34,315 103,315l96 0 0 67 -560 0z"/>
  <path fill="black" fill-rule="nonzero" d="M6852 16613c101,0 173,-52 218,-156 45,-104 67,-230 67,-377 0,-93 -15,-185 -44,-276 -30,-91 -88,-157 -176,-199l0 -25c54,-40 102,-94 144,-162 42,-68 63,-161 63,-281 0,-98 -18,-183 -55,-254 -37,-71 -92,-113 -166,-124 -45,0 -87,20 -124,60 -37,40 -55,90 -55,149l-42 0 0 -213c0,-18 25,-33 74,-45 49,-12 101,-18 155,-18 103,0 189,38 257,113 68,75 102,187 102,334 0,78 -20,152 -61,223 -41,71 -105,133 -193,186 62,13 127,73 195,180 68,108 102,233 102,374 0,146 -48,278 -144,395 -96,117 -204,175 -325,175 -101,0 -184,-17 -247,-52 -64,-35 -96,-74 -96,-118l0 -134 49 0c0,74 29,134 86,179 57,45 130,67 217,67z"/>
  <path fill="black" fill-rule="nonzero" d="M8221 16056l0 -921 -424 921 424 0zm137 134l0 230c0,104 24,157 72,157l76 0 0 67 -442 0 0 -67 76 0c54,0 81,-54 81,-161l0 -225 -557 0 0 -47 660 -1424 34 0 0 1337 19 0c89,0 153,-59 193,-177l49 0 -103 312 -158 0z"/>
  <path fill="black" fill-rule="nonzero" d="M9234 15521l144 -781 396 0c69,0 106,-23 112,-70l50 0 -63 231 -429 0 -104 557c151,0 280,56 388,167 108,111 162,246 162,403 0,209 -48,373 -144,490 -96,117 -204,175 -324,175 -101,0 -184,-17 -248,-52 -61,-33 -92,-70 -92,-110l0 -142 46 0c0,79 29,140 86,182 57,43 130,64 217,64 101,0 173,-52 217,-156 44,-104 67,-260 67,-466 0,-142 -37,-261 -110,-355 -73,-95 -168,-142 -285,-142 -27,0 -55,2 -86,7z"/>
  <path fill="black" fill-rule="nonzero" d="M11061 16629c67,0 121,-44 163,-132 41,-88 62,-199 62,-332 0,-181 -33,-331 -100,-448 -67,-117 -139,-175 -216,-175 -61,0 -115,45 -163,136 -48,91 -72,203 -72,336 0,137 32,273 95,410 64,137 141,205 231,205zm243 -1943l0 64c-118,11 -227,91 -327,241 -100,150 -177,359 -233,628 64,-83 153,-125 266,-125 72,0 142,26 211,77 69,51 122,124 161,218 39,94 58,194 58,297 0,104 -19,202 -56,296 -38,93 -86,166 -144,218 -58,52 -115,78 -170,78 -162,0 -284,-72 -366,-218 -82,-145 -123,-312 -123,-500 0,-286 70,-570 209,-852 139,-281 311,-422 515,-422z"/>
  <path fill="black" fill-rule="nonzero" d="M13842 15526c81,-22 133,-78 156,-166 18,-67 27,-130 27,-188 0,-18 -1,-35 -3,-52 -8,-73 -26,-142 -53,-207 -27,-65 -60,-115 -100,-148 -37,-29 -72,-44 -106,-44l-9 0c-38,3 -73,23 -105,62 -32,38 -55,92 -68,160 -9,44 -13,88 -13,134 0,25 1,50 4,77 8,71 25,140 52,204 26,65 99,121 218,169zm-80 60c-76,19 -136,89 -181,211 -38,103 -56,195 -56,277 0,16 0,32 2,47 10,93 30,181 62,264 31,83 71,146 118,188 43,39 85,59 128,59l13 0c47,-3 89,-30 127,-80 39,-50 66,-119 82,-206 10,-55 15,-112 15,-170 0,-32 -2,-65 -5,-98 -7,-100 -32,-195 -73,-285 -42,-90 -119,-159 -231,-206zm164 -35c28,12 55,28 82,47 69,50 122,121 161,213 39,92 58,188 58,288 0,100 -19,196 -56,287 -38,91 -91,161 -159,212 -68,50 -140,76 -215,76 -74,0 -146,-25 -214,-76 -68,-51 -121,-121 -159,-212 -38,-91 -56,-186 -56,-287 0,-100 19,-196 57,-288 38,-92 92,-163 160,-213 27,-19 55,-35 82,-47 -16,-8 -32,-17 -48,-28 -57,-39 -102,-94 -133,-165 -31,-71 -47,-145 -47,-223 0,-78 16,-153 48,-224 32,-72 76,-127 133,-165 57,-38 116,-58 176,-58 60,0 119,19 176,58 57,38 102,93 134,165 32,71 48,146 48,224 0,78 -16,152 -47,223 -31,71 -75,126 -132,165 -17,12 -33,21 -50,28z"/>
  <path fill="black" fill-rule="nonzero" d="M12695 14880l-399 0c-89,0 -153,50 -192,150l-50 0 103 -311 719 0 -1 67c-247,775 -370,1314 -370,1618 0,115 22,173 67,173l117 0 0 67 -411 0 0 -67 67 0c48,0 72,-58 72,-175 13,-265 105,-772 278,-1521z"/>
  <path fill="black" fill-rule="nonzero" d="M15102 14734c-67,0 -121,44 -162,132 -41,88 -61,199 -61,332 0,181 33,331 100,448 67,117 138,175 215,175 60,0 115,-45 163,-136 48,-91 72,-203 72,-336 0,-137 -32,-273 -96,-410 -64,-137 -141,-205 -231,-205zm-243 1943l0 -64c118,-11 227,-91 327,-241 100,-150 177,-359 233,-628 -63,83 -152,125 -266,125 -72,0 -142,-26 -211,-77 -69,-51 -122,-124 -161,-219 -39,-94 -58,-193 -58,-297 0,-104 19,-202 56,-296 38,-94 86,-166 144,-219 58,-52 115,-77 170,-77 162,0 284,72 366,218 83,145 124,312 124,500 0,286 -70,570 -209,852 -139,281 -311,422 -515,422z"/>
 </g>
</svg>
