<?xml version="1.0" encoding="UTF-8"?>
<!DOCTYPE svg PUBLIC "-//W3C//DTD SVG 1.1//EN" "http://www.w3.org/Graphics/SVG/1.1/DTD/svg11.dtd">
<!-- Creator: CorelDRAW 2017 -->
<svg xmlns="http://www.w3.org/2000/svg" xml:space="preserve" width="210mm" height="297mm" version="1.1" shape-rendering="geometricPrecision" text-rendering="geometricPrecision" image-rendering="optimizeQuality" fill-rule="evenodd" clip-rule="evenodd"
viewBox="0 0 21000 29700"
 xmlns:xlink="http://www.w3.org/1999/xlink">
 <g id="Layer_x0020_1">
  <metadata id="CorelCorpID_0Corel-Layer"/>
  <path fill="#2B2A29" fill-rule="nonzero" d="M4189 3340c-59,6 -115,9 -169,9 -83,0 -159,-8 -228,-25 -89,-32 -141,-89 -154,-167 -16,-96 -24,-196 -24,-300 0,-20 1,-40 2,-59 2,-42 11,-86 28,-131 36,-87 200,-150 491,-187l90 -13c24,-2 48,-3 71,-4l0 -180c-3,-120 -38,-177 -106,-171 -37,3 -63,8 -81,17 -18,8 -26,59 -25,150l10 66c1,35 -23,54 -72,56 -108,16 -226,28 -354,36 -26,2 -39,-30 -41,-94l-1 -26c10,-131 60,-247 150,-349 88,-60 171,-90 250,-90l15 0 21 0c166,1 311,18 435,52 91,66 137,131 139,194l7 78c4,116 8,257 12,427 4,169 -2,315 -19,436 -1,30 9,45 29,45l58 1c17,2 25,13 25,33l0 3c-3,50 -9,103 -17,159 -6,30 -19,44 -41,43l-215 3c-105,0 -201,-4 -286,-12zm74 -559c-1,-1 -1,-2 -1,-4 -1,-5 -1,-13 -1,-21 0,-8 -1,-17 -1,-26 0,-9 0,-18 0,-27 0,-9 0,-15 1,-20l0 -16c-1,-35 -16,-50 -46,-45l-76 7c-41,6 -67,29 -77,68 -36,127 -51,248 -45,362 1,82 38,119 111,112 72,-6 113,-34 124,-85l1 -8c1,-10 5,-18 14,-26l-2 -271z"/>
  <path fill="#2B2A29" fill-rule="nonzero" d="M2163 3597c-154,-53 -273,-123 -358,-209 82,-206 158,-492 228,-859 44,-214 82,-383 112,-509l-229 13 -2 146c-72,6 -173,13 -303,23l-29 -518c0,-36 201,-65 602,-85 292,20 482,26 569,18 87,-8 307,-13 660,-15l15 398c-5,29 -14,43 -26,42 -153,8 -325,12 -517,12 48,119 108,263 180,433l257 615 194 388 -298 141c-89,-217 -178,-437 -265,-659 -27,9 -85,12 -175,9 -213,-7 -355,-12 -428,-15 -56,211 -118,421 -186,632zm700 -856c-90,-233 -179,-468 -268,-704l-5 1 -99 384 -74 280 -2 6c131,12 280,23 448,32z"/>
  <path fill="#2B2A29" fill-rule="nonzero" d="M7471 2307c29,-1 59,-1 92,-1 147,0 275,30 385,90 68,55 115,141 141,258 3,110 4,204 4,280 0,37 0,70 0,99 -3,87 -17,189 -41,308 -41,113 -204,169 -490,169l-89 0c-213,-9 -337,-48 -371,-118 -32,-62 -48,-141 -48,-239 8,-70 15,-137 18,-202l84 -852 -115 -4c12,-116 21,-220 28,-311l2 -10 399 -53c35,7 36,203 2,588zm-31 760c-3,109 -2,180 2,212 10,14 40,21 89,23l8 0c48,0 83,-17 105,-50 44,-190 67,-339 67,-449l0 -79 -2 -75c-3,-50 -13,-79 -31,-87l-63 -19c-71,0 -116,50 -133,150 -30,123 -44,248 -41,374z"/>
  <path fill="#2B2A29" fill-rule="nonzero" d="M5494 2115l-179 -18c-26,0 -39,-22 -39,-67l0 -12 15 -417 458 -3 56 0c307,0 514,23 623,68 72,45 124,120 158,225l23 226 8 240c-1,142 -37,226 -107,251 95,39 161,120 198,241 6,42 8,99 8,172l0 45c-1,93 -4,161 -8,203l-14 75c-35,183 -166,278 -393,286l-62 0c-398,0 -677,-18 -838,-53 47,-939 78,-1427 94,-1462zm468 -200l-11 167c-12,144 -18,248 -18,310 17,49 36,72 57,69l117 0c28,0 53,-17 76,-49 36,-153 54,-271 53,-355 -1,-84 -2,-136 -3,-157 -1,-21 -18,-38 -49,-53l-88 -11c-89,1 -133,27 -134,78zm-78 962l-15 294c-11,72 -1,114 30,124 220,46 333,35 338,-33 13,-106 16,-201 10,-286l-6 -72c1,-116 -51,-174 -158,-174 -106,3 -171,28 -193,72l-7 75z"/>
  <path fill="#2B2A29" fill-rule="nonzero" d="M9793 2182c41,-114 204,-170 490,-170l89 0c213,10 338,50 375,119 37,62 56,141 56,239l0 91c0,29 -14,44 -42,45 -122,-3 -235,-11 -337,-24 -22,-2 -34,-13 -36,-34 -1,-7 -1,-16 0,-28 0,-12 1,-24 1,-36 0,-13 1,-25 1,-37 1,-12 1,-22 2,-30l1 -23c1,-47 -12,-70 -41,-69l-75 -1c-41,0 -68,26 -79,78 -43,169 -66,336 -68,499 -4,111 29,170 100,178 71,2 113,-32 127,-100l1 -11c3,-33 26,-50 69,-51 94,0 179,5 254,15 26,5 38,47 37,128 -3,173 -148,259 -435,259 -147,0 -276,-30 -386,-90 -85,-61 -132,-146 -140,-258 -4,-83 -7,-166 -7,-251 0,-85 2,-171 7,-258 4,-58 17,-118 36,-179z"/>
  <path fill="#2B2A29" fill-rule="nonzero" d="M8503 1898c45,-178 234,-267 565,-267l103 0c246,16 387,79 425,188 46,99 69,228 69,388l-4 146c-6,27 -28,37 -67,32l-174 -17 -186 0c-1,0 -6,-35 -14,-105l-2 -104 -10 -167c0,-36 -35,-56 -105,-58l-10 0c-65,0 -111,33 -141,99 -54,321 -81,574 -81,760l0 132 6 134c3,91 24,145 65,163l60 29c96,0 155,-84 176,-251l198 -16 156 16 28 65 0 127c0,272 -164,408 -492,408 -172,0 -321,-48 -448,-144 -77,-86 -130,-224 -159,-415l-10 -414 10 -431 42 -297z"/>
  <path fill="#2B2A29" fill-rule="nonzero" d="M13855 3297c-6,97 -32,173 -75,228 -32,54 -121,81 -266,81 -33,0 -70,-2 -110,-6l-89 -11c-286,-34 -445,-109 -478,-225l-25 -181 10 -259 23 -248c34,-114 86,-195 157,-242 114,-46 244,-61 391,-43 28,4 55,8 82,13 4,-508 25,-763 61,-765l425 -14 2 10 -12 91 15 90 -12 300 -29 61 -99 -22c7,617 17,998 29,1144zm-381 -551c-18,-80 -67,-121 -148,-124l-90 20 -18 149 -4 79c-7,109 6,260 38,454 19,35 52,55 100,61l8 1c49,5 73,1 74,-10 15,-129 25,-198 31,-208 11,-145 15,-286 11,-423z"/>
  <path fill="#2B2A29" fill-rule="nonzero" d="M12510 1909c28,39 50,115 65,228l-37 930c-17,242 -111,416 -282,525 -75,23 -194,36 -356,39l-55 0c-155,0 -355,-10 -600,-32l21 -1551 -220 -17 10 -427c48,-4 103,-6 165,-6 154,0 352,12 593,37 351,48 583,139 696,273zm-939 1318c62,12 109,20 143,23l85 8c131,-28 198,-64 200,-109 41,-223 73,-525 97,-906 18,-127 -42,-212 -180,-255l-249 -22c-35,518 -66,939 -95,1261z"/>
  <path fill="#2B2A29" fill-rule="nonzero" d="M16432 2617c-7,62 -10,123 -11,183 -4,112 29,171 100,179 71,2 113,-32 127,-100l1 -11c3,-33 26,-50 69,-51 94,0 179,5 254,15 26,5 38,47 37,128 -3,173 -148,259 -435,259 -147,0 -276,-30 -386,-90 -85,-61 -132,-147 -140,-258 -4,-83 -7,-167 -7,-252 0,-85 2,-171 7,-259 4,-58 17,-117 36,-179 41,-114 204,-170 491,-170l89 0c213,10 338,51 375,120 37,62 56,167 56,317l0 90c0,12 -2,23 -7,30l0 66 -655 -16zm248 -153c0,-2 0,-4 1,-5 0,-13 0,-25 1,-37 1,-12 1,-47 2,-106l1 -23c1,-47 -12,-70 -41,-69l-75 -1c-41,0 -68,26 -80,78 -14,53 -25,106 -34,159l224 5z"/>
  <path fill="#2B2A29" fill-rule="nonzero" d="M15342 2764c-55,-6 -156,-13 -302,-22l-42 541c0,11 219,18 658,19l0 -152 61 -13 204 13 82 0 41 42 -21 438c-296,0 -722,-21 -1280,-62l-154 28 -30 -82c47,-176 71,-432 71,-766 8,-418 22,-655 41,-713l-256 19c-1,-9 -1,-23 -1,-42 0,-67 4,-201 12,-401l0 -11 641 28c332,1 557,21 675,59l-30 518c-22,-1 -42,-2 -59,-5 -17,-2 -33,-5 -48,-7 -15,-2 -32,-4 -48,-6 -17,-2 -36,-4 -58,-6l-94 -23 3 -121 -316 -13 -2 55 -31 409 487 46 -12 207c-10,29 -74,37 -193,26z"/>
  <path fill="#2B2A29" fill-rule="nonzero" d="M19241 2403l0 -217c-7,-217 -7,-350 0,-399 25,-88 91,-131 197,-131l194 0c43,-2 81,-3 116,-3 131,0 210,23 236,68 41,54 62,192 62,414l0 43c-92,9 -184,11 -276,6 -39,0 -59,-5 -59,-15 -13,-3 -22,-85 -28,-247 -7,-24 -26,-35 -58,-34 -78,0 -110,83 -95,249 6,65 8,148 7,246 3,26 5,39 8,40l133 0 130 11c29,1 49,20 59,58l-8 150c-8,23 -72,33 -193,29l-136 0c-2,9 -5,20 -8,30 -14,106 -19,193 -16,263 3,69 -11,221 -41,453 0,36 -2,80 -6,129 -13,18 -30,28 -51,28l-209 0c-14,-3 -24,-29 -30,-78l0 -39 89 -629 -2 -149c-10,-12 -22,-19 -37,-19l-96 9 -38 -9c-50,0 -74,-43 -74,-130l22 -140 208 10z"/>
  <path fill="#2B2A29" fill-rule="nonzero" d="M18635 1689l113 10c3,-1 6,0 8,3l16 1c57,10 86,43 86,99l0 10 -18 336c-19,62 -54,93 -105,94l-595 -206 12 410 399 58 -6 300 -393 -40c-1,372 0,612 5,718 0,45 -29,78 -87,97l-175 61c-15,4 -29,6 -40,6 -33,0 -51,-21 -54,-64l-46 -731 -53 -816 -145 -29c-5,0 -10,-1 -13,-3l-5 -1 0 -1 43 -416 1052 105z"/>
  <path fill="#2B2A29" fill-rule="nonzero" d="M4149 4846l-102 7c-90,46 -123,189 -99,429l0 37c-2,128 44,188 138,180l39 0c58,-4 87,-16 87,-36l1 -31 22 -507c-18,-57 -47,-84 -86,-81zm449 181c5,279 8,451 8,517l0 20c-1,107 -10,241 -24,402l-7 75c-1,64 -49,135 -142,213 -128,64 -276,98 -444,105l-22 3c-137,-6 -239,-25 -306,-57 -65,-36 -106,-149 -124,-336l0 -25c1,-64 15,-98 41,-100l62 7 138 -13 136 1 16 -1c49,-3 70,14 63,50l2 66 -2 133c39,12 81,19 126,19 67,-4 106,-66 117,-188 12,-140 13,-233 2,-280 -54,14 -98,21 -133,23l-112 7c-246,11 -390,-58 -431,-208l-10 -37 -2 -469c1,-132 61,-235 177,-310 78,-28 166,-44 263,-48 295,7 465,48 509,124 55,44 88,145 98,304z"/>
  <path fill="#2B2A29" fill-rule="nonzero" d="M2819 6335c-32,7 -113,11 -245,11 -223,0 -418,-48 -584,-143 -125,-97 -194,-235 -206,-414 -8,-135 -12,-273 -12,-412 0,-140 4,-281 12,-424 6,-92 23,-189 53,-291 61,-181 307,-271 738,-271l136 0c318,17 505,82 561,193 56,98 84,226 84,385l0 147c1,40 -18,61 -55,62 -186,-5 -356,-20 -511,-42 -29,-3 -44,-18 -46,-44 -1,-11 -1,-25 0,-43 0,-18 4,-63 10,-134 -5,-136 -55,-204 -148,-202l-145 -3c-68,0 -112,47 -131,140 -66,282 -95,584 -87,908 -8,137 41,214 145,228 185,4 289,-55 312,-176 4,-21 7,-42 9,-62l-147 5c-24,-1 -38,-12 -41,-33l-1 -43 1 -48c-1,-19 8,-29 25,-29l768 -17 34 0c18,0 29,12 33,37 4,14 6,32 6,52 0,20 -2,43 -6,69 -4,34 -19,49 -45,45l-91 7c3,47 8,248 15,603 0,26 10,39 30,39l45 1c25,0 37,13 37,36 1,22 -1,46 -9,72 -2,9 -10,15 -22,17 -41,6 -83,9 -125,9 -39,0 -79,-2 -120,-6 -34,-6 -51,-28 -54,-65 1,-58 1,-111 0,-158 -1,-27 -5,-49 -13,-67 -6,-13 -14,-26 -24,-39 -15,24 -34,43 -59,58 -23,13 -66,27 -127,42z"/>
  <path fill="#2B2A29" fill-rule="nonzero" d="M6995 5501l29 -676 -101 12 -22 -72 11 -294 1 -13 392 20c31,4 32,238 2,701l8 1 0 1c118,18 212,38 282,59 150,35 236,86 259,150 34,37 51,174 51,410 0,167 -9,386 -26,656l-3 45c-37,2 -74,3 -110,3 -102,0 -197,-11 -285,-32 -20,-7 -12,-319 26,-936 -2,-62 -23,-93 -62,-94 -129,-15 -196,8 -199,69 -5,81 -6,270 -2,569l0 79 -266 95 6 -506 11 -247z"/>
  <path fill="#2B2A29" fill-rule="nonzero" d="M6267 4504c198,-56 309,-84 334,-85l10 0c23,0 35,13 35,39l0 1 -100 2008c-3,50 -16,75 -39,75l-6 0 -100 -18 -117 -1c-60,-30 -91,-98 -91,-205l1 -520c0,-70 -35,-109 -105,-117 -44,-12 -89,-16 -135,-13 -30,4 -44,30 -44,78 -7,53 -10,147 -7,281l4 189c1,29 -14,43 -47,43l-256 20c-25,0 -38,-19 -40,-56 -15,-351 -20,-707 -15,-1067 -1,-29 -13,-41 -38,-37l-74 13c-13,2 -20,-3 -21,-17 -10,-94 -16,-185 -17,-273l0 -3c0,-19 7,-29 21,-29l448 -13c44,-2 66,22 66,71l0 449c0,43 11,65 32,65l194 0c22,0 34,-32 37,-97 8,-345 15,-581 19,-711 0,-40 17,-64 50,-71z"/>
  <path fill="#2B2A29" fill-rule="nonzero" d="M9790 5289l120 0 74 10 44 -10 23 61c-10,101 -15,267 -15,497l0 281 -74 9 -364 0c-34,-40 -52,-90 -52,-150l0 -31 156 0 -8 -99 -8 -528 -8 -31 112 -10zm-238 -280c1,-89 83,-146 245,-172 14,-2 28,-4 41,-6 26,-4 51,-6 76,-6 23,0 47,2 70,6 48,6 86,20 115,41 29,22 44,46 46,74l0 3c0,18 -6,37 -17,56l-21 29c-23,28 -58,52 -102,72 -46,21 -95,35 -146,42 -4,1 -7,1 -10,1 -25,5 -47,8 -67,8l-15 0 -32 -5c-8,-1 -17,-2 -25,-4l-7 0c-52,-3 -92,-20 -120,-52 -19,-19 -30,-40 -32,-64l0 -24z"/>
  <path fill="#2B2A29" fill-rule="nonzero" d="M9252 4509c-77,1114 -121,1747 -131,1896l-239 45 -179 33 -3 0c-13,0 -15,-10 -7,-29 39,-513 78,-1026 118,-1538l-254 15c-14,0 -21,-8 -21,-25l0 -3 11 -422 707 29z"/>
  <path fill="#2B2A29" fill-rule="nonzero" d="M12995 4736l333 -65 -28 205c-47,216 -62,403 -43,563 18,159 22,320 10,482l-6 76c0,65 -45,135 -137,208 -127,41 -253,70 -381,85l-22 0c-176,-15 -279,-39 -309,-70 -88,-117 -132,-231 -132,-342l0 -26c0,-66 14,-99 41,-99l63 10 138 -10 148 9 16 0c50,0 75,18 75,53l-7 69 0 137c40,16 79,23 116,23 68,0 102,-61 102,-183 -17,-357 -17,-592 0,-706 6,-159 14,-299 23,-418z"/>
  <path fill="#2B2A29" fill-rule="nonzero" d="M11639 5889c1,-228 -4,-390 -13,-485 -15,-185 -29,-336 -43,-453l-229 62c-14,3 -22,-9 -26,-36l-33 -396 -2 -11 662 -105 28 62 21 385c14,412 26,670 35,776 9,106 14,196 14,270 -5,75 -10,137 -16,185 -8,70 -15,111 -20,124 -40,120 -127,180 -259,180l-302 49 -180 -10c-195,0 -312,-40 -349,-120 -80,-72 -120,-261 -120,-567l0 -61c218,-17 392,-19 522,-4 18,10 33,141 46,394 43,33 91,41 146,25 54,-16 92,-47 115,-92 4,-57 6,-114 4,-172z"/>
  <path fill="#2B2A29" fill-rule="nonzero" d="M15495 5520l25 -676 -101 12 -22 -71 10 -294 0 -13 393 16c29,3 32,219 8,646 414,-456 627,-685 641,-685 41,23 81,81 118,174 9,25 13,45 13,59 0,9 -1,15 -5,19l-579 529c39,13 103,27 192,43 89,16 146,56 169,120 58,63 69,417 32,1064l-3 45 -327 0c-46,-5 -69,-12 -68,-23 -14,-2 -7,-314 19,-935 -30,-62 -51,-93 -63,-94 -128,-13 -194,11 -198,72l-2 22 0 96 -6 3 10 446 -13 84 -243 90 -19 -46 11 -455 1 -229 8 -17z"/>
  <path fill="#2B2A29" fill-rule="nonzero" d="M14143 4871l-162 -11 25 -446c72,4 237,37 496,101 33,7 50,31 50,71 4,129 11,366 19,710l2 94 47 -46 481 -639c80,-21 152,-21 216,0l8 9c-187,302 -356,556 -507,763l-2 10c31,50 196,358 495,924l-341 20c-155,-265 -285,-507 -392,-724l-3 577c-1,131 -39,208 -113,228l-96 16 -100 19 -8 0c-22,0 -34,-20 -37,-61l-80 -1615z"/>
  <path fill="#2B2A29" fill-rule="nonzero" d="M19081 4494l358 0c17,7 33,50 51,128l-71 1697c0,54 -92,103 -276,147l-41 -52 41 -1388 -91 0 -20 -73 0 -111c15,-233 32,-349 50,-349z"/>
  <path fill="#2B2A29" fill-rule="nonzero" d="M17751 4489l20 2 -20 447 -92 1206c0,12 290,21 869,28l0 -153 61 -11 204 11 82 0 41 43 -20 438c-395,0 -892,-24 -1491,-71l-158 9 -26 -64c47,-176 71,-431 71,-766 8,-287 22,-524 41,-712l-234 15c-14,-1 -20,-15 -20,-42l10 -396 0 -11 664 28z"/>
  <path fill="#2B2A29" fill-rule="nonzero" d="M4235 7665l23 4c83,-24 147,-36 191,-36 152,0 287,10 407,29 119,19 193,60 220,121 42,38 63,270 63,693 0,197 -4,436 -13,716l0 45 -314 32 -11 0c-22,0 -47,-5 -73,-15 -13,-24 -9,-452 13,-1285 -8,-53 -32,-82 -69,-88 -104,0 -156,31 -156,92l0 23 -2 99 26 551 2 79 -297 69 -15 -455 -14 -429c-7,-24 -17,-35 -30,-33 -125,0 -188,31 -188,92l0 23 -2 99 57 944 -8 85 -275 -10 -21 -45c-24,-220 -40,-507 -48,-859l-136 -9c8,-279 24,-463 47,-553l200 -12c35,-1 94,-2 177,-2 83,0 165,11 247,34z"/>
  <path fill="#2B2A29" fill-rule="nonzero" d="M2429 9451c-69,26 -143,39 -222,39 -63,0 -129,-8 -198,-25l59 -2035 399 -20 208 1343 313 -1218c107,-36 215,-44 323,-25l74 1426 146 -50 11 366c-125,58 -257,81 -394,69l-37 -1148 -406 1173 -81 6 -194 -1103 0 1202z"/>
  <path fill="#2B2A29" fill-rule="nonzero" d="M6959 7642c29,-15 63,-23 102,-23l13 0c152,8 276,19 371,34 143,36 227,85 253,147 41,42 62,288 62,738 0,189 -4,414 -11,675l-1 45c-28,15 -96,23 -205,23 -55,0 -121,-2 -196,-6 -10,-13 -7,-449 8,-1307 -16,-56 -38,-86 -67,-90 -104,-6 -156,22 -158,84l-1 22 11 772 -10 85 -279 100 -21 -46 -1 -456 1 -454 -133 1 1 -23c9,-213 29,-319 59,-319l200 -1z"/>
  <path fill="#2B2A29" fill-rule="nonzero" d="M6267 9158l-269 -793 -6 361 7 635c-5,58 -22,99 -51,124l-164 9 -100 19 -8 0c-22,0 -34,-20 -37,-61l-84 -1705 -2 0 6 -33c-6,-2 -12,-2 -21,-1l-74 13c-13,2 -20,-3 -21,-17 -10,-94 -16,-185 -17,-273l0 -2c0,-19 7,-29 20,-29l165 -4 1 -10 286 3 15 0c4,1 8,2 12,3 11,4 21,10 27,20 8,11 12,28 12,48l0 5c7,14 13,32 18,54 156,589 250,930 281,1024 -6,-172 -9,-408 -9,-706 0,-49 22,-73 66,-71l303 52c14,0 21,9 21,29l0 3c-2,155 -4,247 -4,276 -17,359 -32,715 -47,1066 -1,37 -15,56 -40,56l-238 -13c-14,0 -25,-14 -34,-40l-12 -38z"/>
  <path fill="#2B2A29" fill-rule="nonzero" d="M9829 7837c4,-82 194,-145 568,-189 98,0 187,18 265,55 115,105 173,255 173,452l-10 698 -6 55c-47,230 -195,345 -443,345l-113 0c-160,0 -279,-46 -357,-137 -95,-123 -143,-251 -143,-385l30 -726c5,-63 17,-118 34,-167zm353 249l21 739 0 42c0,27 38,40 113,40l50 0c122,0 184,-91 184,-274l12 -591c-6,-39 -26,-63 -60,-72l-206 -7c-52,0 -89,41 -113,123z"/>
  <path fill="#2B2A29" fill-rule="nonzero" d="M8392 7661c0,-112 234,-195 700,-250 122,0 232,23 330,69 144,134 216,331 216,590l-12 902 -14 70c-55,296 -237,445 -545,445l-141 0c-199,0 -347,-59 -444,-176 -119,-159 -178,-324 -178,-496l37 -944c7,-33 24,-104 50,-211zm418 289l28 1019 0 59c0,37 50,55 150,55l65 0c162,0 244,-126 244,-378l0 -78 -13 -733c0,-60 -50,-98 -150,-114l-174 0c-70,0 -120,57 -150,169z"/>
  <path fill="#2B2A29" fill-rule="nonzero" d="M13041 7794c-31,18 -61,60 -91,127 -30,66 -44,129 -44,188 0,59 -1,135 -3,231 -3,95 4,161 19,198 15,37 47,59 95,64 48,6 85,-22 112,-84 27,-63 47,-166 60,-312 13,-146 12,-246 -2,-300 -14,-54 -34,-91 -60,-109 -25,-19 -54,-20 -85,-2zm-147 1015l0 59c-2,-1 -3,-1 -4,-1 -4,178 -1,351 7,520l-365 -33 -17 -182 12 -70 69 -12 10 -413c2,-52 0,-356 -7,-912l0 -3 7 -185c143,-39 239,-61 289,-64 16,0 33,0 53,0l30 0c98,3 173,6 224,10 51,3 92,12 122,25 30,13 60,40 92,83 32,42 55,75 72,99 17,24 34,57 52,99 18,42 30,94 37,153 2,23 3,48 4,76 1,24 2,50 2,79 0,28 -1,59 -2,92 -3,106 -12,190 -25,253 -13,63 -27,111 -43,145 -16,34 -42,65 -78,93 -37,27 -73,53 -108,78 -35,24 -72,36 -111,36 -39,0 -95,-5 -169,-16 -74,-10 -121,-15 -140,-13 -3,0 -6,0 -8,1z"/>
  <path fill="#2B2A29" fill-rule="nonzero" d="M11699 8586c32,18 89,22 172,12 96,-13 144,-74 146,-184l2 -81c11,-256 9,-419 -7,-489 -35,-38 -93,-60 -174,-65 -47,-2 -90,1 -128,9l-11 797zm-572 -1220c178,-8 326,-12 444,-12 55,0 103,1 145,3l89 0c301,5 471,75 510,212l33 219 6 457 -14 175c-27,143 -75,248 -144,313 -111,71 -247,105 -408,102 -37,3 -71,3 -102,0 2,275 10,511 23,710l-432 -52 29 -1708 -187 -24c1,-143 3,-275 7,-396z"/>
  <path fill="#2B2A29" fill-rule="nonzero" d="M16085 8730c-8,1 -17,2 -26,4 -147,19 -278,6 -392,-37 -72,-44 -125,-123 -160,-236l-26 -247 -13 -259 36 -294c31,-114 175,-171 431,-171l23 0c270,4 425,38 465,102 43,55 68,131 75,229 1,9 1,20 1,33 0,86 -14,275 -43,565 -38,347 -62,566 -72,659l48 5c8,4 14,12 15,25 -7,110 -10,194 -8,254 1,32 -7,49 -23,50l-326 -1c-39,-8 -41,-234 -7,-680zm41 -962c-27,-25 -65,-35 -114,-31l-10 1c-47,8 -79,29 -98,64 -29,194 -40,346 -31,456l6 79 18 147 91 17c70,-9 111,-65 125,-166 7,-127 11,-230 12,-311 1,-81 1,-166 1,-257z"/>
  <path fill="#2B2A29" fill-rule="nonzero" d="M13997 7489c0,-112 234,-195 700,-250 122,0 232,23 330,69 144,134 216,331 216,589l-12 958 -14 70c-21,115 -62,208 -122,278l34 69 48 -62 35 34c19,36 37,80 56,130l41 62 6 10 -230 213 -3 0c-19,0 -82,-107 -187,-322 -64,22 -139,33 -222,33l-141 0c-199,0 -347,-59 -444,-176 -119,-159 -178,-324 -178,-496l37 -1001c3,-68 19,-138 50,-210zm749 1461c-4,-9 -9,-16 -15,-23 -44,-74 -88,-162 -134,-263 -6,-11 40,-65 138,-160 6,-4 12,0 17,12l51 90 81 166c12,-51 18,-111 18,-181l0 -78 -13 -790c0,-35 -50,-73 -150,-114l-174 0c-70,0 -120,56 -150,169l28 1076 0 60c0,36 50,55 150,55l65 0c32,0 60,-5 85,-14l3 -3z"/>
  <path fill="#2B2A29" fill-rule="nonzero" d="M18760 8289l-107 -39 -3 -20c6,-258 24,-388 55,-389l157 -14c27,-15 58,-24 96,-25l201 0c207,4 329,33 366,90 44,54 66,190 66,408l0 40 -288 9c-40,0 -60,-5 -59,-15 -13,1 -23,-89 -31,-270 -14,-24 -33,-35 -60,-34 -91,0 -136,28 -136,85l4 89 -7 201 -15 531 4 110c-17,24 -75,40 -176,48l-89 5c-2,1 -4,1 -6,1 -11,0 -21,-21 -28,-64l-1 -37 63 -605 -8 -104z"/>
  <path fill="#2B2A29" fill-rule="nonzero" d="M17566 7925l16 248 6 62c16,72 53,111 111,116l154 7c54,3 88,-63 104,-196 15,-134 -14,-242 -88,-324 -22,-34 -83,-58 -180,-72 -64,-8 -102,1 -113,31l-7 53c-2,26 -3,52 -2,76zm719 605c-22,17 -46,32 -72,43 5,8 55,139 148,392l143 341 28 113 -257 58c-22,8 -117,-155 -286,-486 -34,-91 -96,-222 -188,-394 -36,-4 -72,-9 -109,-15 -41,-6 -80,-14 -116,-22l6 491 -5 382 -25 65 -415 -33 -7 -427c-16,-61 -14,-417 4,-1070l-155 -22c13,-177 32,-359 56,-545l269 32c81,11 226,29 434,55l114 19c219,35 378,79 478,131 60,34 97,67 111,98 3,5 5,10 7,14l2 15c7,31 12,66 16,105 7,74 7,151 1,229 -6,79 -17,153 -34,223 -17,70 -45,122 -84,157 -39,34 -60,52 -65,51z"/>
  <path fill="#2B2A29" fill-rule="nonzero" d="M3468 10564c29,-93 94,-140 194,-140l229 0 138 9c148,0 236,31 263,93 61,57 91,203 91,439l0 46 -314 7 -12 0c-46,0 -69,-5 -69,-15 -14,0 -26,-97 -34,-291 -34,-25 -56,-37 -69,-37 -92,0 -138,31 -138,93l0 23 11 169c63,50 213,111 448,185 58,20 98,53 119,99 66,91 99,230 99,420l-6 78c0,64 -46,133 -138,206 -128,42 -277,71 -448,85l-21 0c-176,-14 -279,-37 -308,-69 -88,-118 -132,-233 -132,-344l0 -25c0,-66 14,-99 41,-99l61 10 138 -10 148 9 18 0c50,0 75,17 75,52l-7 69 0 137c39,16 77,23 114,23 69,0 104,-61 104,-182 -8,-168 -20,-269 -36,-301l-481 -215c-72,-64 -107,-159 -107,-285 11,-141 20,-220 28,-237z"/>
  <path fill="#2B2A29" fill-rule="nonzero" d="M1844 10365c38,-119 123,-179 254,-179l297 0 178 12c173,0 290,37 351,112 72,78 109,269 109,573l0 61 -423 10c-56,1 -86,-6 -89,-20 -20,-26 -34,-146 -42,-360 -4,-46 -34,-69 -91,-68 -119,0 -178,40 -178,120 0,19 2,91 7,214 5,24 13,42 25,56 70,51 258,124 562,218 76,27 134,70 174,128 72,119 109,302 109,549l-1 69c-4,115 -65,211 -186,290 -156,78 -349,118 -578,120l-30 0c-222,0 -356,-30 -402,-90 -114,-155 -171,-304 -171,-448l0 -31c0,-87 17,-130 51,-130l477 10c61,0 91,24 91,71l-2 89c0,119 13,184 38,194 26,10 62,15 110,15 89,0 133,-80 133,-239 8,-249 -29,-387 -112,-415l-546 -248c-101,-88 -152,-212 -152,-374 15,-184 28,-287 38,-309z"/>
  <path fill="#2B2A29" fill-rule="nonzero" d="M6388 10401l148 10c89,0 134,27 134,80 -5,62 -3,95 8,99l133 0 313 11c29,1 49,20 59,58l-8 150c-8,23 -72,33 -193,29l-319 0c-2,10 -5,20 -8,31 5,139 8,219 8,239 0,20 -3,64 -8,130 -5,66 -6,134 -4,204 3,70 -11,221 -41,454 0,37 -2,81 -6,131 -13,18 -30,28 -51,28l-209 0c-14,-3 -24,-30 -30,-79l0 -39 89 -630 -15 -459c-10,-13 -22,-19 -37,-19l-97 9 -37 -9c-50,0 -74,-43 -74,-130l22 -140 208 10c5,0 0,-50 -15,-151 10,-6 20,-12 30,-18z"/>
  <path fill="#2B2A29" fill-rule="nonzero" d="M4645 10284c3,-69 33,-103 91,-103l8 0c443,23 921,41 1435,56l2 337 -508 -14 22 1666c-83,33 -172,49 -267,49 -21,0 -42,-1 -63,-3 -29,-2 -59,-5 -89,-9 18,-535 36,-1074 54,-1618l-620 -31c-57,-3 -86,-26 -86,-67l0 -3 21 -260z"/>
  <path fill="#2B2A29" fill-rule="nonzero" d="M9094 11856c-148,-35 -234,-84 -258,-148 -39,-42 -59,-210 -59,-504 0,-148 5,-328 15,-538l2 -45c144,10 273,35 388,75 14,15 13,300 -3,857 21,60 43,91 66,93 103,9 156,-17 159,-78l1 -22 8 -99 2 -807 11 -85c124,-25 210,-40 257,-46 14,31 21,63 21,95l-2 150 -2 199 -17 603 135 53 -1 20c-13,212 -35,318 -66,318 -348,-37 -566,-67 -656,-91z"/>
  <path fill="#2B2A29" fill-rule="nonzero" d="M7915 11765c0,160 47,237 142,232 79,0 133,-7 161,-22 84,-38 124,-150 118,-333l-47 -1292 306 -104c14,860 21,1336 23,1427 -5,235 -52,391 -141,467 -77,64 -157,103 -240,118 -95,14 -185,21 -270,21 -113,0 -217,-12 -311,-36 -103,-49 -156,-130 -160,-244l22 -1479 -133 7 -41 -13 4 -147 13 -179 1 -10 576 40c40,5 59,22 58,52 -54,678 -82,1176 -83,1495z"/>
  <path fill="#2B2A29" fill-rule="nonzero" d="M11535 10598c108,-56 209,-66 303,-32l132 1158 55 -350c36,-232 81,-513 133,-841 4,-31 15,-46 33,-46l5 0c87,13 173,35 259,66 14,3 21,16 21,37 0,13 -3,30 -7,49 -138,507 -253,926 -344,1261 -80,46 -143,69 -190,69 -25,0 -45,-6 -61,-18l-338 -1354z"/>
  <path fill="#2B2A29" fill-rule="nonzero" d="M10768 12221l-125 -66c-41,-128 -187,-604 -437,-1429 -105,35 -162,57 -174,65l-125 -358 -3 -10 513 -208c9,-2 17,-3 24,-3 21,0 34,15 42,45 49,336 174,837 375,1503l1 -8 10 23c190,-634 323,-1072 400,-1314l189 213c-59,208 -253,732 -581,1571l-109 -23z"/>
  <path fill="#2B2A29" fill-rule="nonzero" d="M15937 12011l-100 4c-31,18 -69,28 -114,28 -152,0 -274,-19 -365,-56 -97,0 -160,-31 -187,-93 -62,-57 -92,-305 -92,-747l0 -265 -82 -1 19 -434c71,-20 176,-32 314,-37l9 0c32,0 52,5 60,15 14,45 25,474 33,1287 13,58 36,87 68,87 103,0 154,-31 154,-93 1,-81 -10,-303 -33,-668 5,-57 19,-90 42,-99l172 -71c46,-19 77,-14 92,16l14 455 10 380c11,55 34,82 67,82 104,0 155,-31 155,-93l0 -21 -5 -98 7 -3 -35 -944 7 -84 275 10c25,251 47,559 69,923 3,59 4,112 4,160 0,256 -47,379 -142,368 -31,18 -69,27 -113,27 -122,0 -224,-12 -305,-35z"/>
  <path fill="#2B2A29" fill-rule="nonzero" d="M13180 12184l-33 -82c-32,-182 -80,-422 -145,-721 -38,-295 -61,-491 -70,-588l-6 -145 -250 16c-16,2 -23,-7 -23,-28 0,-5 0,-10 1,-16l10 -396 0 -13 657 34 23 316c18,218 45,465 80,743l58 426 235 -572 243 -611c4,-13 13,-23 26,-29l165 -58c16,-11 28,-6 36,16 14,36 22,71 24,105l129 622 13 -40 150 -564 22 -100c6,-37 24,-54 55,-49 196,2 311,7 346,17 11,14 17,40 17,76l-15 55 -403 1571 -90 0 -187 72 -229 -1250 -469 1093c-112,55 -235,87 -369,96z"/>
  <path fill="#2B2A29" fill-rule="nonzero" d="M19187 10944c160,-300 243,-448 249,-444l179 135c9,12 12,38 9,78l-303 503 306 620 35 65c-107,119 -178,171 -214,157l-291 -573 -358 594c-13,23 -39,34 -76,34 -29,0 -67,-7 -112,-22l-3 -58c133,-253 273,-519 422,-799l-164 -320 -62 45 -46 -52 -48 -92c-83,-172 -124,-272 -124,-300 0,-4 1,-6 2,-7l247 -161c9,-6 17,-9 26,-9 19,0 35,15 50,46l275 558z"/>
  <path fill="#2B2A29" fill-rule="nonzero" d="M17618 11249l-201 -416 -100 55 -40 -68 -61 -114c-105,-221 -158,-348 -158,-382 0,-5 1,-8 3,-9l316 -211c12,-8 23,-12 33,-12 18,0 33,13 46,39l365 736c162,-297 269,-485 320,-564l311 168c12,9 18,22 18,39 0,28 -15,65 -46,114l-395 661 357 720c29,56 -41,172 -210,349l-363 -707 -402 671c-17,30 -58,45 -122,45 -51,0 -117,-9 -199,-28l-6 -72c209,-400 387,-738 534,-1015z"/>
  <path fill="#2B2A29" fill-rule="nonzero" d="M8268 13153l22 -48 209 161c24,15 36,36 36,64 0,12 -2,25 -7,39l-36 91 -513 1339 -41 114c-10,10 -25,15 -43,15 -33,0 -79,-15 -139,-46l-81 -40c-13,-9 -12,-42 1,-96l15 -42 260 -569 -118 -329 -4 0 -118 -364 -57 -153c-5,-16 -8,-32 -8,-46 0,-37 18,-70 55,-96l46 -19c31,-13 59,22 86,102l39 123 4 8 111 349 55 153 0 3c87,-193 162,-431 227,-713z"/>
  <path fill="#2B2A29" fill-rule="nonzero" d="M6477 13056l259 812 184 -512 113 -336 290 23c21,8 32,35 32,81 0,10 0,21 -1,32 -347,909 -578,1547 -695,1915 -117,0 -207,-6 -268,-18 -79,-3 -81,-86 -8,-249 102,-232 181,-448 235,-650l-255 -682 -77 39 -128 -408 280 -141 39 94z"/>
  <path fill="#2B2A29" fill-rule="nonzero" d="M11636 13628l-69 -3 -205 -8 -263 1c-49,-226 -55,-351 -20,-373l840 17c23,1 55,112 97,332l-18 43 -60 -1 -272 387 -337 418c145,-3 268,-5 369,-6l10 -61 363 -25 -15 130c0,4 0,8 1,13l0 10 -3 285 -26 1c-260,-26 -557,-37 -889,-35l-139 -226c50,-68 124,-166 224,-294 137,-182 244,-334 322,-457l91 -149z"/>
  <path fill="#2B2A29" fill-rule="nonzero" d="M13332 12987l80 0c113,32 184,114 213,245 -16,46 -40,86 -73,120 -40,-110 -80,-169 -119,-179 -67,8 -110,58 -128,151 -18,93 -2,178 47,256l162 -79 74 248c-9,26 -94,76 -257,149 -129,38 -196,154 -202,345 20,137 47,249 82,333 35,85 81,148 139,191 58,42 121,56 188,42 67,-15 138,-82 212,-201 74,-119 81,-257 21,-414l-55 0c-95,0 -168,42 -219,126l0 23 111 -49c51,0 81,82 91,245l-239 99c-75,-74 -115,-208 -122,-401 17,-149 124,-253 323,-312 127,-24 224,-23 293,4 69,27 109,41 120,42 11,1 16,-6 14,-22 -1,-16 -28,-83 -78,-200l147 -96c74,55 119,123 136,205 7,35 11,69 11,101 0,44 -7,86 -19,126 -23,68 -64,105 -122,112 -59,7 -116,6 -172,-3 50,116 54,238 12,368 -42,130 -90,233 -144,310 -54,77 -116,136 -186,176 -50,30 -108,45 -174,45 -25,0 -52,-3 -80,-9 -100,-15 -201,-106 -302,-273 -114,-186 -171,-408 -171,-668 0,-184 85,-340 257,-468 -85,-189 -112,-351 -80,-486 32,-135 101,-203 208,-203z"/>
  <path fill="#2B2A29" fill-rule="nonzero" d="M10081 13531l-172 -5 -289 -12 -10 128 -36 26 -74 3c-209,-17 -314,-37 -317,-59l-50 -504c1,-18 25,-41 72,-69l1212 66c30,1 72,128 127,381l-23 53 -17 0 -871 1006c648,-11 972,-11 973,0 10,0 16,23 21,69l0 13 -3 365 -34 1c-342,-34 -792,-58 -1350,-71l-44 -232c65,-110 163,-246 294,-408 128,-212 326,-462 594,-752z"/>
  <path fill="#2B2A29" fill-rule="nonzero" d="M2784 16549l-45 742 0 80c0,255 81,382 243,382l63 0c88,-6 136,-72 144,-200 25,-297 41,-520 51,-669 10,-149 15,-242 15,-278 -29,-109 -61,-176 -95,-203 -34,-27 -58,-44 -73,-52 -23,-10 -58,-17 -104,-20 -63,-2 -112,24 -147,76 -35,53 -52,100 -52,144zm811 356l0 8c0,162 -23,400 -68,713 -1,80 -22,153 -66,218l-26 34c-21,29 -48,54 -78,76 -131,105 -278,158 -441,158 -48,0 -97,-4 -147,-12 -106,-6 -221,-60 -345,-162 -96,-103 -149,-297 -157,-582 -1,-72 -1,-141 -1,-206 0,-99 1,-191 2,-276 1,-168 14,-331 41,-488 1,-114 60,-212 176,-293 130,-91 307,-140 532,-149l30 -3 32 0c197,0 315,43 353,128 84,107 133,263 147,468 9,83 14,205 15,367z"/>
  <path fill="#2B2A29" fill-rule="nonzero" d="M4658 16013c10,-2 18,-3 27,-3 100,0 150,71 150,212l-52 1763c-80,65 -201,103 -362,113l-5 0c-13,0 -16,-10 -8,-29l-18 -1618 -248 32c-17,1 -26,-8 -26,-28l-13 -382 370 -42 186 -19z"/>
  <path fill="#2B2A29" fill-rule="nonzero" d="M5108 17429c3,-81 38,-171 105,-270 45,-63 111,-109 198,-138 312,-113 508,-196 588,-250 13,-15 22,-35 28,-61 6,-133 8,-209 8,-229 0,-86 -67,-128 -202,-128 -64,-1 -99,23 -104,72l-8 351c-3,55 -28,86 -74,93 -121,9 -285,17 -490,22 -25,-18 -41,-65 -50,-141 -4,-322 35,-525 117,-608 70,-80 203,-120 399,-120l202 -12 336 0c147,0 243,64 286,192 12,23 27,134 43,332 0,172 -57,306 -172,400l-569 283c-60,20 -100,88 -118,203l-11 255c-4,42 16,59 60,49l789 -196c53,6 87,41 103,105l0 349c0,65 -32,101 -97,107l-1335 9c-40,-32 -60,-79 -60,-138l23 -472 5 -59z"/>
  <path fill="#2B2A29" fill-rule="nonzero" d="M7955 16933c14,4 28,7 43,11 83,27 146,69 189,127 80,118 119,300 119,546l-1 69c-4,113 -72,209 -203,287 -171,78 -382,118 -633,120l-32 0c-243,0 -389,-30 -438,-90 -125,-153 -187,-301 -187,-444l0 -32c0,-86 19,-128 56,-128l521 10c67,0 100,24 100,71l-2 88c0,119 14,184 41,194 28,10 68,15 121,15 97,0 145,-79 145,-238 9,-248 -32,-385 -122,-413l-206 -85 12 -159 82 -31c104,-55 176,-96 216,-124 13,-13 22,-31 28,-55 5,-122 7,-193 7,-213 0,-79 -65,-118 -194,-118 -62,-1 -95,21 -100,66 -9,213 -24,333 -46,360 -4,14 -36,20 -97,19l-405 -8c-39,-1 -58,-21 -58,-61 0,-304 40,-494 118,-572 67,-75 195,-112 384,-112l195 -9 325 0c143,0 235,59 276,177 11,21 25,123 42,306 0,161 -56,285 -166,372l-128 53z"/>
  <path fill="#2B2A29" fill-rule="nonzero" d="M9840 16911l202 -13 -27 350 -178 40 -8 818 -389 -64 -17 -662 -496 111c-225,-13 -337,-143 -337,-389 0,-98 18,-215 54,-349l106 -428 -73 -12 -47 -5 -23 -1c-10,-1 -15,-8 -15,-22 0,-7 1,-16 4,-26l84 -267c9,-28 25,-42 46,-42l2 0 483 39 -49 286 -89 388c-47,254 5,349 154,286l186 -11 -23 -848 462 -121 -10 942z"/>
  <path fill="#2B2A29" fill-rule="nonzero" d="M10492 16931c0,-1 0,-2 -1,-3 -67,-99 -104,-209 -111,-329l-23 -473c0,-60 20,-106 60,-139l1263 9c65,5 97,41 97,107l0 350c-16,64 -50,100 -103,105l-810 -196c-45,-10 -65,6 -61,49l12 255c8,54 21,97 39,130l-1 0c17,20 48,30 91,29l498 0c151,0 248,58 292,173 12,21 27,121 44,299l0 274c-17,197 -31,307 -43,330 -43,128 -138,191 -286,191l-336 0 -244 -12c-195,0 -328,-40 -399,-119 -77,-80 -116,-266 -116,-559l0 -48c8,-75 24,-122 48,-141 206,5 369,13 490,23 47,6 71,36 74,93l10 350c5,50 54,74 145,73 135,0 202,-43 202,-130 0,-17 -2,-79 -7,-185 -2,-15 -3,-32 -2,-49 -1,-1 -1,-2 -1,-4l2 0c-1,-75 -2,-120 -2,-136 0,-74 -63,-112 -190,-114l-248 -10c-138,0 -242,-36 -314,-109 -23,-20 -45,-49 -67,-85z"/>
  <path fill="#2B2A29" fill-rule="nonzero" d="M12670 18090c-36,0 -73,-1 -113,-3 -194,-7 -325,-51 -393,-132 -69,-76 -103,-238 -103,-486 0,-40 1,-83 3,-128 7,-177 15,-335 23,-474 9,-165 20,-330 32,-493 7,-112 74,-203 201,-274 147,-60 323,-89 527,-89 27,0 54,0 81,0l31 0c193,22 314,63 364,121 107,152 160,296 160,433l0 13c-4,103 -23,154 -59,153l-440 -46c-64,-4 -95,-29 -94,-74l6 -88c3,-116 -8,-179 -34,-190 -26,-11 -63,-18 -113,-21 -93,-3 -143,73 -149,226 -5,98 -8,169 -8,212 -1,43 13,63 42,59 199,-25 391,0 576,74 90,47 156,99 200,158 67,100 101,253 101,459 0,37 -1,76 -3,117l-1 69c-4,114 -72,209 -203,287 -151,69 -333,108 -547,117 -3,1 -6,2 -8,3l-80 0 0 -3zm312 -803c-6,-30 -15,-57 -25,-79 -29,-30 -83,-47 -162,-52l-118 -11c-1,87 -1,154 0,199l-2 352c4,51 38,77 102,79 134,5 202,-35 204,-121 1,-17 1,-79 -1,-186 1,-95 1,-155 2,-180z"/>
  <path fill="#2B2A29" fill-rule="nonzero" d="M14987 16628c-195,433 -336,881 -424,1344 -19,80 -61,120 -126,120l-23 0c-78,0 -179,-23 -302,-69 -65,-32 -72,-103 -21,-212 154,-530 405,-1012 753,-1444 16,-23 25,-40 27,-51 2,-11 -25,-10 -82,2l-753 199c-59,-6 -98,-41 -115,-105l0 -321c0,-65 36,-101 107,-107l1169 0c28,4 44,25 48,64 1,10 2,20 2,29 0,26 -5,48 -15,66 -49,87 -88,157 -117,211 -29,54 -72,146 -128,276z"/>
  <path fill="#2B2A29" fill-rule="nonzero" d="M15580 16527c0,-37 2,-73 6,-111 4,-37 11,-73 21,-107 10,-34 22,-67 39,-97 16,-30 36,-57 60,-80 26,-26 58,-49 94,-70 37,-21 75,-38 114,-54 40,-16 80,-28 119,-36 40,-8 75,-13 106,-14 1,0 8,-1 19,-2 11,-1 32,-2 64,-3l17 0c30,0 69,1 118,3 58,3 135,8 231,15 26,3 54,9 84,20 30,10 59,24 87,42 28,18 53,40 75,66 23,26 40,57 51,92 13,49 22,99 26,150 5,51 10,102 16,155l0 16c0,37 -4,73 -12,108 -8,34 -20,67 -35,97 -15,31 -33,58 -53,83 -21,25 -43,46 -67,62l-128 51 43 13c35,12 69,29 102,50 33,21 62,48 88,82 24,37 44,78 59,123 15,44 28,90 36,138 8,47 15,96 18,145 4,50 5,98 5,147l0 69c-2,36 -10,69 -23,98 -13,30 -30,56 -49,80 -19,23 -41,44 -64,62 -23,18 -46,33 -68,47 -102,46 -206,77 -312,94 -106,16 -213,25 -320,26l-115 0c-31,0 -63,-2 -95,-8 -33,-5 -66,-13 -98,-24 -32,-10 -64,-23 -95,-39 -31,-15 -59,-33 -86,-55 -25,-30 -48,-61 -70,-93 -22,-32 -42,-65 -59,-101 -17,-35 -31,-73 -41,-113 -10,-40 -15,-83 -16,-129l-9 -36c0,-11 -1,-20 -3,-29 -1,-8 -1,-17 -1,-27 0,-6 0,-11 1,-14l10 -73c4,-30 10,-58 18,-84 8,-26 17,-53 26,-81 11,-32 26,-58 45,-78 19,-21 37,-44 56,-69 14,-18 31,-33 51,-46 19,-13 39,-23 58,-32l119 -56c-29,-4 -56,-12 -83,-25 -27,-13 -52,-30 -77,-51 -15,-13 -28,-29 -40,-49 -12,-20 -22,-41 -31,-64 -9,-23 -16,-47 -21,-71 -5,-25 -8,-48 -8,-71l-1 -39zm567 1021c2,18 4,36 5,55 1,19 4,38 8,56 4,18 8,35 15,51 6,16 16,29 28,40 20,6 40,11 60,12 20,1 40,2 61,2 4,0 9,0 15,0 21,0 39,-6 55,-19 16,-13 30,-29 41,-49 11,-20 20,-43 26,-68 6,-26 9,-51 9,-77 0,-4 0,-9 0,-13 0,-4 0,-9 -1,-14l1 -68 0 -23c0,-33 -2,-68 -5,-103 -3,-35 -9,-68 -18,-98 -9,-30 -22,-57 -38,-81 -16,-23 -37,-41 -64,-53l-15 -7 -30 0c-34,0 -66,13 -94,39 -28,27 -47,62 -57,105 -6,23 -9,46 -10,70 -1,24 -2,49 -2,74 0,28 1,56 3,84 2,29 4,57 6,84zm219 -799c14,-8 28,-15 42,-23 14,-7 28,-16 42,-25 14,-14 23,-32 28,-53 1,-34 3,-69 4,-104 1,-34 3,-69 4,-104 -4,-30 -12,-52 -26,-68 -14,-15 -31,-27 -50,-33 -19,-7 -40,-12 -61,-13 -21,-1 -40,-3 -58,-5l-7 0c-11,0 -23,2 -36,7 -12,4 -23,11 -34,20 -11,8 -20,19 -27,32 -8,12 -12,27 -14,43 -11,33 -17,66 -18,96 -1,31 -4,63 -8,97l0 5c0,12 1,25 4,38 3,14 7,27 13,39 6,12 12,23 21,32 8,10 17,16 27,20 9,2 18,3 26,3 9,0 18,0 26,0 17,0 33,0 49,-1 16,-1 33,-2 49,-4l3 0z"/>
  <path fill="#2B2A29" fill-rule="nonzero" d="M18164 16737l-9 -258c-27,-54 -89,-85 -186,-94 -143,1 -215,40 -215,118 0,17 3,79 10,185 3,15 4,47 4,95 0,48 9,92 27,132 18,40 89,66 212,76 52,-23 90,-44 116,-63 17,-20 28,-46 36,-80 2,-41 4,-78 4,-111zm-454 -771c105,-30 205,-45 301,-45 82,0 161,11 237,33 165,47 283,111 352,191 78,79 117,266 117,560l0 48c-3,179 -11,502 -26,968 -4,111 -69,204 -195,280 -162,75 -364,113 -604,115l-31 0c-232,0 -371,-29 -419,-87 -120,-149 -179,-293 -179,-433l0 -29c0,-85 18,-127 54,-127l498 10c64,0 96,23 96,69l-3 87c0,115 14,178 40,188 26,9 65,14 115,14 94,0 141,-77 141,-232 1,-100 2,-196 1,-287 -128,74 -353,88 -676,40 -13,-4 -42,-14 -87,-32 -45,-17 -87,-58 -127,-123 -71,-130 -107,-326 -110,-589l-5 4c11,-216 49,-356 114,-421 70,-80 202,-148 396,-203z"/>
 </g>
</svg>
