<?xml version="1.0" encoding="UTF-8"?>
<!DOCTYPE svg PUBLIC "-//W3C//DTD SVG 1.1//EN" "http://www.w3.org/Graphics/SVG/1.1/DTD/svg11.dtd">
<!-- Creator: CorelDRAW 2017 -->
<svg xmlns="http://www.w3.org/2000/svg" xml:space="preserve" width="210mm" height="297mm" version="1.1" shape-rendering="geometricPrecision" text-rendering="geometricPrecision" image-rendering="optimizeQuality" fill-rule="evenodd" clip-rule="evenodd"
viewBox="0 0 21000 29700"
 xmlns:xlink="http://www.w3.org/1999/xlink">
 <g id="Layer_x0020_1">
  <metadata id="CorelCorpID_0Corel-Layer"/>
  <path fill="black" fill-rule="nonzero" d="M1692 3681l530 -1927 883 0 543 1927 -669 0 -82 -333 -464 0 -81 333 -661 0zm862 -782l225 0 -111 -456 -114 456z"/>
  <path fill="black" fill-rule="nonzero" d="M4542 3641l0 -1923 945 0c169,0 302,46 398,138 95,93 143,220 143,379 0,90 -16,171 -47,241 -31,69 -77,131 -139,185 72,51 128,113 167,187 38,75 57,155 57,242 0,96 -15,180 -43,250 -31,73 -74,134 -131,183 -49,43 -106,73 -171,92 -61,17 -164,26 -307,26l-50 0 -822 0zm624 -1538l0 360 19 0c57,0 103,-16 136,-48 33,-31 49,-76 49,-136 0,-56 -16,-99 -49,-131 -32,-30 -78,-45 -136,-45l-19 0zm0 691l0 398 19 0c67,0 117,-18 152,-52 34,-32 51,-83 51,-152 0,-61 -18,-109 -53,-143 -36,-34 -85,-50 -150,-50l-19 0z"/>
  <path fill="black" fill-rule="nonzero" d="M8220 3426c-96,71 -199,125 -309,162 -107,36 -221,54 -342,54 -95,0 -181,-14 -257,-41 -78,-27 -147,-68 -208,-123 -106,-94 -189,-214 -249,-363 -59,-144 -89,-300 -89,-468 0,-129 19,-256 57,-379 40,-122 95,-229 166,-323 73,-98 157,-171 252,-220 95,-48 203,-73 321,-73 114,0 226,20 337,58 113,40 220,97 322,170l-265 672c-45,-23 -90,-40 -136,-52 -44,-11 -86,-17 -127,-17 -64,0 -114,13 -151,38 -36,26 -53,61 -53,106 0,48 18,85 53,108 36,26 86,39 151,39 38,0 79,-6 122,-17 51,-15 98,-33 140,-54l265 723z"/>
  <path fill="black" fill-rule="nonzero" d="M9795 1701c148,0 255,8 324,22 69,17 130,41 182,75 128,83 228,202 302,356 72,153 108,323 108,510 0,154 -26,301 -78,440 -53,137 -127,252 -221,343 -65,64 -135,109 -211,136 -73,29 -164,43 -275,43l-690 0 0 -1927 559 0zm85 723l0 409 21 0c66,0 117,-18 154,-54 36,-35 54,-87 54,-155 0,-62 -18,-112 -54,-148 -38,-35 -89,-52 -154,-52l-21 0z"/>
  <polygon fill="black" fill-rule="nonzero" points="11503,3596 11503,1661 12648,1661 12648,2140 12038,2140 12038,2374 12465,2374 12465,2853 12038,2853 12038,3091 12648,3091 12648,3596 "/>
  <polygon fill="black" fill-rule="nonzero" points="13835,3637 13835,1710 15035,1710 15035,2181 14491,2181 14491,2528 14896,2528 14896,3021 14491,3021 14491,3637 "/>
  <path fill="black" fill-rule="nonzero" d="M16471 2577l656 0 0 1046 -454 0c-232,0 -394,-12 -486,-36 -98,-25 -181,-65 -249,-121 -108,-87 -190,-200 -246,-338 -56,-134 -85,-289 -85,-463 0,-128 19,-254 57,-377 40,-123 95,-231 166,-323 79,-105 167,-180 264,-226 101,-48 219,-71 353,-71 124,0 244,22 359,66 119,43 239,111 361,201l-321 573c-72,-44 -136,-76 -195,-99 -62,-21 -119,-31 -171,-31 -73,0 -131,24 -175,71 -44,50 -66,115 -66,194 0,72 18,129 53,171 36,41 84,62 144,62 4,0 8,0 10,0 3,0 6,0 9,0 3,0 5,-1 7,-1 2,-1 4,-1 7,-1l0 -297z"/>
  <polygon fill="black" fill-rule="nonzero" points="1851,8048 1851,6121 2508,6121 2508,6812 2829,6812 2829,6121 3484,6121 3484,8048 2829,8048 2829,7320 2508,7320 2508,8048 "/>
  <polygon fill="black" fill-rule="nonzero" points="4751,8043 4751,6116 5413,6116 5413,8043 "/>
  <path fill="black" fill-rule="nonzero" d="M6436 7588l132 0c88,0 144,-17 168,-48 23,-31 35,-108 35,-230l0 -1199 646 0 0 1343c0,122 -4,210 -14,265 -9,55 -26,104 -48,149 -34,68 -81,118 -142,151 -60,34 -132,51 -215,51 -145,0 -265,-41 -360,-124 -95,-81 -163,-200 -202,-358z"/>
  <polygon fill="black" fill-rule="nonzero" points="9107,8030 8450,8030 8450,6103 9107,6103 9107,6727 9439,6103 10096,6103 9583,7052 10136,8030 9442,8030 9442,8007 9107,7318 "/>
  <polygon fill="black" fill-rule="nonzero" points="12318,8043 11096,8043 11096,6116 11752,6116 11752,7535 12318,7535 "/>
  <polygon fill="black" fill-rule="nonzero" points="13707,8058 13088,8058 13088,6122 13655,6122 14052,6863 14460,6122 15028,6122 15028,8058 14444,8058 14460,7429 14064,8122 13691,7433 "/>
  <polygon fill="black" fill-rule="nonzero" points="16136,7948 15630,7948 15630,6012 16148,6012 16536,6638 16536,6012 17049,6012 17049,7948 16521,7948 16128,7343 "/>
  <path fill="black" fill-rule="nonzero" d="M1768 11477c0,-128 21,-256 64,-383 42,-119 104,-227 186,-324 76,-92 167,-164 271,-217 104,-51 212,-76 323,-76 112,0 221,25 326,76 103,51 195,123 272,217 80,94 140,203 182,324 43,124 65,251 65,383 0,131 -21,257 -64,381 -45,126 -106,233 -184,322 -82,97 -173,171 -274,220 -105,51 -213,76 -324,76 -111,0 -218,-25 -320,-76 -103,-51 -195,-124 -274,-220 -82,-93 -144,-201 -186,-322 -43,-124 -64,-250 -64,-381zm683 0c0,52 16,98 47,138 31,37 69,56 114,56 47,0 85,-19 115,-56 31,-38 46,-83 46,-138 0,-55 -15,-101 -46,-138 -32,-37 -71,-56 -115,-56 -46,0 -84,19 -114,56 -32,39 -47,85 -47,138z"/>
  <path fill="black" fill-rule="nonzero" d="M4941 12461l-656 0 0 -1927 804 0c129,0 232,12 309,36 72,26 135,64 187,116 55,55 98,127 131,213 29,78 45,169 45,272 0,192 -46,349 -138,473 -34,45 -113,94 -237,147 -124,54 -272,76 -444,69l0 602zm0 -1510l0 394 22 0c65,0 114,-17 147,-50 35,-35 52,-85 52,-150 0,-62 -17,-110 -52,-143 -35,-34 -83,-50 -144,-50l-25 0z"/>
  <path fill="black" fill-rule="nonzero" d="M7329 12396c-53,33 -103,54 -151,66 -52,15 -105,22 -160,22 -85,0 -164,-13 -236,-40 -75,-26 -141,-66 -202,-119 -111,-94 -195,-213 -254,-361 -61,-145 -92,-302 -92,-470 0,-132 19,-259 58,-381 40,-122 96,-229 170,-323 73,-94 156,-166 249,-216 92,-50 190,-75 295,-75 105,0 204,25 298,75 93,51 176,123 249,216 71,94 127,201 167,323 39,122 58,249 58,381 0,110 -11,210 -35,301 -25,96 -61,188 -108,276l224 387 -503 0 -25 -62zm-471 -902c0,56 14,102 43,138 28,37 63,56 104,56 41,0 76,-19 106,-56 28,-38 42,-83 42,-138 0,-54 -14,-99 -43,-136 -28,-37 -63,-56 -104,-56 -42,0 -76,19 -104,56 -29,38 -43,83 -43,136z"/>
  <path fill="black" fill-rule="nonzero" d="M9525 10997l0 361 21 0c59,0 104,-16 135,-47 32,-29 47,-74 47,-136 0,-55 -16,-98 -47,-131 -33,-31 -78,-47 -135,-47l-21 0zm0 1552l-656 0 0 -1927 924 0c126,0 222,13 289,40 67,26 125,69 174,131 39,51 69,110 91,175 20,66 30,137 30,213 0,86 -15,168 -45,245 -16,38 -46,96 -91,177 -45,80 -117,133 -215,157l377 790 -616 0 -262 -684 0 684z"/>
  <path fill="black" fill-rule="nonzero" d="M11540 12422l167 -644c56,97 120,175 189,233 64,56 125,84 182,84 28,0 53,-12 74,-36 20,-21 31,-48 31,-80 0,-48 -49,-101 -146,-157 -19,-11 -37,-21 -51,-29 -14,-8 -27,-16 -38,-24 -130,-81 -219,-163 -270,-247 -51,-82 -76,-187 -76,-313 0,-193 60,-345 179,-456 119,-111 283,-166 492,-166 100,0 206,12 318,36 103,25 208,61 316,106l-171 605c-57,-96 -116,-169 -178,-222 -68,-55 -131,-82 -188,-82 -31,0 -57,9 -76,28 -19,20 -28,44 -28,73 0,64 66,129 197,198 33,17 62,33 88,48 141,78 239,161 293,246 55,85 82,193 82,325 0,205 -63,362 -189,469 -128,107 -312,161 -551,161 -120,0 -233,-13 -340,-38 -104,-25 -206,-65 -306,-120z"/>
  <polygon fill="black" fill-rule="nonzero" points="14421,12606 13761,12606 13761,11213 13438,11213 13438,10679 14741,10679 14741,11213 14421,11213 "/>
  <path fill="black" fill-rule="nonzero" d="M17031 11572c0,381 -61,664 -182,849 -122,185 -307,278 -555,278 -249,0 -434,-93 -553,-278 -121,-183 -181,-466 -181,-849l0 -831 656 0 0 879c0,87 6,145 18,174 11,29 31,45 60,45 29,0 49,-14 61,-41 12,-26 18,-85 18,-177l0 -879 658 0 0 831z"/>
  <polygon fill="black" fill-rule="nonzero" points="4386,16875 3747,16875 3244,14948 3901,14948 4064,15611 4220,14948 4876,14948 "/>
  <polygon fill="black" fill-rule="nonzero" points="6419,16871 5990,16871 5573,14944 6148,14944 6251,15548 6377,14944 6746,14944 6869,15542 6974,14944 7545,14944 7124,16871 6693,16871 6561,16241 "/>
  <polygon fill="black" fill-rule="nonzero" points="9472,16906 8757,16906 9333,15926 8766,14979 9480,14979 9684,15323 9890,14979 10596,14979 10048,15920 10637,16906 9926,16906 9689,16529 "/>
  <polygon fill="black" fill-rule="nonzero" points="12239,16942 11583,16942 11583,16083 11017,15015 11683,15015 11901,15437 12121,15015 12780,15015 12239,16083 "/>
  <polygon fill="black" fill-rule="nonzero" points="14794,17014 13242,17014 13925,15571 13303,15571 13303,15087 14843,15087 14162,16506 14794,16506 "/>
  <path fill="black" fill-rule="nonzero" d="M3549 19826c0,-136 19,-266 56,-390 37,-120 91,-228 163,-325 72,-96 152,-168 241,-217 90,-48 187,-73 290,-73 103,0 201,24 292,73 88,47 168,119 242,217 72,99 126,208 161,325 36,119 55,249 55,390 0,141 -19,271 -55,390 -35,119 -89,226 -161,323 -74,98 -154,171 -242,217 -90,50 -187,75 -292,75 -103,0 -199,-24 -290,-73 -90,-48 -170,-122 -241,-219 -72,-97 -126,-205 -163,-325 -37,-122 -56,-251 -56,-388zm790 -194c-59,0 -100,27 -123,80 -23,53 -57,75 -102,68 -15,-1 -39,-22 -74,-62 -34,-40 -51,-60 -51,-60l0 187 0 189c0,0 17,-20 51,-59 35,-40 59,-60 74,-62 45,-6 78,17 97,69 19,52 62,78 128,78 51,0 92,-21 122,-62 30,-41 52,-92 66,-152 -17,-60 -37,-110 -63,-151 -25,-41 -67,-62 -125,-62z"/>
  <polygon fill="black" fill-rule="nonzero" points="7156,20767 6515,20767 6515,19030 7156,18779 "/>
  <path fill="black" fill-rule="nonzero" d="M9053 19942l0 -919c64,-60 132,-107 204,-142 81,-40 169,-59 264,-59 174,0 317,71 427,213 110,141 164,325 164,551 0,127 -18,256 -53,386 -35,132 -92,278 -169,439l259 0 0 388 -1160 0 17 -30c127,-225 231,-420 311,-584 0,0 -3,-34 -9,-103 -6,-68 -5,-113 4,-134 25,-62 62,-89 112,-80 50,9 95,-28 137,-110 33,-66 45,-131 35,-196 -10,-65 -31,-125 -64,-181 -53,-19 -102,-25 -147,-19 -46,6 -87,47 -124,120 -38,75 -46,143 -24,207 22,64 16,122 -18,176 -11,16 -40,32 -86,50 -47,17 -73,27 -79,28l-1 0z"/>
  <path fill="black" fill-rule="nonzero" d="M11384 19653c15,-17 31,-34 50,-52 19,-19 33,-29 42,-30 46,-6 78,17 98,69 20,52 62,78 127,78 52,0 93,-20 123,-62 30,-41 52,-92 66,-152 -17,-59 -38,-110 -63,-151 -26,-41 -67,-62 -126,-62 -58,0 -99,27 -122,80 -23,53 -57,76 -103,68 -9,0 -23,-10 -42,-28 -19,-18 -35,-37 -50,-54l0 -227 0 -239 528 0c196,0 338,40 427,119 88,80 132,206 132,381 0,97 -19,181 -57,252 -38,73 -94,135 -170,185 85,55 148,120 188,194 39,73 58,163 58,269 0,98 -16,185 -47,259 -30,77 -75,139 -133,185 -45,36 -95,62 -151,78 -56,15 -139,22 -251,22l-66 0 -458 0 0 -207 0 -321c15,-16 31,-34 50,-52 19,-18 33,-29 42,-30 46,-6 78,17 98,69 20,52 62,78 127,78 52,0 93,-21 123,-62 30,-42 52,-92 66,-152 -17,-60 -38,-110 -63,-151 -26,-41 -67,-62 -126,-62 -58,0 -99,26 -122,79 -23,53 -57,76 -103,68 -9,0 -23,-9 -42,-28 -19,-18 -35,-36 -50,-54l0 -9 0 -343 0 -4z"/>
  <path fill="black" fill-rule="nonzero" d="M13847 19811l0 -459 -299 459 299 0zm652 1103l-662 0 0 -674 -573 0 0 -407 573 -864 662 0 0 842 226 0 0 429 -226 0 0 674z"/>
  <path fill="black" fill-rule="nonzero" d="M3508 24559l1 -15c15,-14 36,-31 63,-52 28,-20 47,-31 58,-31 47,3 76,32 90,88 14,56 53,89 117,101 51,11 94,-1 128,-38 34,-36 62,-82 82,-138 -10,-61 -26,-114 -46,-159 -20,-45 -59,-75 -117,-87 -58,-11 -102,7 -130,54 -28,47 -65,63 -109,48 -11,-4 -27,-20 -48,-50 -21,-29 -37,-54 -49,-74l0 -1 0 0 217 -1141 1107 0 0 362 -513 0 -50 239c161,17 286,80 375,187 87,107 131,251 131,433 0,229 -59,412 -178,549 -119,138 -277,207 -476,207 -152,0 -284,-41 -398,-125 -112,-85 -197,-205 -256,-359z"/>
  <path fill="black" fill-rule="nonzero" d="M7157 23525c159,23 285,97 379,222 93,124 139,282 139,474 0,99 -14,195 -42,285 -28,91 -68,174 -121,249 -75,103 -162,182 -264,235 -103,56 -215,84 -335,84 -100,0 -190,-18 -271,-56 -81,-36 -157,-93 -227,-171 -83,-91 -143,-192 -182,-305 -39,-110 -58,-233 -58,-371 0,-203 48,-394 145,-575 95,-179 238,-345 427,-498l885 0 0 39c-78,34 -157,83 -236,147 -78,64 -158,144 -238,241zm-200 445c-58,0 -99,26 -122,79 -23,53 -57,76 -103,70 -15,-3 -39,-24 -74,-63 -34,-40 -52,-60 -52,-60l0 189 0 187c0,0 18,-20 52,-58 34,-39 59,-60 74,-64 46,-6 78,17 97,69 19,52 62,78 128,78 51,0 92,-21 122,-63 30,-41 52,-92 66,-152 -17,-60 -38,-110 -63,-152 -25,-41 -66,-61 -125,-61z"/>
  <polygon fill="black" fill-rule="nonzero" points="9693,25083 8991,25083 9501,23474 9080,23474 9080,23138 10326,23138 "/>
  <path fill="black" fill-rule="nonzero" d="M12444 23955c105,40 186,99 241,179 55,80 82,178 82,293 0,87 -16,166 -47,237 -31,74 -74,131 -130,174 -57,45 -127,77 -208,97 -83,18 -198,28 -348,28 -110,0 -200,-6 -271,-17 -71,-9 -130,-25 -175,-50 -89,-43 -157,-104 -205,-185 -46,-81 -69,-176 -69,-284 0,-118 27,-217 82,-297 54,-77 133,-135 239,-175 -106,-40 -183,-97 -231,-173 -47,-71 -71,-165 -71,-282 0,-72 13,-141 40,-209 27,-66 66,-123 115,-171 56,-56 129,-98 217,-126 89,-25 201,-37 335,-37 232,0 407,47 527,140 120,94 179,231 179,411 0,112 -24,205 -74,278 -48,73 -125,129 -229,170zm-403 -257c58,0 100,-20 125,-61 25,-41 46,-92 63,-152 -35,-142 -97,-213 -188,-213 -66,0 -108,26 -128,78 -19,52 -52,75 -98,69 -15,-3 -39,-24 -74,-63 -34,-40 -51,-60 -51,-60l0 189 0 189c0,0 17,-20 51,-59 34,-39 59,-61 74,-64 46,-6 80,17 103,69 23,52 64,78 122,78zm0 868c58,0 99,-26 121,-78 22,-52 57,-75 104,-69 14,3 38,24 72,63 34,40 51,60 51,60l0 -189 0 -189c0,0 -17,20 -51,60 -34,40 -58,61 -72,62 -47,7 -81,-15 -100,-68 -19,-52 -61,-78 -125,-78 -93,0 -156,71 -189,213 17,61 38,112 63,152 26,40 67,61 126,61z"/>
  <path fill="black" fill-rule="nonzero" d="M13859 24503c-159,-20 -284,-93 -377,-220 -94,-124 -140,-281 -140,-472 0,-100 14,-196 42,-288 27,-89 67,-172 121,-248 73,-102 161,-181 264,-237 104,-55 216,-82 335,-82 98,0 188,18 271,54 81,37 156,95 226,173 80,91 140,192 181,305 40,110 60,234 60,373 0,203 -48,394 -144,573 -96,180 -238,347 -427,498l-881 0 0 -41c79,-34 156,-82 232,-146 79,-63 158,-144 238,-243zm272 -902c-58,0 -99,27 -122,80 -23,53 -57,76 -103,68 -15,-1 -39,-22 -74,-62 -34,-41 -51,-61 -51,-61l0 188 0 189c0,0 17,-19 51,-59 35,-39 59,-60 74,-62 46,-8 79,15 99,67 19,52 61,78 126,78 52,0 93,-20 123,-62 30,-41 52,-92 66,-152 -17,-59 -38,-110 -64,-150 -25,-41 -67,-61 -126,-61z"/>
 </g>
</svg>
