<?xml version="1.0" encoding="UTF-8"?>
<!DOCTYPE svg PUBLIC "-//W3C//DTD SVG 1.1//EN" "http://www.w3.org/Graphics/SVG/1.1/DTD/svg11.dtd">
<!-- Creator: CorelDRAW 2017 -->
<svg xmlns="http://www.w3.org/2000/svg" xml:space="preserve" width="210mm" height="297mm" version="1.1" shape-rendering="geometricPrecision" text-rendering="geometricPrecision" image-rendering="optimizeQuality" fill-rule="evenodd" clip-rule="evenodd"
viewBox="0 0 21000 29700"
 xmlns:xlink="http://www.w3.org/1999/xlink">
 <g id="Layer_x0020_1">
  <metadata id="CorelCorpID_0Corel-Layer"/>
  <path fill="black" fill-rule="nonzero" d="M3205 2229l410 0c64,19 220,394 468,1128l39 0c117,-87 195,-132 234,-132l39 79 0 26c-246,215 -422,337 -528,367 -63,-209 -102,-314 -117,-314 -149,209 -312,314 -488,314 -159,0 -250,-131 -273,-393l0 -104c49,-298 231,-447 547,-447l39 0c-49,-227 -127,-340 -234,-340l-157 0c-26,0 -39,-17 -39,-53 17,-87 36,-132 59,-132zm59 1049c0,157 52,235 156,235 82,0 141,-96 176,-288 78,-17 117,-34 117,-52l-97 -314c-235,33 -352,173 -352,420z"/>
  <path fill="black" fill-rule="nonzero" d="M1462 1447l824 0c25,5 38,23 38,51l0 26c0,24 -20,50 -59,76l-134 0c141,1132 256,1698 344,1698 77,4 116,55 116,154 -14,0 -20,9 -20,26 -127,-17 -223,-26 -286,-26l-211 0c-29,0 -54,9 -76,26 -23,-17 -49,-26 -78,-26 0,-111 51,-172 154,-181 0,-38 7,-72 19,-103 -63,-428 -108,-642 -134,-642l-325 0 -76 642c0,93 45,145 134,155l19 103 -134 51c-13,0 -19,-9 -19,-26l-76 26 -268 -26 0 -26c0,-90 51,-142 154,-155 127,-533 229,-1090 307,-1671l-154 0c-19,0 -38,-26 -57,-76l0 -77zm325 179c-76,439 -114,688 -114,746l286 0c-63,-463 -120,-712 -172,-746z"/>
  <path fill="black" fill-rule="nonzero" d="M6580 1726l429 0c26,0 39,27 39,80 -26,57 -39,109 -39,157l0 392 20 0c68,-52 146,-78 234,-78 276,0 445,270 507,812 0,525 -176,787 -526,787 -339,0 -508,-262 -508,-787l0 -1048 -19 -131 -117 0c-39,-17 -58,-69 -58,-157l38 -27zm429 893l0 498c0,384 78,577 235,577l19 0c156,0 234,-201 234,-604l0 -26c0,-347 -85,-547 -253,-602l-39 0c-77,0 -142,52 -196,157z"/>
  <path fill="black" fill-rule="nonzero" d="M5803 1518l37 26c13,0 19,-9 19,-26 225,0 357,135 397,406l0 26c0,173 -69,324 -207,455 214,108 321,260 321,457l0 178c0,310 -177,496 -530,558 -125,0 -319,-109 -585,-329l-57 0 -38 75 0 77c51,8 76,34 76,77 0,33 -13,50 -38,50l-57 0c-63,-50 -94,-109 -94,-178 0,-110 38,-195 113,-252l57 0c65,0 122,25 170,75 17,-303 30,-472 37,-507l-19 -152 0 -380c0,-89 -6,-233 -18,-432l-170 0c-29,0 -48,-42 -57,-126l38 -25 170 0 94 -26 0 26 38 -26c13,0 19,8 19,26l37 -26 170 0c29,0 54,-9 76,-26zm-132 380c12,33 17,59 17,77l-17 0c0,236 62,355 188,355 93,0 150,-110 170,-331 -13,-203 -76,-304 -190,-304l-113 0c-29,0 -48,68 -56,203zm17 481l0 51c26,0 38,-17 38,-51l-38 0zm0 229l0 254c0,17 -6,26 -17,26l17 50 0 26c0,17 -6,26 -17,26 0,17 6,26 17,26l-17 126c0,186 18,280 56,280l132 0c176,0 264,-152 264,-457 0,-266 -82,-418 -245,-455 -21,0 -84,34 -190,101z"/>
  <path fill="black" fill-rule="nonzero" d="M11002 1768l20 0c26,5 38,22 38,51 -26,165 -38,296 -38,394l0 210 -20 51c-21,0 -93,-113 -215,-340 -49,-52 -108,-79 -175,-79 -163,0 -280,149 -351,446l0 182c43,420 147,630 311,630l79 0c108,0 212,-140 312,-419l59 0 0 27c0,246 13,464 38,655l-38 26c-65,0 -98,-104 -98,-314 -117,157 -254,236 -410,236 -364,-94 -547,-374 -547,-840 0,-464 182,-743 547,-837 123,0 253,70 392,210l19 0c0,-175 26,-271 78,-288z"/>
  <path fill="black" fill-rule="nonzero" d="M9583 1383c26,6 38,23 38,51 -25,247 -44,398 -56,455l18 51 -18 51 18 152 0 26c0,34 -12,51 -37,51 -22,0 -92,-144 -208,-432 -67,-68 -124,-103 -170,-103l-56 0c-252,107 -379,387 -379,838 49,542 181,812 397,812l38 0c127,0 241,-178 341,-533l38 -26c25,6 37,23 37,51l0 203c0,100 13,295 38,584l-38 0c-62,0 -94,-135 -94,-406l-19 0c-82,202 -196,303 -341,303l-75 0c-347,0 -556,-330 -624,-989 0,-493 164,-831 492,-1015l132 0c93,0 232,59 416,177 36,-202 74,-303 113,-303z"/>
  <path fill="black" fill-rule="nonzero" d="M13969 1949l461 0 0 27c-25,183 -38,303 -38,360l0 1007c0,407 -141,639 -423,696l-154 0c-249,0 -397,-258 -442,-775 0,-412 160,-669 480,-773l78 0c62,0 126,26 192,77l19 -51 0 -26c0,-39 -6,-73 -19,-104 0,-17 7,-26 19,-26 0,-189 -64,-283 -192,-283l-19 -103 38 -27zm-327 1264c13,33 19,59 19,77 0,18 -7,27 -19,27 0,377 90,567 269,567 141,0 211,-181 211,-541l0 -285c0,-39 7,-73 19,-103 0,-206 -83,-309 -249,-309 -114,0 -197,189 -250,566z"/>
  <path fill="black" fill-rule="nonzero" d="M11915 1561l680 0c284,0 485,182 604,547 39,114 59,253 59,418 0,518 -149,857 -448,1019 -44,36 -147,62 -311,79l0 -26c-14,0 -20,9 -20,26 -152,-17 -262,-26 -331,-26 -46,0 -105,9 -174,26 -66,-23 -98,-49 -98,-79 20,-69 39,-104 59,-104l117 0 19 -182 0 -1384c0,-122 -59,-182 -175,-182l-19 -106 39 -26zm408 496l0 1044c0,227 20,340 59,340l155 0c271,0 426,-305 468,-914 -41,-539 -203,-808 -487,-808l-136 0c-39,0 -59,113 -59,339z"/>
  <path fill="black" fill-rule="nonzero" d="M16920 1966c333,90 500,288 500,594l39 26 192 0c25,5 38,23 38,51 0,41 -77,109 -230,206 -176,-51 -356,-77 -539,-77l-133 0c-14,0 -20,-8 -20,-26 -25,17 -44,26 -57,26 -25,-17 -44,-26 -57,-26l0 26c46,430 155,645 327,645l57 0c109,0 212,-138 308,-413 13,0 33,-9 57,-26 13,33 19,58 19,76 -90,362 -224,543 -403,543 -29,0 -54,9 -76,26 -317,0 -509,-275 -577,-826 64,-550 250,-826 557,-826zm-249 594l0 26 480 0 0 -51c0,-162 -51,-282 -154,-362l-97 0c-132,0 -209,129 -230,387z"/>
  <path fill="black" fill-rule="nonzero" d="M16169 1327l19 0 38 26c-38,206 -63,478 -76,815l-19 0c-51,0 -82,-119 -95,-356 -126,-34 -240,-51 -342,-51l-57 0 -37 26 18 51 0 611 152 0c89,0 134,-34 134,-101 5,-36 36,-69 94,-103l19 51 0 51c0,57 -7,99 -19,126l19 154 0 179 -19 50c-75,-38 -113,-107 -113,-203 -76,-17 -115,-34 -115,-51l-38 26 -19 0c-13,0 -19,-9 -19,-26 -22,17 -48,26 -76,26l0 535 -18 152 18 51c-12,33 -18,59 -18,77l37 0c165,0 305,-26 418,-77l0 -178c0,-25 19,-51 57,-76l57 0 0 26c0,17 -6,25 -19,25l19 51 0 126c0,171 19,358 57,561l-38 26 -38 0c-32,0 -58,-102 -76,-305l-779 0c-12,0 -18,-9 -18,-26l-38 26c-13,0 -19,-9 -19,-26l-38 26 -57 -51c25,-77 50,-120 76,-128l151 0 0 -1683 -170 0c-29,0 -48,-43 -57,-128l38 -25 911 0c25,-187 57,-280 95,-280z"/>
  <path fill="black" fill-rule="nonzero" d="M19377 1661l19 0c12,0 18,8 18,24l38 -24 243 0c9,0 28,25 56,75l241 -75c249,48 380,106 393,175 -2,27 -58,86 -168,174l-56 0c-86,-83 -167,-125 -243,-125l-56 0 -131 50 0 752 75 0c162,0 243,-58 243,-175l37 -26 19 0 37 26 -19 175 0 50 19 301 -37 26 -19 0c-30,0 -55,-67 -75,-202l-131 -24 -149 0 0 626 93 0c50,33 75,83 75,150l-37 26 -505 0 -37 -26c25,-100 50,-150 75,-150l93 0 0 -1628 -93 0c-37,-17 -56,-68 -56,-151l37 -24z"/>
  <path fill="black" fill-rule="nonzero" d="M19163 1053l19 0c25,6 38,23 38,51 -38,236 -57,493 -57,769 -13,0 -19,9 -19,26 -68,0 -106,-119 -115,-358 -128,-34 -243,-51 -344,-51l-76 0 0 691 190 0c58,0 108,-60 153,-179 25,-17 45,-26 58,-26l0 616 -19 0c-28,0 -73,-77 -134,-231 -16,0 -80,-8 -191,-26 -24,17 -43,26 -57,26l0 821 152 0c51,34 76,86 76,154l-38 26 -19 0c-13,0 -19,-9 -19,-26 -24,17 -43,26 -57,26l-38 -26c-13,0 -19,9 -19,26l-134 -26 -38 0c-29,0 -55,9 -78,26 -13,0 -19,-9 -19,-26l-95 26 -57 0 -95 -26 0 -77c0,-25 19,-51 57,-77l152 0 0 -1692 -152 0c-19,0 -38,-26 -57,-79l0 -76 956 0c0,-171 26,-265 76,-282z"/>
  <path fill="black" fill-rule="nonzero" d="M3472 4946c148,29 266,95 354,200l19 0c3,-83 22,-125 56,-125l18 0 38 26 -19 125 0 225c0,34 -12,51 -37,51l-19 0c-115,-202 -233,-302 -354,-302 -211,67 -317,268 -317,602 53,418 165,627 336,627 78,0 146,-50 204,-150l0 -326c0,-17 7,-26 19,-26 -13,-30 -19,-63 -19,-101l-167 0c-25,0 -37,-16 -37,-50l0 -50c3,-34 16,-51 37,-51l112 0c41,0 73,-8 94,-24 137,16 205,41 205,75l0 451c0,486 -155,778 -466,877l-93 0 -19 -50 0 -51c199,-149 299,-291 299,-425 -87,50 -167,75 -243,75 -302,0 -482,-267 -541,-802 52,-517 226,-776 522,-776 0,-17 7,-26 19,-26z"/>
  <path fill="black" fill-rule="nonzero" d="M2540 4805l18 48c-36,207 -55,388 -55,543l0 246 -18 0c-31,0 -105,-148 -220,-444 -95,-65 -156,-97 -184,-97 -224,0 -365,262 -422,786l0 50c0,451 134,730 404,838 66,0 139,-50 220,-149l-18 -123 0 -196 -221 0c-24,0 -42,-50 -55,-149 13,0 19,-8 19,-24l128 24 92 0c61,0 153,-8 275,-24l19 48 0 493c0,345 73,533 220,567l0 73c0,33 -12,50 -37,50l-55 0c-143,0 -260,-181 -350,-541l-18 0c-78,82 -182,123 -311,123 -240,0 -423,-213 -551,-640 -25,-65 -37,-155 -37,-271l0 -198c60,-606 262,-909 605,-909 95,0 236,65 422,196l0 -24c13,-197 56,-295 128,-295z"/>
  <path fill="black" fill-rule="nonzero" d="M7501 5349l348 0 92 24 -36 566c133,-49 219,-73 257,-73 223,0 351,246 385,739l0 26c0,355 -92,708 -276,1059l-18 0c-35,0 -59,-181 -74,-543 85,-110 128,-291 128,-542l0 -123c0,-296 -61,-444 -183,-444l-19 0c-75,0 -141,58 -201,172l0 913 109 0c36,16 55,65 55,147l-36 26 -478 0c-25,0 -37,-25 -37,-75 19,-65 37,-97 56,-97l91 0 0 -1430 -19 -172 -109 0c-49,-33 -74,-83 -74,-149l37 -24z"/>
  <path fill="black" fill-rule="nonzero" d="M6038 4871l568 0c26,5 38,21 38,50 0,65 -56,107 -170,128l-19 51 0 585 283 0c13,0 19,8 19,24l38 -24 38 24c22,-16 47,-24 75,-24l0 -356c0,-39 6,-73 19,-103 -26,-104 -38,-171 -38,-203l-113 0c-22,0 -41,-42 -57,-126l38 -26 568 0c25,5 38,21 38,50 0,65 -57,107 -170,128l-19 51 0 1475 19 128 113 0c25,0 38,51 38,152 -26,0 -38,9 -38,26l-132 -26 -208 0 -228 26 -19 -51c25,-77 50,-119 76,-126l94 0c9,-119 22,-179 38,-179l-19 -50 0 -611c-277,42 -429,109 -454,203l0 508 19 128 94 0c26,7 52,49 76,126 -25,6 -38,23 -38,51l-227 -26 -208 0c-28,0 -53,9 -75,26 -64,-17 -95,-34 -95,-51 25,-77 50,-119 76,-126l94 0c8,-119 21,-179 38,-179l-19 -50 0 -1196c0,-17 6,-26 19,-26 -13,-35 -25,-111 -38,-229l-94 0c-26,-6 -52,-49 -76,-126l38 -26z"/>
  <path fill="black" fill-rule="nonzero" d="M10522 5598l404 0c24,5 37,22 37,50 -25,54 -37,103 -37,147l0 1063 92 0c18,0 36,24 56,73l0 99 -515 0c-25,0 -37,-24 -37,-73 18,-66 36,-99 55,-99l111 0 -19 -172 0 -693c0,-16 7,-24 19,-24 0,-165 -62,-248 -184,-248l-18 -50 0 -24c3,-33 16,-50 37,-50z"/>
  <path fill="black" fill-rule="nonzero" d="M9610 4964l568 0c26,5 38,21 38,50 0,65 -56,107 -170,128l-19 51 0 585 0 381 0 508 19 128 94 0c26,7 52,49 76,126 -25,6 -38,23 -38,51l-227 -26 -208 0c-28,0 -53,9 -75,26 -64,-17 -95,-34 -95,-51 25,-77 50,-119 76,-126l94 0c8,-119 21,-179 38,-179l-19 -50 0 -1196c0,-17 6,-26 19,-26 -13,-35 -25,-111 -38,-229l-94 0c-26,-6 -52,-49 -76,-126l38 -26z"/>
  <path fill="black" fill-rule="nonzero" d="M13155 5172l441 0c25,5 37,22 37,50 -19,52 -37,135 -55,246 12,32 18,57 18,75 0,793 -55,1246 -165,1358 -105,148 -234,222 -386,222 -25,0 -37,-16 -37,-50l0 -50c208,-144 312,-317 312,-519 13,-79 19,-186 19,-320l0 -717c0,-82 -24,-130 -74,-147 -22,16 -46,24 -74,24l-36 -73 0 -99z"/>
  <path fill="black" fill-rule="nonzero" d="M12049 4525c52,0 79,78 79,234l826 0c0,-156 32,-234 95,-234l16 43c-32,175 -48,367 -48,577l0 43c0,29 -11,43 -32,43 -42,0 -69,-100 -79,-300 -117,-14 -175,-28 -175,-43 -19,15 -40,22 -64,22l0 1152c-33,470 -150,705 -350,705l-95 0c-156,0 -272,-142 -350,-426 0,-72 -5,-179 -15,-321l15 -213c0,-100 -43,-186 -127,-256l0 -43c3,-29 14,-43 32,-43l49 0c180,0 269,199 269,597 -10,75 -15,118 -15,128 0,256 69,384 206,384 117,0 175,-185 175,-554l0 -1088c0,-29 -10,-43 -32,-43 -19,15 -40,22 -63,22l0 -22c-138,0 -207,50 -207,150 0,129 -21,193 -63,193 -21,0 -32,-14 -32,-43l0 -108c0,-158 -16,-336 -47,-534l32 -20z"/>
  <path fill="black" fill-rule="nonzero" d="M15825 5136c13,0 19,8 19,24l92 -24 184 0 128 24c-25,186 -37,318 -37,394l0 790 19 0c134,-270 202,-442 202,-518 -74,-23 -110,-72 -110,-147l36 -26 515 0c25,6 37,22 37,50l0 26c0,31 -37,64 -111,97 -21,-16 -46,-24 -74,-24l-239 370 0 24c258,146 387,385 387,717l92 0c49,33 74,82 74,149l-37 24 -497 0 -36 -24c0,-99 49,-149 146,-149l0 -50c-68,-313 -160,-469 -275,-469 -51,79 -94,153 -128,222l0 297 92 0c49,33 73,82 73,149l-36 24 -496 0 -37 -24c29,-99 53,-149 74,-149l92 0 0 -1455c0,-116 -55,-174 -165,-174 -25,-54 -37,-94 -37,-123 24,-16 42,-24 55,-24z"/>
  <path fill="black" fill-rule="nonzero" d="M14382 4901l376 0c92,0 142,26 150,77 0,62 -56,104 -169,126l-19 126 0 681 19 0c263,-493 394,-771 394,-833l-19 0c-75,0 -111,-50 -111,-151l131 -26 321 0c92,0 142,26 150,77 0,72 -75,114 -226,126 -204,308 -342,526 -413,655 185,0 361,176 526,529 62,190 119,526 169,1010l38 26 19 0c7,0 38,-42 93,-126 25,5 38,21 38,50l0 51c0,134 -50,202 -150,202l-38 0c-136,0 -256,-311 -357,-934 -152,-352 -321,-529 -507,-529 -50,27 -75,86 -75,176l0 327c0,135 44,202 131,202 19,0 38,26 57,77l0 26c0,33 -13,50 -38,50l-544 0c-26,0 -38,-17 -38,-50l0 -26c0,-43 56,-77 169,-101l19 -253 0 -1186c0,-134 -38,-202 -113,-202 -50,0 -75,-25 -75,-76l0 -75 94 -26z"/>
  <path fill="black" fill-rule="nonzero" d="M19081 5077l310 0 92 24 3 1750 109 0c36,16 55,65 55,147l-36 26 -478 0c-25,0 -37,-25 -37,-75 19,-65 37,-97 56,-97l91 0 0 -1430 -19 -172 -109 0c-49,-33 -74,-83 -74,-149l37 -24z"/>
  <path fill="black" fill-rule="nonzero" d="M17856 4686l634 0c25,5 38,23 38,51l0 26c0,25 -19,51 -57,79l-173 0 0 1701c29,0 54,9 76,26 256,0 384,-60 384,-181 0,-155 20,-232 59,-232 30,0 49,69 57,207l-19 0 19 51 0 27c0,181 19,361 57,541l-38 26c-76,-34 -115,-129 -115,-283l-923 0c-26,0 -38,-17 -38,-51l0 -27c0,-26 26,-61 76,-103l154 0 0 -1701 -173 0c-29,0 -48,-43 -57,-129l38 -26z"/>
  <path fill="black" fill-rule="nonzero" d="M3485 9468l399 0 55 48c44,-32 92,-48 145,-48l37 0c74,0 152,40 235,121 88,-81 179,-121 272,-121 248,0 387,235 418,706l0 24c0,411 -103,768 -309,1073 -20,-39 -44,-202 -72,-488 109,-214 164,-433 164,-659l0 -48c0,-292 -67,-439 -201,-439l-18 0c-59,0 -119,24 -182,73 61,154 92,316 92,486 0,390 -97,748 -291,1073 -39,0 -63,-188 -72,-561 73,-48 115,-227 127,-536l0 -97c0,-224 -43,-370 -127,-439l-90 0c-72,0 -133,48 -182,145l0 927 109 0c36,17 53,66 53,147l-36 24 -508 0 0 -97c0,-23 18,-47 55,-73l90 0 0 -901c0,-147 -61,-220 -182,-220l-18 -97 37 -24z"/>
  <path fill="black" fill-rule="nonzero" d="M1642 8449l678 0 0 75c0,27 -25,61 -76,103 -22,-17 -47,-26 -75,-26 0,17 -7,26 -19,26 251,732 376,1119 376,1162l19 0c213,-742 320,-1129 320,-1162 -25,-17 -43,-26 -56,-26l-38 26c-50,-26 -75,-52 -75,-77l0 -101 678 0c25,6 37,23 37,51l0 24c0,44 -44,79 -131,103l0 -26c-62,0 -94,101 -94,302l0 1087c0,186 32,278 94,278 87,12 131,37 131,77l0 50c0,34 -12,51 -37,51l-641 0c-24,0 -37,-17 -37,-51l0 -50c0,-34 38,-60 113,-77 21,17 46,26 75,26 25,-56 37,-107 37,-152l0 -1162 -18 0c-259,896 -410,1368 -452,1415 -314,-907 -470,-1370 -470,-1389l-19 0 0 1061c0,168 69,253 207,253l19 101 -38 26 -432 0c-75,10 -113,35 -113,75l0 26 19 177 -38 24c-37,-12 -69,-71 -94,-175 0,-203 100,-304 301,-304l0 26c50,-17 75,-68 75,-152l0 -1389c0,-118 -75,-177 -226,-177l0 -126z"/>
  <path fill="black" fill-rule="nonzero" d="M7887 9393c56,148 84,304 84,468 0,390 -97,748 -291,1073 -39,0 -63,-188 -72,-561 73,-48 115,-227 127,-536l0 -97c0,-224 -43,-370 -127,-439l-90 0c-72,0 -133,48 -182,145l0 927 109 0c36,17 53,66 53,147l-36 24 -508 0 0 -97c0,-23 18,-47 55,-73l90 0 0 -901c0,-147 -61,-220 -182,-220l-18 -97 37 -24 399 0 55 48c44,-32 92,-48 145,-48l37 0c74,0 152,40 235,121 36,40 62,87 80,142z"/>
  <path fill="black" fill-rule="nonzero" d="M5478 8360l591 0 0 103c0,34 -38,51 -115,51l0 51c391,797 594,1224 611,1281l19 0 0 -1051c0,-188 -32,-281 -95,-281 -64,0 -95,-43 -95,-128l38 -26 400 0c25,6 38,23 38,51 0,60 -57,111 -171,154 -13,29 -19,63 -19,102l0 1358c0,130 57,207 171,231l19 103 -38 26 -591 0c-25,0 -38,-17 -38,-51 0,-45 32,-89 95,-128l95 26 0 -51c-433,-872 -649,-1325 -649,-1358l-19 0 0 1256c0,99 57,159 171,179l19 103 -38 26 -381 0c-76,0 -114,34 -114,102l19 179 -38 26c-51,-27 -76,-87 -76,-179l0 -51c0,-149 82,-234 248,-256l0 26c64,0 95,-94 95,-281l0 -1128c0,-222 -57,-333 -171,-333l-19 -51 0 -26c4,-34 17,-51 38,-51z"/>
  <path fill="black" fill-rule="nonzero" d="M10411 9175l193 0c206,0 331,221 371,663l0 70c-29,458 -147,688 -353,688 0,16 -35,24 -105,24l-18 0c-306,-43 -459,-249 -459,-616l0 -189c41,-426 164,-639 371,-639zm-141 711c0,312 76,501 229,568 164,-65 246,-255 246,-568 0,-314 -76,-496 -229,-546l-18 0c-153,50 -229,232 -229,546z"/>
  <path fill="black" fill-rule="nonzero" d="M9074 8799l95 26 95 -26c331,0 521,349 570,1048l0 26c-60,664 -257,996 -590,996l-95 -26c-13,0 -19,9 -19,26 -296,0 -498,-213 -609,-638l-38 -409c0,-600 197,-941 590,-1022zm-323 1048c0,499 139,789 418,868l19 0c254,-98 381,-413 381,-945 -48,-545 -194,-818 -439,-818 -185,0 -311,264 -380,792l0 103z"/>
  <path fill="black" fill-rule="nonzero" d="M13488 8782c189,0 324,138 406,415l15 261c-50,436 -201,653 -453,653 -28,0 -88,-22 -179,-65l0 218 16 107 98 0c25,0 41,37 49,109l-32 22 -357 0c-22,0 -33,-15 -33,-44 22,-94 33,-160 33,-195l0 -1200c0,-101 -49,-151 -146,-151l-16 -45 0 -20c3,-30 14,-44 33,-44l373 0c11,0 16,8 16,22 42,-30 102,-44 178,-44zm-211 611l0 435c44,87 98,131 163,131l16 0c109,0 185,-138 227,-415l0 -129c0,-320 -65,-479 -196,-479l-32 0c-120,0 -179,152 -179,457z"/>
  <path fill="black" fill-rule="nonzero" d="M12200 8517l154 0c267,0 421,216 462,647 0,335 -167,534 -501,595 -33,0 -104,-26 -212,-77l0 621 19 129 173 0c52,34 78,86 78,155 -13,0 -19,9 -19,26 -193,-17 -335,-26 -425,-26l-115 0 -116 -26c-24,17 -43,26 -57,26 -25,-17 -45,-26 -58,-26l0 -79c0,-25 20,-51 58,-76l154 0c25,-168 38,-401 38,-700l0 -234c0,-121 -7,-310 -19,-568 -65,51 -116,77 -154,77l-96 0c-39,0 -71,-77 -97,-232l0 -79c0,-23 32,-66 97,-130l38 0c19,0 38,26 58,79 -52,25 -77,51 -77,77l0 79c4,34 17,51 38,51l39 0c31,0 153,-87 366,-260 84,-34 142,-51 174,-51zm-96 234l0 698c40,104 123,156 250,156 129,-65 193,-194 193,-387l0 -156c0,-259 -90,-389 -271,-389l-115 0c-19,0 -38,26 -57,79z"/>
  <path fill="black" fill-rule="nonzero" d="M16110 8810c97,14 145,28 145,43l112 -23 337 0 0 65c0,40 -48,69 -145,87l0 128c0,43 -5,65 -15,65l15 108 0 1054c0,17 48,46 145,87l0 65c0,29 -10,43 -32,43 -11,0 -16,-7 -16,-22l-32 22 -225 0c-75,0 -112,-14 -112,-43 17,-47 33,-118 48,-215l-16 -44c0,-14 6,-20 16,-20l-16 -43c0,-15 6,-22 16,-22l-16 -43 16 -44 -16 0c-52,43 -121,65 -208,65 -224,0 -363,-222 -417,-667 0,-358 123,-566 369,-625 12,0 28,-6 48,-20zm-177 560l0 215c30,259 94,387 193,387l47 0c54,0 108,-43 161,-129l-16 -43 0 -215c0,-15 6,-22 16,-22l-16 -43 0 -150c0,-273 -64,-409 -192,-409 -129,0 -193,136 -193,409z"/>
  <path fill="black" fill-rule="nonzero" d="M15069 8430c348,98 522,418 522,959l0 155c0,370 -96,647 -290,831 66,363 118,544 154,545 34,-86 59,-129 77,-130 26,6 39,23 39,51l0 26c0,96 -39,165 -117,208l-19 0c-165,0 -275,-190 -328,-570l-252 0c-282,0 -475,-208 -580,-623 -26,-139 -38,-285 -38,-440 0,-491 148,-828 445,-1012l385 0zm-559 985l0 104c41,554 176,831 406,831l38 0 96 -27c0,-96 -45,-190 -134,-285l0 -26c0,-26 26,-52 77,-79 68,18 145,70 232,157 77,-248 115,-456 115,-623 0,-476 -135,-779 -405,-907 -283,85 -425,370 -425,855z"/>
  <path fill="black" fill-rule="nonzero" d="M18895 9667l328 0c24,0 36,33 36,97 59,-49 138,-73 236,-73l37 0c92,0 177,49 254,147 -66,114 -133,171 -201,171l-18 0 -127 -121 -18 0c-80,0 -134,33 -164,97l18 171 0 756 92 0c36,16 55,65 55,147l-37 24 -472 0c-25,0 -37,-17 -37,-50l0 -24c0,-62 48,-94 145,-97l0 -1049 -127 -97 0 -97z"/>
  <path fill="black" fill-rule="nonzero" d="M17970 8517c296,0 469,207 520,620l0 26c0,281 -115,470 -347,568l0 27c295,125 442,383 442,775l0 413c0,25 20,51 59,77 8,0 39,-43 95,-128 26,5 39,22 39,51l0 26c-17,155 -75,232 -174,232 -143,0 -239,-292 -288,-877 -61,-220 -215,-409 -461,-568l-76 -78 0 698c0,51 83,85 249,103 0,38 7,73 19,104l-38 26 -250 0c-29,0 -54,-8 -76,-26 -13,0 -19,9 -19,26l-96 -26 -270 0c-25,0 -38,-17 -38,-51l0 -26c0,-27 25,-62 76,-104l135 0c26,-166 39,-399 39,-698l0 -128c0,-146 -7,-361 -20,-647l-19 0c-64,52 -115,79 -154,79l-57 0c-77,-60 -116,-138 -116,-234l0 -103c36,-86 87,-130 154,-130l38 79c-1,23 -33,57 -95,103 17,80 42,123 76,130 26,0 173,-104 442,-311 114,-17 184,-26 212,-26zm-192 311l0 645c0,37 64,89 192,156 140,0 223,-138 250,-413l0 -130c0,-275 -96,-413 -288,-413 -102,0 -154,52 -154,156z"/>
  <path fill="black" fill-rule="nonzero" d="M3985 12658l51 0c22,6 33,21 33,46l0 22 -234 403c-16,0 -33,-22 -49,-66l0 -23 16 -112c-39,-44 -100,-74 -184,-89 -78,15 -117,37 -117,66 18,49 163,183 435,402 89,119 134,232 134,337l0 90c0,224 -145,336 -435,336 -166,-33 -283,-85 -350,-157l-34 0 -83 91 -51 0c-22,0 -33,-16 -33,-46l0 -22c144,-179 261,-351 351,-515 16,0 33,22 49,66 0,27 -16,95 -49,203 95,128 184,196 267,201 75,0 131,-37 167,-112l0 -44c0,-105 -139,-247 -417,-427 -47,-70 -86,-137 -117,-201l0 -113c0,-208 106,-312 318,-312 151,44 239,66 267,66 0,-24 22,-54 66,-90z"/>
  <path fill="black" fill-rule="nonzero" d="M2734 12275c25,17 44,26 57,26 -164,463 -264,708 -302,735l-38 -75c0,-44 13,-119 38,-229 -59,-153 -134,-229 -226,-229l-76 0c-27,0 -59,59 -94,178 0,69 183,298 548,684 113,171 170,323 170,457l0 103c0,338 -145,507 -435,507l-38 0c-185,0 -349,-76 -491,-229 -76,86 -121,128 -133,128 -50,-26 -75,-52 -75,-77 203,-283 342,-545 416,-786l19 0c26,54 38,97 38,126l-57 255c42,288 149,432 321,432 139,0 214,-118 226,-355 0,-181 -164,-418 -491,-712 -126,-167 -190,-319 -190,-455 0,-288 132,-432 397,-432l322 101c0,-52 31,-103 94,-152z"/>
  <path fill="black" fill-rule="nonzero" d="M6050 12462l566 0c24,0 36,24 36,72 -23,72 -46,111 -70,118l-107 0 0 356 18 0c61,0 197,-16 406,-48 0,16 6,24 18,24 -17,159 -40,239 -71,239 -148,-32 -271,-48 -371,-48l0 950 18 48 36 -24c63,0 105,31 123,94l0 24c-12,48 -47,72 -105,72l-460 0c-23,0 -36,-16 -36,-48l0 -48c0,-43 53,-75 159,-94l0 -974 -18 0c-86,0 -216,16 -389,48l-18 -48c20,-143 43,-215 71,-215 168,31 285,48 354,48l0 -356 -88 0c-47,-25 -71,-80 -71,-166l0 -24z"/>
  <path fill="black" fill-rule="nonzero" d="M4628 11895c50,0 88,93 113,280l964 0c0,-187 44,-280 132,-280l0 26c-38,301 -57,554 -57,761 0,34 -12,51 -37,51l-76 -77 19 -126c0,-135 -88,-203 -264,-203 -51,10 -76,78 -76,203l0 1345c0,119 69,179 209,179l0 126 -643 0c-25,0 -38,-17 -38,-51l0 -26c0,-26 26,-59 76,-101l37 0c13,0 19,9 19,26 64,0 95,-76 95,-228l0 -1169c0,-203 -32,-304 -95,-304 -164,26 -245,60 -245,101l0 229c0,34 -32,51 -94,51 -13,-310 -38,-572 -76,-787l38 -26z"/>
  <path fill="black" fill-rule="nonzero" d="M8644 12630l400 0c24,5 37,21 37,48 -109,192 -164,420 -164,685 30,359 97,539 201,539 88,-33 155,-98 201,-196l0 -930 -109 0c-18,0 -36,-24 -56,-73l0 -25c4,-32 16,-48 37,-48l474 0c24,5 36,21 36,48l0 25c-5,33 -36,66 -91,97 -24,-16 -42,-24 -55,-24l0 954c0,115 55,172 164,172 24,54 36,94 36,123l-36 24 -400 0c-25,0 -37,-24 -37,-73 -63,49 -124,73 -183,73l-55 0c-243,0 -365,-253 -365,-759 25,-234 37,-405 37,-514 -73,0 -109,-24 -109,-73l0 -25c3,-32 16,-48 37,-48z"/>
  <path fill="black" fill-rule="nonzero" d="M7288 12322l538 0c25,6 37,22 37,50l0 26c0,30 -56,71 -167,125 -13,29 -19,61 -19,99l0 769c0,514 80,771 240,771l19 0c160,0 240,-207 240,-621l0 -920c0,-97 -56,-155 -167,-174l-18 -99 37 -26 573 0 0 99c0,24 -18,49 -55,75l-19 0c-12,0 -18,-9 -18,-26 -50,25 -75,50 -75,75l0 722c0,36 -6,69 -17,99 0,16 6,24 17,24 0,432 -98,722 -296,870 -65,50 -138,75 -223,75 -270,0 -430,-257 -480,-771l0 -796c0,-199 -43,-298 -130,-298 -37,0 -56,-16 -56,-50l0 -50c4,-33 16,-50 37,-50z"/>
  <path fill="black" fill-rule="nonzero" d="M11305 12779l562 0c24,5 36,21 36,50 0,37 -43,85 -127,145 0,40 72,388 217,1046l19 0c72,-537 108,-869 108,-996l0 -50c-72,-59 -108,-116 -108,-171l36 -24 454 0c24,5 36,21 36,50l0 24c0,40 -60,80 -180,121 -80,126 -164,475 -254,1046 85,0 127,49 127,147l-37 24 -580 0c-25,0 -37,-16 -37,-50 0,-77 43,-118 127,-121 -130,-713 -232,-1070 -308,-1070 -85,-16 -127,-65 -127,-147l37 -24z"/>
  <path fill="black" fill-rule="nonzero" d="M10599 12226l19 51c-29,103 -79,154 -152,154 -13,33 -19,58 -19,77 152,1041 254,1561 305,1561 140,-820 210,-1332 210,-1535l0 -77 -115 -103c-13,-33 -19,-59 -19,-77 25,0 38,-17 38,-51l134 26 324 0 0 26c0,47 -51,107 -152,179 -64,124 -165,670 -305,1638l153 0c19,0 38,26 57,77l0 26c0,34 -13,51 -38,51l-820 0 0 -77c0,-25 19,-51 57,-77l134 0c-64,-616 -165,-1179 -305,-1689l-95 0c-29,0 -48,-43 -57,-128l38 -26 381 0 229 -26z"/>
  <path fill="black" fill-rule="nonzero" d="M14834 12808l586 0 0 97c0,33 -43,58 -128,75 158,696 238,1056 238,1080l18 0c73,-528 110,-880 110,-1056l0 -24c-85,-10 -128,-60 -128,-149l36 -24 567 0c25,4 37,21 37,50 -24,74 -48,115 -74,123l-36 -26 -19 50 220 1056 18 0c74,-530 111,-865 111,-1006l0 -50c-74,-61 -111,-118 -111,-172l37 -24 458 0c24,4 37,21 37,50l0 24c0,41 -61,82 -183,123 -83,135 -169,487 -257,1056 85,13 128,45 128,99l0 24c0,33 -12,50 -37,50l-585 0c-24,0 -37,-16 -37,-50 0,-79 43,-119 128,-123l-165 -787 -18 0c-37,169 -86,431 -147,787 85,0 128,50 128,149l-37 24 -584 0c-25,0 -37,-16 -37,-50 0,-42 36,-91 109,-147 -113,-704 -210,-1056 -292,-1056 -85,-17 -128,-67 -128,-149l37 -24z"/>
  <path fill="black" fill-rule="nonzero" d="M12837 12281l543 0 0 77c0,19 -44,61 -131,124l0 26c0,213 82,731 244,1556l18 0c50,-301 125,-811 225,-1531 0,-59 -56,-101 -169,-126l-18 -101 37 -26 524 0c25,5 38,23 38,51 0,53 -43,95 -131,125l-19 51c129,1038 223,1556 281,1556 138,-959 206,-1478 206,-1556 0,-44 -44,-77 -131,-100 0,-38 -7,-72 -19,-101l37 -26 375 0c25,5 37,23 37,51 0,59 -50,101 -150,125 -50,153 -138,698 -262,1632l113 0c28,0 46,42 56,126l-56 50c-13,0 -19,-9 -19,-26l-94 26 -429 0c-66,0 -103,-25 -113,-75l0 -26c0,-24 19,-49 57,-75l93 0c-112,-723 -168,-1108 -168,-1155l-38 0 -149 1155 93 0c29,0 48,42 56,126 -56,33 -137,50 -242,50l-318 0c-13,0 -19,-9 -19,-26l-37 26 -94 -26 0 -75c0,-50 56,-75 167,-75 -162,-1104 -268,-1657 -318,-1657 -75,0 -112,-25 -112,-75l0 -26c4,-34 16,-51 37,-51z"/>
  <path fill="black" fill-rule="nonzero" d="M18417 12651l634 0c24,5 36,21 36,50l0 24c0,38 -48,71 -145,97l0 24 182 268c0,-22 54,-119 163,-292 -97,-9 -145,-58 -145,-147l36 -24 454 0c24,5 36,21 36,50l0 24c-25,65 -55,97 -90,97l-36 -24c-56,0 -165,146 -327,437l0 24c243,422 393,633 452,633 73,0 109,49 109,147l-37 24 -634 0 -36 -24c28,-98 52,-147 72,-147l90 0 0 -24c-24,-68 -96,-182 -217,-341 -39,82 -105,196 -200,341l0 24 92 0c19,0 43,33 72,97l0 24c0,33 -12,50 -37,50l-489 0c-24,0 -36,-16 -36,-50 0,-81 72,-129 217,-145l290 -462 0 -24c-198,-373 -337,-560 -417,-560 -85,0 -127,-49 -127,-147l37 -24z"/>
  <path fill="black" fill-rule="nonzero" d="M16991 12255l603 0c26,6 38,23 38,51 -19,68 -38,101 -57,101l-113 0 0 26c103,198 173,350 208,455 125,-227 188,-388 188,-481l-113 0c-29,0 -48,-42 -57,-126l38 -26 567 0c24,6 37,23 37,51l0 24c0,37 -75,79 -226,128l-339 582c309,693 498,1039 566,1039 88,0 132,51 132,152l-19 0c-107,17 -195,26 -264,26l-263 0c-13,0 -19,-9 -19,-26 -25,17 -44,26 -57,26 -25,-17 -43,-26 -56,-26l0 -75c0,-25 19,-51 56,-77l94 0 0 -26c-164,-356 -278,-584 -340,-684 -176,413 -264,649 -264,709l113 0c38,17 57,68 57,152l-94 26 -341 0 -113 -26 -37 26c-25,-17 -44,-26 -57,-26l0 -75c0,-51 75,-85 226,-103 152,-255 297,-525 434,-810l0 -51c-239,-524 -390,-785 -453,-785 -75,0 -113,-26 -113,-77l0 -24c4,-34 17,-51 38,-51z"/>
  <path fill="black" fill-rule="nonzero" d="M8875 16167l357 0c22,5 33,19 33,44 -98,157 -146,339 -146,546 0,314 59,496 179,546 78,-30 138,-87 179,-174l0 -831 -98 0c-25,0 -42,-36 -49,-109l33 -22 423 0c21,5 32,19 32,44l0 20c0,22 -16,44 -48,66l-82 0 0 1246c0,94 11,196 33,306l-33 22 -358 0c-21,0 -32,-15 -32,-45 0,-58 54,-94 163,-109 0,-101 5,-152 16,-152l-16 -44 0 -22c0,-15 5,-22 16,-22l-16 -43c0,-15 5,-22 16,-22 -11,-29 -16,-50 -16,-65 -58,58 -118,87 -179,87l-50 0c-217,0 -325,-226 -325,-677 0,-97 17,-250 50,-460 -76,0 -115,-22 -115,-66l0 -20c3,-30 14,-44 33,-44z"/>
  <path fill="black" fill-rule="nonzero" d="M7577 15628l642 0 0 76c0,24 -19,49 -56,75l-95 0 0 51c164,373 246,576 246,609 101,-181 151,-401 151,-660l-113 0c-19,0 -38,-25 -57,-75l0 -25c4,-34 17,-51 38,-51l567 0c25,5 38,23 38,51 0,56 -76,107 -228,151 -42,0 -156,305 -341,913l0 432c0,186 32,280 95,280 62,5 94,30 94,77l0 75c-10,0 -47,9 -113,26l0 -26 -38 26 -416 0c-18,0 -37,-26 -57,-77 0,-63 57,-105 170,-126l19 -126 0 -560c-217,-643 -381,-964 -492,-964 -43,0 -74,-42 -94,-126l38 -26z"/>
  <path fill="black" fill-rule="nonzero" d="M12802 16368c86,0 130,91 130,275l1003 0c25,4 37,21 37,50 0,24 -56,100 -167,225l-520 872 0 75c3,33 16,50 37,50l259 0c80,0 167,-16 260,-50l0 -176c5,-34 36,-67 93,-99l18 50 0 124c0,186 19,393 56,623l-37 26 -19 0c-40,0 -72,-108 -93,-324l-1076 0c-25,0 -37,-16 -37,-50 0,-17 74,-116 223,-299 334,-561 502,-860 502,-897l0 -26 -279 0c-125,0 -205,34 -241,101l18 50 0 125c0,26 -25,59 -74,99 -25,0 -37,-16 -37,-50 0,-190 -19,-448 -56,-773z"/>
  <path fill="black" fill-rule="nonzero" d="M11319 15564l18 0c51,17 76,109 76,278l1017 0c26,6 38,23 38,51 0,54 -44,96 -132,126 -452,987 -678,1518 -678,1593l0 26 38 24 169 0c289,0 433,-58 433,-176 0,-118 26,-177 76,-177l18 50c0,207 19,460 57,759l-38 26 -19 0c-37,0 -69,-109 -94,-329l-94 26 0 -26 -37 26 -886 0c-13,0 -19,-9 -19,-26l-38 26 -56 -51c32,-100 76,-150 132,-150 381,-833 607,-1365 677,-1593l0 -26 -94 -26 -94 0c-226,0 -340,51 -340,152 0,168 -31,252 -94,252l-19 -50 0 -102c0,-172 -19,-391 -56,-657l38 -26z"/>
  <path fill="black" fill-rule="nonzero" d="M3218 19310l86 24 36 0c26,0 49,-8 69,-24 239,0 389,278 450,836l0 186c0,397 -110,669 -329,814 -45,31 -108,46 -190,46l-36 0c-303,0 -476,-271 -518,-812l0 -186c0,-426 121,-713 364,-860 46,0 69,-8 69,-24zm-173 906l0 24c0,388 75,644 225,766l70 0c142,-9 229,-249 259,-720l0 -70c0,-409 -92,-649 -277,-720 -184,70 -277,310 -277,720z"/>
  <path fill="black" fill-rule="nonzero" d="M6416 19218c170,0 292,148 367,444l0 99c0,144 -171,499 -515,1063l-55 147 18 0c331,-72 497,-179 497,-321 0,-99 30,-149 92,-149 0,17 7,26 19,26l-19 123c0,236 19,475 56,717 -13,0 -19,8 -19,24 -74,0 -111,-74 -111,-222l-827 0c-18,0 -36,-24 -55,-73l0 -26c0,-198 184,-560 551,-1085 86,-212 128,-361 128,-446l0 -50c-12,-49 -49,-73 -111,-73 -73,0 -158,98 -256,295l0 26 74 123 0 99c0,33 -13,50 -37,50 -180,-218 -321,-334 -423,-347l0 -73c0,-41 25,-65 74,-73 40,33 77,50 111,50 70,-231 199,-347 386,-347l55 0z"/>
  <path fill="black" fill-rule="nonzero" d="M4759 19252l55 0 0 24c-25,157 -37,246 -37,266l0 1503 109 0c27,0 45,40 53,121l-53 48c-13,0 -19,-8 -19,-24l-36 24 -397 0 -55 -48c24,-74 48,-114 72,-121l90 0 0 -1235c0,-98 -43,-147 -127,-147l-18 -48c16,-51 136,-172 361,-363z"/>
  <path fill="black" fill-rule="nonzero" d="M7462 19140l36 0 85 186 277 0c34,0 51,8 51,22l86 -22 328 0c23,0 34,23 34,68 0,59 -52,98 -155,116 -94,146 -168,270 -223,372l0 22c264,145 397,361 397,649 0,338 -161,546 -483,626l0 -24 -34 24c-186,0 -341,-132 -467,-394 -80,0 -121,-23 -121,-70l0 -22c0,-22 109,-76 328,-162 0,-16 40,-47 121,-94l18 48 0 68 -52 94c51,185 149,278 294,278 126,-28 189,-129 189,-302 0,-147 -109,-294 -328,-440 -104,-42 -155,-81 -155,-116 37,-30 158,-222 362,-578l-34 0c-288,35 -432,120 -432,254 0,108 -17,162 -51,162l-34 0 0 -70c0,-34 -6,-65 -18,-92 0,-15 6,-22 18,-22 -15,-240 -38,-425 -70,-556l35 -24z"/>
  <path fill="black" fill-rule="nonzero" d="M9669 18996c0,16 6,24 18,24 -12,199 -18,342 -18,430l0 986 150 0c25,0 44,-84 56,-252l57 -51 38 0c-13,253 -19,439 -19,556l0 278 -19 0c-62,-23 -94,-81 -94,-175l0 -152 -169 0 0 404c0,33 50,58 150,75 0,38 6,71 19,101l-57 51 -56 0c-13,0 -19,-9 -19,-26l-37 26 -245 0c-28,0 -53,-9 -75,-26 -25,17 -44,26 -57,26l-37 -75c0,-72 56,-114 169,-128l-19 -175 0 -178 19 -51 -38 -24 -545 0c-26,0 -38,-17 -38,-51l0 -26c527,-994 816,-1516 867,-1566zm-622 1414l0 26 357 0c0,-50 6,-75 19,-75l-19 -51 0 -203 19 -302 -19 0c-33,22 -152,224 -357,606z"/>
  <path fill="black" fill-rule="nonzero" d="M11638 19141l18 46c-35,241 -52,440 -52,596l0 68c0,30 -11,46 -33,46 -18,0 -40,-30 -69,-90l16 -93c0,-96 -131,-157 -393,-184 -47,0 -110,-8 -187,-22l0 503c33,0 124,-15 272,-44 331,79 496,269 496,571l0 93c0,334 -171,525 -512,573 -214,0 -380,-176 -495,-527l-85 22 -51 -90c0,-17 154,-94 462,-231l16 0 0 24c0,44 -29,113 -85,207 37,275 128,412 273,412 148,-37 223,-121 223,-252l0 -92c-85,-306 -205,-459 -360,-459l-239 0c-22,0 -33,-16 -33,-46l0 -688c-58,0 -86,-38 -86,-114l34 -23 769 0c13,-137 48,-206 102,-206z"/>
  <path fill="black" fill-rule="nonzero" d="M12888 19150c95,136 224,270 387,401l0 24c0,48 -23,72 -71,72l-105 -72c-70,188 -105,290 -105,307l18 0c20,-16 43,-24 70,-24 271,0 442,181 511,543l0 119c-42,456 -200,684 -475,684 -434,0 -651,-228 -651,-684 0,-118 153,-496 458,-1135 -16,0 -46,-39 -88,-118l0 -46c0,-23 17,-47 52,-72zm-141 1416c41,299 135,449 282,449 152,0 246,-150 281,-449l0 -22c-18,-331 -111,-496 -281,-496 -126,0 -220,172 -282,518z"/>
  <path fill="black" fill-rule="nonzero" d="M16541 19251c228,65 342,211 342,437 -18,153 -41,252 -69,297l0 46c160,136 240,296 240,483 -52,429 -206,644 -462,644l0 22c-297,0 -485,-122 -564,-367l-16 -160 0 -139c0,-144 63,-282 188,-413 -57,-101 -91,-224 -103,-368 0,-213 108,-373 325,-482l120 0zm-308 367c0,230 148,345 445,345 26,-92 43,-138 51,-138 -66,-214 -197,-321 -393,-321 -22,0 -56,38 -103,114zm-51 918c0,153 170,284 512,390 125,-41 188,-109 188,-206 0,-249 -154,-410 -462,-483 -38,0 -66,-8 -85,-22 -102,56 -154,164 -154,321z"/>
  <path fill="black" fill-rule="nonzero" d="M14353 19048l18 0c32,0 62,87 88,261l829 0c24,5 36,20 36,46 -282,586 -423,1131 -423,1635 23,16 41,24 53,24 22,-16 39,-24 52,-24 36,58 53,113 53,165l-36 24 -18 0c-12,0 -18,-8 -18,-24l-34 24c-12,0 -18,-8 -18,-24l-36 24 -370 0c-23,0 -36,-24 -36,-72 0,-62 53,-102 159,-118 0,-528 111,-1025 334,-1492l0 -24 -34 0c-179,0 -338,23 -477,70l0 190c0,25 -23,56 -71,96 -23,0 -34,-16 -34,-48l0 -142c0,-178 -18,-367 -53,-568l36 -24z"/>
  <path fill="black" fill-rule="nonzero" d="M18428 19154c324,94 487,296 487,604l0 126c-29,211 -173,589 -431,1133 62,5 94,30 94,75l0 101 -281 -51 -225 51c-13,-33 -19,-58 -19,-75 0,-60 50,-103 150,-126l169 -428 -94 26 -19 0c-350,-48 -525,-266 -525,-655l0 -150c58,-402 208,-604 450,-604l169 0c28,0 53,-9 75,-26zm-413 705c0,285 100,462 300,529 133,0 239,-168 319,-503 -34,-335 -128,-503 -281,-503l-113 0c-150,125 -225,284 -225,478z"/>
 </g>
</svg>
