<?xml version="1.0" encoding="UTF-8"?>
<!DOCTYPE svg PUBLIC "-//W3C//DTD SVG 1.1//EN" "http://www.w3.org/Graphics/SVG/1.1/DTD/svg11.dtd">
<!-- Creator: CorelDRAW 2017 -->
<svg xmlns="http://www.w3.org/2000/svg" xml:space="preserve" width="210mm" height="297mm" version="1.1" shape-rendering="geometricPrecision" text-rendering="geometricPrecision" image-rendering="optimizeQuality" fill-rule="evenodd" clip-rule="evenodd"
viewBox="0 0 21000 29700"
 xmlns:xlink="http://www.w3.org/1999/xlink">
 <g id="Layer_x0020_1">
  <metadata id="CorelCorpID_0Corel-Layer"/>
  <path fill="black" fill-rule="nonzero" d="M2991 2962c-35,-133 -58,-227 -71,-279 9,-86 4,-141 -15,-167 -19,-26 -35,-63 -48,-110 -14,-47 -23,-83 -29,-106 -6,-23 -11,-45 -16,-66 -66,255 -135,515 -208,781l387 -52zm84 1051c55,-8 93,-22 113,-41 20,-19 30,-49 30,-89 0,-13 -2,-30 -5,-51 -3,-21 -9,-52 -18,-93 -9,-41 -22,-96 -38,-165 -16,-68 -41,-174 -75,-317 -28,3 -184,18 -467,45l-13 -60c-29,29 -61,51 -99,68 -26,110 -46,198 -62,265 -16,68 -28,121 -37,161 -9,39 -14,69 -17,89 -3,20 -4,36 -4,49 0,89 51,134 154,137l59 51 0 34c0,35 -1,55 -4,64 -3,7 -11,12 -26,12 -7,0 -17,0 -30,0 -10,0 -22,-1 -35,-4l-266 -3c-23,10 -47,16 -71,16l-103 -2 -27 -22 -41 28 -32 20 -6 -16 -37 7 -46 32c-62,26 -97,29 -104,7 -7,-22 -4,-37 10,-43l9 -46c-11,-10 -16,-22 -14,-35 2,-13 9,-22 23,-27 158,-60 245,-99 263,-118 18,-19 38,-70 60,-153 23,-83 49,-156 80,-220 31,-64 72,-177 122,-340 43,-204 92,-391 146,-563 54,-172 95,-319 123,-441 27,-122 58,-218 91,-286 34,-69 12,-160 -65,-272l90 -194c122,-8 197,-16 223,-24 8,-3 18,-4 30,-4 11,0 18,4 20,12 2,7 9,30 18,65 91,208 151,359 180,454 29,95 52,174 68,236l21 111 -51 -20 -21 55 35 91 87 36 46 183 46 182 152 44 -59 295 -54 6c33,145 60,254 81,326 21,72 22,145 5,219 62,83 104,140 127,171 23,31 50,51 81,60 30,9 47,18 49,25 2,7 3,29 3,64 0,36 -9,62 -28,78 -356,-3 -546,-3 -569,-2 -23,1 -38,2 -45,2 -65,0 -100,-4 -104,-12 -4,-8 -7,-29 -7,-64 0,-35 2,-55 5,-62 3,-7 13,-12 30,-15z"/>
  <path fill="black" fill-rule="nonzero" d="M5276 1392c360,0 602,205 725,615l13 41c8,28 23,47 46,60 0,36 -24,112 -73,228 -49,116 -103,193 -164,231 -60,38 -103,57 -126,57l0 39c85,74 146,145 184,213 38,68 83,189 135,362l67 162c-68,172 -102,281 -102,327 -87,192 -149,288 -187,288l-8 10c-10,0 -15,11 -15,32l-44 0c0,40 -10,60 -30,60 -97,28 -228,42 -391,42l-444 -71c-87,0 -203,33 -348,99 0,14 -15,20 -44,20l0 -10 -15 -62c0,-82 54,-139 163,-170 94,-81 142,-154 142,-222l0 -927 30 0 0 -10 -8 -12 0 -10c22,-14 34,-26 37,-40l0 -30c-15,0 -22,-6 -22,-20 11,0 18,-17 22,-51l-8 0 -51 10 0 -343c0,-209 -28,-313 -83,-313l-30 -20c8,-68 16,-101 22,-101 109,47 199,72 268,72l310 -30 -15 120 -15 0c-93,0 -140,68 -140,202l0 1140c0,275 27,412 81,412 49,41 111,62 186,62 131,0 239,-74 325,-222 20,-90 41,-168 63,-234l-34 -60c0,-175 -66,-339 -199,-493 -128,-101 -224,-151 -289,-151l-15 0 0 -22c32,-148 72,-222 120,-222 63,41 110,62 140,62 88,0 147,-124 177,-373l25 -64c-17,-173 -113,-311 -291,-412 -114,-37 -254,-53 -421,-48 -166,5 -381,66 -645,181 -42,20 -73,30 -91,30 -18,0 -56,-6 -113,-19 -57,-13 -86,-33 -86,-62l-104 -323 15 0c112,81 260,121 444,121 93,0 250,-26 469,-78 220,-52 367,-76 441,-72z"/>
  <path fill="black" fill-rule="nonzero" d="M8319 1329c-8,166 -8,295 -1,384 7,90 16,166 25,228 10,62 24,110 42,145l-136 91c-4,-86 -18,-168 -41,-247 -23,-78 -55,-143 -95,-195 -40,-52 -84,-91 -132,-117 -48,-26 -103,-34 -164,-21 -61,13 -133,39 -216,77 -83,39 -127,74 -134,104 -7,29 -33,44 -79,44l6 123c-51,94 -89,183 -113,266 -24,83 -40,168 -47,254 -7,87 -11,198 -11,333 0,136 9,260 25,373 17,113 51,214 102,303 51,89 101,172 151,247 49,75 111,136 185,183 74,46 158,76 252,91 94,15 177,15 249,0 72,-14 130,-37 173,-69 43,-32 100,-101 171,-206 0,118 -16,200 -47,248 -31,48 -88,89 -170,124 -82,35 -168,58 -259,71 -91,13 -179,16 -264,11 -85,-5 -168,-25 -249,-60 -82,-35 -152,-78 -210,-128 -58,-50 -73,-94 -44,-131l-134 -45c-118,-183 -192,-321 -222,-412 -30,-91 -51,-185 -63,-281 -13,-96 -19,-200 -19,-314l-111 -141 99 -177c15,-94 45,-201 91,-322 46,-121 110,-244 191,-371 81,-126 169,-221 264,-282 94,-62 179,-101 253,-115 74,-15 168,-19 283,-12 114,7 246,-12 397,-53z"/>
  <path fill="black" fill-rule="nonzero" d="M10394 1410c410,9 668,173 772,490 29,86 78,273 146,561 30,91 65,168 102,230l0 10c-36,74 -99,300 -187,679 -144,400 -317,650 -521,750 -110,39 -227,60 -350,60 -36,0 -114,-20 -234,-60l-132 0 -373 39 -24 -9 0 -111c7,-15 59,-45 156,-89 67,-47 101,-128 101,-240l9 -1456c0,-187 -26,-281 -78,-281 0,-11 -21,-27 -63,-49l8 -91c157,46 301,59 431,37 130,-22 202,-20 217,5 0,79 -6,118 -17,118 -73,7 -109,51 -109,131l-9 9c0,1125 16,1687 47,1687 78,54 146,81 204,81l38 0c280,0 424,-359 434,-1076 -12,-390 -71,-688 -177,-894 -116,-173 -337,-260 -663,-260 -217,0 -400,35 -551,105 -151,70 -257,99 -319,85 -120,-25 -180,-51 -180,-79l-109 -321 16 0c118,81 274,121 468,121 97,0 238,-26 424,-79 185,-53 359,-87 524,-101z"/>
  <path fill="black" fill-rule="nonzero" d="M12907 1492l36 0 60 49 43 -12 18 0c103,-25 242,-42 416,-50 -12,197 -11,335 4,414 15,79 33,185 57,317l-96 121c-81,-188 -149,-315 -204,-382 -55,-67 -109,-129 -164,-187 -54,-58 -152,-99 -292,-121l-115 34 -46 0 -46 62 0 62 -35 120 35 246 0 489 381 10 113 0c41,-41 68,-78 82,-110 14,-32 30,-76 48,-133l112 0 9 825 -121 -14c-6,-95 -27,-181 -63,-256 -36,-75 -102,-113 -196,-113l-204 3 -161 5 0 771c17,141 37,217 60,229 23,13 60,19 112,19 52,0 134,-9 246,-28l0 51 -28 38 71 26 16 -75c133,0 270,13 411,38 141,25 233,39 277,41 44,3 99,-14 166,-51 67,-37 98,-10 95,80 -4,91 -20,136 -48,136 -28,0 -92,7 -190,23 -98,15 -177,15 -237,0 -60,-16 -151,-23 -273,-23 -121,0 -291,-5 -508,-14 -217,-9 -357,-12 -419,-6 -62,5 -122,9 -180,14 -57,4 -130,6 -218,6l9 -121c82,-17 136,-40 161,-68 26,-28 47,-69 65,-122 18,-53 29,-179 34,-377l-8 -840 33 -26 0 -37 25 -24 27 -9 18 9 18 0 25 0 9 -24 0 -51 -34 0c-24,9 -58,14 -105,14l-16 -307c-13,-166 -26,-277 -41,-330 -14,-53 -39,-96 -74,-129 -35,-32 -92,-53 -172,-62l52 -161 952 12z"/>
  <path fill="black" fill-rule="nonzero" d="M15354 3328c0,24 -3,39 -8,43 -5,5 -19,8 -41,8 -31,0 -48,-3 -53,-8 -5,-5 -8,-24 -10,-55 -4,-70 -10,-125 -17,-165 -7,-41 -26,-70 -56,-88 -30,-19 -77,-30 -141,-36 -63,-5 -131,-8 -203,-8l0 220 3 147 -14 85 -2 55 -12 34 12 43 0 51 21 51c3,65 8,117 13,156 6,39 17,68 31,87 15,19 36,32 64,38 28,6 65,9 110,9 22,0 36,3 40,10 5,7 7,27 7,62 0,45 -2,73 -4,83 -3,10 -10,15 -20,15l-32 0 -92 -4c-284,-21 -452,-17 -501,13 -49,30 -96,55 -141,75 -44,21 -81,48 -111,83l-16 0c-16,0 -25,-4 -29,-12 -4,-7 -6,-33 -6,-77 0,-29 2,-48 6,-57 4,-8 12,-16 26,-20 51,-49 89,-81 112,-93 24,-14 54,-55 91,-127 38,-72 60,-171 70,-300l3 -164 18 -60 -15 -266 15 -846 12 -63 27 -6 -18 -74 -33 -37c-6,-187 -14,-304 -24,-350 -11,-47 -27,-77 -48,-91 -22,-13 -51,-21 -87,-24 -33,-3 -51,-6 -57,-9 -6,-4 -6,-21 -1,-50 5,-29 9,-48 12,-56 3,-9 10,-27 21,-55l22 0c27,0 74,1 142,3 69,2 138,14 207,35 70,21 221,19 455,-5 234,-24 398,-37 492,-37l55 12 59 35 28 -47 187 2c-20,211 -25,343 -15,395 10,52 35,187 76,403l-136 89c-47,-104 -93,-196 -138,-275 -44,-79 -86,-153 -124,-221 -38,-68 -91,-119 -158,-154 -316,-1 -487,-1 -510,0 -24,1 -41,4 -52,8 -12,4 -19,11 -24,21 -5,9 -8,23 -10,41 -3,16 -5,72 -6,169 -1,97 -1,293 2,588l0 198 0 53 45 0c26,0 44,-1 54,-2 11,-1 31,-4 62,-8 30,-4 58,-8 84,-12 25,-3 46,-9 61,-16 49,-16 81,-52 96,-109 4,-18 6,-34 7,-47 1,-12 4,-49 8,-108 3,-21 7,-36 13,-45 6,-9 17,-14 34,-14 25,0 41,2 48,5 8,4 11,18 11,42 0,8 0,39 0,93l-3 287 -25 34 6 43 6 30 16 28 -12 143 15 97 0 77z"/>
  <path fill="black" fill-rule="nonzero" d="M17939 1329c-8,166 -8,294 -1,384 7,90 16,166 25,228 9,62 23,110 42,145l-136 91c-4,-86 -18,-168 -41,-247 -24,-78 -55,-143 -95,-195 -40,-52 -84,-91 -133,-117 -48,-26 -103,-34 -164,-21 -61,12 -135,32 -223,58 -88,26 -142,60 -163,103 -21,43 -55,64 -101,64l6 123c-51,94 -89,183 -113,266 -5,18 -13,35 -22,49 -5,68 -12,132 -19,190 -18,135 -22,268 -13,398 9,131 22,252 38,363 16,111 47,218 94,321 47,104 112,196 197,278 85,82 172,134 263,156 91,22 154,27 191,15 37,-13 59,-46 66,-100 4,-9 7,-22 10,-37 3,-16 7,-108 12,-277l59 -127 -16 -135 18 -47 -50 -32 -9 -32c-11,-112 -22,-179 -34,-200 -4,-8 -14,-17 -29,-26 -134,-35 -201,-61 -201,-77l0 -85c8,-25 23,-37 44,-37l221 18c119,26 250,22 392,-14l22 231 -50 93c-4,127 -6,247 -6,361 0,106 -9,227 -26,364 -17,137 -84,232 -201,286 -117,54 -248,81 -395,81 -131,0 -230,-18 -296,-53 -67,-35 -144,-87 -231,-156l-75 -113c-50,-16 -105,-70 -164,-164 -59,-93 -105,-185 -139,-274 -33,-89 -56,-181 -69,-274 -13,-93 -53,-187 -123,-284l98 -238c8,-136 32,-262 74,-380 -1,-25 6,-55 19,-91 46,-121 110,-246 191,-371 81,-127 169,-221 264,-282 94,-62 188,-101 283,-115 94,-15 198,-19 312,-12 114,7 246,-12 397,-53z"/>
  <path fill="black" fill-rule="nonzero" d="M3324 6545c0,-309 -1,-517 -2,-624 -2,-107 -8,-185 -20,-233 -11,-48 -28,-77 -51,-87 -22,-9 -53,-15 -93,-15 -31,0 -48,-2 -54,-7 -6,-5 -9,-13 -11,-25 0,-14 0,-35 0,-63 0,-26 1,-43 3,-48 3,-14 7,-23 10,-26 4,-3 17,-5 37,-5l360 9c67,0 133,-1 197,-2 64,-1 123,-3 178,-7l28 0c24,0 35,18 35,53l0 22 0 37c0,23 -3,38 -9,45 -6,7 -21,13 -44,17 -59,12 -101,32 -125,59 -24,27 -40,74 -48,141 -34,88 -44,137 -32,144 13,8 18,44 15,108 -3,64 -16,145 -41,242 14,41 8,85 -18,131 32,62 53,133 63,214 -6,319 -9,517 -8,593 1,76 3,144 4,205 2,61 3,118 4,173 1,58 5,106 11,142 7,37 16,66 30,87 13,21 31,36 54,43 23,8 53,12 89,12 34,0 53,3 58,8 6,5 8,26 8,64 0,44 -1,70 -4,78 -3,8 -10,12 -22,12l-32 0c-17,0 -69,-6 -156,-19 -87,-12 -269,-7 -545,15l-83 4 -15 0c-18,0 -28,-4 -31,-12 -3,-7 -5,-35 -5,-83 0,-30 3,-49 10,-55 7,-6 29,-13 69,-20 32,-7 58,-17 80,-32 22,-14 39,-35 50,-62 12,-27 21,-64 29,-109 8,-46 19,-69 35,-70 -13,-101 -15,-168 -5,-202 10,-35 9,-81 -5,-139 39,-20 56,-43 49,-68 -7,-26 -25,-54 -55,-85l0 -290 -813 83c4,409 8,650 11,726 4,75 12,132 24,169 13,38 31,61 55,70 24,9 57,15 100,17 32,0 52,3 58,8 6,5 10,26 10,64 0,41 -2,66 -5,76 -3,9 -11,14 -25,14l-291 -10 -15 -18 -64 -12 -34 4 -16 -16 -27 24 -6 24 -49 0 -90 -12c-86,9 -186,42 -300,97l-16 0c-17,0 -27,-4 -30,-13 -4,-9 -6,-34 -6,-76 0,-17 16,-39 47,-64 32,-26 54,-42 68,-47 14,-6 29,-12 46,-15 51,-27 89,-60 113,-101 25,-41 41,-101 50,-183 4,-55 7,-200 10,-434 4,-234 5,-541 5,-918 0,-160 -2,-285 -5,-376 -4,-91 -10,-158 -20,-203 -10,-45 -26,-74 -48,-87 -22,-14 -53,-33 -94,-60 -34,-4 -54,-8 -59,-12 -5,-3 -8,-16 -8,-37l0 -38c0,-37 3,-60 7,-69 5,-9 19,-14 44,-14l394 45c57,0 111,-1 161,-2 50,-1 107,-3 170,-7l32 0c21,0 31,18 31,53l0 22 0 37c0,26 -4,41 -11,47 -7,6 -24,11 -51,15 -85,9 -136,76 -154,200 -58,63 -81,106 -68,129 13,22 21,64 26,124 5,61 14,118 27,170 0,86 0,225 0,416l816 -81z"/>
  <path fill="black" fill-rule="nonzero" d="M4447 5377l416 16 91 84 54 -58 195 -12 -19 111c-68,21 -111,55 -130,103 -19,48 -34,158 -46,331l0 390 -25 83 -38 0 -74 131 39 73 0 68 62 44 31 0 0 89 24 846c8,124 39,210 93,258l102 26 0 117c-245,-18 -491,-18 -737,0l-9 -143c61,-11 101,-32 120,-66 19,-34 32,-108 38,-223l-9 -1819c-26,-104 -47,-177 -66,-216 -18,-40 -61,-60 -130,-60l18 -173z"/>
  <path fill="black" fill-rule="nonzero" d="M6330 6008l-27 -55 -3 -220c-1,-95 -3,-156 -5,-183 -3,-27 -6,-47 -10,-58 -8,-35 -24,-57 -49,-68 -24,-11 -67,-18 -127,-24 -22,0 -37,-1 -44,-1 -7,-1 -13,-3 -17,-7 -3,-3 -4,-9 -4,-18l0 -55c0,-28 2,-45 7,-51 5,-6 18,-9 42,-9l96 1 26 60 47 -53 216 -2c69,28 133,38 194,30 60,-7 106,-13 137,-16l44 0c19,0 28,16 28,47l0 64c0,20 -3,32 -9,39 -6,6 -21,11 -46,15 -48,7 -84,24 -107,51 -23,27 -39,70 -46,129 -4,53 -7,127 -9,220 -1,94 -2,236 -2,428l0 143 -28 -8 3 58 -18 26 -21 51 -6 99 21 -34 28 -8 24 32 -6 279 -3 89c-1,57 -6,101 -16,133l-28 45 28 78c-4,38 -10,83 -19,135 -9,52 -23,103 -43,152 -30,74 -64,147 -101,218 -37,72 -79,137 -127,196 -47,60 -99,104 -155,133 -56,29 -103,47 -143,53l-60 12 -62 -6c-41,-3 -85,-21 -130,-55 -45,24 -78,17 -99,-22 -20,-37 -24,-81 -12,-131 13,-50 36,-71 70,-62 34,11 79,25 136,43 56,19 109,28 159,28l50 -85 62 -41c41,-28 74,-143 97,-346 24,-204 33,-361 27,-474l24 -288 -12 -376 27 -331z"/>
  <path fill="black" fill-rule="nonzero" d="M7949 6608c0,95 -1,216 -3,363 3,69 -15,160 -53,272 40,74 63,133 67,175 4,43 11,76 22,99 10,24 26,40 47,49 21,9 48,16 80,18 34,2 53,7 59,13 6,5 9,26 9,62 0,39 -2,62 -5,71 -3,9 -11,14 -24,14 -200,-8 -454,43 -763,152l-16 0c-16,0 -26,-3 -30,-11 -4,-7 -6,-33 -6,-78 0,-29 2,-47 6,-53 4,-7 13,-13 27,-18 35,-5 65,-15 88,-28 23,-14 46,-61 69,-141 23,-80 37,-142 41,-187 5,-44 8,-101 8,-171l0 -91 0 -51 10 -275 18 -58 -28 -66 3 -575 22 -37 21 -46 21 -7 -5 -70 -29 -37 -27 -8 0 -198c-5,-154 -13,-250 -24,-290 -11,-39 -26,-66 -46,-81 -20,-14 -48,-23 -84,-28 -30,-9 -46,-16 -47,-18 -4,-5 -6,-31 -6,-78 0,-33 3,-53 8,-62 6,-9 19,-13 42,-13l39 0c16,3 51,4 107,4 56,0 134,12 233,34 35,20 69,39 100,60 27,-5 34,-27 22,-66 43,4 76,0 99,-11 24,-12 51,-18 81,-21l33 0c22,0 32,18 32,55 0,54 -3,87 -8,98 -6,12 -23,20 -54,25 -51,5 -87,22 -107,49 -20,28 -33,76 -38,145 -6,49 -10,141 -12,276 -3,136 -4,291 -4,465 26,78 65,97 116,56 52,-41 89,-78 113,-112 34,-46 69,-96 106,-150 37,-53 90,-124 160,-213l78 -41 -21 -74c46,-74 77,-127 93,-160 16,-33 24,-64 24,-91 0,-49 -14,-72 -43,-69 -25,0 -41,-5 -47,-15 -6,-10 -9,-31 -9,-62 0,-43 2,-70 7,-81 5,-12 14,-17 27,-17l14 0c49,7 84,11 105,12 21,1 52,16 92,45 185,-15 300,-34 346,-58l28 0c15,0 25,5 29,17 4,11 7,33 7,66 0,40 -3,62 -8,68 -6,6 -25,16 -58,31 -26,10 -47,20 -65,29 -18,9 -37,24 -59,44 -22,20 -47,46 -77,79 -30,33 -68,78 -114,136 -47,58 -95,115 -144,173 -48,58 -113,170 -192,335 120,296 236,580 348,852l84 204 43 101 -18 74 37 73 25 70 100 37 104 149c137,200 248,314 334,344 86,30 168,35 247,16 80,-20 173,-62 281,-128 49,17 54,103 15,258 -81,30 -142,53 -182,68 -41,15 -126,24 -254,26 -129,3 -225,-16 -288,-56 -63,-41 -140,-103 -229,-187 -90,-85 -196,-220 -317,-407 -121,-186 -205,-325 -250,-416 -45,-91 -89,-181 -131,-268 -42,-87 -78,-158 -105,-212 -28,-55 -50,-119 -67,-191 -48,-68 -75,-107 -80,-119l-199 137z"/>
  <path fill="black" fill-rule="nonzero" d="M10546 5193c0,-39 3,-62 7,-71 5,-9 20,-14 43,-14 6,0 16,0 28,0l24 0 28 8 59 4 67 0 66 0 78 16 119 4 19 18 28 4 43 -6 15 6 12 -24 102 -30 31 0c21,0 31,18 31,53 0,57 -4,91 -10,101 -7,10 -24,17 -51,20 -50,9 -88,26 -112,49 -25,24 -41,69 -50,135 -4,33 -8,178 -13,434l0 365c0,288 1,517 2,687 1,170 3,285 5,348 1,55 3,99 7,130 4,31 11,55 23,74 12,18 28,28 50,32 22,4 50,6 86,6 94,0 205,-6 335,-19 130,-12 209,-30 236,-54 30,-23 57,-131 82,-325 25,-193 45,-346 59,-457 8,-49 19,-73 34,-73 55,41 83,87 83,139 0,22 -2,58 -6,107 -4,49 -9,152 -14,310 -6,157 -12,266 -20,325 -8,60 -16,115 -22,166 -5,33 -9,60 -13,79 -4,20 -7,35 -11,43 -4,9 -8,14 -14,15 -6,1 -14,2 -25,2 -5,0 -10,0 -15,0 -5,0 -15,-17 -31,-51l-55 22 -56 -34 -24 56 -487 -4c-75,0 -149,0 -224,0 -85,-12 -163,-10 -234,6 -70,16 -126,37 -168,62 -41,26 -91,48 -149,66l-31 4c-16,0 -25,-5 -29,-14 -4,-9 -5,-63 -5,-162 0,-26 5,-46 15,-60 11,-14 32,-22 65,-25 32,-3 60,-11 83,-22 23,-12 44,-34 65,-66 21,-32 34,-76 40,-131 -1,-151 -1,-338 0,-561l14 -422 16 -157 38 -28 -18 -55 3 -47 -33 -48 -15 -296c-4,-233 -10,-376 -19,-432 -8,-55 -22,-87 -40,-96 -19,-9 -46,-17 -81,-24 -31,-3 -49,-6 -56,-10 -7,-4 -10,-15 -10,-34l0 -45z"/>
  <path fill="black" fill-rule="nonzero" d="M12472 5000c64,-173 128,-272 193,-297 64,-25 149,-12 254,39 105,53 209,167 310,341 101,175 195,400 279,678l31 151 -71 81 83 113 84 70 -3 105 65 103 -2 105 65 104c85,277 135,440 151,489 68,-202 167,-501 298,-898l100 -299c53,-161 94,-296 124,-403 29,-106 53,-206 71,-303 5,-21 10,-35 13,-42 4,-6 11,-9 23,-9l18 0 122 2 5 30 -15 9 37 10 29 -10 5 -26 43 -12 70 0c93,-3 154,-6 181,-10l31 0c12,0 19,4 23,13 4,9 5,26 5,53 0,33 -1,56 -2,70 -1,14 -2,22 -4,26 -3,5 -10,10 -19,14 -10,4 -30,8 -59,14 -36,8 -65,18 -84,29 -20,11 -34,34 -43,67 -10,34 -16,82 -19,145 -3,63 -16,127 -38,191 23,74 23,146 0,216l34 125 3 305 -10 545 -11 124 12 78 -31 142c33,76 51,137 56,183 5,47 14,83 28,108 14,25 32,43 55,53 23,9 54,16 92,19 28,0 44,2 48,7 4,5 7,27 7,68 0,39 -2,64 -5,73 -3,9 -10,14 -19,14l-50 0c-21,0 -45,-1 -75,-2 -29,-1 -62,-9 -101,-22 -39,-14 -76,-20 -112,-20 -31,24 -62,21 -95,-9 -18,30 -43,30 -75,0 -62,-8 -104,-2 -126,19 -22,20 -51,31 -85,32 -34,1 -61,2 -81,2l-19 0c-16,0 -25,-3 -28,-10 -3,-7 -5,-34 -5,-81 0,-32 3,-51 7,-60 4,-8 13,-13 26,-16 56,-5 100,-14 132,-25 31,-11 54,-37 68,-77 14,-41 25,-140 33,-298l0 -212 0 -146 0 -407 12 -68 36 -33 -22 -81 -27 -36 0 -77 5 -323 4 -105 -22 97 -36 161 -74 235 -124 375 -109 315c-58,169 -107,318 -148,446 -40,129 -67,207 -80,234 -13,27 -55,32 -126,14 -71,-18 -113,-43 -124,-76 -12,-32 -34,-102 -65,-209 -32,-107 -73,-245 -122,-413 -50,-168 -116,-384 -198,-649l-33 -204 -47 -66 -9 -141 -37 -95 -24 -89 5 93 -14 63 14 53 -14 99 -1 42 1 35 14 24 -27 72 24 51 2 155 -11 176 -19 248c18,198 28,352 31,463 3,111 13,194 29,249 17,55 41,89 74,103 32,14 77,21 133,21 30,3 45,22 45,58 0,50 -2,81 -6,94 -4,13 -13,19 -27,19l-34 0c-19,0 -41,-1 -68,-2 -26,-1 -53,-3 -81,-4 -28,-1 -46,-29 -54,-83 -74,14 -111,30 -112,47 -10,22 -32,6 -67,-49 -35,55 -69,84 -102,85 -34,1 -65,3 -94,4 -29,1 -51,2 -66,2 -8,4 -16,6 -25,6 -8,0 -14,0 -18,0 -11,0 -17,-5 -20,-15 -3,-10 -4,-38 -4,-83 0,-32 2,-51 6,-58 4,-7 13,-12 28,-14 71,-12 120,-30 148,-55 28,-24 48,-66 61,-124 9,-32 16,-70 23,-114 7,-44 23,-152 49,-324l-12 -440 7 -365 8 -333 3 -76c2,-89 3,-150 3,-182 0,-65 1,-120 2,-166 2,-45 -10,-106 -34,-182 -24,-76 -85,-154 -181,-232 -97,-78 -190,-95 -279,-51z"/>
  <path fill="black" fill-rule="nonzero" d="M15748 4990c68,-115 138,-187 211,-215 73,-28 169,-17 288,35 119,51 241,159 367,323 126,164 249,377 368,638 120,262 289,668 507,1219l21 -1286c-14,-168 -34,-267 -60,-296 -27,-29 -83,-62 -170,-99l0 -141 106 20 136 32c85,-35 249,-51 495,-51l-12 99c-72,19 -124,45 -157,78 -33,32 -62,128 -89,285l-9 2085c67,213 125,364 174,453 49,89 97,138 143,147 46,8 86,-8 119,-50 33,-41 61,-55 85,-41 24,15 31,47 20,98 -11,51 -34,95 -70,133 -36,37 -99,51 -189,41 -90,-11 -172,-46 -248,-106 -76,-59 -173,-175 -292,-346 -119,-172 -169,-300 -151,-383l59 -71 -18 -99 -62 16 -18 41 -22 28 -49 0 0 -41c-193,-476 -425,-1040 -695,-1693l27 1538c14,158 29,246 46,265 17,20 71,34 164,43l-8 139 -658 0 9 -97c61,-37 103,-65 126,-85 23,-19 41,-112 54,-280l22 -955 -28 -513 -2 -490c-41,-129 -92,-217 -152,-263 -60,-47 -115,-86 -165,-119 -49,-33 -124,-44 -223,-34z"/>
  <path fill="black" fill-rule="nonzero" d="M2624 9109c105,0 257,14 458,42l0 18c-128,108 -263,163 -405,163 -161,37 -242,68 -242,93 -55,30 -105,113 -151,246 -88,197 -132,464 -132,801l0 35c0,349 48,605 145,767 100,222 202,351 306,387 32,20 66,33 99,41 34,8 78,-1 132,-26 54,-25 122,-75 205,-151 13,-47 37,-71 74,-71l2 0 0 -72 -5 -30c94,-175 141,-398 141,-670l5 -103c0,-304 -45,-539 -136,-706 -95,-197 -202,-309 -319,-337l-251 -76c-45,9 -68,-4 -68,-40 0,-35 84,-53 251,-53 191,0 350,64 477,191l4 34 0 12 -9 20c91,24 136,53 136,89 93,154 151,279 174,379 22,102 43,232 65,391l80 219c-63,107 -97,192 -103,256 -31,162 -108,347 -229,556 -142,231 -334,359 -575,383 -114,0 -246,-37 -395,-111 -108,-80 -162,-143 -162,-189l0 -6 9 -39c-87,-22 -130,-50 -130,-86 -131,-231 -202,-436 -213,-615l-28 -282 -84 -192c60,-150 105,-294 136,-435 72,-225 156,-407 254,-548 127,-190 289,-285 486,-285z"/>
  <path fill="black" fill-rule="nonzero" d="M3690 9137l9 0c49,60 212,106 489,137l700 -105 242 0c241,0 447,110 617,331 72,120 122,227 152,321 54,33 81,57 81,72l-81 186c0,237 -94,449 -281,638 -181,118 -328,177 -441,177l-57 0 -257 -22 -9 331 0 12 -22 40 16 73c-32,8 -49,18 -49,32l9 49 8 0 32 -30 15 0c17,262 68,392 154,392l40 -10 49 0 15 111 -78 10 -290 0c-98,0 -246,35 -443,105 -32,-58 -47,-97 -47,-115l9 0c155,-72 232,-158 232,-258l8 -135 0 -1588c-68,-86 -126,-137 -176,-155l0 -51c11,-28 27,-42 49,-42l201 22 47 0 433 -22 10 72c-90,0 -157,83 -201,248 -17,45 -25,93 -25,145l0 248c-16,25 -24,49 -24,73 20,9 30,33 30,72l0 9c-21,30 -31,58 -31,83 21,0 31,31 31,93l9 10 11 0 246 10c150,0 271,-114 363,-342 21,-139 31,-252 31,-339 -26,-206 -63,-325 -112,-354l-9 -20 57 -4 35 -37 -9 7 -21 -66 -46 -27 -15 45 -41 -4 -9 26 -8 0c-113,-142 -244,-213 -394,-213 0,-9 -40,-16 -121,-20 -172,0 -434,66 -787,196l-49 0c-127,-20 -190,-51 -190,-93l-106 -322z"/>
  <path fill="black" fill-rule="nonzero" d="M7354 9133c100,-14 255,-7 467,18l0 12c-20,39 -90,89 -211,149 -279,41 -419,81 -419,120 -40,18 -112,144 -216,381 -53,191 -80,423 -80,695 0,357 52,628 155,812 80,197 193,328 340,392l75 24c72,0 176,-55 311,-165 16,-43 38,-65 65,-65l11 0 0 -111c95,-181 143,-472 143,-872 0,-275 -61,-518 -184,-728 -56,-124 -154,-212 -292,-263 -182,-45 -273,-74 -273,-87l0 -24c0,-33 65,-50 195,-50l18 0c213,0 378,68 494,202l0 24 -6 28c92,29 138,64 138,104 111,177 174,324 189,442 31,244 64,392 97,444l34 99c-58,78 -100,190 -125,337 -45,166 -135,352 -269,559l-24 30 0 4c6,0 35,55 86,164 110,200 201,318 272,354l89 36 287 -77c31,9 47,19 47,30l0 28c-79,148 -203,222 -373,222 -226,0 -439,-164 -638,-493l-48 -66 2 0c-60,41 -134,62 -222,62l-22 0c-128,0 -265,-44 -412,-131 -86,-70 -128,-124 -128,-162l10 -49c-76,0 -126,-43 -153,-127 -130,-231 -195,-438 -195,-620 -20,-190 -36,-285 -50,-285l-59 -148c53,-134 105,-300 155,-498 174,-499 415,-749 723,-749z"/>
  <path fill="black" fill-rule="nonzero" d="M10012 9143c168,33 301,97 399,194 41,53 61,98 61,135l50 -9 328 527 0 9c-23,53 -41,174 -56,363 -39,174 -121,322 -245,444l-21 39c16,0 51,53 105,159l0 20 -7 72 84 83 21 -42 7 0c121,158 214,323 279,496 57,193 164,405 322,636 89,75 152,113 187,113l273 -70 13 0 35 10 0 40c-81,145 -195,218 -342,218 -189,11 -359,-90 -509,-301 -199,-277 -329,-492 -391,-646l-312 -628 -154 9 -173 0 -41 -9 -21 9 0 381c0,14 -17,24 -50,32l0 41c0,20 14,30 41,30 0,147 35,247 105,300l90 9 0 104 -286 -30c-80,0 -221,51 -425,152l0 -12 -13 -121c104,0 167,-106 187,-319l0 -1013 8 -454c0,-124 -44,-186 -133,-186l-13 0c-12,-21 -15,-52 -9,-93 6,-41 16,-61 30,-61 289,26 497,30 622,12l0 133 -71 0c-65,70 -97,197 -97,381l0 124 -6 363 21 9c267,0 414,-53 440,-160 78,-68 116,-210 116,-428 0,-311 -63,-522 -189,-634 -104,-97 -238,-149 -400,-157 -235,8 -509,58 -821,149l-56 10c-107,-26 -161,-52 -161,-80l-98 -333 14 0c106,82 246,123 419,123 88,0 224,-26 407,-78 182,-52 329,-74 437,-64z"/>
  <path fill="black" fill-rule="nonzero" d="M13023 9122c17,221 63,464 139,729l-130 10c-30,-106 -86,-196 -169,-270 -83,-74 -164,-127 -244,-160 -80,-33 -157,-39 -232,-19 -75,21 -131,70 -169,147 -38,77 -40,153 -5,227 34,74 49,127 44,157l-8 47 21 16 -2 24 13 16 -3 20 22 28 -2 -12 7 -2 12 -6 7 20 6 -12 13 6 -4 -12 9 -18 8 0 9 -14 6 -4 9 -7 26 -18 71 60c47,40 136,97 265,170 130,74 234,175 314,303 80,129 165,308 253,541l-68 185c-45,147 -103,271 -174,369 -71,97 -161,179 -270,244 -109,65 -214,101 -314,111 -100,9 -189,3 -267,-17 -78,-20 -163,-76 -254,-166 -92,-91 -152,-181 -180,-271 -28,-91 -30,-183 -5,-279 26,-95 69,-177 129,-247 60,-69 119,-114 176,-135 58,-22 107,-27 149,-18 11,114 26,219 46,317 -91,-24 -160,-27 -208,-10 -48,18 -82,67 -99,149 -18,82 -4,164 40,248 44,83 92,143 144,179 51,36 115,60 193,73 78,14 154,7 229,-18 75,-25 144,-77 207,-156 63,-78 103,-163 121,-253l49 -69 -18 -99c-15,-7 -29,-48 -44,-120 -26,-104 -152,-237 -376,-400 -235,-132 -391,-242 -469,-327 -77,-86 -132,-175 -163,-265 -31,-90 -59,-170 -84,-241l68 -113c20,-68 50,-146 92,-233 41,-87 93,-159 155,-217 62,-58 120,-95 175,-111 54,-16 126,-24 215,-24 89,0 164,4 227,12 63,8 128,-1 195,-26l99 -36z"/>
  <path fill="black" fill-rule="nonzero" d="M13956 9229c37,-32 76,-31 115,2l55 2 172 3c40,53 267,47 683,-20l168 -4 86 -2 86 -2c11,260 46,529 106,805l-100 101c-43,-153 -95,-277 -155,-373 -60,-95 -113,-156 -159,-185 -46,-28 -103,-39 -170,-29l-2 878 -2 266 -21 200 -55 85 15 177 59 151c15,200 57,342 128,426l100 45 0 143c-144,3 -270,-5 -377,-24 -108,-20 -180,-18 -216,3 -36,22 -125,34 -268,37l13 -131c67,-49 139,-116 216,-200l-8 -1785 31 -97 -25 -186c-149,-9 -243,17 -284,78 -41,62 -81,123 -119,185l-54 44c-2,81 -3,164 -3,250l-106 -16 90 -826z"/>
  <path fill="black" fill-rule="nonzero" d="M16419 9973l16 -154 -95 -152c-3,-61 -7,-100 -11,-117 -4,-17 -9,-35 -15,-51 -9,-29 -28,-57 -58,-85 -30,-27 -70,-43 -120,-50 -13,-3 -22,-31 -28,-85 0,-32 2,-53 6,-66 4,-12 12,-18 25,-18 119,7 196,18 231,35 35,17 116,21 241,12 125,-9 226,-23 302,-43 35,-3 53,18 53,64 0,53 -4,83 -10,91 -7,7 -29,14 -67,18 -83,37 -136,76 -158,117 -23,41 -34,120 -35,238l-6 230 -3 472 -25 175 25 147c-13,139 -20,239 -21,300 -2,60 9,110 30,147 22,37 39,72 51,107 28,116 74,188 137,216 64,28 140,42 229,42 96,0 180,-28 254,-83 74,-55 124,-131 153,-227 21,-62 35,-133 42,-210 7,-78 11,-191 11,-339l-8 -1002c-8,-85 -23,-143 -46,-175 -23,-32 -69,-79 -140,-143 -29,-4 -56,-11 -83,-22 -4,-5 6,-54 29,-147l20 0c13,3 76,24 189,66l111 -6c62,13 122,27 181,41 47,-31 84,-49 111,-53 14,0 20,28 18,83 -2,55 -18,87 -47,93 -89,18 -136,248 -140,689l-79 191 57 133 12 269c-7,150 -12,249 -15,298 -4,49 -9,99 -17,147 -33,239 -111,421 -233,547 -122,125 -281,188 -477,188 -162,0 -293,-56 -393,-168 -123,-66 -203,-180 -239,-342 -8,-30 -14,-59 -19,-85 -4,-26 -8,-57 -12,-90 -4,-34 -6,-76 -8,-127 -2,-51 -4,-159 -5,-325l-3 -371 9 -372 70 -48z"/>
  <path fill="black" fill-rule="nonzero" d="M3586 15615l87 359c9,-4 104,-319 285,-944l78 -164 61 -188 19 -177c34,-118 51,-186 51,-206l0 -32 0 -29 0 -30c0,-83 -70,-125 -210,-125l-27 0c-11,-5 -16,-21 -16,-47l0 -90c0,-30 11,-45 33,-45 139,20 269,27 390,20l6 8 -5 26 89 51 24 -44 46 -41 103 0c12,5 18,20 18,45l0 48c0,51 -19,77 -56,77 -45,18 -92,81 -142,188l-233 660c-155,441 -268,771 -337,991 -69,221 -93,362 -74,424 20,63 68,96 143,99 26,0 38,23 38,70 0,67 -9,101 -27,101l-220 -12 -165 -36 -35 12 -40 0 -18 28 -62 -82c-22,11 -31,34 -28,70l-102 12 -6 8 -6 0 0 -8 -6 8 -71 0c-26,0 -39,-31 -39,-93l0 -24c0,-36 22,-53 65,-53 84,0 134,-40 151,-119 0,-64 -63,-323 -189,-777l30 -135 -46 -66 -9 -113 -56 12c-129,-459 -226,-785 -291,-977 -41,-169 -88,-282 -140,-339 -52,-57 -98,-105 -138,-145 -39,-39 -103,-66 -192,-77 71,-129 140,-201 207,-218 67,-18 152,9 253,81 102,71 202,200 300,386 98,185 267,736 506,1652z"/>
  <path fill="black" fill-rule="nonzero" d="M5902 14599l96 397 -37 214 31 115 62 -44 135 510 12 0c181,-565 288,-919 320,-1063l49 -214 0 -4 0 -2 -44 -202c-30,-135 -83,-202 -161,-202 -16,-5 -24,-21 -24,-47l0 -39c0,-53 8,-81 24,-81l545 20 62 30 24 20 25 -26 22 -43 24 0c26,0 38,15 38,45l0 74c0,31 -18,47 -53,47 -86,9 -129,44 -129,105l0 24 0 50c0,32 33,188 99,469l81 309 16 162 164 559 13 8 213 -706c141,-469 211,-731 211,-787l0 -83c-7,-47 -25,-76 -53,-84 -28,-9 -50,-18 -67,-27 -9,0 -15,-29 -19,-87l6 -67 33 -8 62 0 62 14 47 9 34 -20 108 8c39,-8 80,-12 121,-12l62 0 12 16 0 123c0,11 -16,20 -48,28 -62,47 -99,132 -111,254l-136 414 -136 412 -87 250 -89 248 -108 496 5 7c57,175 111,262 161,262 10,4 15,20 15,46l0 48c0,38 -7,60 -21,68l-430 -24 -106 -30 -108 54 0 -8 -6 8 -56 0c-27,0 -41,-26 -41,-77l8 -8 -8 -8 8 -7 -8 0c0,-44 18,-66 53,-66 90,-10 134,-46 134,-108l0 -24c0,-75 -104,-497 -311,-1264l0 -12c0,-7 -2,-10 -6,-10l-8 0 -176 505c-116,336 -185,550 -207,643 46,164 103,246 170,246 13,20 19,37 19,53l0 45c0,38 -8,60 -25,68l-221 -24 -205 40 -133 -20 -83 -4 -5 8 -54 4c-30,0 -44,-26 -44,-78l7 -6 -7 -7 7 -8 -7 0c0,-47 19,-70 56,-70 88,-9 132,-45 132,-107l0 -24c0,-76 -85,-449 -254,-1115l-125 -748c-52,-90 -92,-192 -119,-308 -71,-114 -132,-198 -182,-255 -51,-57 -96,-109 -136,-155 -40,-46 -106,-74 -199,-85 77,-122 149,-190 217,-205 68,-16 153,16 255,95 102,79 201,213 296,404 95,190 174,417 238,682z"/>
  <path fill="black" fill-rule="nonzero" d="M10107 16189l-132 -373c-56,-53 -116,-162 -180,-329 -125,200 -216,351 -273,454 -57,103 -98,181 -124,233 -25,52 -41,88 -46,108 -6,20 -8,40 -8,62 0,41 12,66 35,77 23,11 72,18 147,24 16,0 25,3 28,11 3,7 5,25 5,53 0,47 -2,77 -5,88 -3,12 -12,17 -28,17l-51 0c-9,0 -27,-1 -55,-2 -28,-1 -49,-5 -64,-10 -14,-5 -55,-21 -122,-47 -28,39 -52,55 -72,51 -8,-25 -16,-29 -24,-12 -6,7 -16,12 -28,12 -14,-25 -31,-37 -51,-35 -21,1 -49,14 -86,39l-44 0c-46,0 -71,-3 -73,-8 -5,-2 -7,-28 -7,-75 0,-39 3,-64 8,-72 5,-8 25,-20 58,-32 12,-7 26,-15 41,-24 16,-9 35,-27 57,-53 22,-26 50,-65 84,-114 33,-49 76,-115 128,-196 52,-81 114,-181 186,-298 73,-118 176,-275 311,-474 -100,-283 -244,-556 -430,-821l5 -137 0 -87 -37 -34 -38 -53 -28 4c-48,-8 -109,-51 -181,-131 -73,-79 -134,-122 -183,-127 -49,-5 -146,3 -291,24 67,-170 131,-269 192,-294 61,-26 148,-22 259,11 112,33 230,122 355,266 125,144 243,313 354,505 111,193 193,374 245,543 11,-20 21,-37 30,-51 9,-15 21,-36 36,-63 15,-27 36,-65 64,-114 28,-49 67,-118 117,-206 52,-91 88,-159 108,-203 20,-45 30,-78 30,-102 0,-26 -11,-45 -32,-55 -21,-9 -60,-16 -116,-18 -17,0 -27,-7 -32,-22 -5,-14 -7,-41 -7,-81 0,-29 2,-48 7,-56 5,-9 15,-13 32,-13l32 0 92 0 15 67 40 -12 50 39 25 -91c50,13 101,16 152,7 51,-7 99,-14 143,-20l27 0c18,0 28,5 31,15 3,10 5,39 5,86 0,26 -3,44 -9,53 -6,9 -24,22 -53,41 -17,3 -41,22 -73,57 -32,35 -76,91 -130,167 -54,76 -121,177 -201,302 -80,125 -176,277 -289,455 150,353 285,699 407,1038l141 221c72,161 133,281 183,361 50,80 76,121 77,122 1,1 21,2 60,3 39,1 73,-20 100,-65 28,-45 52,-62 73,-49 20,12 28,44 24,94 -4,50 -20,97 -48,142 -28,44 -82,69 -162,74 -81,5 -156,-16 -228,-63 -72,-48 -147,-118 -224,-211 -78,-93 -188,-291 -332,-592z"/>
  <path fill="black" fill-rule="nonzero" d="M11788 13527c250,0 484,154 704,463 51,62 140,254 266,576 126,321 215,526 265,615 294,-596 441,-929 441,-998 0,-48 -62,-78 -187,-91l-7 -10 0 -121c0,-10 10,-20 31,-30l239 10 375 10 15 30 0 101c-2,14 -49,44 -142,91 -166,248 -386,651 -660,1209l-15 81 0 141c0,524 22,787 67,787 0,29 70,49 211,62l7 10 0 30c0,74 -8,111 -23,111 -311,0 -530,33 -658,101l-263 111c-30,-8 -44,-18 -44,-32l0 -99c0,-23 40,-43 119,-62 90,-66 135,-154 135,-262 21,0 33,-256 38,-767l0 -49c0,-61 -53,-208 -159,-442l2 -301 -106 -60 -22 -117 -139 -119c-116,-300 -232,-488 -347,-565 -113,-104 -218,-152 -314,-143l-22 0 -53 10c9,-114 69,-202 179,-266l70 -16z"/>
  <path fill="black" fill-rule="nonzero" d="M16458 14048c0,16 -3,30 -9,41 -5,12 -19,39 -40,83l-76 143 -442 902 -132 89 -86 137 16 193c-164,379 -265,613 -303,702 141,-3 260,-6 357,-10 97,-4 178,-12 244,-22 66,-12 118,-27 158,-48 40,-20 71,-49 95,-88 24,-39 43,-85 57,-141 15,-55 30,-124 46,-206 5,-33 11,-53 19,-62 7,-7 20,-12 37,-12 32,0 53,3 63,8 11,5 16,18 16,39 0,20 -2,50 -7,90 -5,41 -10,87 -16,141 -7,54 -13,109 -20,165 -7,56 -14,104 -21,145 -9,101 -10,179 -2,235 8,55 9,91 4,105 -5,15 -11,23 -17,26 -7,3 -15,4 -26,4l-100 -77 -397 -62 -146 -43 -96 105c-306,-25 -543,-25 -711,0l-16 0c-22,0 -34,-3 -38,-8 -3,-5 -5,-24 -5,-55 0,-42 1,-68 3,-78 2,-9 8,-20 16,-32 53,-144 116,-290 187,-438 72,-147 192,-394 362,-743l304 -577c128,-330 196,-505 205,-526 -127,4 -214,6 -261,6 -47,0 -91,1 -132,4 -41,3 -88,16 -143,40 -54,24 -121,72 -202,146 -81,74 -135,162 -161,264l2 1 -123 -12c59,-173 95,-304 106,-394 12,-89 23,-213 34,-370 131,45 225,70 283,76 58,6 118,35 179,86 151,-49 261,-73 332,-73 96,22 179,41 249,55 69,14 167,-7 293,-64 25,0 40,4 46,12 6,7 9,28 9,60l0 39z"/>
  <path fill="black" fill-rule="nonzero" d="M3333 18067l-102 47 -56 143 -74 236c-13,128 -16,235 -10,323 6,87 3,234 -10,440 7,222 16,428 28,618l65 214c42,101 73,171 92,207 19,37 52,63 102,78 55,-16 91,-30 106,-43 16,-13 31,-39 46,-77 15,-39 32,-98 49,-178l37 -190 10 -119 28 -214 -11 -311 -18 -333 -18 -345 -38 -273 -37 -131c-74,-62 -138,-93 -191,-93zm337 -72c91,85 159,171 201,260 43,89 82,198 116,329l36 266 -27 162 0 160 27 117 0 311 -36 230 -94 290c-39,100 -71,173 -94,219 -23,46 -62,82 -117,109 -54,27 -139,64 -253,110 -81,-8 -157,-25 -228,-51 -71,-26 -130,-65 -176,-115 -46,-50 -89,-126 -128,-226l-9 -70 -9 -58 -86 -103 -51 -105 -34 -415c-18,-177 -22,-340 -13,-490 9,-150 26,-269 52,-357 25,-89 64,-191 115,-308l121 -172c57,-62 152,-124 284,-185 63,-32 120,-39 172,-24 52,16 129,54 233,115z"/>
  <path fill="black" fill-rule="nonzero" d="M5913 18234l328 -421 92 86 54 -58 195 -14 -19 111c0,21 3,55 9,103 6,48 3,158 -9,331l0 391 -25 83 -38 0 -74 131 39 74 0 67 62 44 31 0 0 89 24 847c8,124 39,210 93,258l102 26 0 117c-245,-18 -491,-18 -737,0l-9 -143c61,-11 101,-33 120,-66 19,-34 32,-108 38,-223l-9 -1465c3,-198 -12,-293 -44,-286 -32,7 -112,37 -239,89l18 -173z"/>
  <path fill="black" fill-rule="nonzero" d="M9472 17850l6 8 6 0 21 -12 6 8 5 -7 55 -5 48 4 6 -8 6 0c96,1 207,74 332,218 66,102 121,209 167,321 15,262 -21,466 -108,613 -97,135 -204,249 -319,343 -81,60 -159,136 -234,226 -147,141 -218,260 -213,359 -21,62 -33,124 -37,186 14,41 51,59 112,54l285 41 124 28 57 -28 67 -6c97,18 163,-15 198,-97 39,-73 77,-127 112,-161l5 -154c57,7 88,14 94,24 -41,434 -67,662 -77,684l-25 10 -28 2c-22,-23 -103,-32 -245,-28 -1,-22 -69,-32 -204,-30 -157,-9 -304,3 -441,38l-103 0 -213 16c-9,1 -15,-9 -18,-30 -4,-90 -17,-223 -40,-400l45 -52 8 -87 -6 0c-15,-7 -26,-20 -34,-38 -5,-118 60,-316 197,-595 81,-137 176,-248 286,-334 102,-82 184,-162 245,-242l22 -2c20,9 39,29 57,60l6 0 27 -9 0 7c16,-1 27,-37 34,-107l11 -16 -14 -55 44 -218 3 -72c-5,-49 -33,-105 -84,-168 -54,-49 -119,-70 -195,-63l-16 2 -21 9 -7 -7c-81,18 -187,95 -317,231 -89,111 -139,216 -149,315l-37 26 -22 -6 -6 8c-36,-1 -54,-7 -54,-18 -31,-297 68,-535 295,-715l276 -71z"/>
  <path fill="black" fill-rule="nonzero" d="M11840 20258l74 -99 83 -3 50 47 77 38 90 12 90 14 193 -99 168 -204 50 -155 -25 -64c-31,-325 -90,-487 -177,-487 -30,0 -77,20 -140,61l-35 0c-25,0 -57,-18 -96,-53l12 -168 0 -22 15 0c65,0 161,-50 289,-150 133,-155 200,-281 200,-379l34 -60c-23,-66 -30,-129 -21,-188 -86,-148 -162,-226 -230,-234 -75,0 -199,49 -370,147l-79 24 -59 38 -65 -160 36 -99 57 -62 57 -60 130 -77 255 -53c100,8 199,26 297,53 20,0 29,20 29,60l44 0c0,21 5,32 15,32l8 9c38,0 87,81 145,242l35 115 24 131 -24 244c-52,97 -97,179 -135,247 -38,68 -99,139 -183,213l0 40c24,0 71,18 143,56 72,38 131,142 175,312l27 123 25 99 -19 99 -22 135 -87 260c-110,166 -316,269 -617,307l-167 0 -74 -38 -99 -14 -148 -74 -55 -154z"/>
  <path fill="black" fill-rule="nonzero" d="M15941 17789l11 0 0 8 6 30 80 30 128 -8 17 0 38 -8 6 8 -16 119 10 154 -9 371 0 273c-8,63 -24,95 -49,95 -18,0 -45,45 -81,135 22,43 32,72 32,87l0 53 92 44 0 251c0,9 5,14 15,14 97,0 179,-7 246,-20l6 8 0 118c0,51 -34,129 -102,235l-157 0 6 67c0,308 27,472 81,495 0,12 34,26 102,43l5 8 0 97 -5 7 0 9 -345 -14 -345 14c-8,-9 -13,-56 -16,-141 66,-20 105,-44 118,-73 22,-55 32,-147 32,-273l0 -252c-120,0 -244,-8 -372,-24 -56,16 -226,25 -509,28l-6 -6 0 -60c0,-31 120,-273 360,-725 153,-310 278,-616 376,-917 109,-147 190,-241 242,-281zm-580 1620c46,24 191,36 435,36l38 0 0 -517c0,-276 -11,-414 -32,-414l-17 -73 -103 273c-90,214 -197,445 -321,695z"/>
  <path fill="black" fill-rule="nonzero" d="M3150 21866l79 30 47 0c53,0 132,14 236,43l36 0c171,-29 284,-43 338,-43 54,0 111,-29 172,-87 9,0 16,128 22,384l34 361 0 6 -68 81 -11 0c-5,0 -31,-75 -78,-224 -74,-158 -149,-218 -226,-179l-11 -16 -19 0 -93 -36 -24 28 -25 -7 -9 0 -16 16 -59 0c-97,0 -161,37 -192,109l21 36 0 7c-21,22 -31,55 -31,104l-9 22 0 28c12,29 48,75 108,139 13,3 19,9 19,22l-3 6 0 8c6,0 11,16 13,49l11 0 0 7 5 -7 6 0 29 7c0,-22 20,-41 59,-57 48,81 137,165 266,253 90,97 161,204 211,321 67,162 108,287 124,373 16,86 4,185 -38,297 -41,112 -93,207 -155,286 -161,200 -340,299 -536,299 -212,0 -374,-99 -487,-298 -69,-89 -104,-196 -104,-317 58,-94 117,-133 176,-115l2 67 38 34 19 70c13,46 39,93 80,141l61 71c80,95 128,143 148,145l28 0 33 0 31 0c153,0 262,-91 327,-271l7 -36c4,-22 15,-43 31,-63l25 -30c0,-47 -12,-104 -36,-175l0 -109c0,-71 -45,-146 -137,-225l-138 -117 -177 -115c-119,-75 -212,-120 -278,-137 -67,-16 -100,-37 -100,-62 108,-740 167,-1111 177,-1111l40 -14z"/>
  <path fill="black" fill-rule="nonzero" d="M7360 22005c-69,-20 -135,-22 -198,-6 -63,30 -109,54 -139,70 -80,85 -131,142 -154,173l-42 58c-12,22 -35,82 -70,178 -18,55 -35,108 -52,161l-69 139 -25 105 -27 115 0 173 -25 105 -9 196 -17 127c23,76 31,150 25,220l9 137 51 60 43 127c29,47 48,77 60,93 11,15 43,30 95,45l59 12 78 -45c29,-25 54,-68 78,-129 23,-60 40,-117 51,-170l0 -69 18 -93 0 -34 18 -67 0 -46 -9 -114c-12,-24 -26,-63 -43,-117l-18 -91 -60 -70 -60 -58 -8 -35c-40,-7 -70,-10 -87,-10l-59 34c-34,16 -63,27 -87,34l-51 55 0 -58 9 -46 9 -60 18 -45 59 -81 60 -58 86 -58c73,-21 148,-17 224,12l18 12 25 0c59,4 125,35 198,91 34,85 66,147 94,186l43 137 18 163c6,76 9,136 9,178 0,43 -2,72 -5,87 -3,16 -7,58 -13,127l-60 162c-123,262 -234,404 -332,426l-37 24 -26 22 -103 36 -128 14 -86 11 -189 -82 -173 -139 -68 -105 -51 -104 -70 -311 15 -33 11 -18 27 4 -18 -81c-5,-15 -23,-62 -56,-143l-3 -190c5,-78 9,-142 12,-191 3,-49 22,-112 56,-189l27 -69 7 -36 0 -45 0 -24 9 -33 52 -70 9 -12 0 -82 27 -45 68 -127 9 -36 43 -58c63,-69 103,-115 120,-138 17,-23 43,-53 78,-92l94 -58 130 -127 154 -82c120,-43 243,-51 370,-24l52 42 -9 73 18 81 -51 26 -52 -24z"/>
  <path fill="black" fill-rule="nonzero" d="M9365 22544l-51 12 -94 -93c40,-222 63,-395 69,-519l-18 -139 9 -70c91,62 173,91 245,87 72,-4 159,-10 263,-18l138 47 34 12 103 10 9 0 34 -10 95 -35c12,-8 57,-8 137,0l60 12 43 -24 70 -12 52 0c-6,78 -9,163 -9,255l-9 137 -34 116 0 58c-12,123 -38,212 -78,266 -143,276 -248,453 -317,531l0 79 -25 117 -35 70 -25 22 -86 220 -103 151 -44 173c-33,92 -73,166 -119,220l-52 160 -70 115 0 103 -153 12 -27 0 -60 0 -68 -12c17,-145 83,-337 198,-574 45,-93 80,-162 103,-208l-9 -93c80,-131 154,-288 223,-474l78 -196c34,-76 126,-250 275,-521l155 -302c11,-38 -26,-72 -112,-103l-103 58 -52 -24 -25 -22 -34 0 -44 -24 -94 -12 -17 58 -69 0 -25 0c-69,-30 -152,43 -249,220l-79 164z"/>
  <path fill="black" fill-rule="nonzero" d="M12597 22791c16,-51 32,-103 47,-155l24 -79 -3 -81 -7 -45 -12 -115 -6 -44 -16 -77 0 -60 -60 -69c-70,-33 -122,-50 -156,-50 -42,23 -70,41 -82,54 -33,39 -53,70 -58,90 -6,20 -16,47 -30,80l-12 66 3 83 -6 66 18 55 8 38 -27 55 30 33 34 50 34 45 5 60 68 64 81 73 125 -137zm-174 420l-95 68 -110 162 -44 137 -9 101 2 151c8,95 19,163 32,204 13,41 26,72 37,93 12,22 32,49 63,84l63 61 60 -7c44,-4 74,-9 89,-15 15,-6 31,-12 46,-19 15,-7 44,-31 86,-74 42,-42 63,-115 62,-220l9 -107 8 -105 -36 -117 -6 -66 -64 -107 -90 -115 -56 -73 -46 -36zm-198 -160l-112 -49 -50 -30 -83 -104c-43,-93 -74,-162 -90,-204 -17,-42 -28,-94 -33,-156 -6,-62 -4,-119 6,-173 9,-54 43,-133 101,-236l110 -133 109 -74 193 -53 93 -28 187 28 83 24 44 22 54 30 10 36 22 46 79 60 16 58 49 67 28 200 -28 177c-22,83 -51,140 -87,170 -43,25 -74,74 -92,145l-27 60 -99 121 102 93 100 89 163 216c25,148 36,256 33,322 -4,67 -20,162 -50,285l-131 258 -149 97 -171 43 -125 38c-125,-16 -218,-24 -278,-24 -60,0 -132,-39 -212,-117l-110 -104 21 -79 10 -73 -10 -16 -62 -39 7 -46 -9 -49 -56 -30 22 -185 44 -214 74 -123 110 -111c47,-45 88,-93 123,-143l69 -91z"/>
  <path fill="black" fill-rule="nonzero" d="M15096 24308l16 12 83 58 41 0 49 -24 34 -10c37,-24 71,-44 99,-60l83 -91c22,-24 43,-51 65,-81l41 -58c11,-22 33,-68 67,-139 17,-54 33,-121 49,-200l67 -139 23 -105 27 -115 0 -173 24 -105 9 -196 15 -127 -33 -115 9 -105 -9 -137 -48 -60 -41 -127c-28,-46 -47,-76 -57,-92 -11,-15 -41,-30 -92,-45l-56 -12 -76 45 -16 46 -49 57 -43 117 -15 80 0 69 -18 93 0 34 -16 47 0 45 9 155c11,24 24,63 40,117l18 91 58 70 59 58 6 36c39,6 67,21 84,43l56 -34c33,-16 61,-27 84,-34l40 -5 -8 93 -18 46 -56 81 -57 58 -83 24c-70,21 -142,17 -216,-12l-16 -12 -24 0c-57,-4 -120,-35 -190,-91l-49 -127 -41 -60 -41 -137 -16 -162c-6,-76 -9,-136 -9,-178 0,-43 2,-72 5,-87 3,-16 7,-58 12,-127l59 -162c6,-45 25,-93 57,-143 32,-50 93,-133 181,-250l114 -58 25 -22 100 -36 122 -11 81 -9 182 78 165 139 65 105 50 104c44,207 74,401 87,582l3 190c-5,78 -9,142 -12,191 -3,49 -21,112 -53,189l-25 69 -7 36 0 45 0 24 -9 34 -49 70 -9 12 -41 24 -43 67 -65 127 -8 35 16 93c-60,69 -98,115 -115,138 -17,23 -41,53 -74,92l-91 58 -124 127 -148 82c-114,43 -232,51 -354,24l-49 -42 8 -73 -17 -42 49 -105 50 24z"/>
 </g>
</svg>
