<?xml version="1.0" encoding="UTF-8"?>
<!DOCTYPE svg PUBLIC "-//W3C//DTD SVG 1.1//EN" "http://www.w3.org/Graphics/SVG/1.1/DTD/svg11.dtd">
<!-- Creator: CorelDRAW 2017 -->
<svg xmlns="http://www.w3.org/2000/svg" xml:space="preserve" width="210mm" height="297mm" version="1.1" shape-rendering="geometricPrecision" text-rendering="geometricPrecision" image-rendering="optimizeQuality" fill-rule="evenodd" clip-rule="evenodd"
viewBox="0 0 21000 29700"
 xmlns:xlink="http://www.w3.org/1999/xlink">
 <g id="Layer_x0020_1">
  <metadata id="CorelCorpID_0Corel-Layer"/>
  <path fill="#2B2A29" fill-rule="nonzero" d="M3334 3492c6,-11 15,-16 27,-16l15 0c16,0 30,11 43,32 13,21 21,42 25,64 2,13 6,33 13,58 7,25 13,52 19,80 6,28 12,56 18,84 6,28 10,52 12,74 8,69 15,131 21,187 6,56 11,109 15,161 4,52 7,103 9,155 2,52 3,108 3,169 0,56 0,94 0,115 0,21 -2,42 -6,64 -12,5 -21,8 -27,8 -22,0 -42,-15 -59,-44 -18,-29 -34,-64 -47,-103l-9 -183 -74 0c-42,0 -71,-1 -89,-2 -18,-1 -32,-2 -42,-2 -8,0 -13,1 -15,4 -18,8 -32,38 -43,90 -11,52 -24,107 -40,165l-27 92c-12,16 -31,24 -56,24 -8,0 -15,-1 -22,-2 -7,-1 -15,-3 -25,-6 -30,-42 -44,-94 -44,-155 0,-77 22,-167 65,-271 0,-27 -5,-51 -16,-74 -11,-23 -29,-36 -55,-42l6 -60c6,3 17,4 33,4l77 0c10,-27 22,-59 36,-98 14,-38 29,-79 46,-121 17,-42 34,-84 50,-123 17,-40 32,-74 46,-103l113 -187 6 -36zm-83 653c10,3 21,4 33,4 12,0 23,0 33,0 10,0 21,0 33,0 14,0 26,-1 36,-4 0,-16 0,-35 -1,-58 -1,-23 -2,-47 -4,-74 -2,-27 -5,-52 -9,-76 -4,-24 -10,-45 -18,-64 -8,3 -17,15 -27,36 -10,21 -20,46 -30,76 -10,29 -19,58 -27,88 -8,29 -14,53 -18,72z"/>
  <path fill="#2B2A29" fill-rule="nonzero" d="M2682 4676c0,12 -2,28 -5,48 -4,20 -8,31 -12,33 -17,4 -33,7 -47,9 -14,2 -28,3 -41,3 -30,0 -57,-6 -80,-17 -9,-42 -21,-90 -37,-142 -16,-52 -34,-105 -55,-159 -21,-54 -44,-108 -69,-161 -25,-53 -51,-103 -77,-149 -20,4 -40,8 -59,12 -19,4 -39,8 -59,12 -46,-4 -93,-13 -141,-26 -48,-14 -95,-37 -139,-70l0 29 -4 605c-6,27 -17,43 -35,49 -17,6 -36,9 -56,9l-80 0c-12,0 -20,-6 -26,-19 -6,-13 -9,-27 -9,-42 0,-8 1,-14 2,-20 1,-97 3,-192 4,-285 1,-94 2,-189 2,-285 0,-48 1,-96 2,-143 1,-47 4,-93 6,-138 -33,-64 -50,-120 -50,-168 0,-62 27,-103 80,-125 22,-147 51,-280 88,-400 37,-120 81,-222 131,-307 50,-85 105,-151 167,-197 62,-46 128,-70 199,-70 58,0 108,18 150,54 42,36 78,84 108,145 29,61 54,132 72,213 19,81 33,168 44,259 11,92 18,186 22,282 4,97 6,190 8,281 33,-29 57,-52 71,-70 14,-17 22,-37 22,-58 0,-10 -1,-17 -2,-23 24,0 42,7 53,22 11,14 16,32 16,54 0,21 -5,44 -15,68 -10,24 -24,45 -41,62 -17,17 -35,34 -52,51 -17,16 -35,31 -52,45 -1,52 -3,101 -3,148 -1,46 -1,89 -1,127l0 455zm-414 -1906c-39,0 -76,19 -112,58 -36,39 -70,92 -101,161 -32,69 -60,150 -86,245 -26,95 -47,197 -65,307 7,2 15,3 23,4 8,1 15,3 23,7 60,35 124,90 192,165 68,75 134,165 199,269 29,-10 57,-19 84,-29 27,-10 55,-22 82,-38 1,-42 3,-88 4,-136 1,-48 2,-98 2,-148 0,-100 -3,-202 -10,-306 -6,-103 -19,-197 -37,-280 -18,-83 -43,-151 -74,-203 -32,-52 -73,-78 -123,-78zm-386 936c-3,31 -6,61 -9,91 -3,30 -5,61 -6,94 46,44 96,76 149,94 53,18 109,28 166,28 -50,-75 -101,-141 -153,-196 -52,-55 -101,-92 -147,-112zm611 490c0,-25 2,-70 6,-133 -16,8 -31,14 -46,20 -15,6 -31,12 -46,17 16,27 31,54 44,81 14,27 28,55 42,84l0 -70z"/>
  <path fill="#2B2A29" fill-rule="nonzero" d="M5751 4714c-8,-69 -13,-134 -16,-195 -3,-61 -4,-125 -4,-191 0,-21 0,-42 0,-64 0,-24 1,-48 3,-72 0,-32 2,-70 7,-113 5,-44 11,-89 19,-135 8,-46 17,-92 27,-135 10,-44 20,-83 30,-117 -24,16 -48,29 -74,38 -26,9 -46,14 -62,14 -12,0 -25,-12 -39,-36 4,-21 10,-38 18,-52 8,-13 16,-27 24,-40 26,-42 58,-76 98,-101 40,-25 81,-44 125,-56 43,-12 86,-19 127,-22 42,-3 79,-4 113,-4 38,0 74,9 108,26 35,17 64,41 89,72 25,31 44,66 59,107 15,41 22,84 22,129 0,29 -6,60 -19,94 -13,33 -39,68 -79,105 53,13 98,44 133,92 36,48 53,111 53,191 0,175 -36,303 -107,384 -71,81 -161,121 -270,121 -10,0 -19,0 -27,0 -8,0 -17,-1 -27,-4 -28,0 -55,-1 -83,-4 -28,-3 -55,-5 -83,-8 -8,0 -15,-7 -21,-20 -12,5 -26,11 -43,16 -17,5 -33,8 -49,8 -28,0 -45,-9 -53,-28zm154 -191c8,-19 20,-37 37,-56 17,-19 37,-36 59,-52 23,-16 47,-29 73,-38 26,-9 52,-14 80,-14l33 4 0 4c0,8 -7,19 -22,32 -15,13 -31,27 -49,42 -18,15 -34,29 -49,44 -15,15 -22,29 -22,42 36,0 71,-3 107,-10 36,-7 68,-19 96,-38 29,-19 52,-45 70,-80 18,-34 27,-80 27,-135 0,-24 -7,-44 -21,-62 -14,-17 -32,-31 -53,-40 -22,-9 -46,-16 -74,-20 -28,-4 -55,-6 -83,-6 -43,0 -84,3 -120,10 -37,7 -61,13 -73,18l-15 354zm68 -864c-6,40 -14,85 -24,135 -10,50 -17,106 -21,167 30,-5 63,-12 99,-20 37,-8 71,-20 104,-36 33,-16 60,-35 83,-58 23,-23 34,-50 34,-82 0,-40 -6,-72 -18,-96 -12,-24 -43,-37 -95,-40l-27 0c-47,0 -93,9 -136,28z"/>
  <path fill="#2B2A29" fill-rule="nonzero" d="M4286 4047c-10,-14 -21,-30 -33,-49 -12,-19 -24,-38 -36,-55 -12,-17 -21,-34 -29,-49 -8,-15 -12,-28 -12,-38 3,-42 14,-80 33,-113 19,-33 38,-66 57,-98 0,-19 0,-44 1,-75 1,-31 1,-64 1,-98 0,-37 -1,-74 -3,-112 -2,-38 -6,-73 -12,-106 -6,-33 -14,-61 -25,-85 -11,-24 -25,-42 -42,-54 -29,27 -54,51 -76,71 -22,20 -41,41 -58,62 -17,21 -33,43 -49,67 -15,23 -31,51 -46,84 -4,10 -9,22 -15,36 -6,14 -15,22 -28,22 -14,0 -26,-7 -33,-20 -8,-14 -12,-29 -12,-46 0,-15 1,-27 2,-35 1,-8 4,-18 6,-32 55,-93 118,-177 191,-252 73,-75 146,-143 219,-203 99,-81 202,-149 309,-203 106,-54 217,-81 330,-81 46,0 96,7 150,22 54,14 104,37 151,68 47,31 86,70 117,116 31,46 46,101 46,165 0,122 -14,224 -41,307 -27,83 -63,161 -108,235 32,25 64,56 96,94 32,38 62,80 87,126 26,46 47,96 64,148 17,52 25,104 25,156 0,149 -27,271 -82,368 -55,97 -124,173 -208,229 -84,56 -177,96 -277,119 -101,23 -197,35 -289,35 -33,0 -72,-2 -117,-7 -45,-5 -87,-16 -128,-35 -41,-18 -76,-45 -105,-80 -29,-35 -43,-82 -43,-142l22 -461zm186 406c0,21 10,38 31,49 21,12 44,20 70,26 26,6 51,9 77,10 25,1 42,1 51,1 56,0 121,-11 195,-32 74,-21 145,-54 211,-97 67,-43 124,-99 170,-168 47,-69 70,-151 70,-248 0,-27 -1,-55 -3,-84 -2,-29 -10,-57 -23,-85 -13,-28 -33,-56 -59,-85 -27,-29 -64,-57 -111,-84 -20,27 -42,55 -65,83 -23,28 -47,52 -71,71 -12,10 -28,22 -50,36 -22,14 -44,29 -67,45 -23,15 -44,29 -64,42 -19,13 -31,20 -36,22 -10,6 -30,13 -59,22 -29,9 -61,18 -95,28 -34,10 -65,18 -95,26 -29,8 -50,14 -62,17 -13,10 -21,22 -24,36 -3,14 -4,31 -4,51l2 119c19,-15 42,-28 70,-39 28,-11 57,-20 87,-28 30,-8 59,-13 87,-16 28,-3 52,-4 72,-4 17,0 36,2 57,7 21,5 31,20 31,45 0,12 -10,21 -29,28 -19,7 -44,13 -72,19 -29,6 -60,13 -94,20 -34,8 -65,19 -95,33 -29,14 -54,32 -74,54 -20,21 -31,48 -32,81zm-99 -1425c22,35 38,70 50,107 12,37 20,74 26,113 6,39 10,78 13,119 3,41 7,81 13,122 55,-25 119,-46 194,-64 75,-17 146,-26 214,-26 52,0 99,5 140,16 42,11 73,21 93,30 37,-48 68,-107 93,-177 24,-70 37,-138 37,-206 0,-54 -10,-98 -30,-133 -20,-35 -46,-62 -77,-83 -31,-20 -64,-34 -100,-42 -36,-8 -70,-12 -101,-12 -121,0 -249,34 -384,101 -7,4 -21,11 -40,20 -19,10 -39,21 -59,35 -20,14 -38,27 -55,41 -17,14 -25,26 -25,38zm110 779c9,4 19,6 30,7 12,1 21,1 28,1 19,0 51,-8 97,-25 46,-16 94,-36 143,-59 50,-23 96,-47 138,-71 42,-24 69,-43 81,-56 -33,-15 -69,-25 -109,-29 -40,-4 -67,-6 -81,-6 -40,0 -85,8 -134,23 -49,15 -87,29 -114,41 -10,4 -23,12 -40,23 -17,12 -31,26 -42,43l2 107z"/>
  <path fill="#2B2A29" fill-rule="nonzero" d="M9460 4430c12,13 22,29 30,46 8,17 12,40 12,70 0,45 -14,80 -43,105 -29,25 -65,44 -108,58 -43,13 -89,22 -138,26 -48,4 -91,6 -129,6 -132,0 -231,-40 -295,-121 -64,-81 -96,-200 -96,-356 0,-96 13,-190 40,-283 27,-93 65,-176 116,-251 50,-74 111,-134 182,-179 71,-45 152,-68 243,-68 14,0 30,1 49,2 19,1 37,5 55,10 18,5 34,13 49,24 15,11 26,25 34,44 12,29 20,49 24,60 4,11 6,29 6,56 0,32 -4,68 -12,107 -36,21 -66,32 -92,32 -53,0 -98,-37 -133,-111l-133 48c-28,8 -55,28 -83,60 -28,32 -52,71 -74,117 -22,46 -40,99 -53,157 -14,58 -21,119 -21,183 0,77 16,138 49,183 33,45 95,68 188,68 34,0 71,-10 113,-30 42,-20 88,-40 139,-62l83 0z"/>
  <path fill="#2B2A29" fill-rule="nonzero" d="M8273 4422c17,19 29,38 36,55 6,17 10,34 10,49 0,10 -1,20 -2,32 -1,12 -4,23 -6,35 -35,27 -76,53 -123,78 -47,25 -97,48 -150,68 -53,20 -105,36 -158,48 -53,12 -100,17 -144,17 -79,0 -158,-23 -237,-70 -79,-46 -150,-113 -214,-200 -63,-87 -115,-192 -154,-314 -40,-123 -59,-261 -59,-416 0,-81 6,-167 19,-256 13,-90 35,-179 65,-267 30,-88 69,-171 118,-251 48,-79 108,-149 178,-210 70,-61 153,-109 247,-145 94,-36 202,-54 325,-54 23,0 51,6 84,17 33,12 66,29 98,52 32,23 62,52 90,85 27,34 47,73 60,117 3,12 5,25 6,39 1,14 2,28 2,42 0,224 -33,385 -100,482 -67,98 -165,146 -295,146 -33,0 -60,-9 -82,-28 -22,-18 -39,-42 -52,-71 -13,-29 -22,-62 -27,-98 -5,-37 -8,-74 -8,-113 0,-25 6,-53 19,-83 13,-30 29,-58 50,-84 20,-26 43,-48 68,-67 25,-18 51,-28 77,-28l9 0c-33,54 -59,100 -79,139 -19,39 -29,74 -29,107l0 49c0,17 1,33 2,48 1,14 5,28 11,39 6,12 15,20 27,26 12,6 28,9 49,9 70,0 128,-34 172,-101 44,-68 66,-167 66,-298 0,-46 -7,-85 -21,-116 -14,-31 -31,-56 -53,-74 -22,-18 -46,-31 -72,-39 -27,-8 -53,-12 -79,-12 -122,0 -232,27 -328,80 -96,53 -178,124 -245,213 -67,89 -118,191 -154,307 -36,116 -54,238 -54,365 0,122 18,231 54,327 36,97 80,179 133,246 53,68 108,119 167,155 59,36 111,54 158,54 40,0 84,-4 131,-12 47,-8 94,-18 141,-32 47,-14 93,-28 137,-45 44,-16 83,-32 118,-48z"/>
  <path fill="#2B2A29" fill-rule="nonzero" d="M12452 3642c-2,-8 -3,-21 -3,-40 0,-80 46,-131 139,-155 16,-3 31,-4 44,-4 14,0 29,0 44,0 263,0 474,139 634,418 34,69 56,127 68,173 12,46 18,103 18,169 0,77 -16,149 -47,215 -32,66 -72,123 -122,171 -49,48 -106,86 -169,113 -63,28 -126,42 -187,42l-15 0c-14,34 -39,65 -74,92l-21 0c-65,0 -98,-49 -98,-147l0 -12c-123,-106 -184,-211 -184,-314 0,-45 11,-93 33,-143 30,50 73,94 130,131 -2,-21 -3,-40 -3,-56 0,-19 0,-37 0,-56 0,-287 52,-430 157,-430l18 0c8,61 12,129 13,203 1,74 1,143 1,207l0 231c20,11 40,17 61,18 21,1 38,2 52,2 176,0 264,-68 264,-203 0,-45 -9,-97 -28,-155 -19,-58 -48,-125 -87,-199 -130,-212 -301,-318 -513,-318l-33 0 -59 115 -36 -68z"/>
  <path fill="#2B2A29" fill-rule="nonzero" d="M10158 2792c-4,0 -11,0 -21,1 -9,1 -20,1 -31,1 -23,0 -46,-3 -68,-9 -22,-6 -33,-18 -33,-38 0,-66 19,-117 56,-154 37,-37 82,-64 135,-81 53,-17 106,-28 162,-32 55,-4 102,-6 139,-6 47,0 98,5 151,14 53,10 108,22 164,38 56,15 112,34 167,56 55,22 109,46 161,71 53,25 114,60 181,106 68,45 137,98 208,158 71,60 141,127 208,201 68,74 128,154 182,238 54,84 97,172 129,265 32,93 49,188 49,287 0,131 -24,245 -71,340 -47,96 -109,175 -186,239 -76,64 -162,111 -258,142 -96,31 -192,46 -288,46 -49,0 -101,-5 -156,-14 -55,-10 -107,-19 -154,-29 -3,15 -6,31 -10,48 -4,16 -9,41 -16,74 -12,4 -23,7 -35,9 -12,2 -24,3 -39,3l-50 -6c-16,-27 -27,-60 -35,-98 -7,-39 -14,-80 -19,-125 -98,-75 -178,-144 -241,-207 -63,-63 -108,-116 -137,-161 -24,-35 -48,-74 -70,-117 -22,-43 -33,-87 -33,-132 0,-42 23,-86 69,-130 50,-50 110,-90 178,-120 68,-30 154,-57 258,-83l4 -116c0,-8 2,-30 5,-67 4,-37 8,-77 14,-120 6,-43 13,-85 22,-125 9,-40 19,-66 32,-80 39,42 63,87 73,135 10,47 17,104 19,169 1,29 3,58 4,87 1,29 4,60 6,93l30 0c24,0 56,2 96,6 40,4 82,10 126,19 45,9 90,21 135,38 45,16 86,37 123,62 37,25 67,55 90,90 23,35 35,76 35,125 0,17 -4,38 -13,61 -9,23 -20,45 -33,65 -14,20 -29,37 -47,51 -18,14 -36,20 -53,20 -13,0 -29,-3 -49,-10 -19,-7 -35,-16 -46,-28 16,-23 33,-45 53,-67 19,-21 33,-42 40,-61 -12,-17 -33,-35 -64,-52 -31,-17 -67,-33 -109,-48 -42,-14 -86,-26 -134,-35 -47,-9 -92,-13 -134,-13 -14,0 -25,1 -32,3 -7,2 -15,5 -24,9l2 617c35,27 70,44 108,51 37,7 70,10 97,10 39,0 83,-2 134,-6 50,-4 102,-13 155,-26 53,-14 106,-33 158,-58 52,-25 98,-58 138,-100 40,-42 73,-93 97,-154 24,-61 37,-134 37,-219 0,-83 -12,-163 -37,-240 -24,-77 -58,-151 -100,-220 -42,-70 -91,-135 -147,-196 -55,-61 -114,-117 -176,-168 -62,-51 -125,-98 -190,-139 -65,-42 -127,-78 -186,-109 -127,-66 -251,-114 -374,-146 -123,-32 -254,-48 -394,-48 -29,0 -58,2 -87,6 -29,4 -59,11 -87,20 -33,10 -50,20 -50,32 0,6 4,11 12,14 8,4 17,7 26,10 9,3 18,5 27,7 9,2 14,4 17,6 7,6 11,14 11,23 0,8 -3,15 -9,23zm617 1005c-46,8 -94,15 -143,22 -50,7 -95,16 -136,28 -41,12 -75,25 -101,41 -27,15 -40,36 -40,61 0,19 5,40 16,61 11,21 24,42 40,62 16,20 33,40 51,58 18,18 34,35 49,51 35,37 76,70 123,101 47,31 96,54 147,70l17 -553 -22 0z"/>
  <path fill="#2B2A29" fill-rule="nonzero" d="M16193 4513c0,24 -6,41 -18,52 -18,19 -41,41 -68,68 -28,27 -59,52 -93,78 -35,25 -72,47 -113,66 -41,19 -83,28 -126,28 -71,0 -124,-30 -157,-90 -34,-60 -50,-128 -50,-205 0,-40 7,-86 21,-139 14,-53 29,-106 44,-159 -4,-19 -8,-34 -13,-46 -5,-12 -7,-27 -7,-46 0,-13 1,-25 3,-34 2,-9 5,-21 9,-34 10,-5 21,-11 33,-16 12,-5 24,-9 36,-12l62 -195c-30,-19 -62,-40 -96,-64 -35,-24 -52,-54 -52,-92 0,-21 6,-35 18,-40 12,-5 29,-9 50,-12 55,-5 118,-19 187,-40 69,-21 157,-32 264,-32 12,0 26,1 42,4 16,3 38,9 65,20 12,21 29,48 50,80 22,32 33,62 33,92 0,8 -5,17 -15,26 -10,9 -22,18 -37,26 -15,8 -31,15 -47,20 -17,5 -31,8 -43,8 -28,3 -50,4 -68,4 -18,0 -35,0 -50,0 -14,0 -28,1 -42,2 -14,1 -30,2 -47,2 -6,0 -13,0 -21,0 -6,0 -12,1 -18,4 -6,8 -13,23 -21,46 -8,23 -12,56 -12,101 0,8 1,16 4,24 3,8 9,12 19,12l193 0 39 8c6,13 10,29 12,48 2,19 3,36 3,52 0,13 -2,30 -6,50 -4,20 -12,31 -24,34 -24,3 -62,5 -116,8 -53,3 -113,4 -178,4 -8,0 -13,4 -15,12 -8,37 -17,76 -28,117 -11,41 -22,80 -34,117 6,0 33,-7 80,-20 47,-13 114,-25 199,-36 12,-3 26,-5 42,-6 16,-1 31,-2 44,-2 16,0 31,12 44,36 14,24 21,48 21,72z"/>
  <path fill="#2B2A29" fill-rule="nonzero" d="M15117 2845c0,-8 -3,-16 -9,-25 -6,-9 -24,-23 -56,-42 -24,-12 -55,-21 -92,-28 -37,-7 -69,-10 -96,-10 -43,0 -88,8 -134,23 -46,15 -88,39 -125,70 -37,31 -68,70 -93,116 -24,46 -37,99 -37,159 0,50 6,99 17,146 12,47 29,82 54,103 35,-14 69,-23 105,-29 35,-6 70,-9 105,-9 30,0 60,2 90,7 29,5 59,13 87,25 40,15 66,32 78,49 12,17 17,47 17,90 0,27 -3,50 -10,68 -6,18 -19,34 -37,46 -18,13 -43,22 -74,28 -32,6 -73,9 -123,9 -43,0 -86,-3 -127,-10 -42,-7 -83,-21 -123,-42 -7,4 -15,10 -24,17 -39,17 -71,42 -96,72 -25,31 -45,66 -59,106 -14,40 -24,83 -30,130 -6,47 -9,95 -9,143 0,79 13,150 39,211 26,62 59,114 100,156 41,42 88,74 140,96 53,21 106,32 161,32 65,0 128,-19 191,-58 63,-39 115,-88 159,-148 32,-42 53,-64 65,-64 9,0 14,10 16,29 2,19 3,50 3,93 0,68 -17,119 -52,154 -33,35 -63,65 -91,90 -27,25 -55,46 -83,64 -28,17 -58,30 -88,38 -31,8 -66,12 -105,12 -78,0 -154,-14 -228,-43 -74,-29 -143,-71 -206,-127 -70,-50 -123,-121 -159,-213 -35,-92 -53,-189 -53,-291 0,-70 5,-138 16,-204 11,-67 27,-128 50,-185 22,-57 50,-108 84,-152 34,-44 74,-80 120,-107 -29,-44 -55,-97 -78,-156 -23,-60 -36,-121 -39,-183 3,-98 22,-183 58,-253 36,-70 81,-128 136,-174 55,-45 116,-79 183,-100 68,-21 135,-32 203,-32 43,0 85,5 125,14 40,10 80,23 119,41 32,14 56,44 72,91 17,47 25,96 25,146 0,21 -2,43 -5,65 -4,22 -9,42 -16,61 -7,18 -17,34 -28,46 -12,13 -26,19 -43,19 -10,0 -19,-1 -26,-4 -7,-3 -15,-5 -24,-7 4,-6 10,-15 17,-28 7,-13 14,-27 19,-42 6,-15 11,-32 15,-49 4,-17 6,-34 6,-49zm-330 652c30,0 66,-8 108,-23 -19,-14 -45,-20 -78,-20 -29,0 -55,4 -80,12 -24,8 -46,14 -65,17l114 14z"/>
  <path fill="#2B2A29" fill-rule="nonzero" d="M18934 4755c-22,5 -41,11 -56,16 -16,5 -32,8 -47,8 -34,0 -57,-16 -71,-48 -16,-32 -24,-94 -24,-187 0,-82 7,-190 22,-322 15,-133 39,-279 73,-438 -36,-8 -61,-21 -77,-40 -16,-19 -27,-38 -33,-60 -4,-11 -7,-23 -10,-38 -3,-15 -4,-29 -4,-42l3 -24c95,-11 184,-25 268,-44 84,-19 177,-31 280,-36 57,0 101,1 130,2 30,1 52,3 67,6 15,3 25,7 31,12 6,5 14,13 24,24 12,13 20,29 25,46 5,17 8,33 10,46l0 8c0,34 -15,57 -44,68 -30,11 -62,16 -98,16 -24,0 -46,-1 -68,-4 -22,-3 -39,-4 -50,-4 -26,0 -56,3 -92,10 -36,7 -85,19 -148,38 -28,69 -45,153 -53,251l267 -12c28,-3 48,-4 62,-4 16,0 33,-3 50,-8 16,24 24,54 24,92 0,19 -2,39 -6,62 -4,23 -12,44 -24,66 -26,5 -50,8 -74,8 -22,0 -42,0 -62,0l-71 0c-34,0 -66,2 -96,6 -31,4 -66,14 -105,30 -14,21 -23,53 -27,96 -4,42 -6,74 -6,96 0,45 2,89 7,131 5,42 7,84 7,123 0,8 0,17 0,28 0,8 -1,16 -3,24z"/>
  <path fill="#2B2A29" fill-rule="nonzero" d="M17342 3672c40,10 80,21 119,35 39,14 77,22 114,26 3,-133 6,-247 10,-340 4,-94 18,-180 44,-259 6,70 10,138 12,204 2,67 4,128 5,184 1,56 2,104 2,145 0,39 0,66 0,81 14,2 25,3 31,4 6,1 12,1 16,1 4,0 10,0 17,0 7,0 19,0 35,0 -3,-70 -5,-136 -6,-198 -1,-63 -6,-122 -14,-178 -8,-56 -20,-111 -38,-164 -17,-53 -42,-106 -73,-158l-216 0c-20,0 -46,-7 -79,-20 -32,-14 -64,-32 -94,-55 -30,-23 -56,-49 -79,-78 -22,-29 -33,-58 -33,-87 0,-14 1,-28 3,-42 2,-14 7,-28 14,-41 7,-13 17,-24 30,-33 13,-10 31,-16 54,-20 7,-2 14,-3 22,-3 7,0 14,0 22,0 35,0 70,6 106,17 36,12 71,27 105,46 34,19 65,42 94,68 29,26 54,54 76,83 36,-4 72,-6 107,-7 35,-1 69,-3 103,-7 45,-4 98,-8 161,-12 63,-4 141,-6 236,-6 26,0 52,2 78,6 26,4 50,12 71,25 22,13 39,30 53,54 14,23 21,54 21,93 0,23 -4,43 -13,61 -9,17 -19,32 -32,43 -13,12 -27,20 -43,26 -16,6 -31,9 -45,9 -17,0 -31,-4 -41,-12 16,-19 34,-35 55,-46 21,-12 31,-25 31,-41 0,-21 -10,-33 -31,-36 -21,-3 -41,-4 -62,-4 -46,0 -88,0 -127,1 -39,1 -79,2 -122,4 -42,2 -89,4 -139,7 -50,3 -111,5 -181,7 30,58 56,113 78,164 22,51 40,104 54,159 14,55 26,113 35,172 9,60 15,127 19,203l78 6c10,0 24,0 41,1 17,1 35,2 52,3 17,1 33,1 47,1 16,0 27,0 32,0 12,0 22,4 31,13 9,9 17,19 24,32 6,13 12,26 15,41 4,14 5,27 5,36 0,27 -3,44 -10,51 -6,7 -16,13 -29,19 -7,-15 -16,-23 -26,-23l-252 0 0 423c0,50 -1,98 -2,145 -1,46 -6,86 -13,119 -14,71 -38,130 -72,175 -34,45 -79,68 -135,68 -14,0 -30,-12 -47,-35 -17,-23 -28,-44 -32,-64 -20,-81 -33,-175 -40,-282 -6,-107 -10,-207 -10,-300 0,-71 1,-134 3,-187 2,-53 3,-88 3,-106 -23,-4 -48,-12 -74,-23 -27,-12 -50,-26 -70,-43 -13,-14 -29,-34 -49,-61 -19,-27 -30,-57 -31,-90zm309 229c0,27 0,65 0,113 0,48 1,100 2,156 1,56 3,113 5,171 2,58 6,111 11,158 5,47 11,86 18,116 7,30 16,45 26,45 7,0 13,-13 18,-39 5,-26 9,-60 12,-101 3,-42 5,-89 5,-143 1,-54 1,-109 2,-164 1,-55 1,-108 1,-158 0,-52 1,-98 2,-136l-104 -17zm-127 -1002c-19,-19 -40,-37 -65,-54 -24,-16 -49,-29 -73,-39 -24,-10 -47,-17 -68,-23 -21,-6 -38,-9 -51,-9 -26,0 -42,3 -49,9 -6,6 -10,14 -10,23 0,21 10,38 30,51 20,13 43,22 68,29 25,7 49,11 71,13 22,2 36,3 40,3l106 -3z"/>
  <path fill="#2B2A29" fill-rule="nonzero" d="M3530 6920c-34,24 -64,36 -92,36 12,-32 18,-58 18,-80 0,-32 -16,-48 -47,-48 -22,0 -48,5 -80,16 -49,16 -96,40 -139,72 -43,32 -81,71 -113,117 -32,46 -57,100 -76,161 -19,61 -28,130 -28,207 0,90 18,159 55,205 37,46 95,70 176,70 18,0 43,-3 76,-8 33,-5 64,-18 95,-38 31,-20 58,-48 82,-86 24,-37 36,-89 36,-155 0,-16 -5,-29 -15,-38 -10,-9 -22,-16 -37,-20 -15,-4 -31,-7 -47,-8 -17,-1 -31,-2 -43,-2 -43,0 -79,13 -107,38 -28,25 -52,63 -74,113 -22,-8 -35,-19 -40,-34 -5,-15 -7,-35 -7,-62 0,-56 13,-99 40,-129 27,-31 59,-54 98,-70 39,-16 79,-25 120,-28 42,-3 77,-4 107,-4 59,0 106,23 139,70 34,46 50,99 50,157 0,167 -43,295 -130,382 -87,88 -209,131 -365,131 -136,0 -234,-40 -293,-121 -59,-81 -89,-205 -89,-372 0,-119 20,-228 59,-326 40,-98 88,-183 147,-255 58,-72 121,-127 187,-167 66,-40 125,-60 176,-60 130,0 196,57 196,171 0,42 -11,97 -33,163z"/>
  <path fill="#2B2A29" fill-rule="nonzero" d="M2768 6203c13,4 25,8 36,12 11,4 21,6 29,6 29,0 43,-25 43,-75 0,-25 -6,-49 -19,-72 -13,-23 -31,-44 -53,-62 -22,-18 -48,-33 -78,-43 -29,-11 -60,-16 -92,-16 -88,0 -173,16 -257,49 -83,33 -162,77 -235,133 -73,56 -140,120 -199,193 -59,72 -109,148 -149,227 -50,100 -91,215 -122,343 -31,128 -46,264 -46,407 0,66 10,123 30,171 20,48 47,88 80,120 33,32 71,56 114,71 43,15 88,23 134,23 53,0 106,-14 160,-41 53,-27 100,-64 141,-112 41,-47 74,-104 100,-171 26,-67 39,-141 39,-222 0,-10 0,-18 0,-26 0,-8 -1,-16 -2,-26 -78,46 -158,79 -242,98 -83,19 -168,29 -255,29 -16,0 -36,-4 -60,-12 -24,-8 -48,-20 -70,-36 -22,-16 -41,-37 -57,-62 -16,-25 -24,-55 -24,-90 0,-52 14,-96 41,-132 27,-36 62,-65 104,-87 42,-22 88,-39 139,-49 51,-11 100,-16 148,-16 52,0 102,8 150,25 48,16 100,47 154,91 13,-6 27,-15 41,-28 14,-13 28,-25 41,-36 0,-6 -4,-14 -12,-26 -8,-12 -12,-21 -12,-29 4,-14 11,-20 19,-20 4,0 7,1 9,3 32,21 51,43 58,67 7,23 11,46 11,70 0,39 -9,74 -26,107 -17,33 -40,63 -69,90 14,71 22,144 22,217 0,98 -15,188 -44,268 -29,80 -69,149 -119,206 -50,57 -108,100 -174,130 -66,30 -136,45 -209,45 -78,0 -149,-13 -215,-38 -65,-25 -122,-65 -169,-119 -47,-54 -85,-122 -112,-204 -27,-82 -41,-180 -41,-294 0,-135 14,-267 43,-394 29,-127 69,-248 121,-361 52,-113 113,-217 184,-311 71,-95 149,-176 234,-243 85,-68 175,-120 270,-158 95,-38 192,-56 291,-56 50,0 99,9 146,28 47,18 88,45 125,80 37,35 66,77 87,126 22,49 32,106 32,169 0,46 -11,87 -33,122 -22,35 -50,52 -83,52 -23,0 -44,-11 -63,-33 -19,-22 -31,-48 -37,-77zm-945 788c17,4 39,7 66,9 27,2 52,3 77,3 13,0 24,0 35,0 12,0 22,-1 30,-3 36,-4 68,-7 97,-10 29,-3 55,-6 79,-9 24,-3 46,-7 68,-13 22,-6 45,-14 69,-23 -17,-14 -36,-25 -55,-35 -19,-10 -38,-17 -56,-23 -18,-6 -34,-10 -49,-13 -14,-3 -25,-4 -32,-4 -27,0 -58,1 -92,4 -34,3 -67,9 -98,17 -32,9 -60,21 -85,36 -25,15 -43,37 -53,64z"/>
  <path fill="#2B2A29" fill-rule="nonzero" d="M6280 6574c8,-34 29,-66 62,-96l36 0c10,0 25,2 44,6 20,4 37,10 50,18 0,19 0,44 1,76 1,32 2,72 4,119l18 462c2,74 8,143 18,207 10,64 15,133 15,207 0,29 -1,64 -3,105 -2,41 -9,71 -21,90 -26,13 -46,20 -62,20 -20,0 -42,-8 -65,-24 -24,-16 -38,-38 -42,-68l-12 -279 0 -24c-22,3 -42,5 -59,6 -18,1 -35,2 -50,2 -22,0 -45,-1 -70,-4 -25,-3 -54,-7 -87,-12 2,21 3,48 4,80 1,32 1,64 1,96 0,29 0,57 0,84 0,27 0,45 0,56 0,32 -5,51 -15,58 -10,7 -32,13 -65,18 -18,0 -35,-2 -52,-6 -17,-4 -33,-14 -49,-30l-24 -111c-2,-11 -4,-31 -6,-62 -2,-31 -3,-62 -4,-96 -1,-33 -2,-64 -3,-94 -1,-29 -1,-48 -1,-56 -16,-5 -34,-21 -55,-46 -21,-25 -35,-52 -43,-82 -4,-13 -8,-40 -12,-80 -4,-40 -6,-74 -6,-103 0,-5 0,-10 1,-14 1,-4 1,-9 1,-14 22,19 44,34 68,48 24,13 43,23 59,28l21 -470 39 -28c18,-8 36,-12 53,-12 14,0 32,3 53,8 22,5 38,13 47,24 0,24 -4,64 -12,121 -8,57 -12,141 -12,253l0 179c18,5 33,9 44,12 12,3 25,5 39,8 14,3 29,4 44,4 16,0 37,0 62,0 16,0 28,-1 36,-2 8,-1 20,-5 36,-10l-24 -482 -6 -92z"/>
  <path fill="#2B2A29" fill-rule="nonzero" d="M5169 5766c13,-15 31,-28 55,-39 24,-11 46,-16 68,-16 13,0 25,2 36,7 11,5 18,12 23,22l0 878c0,48 0,96 0,142 0,44 -1,89 -2,133l9 12c50,-23 95,-49 134,-78 39,-29 60,-65 65,-107 20,12 35,22 44,30 9,9 14,28 14,56 0,21 -2,42 -6,62 -4,20 -17,40 -37,59 -29,23 -62,48 -99,75 -37,27 -77,51 -119,72l-4 9c-3,116 -5,230 -8,342 -2,112 -5,229 -10,351l0 101c0,8 -10,13 -31,14 -21,2 -40,3 -57,3 -14,0 -31,0 -49,-1 -18,-1 -28,-4 -31,-10 -3,-4 -4,-10 -4,-17 0,-6 -1,-19 -2,-41 0,-98 -23,-197 -69,-294 -46,-98 -105,-192 -177,-282l-6 -3c-42,15 -82,26 -120,32 -38,6 -72,9 -100,9 -37,0 -73,0 -107,-1 -34,-1 -67,-3 -98,-7l-6 9 -4 545c0,21 -6,37 -18,48 -12,11 -28,16 -49,16 -22,0 -41,-1 -58,-3 -17,-2 -27,-10 -28,-23l-4 -663 -4 -9c-26,-19 -47,-42 -63,-70 -39,-52 -58,-113 -58,-183 0,-54 11,-106 32,-156 22,-50 50,-88 86,-113l4 -9 0 -736 -4 -98c7,-23 24,-42 51,-56 27,-14 52,-22 77,-22 13,0 25,2 36,7 11,5 18,13 21,25l-9 889 4 9c68,33 140,80 218,141 78,61 152,128 224,201l4 3c43,-8 82,-16 118,-25 35,-9 63,-17 83,-25l2 0c14,-4 27,-9 37,-14l2 -9 0 -290c0,-58 0,-116 0,-174 0,-58 0,-119 0,-183 0,-64 0,-132 -1,-204 -1,-72 -1,-152 -1,-239l0 -101zm-613 1306c49,0 99,-3 151,-9l4 -17c-37,-33 -75,-62 -112,-88 -37,-26 -76,-51 -114,-74l-9 9 -4 168 6 9c12,2 24,3 37,3 14,0 28,0 41,0zm611 226c1,-21 2,-42 2,-64 0,-23 0,-45 0,-67l-9 -9c-12,6 -23,11 -36,16 -12,5 -25,9 -38,13l-2 14 39 55 32 46 11 -6z"/>
  <path fill="#2B2A29" fill-rule="nonzero" d="M9378 5908c2,0 3,-1 4,-2 1,-1 3,-2 7,-2 10,0 23,4 37,11 14,7 28,18 42,32 14,14 26,32 35,53 10,21 14,46 14,74 0,58 -17,118 -50,179 -33,61 -73,116 -120,165 -47,49 -97,89 -149,119 -52,30 -98,46 -136,46 -24,0 -50,-2 -76,-7 -26,-5 -50,-12 -71,-21 -12,19 -22,36 -30,51 -8,15 -20,25 -38,30 -12,-5 -24,-20 -35,-46 -11,-26 -19,-55 -22,-88 0,-7 1,-16 3,-26 2,-11 3,-19 5,-26 -19,-33 -34,-63 -44,-91 -10,-28 -16,-60 -16,-95 0,-51 13,-105 39,-160 26,-55 60,-106 102,-153 42,-47 89,-85 142,-116 53,-30 107,-46 161,-46 50,0 94,12 131,35 37,23 58,51 65,84zm-400 849c42,2 68,19 78,49 10,30 17,76 21,137 3,126 8,253 14,380 6,127 9,253 9,377 0,26 -5,50 -14,74 -10,23 -29,35 -59,35 -9,0 -19,-2 -31,-5 -12,-4 -23,-8 -31,-12 -9,-2 -16,-11 -21,-26 -5,-15 -10,-32 -13,-49 -3,-18 -7,-35 -9,-53 -3,-18 -4,-30 -4,-37 0,-40 0,-71 0,-95 0,-23 0,-45 1,-65 1,-20 2,-42 3,-67 1,-25 2,-57 4,-96 2,-23 5,-78 9,-163 4,-85 14,-206 30,-363 2,-14 6,-21 13,-21zm10 -382c0,5 2,10 7,16 4,6 8,9 12,9l50 0c28,0 62,-6 102,-19 40,-13 78,-32 115,-56 37,-25 68,-56 94,-93 26,-37 39,-79 39,-126 0,-21 -3,-39 -8,-54 -5,-15 -23,-23 -52,-23 -33,0 -66,10 -99,30 -33,20 -65,46 -95,79 -30,33 -60,70 -88,112 -28,42 -53,84 -76,126zm-138 -112c3,5 6,7 8,7 5,0 10,-2 13,-7 7,-14 18,-32 33,-53 15,-21 30,-43 47,-67 17,-23 34,-46 51,-68 17,-22 33,-41 47,-58l0 -4c0,-7 -1,-12 -3,-14 -57,14 -104,46 -138,96 -35,50 -54,106 -57,167z"/>
  <path fill="#2B2A29" fill-rule="nonzero" d="M7602 7684c-22,4 -32,18 -32,43 0,27 16,57 47,90 32,33 75,50 129,52 52,0 93,-25 123,-75 30,-50 54,-114 70,-193 17,-78 27,-166 32,-262 5,-97 8,-191 8,-284 0,-62 -1,-120 -2,-174 -1,-54 -2,-103 -2,-148 0,-97 -1,-191 -2,-284 -1,-93 -4,-175 -6,-248 -3,-72 -6,-131 -11,-177 -4,-45 -9,-71 -15,-77 -20,10 -33,47 -40,112 -6,65 -11,148 -13,251 -2,102 -4,219 -5,351 -1,131 -6,267 -13,408l-2 41c0,62 9,166 26,313 -49,-93 -81,-212 -95,-359 -14,-147 -22,-324 -22,-533l0 -113c0,-56 1,-123 3,-200 2,-77 8,-151 16,-220 9,-70 21,-129 38,-178 17,-49 39,-74 68,-74 27,0 51,4 71,13 20,9 37,21 52,38 14,16 27,37 37,62 10,25 20,55 30,90 1,4 5,28 12,72 6,44 13,110 21,196 7,86 14,191 21,314 6,124 10,267 10,429 0,62 -2,130 -5,204 -4,74 -10,149 -21,223 -10,74 -24,146 -43,214 -19,69 -44,129 -74,183 -31,53 -68,96 -111,127 -43,32 -95,48 -155,48 -35,0 -68,-6 -100,-19 -32,-13 -61,-30 -85,-52 -24,-22 -44,-47 -59,-75 -15,-28 -23,-56 -23,-85 0,-25 8,-44 23,-58 15,-14 33,-20 53,-20 12,0 22,2 30,7 9,5 15,14 19,28z"/>
  <path fill="#2B2A29" fill-rule="nonzero" d="M12411 7134c2,-58 11,-101 27,-127 16,-27 32,-52 47,-76 16,40 30,86 43,139 13,53 25,108 36,165 11,57 20,115 27,175 7,60 13,117 19,173 40,-40 77,-74 111,-103 35,-29 64,-53 87,-72 2,0 3,1 3,4 0,8 -1,15 -3,20 -22,69 -49,131 -82,185 -33,54 -68,105 -105,153 2,24 3,45 4,64 1,19 1,33 1,44 0,180 -3,328 -9,444 -6,115 -13,208 -22,279 -9,70 -17,122 -25,155 -8,33 -15,55 -21,66 -22,69 -48,121 -80,155 -32,34 -81,52 -148,52 -45,0 -81,-19 -105,-56 -25,-37 -43,-82 -55,-133 -12,-52 -19,-105 -21,-159 -2,-54 -3,-100 -3,-137 0,-143 27,-276 80,-398 53,-122 118,-233 193,-334l0 -677zm465 -1122c2,0 3,-1 4,-2 1,-1 3,-2 7,-2 12,0 26,4 42,12 16,8 32,20 47,36 16,16 29,36 40,60 11,24 16,52 16,84 0,66 -19,134 -56,203 -38,69 -83,131 -136,187 -53,56 -110,101 -169,135 -59,34 -111,52 -154,52 -28,0 -56,-3 -86,-8 -30,-5 -56,-13 -80,-24 -14,21 -25,40 -34,58 -9,17 -23,29 -43,34 -14,-5 -27,-23 -40,-52 -13,-29 -21,-62 -25,-99 0,-8 1,-18 3,-30 2,-12 4,-22 6,-30 -22,-37 -39,-72 -50,-103 -12,-32 -18,-68 -18,-107 0,-58 15,-119 44,-181 30,-62 68,-120 116,-173 47,-53 101,-97 162,-131 60,-34 121,-52 182,-52 57,0 107,13 148,40 42,27 66,58 74,96zm-442 529c0,5 2,11 7,18 5,7 9,10 13,10l56 0c32,0 70,-7 116,-22 45,-15 89,-36 130,-64 42,-28 77,-63 107,-105 30,-42 44,-90 44,-143 0,-24 -3,-44 -9,-62 -6,-17 -26,-26 -59,-26 -38,0 -75,11 -113,34 -38,23 -74,52 -108,90 -35,37 -68,80 -99,127 -32,48 -60,96 -86,143zm-24 1500c-14,21 -23,38 -27,52 -34,77 -53,153 -59,229 -6,76 -9,148 -9,217 0,24 1,52 1,84 1,32 3,62 7,90 4,28 9,52 16,72 7,20 16,33 28,38 6,-3 11,-27 16,-74 5,-46 9,-105 13,-177 4,-72 7,-153 9,-245 2,-92 3,-186 3,-285zm-133 -1628c4,5 7,8 9,8 6,0 11,-3 15,-8 8,-16 20,-36 37,-60 17,-24 35,-49 53,-76 19,-27 38,-52 58,-78 20,-25 38,-47 53,-66l0 -4c0,-8 -1,-13 -3,-16 -65,16 -118,52 -157,109 -40,57 -61,120 -65,189z"/>
  <path fill="#2B2A29" fill-rule="nonzero" d="M11729 7363c-35,-21 -72,-40 -112,-56 -40,-16 -81,-30 -123,-42 -22,75 -49,147 -82,216 -33,69 -72,130 -117,184 -45,54 -96,97 -153,129 -58,32 -122,48 -192,48 -59,0 -111,-14 -156,-43 -45,-29 -84,-64 -117,-106 -32,-42 -57,-85 -73,-130 -17,-45 -25,-84 -25,-117 0,-70 19,-129 57,-180 38,-50 88,-91 150,-123 62,-32 131,-56 208,-71 77,-15 154,-23 232,-23 23,0 46,1 69,3 23,2 45,5 67,9 13,-73 22,-146 28,-217 6,-71 9,-135 9,-191l0 -9c0,-106 -1,-210 -2,-311 -1,-101 -6,-191 -13,-269 -7,-78 -18,-141 -33,-188 -15,-47 -38,-71 -68,-71 -13,0 -27,12 -42,35 -15,23 -30,54 -45,91 -15,38 -29,80 -43,127 -14,47 -26,95 -36,142 -10,47 -18,92 -25,135 -6,42 -10,77 -10,104 0,23 1,50 2,80 1,30 6,60 13,91 7,31 18,60 32,88 14,28 35,52 60,71 -9,4 -19,7 -32,9 -13,2 -25,3 -37,3 -3,0 -5,0 -8,-1 -2,-1 -5,-1 -8,-1 -56,-15 -97,-63 -123,-143 -26,-80 -39,-173 -39,-280 0,-87 8,-176 24,-268 16,-92 39,-176 69,-252 30,-76 67,-139 109,-187 42,-48 90,-72 141,-72 33,0 61,5 83,16 22,11 41,26 57,46 16,20 30,44 42,71 12,27 24,58 36,93 4,14 10,37 16,71 6,34 13,87 19,159 6,72 13,168 18,287 6,119 10,269 13,450 0,50 -3,105 -10,165 -6,60 -16,122 -29,185 55,27 100,61 136,103 36,42 56,89 60,143zm-775 365c46,0 88,-14 126,-41 38,-27 73,-64 104,-110 31,-46 58,-99 81,-159 23,-60 43,-124 60,-191 -29,-4 -56,-7 -81,-9 -25,-2 -49,-3 -70,-3 -91,0 -167,5 -228,16 -61,11 -110,27 -148,48 -37,21 -64,48 -80,80 -16,32 -24,69 -24,112 0,12 5,31 15,59 10,28 26,57 46,87 21,30 47,56 80,78 32,22 72,33 118,33z"/>
  <path fill="#2B2A29" fill-rule="nonzero" d="M15546 6549c14,-16 28,-24 42,-24 32,0 57,38 77,115 20,77 30,182 30,314 0,21 0,42 0,64 0,21 -1,44 -3,68 49,-21 92,-42 129,-64 37,-21 71,-50 104,-86 33,-36 67,-83 104,-141 37,-58 80,-135 129,-231 2,-8 7,-12 15,-12 8,0 17,5 27,14 10,9 19,21 28,36 9,15 16,29 22,42 6,13 9,24 9,32l0 4c-22,72 -44,133 -68,185 -24,52 -51,99 -82,141 -31,42 -65,83 -104,121 -39,38 -83,80 -135,125 2,5 11,24 27,56 16,32 39,68 70,107 31,40 69,78 114,115 45,37 100,61 163,72 16,13 27,29 33,48 6,19 9,38 9,60 0,19 -2,41 -6,68 -10,13 -20,27 -30,40 -10,13 -22,25 -36,36 -59,-8 -113,-25 -160,-52 -47,-27 -92,-61 -133,-103 -42,-42 -81,-91 -117,-145 -37,-54 -74,-112 -111,-173l15 438c-28,27 -63,40 -107,40 -28,0 -53,-5 -77,-16 -8,-40 -12,-92 -12,-155 0,-13 0,-28 0,-44 0,-19 1,-36 3,-52 -4,-101 -7,-198 -10,-293 -3,-94 -4,-189 -4,-285l-6 -410 53 -56z"/>
  <path fill="#2B2A29" fill-rule="nonzero" d="M15025 5771c0,-6 2,-16 5,-30 4,-14 9,-29 17,-45 8,-15 18,-29 31,-41 13,-12 28,-17 45,-17 13,0 27,4 41,13 14,9 28,20 40,33 12,14 23,30 31,49 9,19 13,39 13,58 0,93 -9,183 -28,272 -19,89 -45,174 -79,256 -34,82 -74,158 -121,229 -47,70 -99,133 -156,187 62,70 119,153 172,251 53,98 95,211 128,340 6,21 11,47 16,78 5,31 9,64 13,99 4,35 6,69 9,103 2,34 3,65 3,94 0,29 -1,53 -3,72 -2,19 -7,29 -14,29 -22,0 -38,-9 -49,-26 -11,-17 -18,-34 -21,-49 -14,-89 -36,-175 -64,-258 -28,-83 -60,-161 -97,-235 -37,-73 -77,-142 -120,-206 -43,-64 -86,-122 -129,-174 -50,31 -102,55 -155,71 -53,16 -108,25 -164,25l9 495 6 238c-7,44 -21,73 -42,87 -21,14 -43,20 -66,20 -12,0 -28,-3 -51,-10 -22,-7 -36,-28 -42,-62l-11 -197 -2 -649c-20,-14 -37,-27 -52,-41 -14,-14 -22,-35 -22,-64 0,-108 24,-190 73,-246l0 -490 -2 -52 0 -258c1,-25 10,-41 27,-48 17,-7 35,-10 55,-10 16,0 33,7 51,22 18,14 28,41 29,80l19 687c50,4 107,19 170,45 63,26 127,65 192,117 46,-48 90,-102 131,-162 41,-60 82,-123 122,-188 12,-17 26,-44 43,-81 17,-37 34,-77 51,-120 17,-43 31,-87 43,-130 12,-43 18,-80 18,-109 0,-39 -12,-58 -37,-58 -12,0 -23,3 -33,10 -11,7 -18,27 -21,59l-26 -64zm-641 1034c75,-6 145,-31 211,-75 -30,-29 -58,-55 -84,-78 -22,-17 -43,-30 -64,-38 -21,-8 -41,-12 -59,-12l-11 0 6 203z"/>
  <path fill="#2B2A29" fill-rule="nonzero" d="M19029 6547c20,0 32,6 37,18 5,12 7,31 7,58 0,64 -4,119 -13,167 -9,48 -19,100 -31,155 -12,56 -25,122 -39,199 -14,77 -27,176 -39,298l0 12c0,16 2,30 7,42 5,12 11,18 19,18 20,0 44,-8 73,-24 29,-16 64,-34 105,-56 20,-11 41,-23 64,-36 23,-13 40,-20 52,-20 14,0 22,11 25,32 3,21 4,37 4,48 0,37 -11,78 -33,123 -22,45 -48,86 -80,123 -32,37 -67,68 -105,94 -39,25 -74,38 -105,38 -43,0 -79,-13 -105,-40 -27,-27 -47,-60 -61,-99 -14,-40 -23,-84 -27,-131 -4,-48 -6,-94 -6,-139 0,-66 6,-139 18,-217 12,-78 27,-155 44,-229 18,-74 36,-143 55,-207 19,-64 36,-114 52,-151 8,-19 17,-33 28,-44 11,-11 28,-21 52,-32z"/>
  <path fill="#2B2A29" fill-rule="nonzero" d="M17849 7243c43,29 89,61 138,97 49,36 98,75 147,119 49,43 95,91 139,143 44,52 82,107 115,165 9,15 13,28 13,38 0,19 -10,32 -31,39 -21,7 -44,10 -68,10 -12,0 -29,-4 -53,-13 -24,-9 -46,-21 -66,-36 -32,-23 -64,-53 -98,-88 -34,-36 -67,-72 -100,-109 -33,-37 -66,-72 -98,-106 -32,-34 -63,-60 -92,-80 -29,95 -64,168 -106,219 -42,51 -95,77 -160,77 -40,0 -74,-18 -103,-55 -28,-37 -42,-89 -42,-156 0,-42 6,-84 17,-125 12,-41 27,-77 45,-109 19,-32 40,-57 63,-75 23,-18 46,-28 69,-28 42,0 75,3 99,10 24,7 47,14 69,22 16,-56 29,-120 40,-193 11,-72 20,-145 27,-217 7,-72 12,-141 15,-207 3,-66 4,-120 4,-162 0,-77 -4,-152 -12,-225 -8,-72 -17,-141 -28,-204 -11,-64 -22,-122 -32,-175 -11,-53 -20,-101 -27,-143 0,-37 4,-61 11,-72 7,-12 24,-17 52,-17 49,0 87,18 114,55 27,37 47,83 60,138 13,55 21,114 24,178 3,64 4,122 4,174 0,100 -4,197 -12,291 -8,94 -19,186 -32,277 -14,91 -29,181 -47,271 -18,90 -38,181 -59,274zm-138 122c-24,-21 -46,-34 -65,-38 -19,-4 -35,-6 -47,-6 -24,0 -50,15 -76,45 -26,30 -39,71 -39,123 0,27 4,51 13,72 9,21 22,32 41,32 26,0 56,-17 92,-51 35,-34 62,-93 81,-178z"/>
  <path fill="#2B2A29" fill-rule="nonzero" d="M3447 11178c-30,0 -50,-12 -61,-36 -11,-24 -16,-54 -16,-92 0,-11 0,-21 0,-32 0,-13 1,-27 3,-40 6,-64 21,-149 44,-255 24,-106 50,-212 80,-318 30,-106 58,-202 86,-287 28,-85 48,-138 62,-159 10,-13 22,-28 36,-44 14,-16 31,-24 50,-24 18,0 33,9 44,26 12,17 21,36 27,58 6,19 17,60 33,123 16,64 33,131 52,201 19,70 36,135 50,195 15,60 23,95 25,105 14,80 23,119 27,119 4,0 16,-37 36,-111l160 -601c10,-29 22,-50 36,-62 14,-12 29,-18 44,-18 30,0 55,17 77,52 22,34 38,70 47,107 6,19 14,50 25,96 11,45 22,97 34,155 12,58 24,120 36,185 12,65 23,127 33,187 10,60 18,113 25,159 7,46 10,80 10,101l-9 135c-6,27 -24,48 -53,64 -2,3 -7,4 -15,4 -8,0 -15,0 -21,0 -14,0 -26,-3 -36,-8l-27 -36c-10,-48 -21,-111 -33,-189 -12,-78 -24,-155 -36,-231 -12,-76 -22,-141 -31,-197 -9,-56 -16,-84 -22,-84 -6,0 -17,29 -33,88 -16,58 -34,125 -53,199 -20,74 -39,148 -58,221 -19,73 -34,123 -46,149 -12,27 -29,43 -50,50 -22,7 -38,11 -47,14l-3 0c-10,0 -28,-7 -55,-20 -27,-13 -43,-29 -49,-48 -10,-35 -23,-90 -40,-165 -17,-76 -34,-153 -50,-231 -17,-78 -33,-147 -47,-205 -15,-58 -25,-88 -31,-88 -6,0 -16,29 -31,86 -15,57 -30,123 -46,199 -16,76 -32,151 -49,227 -17,76 -29,133 -37,173 -6,29 -20,53 -42,72 -22,19 -41,28 -56,28z"/>
  <path fill="#2B2A29" fill-rule="nonzero" d="M1521 9394c1,6 2,14 2,23 0,21 -8,32 -24,32 -17,0 -37,-12 -58,-35 -22,-23 -32,-51 -32,-84 0,-58 9,-111 28,-158 19,-47 40,-88 65,-122 24,-34 49,-60 73,-78 24,-18 43,-28 56,-28 43,0 82,15 115,46 34,31 64,74 92,130 29,-52 64,-96 106,-132 42,-36 91,-54 149,-54 70,0 132,91 186,274 53,183 101,448 142,795 17,-139 38,-273 63,-403 24,-129 53,-243 84,-342 32,-98 67,-177 107,-236 40,-59 83,-88 131,-88 49,0 89,29 120,88 31,59 56,147 77,265 20,118 37,265 51,442 14,177 27,384 40,621 6,97 14,189 25,278 11,89 27,171 47,246 21,75 47,141 80,198 32,57 73,102 122,135 24,33 37,57 37,72 0,8 -4,12 -11,12 -1,0 -3,0 -4,-1 -1,-1 -4,-1 -6,-1 -17,-4 -40,-14 -68,-30 -28,-16 -56,-35 -84,-56 -28,-21 -54,-42 -78,-64 -24,-21 -39,-40 -46,-55 -45,-89 -81,-195 -108,-319 -27,-124 -49,-253 -66,-388 -17,-135 -30,-270 -40,-406 -10,-135 -19,-258 -28,-368 -9,-110 -18,-203 -29,-278 -11,-75 -26,-122 -46,-139 -16,15 -34,54 -54,114 -20,61 -41,136 -61,226 -21,90 -42,191 -63,303 -21,112 -39,226 -55,343 -16,117 -28,233 -38,348 -9,115 -14,221 -14,317l0 99c0,4 0,7 1,9 1,2 1,5 1,9l0 3c0,23 -9,41 -26,54 -17,13 -36,19 -56,19 -20,0 -38,-6 -54,-17 -16,-12 -24,-29 -24,-52 -9,-95 -18,-201 -27,-319 -9,-118 -20,-239 -31,-362 -12,-124 -24,-246 -39,-366 -14,-121 -30,-231 -46,-330 -17,-99 -35,-184 -55,-255 -20,-70 -42,-117 -67,-141 -29,6 -56,24 -82,55 -26,31 -51,71 -76,122 27,116 47,244 59,384 12,140 18,281 18,424 0,100 -3,198 -9,294 -6,96 -14,183 -25,264 -11,80 -24,151 -39,211 -15,61 -32,108 -51,141 -12,19 -28,37 -50,54 -22,16 -40,27 -56,30l-9 0c-12,0 -22,-5 -32,-14 -10,-10 -17,-17 -19,-23 -4,-8 -10,-28 -18,-59 -8,-32 -16,-74 -25,-126 -9,-52 -16,-112 -23,-180 -6,-68 -10,-141 -10,-220 0,-91 3,-186 10,-287 6,-100 15,-200 25,-298 10,-98 22,-195 35,-288 13,-94 26,-178 39,-253 -24,-106 -57,-207 -97,-301 -1,-4 -5,-6 -11,-6 -10,0 -24,7 -41,20 -17,14 -34,31 -51,52 -17,21 -31,44 -43,68 -12,24 -18,48 -18,71 0,33 13,57 39,72zm296 727c0,-60 -1,-119 -3,-178 -2,-59 -6,-117 -12,-175 -27,133 -48,278 -63,435 -14,156 -22,317 -22,481 0,21 1,49 4,84 3,35 7,70 12,104 5,35 10,65 15,91 5,26 10,40 14,42 13,-143 25,-288 37,-436 12,-148 17,-297 17,-448z"/>
  <path fill="#2B2A29" fill-rule="nonzero" d="M6886 9916c0,-13 1,-29 4,-46 3,-17 10,-26 22,-26 18,0 42,20 73,60 31,40 61,96 92,169 31,73 57,159 79,259 22,99 33,209 33,328 0,53 -4,107 -13,161 -9,54 -22,104 -39,149 -17,45 -37,82 -61,109 -24,28 -51,42 -83,42 -24,0 -48,-16 -74,-48 -26,-32 -50,-72 -73,-119 -23,-48 -44,-99 -65,-153 -21,-54 -40,-105 -58,-153 -18,-48 -33,-88 -44,-119 -12,-32 -21,-48 -27,-48 -6,0 -12,13 -18,40 -2,11 -4,38 -6,82 -2,44 -4,93 -6,147 -2,54 -4,108 -6,161 -2,53 -5,93 -9,119 -2,13 -4,29 -7,46 -3,17 -7,34 -13,52 -6,17 -13,32 -22,44 -9,12 -20,18 -34,18 -20,0 -36,-10 -49,-30 -13,-20 -23,-44 -30,-74 -7,-29 -12,-59 -15,-90 -3,-31 -4,-56 -4,-78 0,-45 4,-113 12,-203 8,-90 19,-180 34,-271 15,-90 33,-169 55,-237 22,-68 46,-101 74,-101 20,0 43,24 71,72 28,48 58,105 90,173 33,68 67,139 102,215 36,76 70,141 104,197 10,19 16,28 18,28 10,0 15,-29 15,-88 0,-80 -3,-147 -9,-203 -6,-56 -14,-109 -24,-161 -10,-52 -22,-106 -36,-163 -14,-57 -29,-125 -44,-205l-9 -44 0 -12z"/>
  <path fill="#2B2A29" fill-rule="nonzero" d="M5907 9022c135,174 235,365 299,572 64,208 96,437 96,688 0,64 -2,140 -5,227 -4,88 -13,174 -27,259 -14,85 -36,162 -65,232 -29,70 -68,117 -119,142 -26,-2 -58,-20 -95,-54 -37,-34 -77,-80 -118,-139 -41,-59 -83,-127 -127,-204 -44,-77 -86,-160 -126,-248 -40,-88 -77,-179 -111,-274 -34,-95 -62,-187 -85,-278 -6,108 -12,206 -19,294 -7,88 -17,173 -28,256 -12,83 -26,168 -42,253 -17,86 -36,180 -57,282 -6,27 -13,52 -23,75 -9,23 -29,35 -59,35 -12,0 -22,-6 -30,-19 -9,-13 -17,-28 -24,-46 -7,-18 -13,-39 -16,-62 -4,-23 -5,-46 -5,-70 0,-10 0,-18 0,-26 0,-10 1,-19 4,-29 16,-73 32,-156 47,-249 16,-93 32,-192 47,-297 16,-105 32,-214 49,-327 17,-113 33,-227 51,-343 -26,-68 -47,-136 -64,-204 -17,-69 -25,-127 -25,-175l0 -20c3,-52 18,-100 45,-145 27,-44 68,-67 123,-67 23,0 43,14 60,43 17,29 26,58 26,87 -1,62 -5,126 -10,191 -5,66 -9,115 -13,149 -4,34 -5,51 -5,52 0,1 1,1 2,1 19,56 43,125 73,206 30,81 64,166 101,255 37,89 76,177 117,265 40,88 80,167 119,238 39,70 76,127 110,171 35,43 65,65 91,65 17,-77 30,-154 38,-232 8,-77 12,-155 12,-232 0,-106 -6,-212 -19,-319 -13,-106 -30,-211 -52,-314 -22,-103 -46,-204 -74,-303 -28,-99 -56,-194 -85,-287 0,-14 2,-26 5,-38 4,-12 8,-25 14,-41zm-568 252c0,19 3,42 9,67 6,25 14,51 24,78 6,-33 10,-65 14,-97 4,-32 5,-62 5,-91 0,-15 -1,-30 -4,-43 -3,-14 -8,-20 -15,-20 -16,0 -25,8 -28,25 -3,16 -4,44 -4,83z"/>
  <path fill="#2B2A29" fill-rule="nonzero" d="M9373 10858c-38,-80 -64,-157 -80,-233 -16,-76 -24,-148 -24,-217 0,-96 14,-183 43,-263 29,-80 66,-149 113,-209 46,-60 100,-106 162,-139 61,-33 125,-50 190,-50 55,0 102,11 139,32 41,24 62,44 62,60 0,13 -8,23 -24,28 -16,5 -30,8 -42,8 -28,3 -57,9 -87,18 -31,9 -60,21 -87,34 -57,19 -106,48 -147,88 -41,40 -75,85 -102,135 -28,50 -48,105 -61,163 -13,58 -19,115 -19,171 0,48 6,93 18,135 59,-207 118,-366 176,-478 58,-111 125,-182 200,-211 47,-21 90,-32 127,-32 32,0 63,5 93,14 31,9 60,26 87,50 22,19 40,58 53,117 14,60 21,115 21,165 0,111 -20,212 -61,300 -41,89 -92,166 -156,231 -63,65 -135,115 -215,151 -80,36 -160,55 -239,58 -6,24 -15,44 -27,62 -12,17 -26,34 -42,50 -26,-45 -44,-86 -56,-123 -12,-37 -18,-70 -18,-99l0 -16zm566 -764c-75,0 -140,55 -194,165 -54,110 -106,258 -156,444l47 0c36,0 77,-13 125,-40 47,-27 93,-62 136,-105 43,-44 80,-95 110,-153 30,-58 44,-119 44,-183 0,-42 -10,-74 -31,-96 -21,-21 -48,-32 -82,-32z"/>
  <path fill="#2B2A29" fill-rule="nonzero" d="M8241 9126c-3,12 -4,24 -4,38 0,12 -3,21 -9,29 -35,41 -70,86 -106,136 -36,50 -69,110 -99,180 -30,70 -55,151 -73,243 -19,93 -28,202 -28,327 0,126 12,238 37,337 24,99 60,184 106,253 46,70 102,123 167,161 65,38 139,56 221,56 66,0 128,-23 184,-68 57,-45 106,-106 147,-181 41,-75 73,-162 96,-259 23,-98 35,-199 35,-306 0,-108 -12,-220 -37,-336 -24,-116 -56,-222 -94,-317 -38,-96 -81,-174 -128,-235 -47,-61 -94,-91 -138,-91 -33,0 -56,9 -70,26 -14,17 -21,40 -21,67 0,25 6,52 17,81 12,29 26,56 44,80 18,24 39,44 63,61 24,16 48,25 72,25l-37 93c-9,6 -20,9 -35,9 -32,0 -64,-10 -98,-29 -34,-19 -64,-44 -92,-75 -27,-31 -50,-66 -67,-106 -17,-40 -26,-80 -26,-120 0,-56 8,-103 23,-142 15,-39 35,-70 60,-93 25,-23 54,-40 87,-49 33,-10 68,-14 104,-14 52,0 110,28 174,85 64,57 124,137 179,240 55,103 102,227 139,371 37,144 56,303 56,477 0,151 -18,288 -55,413 -37,125 -85,231 -145,320 -60,89 -128,158 -204,207 -76,49 -155,74 -235,74 -112,0 -213,-25 -301,-74 -88,-49 -163,-119 -224,-209 -61,-90 -108,-197 -140,-322 -32,-125 -49,-261 -49,-410 0,-89 3,-170 10,-245 6,-74 19,-148 39,-220 19,-72 47,-146 82,-222 35,-75 81,-158 137,-249 33,-52 68,-89 106,-112 37,-22 75,-37 112,-45l17 26 0 113z"/>
  <path fill="#2B2A29" fill-rule="nonzero" d="M12308 9806c49,-45 114,-68 193,-68 198,0 349,64 454,193 105,129 157,314 157,555 0,82 -11,155 -34,219 -23,64 -53,117 -92,161 -39,44 -83,78 -135,101 -51,24 -106,36 -163,36 -24,0 -43,-1 -58,-4 -15,-3 -36,-7 -64,-12 -2,138 -4,270 -7,396 -3,126 -9,231 -19,316 -16,21 -29,36 -39,44 -10,8 -23,12 -39,12 -30,0 -57,-19 -83,-56 -6,-37 -9,-83 -10,-137 -1,-54 -1,-117 -1,-189 0,-69 1,-137 1,-205 1,-68 1,-153 1,-257l-71 -44c-22,-13 -42,-25 -62,-34 -20,-9 -30,-35 -30,-78 0,-53 10,-110 30,-171l139 68c2,-48 5,-103 9,-165 4,-62 10,-127 18,-193 8,-66 19,-132 33,-197 14,-65 32,-124 53,-177 -10,-3 -20,-4 -30,-4 -8,0 -17,0 -27,0 -24,0 -47,3 -70,8 -23,5 -51,13 -84,24l-6 0c-12,0 -18,-8 -18,-24 0,-24 18,-64 53,-119zm246 127c4,133 8,259 13,378 5,119 7,252 7,398 34,8 60,13 79,16 19,3 43,4 73,4 63,0 110,-28 141,-84 31,-56 46,-126 46,-211 0,-45 -6,-92 -18,-141 -12,-49 -32,-96 -59,-141 -28,-45 -64,-87 -110,-125 -45,-38 -103,-70 -172,-94z"/>
  <path fill="#2B2A29" fill-rule="nonzero" d="M10719 9015c42,-56 94,-99 155,-129 62,-30 129,-45 203,-45 60,0 125,10 194,29 69,19 137,47 205,84 68,37 132,81 194,132 62,51 117,109 164,174 47,65 85,135 113,211 28,76 42,157 42,242 0,83 -20,160 -59,232 -40,71 -92,134 -156,187 -65,53 -138,95 -220,125 -82,30 -165,45 -250,45 -12,0 -24,0 -38,-1 -14,-1 -36,-4 -68,-10 -1,23 -2,49 -2,78 0,29 0,60 0,93 0,54 1,114 2,181 1,67 4,142 6,227 -1,37 -13,70 -33,101 -21,31 -44,51 -70,61 -13,0 -22,-4 -26,-13 -4,-9 -12,-24 -24,-45 -3,-21 -6,-42 -9,-61 -3,-19 -6,-40 -9,-61 -1,-17 -3,-39 -3,-64 -1,-25 -1,-54 -1,-87l4 -394 0 -64c-29,-12 -60,-29 -95,-52 -35,-23 -67,-51 -96,-83 -29,-32 -54,-67 -74,-104 -20,-38 -30,-77 -30,-117 0,-64 18,-122 53,-175 35,-53 90,-93 163,-120 6,-2 18,-6 36,-13 18,-7 30,-10 36,-10 1,-39 2,-75 2,-110 0,-37 1,-70 4,-98 3,-37 8,-72 15,-107 7,-35 25,-71 54,-110 9,8 17,20 24,36 7,16 14,34 21,52 6,18 12,37 16,55 4,18 6,33 6,45l15 240c47,0 87,5 119,16 32,11 56,25 74,42 18,17 31,37 38,58 7,21 11,43 11,67 0,62 -22,96 -65,101 4,-14 6,-27 6,-41 0,-31 -13,-52 -38,-64 -25,-12 -72,-17 -141,-17l4 356c33,8 68,12 104,12 37,0 85,-7 143,-20 58,-14 115,-35 170,-64 55,-29 103,-67 142,-114 40,-47 59,-106 59,-175 0,-83 -15,-158 -46,-225 -31,-67 -71,-126 -121,-177 -50,-51 -105,-96 -165,-133 -60,-38 -121,-68 -181,-91 -60,-23 -117,-41 -170,-52 -53,-12 -96,-17 -129,-17 -42,0 -87,1 -136,4 -49,3 -95,6 -138,10l-4 -32zm309 718c-14,0 -32,0 -53,1 -21,1 -37,3 -49,7 -27,8 -51,20 -72,36 -21,16 -31,40 -31,71 0,27 7,50 22,70 14,19 32,36 53,51 21,14 43,27 67,38 24,11 45,19 64,25l0 -298z"/>
  <path fill="#2B2A29" fill-rule="nonzero" d="M16360 9654c42,0 79,9 113,28 34,19 59,42 77,72 6,11 12,23 18,36 6,13 9,28 9,44 0,16 -2,28 -6,36 -24,-13 -43,-21 -58,-24 -15,-3 -29,-4 -43,-4 -81,0 -157,9 -228,28 -71,19 -134,48 -190,88 -55,40 -99,92 -130,157 -32,65 -47,144 -47,237 0,80 9,143 28,189 19,46 45,82 80,107 35,25 75,42 122,50 46,8 96,12 150,12 0,-37 -1,-69 -3,-96 -2,-27 -3,-49 -3,-68 0,-82 2,-162 7,-239 5,-77 16,-146 33,-207 17,-61 40,-110 70,-147 30,-37 70,-56 122,-56 34,0 60,13 80,40 20,27 35,59 44,98 10,38 16,80 19,125 3,45 4,86 4,123 0,56 -2,112 -6,169 -4,57 -12,113 -25,167 -13,54 -32,106 -56,155 -25,49 -58,92 -99,129 2,56 5,105 9,147 4,42 8,85 13,127 5,42 11,86 18,129 7,44 14,94 22,149 6,45 18,101 37,169 19,68 28,124 28,169 0,40 -11,60 -33,60 -53,0 -97,-27 -132,-80 -35,-53 -62,-123 -82,-209 -20,-86 -35,-182 -44,-289 -10,-106 -16,-212 -18,-318 -79,-3 -153,-13 -222,-30 -69,-17 -130,-48 -182,-92 -52,-44 -93,-105 -123,-183 -30,-78 -44,-180 -44,-304 0,-135 18,-247 53,-336 36,-89 84,-160 144,-213 60,-53 131,-91 213,-113 82,-23 169,-34 262,-34zm74 1027c6,-8 11,-15 16,-20 5,-5 10,-15 16,-28 22,-48 37,-94 44,-137 8,-44 12,-100 12,-169 0,-122 -10,-214 -30,-275 -28,21 -44,68 -50,139 -6,72 -9,150 -9,235l0 255z"/>
  <path fill="#2B2A29" fill-rule="nonzero" d="M14560 8904c-12,21 -21,46 -29,74 -8,28 -12,58 -12,91l0 20c-35,41 -70,86 -106,136 -36,50 -69,110 -99,180 -30,70 -55,151 -73,243 -19,93 -28,202 -28,327 0,122 12,230 35,326 23,96 55,178 97,248 19,-44 44,-83 77,-116 32,-33 67,-54 105,-64 14,-4 29,-7 43,-9 14,-2 28,-3 41,-3 42,0 81,8 118,23 37,15 72,36 106,61 34,25 66,54 96,85 30,32 60,64 88,97 59,-77 105,-173 138,-288 33,-115 50,-237 50,-366 0,-108 -12,-220 -37,-336 -24,-116 -56,-222 -94,-317 -38,-96 -80,-174 -126,-235 -46,-61 -91,-91 -136,-91l-4 0c-33,2 -56,11 -70,28 -14,16 -21,38 -21,65 0,25 6,52 17,81 12,29 26,56 44,80 18,24 39,44 63,61 24,16 48,25 72,25l-37 93c-9,6 -20,9 -35,9 -16,0 -33,-2 -51,-7 -18,-5 -33,-8 -44,-10 -23,-4 -46,-19 -68,-46 -22,-27 -42,-57 -60,-90 -18,-33 -32,-66 -43,-100 -11,-34 -16,-59 -16,-77 0,-56 8,-103 23,-142 15,-39 35,-70 60,-93 25,-23 54,-40 87,-49 33,-10 68,-14 104,-14 52,0 110,28 174,85 64,57 124,137 179,240 55,103 102,227 139,371 37,144 56,303 56,477 0,170 -22,322 -67,455 -45,133 -103,245 -175,336 24,25 49,48 73,68 24,20 50,36 76,48 19,10 40,14 65,14 27,0 46,-7 56,-20l0 17c0,33 -8,66 -23,100 -15,34 -33,52 -53,54 -7,2 -14,3 -19,3 -6,0 -12,0 -19,0 -55,0 -105,-15 -150,-46 -45,-31 -89,-69 -131,-113 -86,66 -177,99 -272,99 -112,0 -213,-25 -301,-74 -88,-49 -163,-119 -224,-209 -61,-90 -108,-197 -140,-322 -32,-125 -49,-261 -49,-410 0,-89 3,-170 10,-245 6,-74 19,-148 39,-220 19,-72 47,-146 82,-222 35,-75 81,-158 137,-249 33,-52 73,-92 120,-120 47,-28 89,-46 126,-54l17 38zm-110 1767c0,2 0,3 -1,3 -1,0 -1,1 -1,3 85,71 183,107 296,107 49,0 97,-14 145,-41 -24,-27 -49,-52 -73,-75 -24,-23 -50,-44 -76,-64 -23,-10 -49,-19 -78,-29 -29,-10 -58,-14 -86,-14 -29,0 -54,8 -77,23 -22,15 -38,44 -49,87z"/>
  <path fill="#2B2A29" fill-rule="nonzero" d="M18826 9904c-34,-21 -50,-46 -50,-76 0,-21 9,-42 28,-64 19,-21 41,-40 67,-56 26,-16 52,-29 80,-40 28,-11 50,-16 68,-16 162,0 288,47 378,141 90,94 135,229 135,404 0,61 -11,116 -33,165 -22,49 -50,92 -86,129 34,53 64,112 92,177 28,65 55,129 83,193 8,19 12,40 12,64 0,37 -9,68 -28,92 -19,24 -37,36 -55,36 -10,0 -19,-5 -27,-16 -2,-3 -11,-19 -27,-50 -16,-31 -36,-67 -59,-109 -24,-42 -49,-88 -77,-137 -28,-49 -54,-95 -80,-137 -47,19 -97,28 -148,28 -43,0 -79,-18 -105,-54 -27,-36 -40,-80 -40,-133 0,-34 17,-66 50,-94 34,-28 67,-42 101,-42 65,0 123,15 172,44 40,-61 59,-117 59,-167 0,-72 -13,-129 -39,-171 -26,-42 -57,-75 -95,-98 -38,-23 -77,-38 -119,-46 -42,-8 -78,-12 -110,-12 -28,0 -54,7 -79,20 -25,13 -48,21 -70,24zm77 963c-4,29 -12,51 -25,66 -13,15 -28,22 -46,22 -28,0 -56,-16 -84,-48 -29,-32 -43,-74 -43,-127 0,-77 2,-147 6,-211 4,-64 10,-126 18,-187 8,-61 18,-123 31,-185 13,-62 28,-132 46,-209 4,-27 17,-46 40,-60 23,-13 46,-20 70,-20 20,0 37,5 50,16 14,11 21,27 21,48 -28,154 -46,304 -55,452 -9,147 -18,295 -28,444zm184 -330c10,0 23,-5 39,-14 16,-9 32,-21 47,-34 -22,-34 -37,-52 -44,-52 -51,0 -77,13 -77,40 0,40 12,60 36,60z"/>
  <path fill="#2B2A29" fill-rule="nonzero" d="M17391 9351c1,-35 12,-61 31,-78 19,-17 39,-26 59,-26 17,0 33,6 46,19 14,13 21,33 21,62 3,54 5,102 5,143 1,42 1,87 1,138l0 93c78,2 156,21 234,56 78,36 151,83 217,141 39,-23 76,-51 110,-83 35,-32 65,-67 91,-106 26,-39 46,-81 60,-127 14,-46 22,-96 22,-148 0,-77 -19,-140 -56,-187 -37,-47 -81,-84 -131,-110 -50,-26 -99,-43 -148,-52 -49,-9 -85,-13 -108,-13 -45,0 -97,5 -159,14 -61,10 -120,24 -176,42 -56,18 -104,40 -145,65 -40,25 -61,52 -63,81l0 17c0,21 4,38 12,49 8,12 20,26 36,43 -23,8 -46,12 -69,12 -40,0 -70,-14 -88,-42 -19,-28 -28,-60 -28,-97 0,-50 14,-95 43,-135 29,-40 66,-75 112,-106 46,-31 97,-57 153,-78 56,-21 111,-39 166,-52 55,-14 105,-24 152,-30 47,-7 83,-10 109,-10 62,0 127,11 194,33 68,22 129,57 186,104 56,47 102,108 138,181 36,73 54,160 54,261 0,77 -9,150 -26,217 -17,68 -40,129 -68,185 -28,56 -60,106 -96,151 -36,44 -73,82 -110,113 26,46 50,91 73,133 23,42 47,93 71,151 24,58 51,129 79,214 28,85 59,192 94,322 4,15 6,29 6,41 0,19 -3,35 -10,48 -6,13 -15,19 -27,19 -20,0 -39,-21 -56,-64 -39,-93 -75,-175 -109,-248 -34,-72 -68,-138 -101,-197 -34,-59 -69,-114 -106,-165 -37,-51 -77,-103 -122,-155 -55,27 -116,48 -184,64 -68,15 -135,23 -200,23l-43 0c-1,46 -2,86 -2,119 0,33 0,73 0,122 0,50 1,101 2,154 1,52 4,105 9,159l0 14c0,41 -8,72 -25,94 -17,22 -35,33 -55,33 -20,0 -38,-10 -53,-29 -15,-19 -24,-49 -27,-90 -9,-98 -13,-187 -13,-267 0,-56 1,-112 3,-167 2,-55 5,-114 8,-178 -37,-15 -65,-49 -83,-100 -18,-51 -27,-106 -27,-164 0,-31 3,-61 8,-90 5,-29 13,-55 23,-78 10,-23 22,-42 37,-58 14,-15 31,-24 50,-26l0 -139c0,-39 0,-72 0,-101 0,-31 -1,-67 -4,-107l2 -29zm149 695c9,2 19,3 30,4 12,1 24,1 39,1 19,0 39,-1 60,-3 22,-2 42,-5 62,-9 19,-4 36,-8 51,-13 14,-5 24,-11 30,-19 -9,-14 -21,-25 -36,-33 -15,-9 -32,-16 -51,-22 -19,-6 -38,-10 -58,-12 -20,-2 -40,-3 -58,-3 -13,0 -26,0 -38,1 -12,1 -22,2 -29,4l-4 41 2 61z"/>
  <path fill="#2B2A29" fill-rule="nonzero" d="M3340 13378c-4,5 -6,9 -6,12 0,5 2,8 6,8 51,27 97,44 136,54 40,9 86,17 139,22 45,5 94,11 147,16 52,5 101,19 147,42 45,23 83,57 113,103 30,46 44,112 44,197 0,96 -17,170 -52,225 -35,54 -75,95 -120,121 -45,27 -90,43 -135,50 -44,7 -78,10 -99,10 -57,0 -112,-11 -163,-32 -51,-21 -96,-48 -135,-82 -39,-33 -70,-70 -93,-109 -24,-40 -36,-78 -36,-115 0,-42 7,-78 22,-107 15,-29 34,-52 58,-70 24,-17 50,-29 79,-36 29,-7 57,-10 84,-10 51,0 108,9 169,28 61,19 120,46 175,84 4,5 6,11 6,16 0,8 -2,15 -6,20 -10,13 -29,29 -58,46 -29,17 -60,26 -93,26 -20,0 -41,-5 -64,-14 -23,-9 -46,-19 -71,-30 -25,-11 -50,-21 -76,-30 -26,-9 -51,-14 -77,-14 -20,0 -39,5 -56,16 -18,11 -27,36 -27,76 0,21 7,38 21,50 14,12 31,21 52,26 21,5 44,9 70,10 26,1 50,2 74,2 12,0 41,-3 86,-10 45,-7 93,-18 142,-34 49,-16 93,-36 132,-60 39,-24 58,-52 58,-84 0,-32 -15,-59 -46,-82 -31,-23 -67,-41 -110,-56 -42,-15 -86,-26 -130,-34 -44,-8 -81,-12 -108,-12 -77,-3 -138,-8 -184,-16 -45,-8 -81,-20 -105,-36 -25,-16 -41,-36 -47,-60 -7,-24 -10,-54 -10,-92 0,-56 12,-103 37,-143 25,-40 56,-73 95,-100 39,-27 80,-48 125,-64 44,-16 86,-28 126,-36 40,-8 73,-13 101,-16 28,-3 43,-4 47,-4 67,0 129,7 187,20 57,13 109,27 154,40 10,3 17,7 22,14 5,7 7,21 7,42 -2,21 -8,38 -19,52 -11,13 -24,23 -40,28 -10,5 -25,10 -44,14 -20,4 -35,7 -44,10 -24,5 -56,10 -98,14 -42,4 -85,8 -130,12 -45,4 -89,8 -130,12 -42,4 -73,9 -95,14 -43,11 -76,19 -98,26 -22,7 -40,17 -53,30z"/>
  <path fill="#2B2A29" fill-rule="nonzero" d="M2435 13628c0,29 -12,53 -37,71 -24,18 -49,28 -73,28 -20,0 -35,-6 -45,-17 -46,-54 -96,-101 -150,-142 -54,-41 -123,-61 -206,-61 -26,0 -52,3 -79,10 -27,7 -51,19 -74,36 -23,17 -42,41 -56,71 -14,30 -22,68 -22,114 0,41 10,77 30,109 20,32 46,60 78,85 32,25 67,47 106,65 39,18 77,33 113,45 37,12 70,20 100,26 30,6 53,9 69,9 104,0 190,-20 258,-61 68,-41 122,-90 162,-148 40,-58 67,-118 83,-181 16,-63 24,-116 24,-161 0,-81 -15,-145 -44,-193 -29,-47 -68,-84 -117,-109 -48,-25 -103,-42 -165,-52 -62,-10 -125,-18 -190,-25 -65,-7 -128,-15 -190,-26 -62,-11 -117,-29 -165,-56 -48,-27 -87,-66 -117,-116 -29,-50 -44,-119 -44,-206 0,-106 22,-199 67,-280 45,-80 103,-147 176,-201 73,-54 155,-94 247,-120 92,-26 186,-39 281,-39 85,0 160,22 224,65 65,43 113,109 145,196 6,14 9,29 9,46 0,25 -6,49 -17,71 -12,22 -26,42 -43,59 -17,17 -35,31 -53,41 -18,10 -33,14 -46,14l-13 -3c-3,0 -4,-2 -4,-6 0,-2 1,-4 2,-6 7,-14 17,-31 28,-52 12,-21 17,-42 17,-64 0,-8 -1,-14 -2,-17 -3,-10 -13,-21 -30,-33 -17,-13 -40,-24 -68,-35 -28,-11 -62,-20 -100,-28 -39,-8 -81,-12 -125,-12 -46,0 -97,6 -154,19 -57,13 -110,34 -161,64 -50,30 -93,70 -127,120 -35,50 -52,113 -52,188 0,60 15,106 44,138 29,32 68,55 115,70 47,14 102,25 164,32 62,7 124,14 188,23 63,9 126,23 188,43 62,20 117,52 164,96 47,43 86,102 115,175 29,73 44,169 44,287 0,129 -24,239 -72,327 -48,89 -106,161 -174,216 -68,55 -137,95 -209,119 -72,24 -132,36 -179,36 -35,0 -75,-5 -121,-16 -46,-11 -94,-26 -142,-46 -49,-20 -97,-46 -144,-77 -47,-31 -88,-66 -125,-106 -37,-40 -66,-85 -88,-135 -22,-50 -33,-105 -33,-165 0,-70 12,-129 36,-178 24,-49 54,-89 91,-120 37,-31 77,-54 121,-68 44,-14 87,-22 128,-22 42,0 82,3 121,9 39,6 77,18 113,38 37,19 72,46 107,81 35,35 68,81 101,139z"/>
  <path fill="#2B2A29" fill-rule="nonzero" d="M6565 14239c-12,13 -22,23 -30,28 -8,5 -22,8 -42,8 -24,0 -48,-13 -73,-40 -25,-27 -42,-50 -52,-72 -22,-45 -35,-100 -40,-165 -5,-65 -7,-124 -7,-177 0,-146 9,-278 27,-396 18,-118 38,-222 59,-312 -174,-93 -261,-203 -261,-330 0,-21 3,-49 10,-84 7,-34 20,-57 40,-68 8,0 13,5 16,14 3,9 4,21 4,34 0,11 0,22 1,34 1,12 3,21 7,26 43,48 87,81 132,100 44,19 92,33 144,44 12,-13 25,-31 40,-54 15,-23 32,-45 52,-68 20,-23 42,-42 67,-58 25,-16 52,-24 82,-24 18,0 37,3 56,8 20,5 39,17 56,36 18,19 33,46 44,84 12,37 18,86 18,147 0,48 -11,87 -34,117 -23,31 -49,54 -80,70 -31,16 -63,27 -96,32 -34,5 -61,8 -83,8l-15 0c-22,111 -36,226 -42,344 -6,118 -9,233 -9,344 0,66 1,131 1,193 1,62 2,121 4,177zm98 -1333c16,5 30,8 42,8 20,0 44,-9 73,-26 29,-17 43,-36 43,-58 0,-13 -3,-26 -10,-38 -7,-12 -16,-18 -28,-18 -26,0 -51,11 -77,34 -26,23 -40,55 -42,98z"/>
  <path fill="#2B2A29" fill-rule="nonzero" d="M5409 14264c-14,-14 -28,-26 -40,-36 -12,-11 -24,-26 -36,-45 -33,-58 -63,-124 -91,-197 -27,-73 -51,-149 -70,-227 -19,-78 -35,-157 -45,-236 -11,-79 -16,-153 -16,-220 0,-149 19,-287 57,-416 38,-128 88,-255 150,-381 -70,-29 -140,-64 -207,-106 -68,-42 -127,-80 -177,-114 -17,-12 -35,-26 -53,-43 -18,-17 -35,-36 -50,-56 -15,-20 -27,-42 -37,-67 -9,-24 -14,-50 -14,-77 0,-29 11,-57 33,-84 22,-27 48,-41 77,-41l9 0c1,0 2,2 2,6 0,4 -1,7 -2,9 -33,52 -50,92 -50,119 0,17 6,33 17,48 12,14 27,31 45,51 22,23 51,45 87,67 37,21 77,42 121,61 44,19 90,36 138,51 48,14 95,27 139,36 95,-126 204,-221 328,-285 124,-65 250,-97 380,-97 13,0 27,0 42,1 15,1 29,4 41,10 12,6 23,14 31,25 9,11 13,26 13,45 0,91 -18,169 -55,235 -37,66 -82,120 -137,162 -55,42 -114,74 -178,94 -64,20 -123,30 -178,30 -33,0 -67,-2 -100,-7 -34,-5 -69,-12 -105,-22 -60,133 -109,281 -145,443 -36,162 -54,325 -54,490 0,98 7,194 22,287 14,93 38,181 71,264 24,62 47,110 67,145 20,35 30,60 30,75 0,10 -6,14 -17,14 -12,0 -27,-3 -45,-9zm183 -1868c35,6 70,9 108,9 76,0 149,-17 218,-51 69,-34 122,-97 160,-190l-17 0c-29,0 -57,4 -85,12 -28,8 -50,14 -66,20 -55,17 -110,43 -165,77 -55,34 -106,75 -152,123z"/>
  <path fill="#2B2A29" fill-rule="nonzero" d="M9460 14069c-22,-109 -33,-211 -33,-306 0,-281 83,-557 249,-828 14,-13 26,-20 36,-20 20,0 33,24 39,72 -26,111 -49,222 -71,330 -22,109 -40,219 -53,330 -4,29 -7,57 -9,84 -2,27 -3,50 -3,72 0,56 5,100 16,133 11,33 33,50 67,50 38,0 66,-17 86,-50 20,-33 38,-80 53,-141 16,-61 32,-133 49,-217 17,-84 40,-176 70,-277 32,-106 58,-159 80,-159 14,0 29,28 44,84 43,157 74,286 90,388 17,102 29,193 37,273l12 171 0 36c0,98 -28,147 -83,147 -10,0 -20,-1 -30,-4 -10,-3 -21,-7 -33,-12 -22,-37 -33,-78 -33,-123 0,-32 -1,-64 -3,-98 -2,-33 -5,-67 -9,-101l-12 -139c-18,82 -41,153 -70,211 -29,58 -60,106 -93,143 -34,37 -67,64 -101,82 -34,17 -62,26 -86,26l-3 0c-99,-3 -167,-54 -205,-155z"/>
  <path fill="#2B2A29" fill-rule="nonzero" d="M7986 12178c22,-23 37,-35 47,-35 12,0 17,13 17,38 0,19 -3,43 -9,72 -6,29 -12,62 -19,99 -23,106 -41,215 -53,327 -12,112 -18,228 -18,348 0,131 5,262 15,391 10,129 30,245 59,348 29,102 71,185 125,249 54,64 125,96 213,96 55,0 112,-22 173,-67 60,-44 117,-113 168,-206 -20,-62 -37,-124 -51,-187 -14,-63 -24,-130 -31,-201 -7,-71 -12,-148 -15,-230 -3,-82 -4,-173 -4,-274 0,-29 2,-69 5,-120 4,-51 9,-106 17,-165 8,-59 18,-119 30,-180 12,-61 27,-116 43,-165 17,-49 35,-90 56,-122 21,-32 45,-48 72,-48 37,0 69,16 94,48 25,32 46,73 63,123 17,50 29,108 39,174 9,66 16,131 21,197 4,66 7,130 8,193 1,63 1,117 1,164 0,133 -14,270 -41,410 -27,140 -67,271 -119,393 29,75 66,164 112,267 23,25 35,56 35,93 0,31 -8,58 -23,83 -15,24 -33,36 -55,36 -16,0 -32,-9 -50,-26 -24,-46 -47,-90 -68,-132 -21,-42 -40,-82 -57,-120 -56,87 -120,157 -193,210 -73,53 -152,80 -238,80 -114,0 -207,-31 -281,-94 -73,-63 -131,-148 -174,-256 -42,-108 -72,-234 -88,-378 -17,-144 -25,-297 -25,-459 0,-178 17,-351 51,-519 34,-168 83,-319 148,-452zm781 840c0,126 3,232 10,320 6,88 18,169 36,245 23,-77 41,-162 54,-255 13,-93 19,-194 19,-304 0,-156 -1,-279 -3,-366 -2,-88 -5,-153 -9,-196 -4,-42 -8,-68 -12,-77 -4,-9 -9,-13 -13,-13 -9,0 -17,15 -24,45 -7,30 -14,68 -20,113 -6,45 -12,95 -16,149 -4,54 -8,105 -12,152 -4,47 -6,88 -8,123 -1,35 -2,56 -2,64z"/>
  <path fill="#2B2A29" fill-rule="nonzero" d="M12304 12942c14,29 28,65 42,107 14,42 29,90 44,143l127 561c2,8 4,18 7,30 3,12 8,25 16,38l243 -708c16,-42 30,-79 41,-109 12,-31 27,-52 44,-66 2,-3 6,-4 12,-4 18,0 40,12 65,36 26,24 39,46 39,68 0,34 -4,68 -12,99 -8,32 -23,78 -44,139l-234 704c-8,24 -16,48 -25,72 -9,24 -20,46 -34,68 -40,27 -82,40 -127,40 -28,0 -59,-7 -95,-20l-59 -283c-6,-27 -18,-73 -36,-139 -18,-66 -37,-137 -58,-213 -21,-76 -42,-148 -62,-217 -21,-69 -36,-119 -46,-151l0 -24c0,-66 20,-123 59,-171l92 0z"/>
  <path fill="#2B2A29" fill-rule="nonzero" d="M11118 12059c0,87 -5,168 -15,242 -10,74 -15,144 -15,210 9,232 33,431 72,598 40,167 85,304 135,411 50,107 101,186 152,238 51,51 93,77 126,77 16,0 33,-19 53,-56 19,-38 40,-88 60,-151 21,-63 41,-134 62,-214 20,-80 39,-162 56,-245 17,-83 32,-164 45,-243 13,-79 23,-151 30,-214 1,-23 6,-58 14,-104 8,-46 18,-93 30,-139 12,-46 26,-87 40,-123 14,-36 29,-54 45,-54 29,0 47,8 55,23 8,15 12,43 12,84 -3,156 -14,317 -32,481 -19,164 -46,323 -83,478 -37,155 -81,298 -134,432 -53,133 -113,247 -182,342 -10,4 -21,6 -32,6 -12,0 -24,0 -37,0 -13,0 -26,0 -39,0 -12,0 -22,-2 -30,-6 -16,-12 -41,-32 -77,-61 -35,-29 -74,-69 -118,-119 -43,-50 -88,-113 -134,-188 -46,-75 -88,-166 -126,-272 -38,-106 -69,-229 -94,-369 -24,-140 -37,-300 -37,-479 0,-21 3,-59 9,-114 6,-55 15,-114 29,-178 14,-64 32,-125 55,-184 23,-59 52,-102 86,-129l17 23z"/>
  <path fill="#2B2A29" fill-rule="nonzero" d="M16057 14068c-18,5 -35,9 -52,12 -17,3 -33,4 -49,4 -75,0 -134,-31 -178,-94 -43,-62 -65,-147 -65,-253 0,-109 17,-213 50,-312 34,-99 74,-187 120,-263 46,-76 93,-136 139,-181 46,-45 82,-68 105,-68 12,0 26,3 42,8 8,3 12,16 12,40l-3 56c-36,45 -71,94 -105,147 -35,53 -66,109 -93,169 -28,60 -50,123 -67,191 -17,68 -25,137 -25,209 0,42 7,87 21,133 14,46 43,70 89,70 18,0 28,-1 30,-4 -10,-42 -18,-87 -24,-133 -6,-46 -9,-90 -9,-129 0,-50 6,-101 19,-153 13,-52 31,-98 55,-137 24,-40 53,-72 87,-98 35,-25 74,-38 117,-38 51,0 90,25 116,76 26,50 39,109 39,175 0,96 -17,182 -52,259 -35,77 -83,146 -147,207 26,24 51,36 77,36 47,0 89,-23 126,-68 37,-45 67,-99 90,-163 24,-64 42,-131 55,-201 13,-70 19,-132 19,-185 0,-96 -14,-185 -42,-269 -28,-84 -73,-165 -136,-245l0 -24c0,-27 4,-44 12,-52l21 0c16,0 35,5 56,16 22,11 60,45 116,103 55,58 94,138 116,239 22,101 33,206 33,314 0,98 -9,191 -27,279 -18,88 -45,165 -83,233 -38,68 -85,121 -144,161 -58,40 -129,60 -212,60 -45,0 -92,-6 -139,-18 -47,-12 -84,-48 -110,-109zm184 -641c-22,16 -42,39 -59,70 -18,31 -27,74 -27,129 0,16 2,42 6,80 4,37 8,66 12,88 14,-8 26,-23 37,-46 11,-23 21,-48 30,-76 9,-28 16,-56 21,-84 5,-28 7,-52 7,-74 0,-34 -9,-64 -27,-88z"/>
  <path fill="#2B2A29" fill-rule="nonzero" d="M15017 11786c17,0 37,6 58,17 22,12 40,26 56,43 52,56 100,125 143,206 44,81 82,168 113,261 32,93 56,189 73,288 17,99 26,195 26,285 0,147 -12,281 -36,403 -24,122 -55,230 -94,326 -39,96 -83,179 -134,249 -50,70 -103,129 -156,175 -54,46 -108,81 -161,104 -53,23 -102,35 -147,35 -47,0 -90,-13 -127,-38 -37,-25 -69,-54 -95,-85 -26,-32 -46,-64 -60,-96 -14,-32 -22,-54 -24,-65 -27,15 -57,28 -88,38 -32,10 -62,14 -91,14 -60,0 -111,-16 -153,-49 -42,-33 -76,-76 -101,-129 -26,-53 -45,-113 -57,-180 -12,-67 -18,-135 -18,-204 0,-124 11,-249 33,-375 22,-126 54,-247 96,-361 42,-114 92,-220 152,-317 60,-98 127,-181 202,-251 16,-15 33,-30 52,-43 19,-14 35,-20 50,-20 20,0 30,11 30,32 0,15 -4,28 -12,39 -8,11 -14,19 -18,25 -62,85 -118,179 -168,281 -50,102 -94,210 -129,323 -36,113 -64,230 -84,351 -20,121 -30,241 -30,361 0,44 3,90 8,136 5,46 14,88 28,126 14,38 32,69 56,94 24,25 54,38 90,38 22,0 43,-5 65,-14 22,-10 39,-24 52,-43 -1,-2 -3,-14 -5,-36 -2,-22 -5,-50 -8,-83 -3,-33 -6,-69 -10,-109 -4,-40 -6,-77 -9,-113 -2,-36 -4,-66 -5,-91 -1,-25 -2,-41 -2,-46 0,-122 15,-225 44,-311 29,-86 65,-156 106,-210 41,-54 83,-94 125,-119 42,-25 77,-38 105,-38 33,0 61,13 83,39 22,26 41,58 55,96 14,38 24,78 30,122 6,43 9,84 9,120 0,133 -28,267 -84,400 -56,133 -138,262 -246,385 27,110 91,165 192,165 49,0 103,-27 162,-80 59,-53 113,-131 163,-235 50,-103 91,-232 125,-387 34,-155 51,-333 51,-536 0,-81 -6,-163 -18,-246 -12,-83 -31,-164 -55,-242 -24,-78 -54,-152 -90,-222 -35,-70 -75,-130 -120,-183l4 -20zm-436 1779c66,-106 112,-211 138,-314 26,-103 39,-213 39,-329 0,-19 0,-41 -1,-64 -1,-23 -3,-45 -6,-65 -4,-20 -9,-37 -15,-49 -6,-13 -15,-19 -27,-19 -17,0 -33,14 -46,43 -14,29 -26,67 -36,113 -10,46 -19,98 -26,154 -7,56 -13,111 -17,164 -4,53 -8,101 -10,145 -2,43 -3,76 -3,97 0,21 0,46 1,74 1,28 4,45 10,51z"/>
  <path fill="#2B2A29" fill-rule="nonzero" d="M19263 13702c-26,77 -48,151 -67,221 -19,70 -33,124 -43,161 -14,58 -37,98 -70,117 -33,20 -62,30 -87,30 -10,0 -16,-7 -19,-22 -3,-15 -4,-33 -4,-54 0,-21 1,-42 3,-62 2,-20 5,-38 9,-54 18,-90 41,-182 70,-277 29,-94 60,-185 93,-273 -24,-42 -44,-81 -62,-115 -18,-34 -34,-68 -49,-99 -15,-32 -29,-66 -43,-101 -14,-36 -30,-76 -47,-121 -8,-19 -12,-41 -12,-68 0,-27 4,-46 12,-60 45,-37 96,-56 151,-56 22,29 42,69 59,119l104 251c38,-72 76,-130 116,-175 67,-80 126,-119 175,-119 12,0 23,2 33,6 10,4 19,13 27,26 8,13 15,34 21,64 6,29 11,68 15,115 -10,-21 -24,-32 -42,-32 -20,0 -41,11 -62,34 -22,23 -44,47 -68,74 -22,27 -42,58 -59,94 -18,36 -37,78 -56,125 16,32 34,72 55,121 21,49 42,96 64,141 22,45 44,84 67,115 23,32 44,48 64,48 22,0 38,-10 47,-30 10,-20 20,-52 30,-98 12,56 18,114 18,175 0,72 -9,133 -28,185 -19,52 -48,78 -87,78 -6,0 -16,-7 -30,-22 -14,-15 -29,-32 -44,-52 -16,-20 -31,-40 -46,-60 -15,-20 -25,-36 -31,-50l-172 -302z"/>
  <path fill="#2B2A29" fill-rule="nonzero" d="M18553 12227c-3,23 -8,51 -14,83 -6,32 -21,77 -42,135 -22,58 -55,134 -99,227 -45,94 -106,213 -186,358 -10,19 -20,38 -29,55 -9,17 -18,36 -27,55 32,87 64,171 97,253 33,82 68,160 106,235 37,74 78,144 122,210 44,66 93,126 148,180 0,4 8,14 25,32 17,17 36,35 57,54 22,18 43,35 64,51 21,15 36,23 46,23 0,10 -2,17 -5,22 -4,5 -7,7 -10,7 -6,4 -12,6 -17,6 -6,0 -12,0 -19,0 -16,0 -33,-2 -52,-7 -19,-5 -37,-11 -56,-17 -19,-7 -36,-14 -53,-20 -17,-7 -30,-13 -40,-19 -60,-31 -115,-72 -165,-125 -50,-52 -96,-112 -138,-180 -42,-68 -82,-141 -119,-222 -37,-80 -72,-163 -105,-248 -91,183 -161,327 -213,432 -51,104 -89,184 -114,239 -25,55 -42,93 -50,113 -8,20 -14,37 -18,51 -1,10 -6,17 -14,23 -8,6 -18,9 -29,9 -6,0 -14,-2 -26,-6l-45 -52 4 -38 6 -26c4,-17 7,-36 8,-56 1,-20 3,-42 5,-65 3,-23 8,-47 14,-71 6,-24 17,-50 31,-77l350 -718c-27,-75 -54,-151 -80,-226 -26,-75 -53,-147 -81,-216 -28,-69 -57,-133 -86,-194 -29,-61 -61,-116 -94,-167 -17,-27 -35,-49 -54,-67 -19,-17 -37,-26 -56,-26 -24,0 -40,13 -46,38 -6,25 -13,62 -21,110 -27,-8 -49,-20 -65,-38 -16,-17 -24,-57 -24,-119l0 -12c0,-25 7,-49 21,-71 14,-22 31,-41 51,-55 20,-14 44,-26 70,-35 27,-9 53,-13 79,-13 32,0 61,6 88,19 27,13 49,32 65,59 76,127 142,256 197,385 55,129 106,258 152,385l114 -235c27,-60 51,-111 71,-152 20,-42 37,-81 52,-117 14,-37 28,-74 40,-112 12,-38 25,-82 38,-132l9 -26 19 -20c12,-10 23,-17 36,-22 12,-5 23,-9 31,-13l76 113 0 52z"/>
  <path fill="#2B2A29" fill-rule="nonzero" d="M9136 18142c-51,-8 -93,-38 -125,-90 -32,-52 -47,-115 -47,-189 0,-16 3,-50 9,-103 6,-53 16,-120 30,-201 14,-81 33,-172 58,-275 25,-102 55,-212 90,-328 -32,-90 -47,-175 -47,-255 0,-90 14,-181 42,-273 28,-92 59,-175 95,-251 36,-76 70,-138 104,-187 34,-49 57,-75 71,-78 18,5 29,15 34,30 5,15 7,36 7,66 0,19 -2,36 -6,52 -4,16 -10,34 -19,54 -9,20 -21,44 -36,72 -15,28 -32,62 -52,101 -22,45 -44,100 -67,165 -23,65 -34,128 -34,189 0,8 0,16 1,24 1,8 3,15 7,20l3 0c2,0 6,-5 12,-16 32,-56 70,-120 114,-193 44,-73 91,-143 139,-209 48,-66 95,-122 141,-167 45,-45 85,-68 119,-68 34,0 61,16 83,48 22,32 39,70 52,115 13,45 22,92 27,141 5,49 7,91 7,125 0,103 -21,198 -62,283 -42,85 -92,159 -151,221 -59,62 -121,111 -184,145 -63,34 -117,52 -160,52 -10,0 -19,1 -28,2 -9,1 -18,3 -28,6 -14,56 -26,102 -36,139 -10,37 -18,69 -24,96 -6,27 -11,49 -15,68 -4,19 -8,37 -12,56 -20,96 -38,192 -53,291 -16,98 -33,196 -50,295l-9 28zm326 -1278c91,-13 176,-66 255,-159 73,-85 110,-199 110,-342 0,-19 -1,-39 -4,-62 -3,-23 -12,-34 -28,-34 -12,0 -26,9 -42,26 -16,17 -33,38 -50,62 -18,24 -35,48 -50,74 -16,25 -29,46 -39,62 -8,13 -19,37 -34,72 -15,34 -30,72 -46,111 -16,40 -31,78 -44,113 -14,36 -23,62 -27,78z"/>
  <path fill="#2B2A29" fill-rule="nonzero" d="M8449 14873c23,0 35,19 35,58 0,15 -3,34 -9,56 -6,22 -13,44 -22,67 -9,22 -18,44 -27,65 -9,21 -17,39 -23,52 -53,126 -98,254 -135,387 -37,132 -55,274 -55,424 0,21 2,45 5,71 4,26 10,52 18,77 9,25 20,47 35,67 14,19 32,31 54,35l24 -133c4,-23 13,-66 26,-127 13,-62 30,-133 51,-213 21,-80 45,-164 73,-251 28,-87 59,-167 92,-239 33,-72 68,-132 106,-178 37,-46 77,-70 119,-70 32,0 56,17 74,52 18,35 31,77 40,126 9,49 14,101 15,155 1,54 2,101 2,142 0,116 -10,229 -30,340 -20,111 -50,211 -91,301 -40,90 -90,166 -150,227 -60,62 -128,99 -206,113 -24,139 -44,276 -59,411 -15,135 -23,273 -23,414 0,10 -1,21 -4,35 -3,14 -7,27 -13,41 -6,14 -13,25 -21,35 -8,10 -17,15 -27,17 -14,-6 -30,-15 -46,-29 -17,-14 -32,-29 -45,-46 -14,-17 -25,-36 -35,-55 -9,-19 -14,-39 -14,-58 0,-25 3,-66 10,-123 6,-57 15,-122 25,-196 10,-73 22,-151 35,-233 13,-82 27,-161 41,-236 -45,-23 -82,-52 -112,-87 -30,-35 -55,-73 -73,-114 -19,-42 -32,-86 -41,-133 -9,-47 -13,-94 -13,-141 0,-100 10,-200 29,-298 19,-98 46,-193 79,-284 33,-91 71,-178 114,-261 43,-83 89,-160 138,-232 9,-10 15,-17 19,-23 4,-6 9,-9 15,-9zm322 452c-35,42 -67,107 -97,194 -30,87 -57,178 -80,274 -23,96 -42,186 -57,271 -15,85 -25,148 -29,188 50,-27 94,-69 132,-125 37,-56 68,-120 93,-193 24,-72 42,-150 54,-233 12,-83 17,-164 17,-243 0,-27 -2,-54 -6,-81 -4,-27 -9,-48 -13,-64l-13 12z"/>
  <path fill="#2B2A29" fill-rule="nonzero" d="M13396 17211c-45,5 -90,12 -133,20 -43,8 -87,12 -130,12 -38,0 -77,-4 -119,-12 -28,-5 -48,-19 -62,-42 -14,-23 -21,-48 -21,-78 0,-32 9,-62 27,-92 36,-61 74,-120 114,-177 41,-57 81,-114 122,-171 41,-57 80,-115 119,-173 39,-58 74,-121 105,-187 -22,8 -43,15 -65,20 -22,5 -42,8 -59,8 -32,0 -69,-4 -111,-12 -42,-8 -83,-21 -122,-38 -39,-17 -71,-42 -98,-74 -27,-32 -40,-72 -40,-119 0,-24 3,-48 9,-72 69,5 133,18 191,38 58,20 117,30 176,30 34,0 67,-5 101,-14 34,-9 70,-27 110,-54 14,-8 29,-12 44,-12 22,0 41,9 58,28 17,19 27,45 31,80l6 64c-8,85 -26,163 -53,235 -28,72 -61,139 -101,203 -40,64 -83,125 -129,183 -46,58 -91,117 -135,175 53,-5 106,-13 157,-24 51,-11 104,-16 157,-16 12,0 23,0 33,0 12,0 24,1 36,4 32,3 55,17 70,42 15,25 22,52 22,82 0,32 -8,62 -24,90 -16,28 -41,42 -74,42l-6 0c-10,-3 -20,-4 -30,-4 -8,0 -17,0 -27,0 -26,0 -50,1 -74,4 -24,3 -48,7 -74,12z"/>
  <path fill="#2B2A29" fill-rule="nonzero" d="M11058 17187c3,-27 11,-52 25,-74 14,-22 30,-42 49,-61 19,-18 38,-34 59,-46 21,-13 40,-24 57,-33 82,-122 163,-239 242,-352 79,-113 154,-227 223,-343 70,-116 133,-236 190,-361 57,-125 103,-260 139,-407 -70,-15 -134,-33 -190,-52 -56,-19 -108,-38 -156,-55 -48,-17 -95,-32 -141,-43 -46,-12 -94,-17 -142,-17 -16,0 -35,0 -57,1 -22,1 -44,4 -65,10 -21,6 -39,14 -54,25 -15,11 -23,26 -23,45 0,17 9,37 26,59 17,22 34,41 50,56 -16,0 -32,-1 -49,-4 -17,-3 -32,-9 -47,-17 -15,-9 -27,-19 -37,-32 -9,-13 -14,-29 -14,-51 0,-52 12,-97 37,-133 24,-37 54,-67 88,-90 35,-23 71,-40 109,-51 38,-11 71,-16 98,-16 70,0 132,9 184,26 53,17 102,39 148,64 46,25 92,50 138,75 46,25 97,46 153,64 7,-29 20,-55 39,-78 19,-23 40,-43 63,-61 23,-17 46,-30 69,-39 23,-9 43,-13 60,-13 4,0 17,3 37,9 20,6 41,16 64,30 22,14 42,34 60,58 18,24 27,54 27,88 0,50 -19,91 -57,122 -38,31 -96,46 -174,46 -16,0 -31,0 -45,0 -14,0 -29,-1 -43,-3 -33,147 -74,286 -122,417 -48,131 -102,256 -162,374 -60,118 -123,230 -191,336 -68,106 -137,208 -209,304 6,2 16,4 31,7 15,3 31,7 47,12 17,5 32,9 47,12 15,3 26,5 33,7 50,12 97,22 140,32 43,10 86,18 129,25 43,7 88,13 134,17 46,5 97,7 153,7l17 0c26,0 49,-3 68,-9 19,-6 37,-14 54,-25 17,-11 34,-23 52,-36 18,-14 39,-28 64,-43l9 3c7,2 12,7 15,16 3,9 4,18 4,28l-2 35c-22,33 -47,64 -78,94 -30,30 -62,56 -95,80 -33,23 -67,42 -101,55 -35,14 -67,20 -97,20l-9 0 -783 -58 -6 0c-17,0 -35,4 -52,12 -17,8 -35,16 -52,26 -17,10 -34,18 -51,26 -17,8 -32,12 -46,12l-13 -3c-16,-4 -32,-18 -47,-43 -16,-25 -24,-49 -24,-72 0,-4 0,-6 1,-7 1,-1 1,-2 1,-4zm1269 -1874c-14,0 -30,10 -45,30 -16,20 -28,40 -37,59 10,2 20,3 30,3 10,0 21,0 32,0 30,0 54,-6 71,-17 17,-12 26,-24 26,-38 0,-25 -25,-38 -76,-38l-2 0z"/>
  <path fill="#2B2A29" fill-rule="nonzero" d="M1853 19700c0,-131 20,-254 59,-369 40,-115 93,-215 160,-300 67,-85 145,-152 234,-201 89,-49 183,-74 281,-74 88,0 170,25 247,75 77,50 144,116 201,198 57,82 102,177 135,284 33,107 50,218 50,332 0,126 -18,245 -53,359 -35,114 -83,214 -145,301 -61,87 -133,156 -217,207 -83,51 -173,77 -268,77 -88,0 -173,-24 -255,-71 -82,-47 -155,-112 -219,-193 -64,-81 -115,-175 -153,-282 -38,-107 -57,-222 -57,-343zm140 -81c0,98 15,192 44,280 29,88 69,165 119,232 50,67 107,119 173,158 65,39 135,58 208,58 75,0 144,-20 208,-61 64,-41 119,-95 165,-164 46,-69 82,-147 109,-236 27,-89 40,-183 40,-281 0,-108 -15,-201 -45,-280 -30,-78 -76,-151 -136,-219 -10,-10 -24,-22 -41,-38 -17,-15 -35,-30 -52,-45 -17,-14 -32,-27 -45,-38 -13,-11 -21,-16 -24,-16l-19 0 0 26c13,17 26,36 40,56 14,20 27,43 39,68 12,25 22,52 30,80 8,28 12,59 12,94 -23,-35 -49,-68 -77,-100 -28,-32 -58,-60 -91,-85 -32,-25 -66,-45 -100,-61 -35,-15 -69,-23 -104,-23 -30,0 -56,7 -78,20 -22,14 -46,25 -73,35 -4,0 -6,-2 -6,-6 0,-4 2,-10 5,-17 4,-8 6,-16 8,-26l-15 0c-45,0 -85,22 -121,65 -36,43 -67,96 -93,158 -26,62 -46,127 -59,194 -14,68 -21,125 -21,171z"/>
  <path fill="#2B2A29" fill-rule="nonzero" d="M3905 19268c-30,0 -54,-7 -71,-20 -17,-14 -32,-31 -45,-52 -1,-2 -2,-6 -2,-12 0,-6 1,-10 2,-12 46,-29 87,-77 123,-145 36,-68 57,-147 63,-238 10,-29 29,-43 56,-43 17,0 38,5 63,16 24,11 39,25 43,42 3,282 9,568 17,857 9,290 15,576 19,857 -12,23 -21,39 -27,46 -6,8 -18,12 -33,12 -12,0 -27,-1 -47,-4 -20,-3 -35,-8 -43,-16 -7,-14 -12,-29 -13,-48 -1,-18 -2,-37 -2,-56 -3,-209 -8,-415 -14,-620 -6,-205 -12,-411 -16,-620 -7,15 -17,28 -28,39 -12,11 -26,16 -43,16z"/>
  <path fill="#2B2A29" fill-rule="nonzero" d="M4919 20476c1,-27 9,-52 22,-75 13,-23 28,-43 46,-61 18,-17 37,-32 57,-45 20,-13 38,-23 54,-30l464 -594c17,-21 39,-51 66,-90 27,-39 53,-81 78,-126 25,-45 47,-92 65,-140 18,-48 27,-94 27,-136 0,-25 -5,-48 -15,-70 -10,-21 -23,-40 -38,-55 -15,-15 -32,-28 -51,-38 -19,-10 -37,-15 -54,-17 -7,-2 -14,-3 -19,-3 -6,0 -12,0 -19,0 -63,0 -126,16 -187,48 -61,32 -115,73 -161,123 -9,12 -15,28 -18,48 -4,20 -7,41 -11,61 -4,20 -9,38 -17,52 -8,14 -21,22 -40,22 -24,-4 -41,-20 -49,-49 -8,-29 -12,-60 -12,-93 0,-15 0,-29 1,-41 1,-12 2,-22 3,-32 6,-70 22,-127 50,-174 27,-46 61,-84 100,-113 40,-29 83,-50 132,-62 48,-13 96,-19 143,-19 13,0 26,0 38,1 12,1 24,2 36,4 40,6 78,19 114,41 36,21 67,51 94,88 27,38 47,83 63,135 15,52 23,112 23,180 0,56 -10,114 -30,174 -20,60 -46,120 -79,180 -32,60 -69,119 -109,178 -40,59 -81,115 -123,169 -42,54 -82,105 -121,154 -39,48 -73,92 -101,130 7,2 18,4 33,6 15,2 31,4 49,7 17,3 33,5 49,7 15,2 26,3 31,3 32,4 59,10 81,19 22,9 45,18 67,28 22,10 46,18 72,25 26,7 58,10 97,10l45 -3c30,-2 55,-7 76,-14 20,-8 39,-18 57,-30 18,-13 36,-27 55,-42 19,-15 41,-33 67,-52 12,4 18,12 21,25 2,13 3,29 3,51 -22,35 -47,68 -76,100 -29,32 -59,60 -92,85 -32,25 -65,45 -99,59 -34,14 -67,23 -98,25l-585 -35c-17,0 -35,5 -54,14 -19,10 -37,20 -55,32 -18,12 -36,22 -55,32 -19,10 -37,14 -54,14 -16,-2 -29,-12 -40,-29 -11,-17 -16,-38 -16,-61z"/>
  <path fill="#2B2A29" fill-rule="nonzero" d="M7185 19039c0,29 7,54 22,75 14,21 27,37 37,46 -9,2 -17,4 -24,7 -7,3 -16,4 -26,4 -33,0 -57,-14 -71,-42 -14,-28 -22,-62 -22,-103 0,-50 8,-99 25,-146 17,-47 41,-78 72,-91 39,-17 76,-31 110,-41 35,-10 73,-14 117,-14 68,0 133,8 196,23 63,15 120,42 170,80 50,38 91,88 123,152 32,64 49,145 52,243 -1,31 -6,67 -14,107 -8,41 -19,81 -33,120 -14,40 -32,75 -53,106 -21,31 -44,52 -70,64 36,27 67,52 93,75 26,23 47,51 63,83 16,32 27,70 35,116 7,45 11,103 11,172 0,106 -16,193 -47,259 -32,67 -72,119 -121,156 -49,38 -103,63 -163,77 -60,14 -118,20 -176,20 -73,0 -137,-14 -192,-43 -55,-29 -100,-64 -137,-106 -37,-42 -64,-85 -83,-132 -19,-46 -28,-88 -28,-125 0,-42 1,-73 3,-93 2,-19 8,-29 16,-29 7,0 17,4 29,12 12,8 24,25 36,52 40,83 91,148 152,196 61,47 133,71 217,71 27,0 59,-6 96,-17 37,-12 72,-30 105,-56 33,-26 61,-60 83,-101 22,-42 33,-93 33,-155 0,-37 -2,-68 -5,-94 -4,-26 -11,-49 -23,-70 -12,-20 -28,-40 -49,-58 -21,-18 -49,-38 -85,-59 -40,21 -81,35 -123,42 -42,7 -84,10 -127,10 -35,0 -67,-4 -96,-12 -29,-8 -55,-19 -77,-33 -22,-14 -39,-30 -52,-48 -13,-17 -19,-37 -19,-58 0,-39 13,-70 39,-93 26,-23 55,-41 87,-52 32,-12 63,-19 92,-22 29,-3 47,-4 54,-4 35,0 69,3 105,9 35,6 70,15 105,29 24,-6 46,-21 65,-45 19,-24 34,-53 46,-85 12,-33 22,-66 28,-100 6,-34 10,-63 10,-88 0,-60 -12,-109 -35,-148 -23,-39 -52,-69 -87,-90 -35,-21 -75,-36 -120,-45 -45,-9 -88,-13 -132,-13 -27,0 -56,3 -87,10 -31,7 -59,16 -83,28 -32,19 -50,33 -56,42 -6,9 -9,17 -9,25zm334 634c-19,-4 -40,-10 -65,-17 -24,-8 -51,-12 -80,-12 -33,0 -59,7 -78,20 42,15 78,23 108,23l114 -14z"/>
  <path fill="#2B2A29" fill-rule="nonzero" d="M9544 20696c-29,0 -59,-7 -92,-20 -32,-14 -52,-33 -59,-58 -3,-14 -6,-36 -9,-68 -3,-32 -5,-69 -8,-110 -2,-42 -4,-86 -5,-135 -1,-48 -2,-98 -2,-148 0,-25 0,-50 0,-75 0,-25 1,-49 2,-72l-28 0c-85,0 -159,-15 -222,-46 -63,-31 -124,-91 -181,-180 -13,-60 -19,-125 -19,-194 0,-64 5,-130 15,-198 10,-69 24,-137 42,-206 18,-69 39,-135 63,-198 24,-64 49,-124 77,-180 7,-15 13,-26 16,-32 4,-6 11,-9 23,-9 22,0 32,18 32,55 0,27 -5,58 -14,93 -9,35 -18,63 -25,84 -22,77 -40,160 -55,249 -15,89 -23,177 -23,264 0,39 2,75 5,110 4,35 9,69 16,101 42,42 81,74 118,96 37,21 74,32 111,32 7,0 14,0 22,-1 7,-1 14,-2 22,-4l2 -107c0,-31 0,-77 0,-139 0,-62 1,-130 2,-206 1,-75 5,-152 10,-230 5,-78 13,-149 24,-213 11,-64 26,-116 44,-158 19,-42 42,-62 71,-62 42,0 76,20 102,61 27,41 47,93 63,158 15,65 26,138 31,219 6,81 9,161 9,240 0,79 -2,149 -5,210 -4,61 -12,114 -24,159 -12,45 -30,84 -54,116 -24,32 -56,59 -98,83 3,106 8,208 14,306 6,98 21,197 44,300 1,4 2,11 2,20 0,15 -4,33 -11,52 -7,19 -19,34 -35,43l-13 0zm-9 -898c13,-19 23,-46 30,-80 7,-34 13,-70 16,-107 4,-38 6,-76 8,-116 1,-40 2,-75 2,-106 0,-41 -1,-83 -2,-127 -1,-44 -4,-87 -9,-129 -4,-42 -10,-79 -17,-112 -7,-33 -17,-57 -28,-72 -4,23 -7,62 -9,116 -1,54 -2,115 -2,183 0,52 0,106 1,161 1,55 1,108 2,158 1,50 2,96 3,136 1,41 3,72 4,96z"/>
  <path fill="#2B2A29" fill-rule="nonzero" d="M11575 18741c14,0 24,3 30,9 19,17 33,43 43,77 10,34 17,67 19,100 -9,12 -19,18 -32,20 -20,4 -54,7 -101,9 -47,2 -97,4 -148,6 -51,2 -98,3 -141,4 -43,1 -71,2 -84,4l-246 3c-17,27 -29,73 -36,138 -6,65 -10,128 -10,190 0,27 0,52 1,74 1,22 2,41 3,56 14,-14 46,-24 94,-30 48,-7 108,-10 178,-10 63,0 128,8 193,23 65,15 125,45 178,88 53,43 97,104 131,183 34,78 51,180 51,306 0,110 -19,203 -56,278 -37,75 -82,136 -135,183 -53,46 -108,80 -165,101 -58,21 -106,32 -147,32 -45,0 -99,-10 -163,-29 -64,-19 -125,-48 -183,-87 -58,-39 -108,-87 -149,-145 -41,-58 -62,-127 -62,-206 0,-77 17,-136 50,-175 33,-40 74,-59 123,-59 49,0 101,20 155,59 55,40 104,101 149,184 0,25 -11,45 -32,61 -22,15 -42,23 -63,23 -19,0 -32,-5 -39,-14 -17,-25 -36,-50 -55,-74 -19,-24 -39,-46 -58,-65 -19,-19 -39,-35 -58,-46 -19,-12 -36,-17 -51,-17 -17,0 -31,9 -42,26 -11,17 -16,48 -16,93 0,52 18,96 55,132 37,36 79,65 128,88 49,23 96,40 142,51 46,11 79,16 99,16 88,0 159,-17 213,-52 54,-35 96,-77 125,-126 29,-49 49,-100 58,-154 9,-53 14,-99 14,-138 0,-75 -13,-136 -40,-181 -27,-45 -62,-81 -106,-106 -44,-25 -94,-42 -150,-51 -56,-9 -114,-13 -175,-13 -27,0 -54,0 -81,1 -27,1 -53,2 -79,4 -17,2 -35,12 -54,29 -19,17 -36,27 -52,29l-30 3c-7,0 -14,-1 -22,-3 -7,-2 -15,-8 -24,-17 -4,-54 -8,-105 -12,-154 -4,-48 -5,-96 -5,-142 0,-56 4,-114 11,-174 7,-60 19,-125 35,-194 -29,-10 -52,-29 -70,-58 -18,-29 -31,-60 -38,-93l15 -17 69 -17c3,0 21,0 53,-1 32,-1 74,-2 124,-3 50,-1 106,-2 168,-4 62,-2 123,-4 183,-7 60,-3 117,-6 170,-9 53,-3 97,-6 132,-10l15 0z"/>
  <path fill="#2B2A29" fill-rule="nonzero" d="M13369 20537l2 20c0,41 -11,78 -32,113 -22,35 -45,52 -69,52 -13,0 -26,-6 -38,-19 -12,-13 -23,-34 -31,-65l-13 -58c-55,29 -109,43 -164,43 -63,0 -117,-15 -161,-46 -44,-31 -79,-72 -107,-125 -27,-52 -47,-113 -60,-181 -13,-69 -19,-140 -19,-216 0,-124 11,-247 33,-369 22,-123 54,-240 96,-352 42,-112 93,-217 154,-314 61,-98 131,-182 208,-253 16,-15 33,-28 51,-36 18,-9 34,-13 49,-13 20,0 30,11 30,32 0,15 -3,30 -9,43 -6,14 -11,23 -15,29 -37,48 -72,97 -104,146 -32,49 -61,101 -88,155 -70,137 -127,290 -169,459 -42,169 -64,341 -64,517 0,39 4,81 11,126 7,45 18,88 33,127 15,40 34,73 57,100 23,27 51,41 84,41 37,0 75,-19 112,-58 -3,-15 -7,-42 -12,-78 -5,-37 -10,-86 -14,-148 -3,-37 -5,-64 -5,-81 -1,-17 -1,-32 -2,-43 -1,-12 -1,-22 -1,-32 0,-10 -1,-26 -2,-49 3,-71 12,-149 28,-232 16,-83 39,-160 69,-232 30,-71 68,-131 114,-178 46,-47 101,-71 166,-71 37,0 68,11 92,33 24,22 43,51 57,85 14,35 24,74 29,117 5,43 8,86 8,129 0,133 -27,268 -81,404 -54,136 -135,266 -243,390l19 87zm-45 -301c56,-97 102,-190 138,-281 36,-91 54,-186 54,-287 0,-10 -1,-28 -2,-55 -1,-27 -4,-55 -9,-84 -4,-29 -10,-55 -18,-77 -8,-22 -18,-33 -31,-33 -26,0 -45,14 -56,43 -12,29 -21,57 -28,84 -13,50 -24,95 -32,135 -9,40 -15,79 -21,119 -5,40 -9,81 -11,125 -2,43 -3,94 -3,152 0,8 0,19 1,35 1,15 2,32 3,49 1,17 4,33 6,48 3,14 6,24 9,28z"/>
  <path fill="#2B2A29" fill-rule="nonzero" d="M14729 18978c-4,0 -9,5 -15,14 -6,10 -12,20 -17,32 -6,12 -12,23 -17,33 -6,11 -10,16 -13,16 -6,0 -11,-11 -16,-32 -5,-21 -9,-45 -13,-72 -4,-27 -6,-53 -9,-77 -2,-24 -3,-38 -3,-42 0,-12 3,-24 10,-38 6,-14 15,-25 26,-35 11,-10 23,-18 36,-25 13,-7 26,-10 39,-10l15 0c49,6 97,16 146,30 48,14 96,29 144,45 47,15 95,30 144,43 48,14 97,22 146,26 24,2 43,3 56,4 13,1 23,1 30,1 4,0 7,0 9,-1 1,-1 4,-1 6,-1 9,-17 16,-34 23,-49 6,-15 15,-29 25,-41 10,-12 23,-21 38,-29 15,-8 35,-12 59,-12 20,0 37,10 52,30 14,20 22,44 22,71 0,25 -1,49 -4,72 -3,23 -12,42 -26,58 -16,15 -32,27 -49,35 -17,8 -31,14 -42,17 -102,199 -182,414 -238,645 -57,231 -93,464 -109,700 -1,19 -5,40 -12,62 -6,22 -15,43 -25,62 -10,19 -21,35 -33,48 -12,13 -25,19 -38,19 -24,0 -46,-8 -64,-25 -18,-16 -27,-44 -27,-83 0,-112 11,-228 32,-349 22,-121 50,-241 85,-362 35,-121 76,-239 121,-356 45,-117 92,-228 139,-335 -59,0 -124,-3 -194,-10 -70,-7 -135,-18 -194,-33 -42,-10 -83,-19 -123,-28 -40,-9 -80,-16 -119,-22z"/>
  <path fill="#2B2A29" fill-rule="nonzero" d="M16639 20071c0,-52 10,-99 31,-142 21,-42 49,-83 85,-120 36,-38 77,-73 123,-106 46,-33 94,-64 145,-93 -98,-50 -178,-110 -240,-178 -62,-69 -93,-146 -93,-233 0,-70 12,-133 36,-191 24,-58 56,-108 97,-149 41,-42 88,-73 141,-96 53,-22 109,-33 168,-33 65,0 126,11 184,33 58,22 110,54 154,94 45,41 80,88 107,142 27,54 40,113 40,177 0,52 -10,99 -31,142 -21,42 -49,81 -83,114 -35,34 -75,65 -122,93 -47,28 -96,54 -148,77 46,19 92,41 139,65 47,24 88,54 125,90 37,36 67,80 90,133 23,53 35,119 35,198 0,73 -12,140 -35,198 -23,59 -55,109 -97,151 -42,42 -92,73 -150,96 -58,22 -122,33 -191,33 -76,0 -146,-12 -209,-36 -63,-24 -117,-58 -162,-101 -45,-43 -79,-96 -104,-156 -24,-61 -37,-128 -37,-201zm481 -403c-43,27 -85,55 -124,83 -40,28 -74,58 -105,90 -30,32 -54,67 -71,106 -17,39 -26,81 -26,127 0,33 8,67 23,101 15,35 38,66 68,93 30,27 69,49 115,67 47,17 103,26 167,26 23,0 51,-5 83,-14 32,-10 64,-25 94,-46 30,-21 56,-48 77,-80 21,-32 31,-71 31,-117 0,-58 -12,-110 -35,-155 -23,-45 -51,-85 -84,-120 -33,-35 -69,-65 -108,-90 -39,-25 -74,-48 -106,-70zm-142 -765c-32,12 -57,31 -76,58 -19,27 -33,56 -42,87 -9,31 -15,61 -18,91 -3,30 -4,53 -4,68 0,25 8,52 25,80 17,28 38,56 66,85 27,29 59,58 94,87 35,29 72,56 111,81 45,-29 87,-58 127,-87 40,-29 76,-58 106,-88 30,-30 54,-61 72,-93 18,-32 27,-65 27,-100 0,-31 -7,-64 -21,-98 -14,-35 -32,-67 -56,-96 -24,-29 -52,-53 -84,-72 -32,-19 -67,-29 -105,-29l-15 0c26,39 48,71 67,98 19,27 28,54 28,81l0 9c-14,-15 -30,-32 -47,-51 -17,-18 -36,-35 -55,-51 -19,-15 -40,-28 -62,-38 -22,-10 -43,-14 -65,-14 -9,0 -16,2 -23,7 -6,5 -13,11 -18,17 -6,7 -12,13 -17,17 -6,5 -12,7 -19,7 -3,0 -4,-3 -4,-9 0,-8 1,-17 3,-28 2,-11 4,-18 5,-22z"/>
  <path fill="#2B2A29" fill-rule="nonzero" d="M19006 20607c-3,-2 -4,-8 -4,-17 0,-21 6,-50 19,-87 13,-37 27,-66 43,-87 53,-79 102,-165 147,-258 45,-93 83,-190 114,-291 32,-101 56,-206 73,-314 17,-108 26,-217 26,-327 0,-116 -17,-206 -51,-269 -34,-64 -80,-96 -139,-96 -112,0 -201,51 -265,154 -65,102 -97,239 -97,411 0,73 10,137 31,191 21,54 52,81 94,81 55,-2 100,-9 136,-20 36,-12 66,-29 91,-52 24,-23 44,-53 59,-88 15,-36 29,-78 42,-126 3,-6 8,-16 15,-32 7,-15 27,-28 60,-38 -4,71 -17,138 -37,200 -20,62 -48,116 -84,162 -36,46 -79,83 -128,110 -50,27 -105,41 -167,41 -42,0 -78,-12 -109,-36 -31,-24 -57,-56 -78,-97 -21,-41 -37,-87 -47,-140 -11,-53 -16,-109 -16,-167 0,-100 17,-194 50,-281 33,-87 75,-162 126,-226 51,-64 107,-114 167,-151 60,-37 118,-55 173,-55 62,0 115,15 160,46 45,31 81,72 108,125 27,52 47,112 60,181 13,69 19,141 19,216 -3,122 -15,244 -38,366 -22,123 -54,240 -96,352 -42,112 -92,217 -152,314 -60,98 -128,183 -206,256 -16,15 -33,28 -51,36 -18,9 -34,13 -49,13z"/>
 </g>
</svg>
