<?xml version="1.0" encoding="UTF-8"?>
<!DOCTYPE svg PUBLIC "-//W3C//DTD SVG 1.1//EN" "http://www.w3.org/Graphics/SVG/1.1/DTD/svg11.dtd">
<!-- Creator: CorelDRAW 2017 -->
<svg xmlns="http://www.w3.org/2000/svg" xml:space="preserve" width="210mm" height="297mm" version="1.1" shape-rendering="geometricPrecision" text-rendering="geometricPrecision" image-rendering="optimizeQuality" fill-rule="evenodd" clip-rule="evenodd"
viewBox="0 0 21000 29700"
 xmlns:xlink="http://www.w3.org/1999/xlink">
 <g id="Layer_x0020_1">
  <metadata id="CorelCorpID_0Corel-Layer"/>
  <path fill="#2B2A29" fill-rule="nonzero" d="M2394 2648c20,-2 53,-8 99,-18 46,-10 83,-16 108,-20 26,-4 58,-4 95,0 37,4 72,14 104,31 20,12 44,29 72,50l-252 -859c-77,271 -153,543 -228,816zm-560 1176c-16,-2 -27,-10 -32,-22 -5,-12 -4,-25 3,-38 7,-13 18,-20 32,-20 36,-2 71,-21 104,-56 34,-35 58,-78 72,-131 52,-182 126,-447 222,-795 -41,-29 -84,-66 -129,-111 -21,-24 -24,-40 -8,-47 11,-5 25,-2 43,7 37,22 79,35 123,40 184,-669 304,-1111 362,-1327 21,-79 36,-119 43,-119 7,0 22,43 46,129 39,146 154,550 343,1212 189,661 285,997 287,1007 34,120 91,182 171,187 23,2 35,17 35,43 0,26 -13,40 -37,40 -61,0 -141,0 -241,0 -100,0 -181,0 -244,0 -16,0 -27,-7 -32,-20 -5,-13 -5,-26 1,-38 6,-12 16,-18 28,-18 100,0 134,-59 102,-176 -25,-86 -94,-325 -206,-715 -55,-48 -108,-70 -158,-65 -32,2 -69,8 -110,16 -41,8 -75,16 -103,23 -28,7 -60,11 -98,11 -37,0 -73,-7 -107,-22 -98,355 -158,573 -179,654 -23,93 -28,163 -15,209 13,46 40,68 79,68 16,0 27,6 33,18 6,12 6,24 0,36 -6,12 -17,18 -31,18 -109,0 -242,0 -399,0z"/>
  <path fill="#2B2A29" fill-rule="nonzero" d="M4949 2171l3 1474c200,14 353,-31 459,-137 106,-105 159,-258 159,-457 2,-168 -40,-309 -125,-422 -85,-114 -190,-182 -315,-203 -66,-12 -97,-25 -94,-40 2,-10 19,-17 51,-22 11,-2 21,-5 32,-7 134,-22 237,-70 311,-146 73,-76 112,-190 115,-343 4,-180 -44,-309 -142,-388 -98,-79 -249,-111 -453,-97 -2,244 -3,507 -3,787zm-201 -485c0,-7 0,-14 0,-22 0,-65 0,-114 0,-147 0,-125 -44,-200 -131,-226 -14,-5 -20,-17 -17,-38 3,-20 12,-31 28,-31 220,0 393,-1 520,-4 175,0 317,55 426,165 109,110 163,268 163,475 2,307 -107,490 -327,550 112,50 202,135 269,253 67,119 102,258 106,419 5,230 -48,409 -161,537 -112,128 -270,192 -474,192 -34,-2 -121,-3 -262,-2 -141,1 -230,2 -268,2 -16,0 -24,-11 -23,-32 1,-22 8,-35 23,-40 87,-26 131,-102 131,-226 0,-920 -1,-1529 -3,-1826z"/>
  <path fill="#2B2A29" fill-rule="nonzero" d="M8175 1663c-4,-7 -6,-14 -8,-22 -41,-98 -101,-174 -181,-228 -79,-54 -178,-74 -296,-59 -87,10 -167,54 -238,133 -71,79 -128,177 -170,295 -42,117 -74,244 -95,381 -21,137 -30,271 -27,403 5,117 21,238 48,363 27,125 65,243 114,356 49,113 113,205 193,277 79,72 167,109 264,111 193,2 362,-127 506,-388 27,-46 45,-55 54,-29 7,29 1,65 -19,108 -155,331 -359,496 -611,496 -93,0 -183,-25 -269,-74 -87,-49 -167,-123 -242,-221 -75,-98 -137,-229 -185,-392 -48,-163 -77,-349 -86,-557 -7,-213 9,-410 50,-591 40,-181 96,-329 167,-444 71,-115 151,-206 238,-273 87,-67 176,-104 265,-111 171,-14 315,28 431,126 37,26 68,44 91,52 23,8 40,5 50,-11 10,-16 17,-35 20,-58 4,-23 4,-56 3,-99 0,-14 4,-25 13,-31 9,-6 18,-7 28,-2 10,5 15,13 15,25 0,264 3,543 8,838 0,12 -4,21 -13,27 -9,6 -18,6 -28,0 -10,-6 -15,-16 -15,-31 -7,-134 -32,-258 -75,-370z"/>
  <path fill="#2B2A29" fill-rule="nonzero" d="M9646 1494c0,7 0,14 0,22 0,101 0,398 0,893 0,495 0,806 0,933 0,72 1,114 3,126 0,7 0,16 0,25 2,70 21,112 59,128 37,16 116,21 236,16 105,-5 202,-68 289,-191 87,-122 154,-270 201,-444 46,-174 69,-345 67,-512 0,-120 -14,-243 -43,-369 -29,-126 -68,-245 -119,-358 -51,-113 -118,-206 -202,-279 -84,-73 -177,-111 -279,-113 -129,0 -198,19 -209,58 0,7 -1,13 -3,18l0 4c0,17 0,31 0,43zm-297 2312c-14,0 -25,-7 -31,-20 -6,-13 -7,-27 -1,-41 5,-14 13,-23 24,-25 50,-7 80,-32 90,-76 10,-43 16,-146 17,-309 0,-297 0,-904 0,-1819 0,-125 -44,-200 -131,-226 -18,-5 -21,-20 -8,-47 7,-14 17,-22 29,-22 70,0 142,0 217,0 75,0 127,0 155,0 86,-2 167,-4 244,-4 89,0 180,35 273,104 93,70 177,161 252,275 75,114 136,250 183,410 47,159 72,323 74,491 0,192 -26,372 -78,541 -52,169 -118,309 -200,419 -81,110 -170,197 -265,259 -96,62 -188,93 -277,93 -48,0 -104,0 -169,0 -9,2 -18,2 -27,0 -114,0 -238,-1 -372,-4z"/>
  <path fill="#2B2A29" fill-rule="nonzero" d="M12059 3805c-14,0 -25,-6 -31,-18 -6,-12 -7,-24 -1,-36 5,-12 13,-19 24,-22 54,-10 87,-39 102,-88 14,-49 21,-150 21,-304 0,-101 0,-280 -1,-539 -1,-259 -1,-422 -1,-489 0,-31 -3,-53 -8,-67 -5,-13 -20,-17 -44,-11 -24,6 -58,27 -103,63 -9,5 -16,6 -20,4 -4,-2 -7,-8 -7,-18 0,-10 4,-18 11,-25 46,-62 105,-113 177,-151 0,-204 0,-399 0,-586 0,-125 -44,-200 -131,-226 -16,-5 -23,-18 -21,-40 2,-22 11,-32 27,-32l838 0c36,70 71,181 107,334 7,31 4,49 -11,52 -14,4 -26,-5 -35,-27 -29,-67 -66,-113 -112,-138 -46,-25 -113,-43 -201,-52 -62,-5 -113,-7 -153,-5 -39,1 -68,4 -86,9l-24 7 0 658c57,-10 118,-4 183,18 65,22 120,44 165,68 45,24 97,34 158,29 61,-5 121,-34 179,-86 37,-34 57,-40 59,-18 0,5 -4,13 -11,25 -68,103 -130,176 -186,219 -56,43 -107,61 -153,52 -46,-8 -87,-25 -125,-49 -37,-24 -81,-50 -130,-77 -49,-28 -95,-41 -138,-41 -2,616 -2,1038 0,1265 2,72 11,120 27,144 16,24 39,36 70,36 9,0 22,1 40,4 54,0 92,1 116,2 24,1 54,1 90,-2 36,-2 60,-5 74,-9 13,-4 33,-11 58,-23 25,-12 43,-24 55,-36 12,-12 29,-31 51,-58 22,-26 42,-53 58,-81 16,-28 38,-64 67,-110 9,-14 21,-17 35,-9 14,8 18,25 11,49 -16,53 -35,116 -58,189 -22,73 -41,132 -55,178l-21 72c-471,-2 -783,-4 -935,-4z"/>
  <path fill="#2B2A29" fill-rule="nonzero" d="M14481 3805c-23,0 -34,-13 -33,-40 1,-26 11,-42 31,-47 50,-7 80,-32 90,-76 10,-43 15,-146 15,-309 0,-46 0,-98 0,-158 0,-86 0,-229 0,-428 0,-199 0,-345 0,-439 0,-31 -3,-53 -9,-67 -6,-13 -21,-17 -44,-11 -23,6 -58,27 -104,63 -7,7 -13,9 -19,5 -5,-4 -7,-9 -5,-16 -2,-10 1,-19 8,-29 48,-60 107,-110 177,-151 0,-206 0,-401 0,-586 0,-122 -44,-197 -131,-223 -14,-5 -21,-18 -19,-40 -2,-24 6,-36 24,-36l836 0c36,70 71,181 107,334 4,10 5,19 5,29 0,19 -6,28 -19,27 -13,-1 -22,-11 -29,-31 -29,-65 -66,-110 -112,-135 -46,-25 -113,-43 -201,-52 -62,-5 -113,-7 -153,-5 -39,1 -67,4 -83,9l-27 4 0 658c2,0 4,0 8,0 86,5 177,28 274,70 97,42 166,62 208,59 68,-10 133,-43 195,-101 36,-29 54,-34 56,-14 0,7 -4,16 -11,25 -66,103 -127,176 -183,219 -56,43 -107,60 -153,50 -46,-10 -87,-26 -125,-50 -37,-24 -81,-50 -130,-77 -49,-28 -95,-40 -138,-38l0 1255c0,19 -1,38 -3,58 4,74 12,127 25,158 13,31 41,49 82,54 13,2 21,10 27,23 5,13 6,26 3,40 -4,13 -13,20 -27,20 -173,0 -311,-1 -412,-4z"/>
  <path fill="#2B2A29" fill-rule="nonzero" d="M17505 3574c29,-29 48,-64 58,-104 10,-41 17,-108 20,-201 0,-2 0,-5 0,-7 0,-285 0,-490 0,-615 0,-129 -39,-206 -118,-230 -16,-5 -23,-17 -20,-38 3,-20 12,-31 28,-31 71,0 147,0 226,0 79,0 141,0 183,0 18,0 29,5 35,16 5,11 5,22 -1,34 -6,12 -15,19 -25,22 -39,10 -68,31 -86,65 -18,34 -26,86 -24,158l0 633c2,26 -6,59 -24,97 -155,333 -361,500 -616,500 -93,0 -183,-25 -272,-76 -88,-50 -170,-125 -245,-223 -75,-98 -137,-230 -186,-395 -49,-165 -77,-352 -84,-561 -9,-216 7,-415 48,-597 41,-182 98,-331 170,-448 72,-116 152,-208 240,-275 87,-67 177,-104 268,-111 171,-14 316,26 434,122 37,29 68,47 91,54 23,7 40,4 51,-11 11,-14 18,-34 21,-58 4,-24 4,-58 3,-101 0,-14 4,-25 13,-31 9,-6 18,-7 28,-2 10,5 15,14 15,29 0,264 3,544 8,841 0,14 -4,25 -13,31 -9,6 -18,6 -28,0 -10,-6 -15,-16 -15,-31 -7,-137 -32,-262 -75,-377 -4,-7 -7,-14 -11,-22 -39,-98 -99,-174 -179,-228 -80,-54 -180,-75 -300,-63 -87,10 -167,55 -240,135 -72,80 -130,180 -173,300 -43,120 -75,248 -96,385 -21,137 -29,271 -24,403 4,122 19,246 47,370 28,125 66,244 115,358 49,114 114,207 194,279 80,72 170,109 268,111 104,2 201,-34 292,-108z"/>
  <path fill="#2B2A29" fill-rule="nonzero" d="M2022 7535c-16,0 -27,-7 -32,-22 -5,-14 -6,-29 -1,-43 4,-14 13,-22 25,-22 50,-10 80,-36 90,-79 10,-43 15,-146 15,-309 2,-132 3,-495 3,-1089 -43,17 -84,41 -123,72 -41,31 -66,36 -74,14 -8,-22 5,-52 39,-90 55,-65 108,-116 158,-155 0,-264 0,-453 0,-568 0,-125 -44,-200 -131,-226 -9,-5 -14,-13 -16,-23 -2,-11 1,-22 8,-32 7,-11 15,-16 24,-16 71,0 148,0 229,0 81,0 143,0 186,0 18,0 29,5 35,16 5,11 5,22 -1,34 -6,12 -15,19 -25,22 -39,10 -68,31 -86,65 -18,34 -26,86 -24,158 0,77 0,237 0,482 50,-5 110,9 181,41 71,32 134,67 191,104 57,37 123,65 197,83 74,18 140,10 197,-23 2,-316 3,-545 3,-687 0,-125 -44,-200 -131,-226 -11,-2 -17,-9 -19,-20 -2,-11 0,-22 5,-32 5,-11 13,-16 24,-16 71,0 148,0 230,0 82,0 145,0 187,0 20,0 32,5 36,16 4,11 4,22 -1,34 -5,12 -13,19 -24,22 -39,10 -68,31 -86,65 -18,34 -27,86 -27,158 2,103 3,401 3,895 0,494 0,804 0,931 0,10 0,23 0,40 0,60 0,103 1,129 1,26 3,56 7,90 4,34 9,57 16,70 7,13 17,25 31,36 13,11 31,17 52,20 13,2 22,10 28,23 6,13 7,26 3,40 -4,13 -14,20 -28,20 -184,0 -320,0 -410,0 -14,0 -25,-7 -31,-22 -6,-14 -7,-29 -1,-43 5,-14 13,-22 24,-22 52,-10 83,-36 92,-79 10,-43 15,-146 15,-309 0,-125 0,-469 0,-1032 -84,58 -184,82 -301,74 -117,-8 -235,-47 -355,-117 -34,-22 -71,-35 -110,-40 0,671 0,1045 0,1122 0,10 0,23 0,40 2,60 3,103 3,129 0,26 2,56 5,90 4,34 9,57 17,70 8,13 19,25 32,36 13,11 30,17 50,20 13,2 22,10 28,23 6,13 7,26 3,40 -4,13 -13,20 -25,20 -184,0 -320,0 -410,0z"/>
  <path fill="#2B2A29" fill-rule="nonzero" d="M4527 7537c-14,0 -25,-7 -31,-22 -6,-14 -7,-29 -3,-43 4,-14 13,-22 25,-22 50,-10 80,-36 90,-79 10,-43 16,-146 17,-309 0,-297 0,-904 0,-1819 0,-127 -39,-203 -118,-226 -14,-5 -21,-18 -19,-40 2,-22 11,-32 27,-32 71,0 147,1 226,2 79,1 141,2 183,2 18,0 29,5 35,16 5,11 5,22 -1,32 -6,11 -15,17 -25,20 -39,10 -68,31 -86,65 -18,34 -26,87 -24,162 0,101 0,398 0,893 0,495 0,806 0,933 0,10 0,23 0,40 2,60 3,103 3,129 0,26 2,56 5,90 4,34 9,57 17,70 8,13 19,25 32,36 13,11 30,17 50,20 13,2 22,10 28,23 6,13 7,26 3,40 -4,13 -13,20 -25,20 -184,0 -320,0 -410,0z"/>
  <path fill="#2B2A29" fill-rule="nonzero" d="M6197 6784c5,122 30,232 75,329 45,97 105,176 182,235 55,41 116,64 183,68 67,5 131,-8 191,-38 61,-30 112,-86 154,-169 42,-83 64,-184 66,-304 0,-14 1,-28 3,-40 0,-410 0,-991 0,-1744 0,-127 -39,-203 -118,-226 -14,-2 -20,-14 -17,-36 3,-22 11,-32 25,-32 71,0 146,0 225,0 79,0 139,0 182,0 18,0 29,5 35,16 5,11 5,22 -1,34 -6,12 -15,19 -25,22 -39,10 -67,31 -84,65 -17,34 -25,86 -25,158 0,101 0,391 0,872 0,481 0,783 0,908 0,14 0,29 0,43 -5,122 -28,233 -68,333 -40,99 -95,182 -163,246 -69,65 -158,96 -266,95 -109,-1 -229,-41 -359,-120 -61,-36 -108,-47 -143,-34 -35,13 -53,51 -55,113 0,24 -5,43 -16,58 -11,14 -21,17 -31,7 -10,-10 -15,-30 -15,-61 2,-89 2,-224 0,-406 -2,-182 -3,-309 -3,-381 2,-31 8,-53 19,-67 11,-13 21,-14 32,-2 11,12 17,31 19,58z"/>
  <path fill="#2B2A29" fill-rule="nonzero" d="M8425 7531c-16,0 -27,-7 -33,-22 -6,-14 -7,-28 -1,-41 5,-13 14,-21 27,-23 50,-10 80,-36 90,-79 10,-43 15,-146 15,-309 2,-297 3,-901 3,-1812 0,-125 -44,-200 -131,-226 -9,-2 -15,-10 -17,-22 -3,-12 -1,-23 5,-32 6,-10 15,-14 25,-14 71,0 148,0 230,0 82,0 145,0 187,0 18,0 29,5 35,16 5,11 5,22 -1,32 -6,11 -14,17 -23,20 -41,10 -71,31 -88,65 -18,34 -26,86 -24,158 0,103 0,397 0,881 375,-642 566,-971 573,-985 45,-81 22,-123 -67,-126 -14,0 -25,-5 -31,-16 -6,-11 -6,-22 0,-32 6,-11 17,-16 33,-16 89,0 212,0 370,0 16,0 27,5 32,14 5,10 6,20 1,31 -4,11 -12,17 -23,20 -62,12 -129,80 -198,205 -89,158 -259,455 -509,892 284,537 504,940 661,1208 48,81 126,126 233,133 27,0 41,16 43,47 4,24 -5,37 -27,40 -2,0 -4,0 -5,0 -61,0 -157,-1 -289,-2 -132,-1 -230,-1 -295,2 -27,0 -40,-16 -40,-47 0,-22 10,-32 29,-32 55,0 87,-14 94,-43 7,-29 -5,-72 -37,-129 -73,-139 -249,-464 -528,-974 -7,-12 -14,-24 -21,-36 0,127 0,283 0,467 0,185 0,294 0,327 0,7 0,19 0,36 2,60 3,103 3,129 0,26 2,56 5,90 4,34 9,57 17,70 8,13 19,25 32,36 13,11 31,17 52,20 11,2 19,10 25,23 6,13 8,26 4,40 -4,13 -13,20 -27,20 -184,0 -320,0 -410,0z"/>
  <path fill="#2B2A29" fill-rule="nonzero" d="M10925 7533c-16,0 -26,-8 -31,-23 -4,-16 -2,-29 7,-41 5,-14 13,-23 24,-25 52,-7 83,-38 94,-93 7,-36 11,-132 11,-288 2,-297 3,-902 3,-1816 0,-127 -43,-204 -129,-230 -16,-5 -23,-18 -21,-40 2,-22 11,-32 27,-32 70,0 146,0 230,0 84,0 148,0 193,0 18,0 29,5 33,16 4,11 4,22 -1,34 -5,12 -13,19 -24,22 -34,7 -60,24 -78,50 -18,26 -29,65 -32,115 0,1124 1,1793 3,2006 2,74 11,123 27,146 16,23 38,35 67,38 11,0 25,0 43,0 54,2 92,4 115,4 23,0 53,-1 90,-2 37,-1 61,-4 74,-7 12,-4 32,-11 58,-23 26,-12 44,-25 55,-38 11,-13 27,-33 50,-59 22,-26 42,-53 58,-79 16,-26 38,-62 67,-108 9,-14 21,-17 35,-9 14,8 18,25 11,49l-134 439c-462,-2 -769,-4 -921,-4z"/>
  <path fill="#2B2A29" fill-rule="nonzero" d="M13283 7535c-16,0 -27,-7 -33,-22 -6,-14 -7,-29 -1,-45 5,-16 14,-23 27,-23 36,0 61,-13 75,-38 14,-25 21,-75 21,-149 2,-89 2,-434 1,-1037 -1,-603 0,-919 1,-947 0,-60 -14,-113 -43,-158 -29,-46 -63,-73 -104,-83 -12,-5 -21,-14 -27,-27 -5,-13 -6,-26 -1,-38 4,-12 12,-18 23,-18 68,-2 159,-4 273,-4 18,0 33,7 44,20 12,13 20,26 24,40 4,13 12,39 23,77l439 1578c225,-875 366,-1416 423,-1625 11,-36 21,-60 29,-72 9,-12 21,-18 37,-18 52,0 101,0 149,0 47,0 85,0 114,0 14,0 21,11 20,32 -1,22 -8,34 -20,36 -70,10 -104,38 -104,86 -2,139 -3,496 -3,1071 0,575 0,953 0,1132 0,91 39,139 118,144 13,2 21,11 27,25 5,14 5,28 -1,41 -6,13 -17,20 -33,20 -61,0 -130,0 -209,0 -79,0 -151,0 -217,0 -11,0 -19,-7 -24,-22 -5,-14 -6,-29 -3,-43 4,-14 11,-22 21,-22 71,-2 106,-54 104,-155 -2,-158 -3,-725 -3,-1700l-471 1733 -493 -1744c0,856 2,1414 5,1675 0,74 6,123 19,147 12,24 39,37 80,40 14,2 24,11 29,25 5,14 4,29 -3,43 -7,14 -19,22 -35,22 -37,0 -87,0 -150,0 -62,0 -112,0 -150,0z"/>
  <path fill="#2B2A29" fill-rule="nonzero" d="M17843 4898c16,0 27,7 33,22 6,14 7,29 1,45 -5,16 -15,23 -29,23 -36,2 -59,13 -71,32 -12,19 -17,66 -17,140 0,122 1,430 3,924 2,494 3,805 3,935l0 4 0 564 -1068 -2258 -13 1877c0,74 7,124 20,149 13,25 40,39 79,41 14,0 25,7 31,22 6,14 6,29 -1,43 -7,14 -19,22 -35,22 -37,2 -87,3 -150,2 -62,-1 -112,-2 -150,-2 -18,0 -30,-7 -36,-22 -6,-14 -6,-29 0,-43 6,-14 16,-23 28,-25 36,0 61,-12 75,-36 14,-24 21,-74 21,-151 0,-89 0,-434 -1,-1037 -1,-603 0,-919 1,-947 2,-60 -12,-113 -40,-158 -29,-46 -63,-73 -104,-83 -12,-5 -21,-14 -27,-27 -5,-13 -6,-26 -1,-38 4,-12 12,-19 23,-22 59,0 141,1 246,4 34,0 61,10 82,31 21,20 46,62 76,124 137,285 409,850 814,1693 4,-832 4,-1354 3,-1567 -2,-74 -9,-124 -21,-149 -13,-25 -39,-38 -80,-38 -14,-2 -24,-11 -29,-25 -5,-14 -5,-29 1,-43 6,-14 17,-23 33,-25 41,0 94,0 159,0 65,0 113,0 143,0z"/>
  <path fill="#2B2A29" fill-rule="nonzero" d="M2355 10642c104,165 212,246 324,241 79,-2 150,-44 216,-124 65,-80 117,-181 157,-302 39,-121 70,-246 92,-376 22,-129 35,-254 39,-374 5,-168 -14,-341 -58,-519 -44,-179 -106,-329 -187,-451 -81,-122 -168,-185 -261,-187 -7,0 -14,0 -21,0 -130,22 -239,144 -327,367 -2,7 -5,18 -11,32 -11,34 -21,61 -29,83 -75,247 -108,505 -99,773 11,369 66,648 166,838zm329 -2236c2,0 4,0 8,0 198,-5 365,110 501,345 136,235 204,552 204,953 0,228 -21,430 -63,606 -42,176 -99,316 -170,419 -71,103 -150,180 -236,232 -86,52 -177,77 -273,77 -2,0 -4,0 -8,0 -87,-2 -170,-29 -249,-81 -79,-52 -150,-126 -214,-225 -64,-98 -116,-227 -157,-386 -40,-159 -64,-341 -71,-545 -16,-424 44,-763 179,-1017 136,-254 311,-380 525,-377 7,0 15,0 24,0z"/>
  <path fill="#2B2A29" fill-rule="nonzero" d="M4376 11012c-23,0 -34,-13 -32,-40 2,-26 12,-41 32,-43 50,-10 80,-36 90,-79 10,-43 16,-146 17,-309 0,-297 0,-904 0,-1819 0,-125 -43,-200 -129,-226 -11,-2 -17,-10 -17,-22 -1,-12 2,-23 9,-34 7,-11 16,-16 27,-16 55,0 137,1 244,2 107,1 195,2 265,2 175,-2 320,62 435,194 115,132 170,309 165,532 -5,235 -70,422 -193,561 -123,139 -283,195 -479,169 -30,-5 -46,-16 -46,-32 0,-19 33,-35 99,-47 129,-22 232,-86 311,-192 79,-107 116,-246 112,-419 -2,-192 -54,-343 -155,-455 -102,-111 -250,-160 -445,-146l-5 1956c0,10 0,23 0,40 2,60 3,103 3,129 0,26 2,57 5,92 4,35 9,58 17,70 8,12 19,23 32,34 13,11 30,17 50,20 13,2 22,10 28,23 6,13 7,26 3,40 -4,13 -13,20 -25,20 -129,2 -268,1 -418,-4z"/>
  <path fill="#2B2A29" fill-rule="nonzero" d="M7548 10585c32,77 77,190 135,340 58,150 96,246 114,289 123,307 253,524 388,651 136,127 281,155 437,83 29,-14 45,-11 48,11 2,19 -17,43 -56,72 -121,84 -262,87 -423,11 -161,-77 -299,-205 -415,-385 -45,-70 -91,-157 -139,-262 -48,-105 -86,-192 -112,-259 -27,-67 -67,-171 -121,-313 -125,151 -274,225 -447,223 -2,0 -4,0 -8,0 -87,0 -171,-26 -250,-77 -79,-52 -151,-126 -214,-225 -63,-98 -116,-228 -157,-388 -41,-161 -65,-343 -72,-546 -14,-405 40,-732 162,-981 122,-249 283,-386 483,-410 29,-7 60,-11 94,-11 200,-2 368,114 503,349 136,235 204,552 204,953 0,357 -51,650 -153,877zm-153 -306c36,-168 56,-344 62,-528 5,-170 -11,-347 -50,-530 -38,-183 -96,-340 -174,-471 -78,-131 -162,-197 -253,-200 -9,0 -17,0 -24,0 -79,12 -148,61 -209,146 -61,85 -108,189 -142,311 -34,122 -59,250 -75,385 -16,134 -22,265 -19,392 14,484 90,811 228,981 77,89 157,132 241,129 134,-5 243,-113 327,-324 -71,-185 -141,-331 -210,-440 -69,-109 -143,-178 -224,-207 -18,-7 -20,-19 -5,-36 36,-38 99,-30 190,25 123,74 236,197 337,367z"/>
  <path fill="#2B2A29" fill-rule="nonzero" d="M8911 11020c-23,-2 -34,-17 -32,-43 2,-26 13,-41 32,-43 50,-7 80,-33 90,-77 10,-44 16,-148 17,-311 0,-300 0,-908 0,-1826 0,-125 -44,-200 -131,-226 -14,-5 -20,-17 -17,-38 3,-20 12,-31 28,-31 150,0 322,0 517,0 177,-2 323,62 439,194 116,132 172,309 169,532 -5,194 -51,358 -138,491 -87,133 -202,213 -347,239 57,38 112,87 166,147 54,60 99,119 137,178 37,59 79,136 123,232 45,96 79,175 104,237 25,62 60,152 106,268 46,116 79,203 100,261 127,314 260,536 399,667 139,131 288,159 447,84 30,-14 46,-11 48,11 2,19 -16,44 -54,76 -125,84 -270,86 -435,7 -165,-79 -307,-210 -424,-392 -64,-98 -129,-225 -195,-379 -66,-155 -125,-303 -177,-446 -52,-143 -106,-282 -162,-419 -56,-137 -117,-253 -183,-349 -66,-96 -135,-157 -206,-183 -30,-12 -38,-25 -24,-40 13,-14 44,-26 94,-36 127,-22 230,-86 309,-194 79,-108 118,-248 116,-421 -4,-192 -57,-344 -159,-457 -103,-113 -251,-162 -446,-147l-3 1966c0,10 0,23 0,40 0,60 0,103 1,129 1,26 3,57 7,92 4,35 9,58 16,70 7,12 17,23 31,34 13,11 31,17 52,20 12,2 22,11 28,25 6,14 7,28 3,40 -4,12 -14,18 -28,18 -129,2 -268,2 -418,0z"/>
  <path fill="#2B2A29" fill-rule="nonzero" d="M11860 10225c13,252 97,437 254,557 54,41 113,65 179,74 66,8 129,1 190,-23 61,-24 112,-75 153,-153 41,-78 62,-176 62,-293 0,-60 -16,-117 -48,-173 -32,-55 -73,-107 -123,-156 -50,-49 -106,-99 -167,-149 -62,-50 -123,-104 -185,-162 -62,-58 -117,-119 -167,-183 -50,-65 -90,-140 -121,-225 -30,-85 -45,-177 -43,-275 2,-105 21,-201 58,-288 37,-86 83,-155 139,-205 56,-50 116,-89 181,-115 64,-26 128,-38 190,-36 41,0 84,7 130,22 46,14 82,28 110,40 28,12 54,20 79,23 25,4 43,-5 54,-25 11,-20 16,-56 16,-106 0,-29 5,-50 15,-63 10,-13 20,-14 31,-2 11,12 16,35 16,68 0,36 2,284 5,744 0,24 -6,43 -17,58 -12,14 -23,17 -35,9 -12,-8 -18,-28 -20,-59 -2,-50 -9,-104 -23,-160 -13,-56 -33,-115 -59,-176 -26,-61 -63,-113 -111,-155 -48,-42 -104,-64 -169,-67 -100,-5 -188,38 -265,128 -77,90 -114,200 -112,329 0,60 21,122 64,185 43,64 96,121 158,173 62,52 130,111 204,178 73,67 141,134 204,200 62,66 115,147 158,243 43,96 64,197 64,302 2,168 -30,318 -96,449 -66,132 -163,222 -291,270 -128,48 -284,17 -470,-93 -59,-36 -106,-47 -141,-34 -35,13 -53,51 -55,113 0,22 -5,40 -16,54 -11,14 -21,17 -31,7 -10,-10 -14,-30 -12,-61 0,-86 -1,-219 -3,-399 -2,-180 -2,-304 0,-374 0,-34 5,-56 16,-68 11,-12 22,-13 33,-2 12,11 17,29 17,56z"/>
  <path fill="#2B2A29" fill-rule="nonzero" d="M14379 8629c-45,34 -71,40 -80,20 -9,-20 5,-50 43,-88 102,-110 215,-180 340,-209 59,-12 129,-6 209,18 80,24 154,52 220,84 66,32 142,56 228,70 86,14 162,6 228,-25 37,-19 59,-16 64,11 5,22 -14,50 -59,86 -98,81 -191,132 -279,151 -87,19 -168,12 -241,-22 -2,19 -2,40 0,61 0,98 0,388 0,868 0,481 0,783 0,908 0,7 0,19 0,36 0,60 0,102 1,128 1,25 3,55 7,88 4,34 9,56 16,68 7,12 17,23 31,34 13,11 30,17 50,20 13,2 22,10 28,22 6,12 7,25 3,38 -4,13 -14,20 -28,20 -177,0 -309,0 -396,0 -14,0 -25,-7 -31,-20 -6,-13 -7,-27 -1,-41 5,-14 13,-23 24,-25 50,-7 79,-32 88,-74 9,-42 14,-142 16,-300 0,-290 0,-880 0,-1769 0,-77 -2,-128 -5,-155 -11,-5 -26,-13 -46,-23 -20,-11 -32,-19 -37,-23 -125,-67 -255,-53 -391,43z"/>
  <path fill="#2B2A29" fill-rule="nonzero" d="M16721 9798c-2,-103 -1,-193 3,-270 4,-369 4,-647 0,-834 0,-77 -7,-127 -21,-151 -14,-24 -43,-37 -86,-40 -25,0 -34,-14 -27,-43 5,-26 22,-40 51,-40 45,-2 96,-2 155,0 59,2 108,2 147,0 27,0 41,13 43,40 -2,24 -13,38 -32,43 -38,0 -62,10 -75,29 -12,19 -19,67 -19,144 0,93 1,539 3,1337 5,117 14,222 27,315 13,92 32,182 58,270 26,87 62,157 108,209 46,52 102,81 166,88 11,2 22,4 35,4l3 0c77,0 141,-35 193,-104 95,-137 147,-453 158,-949 0,-10 0,-385 0,-1125 0,-127 -46,-204 -139,-230 -11,-2 -17,-9 -20,-20 -3,-11 -1,-22 5,-32 6,-11 15,-16 25,-16 77,0 159,0 246,0 87,0 154,0 201,0 20,0 32,5 37,16 5,11 5,22 -1,34 -6,12 -15,19 -25,22 -43,10 -74,31 -92,65 -19,34 -28,86 -28,158 2,93 2,229 0,408 -2,179 -3,298 -3,358 2,43 3,89 3,137 0,60 -1,117 -3,173 0,72 -2,134 -5,187 -9,146 -23,278 -42,395 -19,117 -40,214 -63,289 -23,76 -51,141 -83,196 -32,55 -62,96 -91,124 -29,28 -60,49 -95,65 -35,16 -63,25 -86,27 -22,2 -48,4 -76,4 -2,0 -4,0 -8,0 -61,2 -115,-5 -163,-22 -48,-17 -97,-51 -146,-102 -49,-52 -90,-122 -122,-210 -32,-89 -59,-210 -80,-365 -21,-155 -33,-336 -35,-545 0,-12 0,-24 0,-36z"/>
  <path fill="#2B2A29" fill-rule="nonzero" d="M4838 12469c16,0 27,7 33,20 6,13 6,26 -1,40 -7,13 -19,20 -35,20 -36,2 -71,21 -104,56 -34,35 -58,80 -72,135 -255,906 -460,1656 -613,2251 -21,79 -36,119 -43,119 -7,0 -22,-42 -46,-126 -41,-149 -158,-556 -349,-1222 -192,-666 -290,-1004 -293,-1014 -34,-122 -91,-185 -171,-187 -25,-2 -37,-17 -37,-45 0,-28 13,-41 40,-41 61,0 141,0 242,0 101,0 183,0 248,0 14,0 25,7 31,20 6,13 6,26 0,38 -6,12 -17,18 -31,18 -98,0 -131,60 -99,180 20,74 72,258 158,550 86,292 166,566 241,820l112 381c262,-942 415,-1494 458,-1657 21,-96 25,-167 12,-212 -13,-46 -40,-68 -79,-68 -16,0 -27,-5 -33,-16 -6,-11 -6,-22 0,-34 6,-12 17,-18 31,-18 171,-2 305,-4 402,-4z"/>
  <path fill="#2B2A29" fill-rule="nonzero" d="M8493 12472c14,0 24,6 29,18 5,12 5,25 -1,38 -6,13 -17,20 -31,20 -30,2 -61,22 -91,58 -30,36 -52,80 -64,133 -223,908 -403,1660 -538,2254 -18,81 -30,122 -36,122 -6,0 -20,-43 -42,-129 -21,-91 -196,-790 -525,-2096 -229,937 -396,1639 -503,2107 -18,81 -30,122 -36,122 -6,0 -20,-43 -42,-129 -36,-149 -137,-556 -305,-1222 -168,-666 -254,-1005 -257,-1017 -29,-120 -79,-182 -150,-187 -21,0 -32,-14 -32,-41 0,-28 12,-41 35,-41 54,-2 125,-3 213,-2 88,1 160,2 216,2 14,0 24,6 28,18 4,12 4,24 -1,36 -5,12 -13,18 -24,18 -46,2 -73,20 -79,52 -6,32 0,75 17,128 39,168 182,724 428,1668 218,-908 345,-1444 383,-1607 13,-55 20,-101 21,-137 -2,-24 -8,-43 -19,-58 -23,-24 -50,-37 -80,-40 -13,0 -21,-7 -27,-20 -5,-13 -5,-27 1,-41 6,-14 17,-22 31,-22 20,0 38,0 56,0 13,0 28,0 46,0 186,0 294,0 324,0 14,0 24,6 28,18 4,12 4,25 -1,38 -5,13 -14,20 -27,20 -45,0 -70,16 -76,49 -6,32 -1,75 15,128l431 1668c218,-908 345,-1444 383,-1607 20,-96 25,-161 17,-194 -8,-34 -30,-50 -66,-50 -13,0 -21,-6 -27,-18 -5,-12 -5,-23 0,-34 5,-11 14,-16 27,-16 150,-5 267,-6 351,-4z"/>
  <path fill="#2B2A29" fill-rule="nonzero" d="M10834 12476c16,0 27,7 32,20 5,13 4,26 -4,40 -8,13 -19,20 -33,20 -62,2 -118,67 -166,194 -95,259 -217,585 -367,978 86,221 180,465 284,733 77,197 122,309 137,338 32,65 60,111 84,140 24,29 54,44 90,47 25,0 38,14 38,41 0,28 -13,41 -38,41 -64,2 -144,3 -240,2 -96,-1 -175,-2 -237,-2 -16,0 -27,-7 -33,-20 -6,-13 -6,-27 0,-41 6,-14 16,-22 28,-22 100,-2 129,-58 86,-165 -9,-29 -27,-75 -54,-140 -36,-91 -89,-230 -161,-417 -29,-74 -60,-156 -94,-244 -154,398 -264,681 -332,848 -14,70 4,104 56,104 16,0 27,8 33,23 6,16 6,31 0,47 -6,16 -17,23 -33,23 -16,0 -52,1 -108,2 -56,1 -105,2 -146,4 -41,1 -91,1 -150,-2 -25,0 -37,-15 -37,-45 0,-30 13,-46 37,-49 36,0 70,-15 103,-45 33,-30 60,-69 82,-117 71,-165 161,-380 268,-644 50,-132 97,-254 142,-367 -130,-340 -262,-684 -396,-1032 -4,-10 -7,-17 -11,-22 -30,-65 -58,-111 -82,-140 -24,-29 -54,-44 -90,-47 -25,-2 -37,-17 -37,-43 0,-26 13,-41 40,-43 61,0 141,1 242,2 101,1 183,2 245,2 16,0 27,6 33,18 6,12 6,24 0,36 -6,12 -17,18 -31,18 -54,2 -89,20 -106,54 -17,34 -15,75 7,126 30,81 130,342 300,780 136,-352 220,-576 254,-672 27,-74 38,-141 33,-201 -4,-60 -25,-90 -60,-90 -23,0 -37,-11 -40,-32 -4,-22 5,-35 27,-40 2,0 4,0 5,0 105,0 238,0 399,0z"/>
  <path fill="#2B2A29" fill-rule="nonzero" d="M12506 15064c-16,-2 -27,-10 -32,-23 -5,-13 -6,-27 -1,-41 4,-14 13,-23 25,-25 50,-7 80,-32 90,-76 10,-43 15,-146 15,-309 0,-149 0,-430 0,-845 -221,-592 -350,-924 -386,-996 -32,-65 -60,-111 -84,-140 -24,-29 -53,-44 -87,-47 -25,-2 -37,-17 -37,-45 0,-28 12,-41 37,-41 62,0 144,1 244,2 100,1 182,1 246,-2 14,0 25,7 31,20 6,13 6,26 0,38 -6,12 -17,18 -31,18 -54,0 -88,17 -104,52 -16,35 -14,77 5,128 50,141 151,404 303,787 116,-302 201,-528 254,-679 27,-77 38,-146 32,-207 -5,-61 -27,-92 -64,-92 -25,0 -37,-12 -37,-36 -2,-22 9,-32 32,-32 86,0 220,0 404,0 18,2 29,10 35,22 5,12 4,25 -3,38 -7,13 -18,20 -32,20 -34,2 -67,22 -98,59 -31,37 -57,83 -76,138 -114,309 -240,642 -378,999 -5,388 -8,671 -8,848 2,7 3,19 3,36 0,62 0,107 0,133 0,26 2,56 5,90 4,34 9,57 17,70 8,13 19,25 32,36 13,11 30,17 50,20 13,2 22,10 28,23 6,13 7,26 3,40 -4,13 -13,20 -25,20 -182,0 -318,0 -407,0z"/>
  <path fill="#2B2A29" fill-rule="nonzero" d="M15720 12476l209 0c-477,1244 -758,1977 -844,2200 -21,72 -24,127 -7,165 17,38 42,58 74,58 95,5 177,7 248,5 71,-1 133,-11 187,-31 54,-19 104,-53 150,-102 46,-49 91,-118 138,-207 25,-48 50,-60 75,-36 14,14 18,32 11,54l-153 482c-605,0 -984,0 -1135,0l886 -2286c9,-29 12,-53 8,-72 -4,-19 -16,-30 -37,-32 -2,0 -4,-1 -5,-4 -168,-22 -298,-29 -391,-22 -87,10 -154,27 -201,52 -46,25 -84,71 -112,138 -9,22 -21,31 -35,27 -14,-4 -18,-21 -11,-52 16,-70 33,-132 51,-187 18,-55 32,-93 43,-115l16 -36c421,0 699,0 833,0l3 0z"/>
  <path fill="#2B2A29" fill-rule="nonzero" d="M4198 18335c-173,-2 -321,-102 -443,-298 -122,-197 -190,-481 -202,-852 -14,-395 42,-712 169,-949 127,-237 289,-355 487,-352 7,0 14,0 21,0 4,0 6,0 8,0 186,-5 342,102 469,320 127,218 190,515 190,892 0,211 -20,398 -59,563 -39,164 -92,294 -158,390 -66,96 -139,168 -220,218 -80,49 -166,73 -257,70 -2,0 -4,0 -5,0zm5 -2319c-71,12 -136,57 -193,135 -57,78 -102,174 -134,288 -32,114 -55,234 -70,360 -14,126 -20,247 -16,365 14,448 85,753 212,913 71,81 146,121 225,119 73,-5 139,-42 197,-111 58,-70 104,-159 137,-270 33,-110 58,-223 76,-338 18,-115 29,-229 32,-342 5,-161 -10,-326 -46,-496 -36,-170 -90,-316 -162,-437 -72,-121 -151,-183 -237,-185 -7,0 -14,0 -21,0z"/>
  <path fill="#2B2A29" fill-rule="nonzero" d="M6845 18334c-14,0 -25,-7 -31,-22 -6,-14 -7,-28 -3,-41 4,-13 13,-21 25,-23 50,-10 80,-36 90,-79 10,-43 16,-146 17,-309 0,-407 -2,-901 -5,-1481 -2,-38 -6,-71 -12,-97 -6,-26 -17,-44 -31,-52 -14,-8 -28,-14 -40,-18 -12,-4 -29,-2 -50,5 -21,7 -37,14 -48,20 -12,6 -27,14 -47,23 -5,2 -9,5 -11,7 -14,7 -23,-2 -27,-29 -4,-26 1,-44 13,-54 66,-46 142,-99 228,-162 86,-62 142,-103 169,-122 29,-17 46,-21 51,-13 5,8 8,40 8,95 0,24 0,43 0,58 0,101 0,398 0,893 0,495 0,806 0,933 0,10 0,23 0,40 2,60 3,103 3,129 0,26 2,56 5,90 4,34 9,57 17,70 8,13 19,25 32,36 13,11 31,17 52,20 11,2 19,10 25,23 6,13 7,26 3,40 -4,13 -13,20 -25,20 -184,2 -320,2 -410,0z"/>
  <path fill="#2B2A29" fill-rule="nonzero" d="M9011 18331c20,-24 45,-56 75,-97 30,-41 87,-120 169,-239 82,-119 158,-232 226,-340 69,-108 139,-229 210,-363 71,-134 122,-249 153,-345 4,-7 6,-14 8,-22 2,-5 3,-10 3,-14 43,-146 52,-276 27,-390 -25,-114 -72,-204 -141,-270 -69,-66 -143,-95 -224,-88 -75,10 -146,55 -212,137 -66,81 -119,168 -158,259 -9,22 -20,31 -33,29 -13,-2 -17,-20 -12,-54 23,-139 60,-257 110,-354 50,-97 106,-166 169,-207 62,-41 128,-67 197,-77 69,-11 136,-1 202,31 66,31 126,72 179,122 54,50 97,116 131,196 34,80 53,164 56,250 5,223 -49,435 -163,636 0,2 -1,5 -3,7 -46,81 -129,210 -249,385 -120,175 -222,315 -308,421 -29,36 -40,71 -33,104 6,34 20,62 40,84 21,23 41,34 60,34 95,5 177,7 248,5 71,-1 133,-11 187,-31 54,-19 104,-53 150,-102 46,-49 91,-118 138,-207 25,-48 50,-60 75,-36 14,14 18,32 11,54l-153 482c-605,0 -984,0 -1135,0z"/>
  <path fill="#2B2A29" fill-rule="nonzero" d="M11830 16378c-25,43 -46,63 -63,59 -17,-4 -15,-40 7,-110 48,-144 117,-259 206,-347 89,-87 185,-125 287,-113 100,14 182,49 245,104 63,55 105,122 125,201 20,79 25,162 16,250 -9,87 -34,173 -75,257 -41,84 -92,155 -153,212 11,5 24,12 40,22 16,10 45,35 86,76 41,41 76,89 104,144 29,55 53,134 72,235 20,102 24,214 13,336 0,7 -1,12 -3,14 -7,144 -44,270 -110,377 -66,108 -156,180 -270,218 -114,37 -250,9 -407,-84 -52,-31 -93,-41 -123,-29 -30,12 -46,44 -48,97 -2,22 -7,38 -16,50 -9,12 -18,14 -27,5 -9,-8 -12,-26 -11,-52 0,-79 -1,-198 -3,-358 -2,-159 -2,-270 0,-333 0,-29 5,-49 15,-59 10,-11 20,-11 29,-2 10,10 15,26 15,50 11,223 87,388 228,496 43,34 91,53 143,59 53,6 104,-1 153,-20 49,-19 92,-58 130,-115 37,-58 62,-129 72,-216 0,-10 1,-23 3,-40 2,-17 2,-49 1,-97 -1,-48 -4,-93 -11,-137 -6,-43 -19,-91 -39,-144 -20,-53 -44,-98 -74,-135 -29,-37 -71,-68 -125,-93 -54,-25 -116,-37 -187,-34 -43,0 -64,-11 -64,-34 0,-23 15,-35 46,-38 70,-10 137,-42 201,-97 64,-55 113,-135 147,-241 46,-141 47,-270 3,-386 -45,-116 -104,-185 -179,-207 -71,-22 -139,-14 -202,23 -63,37 -129,114 -197,232z"/>
  <path fill="#2B2A29" fill-rule="nonzero" d="M15076 16482l-501 967c209,-5 419,-8 629,-11 -4,-642 -5,-998 -5,-1068 2,-89 -21,-89 -67,0 -5,12 -14,30 -27,54 -12,26 -21,44 -27,54l-3 4zm32 1841c-16,0 -27,-7 -32,-20 -5,-13 -6,-27 -1,-41 4,-14 13,-23 25,-25 50,-7 80,-33 90,-77 10,-44 15,-147 15,-307 0,-36 0,-85 0,-147 -250,2 -501,4 -752,4l-3 -248 533 -1046 3 -4 5 -11 273 -507 142 4c-2,350 -2,863 0,1539l252 -4 0 270c-84,2 -168,4 -252,4 0,65 0,116 0,155 0,7 0,19 0,36 0,62 0,107 1,133 1,26 3,56 7,90 4,34 9,56 16,68 7,12 17,23 31,34 13,11 31,19 52,23 12,0 22,7 28,22 6,14 7,28 3,40 -4,12 -14,18 -28,18 -182,2 -318,2 -407,0z"/>
  <path fill="#2B2A29" fill-rule="nonzero" d="M3814 19356c57,0 146,0 265,0 120,0 225,-1 316,-4l134 0c55,120 109,241 161,363 11,26 4,46 -21,58 -27,12 -50,-1 -70,-40 -16,-36 -32,-67 -48,-92 -16,-25 -35,-46 -56,-61 -21,-16 -39,-28 -54,-36 -14,-8 -37,-14 -70,-18 -32,-4 -56,-6 -72,-7 -16,-1 -47,-1 -92,0 -46,1 -80,2 -103,2 -21,0 -36,17 -44,52 -8,35 -12,94 -12,178 2,177 4,362 8,554 45,-2 96,-2 153,0 48,2 96,11 145,27 48,16 99,43 153,83 54,40 100,89 139,149 39,60 69,140 90,239 21,99 25,212 15,336 0,7 -1,12 -3,14 -7,144 -44,270 -110,377 -66,108 -156,180 -270,218 -114,37 -250,9 -407,-84 -52,-31 -93,-41 -123,-29 -30,12 -46,44 -48,97 -2,22 -7,38 -16,50 -9,12 -18,14 -27,5 -9,-8 -13,-26 -11,-52 0,-79 -1,-198 -3,-358 -2,-159 -2,-270 0,-333 0,-29 5,-49 15,-59 10,-11 20,-11 29,-2 10,10 15,26 15,50 11,223 87,388 228,496 43,34 91,53 143,59 53,6 104,-1 153,-20 49,-19 92,-58 130,-115 37,-58 62,-129 72,-216l0 -4c0,-5 0,-10 0,-14 2,-22 3,-45 4,-70 1,-25 -1,-59 -5,-102 -4,-43 -12,-84 -23,-124 -11,-40 -29,-81 -54,-126 -25,-44 -55,-83 -91,-115 -36,-32 -83,-60 -142,-83 -59,-23 -125,-35 -198,-38 -62,-2 -124,-4 -185,-4l-8 -1204z"/>
  <path fill="#2B2A29" fill-rule="nonzero" d="M6969 20581c-21,139 -29,274 -23,406 6,132 21,250 46,354 24,104 62,189 115,253 53,65 114,98 183,101 75,5 138,-33 189,-113 51,-80 83,-179 98,-295 14,-116 11,-243 -11,-379 -21,-137 -60,-254 -115,-352 -41,-74 -92,-117 -153,-129 -61,-12 -118,-3 -171,27 -54,30 -106,73 -158,128zm785 -1251c34,2 51,17 51,43 0,22 -14,32 -43,32 -96,7 -187,40 -273,97 -86,58 -160,133 -222,226 -62,93 -116,198 -161,313 -45,115 -80,237 -107,367 121,-84 233,-131 335,-142 102,-11 193,22 274,99 81,77 141,199 181,367 30,110 39,226 25,347 -13,121 -39,233 -76,336 -37,103 -89,192 -155,266 -66,74 -137,119 -214,133 -50,12 -103,13 -159,2 -56,-11 -117,-39 -182,-84 -65,-46 -123,-108 -173,-187 -50,-79 -90,-191 -121,-336 -30,-145 -42,-312 -35,-502 7,-168 34,-328 82,-480 47,-152 108,-283 182,-394 74,-110 156,-206 246,-286 90,-80 183,-138 277,-174 95,-36 184,-50 268,-43z"/>
  <path fill="#2B2A29" fill-rule="nonzero" d="M10179 19383c64,0 129,0 193,0 -437,1146 -696,1820 -777,2024 -14,41 -33,90 -58,149 -24,59 -44,108 -60,149l-24 61c-18,0 -96,0 -236,0l827 -2143c-198,-36 -349,-48 -453,-36 -86,10 -150,29 -193,59 -43,30 -79,84 -107,164 -11,26 -25,37 -44,32 -19,-5 -25,-26 -17,-65 16,-81 33,-155 51,-219 18,-65 32,-110 43,-137l16 -40c423,0 702,0 836,0l3 0z"/>
  <path fill="#2B2A29" fill-rule="nonzero" d="M12155 20627c-29,34 -56,72 -83,115 -27,43 -55,107 -84,192 -29,85 -45,173 -47,264 -2,134 27,252 86,352 59,101 131,156 217,165 93,7 169,-31 228,-113 59,-83 89,-192 91,-329 0,-48 -17,-105 -50,-171 -33,-66 -75,-132 -126,-200 -51,-67 -94,-121 -130,-162 -36,-41 -70,-79 -102,-115zm-70 -76c-211,-211 -319,-419 -324,-626 -4,-163 31,-297 103,-401 72,-104 177,-170 315,-196 36,-2 76,-4 121,-4 45,0 92,13 142,38 50,25 96,56 137,93 41,37 75,92 102,164 27,72 40,156 40,252 2,175 -114,367 -348,575 34,34 69,71 104,111 36,41 78,95 127,162 49,67 88,140 118,219 29,79 44,156 44,230 0,165 -42,307 -127,424 -85,117 -196,191 -333,219 -43,10 -90,10 -141,0 -51,-10 -101,-30 -151,-61 -50,-31 -96,-71 -137,-120 -41,-49 -74,-113 -98,-192 -24,-79 -35,-167 -33,-262 2,-62 16,-128 42,-196 26,-68 59,-131 100,-189 41,-58 77,-104 107,-140 30,-36 61,-70 91,-101zm209 -187c161,-168 240,-340 238,-518 0,-288 -97,-428 -292,-421 -82,2 -149,38 -201,108 -52,70 -75,173 -70,309 4,129 112,303 324,521z"/>
  <path fill="#2B2A29" fill-rule="nonzero" d="M15327 20583c23,-137 33,-271 29,-404 -4,-133 -17,-252 -39,-356 -22,-104 -59,-189 -110,-255 -51,-66 -112,-102 -183,-110 -75,-7 -138,29 -190,108 -52,79 -86,177 -102,293 -16,116 -15,243 3,379 18,137 54,255 110,356 39,74 89,119 149,133 60,14 117,8 171,-20 54,-28 108,-69 162,-124zm-809 1226c-34,-5 -50,-20 -48,-47 0,-19 13,-30 40,-32 98,-2 190,-31 276,-84 86,-54 161,-127 225,-219 64,-92 120,-195 167,-307 47,-113 86,-234 116,-363 -123,81 -236,126 -339,133 -103,7 -194,-29 -273,-110 -79,-80 -137,-204 -173,-372 -29,-110 -35,-226 -19,-347 16,-121 44,-232 83,-334 39,-102 92,-189 159,-261 67,-72 140,-115 218,-129 50,-7 103,-5 159,7 56,12 116,42 181,90 64,48 121,112 169,192 48,80 86,194 112,340 27,146 35,314 24,503 -9,168 -39,327 -90,476 -51,150 -114,279 -190,386 -76,108 -160,201 -252,279 -92,78 -185,134 -280,167 -95,34 -184,44 -268,32z"/>
 </g>
</svg>
