<?xml version="1.0" encoding="UTF-8"?>
<!DOCTYPE svg PUBLIC "-//W3C//DTD SVG 1.1//EN" "http://www.w3.org/Graphics/SVG/1.1/DTD/svg11.dtd">
<!-- Creator: CorelDRAW 2017 -->
<svg xmlns="http://www.w3.org/2000/svg" xml:space="preserve" width="210mm" height="297mm" version="1.1" shape-rendering="geometricPrecision" text-rendering="geometricPrecision" image-rendering="optimizeQuality" fill-rule="evenodd" clip-rule="evenodd"
viewBox="0 0 21000 29700"
 xmlns:xlink="http://www.w3.org/1999/xlink">
 <g id="Layer_x0020_1">
  <metadata id="CorelCorpID_0Corel-Layer"/>
  <path fill="black" fill-rule="nonzero" d="M3108 1930l-346 0c84,36 94,216 29,542l-177 694c-267,986 -453,1484 -560,1496l330 0c-5,-69 74,-361 237,-877l617 0 270 999c65,275 237,390 515,344 -155,-131 -279,-371 -372,-721l-198 -823 -194 -794 -98 -395c-60,-244 -77,-398 -53,-464zm68 1590l-499 0 262 -1086 237 1086z"/>
  <path fill="black" fill-rule="nonzero" d="M5721 3126c-92,8 -187,10 -283,6l0 -1088 101 -4c240,-8 389,48 449,171 59,122 83,251 73,388 -10,136 -46,257 -107,360 -61,103 -138,159 -231,168zm36 1306c-105,13 -215,11 -329,-6l4 -1105c88,-8 193,-3 314,12 122,16 221,88 296,215 76,127 114,256 114,384 0,129 -40,241 -120,336 -80,96 -173,150 -279,163zm-390 190l486 0c148,-1 280,-52 395,-151 115,-99 178,-280 187,-542 -10,-244 -80,-427 -211,-551 -81,-65 -184,-107 -309,-127 94,-27 178,-88 251,-185 100,-133 150,-295 150,-485 0,-190 -51,-352 -152,-486 -101,-134 -224,-203 -369,-208l-776 0c112,90 169,342 169,755l0 620c0,746 -42,1199 -126,1359l305 0 0 2z"/>
  <path fill="black" fill-rule="nonzero" d="M8998 4183c-19,-28 -46,-15 -82,38 -150,269 -366,404 -649,405 -298,7 -526,-107 -684,-345 -158,-237 -236,-584 -233,-1040 0,-443 89,-784 268,-1023 179,-240 395,-360 649,-360 239,0 418,81 537,244 25,25 53,18 87,-21l-4 383 0 395c-32,-223 -84,-389 -155,-497 -118,-242 -270,-363 -458,-363 -188,0 -348,123 -480,368 -132,245 -198,540 -198,885 0,348 66,644 198,889 132,245 292,367 480,367 187,0 347,-122 479,-367 41,-77 55,-181 43,-312l203 354z"/>
  <path fill="black" fill-rule="nonzero" d="M10421 4358c99,-85 176,-225 232,-422 56,-197 84,-421 84,-673 0,-252 -51,-504 -153,-757 -102,-253 -232,-393 -388,-420 -157,-27 -280,-28 -370,-4l1 2373c297,20 496,-12 594,-97zm-682 251l0 -2 -274 0c74,-158 111,-610 111,-1357l0 -620c0,-414 -51,-666 -153,-757l355 0c298,-7 506,18 623,74 117,56 207,129 270,217 197,221 300,574 312,1060 -12,523 -85,883 -220,1083 -135,199 -290,300 -465,303l-558 0z"/>
  <path fill="black" fill-rule="nonzero" d="M13559 4087c1,-3 1,-6 1,-10l-1 10zm-1131 -877l-1 262 0 906 482 0c356,0 545,-97 565,-291l-45 481 -1328 0c74,-160 111,-614 111,-1362l0 -624c0,-414 -51,-664 -153,-747l369 0 765 0c99,0 159,-13 180,-40l0 539c-42,-217 -149,-320 -322,-308l-624 0 0 974 578 0c175,-9 275,-57 299,-143l0 480c-36,-89 -110,-132 -223,-128l-652 2z"/>
  <path fill="black" fill-rule="nonzero" d="M14967 4617l-425 0c81,-160 122,-614 122,-1362l0 -624c0,-414 -55,-664 -164,-747l1221 0c104,1 168,-13 193,-42l0 540c-45,-217 -160,-320 -346,-308l-672 0 0 974 624 0c188,-9 296,-57 322,-143l0 480c-39,-89 -119,-131 -241,-126l-703 0 0 262 0 546 0 274c-5,170 18,262 70,276z"/>
  <path fill="black" fill-rule="nonzero" d="M18166 3556c-45,62 -75,143 -93,244 -17,100 -64,238 -141,412 -161,254 -371,384 -630,390 -333,8 -581,-123 -747,-393 -165,-270 -248,-593 -248,-970 0,-377 89,-703 268,-978 8,-12 15,-25 24,-36 177,-249 416,-366 720,-350 265,0 457,81 578,244 56,76 91,65 105,-32l0 986c-23,-242 -89,-453 -198,-634 -139,-227 -307,-340 -503,-340 -195,0 -363,113 -501,340 -138,227 -208,501 -208,822 0,321 60,594 181,818 120,225 297,340 529,345l0 -2c164,-1 303,-115 418,-341 65,-127 93,-246 84,-358 -10,-111 -84,-176 -223,-194 -139,-18 -284,-21 -434,-8l7 -53 1013 0 0 88z"/>
  <path fill="black" fill-rule="nonzero" d="M3573 7836l0 -712c0,-414 -46,-663 -139,-746l422 0c-39,82 -58,331 -58,746l0 624c0,749 20,1203 59,1364l-383 0c51,-136 83,-482 95,-1039l-898 0c4,557 24,903 58,1039l-390 0c68,-161 102,-616 102,-1364l0 -624c0,-414 -48,-663 -143,-746l430 0c-39,82 -58,331 -58,746l0 712 903 0z"/>
  <path fill="black" fill-rule="nonzero" d="M5580 8156c5,499 25,816 60,951l-390 0c68,-161 102,-616 102,-1364l0 -624c0,-414 -48,-663 -143,-746l430 0c-39,82 -58,331 -58,746l0 1037z"/>
  <path fill="black" fill-rule="nonzero" d="M7886 8876c6,-87 9,-266 8,-534l-1 -1379c0,-330 -63,-527 -190,-594l527 0c-51,66 -76,264 -76,594l0 1205c1,385 -8,637 -27,754 -19,118 -48,222 -88,315 -104,165 -229,247 -375,247 -189,31 -339,-44 -450,-223 -111,-180 -172,-420 -182,-720 -11,-94 -51,-160 -120,-198l397 0c-37,14 -55,98 -54,251 0,193 27,369 81,528 54,159 164,240 330,244 100,-16 164,-101 193,-255 14,-69 23,-147 30,-234z"/>
  <path fill="black" fill-rule="nonzero" d="M9374 8142c5,499 25,816 60,951l-390 0c68,-161 102,-616 102,-1364l0 -624c0,-414 -48,-663 -143,-746l430 0c-39,82 -58,331 -58,746l0 642 479 -575 231 -285c89,-127 69,-214 -59,-261l577 0c-58,24 -171,141 -340,350l-301 350 -416 485 1199 1633c89,129 155,210 200,242 45,32 111,64 200,97 -198,99 -371,58 -518,-122l-1197 -1712 -54 61 0 133z"/>
  <path fill="black" fill-rule="nonzero" d="M12143 9114c-74,-7 -126,-31 -157,-73l0 -2088c2,-438 21,-671 57,-699l-430 0c74,69 116,280 128,634l0 1783c-8,299 -36,501 -84,603l822 0c43,-13 74,-34 96,-65 22,-31 32,-132 30,-306l-40 0c0,131 -52,200 -156,209 -104,9 -193,10 -267,3z"/>
  <path fill="black" fill-rule="nonzero" d="M14143 6422c-156,2050 -288,3074 -398,3074l326 0c-27,-21 -41,-57 -44,-105 -3,-48 62,-671 194,-1868l485 1707 29 0c265,-1115 413,-1683 444,-1705 169,1199 281,1851 334,1955 54,105 174,137 359,99 -82,-76 -152,-260 -208,-550l-350 -2605 -23 0c-336,1394 -521,2091 -555,2091 -215,-713 -402,-1411 -561,-2094l-30 0z"/>
  <path fill="black" fill-rule="nonzero" d="M17330 6270c104,52 157,260 159,626l0 1223 -449 -921 -225 -462c-132,-271 -184,-427 -157,-466l-364 0c88,86 132,336 132,749l0 620c0,747 -30,1202 -89,1364l303 0c-33,-42 -50,-186 -50,-434l0 -434 0 -870 0 -247 1039 2013c17,31 25,23 25,-21l0 -337 0 -329 0 -658 0 -660c-4,-438 8,-690 38,-757l-361 0z"/>
  <path fill="black" fill-rule="nonzero" d="M3711 13085c137,-239 205,-527 205,-864 0,-337 -68,-625 -205,-864 -137,-238 -302,-357 -495,-357 -193,0 -359,119 -495,357 -136,239 -205,527 -205,864 0,338 68,625 205,864 136,238 302,357 495,357 193,0 358,-119 495,-357zm-486 502c-274,0 -508,-134 -701,-401 -194,-267 -291,-588 -291,-966 0,-377 97,-698 291,-965 193,-267 427,-401 701,-401 274,0 508,134 701,401 193,267 291,588 291,965 0,377 -97,699 -291,966 -193,267 -428,401 -701,401z"/>
  <path fill="black" fill-rule="nonzero" d="M5058 12189l0 -1155 101 -4c240,-8 389,48 448,171 59,122 83,273 73,455 -11,181 -47,310 -110,390 -63,79 -139,123 -227,131 -89,8 -184,12 -285,12zm-418 -1312c113,90 169,342 169,755l0 628c0,740 -42,1191 -126,1351l397 0c-25,-28 -38,-84 -38,-169l0 -506 -1 -542 496 -19c94,-27 178,-88 251,-185 100,-133 150,-295 150,-485 0,-279 -51,-485 -152,-619 -101,-134 -223,-203 -368,-208l-777 0z"/>
  <path fill="black" fill-rule="nonzero" d="M8114 13525c-107,55 -222,82 -346,82 -274,0 -508,-134 -701,-401 -194,-267 -291,-588 -291,-966 0,-377 97,-698 291,-965 193,-267 427,-401 701,-401 274,0 508,134 701,401 193,267 291,588 291,965 0,377 -97,699 -291,965 -45,63 -93,119 -143,168l506 382c138,107 232,175 282,203 50,28 127,55 231,81 -237,81 -468,46 -696,-105l-535 -409zm-149 -114l-3 -2 -343 -262c-160,-108 -254,-197 -284,-268 -30,-70 -45,-188 -44,-355 309,321 598,562 866,723 34,-42 66,-89 97,-142 137,-239 205,-527 205,-864 0,-337 -68,-625 -205,-864 -137,-238 -302,-357 -495,-357 -193,0 -359,119 -495,357 -136,239 -205,527 -205,864 0,338 68,625 205,864 136,238 302,357 495,357 73,0 141,-17 206,-51z"/>
  <path fill="black" fill-rule="nonzero" d="M9883 12278l0 -1155 101 -4c220,6 365,76 435,208 70,132 99,273 88,424 -11,151 -48,266 -111,345 -62,79 -138,129 -226,150 -89,21 -184,31 -286,31zm1204 1722c147,180 296,221 448,123 -67,-29 -117,-60 -149,-95 -32,-34 -102,-116 -210,-245l-1033 -1313c239,-44 402,-130 489,-258 86,-127 130,-267 130,-420 0,-279 -51,-485 -152,-619 -101,-134 -224,-203 -369,-208l-776 0c112,90 169,342 169,755l0 628c0,740 -42,1191 -126,1351l397 0c-25,-28 -38,-84 -38,-169l0 -506 -1 -542 67 -2 1156 1520z"/>
  <path fill="black" fill-rule="nonzero" d="M13312 12161c-33,-414 -104,-690 -213,-828 -109,-138 -216,-220 -321,-246 -104,-26 -189,-3 -252,69 -63,72 -95,182 -98,331 -2,148 29,262 94,340 65,79 190,200 375,364 185,164 314,307 389,426 74,120 114,253 118,399 0,217 -55,395 -166,533 -110,138 -251,208 -422,208 -110,0 -222,-29 -334,-85 -112,-56 -215,-144 -309,-261l0 -851c68,381 154,654 259,820 104,166 218,253 341,260 122,7 219,-30 289,-110 70,-80 114,-190 131,-329 17,-140 -3,-271 -62,-394 -59,-123 -191,-247 -395,-372 -205,-125 -340,-244 -404,-358 -65,-116 -98,-258 -98,-428 0,-202 47,-366 141,-494 94,-127 214,-191 360,-191 258,-4 482,120 670,371l-92 826z"/>
  <path fill="black" fill-rule="nonzero" d="M15095 11208l2 771 0 928c7,445 30,729 68,851l-462 0c94,-86 137,-494 129,-1222l-3 -1328 -421 0c-142,0 -238,66 -286,198l0 -383 1329 0c338,12 599,5 784,-21 -42,147 -199,216 -472,207l-669 -2z"/>
  <path fill="black" fill-rule="nonzero" d="M17298 11088c30,62 45,321 45,778l0 458c21,860 -134,1290 -465,1290 -161,-29 -261,-125 -302,-286 -41,-161 -56,-694 -44,-1598 -9,-368 -4,-582 15,-643l-330 0c67,60 97,314 89,763l0 371 0 746c23,518 163,799 419,840 330,57 542,-44 636,-304 48,253 181,354 399,301 -130,-41 -190,-309 -180,-805l0 -420 12 -1073c3,-230 17,-370 43,-419l-68 0 -268 0z"/>
  <path fill="black" fill-rule="nonzero" d="M4371 18109c57,-20 54,-129 -7,-325 -116,-530 -272,-1094 -469,-1690 -111,-392 -308,-692 -591,-901 291,-3 534,198 729,603 199,549 386,1213 562,1990l174 -765 208 -1001c93,-383 91,-598 -6,-645l383 0c-51,47 -146,352 -283,915l-156 796 -60 221 -1 5 -108 510c-36,142 -44,238 -24,287l-351 0z"/>
  <path fill="black" fill-rule="nonzero" d="M6538 18160c160,-690 348,-1396 566,-2116 34,0 221,704 560,2112l23 0 467 -2744c57,-293 141,-478 252,-555 -215,-38 -355,26 -418,191 -63,166 -209,831 -438,1997 -31,-21 -165,-595 -404,-1720l-30 0 -475 1760c-227,-1031 -340,-1571 -337,-1619 3,-49 17,-84 44,-107l-428 0c158,0 354,934 587,2801l30 0z"/>
  <path fill="black" fill-rule="nonzero" d="M10158 17147l-203 394 -163 339c-80,148 -72,235 26,260l-490 0c72,-38 169,-172 291,-401l419 -859 -54 -136 -458 -999c-87,-147 -164,-260 -232,-338l445 0c-81,43 -95,153 -43,329l438 949 241 -505 187 -407c72,-177 56,-299 -47,-367l581 0c-83,82 -195,261 -335,536l-497 1033 442 974c171,381 357,534 558,462 -233,351 -461,243 -684,-325l-422 -940z"/>
  <path fill="black" fill-rule="nonzero" d="M12460 16824l-68 -122 -509 -940c-96,-140 -182,-246 -258,-320l494 0c-90,41 -106,144 -46,310l486 892 268 -474 208 -383c79,-168 61,-282 -54,-346l615 0c-92,77 -217,245 -372,504l-520 892c-2,49 -4,103 -4,164l0 613c5,294 25,481 60,561l-390 0c68,-95 102,-364 102,-807l0 -368c0,-67 -4,-127 -11,-179z"/>
  <path fill="black" fill-rule="nonzero" d="M13860 16137c57,-314 212,-466 468,-453l714 0 -922 1850c-210,351 -297,590 -261,717l419 0 347 0 765 0 0 -596c-76,270 -162,405 -255,405l-995 0 1265 -2485c17,-38 14,-57 -11,-57l-1536 -2 1 620z"/>
  <path fill="black" fill-rule="nonzero" d="M4678 19320c102,0 202,60 299,182 97,121 173,295 228,521 55,225 82,461 82,707 0,246 -27,481 -80,704 -54,223 -129,397 -225,521 -97,125 -198,186 -304,186 -105,0 -207,-62 -304,-186 -97,-124 -172,-298 -225,-521 -53,-223 -80,-458 -80,-704 0,-246 27,-482 81,-707 54,-226 130,-400 227,-521 97,-122 198,-182 300,-182zm-383 1464c14,229 43,444 88,647 45,203 101,357 168,464 61,99 122,149 183,149 5,0 11,-1 17,-2 66,-9 126,-75 180,-199 55,-124 93,-292 116,-505 14,-136 21,-275 21,-419 0,-79 -2,-158 -7,-240 -13,-229 -43,-447 -89,-653 -45,-205 -102,-360 -169,-464 -61,-97 -122,-145 -181,-145 -6,0 -11,1 -15,2 -64,8 -124,74 -178,195 -55,121 -94,289 -116,503 -15,140 -23,282 -23,428 0,79 2,158 7,238z"/>
  <path fill="black" fill-rule="nonzero" d="M7391 22065l0 -95 136 0c97,0 146,-149 146,-447l0 -1511c0,-164 -56,-245 -166,-245l-139 0 0 -95c276,-80 430,-191 463,-334l71 0 0 2186c0,298 49,447 146,447l136 0 0 95 -793 0z"/>
  <path fill="black" fill-rule="nonzero" d="M10569 20125c0,-188 -41,-343 -122,-466 -81,-123 -169,-184 -264,-184 -161,0 -291,83 -390,249l-31 0 0 -94c37,-64 91,-129 163,-198 72,-68 159,-103 262,-103 173,0 317,77 434,231 117,153 175,342 175,565 0,332 -296,913 -889,1742l598 0c123,0 222,-71 296,-213l70 0 -146 442 -1019 0 1 -95c574,-856 861,-1481 861,-1875z"/>
  <path fill="black" fill-rule="nonzero" d="M12552 22091c143,0 246,-73 309,-221 63,-147 95,-325 95,-534 0,-132 -21,-262 -63,-391 -42,-129 -125,-223 -250,-282l0 -36c76,-57 145,-134 204,-229 60,-96 89,-229 89,-399 0,-140 -26,-260 -78,-360 -52,-101 -130,-160 -235,-176 -64,0 -123,29 -175,86 -52,57 -78,127 -78,211l-60 0 0 -303c0,-25 35,-47 104,-64 69,-18 143,-26 220,-26 147,0 268,53 364,160 96,107 145,265 145,474 0,110 -29,216 -87,316 -58,100 -149,188 -273,264 88,18 180,103 276,256 96,153 145,330 145,530 0,207 -68,394 -204,560 -136,166 -289,249 -461,249 -144,0 -260,-25 -351,-74 -90,-49 -135,-105 -135,-168l0 -190 70 0c0,105 41,190 122,253 81,64 184,95 307,95z"/>
  <path fill="black" fill-rule="nonzero" d="M14849 21381l0 -1305 -601 1305 601 0zm194 190l0 325c0,148 34,222 102,222l108 0 0 95 -626 0 0 -95 108 0c76,0 115,-76 115,-228l0 -320 -789 0 0 -67 936 -2018 48 0 0 1895 27 0c126,0 217,-84 273,-251l70 0 -146 442 -224 0z"/>
  <path fill="black" fill-rule="nonzero" d="M4321 24768l204 -1107 561 0c97,0 150,-33 159,-99l71 0 -89 327 -608 0 -148 790c214,0 397,79 550,237 153,158 230,349 230,571 0,297 -68,529 -204,695 -135,166 -289,249 -460,249 -144,0 -261,-25 -352,-74 -87,-47 -130,-99 -130,-156l0 -202 65 0c0,112 41,198 122,258 81,60 184,90 308,90 143,0 245,-73 308,-221 63,-147 94,-368 94,-661 0,-201 -52,-370 -156,-504 -104,-134 -238,-202 -404,-202 -38,0 -78,3 -122,10z"/>
  <path fill="black" fill-rule="nonzero" d="M7444 26401c95,0 172,-62 231,-188 59,-125 88,-282 88,-471 0,-257 -47,-469 -142,-634 -94,-166 -196,-248 -306,-248 -86,0 -163,64 -231,193 -68,129 -102,288 -102,477 0,194 45,388 135,581 90,194 199,290 327,290zm344 -2755l0 91c-167,16 -322,129 -463,342 -141,212 -252,509 -331,890 91,-118 216,-177 377,-177 102,0 202,36 299,108 97,73 173,175 228,309 55,134 82,275 82,421 0,147 -27,287 -80,420 -54,132 -121,236 -204,309 -83,74 -163,110 -240,110 -229,0 -402,-103 -520,-309 -117,-206 -175,-442 -175,-709 0,-406 99,-809 296,-1207 197,-399 441,-598 730,-598z"/>
  <path fill="black" fill-rule="nonzero" d="M10560 23963l-565 0c-126,0 -216,71 -272,213l-71 0 146 -441 1019 0 -1 95c-350,1099 -524,1862 -524,2293 0,163 31,245 95,245l166 0 0 95 -582 0 0 -95 95 0c68,0 102,-82 102,-249 18,-375 149,-1094 394,-2156z"/>
  <path fill="black" fill-rule="nonzero" d="M12666 24729c115,-32 188,-110 221,-236 26,-95 38,-184 38,-266 0,-25 -1,-50 -4,-74 -12,-103 -36,-201 -75,-294 -38,-92 -86,-162 -141,-209 -52,-42 -102,-63 -150,-63l-13 0c-54,4 -104,33 -149,88 -45,55 -78,131 -97,227 -13,62 -18,125 -18,190 0,36 1,71 5,108 12,101 36,198 73,289 37,92 141,171 310,240zm-113 86c-108,27 -193,127 -256,299 -53,146 -79,277 -79,392 0,23 0,45 2,66 14,132 43,257 88,374 45,118 101,207 168,267 60,56 121,84 181,84l18 0c66,-5 126,-43 180,-114 55,-71 93,-168 116,-292 14,-79 21,-159 21,-242 0,-45 -2,-92 -7,-139 -10,-142 -45,-277 -104,-404 -59,-127 -168,-225 -328,-292zm232 -49c40,18 78,40 117,67 97,71 173,171 228,301 55,130 82,266 82,408 0,142 -27,278 -80,407 -54,129 -129,229 -225,301 -97,71 -198,107 -304,107 -105,0 -207,-36 -304,-107 -97,-72 -172,-172 -225,-301 -53,-129 -80,-264 -80,-407 0,-142 27,-278 81,-408 54,-130 130,-231 227,-301 39,-27 77,-49 116,-67 -22,-12 -45,-25 -68,-40 -81,-55 -144,-134 -189,-234 -45,-100 -66,-205 -66,-316 0,-110 22,-216 68,-318 45,-102 108,-180 189,-234 81,-55 164,-82 250,-82 85,0 168,27 250,82 81,55 145,132 190,234 45,101 68,207 68,318 0,110 -22,216 -67,316 -44,100 -106,179 -187,234 -24,17 -47,30 -71,40z"/>
  <path fill="black" fill-rule="nonzero" d="M14642 23603c-95,0 -172,62 -230,188 -58,125 -87,282 -87,471 0,257 47,469 142,634 94,166 196,248 305,248 86,0 163,-64 232,-193 68,-129 103,-288 103,-477 0,-194 -45,-388 -136,-581 -91,-194 -200,-290 -327,-290zm-344 2755l0 -91c167,-16 322,-129 463,-342 141,-212 252,-509 331,-890 -90,118 -216,177 -377,177 -102,0 -202,-36 -299,-108 -97,-73 -173,-175 -228,-310 -55,-134 -82,-274 -82,-421 0,-147 27,-287 80,-420 54,-133 121,-236 204,-310 83,-73 163,-110 240,-110 229,0 402,103 519,309 117,206 175,442 175,709 0,406 -99,809 -296,1207 -197,399 -441,598 -730,598z"/>
 </g>
</svg>
