<?xml version="1.0" encoding="UTF-8"?>
<!DOCTYPE svg PUBLIC "-//W3C//DTD SVG 1.1//EN" "http://www.w3.org/Graphics/SVG/1.1/DTD/svg11.dtd">
<!-- Creator: CorelDRAW 2017 -->
<svg xmlns="http://www.w3.org/2000/svg" xml:space="preserve" width="210mm" height="297mm" version="1.1" shape-rendering="geometricPrecision" text-rendering="geometricPrecision" image-rendering="optimizeQuality" fill-rule="evenodd" clip-rule="evenodd"
viewBox="0 0 21000 29700"
 xmlns:xlink="http://www.w3.org/1999/xlink">
 <g id="Layer_x0020_1">
  <metadata id="CorelCorpID_0Corel-Layer"/>
  <path fill="black" fill-rule="nonzero" d="M3597 3567l118 257 -220 10 102 -267zm-552 672l258 108c20,0 32,-13 37,-39l81 -207 368 0 139 247 228 -98 -560 -1216 -14 0 -538 1206zm-96 -2262l148 29c230,106 345,347 345,722l52 -20c73,-12 146,-12 220,0l66 20c-14,-422 121,-672 405,-751 157,-19 284,30 382,148 83,93 137,224 162,396 14,184 -12,339 -81,465 -74,144 -189,236 -346,276 78,191 110,405 96,642 -74,540 -307,855 -699,948 -256,26 -471,-66 -648,-276 -142,-185 -226,-400 -250,-643 -20,-270 10,-487 88,-651l0 -19c-157,-33 -274,-135 -353,-307 -49,-125 -68,-269 -59,-434 29,-178 90,-317 184,-415 93,-92 188,-135 286,-129z"/>
  <path fill="black" fill-rule="nonzero" d="M5965 3822c83,-12 135,13 155,79 10,99 -12,159 -66,179l-117 0 15 -247 14 -10zm37 -523c73,-12 115,4 125,50 10,79 -19,131 -88,158l-74 0 7 -197 29 -10zm-323 949l0 68 198 39c300,33 484,-78 552,-335 14,-218 -42,-350 -169,-396 103,-65 156,-193 161,-384 -24,-99 -110,-166 -257,-199 -108,-6 -248,4 -419,30l-67 1175zm-295 -2302l148 29c230,106 345,347 345,722l52 -20c73,-12 146,-12 220,0l66 20c-14,-422 121,-672 405,-751 157,-19 284,30 382,148 83,93 137,224 162,396 14,184 -12,339 -81,465 -74,144 -189,236 -346,276 78,191 110,405 96,642 -74,540 -307,855 -699,948 -256,26 -471,-66 -648,-276 -142,-185 -226,-400 -250,-643 -20,-270 10,-487 88,-651l0 -19c-157,-33 -274,-135 -353,-307 -49,-125 -68,-269 -59,-434 29,-178 90,-317 184,-415 93,-92 188,-135 286,-129z"/>
  <path fill="black" fill-rule="nonzero" d="M7928 3641c-15,375 130,612 434,711l147 0c78,-6 221,-56 427,-149l-147 -413c-275,145 -432,128 -471,-49 0,-99 12,-156 37,-168 74,-105 186,-148 339,-129l102 -365 0 -29 -36 -10c-241,-20 -435,26 -581,139 -128,98 -211,253 -250,463zm-111 -1719l148 29c230,106 345,347 345,722l52 -20c73,-12 146,-12 220,0l66 20c-14,-422 121,-672 405,-751 157,-19 284,30 382,148 83,93 137,224 162,396 14,184 -12,339 -81,465 -74,144 -189,236 -346,276 78,191 110,405 96,642 -74,540 -307,855 -699,948 -256,26 -471,-66 -648,-276 -142,-185 -226,-400 -250,-643 -20,-270 10,-487 88,-651l0 -19c-157,-33 -274,-135 -353,-307 -49,-125 -68,-269 -59,-434 29,-178 90,-317 184,-415 93,-92 188,-135 286,-129z"/>
  <path fill="black" fill-rule="nonzero" d="M10833 3486c118,6 187,56 207,149 4,144 -50,232 -162,266l-67 0 22 -415zm-345 819l0 70c308,12 551,-56 728,-207 132,-126 210,-294 235,-504 10,-184 -61,-329 -214,-434 -93,-66 -304,-122 -632,-168l-45 0 -73 1243zm-236 -2370l148 29c230,106 345,347 345,722l52 -20c73,-12 146,-12 220,0l66 20c-14,-422 121,-672 405,-751 157,-19 284,30 382,148 83,93 137,224 162,396 14,184 -12,339 -81,465 -74,144 -189,236 -346,276 78,191 110,405 96,642 -74,540 -307,855 -699,948 -256,26 -471,-66 -648,-276 -142,-185 -226,-400 -250,-643 -20,-270 10,-487 88,-651l0 -19c-157,-33 -274,-135 -353,-307 -49,-125 -68,-269 -59,-434 29,-178 90,-317 184,-415 93,-92 188,-135 286,-129z"/>
  <path fill="black" fill-rule="nonzero" d="M13010 4226l0 70 566 50 74 0 7 -110 0 -129 -287 -29 7 -168 198 20 22 -326 0 -129 -190 -20 6 -119 266 39 14 -187 0 -109 -558 -48 -59 0 -66 1194zm-324 -2321l148 29c230,106 345,347 345,722l52 -20c73,-12 146,-12 220,0l66 20c-15,-422 121,-672 405,-751 157,-19 284,30 382,148 83,93 137,224 162,396 14,184 -12,339 -81,465 -74,144 -189,236 -346,276 78,191 110,405 96,642 -74,540 -307,855 -699,948 -256,26 -471,-66 -648,-276 -142,-185 -226,-400 -250,-643 -20,-270 10,-487 88,-651l0 -19c-157,-33 -274,-135 -353,-307 -49,-125 -68,-269 -59,-434 29,-178 90,-317 184,-415 93,-92 188,-135 286,-129z"/>
  <path fill="black" fill-rule="nonzero" d="M15473 3139l59 1245 346 -31 -15 -423 139 -10c35,0 50,-13 45,-39l-15 -415 -190 20 -8 -30 0 -79 258 -19 7 0 -14 -286 -611 69zm-354 -1196l148 29c230,106 345,347 345,722l52 -20c73,-12 146,-12 220,0l66 20c-15,-422 121,-672 405,-751 157,-19 284,30 382,148 83,93 137,224 162,396 14,184 -12,339 -81,465 -74,144 -189,236 -346,276 78,191 110,405 96,642 -74,540 -307,855 -699,948 -256,26 -471,-66 -648,-276 -142,-185 -226,-400 -250,-643 -20,-270 10,-487 88,-651l0 -19c-157,-33 -274,-135 -353,-307 -49,-125 -68,-269 -59,-434 29,-178 90,-317 184,-415 93,-92 188,-135 286,-129z"/>
  <path fill="black" fill-rule="nonzero" d="M17737 3650c-4,421 128,662 398,722 98,12 188,-1 272,-39 162,-99 248,-251 258,-454 0,-152 -10,-258 -29,-317l-397 189 7 19 132 99c10,59 -22,102 -96,129 -137,12 -215,-53 -235,-198 -9,-106 10,-195 59,-267 44,-52 78,-79 103,-79l67 0 51 29 184 -256c0,-40 -78,-96 -235,-168 -265,-26 -444,171 -538,592zm-184 -1719l148 29c230,106 345,347 345,722l52 -20c73,-12 146,-12 220,0l66 20c-14,-422 121,-672 405,-751 157,-19 284,30 382,148 83,93 137,224 162,396 14,184 -12,339 -81,465 -74,144 -189,236 -346,276 78,191 110,405 96,642 -74,540 -307,855 -699,948 -256,26 -471,-66 -648,-276 -142,-185 -226,-400 -250,-643 -20,-270 10,-487 88,-651l0 -19c-157,-33 -274,-135 -353,-307 -49,-125 -68,-269 -59,-434 29,-178 90,-317 184,-415 93,-92 188,-135 286,-129z"/>
  <path fill="black" fill-rule="nonzero" d="M3178 6803l81 1214 309 -39 -30 -415 250 -39 37 0 22 357c0,46 13,65 37,58l280 -29 -82 -1206 -286 30 22 345 -235 29 -88 0 -15 -266 -7 -69 0 -10 -294 39zm-162 -1196l148 29c230,106 345,347 345,722l52 -20c73,-12 146,-12 220,0l66 20c-14,-422 121,-672 405,-751 157,-19 284,30 382,148 83,93 137,224 162,396 14,184 -12,339 -81,465 -74,144 -189,236 -346,276 78,191 110,405 96,642 -74,540 -307,855 -699,948 -256,26 -471,-66 -648,-276 -142,-185 -226,-400 -250,-643 -20,-270 10,-487 88,-651l0 -19c-157,-33 -274,-135 -353,-307 -49,-125 -68,-269 -59,-434 29,-178 90,-317 184,-415 93,-92 188,-135 286,-129z"/>
  <path fill="black" fill-rule="nonzero" d="M5828 7994l0 29 354 29 59 0c59,-764 98,-1172 118,-1224l0 -58 -338 -30 -74 0 -102 1185 -15 70zm-405 -2391l148 29c230,106 345,347 345,722l52 -20c73,-12 146,-12 220,0l66 20c-14,-422 121,-672 405,-751 157,-19 284,30 382,148 83,93 137,224 162,396 14,184 -12,339 -81,465 -74,144 -189,236 -346,276 78,191 110,405 96,642 -74,540 -307,855 -699,948 -256,26 -471,-66 -648,-276 -142,-185 -226,-400 -250,-643 -20,-270 10,-487 88,-651l0 -19c-157,-33 -274,-135 -353,-307 -49,-125 -68,-269 -59,-434 29,-178 90,-317 184,-415 93,-92 188,-135 286,-129z"/>
  <path fill="black" fill-rule="nonzero" d="M8109 7773l155 286c94,-19 189,-79 288,-179 88,-98 139,-213 155,-345l51 -701 15 -50 -258 -39 -45 0 -51 701c-9,86 -41,159 -96,218l-73 50 -140 58zm-280 -2173l148 29c230,106 345,347 345,722l52 -20c73,-12 146,-12 220,0l66 20c-15,-422 121,-672 405,-751 157,-19 284,30 382,148 83,93 137,224 162,396 14,184 -12,339 -81,465 -74,144 -189,236 -346,276 78,191 110,405 96,642 -74,540 -307,855 -699,948 -256,26 -471,-66 -648,-276 -142,-185 -226,-400 -250,-643 -20,-270 10,-487 88,-651l0 -19c-157,-33 -274,-135 -353,-307 -49,-125 -68,-269 -59,-434 29,-178 90,-317 184,-415 93,-92 188,-135 286,-129z"/>
  <path fill="black" fill-rule="nonzero" d="M10458 6778l74 1235 294 -29 -7 -207 111 -158 250 326 206 -286 0 -20 -272 -366 184 -276 -214 -297 -66 99 -228 415 -22 -464 -309 29zm-221 -1185l148 29c230,106 345,347 345,722l52 -20c73,-12 146,-12 220,0l66 20c-14,-422 121,-672 405,-751 157,-19 284,30 382,148 83,93 137,224 162,396 14,184 -12,339 -81,465 -74,144 -189,236 -346,276 78,191 110,405 96,642 -74,540 -307,855 -699,948 -256,26 -471,-66 -648,-276 -142,-185 -226,-400 -250,-643 -20,-270 10,-487 88,-651l0 -19c-157,-33 -274,-135 -353,-307 -49,-125 -68,-269 -59,-434 29,-178 90,-317 184,-415 93,-92 188,-135 286,-129z"/>
  <path fill="black" fill-rule="nonzero" d="M12982 6778l111 1265 566 -99 -67 -405 -257 50 -66 -850c-14,-13 -110,1 -288,39zm-338 -1175l148 29c230,106 345,347 345,722l52 -20c73,-12 146,-12 220,0l66 20c-14,-422 121,-672 405,-751 157,-19 284,30 382,148 83,93 137,224 162,396 14,184 -12,339 -81,465 -74,144 -189,236 -346,276 78,191 110,405 96,642 -74,540 -307,855 -699,948 -256,26 -471,-66 -648,-276 -142,-185 -226,-400 -250,-643 -20,-270 10,-487 88,-651l0 -19c-157,-33 -274,-135 -353,-307 -49,-125 -68,-269 -59,-434 29,-178 90,-317 184,-415 93,-92 188,-135 286,-129z"/>
  <path fill="black" fill-rule="nonzero" d="M15058 7822l7 20 294 69 29 0 140 -425 191 257 170 -287 176 415 287 -128 -391 -1037c-4,-6 -93,136 -265,425l-317 -376 -308 1048 -15 19zm-8 -2213l148 29c230,106 345,347 345,722l52 -20c73,-12 146,-12 220,0l66 20c-14,-422 121,-672 405,-751 157,-19 284,30 382,148 83,93 137,224 162,396 14,184 -12,339 -81,465 -74,144 -189,236 -346,276 78,191 110,405 96,642 -74,540 -307,855 -699,948 -256,26 -471,-66 -648,-276 -142,-185 -226,-400 -250,-643 -20,-270 10,-487 88,-651l0 -19c-157,-33 -274,-135 -353,-307 -49,-125 -68,-269 -59,-434 29,-178 90,-317 184,-415 93,-92 188,-135 286,-129z"/>
  <path fill="black" fill-rule="nonzero" d="M17620 7736l0 20 250 48 51 0 45 -345c260,224 431,386 515,484l139 -1077 -14 -19 -280 -79 -15 0 -43 444 -508 -583 -118 998 -22 108zm-162 -2213l148 29c230,106 345,347 345,722l52 -20c73,-12 146,-12 220,0l66 20c-15,-422 121,-672 405,-751 157,-19 284,30 382,148 83,93 137,224 162,396 14,184 -12,339 -81,465 -74,144 -189,236 -346,276 78,191 110,405 96,642 -74,540 -307,855 -699,948 -256,26 -471,-66 -648,-276 -142,-185 -226,-400 -250,-643 -20,-270 10,-487 88,-651l0 -19c-157,-33 -274,-135 -353,-307 -49,-125 -68,-269 -59,-434 29,-178 90,-317 184,-415 93,-92 188,-135 286,-129z"/>
  <path fill="black" fill-rule="nonzero" d="M3778 10986c113,0 174,53 184,158 4,165 -40,260 -133,286 -103,0 -164,-53 -184,-158 -5,-165 39,-260 133,-286zm-500 198c-20,375 118,608 412,701 347,13 553,-187 617,-602 10,-415 -127,-652 -411,-712 -329,-33 -535,171 -618,612zm-133 -1758l148 29c230,106 345,347 345,722l52 -20c73,-12 146,-12 220,0l66 20c-15,-422 121,-672 405,-751 157,-19 284,30 382,148 83,93 137,224 162,396 14,184 -12,339 -81,465 -74,144 -189,236 -346,276 78,191 110,405 96,642 -74,540 -307,855 -699,948 -256,26 -471,-66 -648,-276 -142,-185 -226,-400 -250,-643 -20,-270 10,-487 88,-651l0 -19c-157,-33 -274,-135 -353,-307 -49,-125 -68,-269 -59,-434 29,-178 90,-317 184,-415 93,-92 188,-135 286,-129z"/>
  <path fill="black" fill-rule="nonzero" d="M6122 10885c103,-7 155,12 155,58 10,86 -32,142 -125,168l-23 0 -29 -198 23 -29zm-332 -228l170 1245 243 -58 -45 -336c231,-112 373,-290 427,-533 20,-205 -71,-333 -272,-386 -113,-7 -287,16 -522,69zm-272 -1214l148 29c230,106 345,347 345,722l52 -20c73,-12 146,-12 220,0l66 20c-14,-422 121,-672 405,-751 157,-19 284,30 382,148 83,93 137,224 162,396 14,184 -12,339 -81,465 -74,144 -189,236 -346,276 78,191 110,405 96,642 -74,540 -307,855 -699,948 -256,26 -471,-66 -648,-276 -142,-185 -226,-400 -250,-643 -20,-270 10,-487 88,-651l0 -19c-157,-33 -274,-135 -353,-307 -49,-125 -68,-269 -59,-434 29,-178 90,-317 184,-415 93,-92 188,-135 286,-129z"/>
  <path fill="black" fill-rule="nonzero" d="M8518 10961c98,-7 157,39 176,139 10,125 -29,210 -117,256 -93,7 -154,-42 -184,-148 -10,-112 32,-194 125,-247zm-456 158c-20,237 39,421 176,554 88,79 265,148 530,207 19,6 32,-1 36,-20l184 -237 -6 -20 -140 -58c152,-210 199,-421 140,-633 -69,-191 -187,-306 -354,-345 -162,-20 -294,29 -398,148 -83,93 -140,227 -169,405zm-170 -1679l148 29c230,106 345,347 345,722l52 -20c73,-12 146,-12 220,0l66 20c-15,-422 121,-672 405,-751 157,-19 284,30 382,148 83,93 137,224 162,396 14,184 -12,339 -81,465 -74,144 -189,236 -346,276 78,191 110,405 96,642 -74,540 -307,855 -699,948 -256,26 -471,-66 -648,-276 -142,-185 -226,-400 -250,-643 -20,-270 10,-487 88,-651l0 -19c-157,-33 -274,-135 -353,-307 -49,-125 -68,-269 -59,-434 29,-178 90,-317 184,-415 93,-92 188,-135 286,-129z"/>
  <path fill="black" fill-rule="nonzero" d="M10892 10943c83,19 135,56 155,110 5,53 -10,89 -45,108 -59,7 -106,0 -139,-20l29 -198zm-434 830l15 19 243 70 29 0 51 -336c5,-19 17,-26 37,-20l95 31 59 395 301 -10 -96 -523c187,-139 226,-303 118,-494 -59,-79 -137,-135 -235,-168l-397 -118 -22 0c-113,725 -179,1110 -199,1156zm-192 -2262l148 29c230,106 345,347 345,722l52 -20c73,-12 146,-12 220,0l66 20c-15,-422 121,-672 405,-751 157,-19 284,30 382,148 83,93 137,224 162,396 14,184 -12,339 -81,465 -74,144 -189,236 -346,276 78,191 110,405 96,642 -74,540 -307,855 -699,948 -256,26 -471,-66 -648,-276 -142,-185 -226,-400 -250,-643 -20,-270 10,-487 88,-651l0 -19c-157,-33 -274,-135 -353,-307 -49,-125 -68,-269 -59,-434 29,-178 90,-317 184,-415 93,-92 188,-135 286,-129z"/>
  <path fill="black" fill-rule="nonzero" d="M12861 11486l37 415 302 0c123,-33 206,-106 250,-217l73 -583 29 -79c49,-39 87,-36 111,10l43 -257 15 -29 0 -50c-49,-46 -101,-82 -155,-108 -44,-13 -100,-1 -169,40l-82 89c-29,59 -48,122 -59,187 -9,310 -41,504 -96,583 -59,66 -162,66 -309,0l8 0zm-221 -1976l148 29c230,106 345,347 345,722l52 -20c73,-12 146,-12 220,0l66 20c-15,-422 121,-672 405,-751 157,-19 284,30 382,148 83,93 137,224 162,396 14,184 -12,339 -81,465 -74,144 -189,236 -346,276 78,191 110,405 96,642 -74,540 -307,855 -699,948 -256,26 -471,-66 -648,-276 -142,-185 -226,-400 -250,-643 -20,-270 10,-487 88,-651l0 -19c-157,-33 -274,-135 -353,-307 -49,-125 -68,-269 -59,-434 29,-178 90,-317 184,-415 93,-92 188,-135 286,-129z"/>
  <path fill="black" fill-rule="nonzero" d="M15242 10870l37 326 243 -49 103 859 29 20 199 -39 -103 -898 250 -60 -37 -315 -721 158zm-228 -1314l148 29c230,106 345,347 345,722l52 -20c73,-12 146,-12 220,0l66 20c-15,-422 121,-672 405,-751 157,-19 284,30 382,148 83,93 137,224 162,396 14,184 -12,339 -81,465 -74,144 -189,236 -346,276 78,191 110,405 96,642 -74,540 -307,855 -699,948 -256,26 -471,-66 -648,-276 -142,-185 -226,-400 -250,-643 -20,-270 10,-487 88,-651l0 -19c-157,-33 -274,-135 -353,-307 -49,-125 -68,-269 -59,-434 29,-178 90,-317 184,-415 93,-92 188,-135 286,-129z"/>
  <path fill="black" fill-rule="nonzero" d="M17587 11216c-5,165 2,303 22,415 34,131 91,253 170,365 54,53 117,85 191,98 162,20 287,-29 375,-148 89,-132 143,-306 162,-523 4,-191 -13,-402 -52,-633l-294 50c49,204 59,396 29,573 -44,119 -81,175 -110,168 -123,-6 -184,-92 -184,-257 -10,-105 2,-263 37,-474l-280 -70 -23 0 -44 435zm-199 -1611l148 29c230,106 345,347 345,722l52 -20c73,-12 146,-12 220,0l66 20c-15,-422 121,-672 405,-751 157,-19 284,30 382,148 83,93 137,224 162,396 14,184 -12,339 -81,465 -74,144 -189,236 -346,276 78,191 110,405 96,642 -74,540 -307,855 -699,948 -256,26 -471,-66 -648,-276 -142,-185 -226,-400 -250,-643 -20,-270 10,-487 88,-651l0 -19c-157,-33 -274,-135 -353,-307 -49,-125 -68,-269 -59,-434 29,-178 90,-317 184,-415 93,-92 188,-135 286,-129z"/>
  <path fill="black" fill-rule="nonzero" d="M4566 15151l603 1027 15 0 405 -1175 -8 -31 -243 -108c-20,-7 -32,12 -37,58l-176 613 -302 -593 -258 207zm-96 -1442l148 29c230,106 345,347 345,722l52 -20c73,-12 146,-12 220,0l66 20c-14,-422 121,-672 405,-751 157,-19 284,30 382,148 83,93 137,224 162,396 14,184 -12,339 -81,465 -74,144 -189,236 -346,276 78,191 110,405 96,642 -74,540 -307,855 -699,948 -256,26 -471,-66 -648,-276 -142,-185 -226,-400 -250,-643 -20,-270 10,-487 88,-651l0 -19c-157,-33 -274,-135 -353,-307 -49,-125 -68,-269 -59,-434 29,-178 90,-317 184,-415 93,-92 188,-135 286,-129z"/>
  <path fill="black" fill-rule="nonzero" d="M7406 15079c0,32 110,398 331,1096l206 -247c74,145 130,237 170,276l434 -988 14 -10 -206 -158 -37 60c-132,322 -206,490 -221,504l-125 -307 -155 276 -161 -563 -23 -19 -227 79zm-104 -1374l148 29c230,106 345,347 345,722l52 -20c73,-12 146,-12 220,0l66 20c-15,-422 121,-672 405,-751 157,-19 284,30 382,148 83,93 137,224 162,396 14,184 -12,339 -81,465 -74,144 -189,236 -346,276 78,191 110,405 96,642 -74,540 -307,855 -699,948 -256,26 -471,-66 -648,-276 -142,-185 -226,-400 -250,-643 -20,-270 10,-487 88,-651l0 -19c-157,-33 -274,-135 -353,-307 -49,-125 -68,-269 -59,-434 29,-178 90,-317 184,-415 93,-92 188,-135 286,-129z"/>
  <path fill="black" fill-rule="nonzero" d="M10312 15225l286 276 -235 405 184 236 243 -404 331 286 162 -266 -29 -50 -258 -286 199 -386 -170 -168 -22 -39 -29 30 -206 365 -295 -286 -161 286zm-178 -1492l148 29c230,106 345,347 345,722l52 -20c73,-12 146,-12 220,0l66 20c-14,-422 121,-672 405,-751 157,-19 284,30 382,148 83,93 137,224 162,396 14,184 -12,339 -81,465 -74,144 -189,236 -346,276 78,191 110,405 96,642 -74,540 -307,855 -699,948 -256,26 -471,-66 -648,-276 -142,-185 -226,-400 -250,-643 -20,-270 10,-487 88,-651l0 -19c-157,-33 -274,-135 -353,-307 -49,-125 -68,-269 -59,-434 29,-178 90,-317 184,-415 93,-92 188,-135 286,-129z"/>
  <path fill="black" fill-rule="nonzero" d="M13143 15085l272 681 -29 326 7 50 265 49 30 -10 37 -355 441 -564 -206 -276c-30,14 -88,80 -176,198l-177 238 -198 -494 -29 -49c-113,119 -192,188 -235,207zm-178 -1324l148 29c230,106 345,347 345,722l52 -20c73,-12 146,-12 220,0l66 20c-15,-422 121,-672 405,-751 157,-19 284,30 382,148 83,93 137,224 162,396 14,184 -12,339 -81,465 -74,144 -189,236 -346,276 78,191 110,405 96,642 -74,540 -307,855 -699,948 -256,26 -471,-66 -648,-276 -142,-185 -226,-400 -250,-643 -20,-270 10,-487 88,-651l0 -19c-157,-33 -274,-135 -353,-307 -49,-125 -68,-269 -59,-434 29,-178 90,-317 184,-415 93,-92 188,-135 286,-129z"/>
  <path fill="black" fill-rule="nonzero" d="M16011 16109l751 129 29 0 29 -316 -7 -50 -288 -39c221,-487 344,-747 368,-780l-742 -129 -29 0 -29 276 0 79 309 70c-245,513 -376,767 -391,760zm-213 -2291l148 29c230,106 345,347 345,722l52 -20c73,-12 146,-12 220,0l66 20c-15,-422 121,-672 405,-751 157,-19 284,30 382,148 83,93 137,224 162,396 14,184 -12,339 -81,465 -74,144 -189,236 -346,276 78,191 110,405 96,642 -74,540 -307,855 -699,948 -256,26 -471,-66 -648,-276 -142,-185 -226,-400 -250,-643 -20,-270 10,-487 88,-651l0 -19c-157,-33 -274,-135 -353,-307 -49,-125 -68,-269 -59,-434 29,-178 90,-317 184,-415 93,-92 188,-135 286,-129z"/>
 </g>
</svg>
