<?xml version="1.0" encoding="UTF-8"?>
<!DOCTYPE svg PUBLIC "-//W3C//DTD SVG 1.1//EN" "http://www.w3.org/Graphics/SVG/1.1/DTD/svg11.dtd">
<!-- Creator: CorelDRAW 2017 -->
<svg xmlns="http://www.w3.org/2000/svg" xml:space="preserve" width="210mm" height="297mm" version="1.1" shape-rendering="geometricPrecision" text-rendering="geometricPrecision" image-rendering="optimizeQuality" fill-rule="evenodd" clip-rule="evenodd"
viewBox="0 0 21000 29700"
 xmlns:xlink="http://www.w3.org/1999/xlink">
 <g id="Layer_x0020_1">
  <metadata id="CorelCorpID_0Corel-Layer"/>
  <path fill="black" fill-rule="nonzero" d="M2449 3538c-2,-5 -3,-10 -3,-15l-218 -681c-92,81 -182,181 -270,300 -33,44 -73,120 -120,226 -47,106 -84,216 -112,329 -18,74 -31,142 -39,205 -7,63 -10,108 -8,135l6 44 0 44c9,15 19,23 30,26 68,-47 159,-111 273,-192 97,-69 211,-168 342,-296 20,-22 60,-64 118,-126zm-1144 1424c-13,-5 -23,-19 -29,-41 -6,-22 -10,-55 -10,-98 0,-43 0,-83 1,-120 1,-37 5,-88 12,-154 7,-65 13,-117 17,-155 4,-38 10,-94 19,-166 9,-73 15,-120 17,-142 20,-168 44,-294 70,-379 27,-85 87,-218 181,-398 68,-131 156,-282 265,-453 108,-171 175,-285 201,-342 22,-49 4,-117 -55,-203 -59,-86 -111,-149 -157,-189 -2,2 -5,6 -8,11 -4,5 -10,11 -19,18 -9,7 -17,6 -25,-4 -9,-10 -14,-16 -15,-18 -1,-2 -5,-7 -11,-15 -6,-7 -8,-12 -6,-15 3,-2 3,-10 1,-22 2,-20 16,-41 43,-65 27,-23 50,-39 70,-46 55,-15 152,17 289,96 50,30 90,65 121,105 31,41 89,133 174,276 88,146 181,319 280,520 98,201 163,358 194,472 33,118 100,372 201,762 7,25 25,62 52,113 28,51 49,96 63,137 15,41 15,76 0,105 -31,62 -93,127 -186,196 -93,69 -158,84 -194,44 -26,-30 -43,-52 -52,-68 -9,-16 -18,-41 -28,-76 -9,-35 -21,-69 -36,-104 -83,-202 -133,-335 -152,-400 -6,-17 -27,-113 -63,-289 -62,27 -124,60 -185,100 -132,81 -265,179 -397,292 -59,49 -105,89 -138,118 -33,30 -51,48 -55,55l-6 11 -63 63c11,150 5,244 -19,281 -24,37 -82,81 -174,131 -92,51 -155,68 -190,54z"/>
  <path fill="black" fill-rule="nonzero" d="M4623 3432c2,30 1,79 -3,148 -4,86 -15,259 -33,518 -20,296 -20,462 0,499 9,17 21,33 36,46 15,14 29,24 43,31 14,7 31,14 52,19 21,5 38,8 50,9 12,1 29,2 52,4 23,1 36,3 40,6 140,12 242,-15 306,-81 99,-101 164,-195 196,-281 22,-62 40,-153 54,-274 14,-121 13,-227 -1,-318 -26,-118 -127,-247 -303,-385 -44,-35 -74,-60 -91,-78 -140,69 -259,112 -358,129 -7,2 -20,5 -39,7zm-44 -1188c7,42 11,91 11,148 0,39 3,97 8,174 6,76 8,160 8,252 4,234 6,361 6,381 0,32 0,60 0,85 26,-22 67,-48 124,-78 18,-12 36,-23 52,-33 17,-10 33,-22 48,-35 16,-14 29,-25 40,-33 11,-9 24,-22 39,-39 15,-17 25,-30 32,-37 6,-7 17,-21 32,-41 15,-20 24,-32 28,-37 4,-5 14,-19 30,-43 17,-23 26,-38 28,-43 20,-30 44,-81 72,-155 28,-74 42,-121 44,-141 13,-168 -15,-277 -83,-329 -20,-15 -41,-28 -63,-39 -22,-11 -42,-20 -61,-26 -18,-6 -39,-10 -62,-11 -23,-1 -42,-2 -58,-2 -16,0 -35,2 -58,7 -23,5 -41,9 -54,11 -13,2 -30,7 -51,15 -21,7 -35,13 -41,17 -6,4 -19,10 -39,19 -19,9 -30,13 -32,13zm-524 -178c6,-52 37,-76 94,-74 7,0 21,-1 40,-4 19,-2 40,-3 61,-2 21,1 43,6 65,13 9,2 29,7 59,15 30,7 56,16 77,26 21,10 39,22 54,37l3 -7c33,-32 61,-53 83,-63 86,-49 191,-81 314,-96 40,-5 70,-7 88,-6 18,1 45,4 80,7 35,4 58,6 69,6 20,0 39,-1 56,-2 17,-1 39,-1 65,2 26,2 51,7 77,15l14 4c108,67 196,178 262,335 66,157 78,304 36,442 -44,146 -155,280 -333,403 46,10 118,44 215,104 48,30 102,89 163,178 61,89 105,202 132,340 11,59 18,123 22,192 4,69 1,149 -7,239 -8,90 -24,171 -48,242 -40,121 -105,223 -193,305 -88,83 -197,136 -328,161 -189,35 -371,25 -546,-30 -86,-30 -173,-46 -259,-48 -22,-2 -62,4 -118,20 -57,16 -109,30 -157,43 -48,12 -74,16 -80,11 -9,-5 -10,-38 -1,-100 8,-62 21,-136 37,-222 17,-86 27,-141 30,-163 9,-76 15,-184 18,-324 3,-139 0,-284 -10,-435 -7,-109 -18,-212 -32,-311 -14,-99 -21,-159 -21,-181 -4,-104 1,-256 15,-457 14,-201 16,-331 7,-390 -4,-22 -23,-60 -56,-113 -34,-53 -49,-91 -45,-113z"/>
  <path fill="black" fill-rule="nonzero" d="M8325 2586c-17,-118 -38,-197 -63,-237 -96,-146 -192,-228 -289,-248 -44,-15 -125,-15 -243,-2 -118,14 -210,38 -278,72 -57,30 -130,102 -219,216 -89,115 -155,213 -197,294 -105,205 -155,455 -152,751 2,94 22,214 61,361 39,147 80,269 124,368 37,84 96,168 179,253 83,85 166,146 251,183 88,39 175,60 259,61 85,1 145,-14 182,-46 15,-10 29,-20 43,-31 14,-11 27,-23 39,-37 12,-14 23,-25 32,-35 9,-10 19,-23 29,-39 10,-16 18,-28 23,-35 6,-7 13,-20 22,-37 9,-17 15,-28 17,-31 2,-4 7,-15 17,-35l14 -26c17,-32 30,-68 41,-109 11,-41 21,-72 30,-94 9,-22 21,-35 36,-37 15,-2 47,35 96,111 50,76 72,127 66,152 -7,32 -24,74 -50,126 -26,52 -55,97 -88,137 -37,47 -147,107 -332,181 -185,74 -323,105 -415,92 -7,0 -27,-2 -58,-6 -31,-4 -53,-7 -65,-9 -12,-2 -32,-6 -59,-11 -28,-5 -50,-10 -68,-17 -17,-6 -38,-14 -62,-22 -24,-9 -47,-20 -70,-33 -23,-14 -46,-29 -70,-46 -92,-69 -187,-152 -285,-250 -98,-97 -165,-184 -200,-261 -57,-116 -111,-240 -161,-372 -51,-132 -79,-223 -84,-272 -9,-86 -15,-198 -18,-335 -3,-137 1,-230 12,-279 24,-111 72,-236 143,-376 72,-139 139,-232 201,-279 316,-229 570,-363 761,-400 85,-17 208,-10 371,22 163,32 265,65 307,100 51,37 107,113 165,229 59,116 94,247 105,392 2,25 -21,17 -69,-22 -15,-12 -25,-23 -30,-33z"/>
  <path fill="black" fill-rule="nonzero" d="M9566 2306c2,35 4,69 6,104 33,126 51,274 55,444 2,76 1,131 -1,165 -3,33 -8,72 -15,115 -7,43 -14,98 -19,165 -2,47 -3,97 -4,152 -1,54 0,112 1,174 2,62 4,115 7,159 3,44 6,102 10,172 4,70 6,121 8,154 11,210 30,345 58,407 18,5 47,15 87,31 40,16 73,28 101,35 28,7 51,9 69,4 121,-32 246,-99 375,-200 129,-101 215,-208 259,-322 31,-86 56,-168 76,-246 19,-78 32,-143 39,-196 6,-53 8,-111 6,-174 -3,-63 -7,-110 -12,-141 -6,-31 -14,-74 -25,-129 -11,-56 -18,-93 -22,-113 -17,-99 -38,-190 -63,-274 -26,-84 -53,-154 -81,-209 -28,-55 -54,-101 -76,-135 -22,-35 -45,-67 -69,-96l-36 -44c-48,-72 -105,-120 -171,-144 -66,-25 -130,-30 -190,-17 -61,14 -118,32 -171,55 -53,23 -97,44 -132,63 -35,19 -54,25 -58,20 -2,5 -5,12 -8,22zm-521 -252c2,-17 9,-35 22,-54 13,-19 25,-33 36,-43l17 -11 143 37c92,7 183,15 273,22 29,-27 68,-46 117,-56 49,-10 102,-15 158,-17 57,-1 97,-4 121,-9 42,-5 73,-7 94,-6 20,1 49,5 87,11 38,6 62,9 73,9 46,5 122,25 229,59 107,35 177,69 212,104 40,39 77,81 109,126 32,44 56,79 70,104l19 33c26,30 50,62 72,98 22,36 40,81 55,135 15,54 28,101 39,139 11,38 20,96 26,174 6,78 11,135 15,172 4,37 6,104 8,202 2,97 3,162 3,192 0,31 0,101 0,209 2,185 -36,361 -113,527 -77,166 -164,304 -259,413 -51,57 -127,101 -226,131 -99,31 -195,49 -287,54 -92,5 -186,10 -284,15 -97,5 -163,12 -196,22 -11,5 -29,-5 -55,-30 -20,7 -45,11 -76,11 -30,0 -55,-1 -73,-4l-28 -7c-9,5 -21,10 -34,15 -14,5 -39,14 -76,26 -37,12 -71,20 -102,24 -31,4 -63,2 -96,-4 -33,-6 -57,-20 -72,-43 -9,-12 -8,-34 3,-65 11,-31 25,-81 43,-150 17,-69 26,-144 26,-226 0,-79 -1,-212 -4,-400 -3,-187 -4,-351 -4,-492 0,-141 3,-250 8,-329 33,-402 45,-688 36,-858 -2,-22 -24,-66 -68,-131 -43,-65 -64,-109 -62,-131z"/>
  <path fill="black" fill-rule="nonzero" d="M11889 2691l88 -222c-55,49 -98,81 -130,96 -31,15 -61,24 -90,28 -28,4 -47,-1 -56,-13 -33,-47 7,-120 121,-218 6,-2 9,-5 11,-7 62,-54 130,-101 201,-141 92,-49 196,-96 311,-141 162,-62 292,-99 391,-111 59,-7 132,-10 220,-7 88,2 135,3 139,2 5,-1 29,-15 74,-41 45,-26 72,-39 81,-39 64,15 141,61 231,139 90,78 139,133 147,165 8,32 -9,86 -51,163 -42,76 -75,115 -99,115 -7,0 -23,-5 -45,-15 -23,-10 -57,-24 -103,-43 -46,-19 -96,-35 -152,-50 -198,-49 -364,-70 -496,-63 -50,2 -121,10 -214,22 -93,12 -147,23 -164,33 -13,7 -49,78 -109,213 -60,134 -99,231 -117,290 -24,72 -44,163 -61,274 -17,111 -18,173 -6,185 4,5 16,5 36,0 20,-5 48,-14 84,-28 36,-14 61,-23 76,-28 17,-5 74,-27 172,-67 98,-39 177,-65 236,-78l55 -15c37,-12 74,-22 113,-30 39,-7 82,-14 130,-19 149,-15 227,-17 234,-7 2,2 3,5 3,7 0,22 -8,46 -25,70 -17,25 -35,44 -55,59 -17,12 -93,22 -229,30 -26,2 -112,23 -259,63 -79,20 -220,104 -424,252 -59,42 -102,88 -130,137 -22,37 -37,75 -45,113 -8,38 -11,97 -7,176 6,116 16,203 30,263 22,81 85,165 187,252 70,57 149,89 237,96 35,2 106,-4 212,-19 107,-15 180,-22 220,-22 83,0 175,-21 276,-63 116,-49 176,-64 182,-44 15,49 7,96 -23,141 -30,44 -65,80 -103,107 -28,17 -100,54 -218,111 -39,20 -77,35 -116,44 -39,10 -80,19 -124,26 -44,7 -68,12 -72,15 -66,12 -199,20 -400,22 -173,0 -294,-12 -364,-37 -42,-15 -92,-43 -150,-85 -58,-42 -106,-94 -145,-155 -9,-15 -20,-59 -32,-133 -12,-74 -21,-169 -28,-285 -6,-116 -3,-243 10,-381 6,-67 12,-127 21,-181 8,-54 16,-99 22,-133 6,-35 16,-72 29,-113 13,-41 23,-70 30,-89 7,-19 21,-51 40,-98 19,-47 34,-83 45,-107 2,-2 18,-47 50,-135 31,-88 62,-170 91,-246z"/>
  <path fill="black" fill-rule="nonzero" d="M14446 2733l88 -226c-57,49 -101,81 -132,96 -31,15 -62,25 -91,30 -29,5 -50,1 -61,-11 -33,-49 9,-125 127,-226 6,-2 9,-5 11,-7 64,-54 133,-102 207,-144 94,-52 199,-100 317,-144 165,-62 299,-99 400,-111 62,-10 139,-14 229,-11 90,2 137,4 142,4 5,0 30,-14 76,-43 46,-28 74,-41 85,-39 64,15 143,62 236,142 93,80 143,136 150,168 7,32 -11,87 -54,165 -43,78 -77,118 -101,120 -7,0 -23,-6 -45,-17 -23,-11 -58,-26 -106,-44 -48,-19 -99,-35 -154,-50 -85,-20 -178,-36 -280,-50 -102,-14 -178,-19 -227,-17 -51,2 -125,10 -220,22 -96,12 -152,23 -168,33 -13,10 -50,83 -110,220 -61,137 -101,236 -121,298 -24,74 -45,168 -62,281 -17,113 -20,176 -7,189 6,5 19,5 40,0 21,-5 50,-15 85,-30 36,-15 61,-25 76,-30 18,-5 78,-27 178,-67 100,-39 181,-67 241,-81l55 -15c39,-10 78,-19 117,-28 40,-9 83,-15 131,-20 154,-15 235,-17 243,-7 2,2 3,5 3,7 -2,22 -11,46 -28,72 -17,26 -35,46 -55,61 -18,12 -96,22 -234,30 -26,2 -114,23 -265,63 -81,22 -226,109 -435,259 -61,42 -106,89 -135,141 -20,37 -34,75 -43,115 -8,39 -11,100 -10,181 6,99 17,184 36,255 13,52 7,178 -17,377 -24,200 -56,294 -96,281 -42,-17 -93,-47 -152,-91 -59,-43 -107,-96 -146,-157 -11,-17 -23,-63 -34,-137 -12,-74 -21,-171 -28,-290 -6,-120 -3,-250 10,-390 7,-81 15,-151 22,-209 7,-58 19,-114 34,-168 16,-54 26,-90 32,-107 6,-17 22,-60 50,-128 28,-68 45,-109 52,-124 2,-5 19,-52 51,-142 32,-90 64,-173 95,-250z"/>
  <path fill="black" fill-rule="nonzero" d="M18547 4121c-6,-10 -17,-31 -33,-65 -17,-33 -30,-61 -41,-83 -11,-22 -26,-48 -45,-78 -19,-30 -37,-55 -54,-78 -20,-25 -55,-58 -105,-100 -50,-42 -79,-67 -88,-76 -9,-9 -20,-29 -32,-61 -12,-32 -14,-49 -7,-52 17,-10 64,-13 142,-9 78,4 133,13 164,28 53,25 97,52 132,81 48,42 105,118 171,229 20,37 39,85 55,144 18,74 26,134 22,181 -4,37 -18,85 -44,144 -13,32 -25,57 -36,74 -31,79 -69,147 -113,203 -37,44 -147,103 -329,176 -183,73 -319,104 -409,94 -9,-2 -29,-6 -59,-9 -30,-4 -51,-6 -62,-7 -11,-1 -30,-4 -58,-9 -28,-5 -50,-10 -68,-17 -17,-6 -38,-14 -62,-24 -24,-10 -47,-21 -69,-33 -22,-12 -45,-27 -69,-44 -90,-69 -184,-152 -281,-248 -97,-96 -164,-181 -198,-255 -57,-116 -110,-239 -158,-368 -49,-129 -77,-220 -84,-272 -9,-84 -15,-194 -17,-329 -2,-136 2,-228 11,-277 24,-109 71,-231 142,-368 71,-137 137,-229 200,-276 312,-227 563,-359 752,-396 83,-15 204,-7 364,24 160,31 261,62 303,94 50,39 104,117 163,231 59,115 94,244 105,387 0,25 -24,16 -72,-26 -13,-12 -22,-22 -28,-30 -15,-116 -36,-194 -63,-233 -94,-143 -188,-226 -284,-248 -44,-12 -124,-12 -240,2 -116,14 -208,38 -276,72 -57,27 -129,97 -216,211 -87,113 -152,211 -194,292 -103,200 -152,448 -149,744 2,91 22,209 61,353 39,144 79,265 121,361 37,86 96,171 178,253 82,83 164,142 247,179 86,39 171,60 255,61 84,1 145,-14 183,-46 40,-30 78,-67 113,-111 35,-44 57,-75 66,-92 9,-17 26,-51 50,-100 13,-25 32,-80 58,-166l-14 -33z"/>
  <path fill="black" fill-rule="nonzero" d="M1508 6184c9,-15 57,-2 142,39 85,41 169,91 252,150 39,30 63,56 74,80 11,23 17,55 18,94 1,39 5,73 12,100 6,27 10,57 12,89 3,32 4,59 4,81 0,22 -1,63 -4,122 -3,59 -4,106 -4,141 -9,316 -11,524 -6,625 2,67 9,117 21,150 12,33 32,52 59,57 31,7 154,-60 368,-202 214,-142 360,-255 437,-339 15,-15 23,-54 25,-118 2,-64 -1,-153 -8,-266 -4,-67 -9,-125 -17,-174 -7,-49 -18,-101 -32,-155 -14,-54 -21,-83 -21,-85 -4,-15 -7,-38 -10,-70 -3,-32 -8,-72 -17,-120 -8,-48 -23,-105 -45,-172 -7,-27 -3,-43 12,-46 16,-4 39,-2 70,4 31,6 65,6 102,-2 7,-2 34,-1 81,6 47,6 92,8 136,6 18,0 32,7 41,22 9,15 17,37 25,67 7,30 12,48 14,55 6,12 9,27 11,44 2,17 2,33 1,48 -1,15 -1,35 -1,59 0,25 0,44 0,59 0,37 2,134 6,290 4,157 3,271 -3,342 -6,160 -9,376 -11,647 0,286 15,533 44,740 9,64 16,165 21,303 5,138 0,224 -12,259 -22,30 -45,48 -70,55 -25,7 -51,8 -77,2 -27,-6 -41,-9 -43,-9 -64,5 -126,1 -186,-13 -60,-14 -90,-30 -92,-50 -2,-20 0,-62 4,-128 5,-65 5,-115 1,-150 -7,-84 -6,-248 6,-494 11,-245 15,-379 11,-401 -4,-5 -9,-11 -17,-19 -7,-7 -19,-17 -36,-30 -17,-12 -29,-19 -39,-19 -85,5 -227,47 -427,128 -200,80 -305,142 -314,187 -20,123 -25,269 -15,437 10,168 23,284 40,348 4,12 10,32 19,59 9,27 14,44 14,50 0,6 -1,18 -3,35 -17,25 -38,45 -65,61 -27,16 -56,18 -87,6 -31,-12 -88,-4 -171,26 -39,15 -79,13 -120,-6 -41,-19 -72,-44 -92,-76 -7,-22 -10,-41 -7,-57 3,-16 9,-42 19,-78 10,-36 16,-61 18,-76 11,-64 12,-121 3,-170 -7,-39 -12,-129 -14,-270 -2,-141 -4,-324 -6,-551 -2,-227 -5,-411 -8,-551 -7,-266 -4,-498 11,-696 7,-47 11,-98 10,-154 -1,-56 -15,-115 -43,-179 -31,-74 -40,-123 -25,-148z"/>
  <path fill="black" fill-rule="nonzero" d="M5212 6234c-2,-17 90,-35 276,-52 48,-2 98,10 152,39 53,28 85,55 96,80 9,20 17,46 22,80 6,33 9,62 10,87 1,25 1,53 1,85l0 48c4,111 4,260 1,448 -3,187 -2,429 3,725 5,296 15,534 32,714 2,35 5,83 8,146 4,63 7,108 11,135 7,86 17,157 30,211 2,15 8,28 18,41 10,12 19,23 26,31 7,9 10,17 8,24 -11,30 -75,51 -193,65 -118,14 -240,9 -367,-13 -28,-5 -50,-22 -66,-52 -17,-30 -19,-53 -8,-70 39,-54 54,-144 47,-270 -9,-197 -20,-503 -32,-916 -12,-413 -17,-721 -15,-923 2,-20 6,-69 12,-148 6,-79 11,-162 12,-248 0,-17 -1,-33 -3,-46 -2,-14 -5,-26 -10,-37 -5,-11 -8,-20 -11,-26 -3,-6 -7,-14 -14,-24 -6,-10 -11,-16 -12,-18 -7,-12 -13,-23 -18,-31 -5,-9 -8,-15 -10,-20 -2,-5 -4,-10 -6,-17 -2,-6 -3,-10 -3,-11 0,-1 0,-6 0,-15 0,-9 0,-15 0,-20z"/>
  <path fill="black" fill-rule="nonzero" d="M7914 6411c-2,-15 -14,-38 -37,-68 -23,-31 -33,-56 -29,-76 4,-7 11,-15 22,-22 11,-7 22,-12 33,-13 11,-1 24,-3 40,-6 16,-2 25,-4 29,-4 29,-7 88,-14 176,-19 88,-5 156,-4 204,4 17,2 36,12 58,28 22,16 40,30 55,43l22 19c2,12 -10,33 -34,61 -25,28 -37,56 -37,83 0,17 8,86 25,205 17,120 26,266 28,438 17,824 23,1265 19,1324 -2,37 -41,175 -118,414 -11,32 -21,84 -29,155 -8,72 -16,113 -23,126 -28,49 -98,124 -212,224 -114,100 -222,183 -325,250 -75,49 -188,110 -339,181 -17,7 -38,16 -65,26 -27,10 -49,17 -68,22l-28 11c-6,-17 6,-56 36,-117 29,-60 55,-108 77,-142 18,-27 63,-73 134,-137 71,-64 123,-115 156,-152 88,-94 156,-200 204,-318 48,-118 77,-289 88,-511 0,-7 1,-40 4,-98 3,-58 5,-101 6,-129 1,-28 3,-76 7,-144 4,-68 6,-124 7,-168 1,-44 2,-102 4,-174 2,-72 3,-133 3,-185 0,-52 0,-112 -1,-179 -1,-68 -2,-129 -4,-183 -2,-54 -5,-110 -10,-166 -5,-57 -10,-110 -15,-159 -9,-57 -20,-132 -32,-226 -12,-94 -22,-166 -29,-218z"/>
  <path fill="black" fill-rule="nonzero" d="M9317 6218c9,-15 55,-2 136,37 82,39 163,89 244,148 37,27 61,52 72,74 11,22 17,53 18,92 1,39 5,72 12,96 6,27 10,56 12,87 3,31 4,57 4,78 0,21 -1,60 -4,118 -3,58 -4,103 -4,135 -9,308 -12,511 -8,607 4,64 11,112 23,144 12,32 31,51 56,55 31,7 111,-70 240,-231 129,-162 192,-269 190,-324 0,-15 24,-100 73,-255 49,-155 92,-318 130,-486 38,-169 46,-285 26,-350 -7,-27 -3,-43 12,-46 16,-4 39,-2 69,4 30,6 63,6 98,-2 6,0 31,2 77,7 46,5 91,6 135,4 13,0 25,6 36,19 11,12 19,23 25,33 6,10 12,27 19,52 7,25 12,38 14,41 6,15 -10,60 -45,137 -36,76 -79,162 -131,255 -51,94 -78,142 -80,144 -29,62 -72,136 -127,222 -55,86 -95,161 -120,224 -25,63 -39,139 -43,228 -2,44 15,73 51,87 36,14 80,17 132,11 52,-6 105,-11 158,-15 53,-4 98,5 135,26 37,21 55,61 55,120 0,279 14,517 41,714 9,64 16,163 19,298 4,134 0,218 -11,250 -22,30 -45,47 -69,54 -24,6 -48,6 -73,0 -25,-6 -39,-9 -43,-9 -62,5 -122,1 -179,-11 -57,-12 -87,-28 -90,-48 -3,-20 -2,-61 3,-124 5,-63 5,-110 1,-142 -6,-84 -3,-244 7,-481 10,-237 13,-366 10,-388 -4,-5 -9,-11 -17,-19 -7,-7 -19,-17 -34,-30 -16,-12 -28,-17 -37,-15 -81,5 -218,46 -412,122 -194,76 -295,137 -305,181 -20,118 -25,259 -15,422 10,163 23,275 40,337 2,12 7,31 17,57 9,26 14,42 14,48 0,6 -1,18 -3,35 -15,25 -35,44 -61,59 -26,15 -54,17 -85,7 -31,-12 -86,-4 -165,26 -37,12 -75,9 -116,-9 -40,-19 -71,-43 -91,-72 -6,-20 -7,-38 -6,-55 2,-17 8,-43 18,-78 10,-35 16,-58 18,-70 11,-62 12,-116 3,-163 -7,-39 -12,-128 -14,-265 -2,-137 -4,-315 -6,-535 -2,-220 -5,-397 -8,-533 -7,-259 -4,-483 11,-673 7,-47 11,-97 10,-150 -1,-53 -15,-110 -43,-172 -29,-72 -37,-120 -22,-144z"/>
  <path fill="black" fill-rule="nonzero" d="M12097 6823c31,-76 64,-150 99,-222 24,-47 38,-89 41,-128 4,-38 2,-66 -6,-83 -7,-17 -10,-33 -8,-46 2,-14 12,-25 30,-35 110,-59 221,-110 333,-152 35,-12 51,-2 50,30 0,35 -44,153 -132,355 -73,170 -124,305 -152,403 -77,269 -125,481 -145,636 -19,155 -24,350 -15,585 6,123 17,217 33,281 24,89 91,179 201,270 75,62 161,96 256,104 37,2 113,-4 227,-20 115,-16 194,-24 238,-24 88,2 186,-20 295,-67 125,-54 190,-70 196,-48 17,52 9,102 -23,150 -32,48 -69,87 -112,117 -29,20 -107,60 -234,122 -42,20 -84,35 -125,46 -41,11 -86,20 -134,28 -48,7 -73,12 -77,15 -70,15 -213,22 -430,22 -184,2 -314,-10 -391,-37 -46,-17 -100,-49 -161,-94 -62,-46 -113,-101 -153,-165 -11,-17 -23,-65 -36,-144 -13,-79 -23,-181 -30,-305 -7,-125 -4,-261 11,-409 7,-74 15,-140 23,-198 8,-58 16,-105 22,-142 6,-37 17,-77 32,-120 15,-43 26,-75 33,-94 7,-20 22,-55 43,-105 21,-51 37,-89 48,-117 2,-5 19,-54 52,-148 33,-94 66,-180 99,-259z"/>
  <path fill="black" fill-rule="nonzero" d="M14734 7926c85,-289 152,-529 204,-721 51,-192 113,-407 185,-644 13,-42 28,-86 45,-131 17,-46 29,-83 34,-113l3 -104c6,-22 17,-33 34,-31 17,1 35,9 54,24 26,25 56,60 91,107 39,54 82,174 130,359l0 4c0,2 1,4 3,4 97,279 187,572 270,879 83,307 145,569 187,786 11,59 23,129 37,209 14,80 23,133 29,159 6,26 13,55 23,89 10,33 23,64 37,91 11,22 32,59 62,109 30,51 51,88 63,113 12,25 13,39 4,44 -46,17 -108,25 -187,24 -79,-1 -148,-7 -207,-17 -31,-5 -54,-11 -68,-19 -14,-7 -34,-22 -62,-44 -7,-7 -14,-24 -21,-50 -6,-26 -12,-44 -18,-54 -2,-5 -8,-13 -18,-24 -10,-11 -19,-27 -28,-48 -8,-21 -13,-51 -15,-91 -6,-67 -27,-184 -63,-351 -17,-76 -29,-130 -39,-161 -9,-31 -16,-57 -19,-80 -15,-76 -46,-181 -94,-314 -48,-133 -80,-243 -96,-329 -13,-74 -33,-158 -59,-252 -27,-94 -52,-163 -76,-207 -4,-5 -6,-10 -8,-15 -15,35 -29,72 -43,113 -14,41 -26,78 -36,111 -10,33 -22,74 -36,122 -14,48 -24,85 -30,111 -6,26 -17,67 -30,122 -14,56 -23,92 -26,111 -4,19 -12,58 -26,118 -14,60 -23,97 -26,109 -81,348 -126,560 -135,636 -2,20 -4,40 -7,61 -3,21 -6,44 -10,70 -4,26 -7,47 -11,65 -6,39 -15,82 -29,128 -14,46 -27,70 -40,72 -11,2 -25,-6 -43,-26 -17,-20 -32,-39 -43,-59l-17 -30 -61 -111c-22,-37 -46,-79 -72,-126 -28,-54 -47,-118 -59,-192 -12,-74 -20,-117 -23,-129 -18,-54 -35,-108 -51,-161 -16,-53 -29,-94 -40,-124 -35,-89 -52,-136 -52,-141 -20,-74 -34,-131 -43,-172 -8,-41 -14,-76 -17,-107 -3,-31 -5,-55 -7,-72 -9,-52 -20,-96 -33,-131 -13,-36 -26,-67 -40,-92 -14,-26 -23,-45 -26,-57l-17 -52c-85,89 -193,374 -325,855 -26,91 -51,188 -76,290 -25,102 -41,167 -48,194 -11,44 -28,110 -50,198 -22,88 -40,157 -54,209 -14,52 -23,83 -29,92 -6,10 -13,17 -22,22 -9,5 -21,7 -34,7 -14,0 -27,0 -39,0 -12,0 -28,-1 -48,-4 -20,-2 -37,-5 -50,-7 -48,-7 -72,-20 -72,-37 13,-22 34,-51 62,-85 28,-35 45,-54 48,-59 46,-76 88,-168 127,-274 6,-12 11,-47 17,-104 6,-57 12,-100 19,-129 7,-35 23,-98 48,-191 25,-92 38,-150 40,-172 4,-32 12,-82 26,-150 14,-68 23,-115 29,-142 15,-99 36,-203 63,-314 70,-271 151,-491 243,-659 112,-205 189,-364 231,-477 4,-7 6,-14 8,-19 17,-54 34,-89 52,-104 11,-10 20,-4 28,19 7,22 15,55 22,100 18,113 40,236 66,366 26,128 51,231 77,307 13,35 31,101 55,200 24,99 41,163 52,192 24,67 59,147 105,240 53,106 96,200 130,281 2,-5 4,-10 6,-15z"/>
  <path fill="black" fill-rule="nonzero" d="M16665 6169c0,-7 2,-14 7,-19 5,-5 11,-8 19,-9 8,-1 16,-2 23,-2 7,0 17,1 29,2 12,1 22,2 29,2 119,-5 228,9 325,41 75,25 175,70 298,137 123,67 209,133 256,200 44,62 102,139 175,233 73,94 136,175 189,242 53,68 87,115 102,142 83,136 154,260 215,374l187 340c9,-22 22,-112 39,-268 17,-157 27,-279 30,-368 7,-150 7,-280 0,-388 -2,-42 -4,-112 -7,-209 -3,-97 -4,-151 -4,-161 -6,-79 -2,-185 10,-318 12,-133 23,-213 34,-240 11,-22 38,-36 81,-41 43,-5 76,-1 98,11 7,2 13,7 17,13 4,6 5,14 4,24 -1,10 -3,19 -6,26 -3,7 -6,18 -11,33 -5,15 -8,26 -10,33 -7,30 -13,82 -18,157 -5,75 -7,144 -7,205l0 92c-7,631 -11,972 -11,1021 0,20 -17,248 -52,684 -22,274 -39,441 -52,503 0,2 -3,25 -10,68 -6,43 -13,76 -21,100 -7,23 -15,36 -22,39 -4,2 -8,2 -14,0 -6,-2 -11,-7 -15,-15 -5,-7 -9,-15 -14,-22 -5,-7 -10,-17 -17,-30 -6,-12 -12,-23 -17,-31 -5,-9 -11,-21 -18,-37 -7,-16 -13,-28 -17,-35 -96,-200 -156,-318 -182,-355 -42,-62 -110,-150 -203,-265 -93,-115 -161,-186 -205,-213 -11,-5 -74,-39 -189,-104 -115,-64 -189,-110 -222,-137 -22,-17 -53,-46 -92,-85 -40,-39 -73,-71 -99,-94 -27,-23 -45,-34 -57,-31 -9,2 -17,6 -23,11 -6,5 -11,13 -14,24 -3,11 -5,20 -6,26 -1,6 -2,19 -3,39 -1,20 -1,33 -1,41 -15,224 -25,480 -32,766 -6,286 -8,513 -4,681 0,25 -19,39 -58,44 -39,5 -73,0 -102,-15 -20,-7 -36,-18 -47,-31 -11,-14 -18,-25 -21,-35 -3,-10 -8,-31 -15,-63 -2,-44 -3,-73 -3,-87 0,-14 3,-54 8,-122 6,-68 9,-109 11,-124 6,-84 9,-395 10,-934 1,-539 -5,-884 -18,-1034 -4,-30 -22,-63 -54,-100 -32,-37 -62,-67 -91,-91 -28,-23 -44,-35 -45,-35 -6,-10 -13,-23 -22,-41 -9,-17 -20,-45 -33,-83 -13,-38 -18,-66 -17,-83z"/>
  <path fill="black" fill-rule="nonzero" d="M2676 11272c-46,-39 -118,-57 -215,-52 -97,5 -181,31 -251,78 -85,57 -143,112 -176,166 -33,54 -69,147 -107,277 -6,15 -11,28 -17,41 -4,15 -7,28 -11,41 -101,321 -72,608 88,862 53,86 96,152 130,198 33,46 78,91 135,135 57,44 116,72 176,81 79,12 134,17 164,15 30,-2 96,-17 197,-44 40,-10 72,-18 94,-24 22,-6 45,-15 68,-26 23,-11 39,-20 47,-26 8,-6 28,-21 61,-44 32,-23 60,-43 84,-57 31,-22 64,-46 98,-70 34,-25 59,-44 76,-57 17,-14 36,-28 58,-43 22,-15 36,-22 43,-22 6,0 16,1 29,4 7,5 -2,30 -28,76 -26,46 -53,88 -83,128l-44 63c-7,10 -19,23 -34,41 -16,17 -46,49 -92,94 -46,46 -92,87 -139,124 -47,37 -103,73 -169,107 -66,35 -129,58 -187,70 -250,44 -479,14 -686,-92 -73,-37 -142,-83 -205,-139 -63,-55 -137,-138 -222,-246 -66,-81 -116,-197 -149,-348 -20,-81 -30,-161 -29,-239 1,-78 16,-170 45,-276 26,-99 56,-179 91,-240 35,-62 98,-154 190,-277 7,-7 14,-15 19,-22 4,-7 7,-14 11,-19 57,-79 104,-139 142,-181 38,-42 65,-69 83,-81 17,-12 45,-30 81,-52 70,-44 207,-95 411,-152 88,-32 164,-43 229,-31 64,11 134,54 209,128 7,10 15,20 22,30 40,44 83,141 127,289 51,168 68,314 50,440 -4,20 -9,42 -15,67 -6,25 -18,54 -34,89 -17,35 -40,66 -72,94 -31,28 -67,47 -107,57 -20,5 -56,-12 -106,-50 -51,-38 -105,-71 -163,-98 -58,-27 -108,-27 -150,0 -28,20 -45,46 -54,80 -8,33 -6,69 6,107 12,38 22,67 29,87 7,20 17,39 28,59 18,39 33,69 44,89 72,94 195,116 369,67 92,-25 182,-82 270,-172 88,-90 143,-184 165,-283 26,-133 29,-297 11,-490 -18,-194 -43,-313 -74,-357 -37,-54 -88,-117 -154,-189 -66,-72 -119,-122 -160,-152 -2,-5 -5,-9 -8,-11 -99,-32 -205,-53 -317,-63 -97,-12 -196,-15 -296,-7 -100,7 -203,33 -310,78 -99,39 -183,102 -251,189 -68,86 -139,228 -212,425 -20,57 -55,174 -105,351 -11,39 -21,58 -30,55 -2,0 -6,-4 -11,-11 -35,-62 -28,-205 21,-431 49,-226 129,-429 241,-609 57,-91 135,-171 233,-240 98,-69 186,-118 263,-146 77,-28 152,-51 226,-68 53,-10 161,6 322,46 162,41 316,93 463,157 18,5 35,12 50,22 2,0 4,0 6,0 2,2 4,4 6,4l0 4c73,52 130,106 169,163 40,57 88,146 145,266 53,113 98,228 135,344 37,116 59,212 66,289 6,57 0,123 -15,198 -16,75 -29,128 -41,159 -12,31 -31,80 -56,146 -40,99 -79,175 -116,229 -37,54 -90,107 -160,159 -231,170 -412,243 -540,218 -55,-10 -137,-38 -245,-85 -108,-47 -178,-84 -209,-111 -73,-42 -130,-123 -168,-244 -11,-32 -19,-64 -23,-94 -5,-31 -8,-60 -10,-87 -2,-27 -1,-55 1,-83 3,-28 6,-54 10,-76 4,-22 9,-46 17,-70 7,-25 14,-44 19,-59 6,-15 13,-33 22,-54 9,-21 16,-35 21,-43 5,-7 11,-19 18,-33 7,-15 12,-22 14,-22 13,-25 36,-51 70,-80 34,-28 69,-45 106,-50 26,-7 57,-10 94,-9 37,1 73,19 107,54 9,10 28,40 55,91 28,51 56,97 85,139 15,25 33,33 54,24 21,-9 40,-33 56,-72 35,-81 29,-180 -17,-296 -28,-72 -85,-158 -174,-259 -9,-10 -17,-19 -22,-26z"/>
  <path fill="black" fill-rule="nonzero" d="M5113 10765c7,42 11,92 11,152 0,39 2,99 7,178 5,79 8,165 10,259 2,239 3,369 3,388 0,32 1,60 3,85 26,-20 67,-46 124,-78 20,-12 39,-24 55,-35 17,-11 33,-23 50,-37 17,-14 30,-25 41,-33 11,-9 24,-22 39,-39 15,-17 26,-30 33,-37 7,-7 18,-22 33,-43 15,-21 24,-34 28,-39 4,-5 14,-20 30,-44 17,-25 26,-38 28,-41 22,-30 47,-83 74,-159 28,-76 42,-126 44,-148 15,-168 -13,-279 -83,-333 -20,-15 -42,-28 -65,-39 -23,-11 -44,-20 -62,-26 -18,-6 -39,-10 -63,-13 -24,-2 -44,-4 -61,-4 -17,0 -36,2 -59,7 -23,5 -41,9 -54,11 -13,2 -30,8 -52,17 -22,9 -37,14 -44,17 -7,2 -21,8 -40,17 -19,9 -29,14 -29,17zm-540 -185c7,-52 40,-76 99,-74 6,0 18,-1 39,-4 20,-2 41,-3 63,-2 22,1 44,6 66,13 9,2 29,8 59,17 30,9 56,17 79,26 22,9 41,20 58,35l0 -4c35,-35 63,-57 85,-67 88,-49 196,-83 322,-100 42,-2 73,-4 91,-4 18,0 45,2 81,6 36,4 59,6 70,6 22,2 42,3 59,2 17,-1 40,-1 66,2 27,2 53,6 79,11l14 4c110,69 200,184 269,344 69,160 81,312 37,455 -17,54 -40,104 -69,150 -29,46 -65,88 -106,126 -41,38 -77,69 -107,92 -30,23 -68,51 -114,83 -105,69 -214,129 -327,179 -113,51 -210,83 -291,98 -7,2 -20,4 -39,4 2,32 1,84 -3,155 -4,86 -15,263 -33,529 -22,303 -23,474 -3,511 15,27 39,67 72,118 46,76 62,118 47,126 -39,7 -85,4 -138,-11 -53,-15 -87,-23 -102,-26 -22,0 -62,8 -120,24 -58,16 -111,30 -160,43 -49,12 -77,16 -84,11 -9,-5 -10,-39 -1,-102 8,-63 21,-139 39,-228 17,-89 27,-144 29,-166 11,-79 18,-190 21,-333 3,-143 0,-291 -10,-444 -7,-111 -18,-217 -33,-318 -15,-101 -22,-163 -22,-185 -4,-106 2,-263 17,-470 15,-207 17,-340 8,-400 -4,-22 -23,-61 -58,-117 -35,-56 -51,-94 -50,-117z"/>
  <path fill="black" fill-rule="nonzero" d="M8688 11864c-29,343 -79,635 -149,877 28,47 51,89 69,126 7,10 26,38 55,85 29,47 56,90 80,129 24,39 35,64 33,74 -9,123 -17,199 -22,226 -13,59 -21,90 -25,92 -2,0 -4,-1 -6,-2 -2,-1 -4,-4 -7,-7 -3,-4 -5,-7 -7,-9 -2,-2 -4,-7 -7,-13 -3,-6 -5,-11 -7,-15 -2,-4 -5,-9 -8,-17 -4,-7 -6,-12 -8,-15 -42,-89 -69,-142 -80,-159 -17,-25 -44,-61 -83,-109 -39,-48 -69,-81 -91,-98 -13,25 -27,47 -41,67 -96,138 -209,235 -340,290 -131,56 -256,76 -373,61 -7,0 -27,-2 -58,-6 -31,-4 -53,-7 -65,-9 -12,-2 -32,-6 -59,-11 -28,-5 -50,-10 -68,-17 -17,-6 -39,-14 -63,-22 -25,-9 -49,-20 -72,-35 -23,-15 -46,-31 -70,-48 -92,-69 -187,-152 -287,-250 -99,-97 -167,-184 -204,-261 -57,-118 -111,-244 -161,-377 -51,-133 -79,-224 -84,-274 -9,-86 -15,-199 -18,-339 -3,-139 1,-234 12,-283 24,-111 72,-237 143,-377 72,-141 140,-233 204,-277 318,-232 574,-367 769,-407 85,-15 209,-6 372,26 164,32 266,64 309,96 22,17 55,51 98,102 43,51 91,112 143,183 52,72 98,153 138,244 40,91 62,175 68,252 2,25 -1,112 -8,263 -7,150 -15,232 -22,244zm-824 403c0,-5 1,-9 4,-11 3,-2 6,-4 10,-4 4,0 7,0 10,0 3,0 7,0 12,0 6,0 10,0 14,0 53,0 101,6 143,19 35,12 80,33 135,63 55,30 93,59 113,89 22,32 56,76 102,133 20,-79 37,-163 51,-253 14,-90 24,-180 30,-270 6,-90 11,-165 12,-226 2,-60 3,-127 4,-200 1,-73 1,-113 1,-120 -85,-185 -142,-323 -174,-414 -13,-37 -51,-100 -114,-189 -63,-89 -122,-141 -175,-155 -42,-12 -88,-22 -136,-30 -49,-7 -107,-9 -174,-6 -67,4 -124,17 -169,39 -57,30 -130,102 -220,218 -90,116 -156,215 -198,296 -107,207 -157,460 -152,758 2,94 22,215 61,363 39,148 80,271 124,370 37,86 97,172 181,257 84,85 168,147 252,187 59,27 119,39 179,37 61,-2 111,-11 152,-26 40,-15 77,-35 110,-59 72,-49 137,-118 196,-207 -6,-2 -10,-5 -14,-7 -24,-22 -70,-92 -139,-209 -69,-117 -106,-200 -112,-250 -2,-12 -10,-27 -23,-44 -14,-17 -28,-31 -43,-41l-19 -15c-4,-5 -7,-12 -11,-20 -4,-9 -8,-21 -14,-37 -6,-16 -8,-28 -8,-35z"/>
  <path fill="black" fill-rule="nonzero" d="M9834 10809c7,42 11,92 11,152 0,42 2,104 7,185 5,81 8,171 10,270 4,249 6,385 6,407 0,81 3,148 8,200 39,-49 90,-39 154,30 228,-42 376,-120 444,-233 20,-35 45,-113 73,-235 28,-122 44,-200 45,-235 4,-62 -4,-125 -23,-189 -19,-64 -45,-120 -76,-166 -31,-47 -58,-85 -81,-115 -23,-30 -42,-51 -56,-63 -127,-111 -300,-113 -521,-7zm-116 52c17,5 26,2 28,-7 -13,5 -22,7 -28,7zm-422 -248c7,-57 40,-83 99,-78 6,0 18,-1 37,-4 19,-2 40,-4 63,-4 23,0 45,4 65,11 11,5 31,12 59,20 28,9 51,16 68,22 17,6 35,17 55,31 20,15 37,32 50,52 17,-15 29,-26 39,-33 92,-54 203,-91 333,-111 42,-5 73,-7 91,-7 18,0 46,2 84,7 38,5 62,7 73,7 22,2 42,3 59,2 17,-1 40,-1 68,2 28,2 55,7 83,15l14 4c48,20 102,65 163,137 61,72 116,154 165,246 50,92 86,192 110,300 24,107 25,202 3,283 -33,118 -105,243 -215,374 -110,131 -212,232 -306,303 -79,59 -180,96 -303,111 130,143 249,268 357,374 107,106 169,166 183,181 48,52 89,110 124,174 35,64 83,122 143,174 31,25 62,45 91,61 29,16 53,26 72,30 18,4 34,6 48,7 14,1 23,3 28,6 5,2 5,9 1,18 -7,35 -51,69 -132,104 -81,35 -152,53 -212,55 -70,2 -153,-1 -249,-9 -96,-9 -158,-20 -183,-35 -24,-12 -54,-48 -90,-107 -36,-59 -80,-136 -134,-229 -53,-94 -101,-170 -143,-229 -83,-118 -182,-232 -298,-340 0,12 -1,32 -3,59 -2,27 -4,56 -7,87 -3,31 -5,64 -7,98 -20,313 -21,490 -3,529 15,30 39,72 72,126 46,79 62,122 47,129 -39,7 -85,3 -138,-13 -53,-16 -86,-24 -99,-24 -22,-2 -62,5 -120,22 -58,17 -111,33 -160,46 -49,14 -77,18 -84,13 -9,-7 -10,-44 -1,-109 8,-65 21,-144 39,-235 17,-91 27,-149 29,-174 11,-81 18,-197 21,-346 3,-149 0,-304 -10,-464 -7,-116 -18,-226 -33,-331 -15,-105 -22,-170 -22,-194 -4,-109 2,-271 17,-486 15,-216 17,-355 6,-416 -2,-22 -20,-62 -55,-120 -35,-58 -51,-98 -50,-120z"/>
  <path fill="black" fill-rule="nonzero" d="M13094 11304c-46,-109 -101,-193 -164,-253 -63,-60 -161,-118 -293,-172 -86,-32 -176,-31 -270,4 -94,35 -198,90 -314,166 -147,99 -170,205 -69,318 39,44 74,75 106,92 32,17 105,46 219,85 88,30 237,68 448,115 210,47 339,76 387,89 114,32 251,89 411,170 92,47 169,205 231,474 42,175 27,356 -47,544 -96,242 -228,400 -397,474 -79,35 -233,63 -463,85 -219,22 -443,9 -672,-41 -248,-52 -402,-107 -463,-166 -24,-22 -46,-66 -68,-131 -21,-65 -31,-129 -29,-191 2,-84 27,-204 76,-361 49,-157 83,-232 103,-228 24,7 55,51 94,131 39,80 82,173 131,279 49,106 94,184 136,233 40,47 102,97 186,150 84,53 169,82 258,87 48,5 113,-2 196,-22 83,-20 159,-48 229,-85 61,-32 118,-96 172,-191 54,-95 82,-192 84,-290 0,-109 -25,-214 -76,-316 -51,-102 -101,-170 -150,-202 -42,-27 -110,-55 -203,-83 -93,-28 -196,-49 -310,-61 -167,-15 -319,-55 -455,-122 -136,-67 -248,-154 -336,-263 -42,-52 -84,-121 -125,-207 -41,-86 -54,-154 -37,-203 17,-47 48,-110 94,-189 46,-79 96,-150 152,-215 48,-54 99,-95 153,-122 54,-27 138,-59 252,-96 186,-57 390,-64 615,-22 4,2 19,6 47,11 28,5 45,8 52,9 7,1 24,5 51,11 27,6 46,12 58,17 12,5 30,12 54,20 24,9 43,18 58,28 15,10 31,21 50,33 18,12 35,26 51,41 16,15 30,32 43,52 26,35 45,83 58,144 13,62 18,118 17,170 -2,52 -9,86 -22,104 -20,27 -74,55 -161,83 -87,28 -135,33 -145,13z"/>
  <path fill="black" fill-rule="nonzero" d="M14348 10680c176,-49 480,-70 912,-61 432,9 774,41 1028,98 26,5 44,29 54,72 10,43 12,85 6,126 -6,41 -19,61 -37,61 -24,0 -68,-7 -132,-20 -64,-14 -144,-33 -240,-57 -96,-25 -169,-43 -220,-55l-254 -48c15,35 27,200 36,496 18,572 23,1164 14,1776 0,22 0,49 -1,80 -1,31 -2,56 -3,76 -1,20 -1,39 -1,57 0,18 1,33 3,43 2,10 5,15 8,15 147,39 141,105 -19,196 -17,10 -34,17 -54,22 -19,5 -36,8 -50,9 -14,1 -42,2 -85,4 -43,1 -81,2 -114,2 -59,2 -113,-10 -164,-37 -51,-27 -81,-52 -92,-74 -6,-12 0,-27 15,-43 16,-16 34,-33 55,-50 21,-17 34,-32 37,-44 2,-17 -1,-75 -8,-172 -7,-97 -17,-192 -28,-283l-14 -137c-7,-350 -15,-552 -22,-607 -4,-25 0,-172 10,-442 10,-270 12,-419 7,-446 -6,-22 -9,-71 -10,-146 -1,-75 0,-145 4,-209l3 -92 -598 4c-42,-27 -65,-54 -69,-81 -2,-15 6,-25 25,-30z"/>
  <path fill="black" fill-rule="nonzero" d="M16914 10792c18,-32 100,-67 245,-104 145,-37 229,-43 251,-18 11,17 15,62 12,135 -3,73 -11,162 -23,268 -13,106 -26,208 -40,305 -14,97 -26,181 -37,250l-17 104c-2,10 -5,25 -8,44 -4,20 -9,58 -15,115 -6,57 -11,112 -14,165 -3,53 -4,113 -4,181 0,68 4,129 11,183 9,69 27,139 54,211 27,72 49,125 68,159 18,35 55,97 110,189 55,91 91,149 107,174 140,239 276,338 408,296 75,-25 143,-64 204,-118 61,-54 122,-137 185,-248 31,-54 52,-108 62,-161 10,-53 13,-117 10,-191 -4,-86 -8,-286 -12,-599 -5,-313 -10,-524 -15,-633 -4,-96 -17,-197 -39,-303 -22,-106 -40,-190 -55,-252 -15,-62 -19,-99 -14,-111 59,-104 125,-165 198,-183 73,-19 157,-4 251,43 7,5 14,13 21,24 6,11 12,28 17,50 5,22 9,45 12,68 4,23 7,54 10,91 3,37 5,70 6,100 1,30 2,68 4,115 2,47 3,86 4,118 1,32 2,75 3,128 1,53 2,94 4,124 2,101 -22,437 -72,1006 -7,91 -28,202 -62,331 -34,129 -79,240 -134,331 -37,64 -86,134 -149,209 -62,75 -120,126 -174,154 -46,25 -112,49 -198,74 -86,25 -174,37 -262,37 -24,0 -51,-2 -81,-7 -30,-5 -75,-22 -134,-50 -59,-28 -113,-65 -163,-109 -2,-2 -9,-9 -21,-19 -12,-10 -21,-18 -28,-24 -6,-6 -16,-15 -29,-28 -13,-12 -25,-25 -37,-39 -12,-14 -26,-30 -41,-48 -16,-19 -32,-40 -50,-65 -17,-25 -35,-51 -54,-78 -134,-197 -224,-400 -270,-607 -4,-20 -11,-109 -21,-266 -10,-158 -18,-311 -23,-459 -13,-350 -17,-599 -14,-747 4,-86 8,-152 14,-196 6,-44 10,-71 14,-80 4,-9 12,-22 25,-39z"/>
  <path fill="black" fill-rule="nonzero" d="M4913 14866c-13,20 -33,47 -61,81 -28,35 -43,54 -47,59 -44,74 -85,163 -124,266 -4,15 -8,49 -14,104 -6,54 -12,95 -19,122 -7,37 -23,101 -45,191 -23,90 -35,145 -37,165 -4,32 -12,81 -26,148 -14,67 -23,112 -26,137 -15,96 -35,199 -61,307 -66,266 -143,482 -231,647 -86,158 -170,349 -251,573 -17,42 -46,5 -88,-111 -7,-22 -20,-60 -39,-115 -28,-81 -50,-143 -66,-185 -4,-7 -6,-16 -8,-26 -6,-12 -11,-27 -17,-44 -97,-271 -187,-556 -270,-855 -83,-298 -144,-552 -185,-762 -13,-57 -26,-124 -40,-202 -14,-78 -23,-129 -29,-155 -6,-26 -13,-55 -23,-87 -10,-32 -22,-62 -34,-89 -11,-20 -32,-54 -62,-104 -30,-49 -51,-86 -63,-111 -12,-25 -13,-39 -4,-44 44,-17 105,-25 182,-24 77,1 144,7 201,17 48,7 90,26 127,56 7,7 14,24 21,50 6,26 12,44 18,54 2,5 8,13 18,24 10,11 19,27 26,46 7,20 13,49 17,89 6,64 27,178 63,340 17,74 29,126 39,157 9,31 16,56 19,76 15,74 45,176 92,305 47,129 79,236 95,320 28,143 62,269 105,377 11,-10 18,-17 22,-22 94,-99 201,-376 322,-832 24,-89 48,-183 72,-283 24,-100 39,-162 47,-187 11,-44 27,-110 47,-196 20,-86 37,-154 51,-203 14,-49 23,-80 29,-92 6,-10 13,-17 22,-20 9,-4 20,-6 33,-7 13,-1 25,-1 37,0 12,1 28,3 47,6 19,2 35,4 48,4 46,5 70,17 72,37z"/>
  <path fill="black" fill-rule="nonzero" d="M7054 15991c-83,291 -149,533 -198,725 -51,195 -113,411 -185,647 -11,42 -25,86 -43,131 -17,46 -29,83 -34,113 -2,10 -3,44 -3,104 -4,25 -15,36 -33,33 -18,-2 -37,-11 -55,-26 -26,-22 -56,-57 -91,-104 -39,-57 -83,-176 -132,-359l0 -4 0 -4c-101,-279 -194,-572 -278,-879 -85,-307 -148,-569 -190,-786 -13,-57 -27,-126 -41,-207 -15,-81 -25,-135 -30,-161 -6,-26 -13,-56 -23,-89 -10,-33 -23,-64 -37,-91 -11,-20 -32,-55 -62,-105 -30,-51 -51,-89 -63,-115 -12,-26 -14,-41 -7,-46 46,-17 109,-25 189,-24 80,1 148,7 205,17 31,5 54,10 69,17 15,6 35,20 61,43 9,7 17,24 23,50 6,26 12,44 18,54 2,5 8,13 19,24 11,11 20,27 28,48 7,21 13,51 17,91 6,67 27,184 63,351 17,76 30,130 40,161 10,31 17,57 21,80 15,74 46,178 95,313 49,134 81,245 98,331 15,74 36,158 63,252 28,94 53,162 77,203 4,7 6,14 8,18 13,-37 26,-76 40,-117 14,-41 26,-78 36,-111 10,-33 22,-74 34,-122 13,-48 23,-85 30,-111 7,-26 17,-67 30,-122 13,-55 21,-92 25,-111 4,-19 12,-58 26,-118 14,-60 23,-97 26,-109 79,-353 122,-566 130,-640 4,-22 7,-44 10,-65 3,-21 6,-44 10,-68 4,-25 6,-47 8,-67 6,-37 15,-79 28,-126 13,-47 27,-72 41,-74 11,-2 25,6 43,26 17,20 32,39 43,59l17 30 63 107c22,39 45,83 69,129 29,52 50,115 62,189 12,74 21,118 26,133 18,52 35,105 51,159 16,54 29,95 40,122 35,91 53,138 55,141 20,76 34,134 43,174 8,39 14,75 17,107 3,32 6,55 10,70 9,52 20,96 33,133 13,37 26,68 40,92 14,25 23,43 26,55l17 52 3 0c83,-89 189,-375 320,-858 24,-91 48,-188 73,-290 25,-102 41,-168 48,-198 11,-44 27,-110 48,-198 21,-88 38,-157 51,-209 13,-52 23,-84 30,-96 6,-10 13,-17 22,-22 9,-5 21,-7 34,-7 14,0 27,1 39,2 12,1 28,2 47,4 19,1 35,3 48,6 50,5 74,17 74,37 -13,22 -33,51 -61,85 -28,35 -43,55 -47,63 -46,74 -88,165 -127,274 -6,12 -11,47 -17,104 -6,57 -12,99 -19,126 -7,37 -23,102 -47,194 -24,92 -37,150 -39,172 -4,35 -12,86 -26,154 -14,68 -23,114 -26,139 -15,101 -36,207 -63,318 -68,274 -148,495 -240,662 -110,207 -186,367 -229,481 -4,7 -6,14 -8,19 -17,54 -34,90 -52,107 -9,7 -18,0 -26,-22 -8,-22 -16,-55 -23,-100 -18,-113 -41,-234 -69,-363 -26,-131 -52,-233 -80,-307 -13,-37 -31,-104 -55,-202 -24,-97 -41,-162 -52,-194 -26,-64 -62,-143 -107,-237 -53,-106 -97,-200 -132,-281 -2,5 -4,10 -6,15z"/>
  <path fill="black" fill-rule="nonzero" d="M11285 14826c-22,20 -58,46 -109,80 -51,33 -79,52 -87,57 -83,76 -163,173 -240,289 -9,12 -22,51 -39,117 -17,65 -32,114 -47,146 -17,39 -39,90 -69,152 -29,62 -55,115 -76,159 -21,44 -35,76 -43,96 -2,12 -5,25 -8,37 68,104 120,199 157,285 35,76 79,162 132,255 53,94 98,159 135,196 33,35 86,132 160,292 73,160 116,265 127,314 7,30 15,60 22,92 7,32 14,59 19,80 6,21 11,42 17,63 6,21 10,38 14,52 4,14 6,27 8,41 2,14 2,25 1,33 -1,9 -2,17 -4,24 -2,7 -5,14 -10,18 -5,5 -11,9 -18,11 -18,7 -37,13 -56,17 -19,4 -49,8 -90,13 -40,5 -77,10 -110,15 -22,2 -45,-2 -68,-13 -23,-11 -47,-31 -73,-61 -26,-30 -46,-56 -62,-78 -16,-22 -39,-58 -70,-107 -31,-49 -52,-83 -63,-100 -149,-222 -299,-467 -449,-736 -136,279 -284,498 -444,659 -208,212 -352,379 -433,499 -35,52 -55,31 -61,-63 -9,-148 16,-329 74,-544 70,-257 160,-414 270,-474 101,-57 228,-213 380,-470 -105,-200 -192,-379 -262,-536 -26,-59 -57,-131 -94,-216 -37,-85 -61,-141 -73,-168 -12,-27 -28,-57 -48,-91 -20,-33 -40,-61 -61,-83 -18,-20 -51,-51 -96,-92 -46,-42 -78,-75 -96,-98 -18,-23 -24,-40 -17,-50 22,-32 81,-70 176,-113 96,-43 175,-73 237,-91 33,-10 59,-15 77,-15 18,0 44,6 77,19 11,2 23,17 37,44 14,27 24,44 32,52 4,7 12,15 26,22 14,7 28,21 41,41 14,20 28,51 43,92 22,74 74,197 157,370 37,79 64,134 83,165 18,31 32,57 41,80 11,25 23,49 36,74 29,-59 63,-130 102,-213 39,-83 68,-145 88,-187 24,-49 58,-123 103,-222 45,-99 82,-176 110,-233 28,-57 49,-91 62,-104 9,-7 22,-13 37,-17 16,-4 34,-4 56,0 22,4 43,8 62,13 19,5 45,12 77,20 32,9 58,15 79,20 75,17 115,37 118,59 2,2 1,6 -3,11z"/>
  <path fill="black" fill-rule="nonzero" d="M14112 14883c-22,27 -62,50 -118,68 -57,19 -89,31 -96,39 -33,39 -60,79 -80,118 -20,39 -38,81 -54,124 -16,43 -29,77 -40,102 -33,62 -68,155 -105,281 -11,42 -28,97 -52,165 -24,68 -44,126 -59,174 -16,48 -25,83 -29,105 -4,39 -16,100 -37,181 -21,81 -34,138 -40,170 -26,148 -57,279 -94,392 -103,313 -243,583 -422,810 -208,269 -348,474 -422,614 -31,62 -61,46 -88,-48 -40,-138 -49,-311 -25,-518 31,-261 107,-440 229,-536 110,-86 230,-270 358,-551 -31,-89 -64,-178 -98,-268 -34,-90 -56,-150 -66,-181 -10,-31 -22,-76 -36,-135 -14,-59 -30,-138 -48,-237 -11,-64 -24,-141 -39,-229 -15,-89 -25,-147 -30,-176 -6,-28 -13,-61 -23,-98 -10,-37 -23,-69 -37,-96 -13,-25 -35,-64 -66,-118 -31,-54 -53,-95 -65,-122 -12,-27 -13,-44 -4,-52 28,-20 93,-31 196,-33 103,-2 175,0 215,7 33,5 57,10 72,17 15,6 36,20 63,43 9,7 17,26 23,56 6,30 11,49 15,59 4,5 11,14 22,26 11,12 20,30 28,52 7,22 13,55 17,100 6,74 27,203 63,388 20,99 40,185 61,259 4,15 6,28 8,41 20,-57 45,-129 73,-216 28,-88 50,-154 65,-198 9,-25 26,-72 50,-141 24,-69 41,-119 52,-150 11,-31 25,-69 43,-115 17,-46 32,-81 43,-105 11,-25 20,-42 28,-52 17,-17 42,-29 76,-35 34,-6 85,-10 153,-13 68,-2 120,-5 157,-7 75,-7 130,1 163,26 7,5 8,10 3,15z"/>
  <path fill="black" fill-rule="nonzero" d="M16400 15349c-22,-42 -53,-73 -94,-92 -40,-20 -85,-30 -132,-31 -48,-1 -102,5 -161,19 -60,14 -115,30 -167,50 -51,20 -107,43 -167,70 -60,27 -107,51 -143,70 -36,20 -73,40 -112,61 -39,21 -59,31 -61,31 -29,15 -74,72 -135,172 -61,100 -107,156 -138,168 -18,10 -43,-12 -73,-67 -30,-54 -58,-115 -84,-181 -26,-67 -40,-101 -41,-104 -33,-49 8,-125 124,-226 6,-2 9,-5 11,-7 62,-54 131,-101 207,-141 94,-52 198,-100 314,-144 165,-62 299,-99 400,-111 61,-10 135,-14 225,-11 89,2 136,4 142,4 6,0 31,-14 76,-43 45,-28 73,-41 84,-39 64,15 142,62 234,141 92,79 141,134 149,166 11,25 16,47 15,68 -1,21 -12,73 -34,157 -4,15 -14,35 -30,61 -17,26 -28,47 -33,65 -13,42 -90,150 -231,324 -141,174 -322,393 -541,659 -220,265 -395,485 -525,660 -46,62 -72,118 -77,168 -6,51 3,91 25,122 22,31 51,57 87,78 36,21 68,36 98,44 29,9 53,14 72,17 24,0 56,-3 96,-9 40,-6 77,-13 109,-20 32,-7 73,-17 123,-30 50,-12 82,-21 96,-26 42,-10 119,-70 229,-181 110,-111 171,-169 182,-174 15,-5 27,0 36,15 9,15 14,37 15,67 1,30 0,59 -1,89 -2,30 -4,58 -6,85 -2,27 -3,43 -3,48 6,67 6,118 1,155 -5,37 -12,59 -23,67 -11,7 -23,11 -37,11 -14,0 -28,-3 -43,-9 -15,-6 -28,-4 -39,6 -28,20 -101,58 -220,115 -40,17 -80,31 -119,43 -39,11 -80,20 -125,28 -45,7 -69,12 -73,15 -68,12 -204,20 -408,22 -175,0 -299,-12 -372,-37l-22 -7c-13,-5 -21,-8 -25,-9 -4,-1 -12,-5 -26,-11 -14,-6 -23,-12 -28,-17 -5,-5 -12,-12 -22,-22 -10,-10 -18,-20 -23,-31 -6,-11 -11,-23 -17,-37 -6,-14 -10,-30 -12,-48 -3,-19 -5,-39 -7,-61 -2,-67 0,-123 4,-170 5,-47 15,-88 32,-124 17,-36 32,-64 45,-83 14,-20 36,-48 66,-85 30,-37 56,-68 76,-92 4,-7 20,-32 50,-74 29,-42 51,-72 63,-89 13,-17 35,-47 66,-91 31,-43 57,-76 76,-100 19,-23 44,-54 74,-92 30,-38 57,-70 80,-94 23,-25 48,-50 76,-76 28,-26 53,-49 77,-68 114,-86 229,-189 346,-309 117,-120 213,-244 289,-374 76,-129 97,-226 62,-290z"/>
 </g>
</svg>
