<?xml version="1.0" encoding="UTF-8"?>
<!DOCTYPE svg PUBLIC "-//W3C//DTD SVG 1.1//EN" "http://www.w3.org/Graphics/SVG/1.1/DTD/svg11.dtd">
<!-- Creator: CorelDRAW 2017 -->
<svg xmlns="http://www.w3.org/2000/svg" xml:space="preserve" width="210mm" height="297mm" version="1.1" shape-rendering="geometricPrecision" text-rendering="geometricPrecision" image-rendering="optimizeQuality" fill-rule="evenodd" clip-rule="evenodd"
viewBox="0 0 21000 29700"
 xmlns:xlink="http://www.w3.org/1999/xlink">
 <g id="Layer_x0020_1">
  <metadata id="CorelCorpID_0Corel-Layer"/>
  <path fill="black" fill-rule="nonzero" d="M3250 4071c-8,-87 -24,-175 -49,-263 -25,-88 -40,-180 -45,-275 -5,-45 -22,-137 -50,-276 -27,-139 -41,-240 -41,-303 -16,7 -32,62 -51,166 -18,104 -31,172 -40,203 -12,42 -24,97 -34,164 -11,67 -19,109 -25,125 -5,18 -10,34 -17,48 -7,14 -11,26 -13,37 -8,24 -17,57 -24,97 -8,41 -13,71 -16,92 -7,36 6,51 42,43 36,-7 69,-7 101,-1 80,24 129,42 146,53 17,11 56,41 115,90zm-957 -148c-5,36 -7,57 -7,63 0,49 11,74 34,74 24,0 74,-15 150,-45 76,-29 126,-49 150,-59 21,-8 41,-62 61,-161 20,-99 33,-167 41,-203 15,-73 42,-210 79,-410 38,-199 57,-338 57,-415 0,-22 -7,-56 -22,-101 -14,-45 -24,-76 -29,-90 -18,-35 -42,-49 -70,-41 -29,7 -51,-5 -68,-38 -5,-14 3,-21 25,-21 54,0 111,15 168,45 57,30 120,45 188,45 27,0 56,3 87,8 31,5 66,8 105,8 21,0 54,3 99,7 45,5 75,12 90,20 7,6 9,13 3,20 -5,7 -12,11 -19,11 -11,0 -22,0 -33,0 -11,0 -22,0 -30,0 -20,0 -37,11 -52,34 -14,24 -22,42 -22,56 16,102 31,203 47,305 16,101 35,200 58,295 6,35 17,103 34,203 17,100 30,191 41,272 8,63 17,120 27,171 11,51 24,106 40,165 15,85 31,177 47,278 16,100 28,174 35,224 8,53 18,109 31,171 13,61 31,107 55,140 15,21 46,52 92,95 46,42 83,64 112,64 13,0 33,-7 59,-18 26,-13 51,-15 75,-9 5,7 5,27 0,59 -5,32 -16,43 -31,36 -63,0 -125,-9 -184,-26 -60,-18 -124,-32 -192,-41 -81,-8 -132,-9 -153,-3 -21,6 -64,15 -130,28 -10,3 -20,7 -27,9 -8,2 -16,3 -23,3 -6,4 -21,14 -44,29 -24,16 -35,15 -35,-2 5,-32 26,-55 63,-69 37,-14 68,-26 94,-37 21,-4 31,-16 31,-37 0,-53 -5,-105 -16,-158 -10,-53 -20,-100 -27,-143 -8,-45 -15,-93 -22,-146 -7,-53 -14,-103 -22,-153 -16,-74 -24,-119 -26,-135 -1,-15 -22,-49 -61,-102 -18,-22 -49,-43 -92,-62 -43,-19 -80,-29 -112,-29 -50,0 -80,0 -92,0 -11,0 -41,5 -89,16 -26,11 -45,31 -58,58 -39,105 -69,200 -88,284 -20,84 -49,179 -88,284 -16,42 -41,101 -76,177 -34,76 -61,128 -82,155 -23,32 -59,74 -109,127 -50,53 -94,79 -133,79l-63 0c-55,0 -113,-19 -176,-58 -63,-38 -94,-94 -94,-168 0,-50 16,-92 48,-125 31,-34 66,-50 102,-50 15,0 30,13 45,40 14,26 24,45 30,57 -16,0 -30,-3 -40,-11 -10,-7 -24,-11 -39,-11 -63,0 -95,37 -95,110 0,43 17,65 51,68 34,3 59,5 75,5 65,0 124,-36 176,-110 52,-73 98,-163 137,-268 39,-105 75,-213 106,-322 31,-109 59,-199 82,-268 -41,3 -73,7 -96,14 -23,7 -54,3 -96,-11 -24,-7 -48,-23 -73,-49 -25,-26 -37,-61 -37,-103 0,-28 12,-65 36,-110 5,0 7,3 7,10z"/>
  <path fill="black" fill-rule="nonzero" d="M5601 4428c-18,85 -37,174 -57,269 -20,94 -33,186 -41,275 11,0 26,-6 46,-18 20,-12 36,-22 48,-30 42,-18 74,-34 95,-47 57,-53 89,-79 94,-79 5,0 40,-44 103,-133 28,-35 50,-72 64,-113 15,-41 31,-84 49,-128 2,-12 9,-32 21,-62 12,-30 18,-51 18,-65 0,-21 0,-46 -2,-76 -1,-30 -6,-53 -14,-66 -29,-45 -46,-76 -51,-95 -24,-63 -61,-109 -112,-139 -51,-30 -92,-44 -124,-44 -68,0 -104,6 -108,18 -4,12 -5,45 -5,97 0,42 -1,81 -4,115 -3,35 -4,72 -4,110 0,53 -1,92 -2,116 -1,24 -6,56 -14,95zm11 -1759c-15,12 -23,41 -23,91 0,49 4,87 12,115 5,35 8,72 8,110 0,43 2,81 6,114 4,34 6,72 6,114 0,63 -5,136 -16,220 -3,18 -5,63 -7,135 -1,72 5,108 18,108 24,0 46,-3 65,-11 20,-7 41,-11 64,-11 18,0 37,-12 56,-35 20,-23 38,-43 54,-60 55,-53 92,-101 111,-144 20,-44 53,-98 100,-162 24,-31 40,-82 50,-151 9,-70 8,-128 -2,-174 -14,-49 -27,-101 -42,-155 -15,-55 -45,-88 -92,-97 -71,-31 -132,-49 -184,-52 -52,-4 -114,11 -185,46zm-631 -73c0,-39 6,-58 19,-58 16,0 27,6 32,18 5,12 16,23 31,34 21,18 55,24 102,19 47,-5 82,-10 106,-13 31,-4 65,-14 100,-29 35,-16 70,-28 104,-39 26,-8 52,-18 79,-30 27,-13 57,-22 89,-28 42,-8 86,-11 132,-9 46,2 91,3 135,3 44,0 82,10 113,29 31,20 69,40 111,60 20,11 37,24 50,43 13,18 28,37 43,57 26,35 52,79 79,132 39,81 59,146 59,195 0,28 -4,48 -14,61 -9,12 -16,29 -22,51 -5,28 -12,56 -23,84 -18,41 -35,79 -51,112 -16,34 -34,67 -55,99 -26,41 -52,84 -80,130 -27,45 -54,86 -80,122 -5,6 -16,21 -33,44 -17,23 -26,35 -26,35 0,14 15,35 45,63 30,28 49,47 57,59 21,31 58,68 111,110 28,31 60,73 93,126 6,14 23,39 50,74 27,36 41,59 41,68 0,47 -15,80 -43,101 -24,20 -45,44 -63,70 -18,26 -39,50 -63,72 -33,31 -62,69 -85,115 -24,45 -52,84 -87,117 -18,20 -29,34 -33,40 -4,6 -12,17 -26,34 -10,14 -22,28 -33,40 -12,12 -21,23 -29,34 -24,32 -47,56 -69,72 -22,16 -45,34 -69,55 -15,14 -42,30 -80,47 -38,17 -66,31 -85,41 -41,28 -67,44 -77,48 -31,14 -62,26 -91,37 -28,11 -56,24 -82,42 -24,11 -51,24 -81,40 -30,16 -56,26 -77,28 -28,4 -56,11 -82,21 -26,11 -53,16 -82,16 -27,0 -51,1 -73,5 -22,4 -46,6 -72,6 -5,0 -20,-8 -44,-24 -24,-16 -39,-25 -47,-28 -8,-12 -22,-24 -43,-36 -21,-13 -32,-24 -32,-34l0 -9c0,-11 7,-16 22,-18 15,-2 26,-3 33,-3 21,0 36,11 45,34 9,22 26,32 50,30 39,0 82,-3 129,-9 47,-6 90,-21 129,-45 3,0 15,-9 35,-26 21,-18 35,-26 44,-26 7,-4 20,-11 36,-21 17,-11 28,-22 34,-37 2,-18 4,-39 7,-63 3,-25 5,-47 8,-68 0,-24 0,-49 0,-74 0,-25 2,-49 7,-74 16,-97 25,-189 25,-273 0,-21 1,-43 3,-66 2,-23 3,-50 3,-81 0,-71 3,-142 10,-214 7,-72 10,-145 10,-218 0,-25 0,-47 1,-68 1,-22 1,-48 1,-80 0,-77 -2,-154 -8,-232 -5,-77 -8,-156 -8,-237 0,-28 3,-50 10,-66 6,-15 10,-37 10,-65 0,-32 -1,-56 -3,-72 -2,-15 -4,-37 -4,-65 -2,-20 -6,-43 -10,-68 -4,-25 -6,-48 -6,-68 -3,-20 -3,-44 0,-70 2,-26 3,-52 3,-76 -8,-11 -22,-13 -42,-4 -21,9 -38,14 -51,14 -45,-4 -85,-12 -120,-24 -35,-12 -72,-34 -111,-65 -29,-28 -43,-51 -43,-69z"/>
  <path fill="black" fill-rule="nonzero" d="M8168 3093c24,0 26,13 4,40 -21,26 -39,55 -54,86 -9,18 -10,53 -4,106 3,24 19,43 48,58 12,10 27,14 46,11 19,-3 38,-7 59,-11 18,0 31,-8 39,-24 8,-16 19,-29 31,-40 11,-7 25,-29 44,-67 19,-39 30,-63 35,-74 0,-14 -5,-51 -16,-112 -10,-34 -26,-67 -47,-96 -21,-30 -38,-55 -51,-77 -32,-43 -74,-72 -127,-89 -29,-4 -62,3 -102,20 -39,17 -80,37 -126,59 -44,20 -81,45 -111,75 -30,30 -61,66 -93,108 -31,43 -70,130 -114,261 -45,132 -73,225 -85,277 -16,55 -23,149 -20,280 3,132 8,233 16,304 6,74 22,161 48,263 26,103 51,180 75,232 23,55 71,116 144,180 74,65 133,110 178,134 39,26 76,36 108,30 32,-6 75,-9 128,-9 49,0 98,-14 146,-41 49,-28 92,-57 131,-90 39,-32 66,-81 80,-145 15,-65 28,-124 42,-176 16,-80 10,-144 -16,-191 -26,-48 -19,-76 20,-83 18,-3 29,8 33,32 4,24 14,58 29,101 19,66 29,128 29,183 0,28 3,60 9,95 6,36 9,67 9,95 3,98 -37,152 -118,162 -39,8 -86,43 -141,106 -54,63 -137,116 -247,159 -42,14 -80,17 -115,11 -35,-7 -63,-11 -84,-11 -21,0 -65,-16 -131,-47 -67,-32 -122,-63 -167,-95 -44,-31 -98,-88 -162,-171 -64,-83 -96,-124 -96,-124 0,0 -34,-63 -102,-189 -68,-126 -110,-205 -125,-237 -24,-53 -33,-150 -28,-292 5,-142 18,-299 39,-471 21,-189 44,-305 68,-347 25,-43 49,-90 73,-143 24,-53 67,-103 130,-151 63,-47 100,-71 110,-71 13,0 47,-20 103,-60 57,-40 117,-82 181,-128 64,-45 125,-84 184,-117 58,-32 98,-41 119,-27 18,14 43,47 75,100 31,53 55,95 71,128 102,211 149,340 140,389 -9,49 -51,124 -124,226 -11,18 -33,37 -67,56 -34,19 -56,31 -67,35 -23,7 -58,5 -105,-6 -16,0 -30,-14 -43,-42 -6,-7 -15,-22 -28,-47 -13,-25 -19,-46 -19,-63 -8,-47 -6,-87 4,-122 2,-14 17,-37 45,-68 27,-32 49,-47 64,-47z"/>
  <path fill="black" fill-rule="nonzero" d="M10097 2772l0 579c0,22 1,40 3,54 2,14 4,26 4,36 0,21 0,40 -1,58 -1,18 -1,32 -1,43 0,91 -1,158 -4,200 -3,21 -5,51 -8,92 -2,40 -6,68 -12,86 -3,14 -7,43 -14,88 -6,45 -9,73 -9,86 0,18 0,51 -2,98 -1,47 -2,78 -2,93 -4,30 -6,64 -5,99 1,35 1,68 1,101 -2,31 -2,65 -1,101 1,37 0,68 -1,93 -9,49 -8,81 1,97 9,15 24,30 44,44 48,-14 98,-39 151,-73 52,-35 96,-70 133,-106 13,-13 29,-34 47,-62 18,-28 35,-53 51,-75 16,-17 35,-40 55,-68 21,-28 36,-53 47,-73 6,-11 14,-24 25,-40 10,-16 18,-30 23,-40 3,-11 6,-26 10,-47 4,-21 8,-41 13,-59 9,-34 16,-72 21,-113 5,-40 12,-78 19,-113 2,-14 4,-32 7,-53 3,-21 7,-42 11,-63 3,-24 10,-62 20,-112 3,-31 10,-68 20,-113 11,-45 16,-84 16,-119l0 -25c0,-28 -13,-66 -40,-113 -26,-48 -39,-86 -39,-114 -8,-53 -15,-99 -22,-137 -7,-39 -19,-80 -38,-122 -13,-20 -23,-34 -28,-41 -5,-7 -15,-21 -31,-41 -26,-42 -45,-72 -59,-91 -10,-10 -20,-22 -29,-36 -9,-14 -21,-26 -37,-37 -10,-4 -27,-11 -50,-21 -23,-11 -39,-16 -50,-16l-39 0c-15,0 -33,4 -54,11 -21,7 -39,11 -54,11 -21,6 -37,13 -48,21 -8,7 -16,13 -24,20 -8,7 -15,11 -20,11zm-643 -269c-8,-18 -4,-26 10,-26 14,0 26,1 33,5 8,7 25,26 52,58 26,24 58,37 98,37 33,0 68,8 103,24 35,16 73,24 112,24 39,0 78,-7 118,-21 39,-14 78,-26 118,-37 26,-8 58,-22 98,-43 39,-21 74,-35 102,-41 16,0 34,-3 53,-11 19,-7 38,-11 57,-11 15,0 31,7 47,21 16,14 29,26 40,37 10,11 21,24 33,40 11,16 24,29 37,40 39,39 77,76 114,111 36,35 76,68 118,99 31,28 57,53 77,74 20,21 37,55 52,99 10,42 22,80 35,114 13,34 26,76 40,129 7,20 20,67 37,137 17,71 26,117 26,137 0,43 -3,85 -8,126 -5,42 -11,84 -17,126 -3,24 -11,56 -24,95 -13,38 -24,66 -31,84 -24,53 -49,106 -75,159 -25,53 -51,105 -75,158 -12,28 -25,55 -39,79 -14,24 -25,49 -36,73 -20,57 -48,105 -83,145 -36,40 -69,79 -101,118 -19,22 -35,44 -51,67 -16,22 -31,43 -47,61 -39,43 -77,81 -112,116 -35,35 -73,67 -112,95 -52,32 -100,53 -141,63 -24,11 -54,16 -90,16 -37,0 -67,2 -91,5 -26,7 -54,12 -84,16 -30,4 -58,8 -84,11 -113,25 -209,63 -290,116 -16,7 -40,19 -71,39 -31,19 -54,29 -71,29 -15,0 -23,-5 -23,-16 0,-10 9,-20 27,-29 18,-9 31,-15 39,-19 19,-14 32,-25 38,-32 6,-7 15,-16 25,-26 18,-14 39,-34 61,-58 23,-24 45,-41 68,-52 42,-24 92,-54 150,-89 18,-11 27,-22 27,-32 0,-11 4,-32 12,-64 13,-63 23,-124 28,-184 5,-60 10,-124 15,-194 0,-43 3,-87 10,-132 7,-45 10,-90 10,-132 0,-91 5,-180 16,-266 10,-86 16,-176 16,-270 0,-53 0,-105 -2,-158 -1,-53 -2,-106 -2,-159 0,-28 -3,-59 -10,-92 -7,-34 -9,-65 -6,-93l9 -83c0,-32 -7,-67 -20,-106 -14,-39 -23,-77 -27,-116 -6,-18 -9,-39 -10,-63 -1,-24 -2,-44 -5,-58 -8,-28 -31,-43 -71,-45 -39,-1 -68,-13 -86,-34 -18,-14 -39,-34 -63,-58 -15,-11 -34,-29 -56,-55 -23,-26 -38,-51 -45,-76z"/>
  <path fill="black" fill-rule="nonzero" d="M12310 4916c39,0 76,-17 108,-52 32,-35 69,-52 108,-52l36 0c15,0 40,6 74,18 34,12 58,24 71,34 30,24 54,36 70,34 16,-2 42,3 78,14 34,11 59,19 75,26 16,7 40,18 71,32 44,24 75,40 91,47 17,7 48,11 93,11 32,0 65,-22 99,-68 34,-45 51,-90 51,-132 0,-39 -5,-80 -14,-122 -10,-42 -1,-64 26,-64 10,0 23,28 37,85 14,57 22,93 22,110 0,46 -15,86 -43,117 -29,32 -51,70 -68,115 -10,32 -27,74 -51,124 -24,51 -48,76 -74,76 -78,0 -153,-9 -222,-26 -70,-18 -135,-40 -198,-68 -71,-20 -134,-45 -189,-73 -55,-28 -128,-43 -216,-43 -68,0 -119,5 -153,16 -34,10 -77,21 -129,32 -21,7 -41,15 -59,25 -18,11 -36,20 -54,27 -45,11 -68,16 -68,16 -10,4 -28,13 -53,29 -25,15 -40,3 -45,-39 0,-42 6,-65 20,-66 13,-2 38,-3 75,-3 34,0 62,-16 86,-47 23,-32 38,-66 45,-101 7,-36 11,-83 14,-142 8,-211 12,-419 12,-627 0,-38 -3,-92 -10,-161 -6,-68 -10,-124 -10,-165 -3,-18 -2,-45 3,-80 5,-35 9,-63 12,-84 0,-42 -2,-89 -8,-140 -5,-51 -8,-97 -8,-140 0,-63 -1,-147 -2,-253 -1,-105 -8,-186 -21,-241 -16,-53 -34,-78 -54,-77 -20,1 -37,-14 -52,-44 -13,-25 0,-37 39,-37 42,0 64,7 65,21 1,14 62,9 182,-17 37,-7 90,-10 158,-10 47,0 97,-7 149,-21 52,-14 100,-24 144,-31 48,-8 99,-13 152,-16 53,-3 103,-10 152,-20 52,-11 94,-30 125,-54 24,-14 41,-37 50,-68 9,-31 20,-49 32,-53 24,0 37,11 40,33 2,38 -10,68 -36,88 -36,32 -68,76 -94,130 -26,54 -51,102 -74,144 -39,78 -98,113 -175,108 -77,-5 -159,-7 -246,-7 -23,0 -43,3 -60,11 -18,7 -34,13 -49,16 -15,6 -35,7 -60,2 -25,-5 -47,-8 -65,-8 -31,0 -49,5 -51,15 -3,11 -5,32 -7,64 -16,136 -17,292 -1,466 16,174 17,294 4,361 74,0 137,-36 191,-108 54,-72 119,-108 194,-108l27 0c47,0 75,26 82,79 8,53 23,99 44,141 10,32 21,78 35,138 13,60 21,115 23,163 0,8 -4,11 -12,11 -39,-11 -55,-52 -49,-122 6,-70 -20,-105 -80,-105 -29,0 -110,30 -243,90 -133,60 -200,97 -200,111l0 296c0,49 6,87 17,115 12,28 18,53 18,74 0,42 -3,79 -8,111 -5,32 -8,68 -8,111 0,6 7,9 20,9z"/>
  <path fill="black" fill-rule="nonzero" d="M15175 2717c62,0 113,-7 153,-22 63,-14 113,-21 149,-21 47,0 77,-7 91,-21 8,-11 15,-22 23,-34 8,-13 18,-24 31,-34 18,-18 38,-43 59,-75 5,-10 12,-24 22,-41 10,-17 21,-26 33,-26 5,0 8,8 8,25 0,11 -7,39 -22,83 -14,43 -23,70 -26,81 -6,14 -11,28 -15,42 -3,14 -6,26 -8,37 -9,32 -15,63 -19,92 -4,30 -8,61 -13,93 -7,24 -19,68 -35,131 -16,63 -32,95 -49,95 -20,0 -30,-14 -30,-43 2,-16 3,-43 3,-79 -5,-28 -18,-49 -39,-63 -21,-13 -39,-26 -55,-38 -10,-3 -32,-13 -65,-31 -32,-18 -49,-27 -49,-27 -32,0 -63,7 -95,21 -32,14 -63,21 -95,21 -30,0 -46,18 -46,53 0,84 3,162 9,232 6,70 4,149 -6,236 -2,11 -3,37 -5,77 -1,40 -2,65 -2,77 0,28 1,60 3,94 2,35 10,57 24,68 35,0 62,-6 83,-18 21,-12 47,-25 78,-40 40,-14 80,-23 122,-26 42,-3 83,-5 126,-5 29,0 51,9 65,26 14,17 34,31 60,41 16,11 37,21 63,30 26,9 39,31 39,67 0,11 -3,24 -9,41 -6,18 -9,34 -9,47 -7,42 -14,72 -20,89 -3,11 -14,35 -34,69 -21,43 -35,64 -43,64 -11,0 -17,-16 -18,-47 -1,-32 -3,-54 -6,-68 -5,-14 -23,-40 -54,-79 -47,-14 -82,-26 -106,-37 -12,-3 -28,-12 -48,-24 -20,-13 -36,-18 -50,-18 -35,0 -59,1 -75,4 -24,7 -48,16 -71,27 -23,10 -47,19 -70,27 -16,28 -25,49 -26,61 -1,13 -1,38 -1,76 -6,31 -7,61 -4,89 3,28 4,58 4,90 0,21 -3,41 -8,63 -5,21 -7,41 -5,63 0,28 1,55 4,82 3,26 4,50 4,70 -6,57 -11,113 -17,167 -5,55 -9,108 -11,161l0 25c0,43 3,72 8,90 5,17 14,37 27,59 24,41 38,59 44,52 5,-7 24,-3 55,10 20,14 40,21 59,21 30,8 50,14 59,21 5,8 10,16 17,27 7,11 14,16 22,16 26,24 39,38 39,42 0,18 -11,27 -34,27 -32,-4 -59,-12 -83,-24 -24,-12 -54,-16 -91,-13 0,0 -13,2 -39,5 -26,3 -42,5 -47,5 -37,7 -64,10 -82,10 -78,0 -134,9 -168,27 -11,7 -22,16 -34,24 -12,9 -22,14 -29,18 -21,18 -32,27 -34,27 -1,0 -14,0 -37,0 -10,0 -24,3 -39,11 -16,7 -27,11 -35,11 0,0 -16,0 -48,0 -21,7 -34,10 -39,10 -21,0 -31,-11 -31,-31 0,-22 20,-33 59,-33 10,0 31,-5 63,-15 30,-14 47,-23 50,-26 3,-3 16,-20 39,-53 9,-11 23,-30 43,-58 20,-28 30,-55 32,-79 3,-20 7,-49 12,-84 5,-35 8,-67 8,-95 0,-20 2,-49 5,-86 4,-37 9,-69 15,-97 0,-22 2,-51 7,-88 5,-37 9,-67 12,-92 0,-42 -1,-74 -2,-97 -1,-23 2,-53 11,-92 5,-28 10,-55 15,-80 5,-25 11,-55 17,-90 9,-102 5,-226 -13,-375 -4,-31 -8,-61 -9,-92 -1,-30 -4,-61 -9,-92 -2,-22 -9,-47 -18,-74 -9,-28 -15,-54 -18,-80 -15,-52 -26,-106 -33,-163 -7,-56 -14,-114 -22,-173 -3,-11 -12,-32 -26,-66 -14,-34 -24,-56 -28,-67 -35,-41 -68,-61 -99,-57 -31,3 -66,9 -106,16 -45,16 -73,29 -83,37 -34,24 -56,41 -66,52 -32,32 -55,48 -71,48 -3,0 -4,-6 -4,-17 0,-41 7,-69 20,-83 13,-14 30,-32 51,-54 24,-21 39,-38 45,-52 6,-14 26,-32 57,-52 26,-18 60,-32 102,-43 42,-11 79,-20 111,-31 12,0 25,2 40,5 14,3 26,5 37,5 34,0 67,-1 99,-3 31,-1 66,-3 105,-3 31,4 63,7 95,9 32,2 66,3 102,3z"/>
  <path fill="black" fill-rule="nonzero" d="M17239 3995c-5,144 7,263 36,357 12,57 29,103 50,140 21,36 43,76 66,119 24,53 39,98 44,137 5,38 29,79 71,121 47,53 88,88 124,105 36,17 84,26 147,26 35,3 77,-5 128,-26 51,-21 94,-42 131,-63 8,-4 22,-12 40,-24 18,-12 31,-18 39,-18 3,-42 7,-86 12,-132 5,-46 9,-90 11,-132 0,-53 -1,-112 -4,-178 -2,-67 -6,-122 -12,-169 -7,-35 -15,-56 -23,-64 -50,-35 -107,-55 -173,-62 -31,0 -66,14 -102,41 -13,11 -27,24 -42,38 -14,13 -29,20 -45,20 -31,0 -48,-14 -48,-41 0,-18 15,-43 43,-74 29,-32 51,-51 66,-59 9,0 18,-3 29,-8 10,-5 20,-9 27,-13 21,-14 52,-33 94,-55 42,-22 79,-34 113,-34l142 15c39,0 75,-5 105,-15 16,0 33,-3 50,-11 17,-7 33,-11 50,-11 13,0 30,-1 52,-3 23,-2 38,-8 46,-18 7,-7 18,-19 31,-37 13,-18 26,-27 39,-27 18,0 27,19 27,58 0,32 -11,65 -33,98 -22,34 -40,55 -53,66 -12,14 -26,21 -39,21 -13,0 -26,3 -39,10 -14,7 -26,16 -40,27 -13,10 -24,15 -32,15 0,32 0,64 0,95 0,32 0,61 0,90 0,43 -1,120 -3,234 -2,114 8,180 32,198 23,16 34,32 34,46 -3,22 -29,53 -80,95 -51,41 -84,72 -99,90 -9,11 -21,18 -36,23 -15,5 -27,12 -36,20 -26,14 -50,30 -72,47 -22,18 -44,34 -65,47 -24,20 -46,39 -65,55 -20,16 -49,24 -88,24 -41,0 -82,-3 -123,-11 -41,-7 -80,-16 -120,-26 -39,-11 -73,-18 -100,-22 -27,-3 -55,-18 -84,-42 -53,-42 -98,-86 -136,-132 -38,-45 -78,-95 -120,-147 -62,-63 -120,-138 -172,-226 -16,-24 -26,-49 -33,-73 -6,-24 -14,-51 -22,-79 -13,-28 -25,-55 -34,-79 -9,-24 -13,-55 -13,-91 0,-49 3,-97 10,-145 7,-47 10,-95 10,-144 1,-39 0,-97 -4,-174 -6,-32 -10,-64 -12,-95 -2,-32 -2,-66 0,-105 0,-38 7,-82 22,-129 15,-47 27,-85 37,-112 31,-74 63,-140 98,-195 18,-28 35,-57 51,-88 16,-30 33,-61 51,-92 10,-22 30,-49 59,-83 28,-34 53,-55 75,-66 23,-10 49,-28 77,-52 29,-24 55,-40 79,-48 42,-7 74,-17 95,-31 30,-20 66,-38 105,-52 39,-14 77,-28 113,-43 27,-10 57,-22 91,-36 16,-4 33,-6 51,-6 18,0 36,-3 54,-10 21,-7 39,-11 52,-11 26,4 45,17 58,40 13,22 31,38 55,45 29,10 43,22 43,36 21,21 36,63 43,126 8,64 12,113 12,147 0,21 -1,49 -4,84 -2,35 -5,62 -8,80 -10,27 -19,47 -25,58 -23,80 -68,139 -136,178 -8,7 -25,14 -51,19 -26,5 -46,8 -59,8l-39 0c-24,0 -45,-11 -63,-34 -18,-22 -35,-42 -50,-61 -24,-20 -46,-33 -67,-36 -21,-4 -30,-34 -28,-91 0,-17 9,-32 28,-43 19,-13 36,-18 51,-18 24,3 38,14 42,36 4,22 13,39 28,53 3,8 17,19 42,35 25,15 43,23 53,23 28,4 57,-16 86,-60 29,-43 44,-85 46,-124 0,-46 -9,-93 -27,-142 -19,-32 -42,-59 -71,-79 -15,-8 -28,-18 -39,-32 -11,-13 -21,-26 -32,-38 -24,-24 -59,-37 -106,-37 -47,8 -90,34 -129,79 -32,43 -71,74 -118,95 -41,22 -77,61 -105,117 -29,56 -51,109 -68,157 -23,71 -44,130 -63,180 -12,32 -23,61 -31,88 -8,26 -16,59 -24,97 -33,158 -52,309 -54,453z"/>
  <path fill="black" fill-rule="nonzero" d="M3823 6333l-56 0c-15,18 -26,26 -34,24 -8,-1 -16,-3 -25,-3 -21,14 -48,43 -82,85 -24,32 -41,59 -51,79 -10,20 -16,57 -19,110 -8,81 -18,166 -29,255 -12,90 -18,178 -18,267l0 195c0,35 4,71 11,110 8,38 12,68 12,89 -2,60 -7,119 -15,174 -8,56 -12,110 -12,163l4 344c0,132 34,209 102,231 42,18 79,30 112,37 32,7 72,10 119,10 10,0 14,14 12,42 -2,28 -47,41 -133,37 -24,0 -48,7 -71,21 -24,14 -45,26 -63,37 -47,28 -85,55 -116,80 -30,25 -61,59 -93,99 -21,24 -56,64 -106,119 -50,55 -101,107 -153,155 -86,67 -137,101 -154,101 -26,0 -44,-3 -55,-10 -15,-18 -15,-30 0,-37 11,-8 24,-16 41,-25 17,-9 29,-13 38,-13 37,-24 64,-44 82,-58 16,-17 34,-43 57,-78 23,-36 40,-67 52,-95 29,-59 51,-140 65,-241 15,-101 23,-202 23,-301l0 -110 -13 -232 0 -359c0,-49 5,-82 16,-100 10,-18 -9,-21 -59,-10 -36,3 -79,16 -129,41 -39,24 -79,49 -119,74 -40,25 -79,47 -117,68 -76,49 -112,79 -109,92 2,12 1,82 -4,209 -5,66 -10,135 -15,205 -5,70 -8,140 -8,209l0 75c0,24 1,70 3,137 2,67 7,105 15,116 9,31 26,60 52,88 26,28 39,48 39,58 0,24 -16,37 -48,37 -12,4 -20,-2 -23,-17 -3,-16 -12,-27 -27,-35 -7,0 -18,0 -31,0 -13,0 -23,0 -27,0 -13,0 -23,-5 -28,-14 -5,-9 -9,-13 -11,-13 -28,-3 -59,2 -90,14 -32,12 -63,18 -95,18 -10,3 -26,8 -45,13 -20,5 -33,9 -41,12 -13,7 -27,18 -43,30 -16,13 -24,18 -24,18 -16,0 -25,-14 -25,-43 0,-49 20,-86 59,-113 39,-26 67,-59 83,-97 8,-20 17,-37 27,-50 10,-13 21,-37 31,-71 8,-31 12,-55 12,-74 0,-18 2,-48 7,-90 6,-70 8,-130 6,-180 -1,-51 -2,-114 -2,-188 0,-31 0,-63 0,-96 0,-34 0,-67 0,-99 0,-53 -4,-80 -11,-81 -8,-1 -31,-2 -71,-2 -21,-18 -34,-38 -40,-62 -5,-23 -26,-52 -62,-86 -18,-14 -39,-36 -61,-63 -23,-28 -33,-61 -33,-101l0 -62c0,-39 10,-58 31,-58 18,0 31,30 37,90 7,60 41,90 103,90l59 0c24,0 36,-11 36,-32l0 -31c0,-32 -3,-63 -10,-91 -7,-28 -11,-58 -13,-89 -3,-14 -6,-26 -9,-36 -3,-11 -4,-27 -4,-49 0,-31 -2,-47 -8,-49 -5,-2 -8,-13 -8,-34 -5,-28 -6,-59 -5,-92 1,-34 -1,-68 -6,-103 -5,-40 -16,-94 -32,-164 -23,-115 -39,-166 -47,-150 -8,15 -47,3 -117,-39 -34,-22 -71,-42 -108,-61 -38,-20 -57,-61 -57,-124 0,-20 8,-31 23,-31 27,0 50,20 68,60 18,40 56,60 113,60 44,0 83,8 116,24 33,16 72,24 116,24 10,0 21,0 31,0 11,0 21,0 32,0 44,0 88,-1 133,-5 45,-3 79,-14 102,-32 5,-10 13,-28 23,-53 11,-25 21,-38 32,-38 10,0 16,7 16,21 0,8 0,13 0,16 0,3 0,7 0,11 0,35 -11,61 -34,79 -23,18 -43,32 -61,43 -32,20 -57,32 -75,34 -18,2 -27,29 -27,82l0 184c0,14 3,40 10,77 7,37 11,63 14,77 2,31 3,61 3,89 0,28 3,55 9,79 7,53 11,108 11,166 0,58 5,111 16,160l16 0c42,0 75,-8 98,-23 24,-16 51,-28 81,-39 31,-11 61,-21 89,-30 28,-9 62,-16 101,-24 15,0 30,-3 44,-8 15,-5 29,-11 45,-17 18,-4 38,-4 59,-1 21,3 33,-6 36,-26 4,-38 7,-86 7,-142 0,-56 1,-105 4,-147 0,-53 2,-101 6,-143 4,-43 5,-90 5,-143 0,-73 -11,-142 -34,-204 -16,-35 -38,-53 -65,-55 -27,-2 -41,-19 -41,-51 0,-10 8,-20 23,-30 50,0 99,-6 147,-16 49,-11 96,-22 143,-32 45,-10 93,-30 142,-60 50,-29 98,-44 145,-44l3 0c8,0 14,1 17,2 2,1 7,2 15,2 16,32 21,51 13,58z"/>
  <path fill="black" fill-rule="nonzero" d="M5152 6560c65,0 137,-16 215,-47 78,-32 144,-61 197,-90 23,-7 39,-13 48,-18 9,-5 29,-7 61,-7 53,0 92,-5 118,-16 28,-7 69,-24 121,-51 52,-26 78,-33 78,-18 -8,10 -30,25 -66,44 -36,19 -61,33 -75,41 -37,28 -77,65 -122,110 -23,24 -43,45 -60,63 -18,18 -30,47 -38,85 -7,39 -13,78 -17,116 -4,39 -8,75 -14,110 -10,59 -21,140 -31,244 -11,103 -16,187 -16,251 0,45 -1,88 -3,128 -2,40 -3,83 -3,128 0,60 -1,105 -4,133 -3,16 -8,30 -16,41 -8,11 -12,28 -12,53 0,18 3,67 8,147 5,81 12,169 20,263 7,95 16,186 24,271 8,86 15,142 20,171 24,32 44,55 59,70 24,20 57,53 99,96 41,44 72,76 90,99 45,49 88,87 129,115 32,21 61,30 87,26 26,-3 61,-5 105,-5 8,0 24,0 48,0 24,0 36,10 36,31 0,14 -7,20 -22,18 -14,-2 -26,-3 -34,-3 -79,0 -140,-3 -182,-11 -43,-7 -96,-30 -158,-68 -18,-11 -34,-16 -49,-16 -15,0 -31,-5 -51,-15 -28,-20 -56,-44 -82,-70 -26,-26 -51,-51 -77,-72 -16,-10 -52,-20 -108,-29 -56,-9 -96,-13 -120,-13 -62,0 -108,7 -136,19 -29,13 -63,19 -102,19 -56,3 -92,17 -108,43 -17,26 -43,40 -77,40 -3,0 -11,-5 -24,-15 -13,-11 -23,-17 -31,-21 0,0 0,-2 0,-5 0,-3 0,-5 0,-5 47,-14 83,-25 108,-32 25,-7 57,-30 97,-68 26,-28 52,-53 80,-74 27,-21 57,-46 87,-74l43 -695 -14 -268 46 -764 -3 -133c0,-20 -1,-49 -2,-84 -1,-35 -6,-58 -13,-68 -17,-16 -32,-24 -49,-23 -16,1 -35,-1 -58,-7 -47,-11 -88,-14 -124,-11 -35,3 -57,-26 -65,-90 36,7 85,10 145,10z"/>
  <path fill="black" fill-rule="nonzero" d="M7814 6211l0 27c0,14 11,40 34,76 23,37 37,58 45,65 23,24 49,43 77,56 29,13 51,20 68,23 15,4 27,7 35,9 8,2 17,3 28,3 9,3 20,5 30,7 11,2 23,3 36,3 13,4 24,8 31,11 8,3 17,5 27,5 7,4 18,9 31,13 13,5 24,8 32,8 33,0 50,-1 50,-2 0,-1 18,-6 55,-13 31,-7 62,-20 90,-39 29,-19 59,-29 91,-29 15,0 27,3 36,11 9,7 21,11 34,11 18,11 36,14 53,13 17,-2 24,5 22,18 -14,28 -35,41 -65,40 -30,-2 -58,-1 -85,3 -8,3 -18,12 -31,24 -13,13 -23,18 -31,18 -9,3 -21,9 -36,17 -16,9 -23,19 -23,29 0,22 2,57 6,103 3,47 5,82 5,103l-16 158 0 253 16 368 0 153c0,53 -4,100 -12,143 -8,42 -16,83 -24,121 -3,21 -7,41 -11,63 -5,21 -7,41 -7,63 -3,24 -6,47 -10,68 -3,21 -7,42 -10,63 -8,42 -14,86 -18,132 -4,45 -13,84 -25,117 -6,10 -10,20 -12,29 -2,9 -5,16 -8,23 -5,7 -10,26 -16,58 -5,24 -16,60 -35,106 -18,35 -34,65 -49,92 -14,26 -32,54 -53,82 -21,28 -42,53 -63,76 -21,23 -40,46 -55,70 -7,8 -19,20 -35,35 -16,15 -26,25 -32,29 -23,14 -45,36 -66,64 -15,14 -26,25 -31,34 -5,9 -18,18 -37,30 -8,3 -21,11 -41,25 -20,14 -33,22 -41,22 -23,0 -50,0 -80,0 -30,0 -57,-2 -81,-6 -11,-3 -22,-4 -33,-4 -12,0 -22,0 -30,0 -10,-4 -21,-8 -32,-12 -12,-3 -22,-5 -29,-5 -8,-3 -16,-7 -26,-12 -9,-5 -18,-8 -26,-8 -41,-14 -78,-28 -109,-42 -32,-14 -59,-38 -83,-70 -30,-20 -46,-59 -46,-115 0,-31 0,-61 -2,-89 -1,-28 -2,-59 -2,-91 8,-93 34,-181 79,-262 28,-49 47,-84 54,-103 8,-20 32,-51 75,-92 16,-18 44,-43 86,-74 42,-32 73,-53 94,-63 17,-8 33,-16 50,-24 17,-8 35,-7 56,3 24,16 35,36 32,57 -3,21 2,43 16,65 8,20 17,41 27,63 10,22 10,42 0,63 -8,14 -14,24 -18,29 -3,5 -8,13 -14,23 -5,11 -7,25 -7,40 0,16 -4,23 -13,23 -9,0 -14,-9 -14,-26 0,-18 2,-32 7,-41 18,-24 27,-47 27,-70 0,-24 -4,-41 -14,-52 -9,-10 -17,-24 -25,-42 -6,0 -16,-13 -31,-37 -16,-24 -23,-37 -23,-37 -16,0 -32,10 -46,29 -14,20 -26,34 -33,45 -18,42 -42,72 -71,89 -24,14 -54,35 -91,63 -36,28 -54,62 -54,101 0,95 9,174 27,237 7,28 15,58 22,90 6,32 18,58 33,78 8,18 23,38 45,59 23,21 42,35 57,41 15,4 38,12 68,24 30,12 54,18 73,18 42,0 68,3 77,7 9,5 33,-3 73,-23 16,-14 26,-21 27,-21 10,-11 21,-18 31,-23 11,-5 24,-24 39,-56 21,-43 45,-92 72,-147 7,-26 18,-51 31,-75 13,-24 26,-49 39,-73 13,-35 22,-59 29,-74 6,-14 10,-51 10,-110 0,-32 7,-62 20,-90 13,-28 24,-55 32,-79 12,-31 21,-59 25,-84 3,-25 10,-58 19,-99 7,-32 11,-67 11,-106 0,-20 1,-39 3,-55 2,-16 4,-35 4,-55 0,-22 0,-41 0,-59 0,-18 0,-36 0,-57 0,-11 2,-28 6,-51 3,-23 5,-41 5,-55 0,-42 0,-82 0,-119 0,-37 0,-76 0,-119 0,-169 -9,-260 -27,-274 -19,-14 -27,-58 -27,-131l-4 -33 16 -141c0,-14 -4,-47 -14,-100 -9,-53 -13,-86 -13,-101 -8,-18 -15,-47 -22,-88 -7,-41 -10,-74 -10,-101 -30,-22 -66,-40 -105,-54 -18,-7 -35,-15 -51,-26 -16,-11 -35,-19 -59,-26 -29,-4 -57,-30 -86,-79 -8,-11 -18,-30 -29,-58 -12,-28 -18,-53 -18,-73l0 -12c0,-49 17,-73 52,-73 7,0 11,4 11,11 0,11 -2,16 -8,18 -5,1 -8,5 -8,13z"/>
  <path fill="black" fill-rule="nonzero" d="M9705 6564c0,18 7,28 20,31 5,4 8,27 9,69 1,43 3,69 5,79 8,102 13,200 13,296 0,28 1,55 3,82 2,26 4,50 4,70 0,49 5,92 16,129 10,38 16,82 16,135 0,51 1,97 2,136 1,39 -2,92 -10,157 10,-11 24,-27 39,-49 16,-22 29,-43 40,-61 36,-49 71,-109 104,-178 33,-70 61,-138 84,-202 26,-73 65,-161 116,-265 52,-104 77,-208 77,-313 0,-45 -22,-74 -66,-85 -16,0 -37,0 -63,0 -25,0 -39,-13 -39,-37 0,-31 13,-46 39,-46l102 0c16,0 32,3 51,11 18,7 32,11 43,11 24,0 46,-7 65,-21 20,-14 40,-28 61,-43 31,-20 69,-42 112,-65 43,-23 84,-37 124,-41 31,0 54,-1 71,-4 15,0 29,-2 42,-6 13,-3 27,-5 44,-5 16,0 34,11 57,34 23,24 34,49 34,76 0,26 -9,38 -27,38 -13,0 -24,-6 -32,-19 -8,-13 -20,-19 -35,-19 -50,0 -99,18 -145,54 -37,24 -58,38 -65,41 -7,3 -22,26 -45,68 -27,53 -54,101 -83,144 -29,44 -54,92 -77,145 -37,81 -73,163 -105,245 -32,82 -69,161 -108,236 -12,28 -24,56 -34,84 -10,28 -23,54 -36,78 13,38 26,76 37,114 11,37 25,71 42,102 15,36 29,72 42,109 13,37 28,71 44,103 31,73 62,142 90,205 29,63 63,126 102,189 15,32 34,63 55,90 21,28 42,55 62,80 19,30 39,58 59,81 21,23 40,50 58,81 21,38 38,71 51,97 14,26 36,50 66,72 18,20 47,39 85,55 38,16 73,24 103,24 31,0 63,-9 95,-27 32,-18 48,-55 48,-110 0,-18 -10,-38 -29,-61 -20,-22 -33,-38 -41,-45 -16,-11 -35,-22 -57,-34 -22,-12 -33,-29 -33,-51 0,-21 6,-31 19,-31 26,0 52,9 76,26 24,18 47,36 70,53 55,46 83,108 83,185 0,41 -9,69 -26,83 -17,14 -35,30 -53,48 -15,21 -26,33 -31,37 -15,11 -28,18 -39,23 -11,5 -23,17 -36,35 -16,18 -35,28 -58,29 -24,1 -43,2 -60,2 -30,0 -65,-5 -104,-16 -39,-10 -75,-17 -106,-21 -50,-14 -80,-26 -91,-37 -57,-63 -101,-111 -129,-146 -32,-36 -60,-80 -86,-130 -26,-51 -51,-99 -75,-144 -18,-32 -33,-64 -47,-95 -13,-32 -26,-66 -39,-105 -16,-32 -30,-66 -43,-103 -14,-36 -28,-72 -43,-107 -15,-36 -30,-70 -43,-101 -13,-32 -29,-63 -48,-93 -18,-24 -38,-53 -59,-85 -21,-32 -38,-64 -50,-95 -32,28 -66,65 -102,110 -42,57 -71,103 -86,137 -3,95 -4,188 -4,277 0,90 8,180 23,271 6,43 9,75 9,97 0,23 9,45 27,66 8,11 24,19 49,26 25,7 45,21 60,41 34,46 51,103 51,170 0,7 -5,9 -16,9 -21,0 -43,-20 -65,-61 -22,-40 -46,-66 -73,-76 -31,-10 -68,-14 -111,-11 -44,3 -81,5 -111,5 -37,3 -74,12 -108,24 -35,13 -69,22 -100,30 -36,10 -68,24 -94,41 -26,17 -59,26 -99,26 -15,0 -32,-1 -50,-5 -18,-3 -27,-17 -27,-41 0,-11 10,-17 29,-21 20,-4 36,-6 48,-6 18,0 43,-11 75,-31 13,-12 25,-20 34,-25 9,-5 20,-15 32,-29 26,-16 48,-34 63,-52 6,-32 13,-65 23,-97 9,-33 17,-65 25,-97 11,-70 22,-141 33,-211 12,-70 22,-142 30,-215 12,-99 19,-188 19,-268 0,-53 -2,-107 -8,-164 -5,-57 -8,-113 -8,-168 -2,-57 -4,-113 -7,-169 -3,-57 -4,-115 -4,-174 0,-77 -10,-151 -29,-221 -20,-70 -34,-142 -45,-217 -5,-20 -8,-47 -9,-81 -1,-34 -10,-50 -25,-50l-83 0c-36,0 -63,0 -78,0 -16,0 -34,-13 -54,-37 -10,-7 -29,-21 -55,-44 -26,-24 -39,-42 -39,-56 0,-18 4,-27 11,-27 18,0 36,9 53,27 17,18 44,27 80,27 28,0 60,-5 94,-14 34,-9 67,-18 98,-29 23,-8 48,-19 74,-35 26,-15 52,-30 78,-44 24,-14 49,-29 73,-45 25,-16 51,-29 77,-40 24,-11 55,-12 95,-5 39,7 59,28 59,63 0,18 -10,27 -31,27 -11,0 -32,-5 -63,-15 -15,0 -38,17 -68,52 -30,34 -46,61 -46,79z"/>
  <path fill="black" fill-rule="nonzero" d="M12418 6364c-47,-7 -82,-9 -104,-7 -23,2 -43,27 -61,76 -29,74 -47,165 -54,274 -8,74 -9,127 -4,161 5,33 9,76 11,129 0,63 -2,110 -7,142 -5,32 -10,79 -16,142 -8,67 -10,128 -8,185 2,57 3,117 1,179 -3,63 -3,122 -2,178 1,56 2,111 2,163 -3,53 -10,176 -23,371 -12,195 -4,294 23,298 15,4 36,-3 62,-20 26,-18 62,-23 106,-16l63 11c50,11 112,38 188,81 76,44 137,76 184,97 53,32 111,68 176,109 64,41 128,66 190,76 63,11 128,7 197,-11 68,-17 106,-65 113,-142 0,-32 -5,-53 -16,-61 -10,-8 -16,-28 -16,-61 0,-18 7,-20 23,-6 26,14 43,43 48,85 5,43 6,84 3,126 -10,46 -24,82 -39,106 -16,24 -26,41 -28,52 -26,53 -59,90 -98,112 -15,7 -58,21 -129,44 -71,23 -122,29 -153,18 -34,-11 -73,-30 -114,-57 -42,-28 -69,-45 -82,-53 -47,-31 -114,-66 -202,-105 -88,-40 -156,-69 -206,-90 -37,-18 -73,-32 -108,-43 -35,-10 -75,-20 -119,-31 -78,-10 -150,0 -213,31 -12,4 -46,16 -101,35 -55,19 -80,13 -76,-19 0,-7 6,-16 18,-28 12,-12 21,-40 26,-82 5,-63 4,-124 -4,-182 -8,-58 -9,-123 -3,-197 3,-32 4,-65 4,-98 0,-34 2,-71 7,-114 11,-92 19,-161 23,-210 6,-53 7,-99 4,-137 -3,-39 -1,-84 4,-137 3,-35 6,-78 10,-128 3,-51 5,-94 5,-130 -6,-66 -6,-152 -1,-255 5,-103 12,-192 19,-265 16,-178 14,-342 -7,-490 -8,-49 -18,-80 -29,-94 -12,-14 -40,-27 -84,-37 -24,-4 -52,-16 -85,-35 -32,-19 -49,-45 -49,-77 5,-20 12,-28 23,-21 18,4 35,12 51,24 16,13 35,20 59,24 23,4 51,5 84,3 33,-2 62,-3 88,-3 15,0 29,1 41,5 12,3 26,4 41,1 28,-8 70,-13 124,-16 53,-3 95,0 124,11 13,11 24,18 31,23 8,5 20,10 36,14 16,10 28,15 39,15 11,0 20,7 27,21 24,36 11,49 -39,37z"/>
  <path fill="black" fill-rule="nonzero" d="M15158 8375c-16,49 -33,99 -50,153 -17,53 -33,100 -48,142 -6,13 -33,50 -83,112 -50,62 -76,98 -77,108 -9,11 -23,14 -42,11 -20,-3 -29,-16 -29,-41 0,-10 6,-20 20,-29 13,-9 24,-18 31,-29 15,-22 28,-46 39,-73 21,-67 30,-138 27,-212 -2,-31 -5,-59 -11,-83 -5,-24 -9,-53 -12,-85 -8,-28 -13,-57 -16,-85 -3,-28 -5,-58 -7,-89 -9,-38 -22,-88 -40,-147 -18,-60 -32,-111 -43,-153 -12,-34 -44,-134 -93,-300 -50,-165 -79,-253 -86,-263 -13,14 -24,66 -32,158 -7,92 -13,153 -16,185 -7,59 -15,119 -22,178 -6,60 -12,119 -17,178 -8,57 -10,122 -4,195 3,92 -2,153 -16,185 -26,49 -46,94 -60,134 -14,41 -19,101 -14,182 0,41 5,103 16,186 10,83 20,136 27,161 24,63 55,95 95,95 39,0 67,14 82,42 -8,18 -17,30 -27,37 -3,0 -30,-13 -82,-37 -52,-24 -82,-38 -90,-42 -35,-20 -61,-40 -79,-58 -18,-18 -40,-38 -66,-58 -39,-20 -70,-32 -93,-34 -23,-2 -53,-10 -93,-24 -29,-10 -63,-16 -103,-18 -40,-2 -60,-24 -60,-67 0,-16 7,-21 22,-14 14,7 28,11 40,11 42,7 84,1 127,-17 10,-3 21,-23 31,-62 2,-11 8,-26 19,-43 11,-17 20,-35 27,-53 18,-41 29,-77 31,-107 3,-30 10,-72 20,-124 8,-38 17,-76 27,-113 11,-37 20,-76 27,-119 5,-39 9,-84 10,-134 1,-51 5,-97 13,-140 5,-43 10,-85 14,-126 4,-42 9,-84 17,-126 8,-32 17,-72 27,-122 10,-49 16,-92 16,-131 -2,-46 -4,-97 -7,-153 -3,-56 -1,-105 4,-147 0,-39 4,-80 12,-123 7,-44 11,-92 11,-145 -3,-39 -22,-103 -57,-195 -35,-92 -59,-153 -73,-185 -31,-66 -63,-117 -95,-153 -5,-3 -22,-10 -51,-23 -28,-13 -52,-24 -70,-35 -24,-3 -59,-2 -106,6 -21,0 -37,15 -48,45 -10,29 -16,60 -16,92 6,57 16,88 32,95 15,7 43,9 82,5l4 0c8,0 12,-3 12,-8 0,-5 7,-12 20,-20 3,0 4,4 4,12 0,39 -7,63 -20,73 0,0 -11,4 -33,11 -22,7 -33,11 -33,11l-9 0c-15,3 -35,-11 -60,-45 -25,-34 -44,-57 -57,-71 -26,-28 -36,-64 -31,-106 13,-31 23,-52 30,-63 7,-11 10,-19 10,-26 10,-14 61,-44 151,-90 90,-46 150,-68 179,-68l145 21c14,7 26,16 36,31 33,63 66,122 98,179 31,57 67,115 106,174 15,28 31,57 49,85 17,28 34,58 49,89 5,18 11,36 19,56 8,19 16,34 24,44 7,20 15,40 22,58 6,18 14,34 22,48 7,16 15,34 22,52 6,18 14,32 22,43 24,30 40,64 47,100 5,49 12,94 21,136 9,41 18,84 26,126 5,39 15,77 31,114 16,38 31,68 47,93 8,20 23,55 45,102 23,47 45,70 66,66 2,-20 15,-56 39,-105 24,-49 41,-93 51,-132 5,-20 9,-41 13,-63 3,-21 9,-42 17,-63 0,-4 6,-26 20,-66 13,-41 20,-63 20,-66 7,-27 19,-61 33,-101 15,-40 26,-79 33,-115 7,-31 14,-68 19,-110 5,-43 15,-84 28,-126 14,-38 30,-68 51,-88 21,-20 46,-42 74,-66 11,-11 22,-20 34,-28 12,-8 24,-19 37,-34 13,-11 25,-22 34,-33 9,-10 23,-20 41,-30 24,-11 52,-26 85,-47 32,-21 66,-34 101,-38 36,-4 71,8 103,36 32,28 52,69 57,122 0,8 -12,32 -36,73 -11,14 -14,28 -12,40 3,13 -3,24 -20,36 -10,-3 -12,-14 -4,-32 3,-4 6,-9 10,-14 4,-5 9,-11 14,-17 3,-11 4,-22 4,-37 0,-22 -17,-46 -51,-72 -34,-26 -55,-40 -64,-40l-7 6c-28,4 -56,20 -82,50 -26,30 -44,57 -51,81 -32,67 -45,148 -39,243l2 52c0,57 5,125 16,205 10,80 21,147 31,200 14,74 22,142 24,201 2,60 6,130 12,209l4 27c0,32 4,59 14,82 9,22 18,45 25,66 14,41 20,67 18,76 -1,9 0,36 5,81l0 48c3,53 8,105 16,158 8,53 16,103 25,152 0,25 3,47 9,68 6,22 13,42 21,63 8,38 15,79 20,121 0,14 4,25 11,33 21,27 34,43 40,46 8,18 14,32 17,43 4,10 14,20 29,31 10,11 35,20 75,25 39,5 68,6 86,2 8,7 12,14 12,21 0,7 -2,18 -7,34 -5,16 -10,24 -16,24 -11,0 -23,-3 -38,-11 -14,-7 -26,-11 -37,-11 -12,0 -32,7 -59,21 -10,8 -22,10 -33,6 -12,-4 -23,-6 -33,-6 -31,4 -70,15 -116,35 -46,19 -77,36 -92,50 -23,16 -45,30 -66,41 -21,11 -41,24 -59,41 -32,22 -63,45 -93,69 -30,24 -51,40 -61,47 -15,7 -26,-3 -33,-31 -7,-28 -3,-43 10,-43 21,0 37,-1 48,-4 20,-11 37,-28 52,-51 14,-23 25,-43 34,-61 12,-34 23,-57 31,-65 8,-9 17,-41 28,-97 2,-32 7,-61 15,-88 8,-26 13,-61 15,-103 0,-10 -3,-25 -9,-44 -6,-19 -11,-36 -13,-50 -11,-39 -15,-57 -12,-55 3,2 4,-13 4,-45 0,-16 -4,-39 -14,-67 -9,-28 -15,-53 -18,-75 -13,-35 -22,-84 -27,-147 -9,-49 -15,-107 -19,-174 -4,-67 -6,-128 -6,-185 -5,-63 -10,-122 -15,-176 -5,-54 -11,-111 -16,-171 -8,-53 -19,-107 -33,-161 -14,-55 -22,-105 -22,-149 -10,0 -17,3 -19,10 -10,14 -27,58 -51,132 -24,74 -48,154 -71,240 -24,86 -45,169 -63,248 -18,79 -27,128 -27,149l-12 42 -75 274 -12 27z"/>
  <path fill="black" fill-rule="nonzero" d="M18105 6682c0,116 10,216 31,300 21,84 39,179 55,284 10,101 18,204 24,307 5,104 16,205 31,304 10,93 22,188 35,283 13,95 29,187 48,274 8,47 15,93 23,138 7,45 17,89 27,130 21,95 40,167 57,217 17,49 8,74 -25,74 -15,0 -35,-26 -59,-77 -24,-51 -41,-86 -52,-103 -77,-123 -146,-248 -204,-374 -18,-35 -37,-67 -58,-97 -21,-30 -36,-59 -47,-88 -10,-16 -36,-66 -77,-147 -41,-81 -85,-166 -131,-255 -47,-90 -91,-170 -131,-242 -41,-72 -63,-110 -66,-113 0,134 -11,234 -33,303 -22,68 -33,153 -33,256l-4 68 20 179c0,59 -10,118 -29,176 -20,58 -33,117 -41,177 -6,31 -8,63 -6,97 1,34 0,68 -5,104 -9,63 -13,135 -13,216 0,53 19,82 55,89 37,7 54,35 51,85 -7,20 -26,15 -57,-16 -30,-32 -56,-58 -79,-78 -27,-26 -47,-39 -60,-40 -13,-1 -37,-6 -74,-14 -34,-7 -95,-7 -181,-2 -86,5 -129,-11 -129,-50 0,-20 8,-27 25,-20 17,7 36,11 57,11l47 0c92,0 143,-48 152,-146 9,-97 20,-196 32,-298 11,-67 20,-134 29,-201 20,-182 42,-409 66,-679 24,-270 2,-502 -63,-695 -16,-36 -43,-93 -82,-170 -39,-77 -75,-116 -106,-116 -26,0 -46,7 -60,18 -14,13 -22,6 -22,-18 0,-45 11,-72 33,-81 22,-9 48,-13 76,-13 55,0 114,28 175,84 61,56 108,103 139,142 47,64 111,167 192,309 81,142 141,255 180,338 8,22 17,41 27,56 10,15 20,28 27,39 24,53 54,124 89,216 35,91 70,151 103,179 0,-158 -7,-257 -22,-297 -14,-40 -23,-95 -26,-166 -7,-95 -23,-249 -47,-461 -24,-212 -51,-355 -82,-429 -52,-117 -104,-173 -158,-169 -53,3 -80,-9 -80,-37 0,-32 27,-49 80,-50 54,-1 92,-2 115,-2 13,0 23,3 28,8 5,5 16,7 31,7l67 0c34,0 74,-14 120,-42 46,-28 80,-53 103,-74 16,-18 51,-38 106,-61 55,-22 98,-34 129,-34 63,0 100,27 111,81 10,54 6,81 -13,81 -30,0 -46,-18 -45,-55 1,-37 -7,-55 -26,-55 -23,0 -45,11 -64,32 -20,22 -37,38 -54,47 -20,14 -42,26 -66,35 -24,9 -44,18 -59,29 -34,24 -64,63 -90,116 -26,53 -39,111 -39,173z"/>
  <path fill="black" fill-rule="nonzero" d="M2868 10183c36,-24 76,-51 119,-78 43,-28 70,-45 80,-53l0 0 0 0c14,4 29,20 48,48 18,28 36,58 54,89 29,49 46,75 52,79 10,20 23,38 37,52 14,14 29,28 45,42 21,22 52,57 95,106l0 6c57,80 110,161 156,244 47,83 71,186 71,307 0,53 -1,109 -4,169 -3,59 -4,119 -4,178 -9,119 -17,218 -23,295l-4 38c-11,74 -23,143 -35,207 -13,65 -36,129 -70,192 -39,70 -77,127 -112,169 -35,42 -69,79 -101,111 -25,28 -49,53 -70,76 -21,23 -39,50 -55,82 -5,10 -10,23 -14,38 -4,16 -8,30 -13,45 -24,67 -38,100 -43,100 -16,0 -35,-14 -57,-44 -22,-30 -41,-55 -57,-77 0,0 -5,-7 -16,-20 -30,-42 -71,-87 -121,-135 -50,-47 -98,-95 -145,-144 -28,-25 -55,-50 -80,-76 -25,-26 -48,-51 -69,-72 -55,-55 -91,-111 -110,-165 -19,-55 -35,-124 -51,-209l-4 -37c-5,-11 -9,-23 -12,-39 -3,-15 -5,-30 -7,-44 -21,-95 -37,-181 -48,-259 -11,-77 -16,-175 -16,-295 0,-126 33,-244 98,-355 66,-111 131,-208 196,-293l0 -6c26,-35 39,-52 39,-52 29,-39 54,-69 75,-92 21,-22 57,-50 109,-82 3,-4 26,-20 68,-48zm326 411c-102,-136 -202,-211 -299,-226 -3,0 -5,0 -6,0 -1,0 -1,0 -1,0 -24,0 -49,13 -73,37 -25,24 -48,47 -69,69 -10,13 -16,20 -16,20 -18,18 -43,38 -75,59 -26,21 -47,38 -62,53 -32,30 -50,61 -53,92 -4,30 -6,68 -6,113l0 12c0,28 1,75 4,142 2,67 6,132 12,196 2,98 8,161 19,189 8,25 13,55 13,90 0,35 0,70 0,105 -3,43 -4,84 -4,124 0,40 4,79 12,118 15,66 45,123 90,169 45,45 89,86 134,122 15,14 25,22 27,25 8,8 15,14 22,19 7,5 14,10 22,14 26,28 55,53 86,73 11,11 29,35 54,73 3,8 8,17 16,28 15,24 33,36 54,36l9 0 0 0c15,0 36,-20 62,-61 26,-41 51,-87 74,-140 55,-126 83,-225 83,-299l0 0c0,-64 -1,-110 -4,-137l0 -17c-3,-35 -3,-67 -2,-96 1,-30 3,-63 6,-99l3 -21 20 -427c0,0 0,-1 0,-5 0,-3 0,-7 0,-11 0,-73 -15,-149 -46,-226 -30,-77 -66,-147 -107,-212z"/>
  <path fill="black" fill-rule="nonzero" d="M5340 10591c0,57 -9,117 -27,180 -7,30 -16,57 -26,78 -10,21 -13,53 -10,95 3,84 5,171 8,263 2,91 9,184 20,279 0,22 -5,41 -16,56 -11,16 -16,27 -16,35 19,0 59,-14 121,-42 61,-28 101,-48 120,-58 47,-24 81,-48 102,-72 21,-23 46,-63 75,-119 21,-41 42,-82 62,-122 21,-41 39,-88 55,-140 8,-22 14,-48 17,-80 4,-32 10,-61 17,-88 3,-32 10,-59 20,-83 11,-23 16,-50 16,-81 0,-22 -12,-45 -35,-71 -24,-26 -41,-45 -51,-60 -21,-18 -37,-33 -49,-45 -11,-12 -29,-23 -53,-34 -26,-8 -52,-12 -79,-12 -23,4 -48,5 -74,3 -26,-2 -51,-3 -74,-3 -10,0 -19,3 -26,8 -6,5 -14,8 -22,8 -45,14 -70,49 -75,106zm-585 -575c0,18 18,47 54,88 36,41 61,65 75,70 32,28 60,45 86,48 21,4 55,13 102,24 47,13 81,22 102,28 50,22 98,41 145,59 47,17 101,19 161,5 47,-7 82,-14 106,-21 24,0 62,2 113,6 89,7 157,24 204,52 26,18 52,37 78,56 26,19 54,38 83,54 97,66 142,113 135,140 -7,26 -15,66 -25,119 -16,63 -29,115 -38,158 -9,42 -29,93 -61,152 -15,32 -32,58 -51,77 -18,20 -35,45 -51,76 -15,28 -29,59 -43,92 -13,34 -26,65 -39,93 -29,53 -70,97 -124,132 -53,35 -108,60 -162,74 -16,7 -32,11 -46,14 -14,3 -29,7 -45,11 -16,8 -31,15 -44,22 -13,7 -26,12 -40,14 -7,4 -15,6 -23,6 -8,0 -16,2 -23,6 -9,3 -16,5 -23,7 -6,2 -13,5 -21,9 -14,7 -28,13 -44,18 -16,6 -30,10 -42,13 0,50 2,101 7,151 4,51 7,97 7,140 0,13 1,38 2,76 1,37 3,61 6,71 0,20 0,46 0,76 0,30 0,55 0,76 0,63 0,107 0,130 0,23 7,64 23,123 5,61 26,98 59,112 18,11 61,20 129,28 68,8 103,21 106,40 0,14 -36,24 -110,32 -73,7 -118,13 -133,16 -68,20 -137,50 -208,89 -23,14 -49,37 -79,69 -36,31 -68,51 -96,60 -27,9 -60,24 -100,44 -11,0 -29,10 -55,29 -26,20 -39,19 -39,-2 0,-34 15,-67 45,-97 30,-30 56,-50 77,-61 10,-10 34,-31 70,-63 36,-32 57,-49 63,-53 8,-10 10,-25 8,-44 -2,-19 -3,-40 -3,-62 0,-3 4,-28 11,-78 8,-50 12,-82 12,-95 4,-39 12,-100 23,-184 2,-32 5,-64 6,-95 1,-32 4,-63 9,-95 3,-20 6,-53 10,-99 4,-45 6,-80 6,-105l-39 -806 16 -253 0 -173c0,-57 -8,-109 -25,-159 -9,-32 -19,-53 -28,-63 -10,-11 -19,-28 -29,-52 -16,-22 -42,-53 -77,-93 -35,-40 -68,-60 -96,-60l-66 10c-14,4 -26,-24 -40,-84 -13,-59 -19,-101 -19,-126 0,-34 6,-76 18,-126 12,-50 23,-91 32,-122 9,-25 24,-54 44,-87 21,-34 44,-51 71,-54 21,-14 31,-16 31,-6 -6,20 -22,34 -48,40 -26,6 -44,36 -54,92 -6,18 -10,37 -12,56 -2,19 -5,36 -8,50 -3,11 -9,27 -18,50 -9,24 -13,36 -13,39z"/>
  <path fill="black" fill-rule="nonzero" d="M8172 11660c32,-32 60,-79 85,-141 25,-61 49,-124 72,-187 11,-53 21,-92 32,-116 10,-24 13,-73 7,-146 -5,-28 -10,-76 -16,-143 -2,-39 -9,-82 -23,-131 -13,-49 -26,-92 -39,-128 -10,-20 -21,-37 -31,-49 -11,-13 -20,-30 -27,-51 -21,-45 -38,-83 -51,-113 -13,-30 -38,-59 -76,-86 -28,-18 -60,-36 -94,-53 -34,-18 -65,-38 -94,-59 -18,-10 -35,-18 -51,-23 -16,-5 -31,-13 -47,-23 -21,-8 -39,-22 -53,-43 -14,-21 -24,-32 -29,-32 -31,4 -68,21 -108,53 -41,32 -86,63 -136,95 -83,57 -128,90 -136,101 -47,63 -91,133 -131,210 -41,77 -61,176 -61,295l0 189c0,32 2,78 6,138 4,60 9,105 14,136 8,71 18,142 31,215 13,72 37,136 71,191 19,36 31,57 39,65 7,7 23,24 47,53 32,41 60,81 86,120 26,39 54,79 86,122 21,34 58,47 112,36 54,-10 108,-30 162,-60 55,-30 104,-63 148,-100 44,-38 65,-65 65,-81 0,-43 -10,-88 -31,-135 -21,-47 -33,-98 -36,-151 -10,-31 -41,-59 -90,-83 -11,0 -30,-8 -59,-24 -29,-16 -47,-24 -55,-24 -7,0 -13,0 -17,0 -4,0 -8,0 -14,0 -21,0 -35,15 -43,45 -8,29 -19,46 -34,50 -17,-7 -25,-26 -25,-58 0,-4 7,-11 22,-21 14,-11 29,-26 46,-47 41,-50 63,-75 66,-75 37,-28 69,-31 98,-8 29,23 57,38 83,45 52,0 86,5 102,17 11,11 19,28 23,52 6,32 16,61 30,85 14,24 27,47 40,68 13,28 26,32 36,11zm267 1084c-27,-53 -58,-104 -95,-153 -37,-49 -64,-94 -82,-137 -27,-53 -51,-106 -71,-161 -21,-55 -42,-114 -63,-176 -18,7 -42,28 -70,61 -29,34 -51,57 -68,70 -23,26 -48,45 -74,59 -26,14 -51,31 -76,53 -18,10 -35,20 -52,30 -17,11 -35,16 -56,16 -32,-20 -48,-31 -48,-31 -80,0 -175,-12 -284,-37 -108,-24 -184,-63 -226,-115 -29,-32 -59,-65 -90,-95 -31,-32 -56,-68 -74,-111 -52,-116 -87,-207 -103,-276 -16,-68 -27,-169 -35,-303l0 -280c0,-24 1,-49 3,-73 2,-24 5,-53 8,-85 0,-10 1,-36 4,-76 3,-40 5,-68 7,-82 2,-24 19,-55 47,-92 29,-37 51,-71 68,-103 15,-39 32,-74 50,-105 19,-31 37,-67 55,-105 24,-49 42,-80 55,-95 13,-14 35,-42 67,-85 28,-38 81,-82 159,-129 77,-47 140,-82 190,-102 28,-11 61,-24 96,-40 35,-16 69,-32 101,-45 33,-17 67,-40 102,-68 34,-28 71,-42 110,-42 15,0 36,27 62,82 26,55 46,91 60,107 20,42 38,77 54,103 16,26 38,55 67,88 16,24 36,55 59,92 24,37 43,69 58,97 16,32 31,74 44,124 13,51 26,86 40,107l39 227c5,17 18,71 39,162 21,92 32,151 32,180l0 69c0,17 -8,53 -24,110 -16,57 -26,92 -31,105 -10,28 -26,59 -45,92 -20,34 -35,61 -45,83 -15,24 -31,53 -47,87 -16,34 -32,61 -49,81 -7,11 -26,37 -56,79 -30,43 -46,69 -46,79 0,0 9,16 28,47 19,32 30,51 35,59 17,31 34,68 52,110 15,43 33,80 52,111 20,32 40,65 61,99 26,42 69,105 129,187 60,82 119,123 177,123 32,0 57,-9 77,-26 20,-17 49,-28 87,-32 16,-18 28,-32 35,-40 6,-8 10,-30 10,-65l0 -75c0,-16 -7,-38 -20,-62l-27 0c-13,-11 -22,-17 -27,-17 -29,0 -48,12 -56,37 0,50 -3,75 -11,75 -23,0 -34,-25 -34,-75 0,-35 15,-63 47,-84 31,-21 59,-32 82,-32l12 0c24,0 47,15 69,45 22,30 40,53 53,70 5,14 4,27 -3,40 -7,12 -10,25 -10,40 -1,32 -9,80 -23,145 -14,65 -24,111 -32,140 -7,14 -32,41 -74,82 -42,40 -71,57 -87,49 0,0 -26,-11 -76,-32 -51,-21 -80,-32 -88,-32 -31,-11 -60,-19 -85,-26 -25,-7 -49,-19 -73,-36l-46 -69z"/>
  <path fill="black" fill-rule="nonzero" d="M9391 9986c-26,28 -39,60 -39,94 0,39 10,69 29,92 19,22 37,44 53,66 26,28 47,43 63,46 20,8 38,14 54,19 16,5 34,6 55,2l129 12c17,0 34,-6 53,-16 19,-11 38,-16 57,-16 20,0 43,1 68,3 25,2 45,0 62,-7 18,-8 55,-19 110,-35 55,-15 94,-23 117,-23l54 0c55,0 125,22 207,66 82,43 144,78 185,102 16,14 46,36 89,64 43,28 72,47 85,58 29,31 53,68 74,113 21,44 32,75 35,92 13,36 6,54 -23,54 -10,0 -24,-7 -40,-21 -76,49 -122,102 -137,160 -16,58 -42,134 -78,230 -7,20 -17,34 -27,41 -11,7 -20,24 -27,53 -13,39 -27,78 -43,116 -10,24 -30,57 -59,97 -28,41 -51,66 -68,76 -38,0 -62,16 -73,48 8,55 19,103 33,144 15,41 24,94 29,161 3,53 15,105 36,155 21,51 39,92 55,124 18,42 36,86 53,129 17,43 37,81 60,112 11,18 21,36 29,53 9,18 22,36 38,53 30,43 54,65 70,68 16,3 24,23 24,59 16,17 29,34 40,49 10,16 31,24 62,24 36,0 73,-10 110,-29 37,-19 55,-52 55,-99 0,-14 -4,-33 -14,-57 -9,-25 -19,-37 -29,-37 -34,0 -51,-5 -51,-16 5,-22 22,-32 47,-32 6,0 11,0 17,0 5,0 12,0 20,0 23,0 43,23 59,69 2,11 5,31 9,63 4,32 6,53 6,65 0,63 -30,116 -91,157 -60,42 -114,63 -161,63l-31 0c-21,0 -54,-6 -99,-18 -45,-13 -75,-20 -90,-24 -47,-20 -76,-39 -86,-55 -10,-16 -28,-34 -54,-55 -60,-45 -99,-107 -116,-186 -18,-79 -39,-134 -65,-167 -47,-49 -69,-68 -65,-58 4,11 -6,-26 -30,-110 -9,-39 -19,-76 -28,-111 -10,-36 -18,-74 -26,-117 -8,-38 -13,-80 -17,-123 -4,-44 -10,-85 -17,-124 -16,-53 -44,-73 -81,-61 -38,13 -64,2 -79,-30 2,-11 20,-26 54,-45 34,-19 56,-34 67,-44 26,-20 44,-38 52,-52 8,-14 30,-32 66,-54 10,-7 27,-23 51,-49 24,-26 41,-47 51,-61 18,-31 28,-60 29,-86 1,-26 2,-65 2,-115 0,-14 8,-38 24,-70 16,-33 24,-62 24,-88l0 -37c0,-14 -2,-24 -6,-29 -3,-5 -5,-13 -5,-23 0,-32 12,-69 35,-111 24,-42 35,-80 35,-115l0 -17c0,-39 -28,-77 -86,-116 -57,-38 -102,-58 -133,-58l-129 0c-42,0 -66,15 -73,45 -7,30 -14,66 -22,107 -8,36 -17,72 -29,109 -11,37 -22,69 -30,97 -23,165 -34,335 -34,511 0,53 1,107 3,161 2,54 3,102 3,144 0,22 0,49 0,80 0,32 0,57 0,78 -5,34 -9,68 -13,102 -4,34 -6,66 -6,98 0,189 34,289 102,300 68,11 102,32 102,63 0,32 -19,43 -56,33l-118 -16c-47,0 -91,12 -133,34 -42,22 -84,43 -126,61 -28,11 -65,30 -110,58 -45,28 -79,42 -105,42 -26,0 -50,-5 -73,-13 -23,-9 -42,-16 -57,-19 -7,0 -19,-14 -33,-43 -14,-28 -15,-43 -3,-46 8,0 21,4 40,13 19,8 37,13 55,13 21,0 44,-1 69,-2 25,-1 44,-18 56,-50 6,-18 16,-32 30,-43 14,-10 29,-22 45,-36 24,-18 47,-62 70,-132 16,-42 25,-85 25,-129 0,-43 0,-90 0,-139 0,-64 -3,-133 -10,-206 -6,-74 -4,-136 6,-189 11,-57 21,-114 29,-172 9,-58 14,-122 14,-193l-36 -747c-20,-4 -40,-6 -60,-6 -20,0 -40,0 -61,0 -17,0 -28,5 -36,16 -7,10 -15,15 -23,15 -17,0 -45,-16 -85,-50 -40,-34 -64,-57 -72,-71 -13,-13 -32,-42 -57,-88 -25,-45 -37,-81 -37,-107 0,-31 4,-53 14,-65 9,-13 14,-38 13,-76 -2,-14 14,-28 49,-40 35,-13 61,-18 76,-18 24,0 36,14 36,42 0,11 -18,16 -55,16z"/>
  <path fill="black" fill-rule="nonzero" d="M12357 10479c14,0 44,-28 91,-85 47,-57 81,-95 102,-116 15,-10 31,-25 49,-44 18,-19 35,-35 53,-46 26,-21 46,-33 59,-37 36,-3 77,-18 121,-46 45,-28 88,-40 130,-33 30,-11 72,-29 125,-55 53,-26 79,-34 79,-24 -9,50 -16,98 -20,144 -5,45 -9,91 -12,136 3,10 4,24 4,42 -6,28 -12,45 -20,50 -8,5 -16,20 -25,45 -8,22 -18,44 -31,66 -13,22 -19,45 -19,70 -8,66 -22,116 -43,148 -14,17 -30,37 -50,60 -20,23 -35,30 -46,19 -30,-26 -46,-52 -46,-79l0 -27c0,-32 12,-49 37,-50 25,-1 45,-13 60,-35 31,-34 47,-88 47,-162l0 -48c0,-11 -8,-27 -24,-50 -16,-23 -27,-38 -35,-45 -26,-28 -61,-42 -102,-42 -13,14 -35,34 -65,58 -30,24 -49,41 -57,52 -21,22 -40,42 -56,62 -17,19 -34,39 -52,60 -32,34 -63,85 -93,152 -30,67 -46,136 -46,206l0 85c0,27 3,59 10,97 7,37 14,66 22,87 10,46 19,72 25,77 6,5 25,18 57,38 18,14 34,30 49,47 15,18 30,34 46,47 32,28 67,59 105,91 21,20 59,43 115,67 52,22 88,48 109,79 11,28 29,80 57,153 27,74 41,130 41,169 0,28 -3,57 -9,86 -6,30 -11,55 -14,76 -2,14 -8,40 -16,79 -7,38 -11,64 -11,75l0 10c7,0 14,-2 19,-5 5,-3 12,-5 20,-5 6,0 9,1 10,2 1,1 4,2 10,2 3,12 4,18 4,21 0,28 -14,63 -42,103 -28,40 -47,68 -57,82 -50,74 -85,132 -105,174 -9,7 -22,26 -40,58 -18,32 -31,53 -39,64 -26,34 -55,68 -86,100l-12 10 -133 -37 -25 -10c-23,0 -48,-4 -76,-13 -27,-9 -53,-16 -77,-20 -54,0 -82,-5 -84,-15 -1,-11 -15,-28 -41,-52l-79 4c-16,0 -34,-3 -55,-10 -10,11 -23,27 -37,50 -14,24 -22,29 -22,18 -6,-20 -12,-41 -18,-63 -6,-22 -9,-47 -9,-78 0,-81 -2,-138 -8,-170 -5,-45 -13,-94 -23,-147 -3,-10 -9,-32 -18,-65 -9,-34 -14,-55 -14,-66 0,-11 4,-34 12,-66 8,-33 14,-55 20,-67 12,-53 29,-88 50,-104 17,-11 53,-9 111,3 57,13 86,36 86,70l0 6c0,20 -8,41 -24,63 -16,21 -27,32 -35,32 0,-38 -4,-68 -12,-90 -16,-20 -36,-31 -59,-31 -10,0 -27,25 -50,76 -23,51 -34,88 -34,113l0 27c0,43 15,74 43,95 21,22 34,33 40,34 5,1 20,7 44,18 32,22 56,44 75,66 18,22 43,45 75,66 30,20 62,31 93,31 32,0 51,2 57,6 7,3 23,9 49,15 39,18 69,37 88,56 20,19 48,11 84,-25l32 -31c51,-39 82,-74 92,-108 10,-34 15,-103 15,-209l0 -52c0,-53 -17,-109 -51,-169 -34,-60 -61,-107 -80,-142 -26,-43 -56,-82 -92,-117 -36,-35 -70,-68 -103,-99 -15,-11 -36,-23 -60,-37 -25,-14 -44,-28 -58,-43 -15,-10 -28,-31 -39,-63 -10,-32 -22,-59 -36,-79 -28,-31 -67,-62 -116,-92 -48,-30 -73,-75 -73,-134l0 -33c0,-41 13,-88 40,-141 26,-53 39,-100 39,-143l0 -15 -8 -133c-3,-20 1,-45 14,-75 12,-30 25,-49 38,-56 16,-7 27,-16 35,-28 7,-12 18,-25 31,-40z"/>
  <path fill="black" fill-rule="nonzero" d="M15042 10175c10,0 17,-1 20,-5 2,-3 11,-5 28,-5 7,0 16,0 25,0 9,0 19,0 29,0 31,-8 66,-13 102,-14 36,-1 69,-8 98,-19 29,-11 59,-20 92,-28 32,-8 61,-21 85,-40 36,-20 63,-34 81,-42 17,-4 31,-14 44,-29 13,-16 25,-23 35,-23 0,0 0,0 2,0 1,0 2,0 2,0 16,0 18,16 6,50 -11,34 -17,50 -17,50 -6,11 -10,20 -12,31 -2,11 -5,20 -8,31 -6,18 -12,41 -18,69 -6,28 -9,49 -9,64 -13,24 -22,61 -25,110 -4,49 -6,95 -6,137 0,32 -3,76 -8,132 -5,56 -19,84 -40,84l-4 0c-12,0 -19,-14 -19,-42 0,-11 0,-20 1,-29 1,-9 1,-19 1,-29l0 -52c0,-36 -6,-68 -19,-95 -10,-28 -26,-49 -48,-64 -18,-14 -42,-25 -70,-32 -6,0 -14,-2 -24,-5 -10,-3 -17,-5 -20,-5 -31,-18 -64,-24 -96,-16 -33,7 -65,11 -97,11 0,50 1,100 4,149 3,49 4,97 4,146 0,39 0,90 1,153 1,64 1,111 -1,142 -6,20 -8,45 -6,73 1,28 2,53 2,75 0,31 -3,78 -8,141 -2,46 -3,97 -3,153 0,56 -1,103 -4,142 -8,47 -11,95 -10,146 1,51 -1,97 -5,140 -6,39 -9,87 -10,145 -1,58 -1,106 -1,144 0,63 0,113 1,148 1,35 10,73 26,115 8,32 28,65 62,98 34,34 51,53 51,60 3,22 -7,33 -31,33l-7 0c-13,0 -30,-6 -50,-18 -20,-13 -35,-18 -45,-18 -41,0 -67,3 -77,10 -16,14 -34,30 -54,47 -20,17 -37,30 -52,38 -16,7 -29,9 -40,7 -10,-2 -22,1 -35,9 -16,0 -34,14 -55,43 -7,3 -15,9 -24,20 -8,11 -16,22 -24,32 -11,7 -21,14 -29,19 -9,5 -18,13 -26,23 -13,7 -33,20 -59,41 -26,21 -46,32 -58,32l-9 0c-20,0 -30,-7 -30,-22 0,-28 10,-44 31,-47 21,-3 38,-11 51,-20 5,-11 9,-18 14,-24 4,-6 10,-12 18,-18 5,-10 13,-30 23,-58 6,-10 14,-27 24,-50 10,-23 19,-40 28,-50 15,-24 26,-39 31,-44 5,-5 13,-27 24,-66 5,-22 11,-43 17,-65 7,-21 13,-42 17,-63 3,-28 8,-51 16,-68 5,-46 10,-71 13,-75 2,-24 3,-49 5,-73 1,-24 6,-49 14,-74 3,-10 9,-34 18,-71 9,-38 14,-61 14,-71l-12 -190 0 -185 4 -67c0,-22 -1,-48 -2,-78 -1,-29 -2,-57 -2,-81 0,-28 2,-55 6,-79 4,-24 6,-49 6,-73l0 -21c0,-22 -5,-41 -14,-59 -9,-17 -14,-36 -14,-57 0,0 7,-6 23,-17l0 0c7,-70 11,-136 11,-197 0,-62 1,-124 4,-188 0,-16 -1,-35 -3,-55 -2,-20 -3,-40 -1,-61 6,-39 0,-67 -19,-85 -13,-11 -33,-26 -59,-47 -26,-21 -47,-32 -63,-32l-43 0 -109 17c-8,11 -18,20 -28,28 -10,8 -18,18 -24,30 -10,20 -19,34 -24,41 -5,7 -12,18 -20,32 -18,31 -30,59 -37,84 -7,25 -14,57 -22,95 -21,77 -31,150 -31,220 0,22 0,44 0,66 0,22 0,45 0,67 0,20 0,42 0,65 0,24 -6,35 -19,35l-8 0c-23,0 -38,-24 -45,-74 -7,-49 -10,-93 -10,-132 0,-59 1,-103 4,-131 0,-4 3,-21 9,-51 6,-30 11,-50 14,-61 6,-31 12,-68 18,-110 6,-43 9,-86 9,-132 0,-22 -1,-41 -3,-59 -2,-17 -4,-36 -4,-57 -3,-18 -5,-38 -6,-59 -1,-21 -2,-40 -2,-57 -2,-14 -4,-33 -7,-56 -3,-23 -4,-43 -4,-60 0,-18 -2,-36 -8,-53 -5,-18 -8,-36 -8,-53l0 -16c0,-18 12,-26 36,-26 13,0 30,14 52,45 23,30 40,51 52,61 9,10 17,20 25,29 8,9 18,16 31,23 29,20 50,33 62,36 11,8 23,13 38,14 14,1 28,2 41,2 16,4 28,9 39,16 10,7 24,11 40,11 23,0 49,5 77,15 7,4 20,9 37,14 17,5 31,7 42,7 26,0 60,-7 102,-21z"/>
  <path fill="black" fill-rule="nonzero" d="M17406 10041c65,0 98,34 98,100 0,77 -5,136 -16,178 -7,22 -11,40 -11,54 0,14 0,31 0,52 -3,34 -4,71 -4,110 0,38 -4,74 -11,106 -8,32 -15,64 -22,95 -7,32 -12,63 -15,93 -2,24 -5,61 -11,108 -5,47 -8,82 -8,104 0,24 2,57 6,97 4,40 8,70 13,92 3,28 6,63 9,103 3,41 4,73 4,97 0,41 2,75 8,101 5,26 10,53 15,82 7,43 13,72 16,90 3,17 12,42 27,74 16,28 37,70 63,126 11,28 20,52 27,71 8,20 21,38 39,56 24,32 64,57 120,74 56,17 100,12 131,-16 26,-20 51,-55 76,-105 25,-49 46,-95 62,-138 44,-92 66,-207 66,-347 0,-67 0,-136 2,-205 1,-70 2,-141 2,-211 0,-94 -3,-164 -9,-211 -3,-28 -7,-58 -11,-90 -5,-32 -7,-65 -7,-99 0,-10 1,-20 3,-32 2,-11 4,-24 4,-38 0,-53 -4,-92 -12,-116 -5,-14 -11,-30 -16,-47 -5,-17 -8,-35 -8,-53 0,-13 3,-28 8,-43 5,-16 8,-33 8,-51 0,-31 -17,-56 -49,-75 -32,-19 -49,-35 -49,-46 0,-21 12,-30 35,-28 24,2 44,3 60,3l16 0c47,0 82,-13 105,-37 24,-24 55,-43 94,-54 16,0 32,-5 49,-16 17,-10 33,-18 49,-25 40,-11 82,-17 129,-17 13,0 20,14 20,42 0,18 -13,30 -39,37 -21,0 -41,3 -61,11 -20,7 -38,11 -54,11 -31,61 -49,130 -55,207 -4,38 -9,80 -14,123 -4,44 -6,85 -6,124 -2,42 -3,88 -5,137 -1,49 -3,92 -6,131 -2,39 -5,81 -9,126 -4,45 -6,88 -6,126 0,26 2,49 8,72 5,22 8,43 8,65l-3 100c0,39 1,74 3,108 2,34 4,67 4,99 0,45 0,79 2,102 1,23 6,56 14,98 3,17 4,49 4,99 4,64 9,129 13,196 4,67 15,128 33,184 6,20 12,49 19,87 6,37 14,61 21,71 11,24 21,49 30,73 9,25 19,48 29,70 18,35 43,71 75,110 15,20 32,34 50,40 19,6 37,17 55,34 7,11 2,22 -16,37 -19,14 -35,23 -51,27 -13,0 -26,5 -36,13 -11,9 -22,14 -35,14 -21,0 -44,-13 -70,-37 -31,-28 -58,-63 -79,-106 -21,-42 -39,-81 -54,-116 -17,-32 -28,-64 -34,-95 -6,-32 -13,-65 -21,-99 -10,-32 -20,-67 -28,-106 -8,-28 -13,-65 -16,-110 -41,31 -77,66 -107,107 -30,40 -67,73 -111,97 -42,22 -85,49 -130,80 -45,32 -94,47 -149,47 -95,0 -170,-24 -224,-73 -24,-22 -44,-44 -59,-66 -16,-22 -32,-50 -51,-82 -37,-53 -69,-107 -95,-163 -26,-56 -47,-124 -63,-205 -11,-43 -16,-85 -17,-126 -1,-42 -1,-91 -1,-147 0,-43 -3,-88 -8,-134 -5,-47 -8,-93 -8,-140 -2,-95 -3,-193 -2,-292 1,-100 2,-200 2,-302 0,-40 -2,-79 -8,-117 -5,-39 -8,-78 -8,-120 0,-28 -2,-69 -6,-122 -3,-53 -8,-89 -14,-110 -18,-42 -38,-63 -59,-61 -21,1 -43,-9 -66,-29 -16,-11 -35,-27 -57,-50 -22,-24 -33,-51 -33,-81 0,-14 12,-22 36,-22 9,0 23,9 40,26 17,17 31,30 42,38 29,20 61,31 96,31 35,0 69,0 99,0 39,0 70,-9 91,-26 21,-17 52,-26 95,-26z"/>
  <path fill="black" fill-rule="nonzero" d="M5688 14668c-16,14 -27,23 -35,26 -8,3 -18,7 -28,11 -50,28 -96,60 -137,95 -39,28 -65,53 -78,74 -13,22 -29,59 -48,111 -23,67 -48,151 -74,253 -10,45 -24,86 -39,125 -16,39 -29,77 -40,116 -26,92 -50,178 -73,261 -23,83 -43,171 -61,265 -14,60 -36,155 -67,285 -31,130 -47,221 -47,274l0 16c0,53 26,91 79,116 8,10 26,27 52,50 27,23 41,40 41,50 0,14 -4,21 -12,21 -10,0 -18,-5 -22,-15 -3,-11 -20,-20 -49,-27 -32,-4 -63,-4 -95,0 -31,4 -66,7 -104,11 -38,3 -71,5 -100,5 -28,0 -61,3 -98,11 -36,7 -65,14 -86,22 -13,3 -42,14 -87,36 -45,21 -67,32 -67,32 -18,0 -25,-5 -19,-15 5,-39 17,-78 36,-119 20,-41 37,-82 52,-124 9,-39 19,-87 29,-145 10,-58 16,-113 16,-166l-20 -336 0 -5c-10,-179 -31,-353 -61,-522 -30,-169 -56,-338 -77,-506 -15,-97 -31,-179 -47,-244 -16,-65 -40,-136 -71,-213 -23,-53 -54,-115 -94,-187 -39,-72 -87,-109 -145,-109l-145 0c-58,0 -86,39 -86,116 5,77 29,113 75,106 23,0 31,13 23,37 -15,3 -33,7 -52,13 -20,6 -40,9 -61,9 -13,0 -20,-2 -20,-5 0,-32 -4,-61 -13,-85 -9,-24 -14,-63 -14,-116l0 -37c0,-53 32,-99 96,-140 64,-41 115,-61 151,-61l43 0c74,0 146,46 218,137 72,92 123,169 154,232 14,28 36,70 68,127 8,21 16,43 25,68 9,24 21,47 34,69 15,39 32,89 49,149 17,61 33,113 49,155 32,99 57,210 75,333 18,122 36,242 54,357 8,53 16,117 24,192 8,75 12,139 12,192 0,32 3,66 8,100 5,35 8,68 8,101 0,18 1,36 3,53 2,18 5,32 8,41 3,53 10,79 23,79 0,-30 24,-139 73,-326 48,-186 79,-305 93,-359 15,-66 26,-128 33,-184 7,-56 14,-120 22,-194 3,-32 3,-68 1,-109 -2,-41 0,-76 8,-107 2,-11 7,-43 17,-93 9,-51 14,-83 14,-97 0,-92 -21,-138 -63,-142 -42,-3 -63,-24 -63,-63 0,-8 4,-12 12,-12 42,0 79,9 110,27 32,18 75,27 129,27 23,0 62,-8 117,-24 55,-16 91,-29 107,-40l231 -94c23,-8 34,-7 34,4 0,18 -4,29 -11,32z"/>
  <path fill="black" fill-rule="nonzero" d="M6825 16349c-5,-45 -10,-85 -15,-120 -5,-36 -11,-76 -16,-122 -8,-35 -14,-76 -18,-124 -3,-47 -9,-87 -17,-117 -8,-39 -16,-79 -21,-122 -5,-42 -12,-81 -20,-116 -18,-81 -31,-160 -39,-237 -8,-67 -21,-144 -39,-232 -18,-87 -27,-171 -27,-252 0,-61 0,-101 -2,-120 -1,-19 -7,-55 -18,-108 -7,-27 -16,-59 -25,-93 -9,-36 -20,-63 -34,-84 -15,-28 -29,-53 -41,-74 -12,-22 -28,-42 -50,-63 -16,-11 -27,-19 -35,-22 -8,-3 -19,-11 -31,-20 -14,-11 -27,-15 -42,-14 -14,1 -22,-8 -22,-29 13,-32 40,-36 80,-11 40,25 72,38 96,38l239 -21c16,0 29,2 38,5 9,3 22,1 37,-5 9,0 21,-3 38,-11 17,-7 26,-11 29,-11 10,0 18,7 23,21 -8,14 -20,34 -35,60 -16,26 -24,51 -24,77l39 442c3,32 1,70 -5,114 -6,43 -8,80 -6,108l11 162 4 12 12 4c3,18 6,41 10,69 4,28 9,49 15,64 4,24 6,49 5,73 -1,24 1,49 6,73 3,49 5,99 8,151 2,51 16,88 40,108 15,-35 28,-71 39,-110 5,-22 11,-41 16,-59 5,-18 11,-37 20,-57 8,-28 20,-65 35,-111 16,-46 27,-85 35,-117 7,-38 16,-78 25,-120 9,-41 18,-88 25,-138 0,-20 2,-43 6,-66 4,-23 7,-47 10,-71 0,-17 3,-40 8,-68 5,-28 16,-42 32,-42 8,0 17,22 29,66 11,43 21,70 29,81 0,56 4,111 14,164 9,53 18,105 26,158 4,32 8,59 9,82 1,22 6,48 13,76 3,32 8,58 15,77 6,20 14,43 22,70 7,50 26,157 54,322 29,165 51,253 66,264 8,-7 26,-53 54,-135 27,-82 56,-173 87,-274 31,-100 60,-196 86,-287 26,-92 44,-153 51,-184 18,-85 31,-171 40,-259 8,-88 20,-178 35,-269 8,-41 14,-86 20,-134 5,-47 12,-92 20,-135 2,-20 7,-65 14,-134 7,-69 10,-117 10,-146 0,-80 -13,-126 -39,-137 -8,0 -27,-7 -57,-18 -29,-13 -45,-24 -45,-34 0,-16 17,-30 49,-41 32,-11 58,-16 76,-16l7 0c27,0 53,9 79,26 26,17 50,32 71,43 31,24 85,45 161,62 39,11 69,13 88,4 20,-9 47,-19 81,-29 20,-4 46,-15 78,-33 18,-11 28,-22 29,-34 1,-13 7,-28 18,-45 11,-3 10,18 -2,62 -12,43 -18,68 -18,75 -5,14 -17,26 -37,38 -20,11 -34,18 -45,20 -42,22 -74,34 -96,38 -22,3 -51,21 -88,53 -21,21 -37,57 -47,107 -11,51 -18,97 -21,140 -7,49 -16,96 -25,142 -9,45 -12,92 -9,138 8,4 13,6 15,6 2,0 8,-5 16,-16 8,-11 13,-9 15,5 -2,28 -15,72 -39,130 -24,58 -40,103 -48,135 -10,34 -24,81 -41,139 -17,58 -27,106 -29,144 -3,43 -8,101 -16,175 -7,74 -18,121 -31,142 -12,20 -24,36 -34,47 -11,11 -19,32 -25,63 -5,28 -9,57 -12,85 -2,28 -8,53 -16,73 -12,46 -26,90 -42,132 -16,41 -30,84 -44,126 -15,42 -31,86 -49,132 -17,46 -31,90 -42,132 -8,24 -12,51 -14,78 -1,28 -6,52 -14,74 -5,14 -13,34 -25,58 -12,25 -21,46 -25,64 -11,24 -29,65 -57,120 -27,56 -51,84 -73,84 0,0 -5,-3 -16,-10 0,-81 -1,-141 -2,-179 -1,-39 -14,-88 -38,-149 -13,-27 -22,-75 -29,-144 -7,-69 -15,-124 -26,-167 -15,-45 -30,-88 -44,-131 -15,-42 -28,-88 -42,-137 -21,-57 -37,-100 -48,-131 -5,-14 -14,-37 -26,-68 -13,-32 -20,-53 -20,-65 -16,11 -25,28 -25,48 0,20 -4,37 -11,48 -8,11 -16,20 -24,28 -8,8 -13,14 -15,18 -6,11 -9,22 -9,34 0,12 -1,27 -3,45 -13,18 -28,70 -46,158 -18,88 -36,181 -55,282 -20,100 -39,192 -59,274 -20,82 -39,123 -57,123 -5,0 -12,-30 -21,-92 -9,-61 -17,-106 -23,-134 -5,-14 -9,-32 -11,-53 -3,-21 -5,-42 -7,-63 -13,-61 -20,-101 -20,-122z"/>
  <path fill="black" fill-rule="nonzero" d="M11076 14216c15,4 35,20 60,47 25,28 39,57 42,90 0,28 -11,43 -32,43 -15,0 -27,-8 -35,-24 -8,-16 -20,-26 -35,-30 -32,-3 -62,0 -91,9 -28,9 -52,18 -70,30 -39,24 -62,38 -69,39 -7,1 -22,27 -45,77 -28,55 -58,107 -88,154 -30,48 -57,101 -81,161 -41,95 -78,186 -113,275 -34,88 -73,179 -118,273 50,158 89,278 118,359 29,81 81,188 156,322 21,38 42,74 61,105 20,31 38,66 57,105 18,49 33,112 45,189 12,77 34,132 65,164 18,24 47,50 86,76 39,26 76,41 109,45 31,7 64,1 98,-16 34,-17 53,-57 58,-120 0,-22 -8,-47 -25,-77 -17,-30 -29,-49 -37,-60 -16,-11 -36,-26 -60,-45 -23,-20 -33,-42 -31,-67 0,-24 8,-35 23,-31 29,4 55,18 79,43 24,24 48,47 71,67 54,63 79,140 75,232 -4,50 -17,82 -36,96 -20,14 -40,28 -61,41 -8,7 -14,14 -18,19 -4,5 -10,12 -18,19 -18,11 -33,18 -45,23 -12,5 -26,18 -41,39 -18,18 -39,26 -62,24 -24,-2 -46,-3 -67,-3 -31,-7 -68,-40 -110,-102 -42,-62 -78,-99 -110,-114 -21,-7 -39,-12 -53,-17 -15,-5 -28,-19 -40,-41 -24,-31 -47,-62 -68,-93 -21,-32 -41,-65 -59,-101 -32,-49 -58,-104 -80,-166 -22,-61 -45,-120 -69,-175 -26,-63 -49,-132 -68,-209 -20,-76 -40,-150 -61,-224l-153 427c-16,63 -37,129 -63,198 -26,69 -23,118 9,149 41,47 77,86 109,117 32,31 71,59 118,84 13,11 15,28 5,55 -9,26 -58,12 -147,-45 -24,-11 -50,-17 -77,-20 -27,-3 -51,-5 -73,-5 -55,0 -85,6 -90,18 -5,13 -30,33 -76,61 -26,14 -56,16 -92,5 -35,-11 -85,-9 -151,5 -100,24 -160,30 -181,16 -23,-13 -40,-28 -51,-47 -16,-32 -10,-44 17,-38 28,7 55,11 80,11 16,0 31,-1 47,-3 16,-2 33,-6 51,-13 21,-4 47,-20 79,-47 31,-28 56,-52 75,-74 50,-55 98,-135 145,-239 47,-104 79,-200 98,-287l95 -311c11,-77 34,-159 71,-247 -16,-36 -28,-65 -36,-85 -8,-20 -16,-44 -26,-70 -9,-26 -17,-51 -25,-72l-27 -58 -56 -162 -50 -175c-6,-7 -18,-22 -36,-47 -19,-24 -29,-41 -32,-52 -12,-14 -29,-42 -51,-85 -21,-42 -37,-72 -47,-90 -8,-7 -14,-13 -20,-20 -5,-7 -10,-16 -15,-26 -11,-18 -22,-34 -34,-48 -12,-14 -24,-30 -34,-46 -21,-22 -34,-35 -40,-38 -5,-3 -18,-11 -38,-20 -9,0 -22,-9 -38,-27 -17,-18 -29,-30 -37,-37 -8,-8 -15,-14 -19,-19 -4,-5 -9,-11 -17,-17 -10,-4 -24,-9 -39,-16 -11,-4 -25,-1 -43,10 -18,10 -32,3 -43,-22 -3,-10 5,-24 23,-42 15,-7 43,-9 82,-7 39,2 70,3 91,3 7,0 17,3 27,8 11,5 20,8 27,8 3,0 12,1 28,3 16,2 26,3 31,3 11,-3 20,-10 28,-19 8,-9 20,-13 35,-13 16,0 35,2 55,5 21,4 40,6 58,6 9,0 30,-14 63,-42 11,-11 21,-26 32,-47 10,-21 24,-37 39,-47 21,-14 33,-13 36,4 0,12 -7,41 -22,91 -14,49 -21,89 -19,121 3,70 23,152 59,247 32,84 66,165 102,243 16,39 33,81 50,126 17,46 34,84 52,115 9,20 18,43 28,68 10,25 21,47 31,68 32,-81 70,-174 114,-280 45,-105 67,-212 67,-321 0,-24 -8,-47 -26,-68 -17,-22 -32,-36 -45,-43 -18,-3 -42,-5 -71,-7 -28,-2 -43,-18 -43,-51 0,-41 15,-57 43,-47l109 16c16,4 35,11 55,21 21,11 36,15 47,15 24,8 46,5 67,-9 21,-14 43,-28 67,-43 34,-22 74,-42 122,-61 48,-20 91,-27 130,-24 15,0 29,1 41,3 12,2 25,3 41,3 14,4 28,5 43,3 15,-2 31,-3 48,-3z"/>
  <path fill="black" fill-rule="nonzero" d="M13054 14086c21,0 35,24 43,70 3,20 -28,34 -92,39 -64,5 -92,43 -84,113 0,4 0,9 0,14 0,5 0,10 0,13 0,25 12,84 37,178 25,95 41,151 49,169l12 42c5,31 17,74 34,131 17,57 32,97 45,122 10,27 29,63 57,107 27,44 55,66 84,66l9 0c23,0 60,-73 111,-219 51,-146 84,-240 100,-282 11,-35 37,-109 80,-221 43,-113 73,-227 89,-343l0 -36c0,-53 -32,-81 -95,-84 -63,-3 -91,-16 -82,-38 1,-38 22,-58 62,-58 13,0 33,7 59,18 26,13 59,18 99,18 26,0 52,-1 79,-5 27,-3 59,-5 96,-5 19,0 35,5 48,16 13,10 27,15 43,15 18,0 36,-5 53,-15 17,-11 35,-16 53,-16l90 0c34,0 51,14 51,43 0,16 -10,28 -29,34 -20,6 -35,10 -46,13 -39,22 -79,50 -119,85 -40,35 -71,73 -92,116 -16,35 -30,68 -45,100 -14,32 -30,64 -46,95 -15,34 -26,74 -31,120 -5,45 -15,84 -28,117 -15,39 -29,74 -41,108 -12,34 -26,66 -41,97 -16,32 -33,63 -50,92 -17,30 -33,63 -48,99 -32,63 -60,133 -85,210 -25,77 -53,147 -85,210 -3,49 -6,96 -10,142 -4,45 -6,92 -6,138 0,57 2,113 6,169 3,56 7,111 10,163 0,35 -3,107 -10,216 -7,109 8,164 46,164 18,7 41,7 69,2 27,-5 51,-8 72,-8 8,0 12,5 14,14 1,9 0,16 -6,23 -15,20 -38,37 -68,49 -30,12 -53,27 -68,45 -15,10 -27,22 -35,36 -8,14 -18,26 -28,37 -21,18 -44,32 -69,40 -25,9 -49,19 -72,29 -18,7 -36,15 -53,26 -17,11 -33,22 -49,32 -21,14 -44,29 -67,45 -24,15 -46,30 -67,44 -28,18 -69,44 -122,79 -15,11 -41,30 -76,58 -35,28 -57,43 -65,43 -13,0 -30,7 -51,21 -21,14 -31,7 -31,-21 0,-31 15,-51 45,-60 30,-9 55,-22 76,-41 24,-20 47,-38 69,-52 22,-14 43,-32 62,-52 23,-32 51,-81 85,-146 34,-65 62,-119 83,-161 4,-81 10,-161 15,-242 5,-81 8,-163 8,-248 0,-55 -3,-141 -8,-257 -5,-117 -12,-202 -19,-257 -8,-57 -14,-93 -17,-111 -4,-17 -15,-47 -33,-90 -24,-42 -39,-71 -46,-87 -7,-15 -15,-51 -25,-108 -11,-61 -29,-127 -56,-200 -13,-25 -22,-56 -29,-95 -7,-39 -17,-75 -30,-110 -23,-50 -52,-101 -89,-154 -27,-35 -49,-81 -66,-139 -17,-58 -37,-109 -61,-155 -23,-36 -50,-57 -80,-65 -30,-7 -59,-12 -88,-14 -31,-8 -48,-27 -48,-58 0,-26 17,-38 51,-38 16,0 33,0 50,0 17,0 33,0 50,0 32,0 74,2 127,6 53,3 96,7 128,11 60,14 102,16 124,5 22,-11 61,-16 116,-16z"/>
  <path fill="black" fill-rule="nonzero" d="M16807 14230c-52,0 -93,16 -122,47 -28,32 -55,66 -79,105 -28,45 -53,84 -74,118 -21,34 -43,75 -67,125 -24,41 -44,86 -61,133 -17,48 -33,96 -49,145 -10,24 -21,49 -30,74 -10,25 -18,48 -26,68 -7,20 -17,42 -28,66 -12,23 -22,45 -30,65 -8,22 -15,50 -22,85 -7,35 -11,63 -13,85 -8,41 -26,86 -53,133 -27,47 -49,91 -64,129 -6,14 -12,27 -18,38 -6,11 -11,21 -14,32 -3,3 -12,25 -27,67 -10,24 -19,50 -25,76 -7,26 -14,52 -22,76 -14,38 -24,63 -32,71 -7,9 -21,26 -39,50 -18,24 -46,63 -82,114 -37,51 -58,97 -63,135 23,0 41,0 55,0 13,0 31,1 54,4 16,8 32,15 48,22 16,7 34,11 54,11 13,7 44,22 93,46 49,24 78,41 88,48 24,21 56,35 96,41 40,7 79,13 115,16 31,7 66,18 104,34 38,16 71,24 100,24l51 0c32,0 55,-11 69,-32 14,-21 32,-42 53,-63 26,-28 44,-45 55,-48 10,-4 27,-27 50,-68 3,-8 4,-18 4,-30 0,-13 1,-24 4,-34 0,-28 -11,-47 -34,-58 -23,-10 -42,-15 -57,-15 -8,0 -13,9 -17,26 -4,18 -14,26 -30,26 -12,0 -19,-10 -21,-29 -1,-19 -2,-34 -2,-44 -3,-22 4,-41 21,-59 18,-17 34,-26 49,-26l91 0c26,0 48,12 66,36 7,14 12,27 13,37 1,11 6,26 14,48 6,28 17,59 32,93 16,34 24,59 24,75 -16,47 -47,84 -91,114 -44,30 -78,68 -101,114 -6,14 -22,34 -48,58 -8,3 -17,11 -27,25 -10,14 -19,23 -24,27 -8,11 -24,30 -47,58 -23,28 -42,42 -55,42l-55 0c-15,0 -27,-3 -36,-7 -9,-5 -19,-8 -29,-8 -45,0 -87,3 -127,11 -39,7 -82,11 -129,11 -15,0 -50,-19 -103,-58 -53,-38 -88,-65 -103,-79 -24,-11 -45,-20 -63,-25 -18,-5 -36,-13 -54,-23 -52,-28 -92,-47 -118,-58 -39,-14 -80,-30 -124,-47 -43,-17 -88,-22 -135,-16 -45,11 -88,27 -130,50 -42,24 -82,35 -121,35 -32,0 -48,-12 -48,-36 0,-22 8,-36 24,-43 16,-7 31,-13 47,-21 13,-4 33,-32 59,-85 10,-27 28,-55 53,-86 25,-30 45,-58 60,-82 11,-14 19,-27 26,-40 7,-13 15,-28 26,-49 7,-22 15,-38 23,-48 8,-11 17,-26 27,-48 16,-31 34,-57 54,-78 20,-21 39,-51 57,-90 12,-20 25,-56 36,-105 12,-49 24,-90 34,-120 8,-28 18,-66 31,-114 13,-47 26,-86 40,-114 21,-42 35,-76 43,-100 5,-10 14,-25 24,-44 10,-20 20,-34 28,-45 8,-10 20,-45 35,-105 16,-60 27,-101 35,-122 5,-17 10,-35 15,-54 5,-20 11,-38 19,-56 21,-43 37,-76 48,-101 5,-14 13,-29 22,-44 9,-15 18,-32 25,-50 8,-14 15,-29 22,-45 7,-15 16,-34 26,-56 5,-10 19,-43 43,-97 23,-55 36,-90 39,-107 0,-14 -13,-21 -39,-21 -9,0 -18,-1 -28,-3 -10,-2 -20,-3 -28,-3 -16,-4 -33,-4 -52,0 -20,4 -37,6 -52,6 -39,10 -74,20 -104,31 -30,10 -62,17 -97,21 -37,7 -66,24 -88,48 -22,24 -42,49 -60,73 -31,43 -52,67 -63,74 -10,7 -26,40 -48,99 -10,24 -31,50 -62,76 -31,26 -60,40 -87,40 -23,0 -35,-7 -35,-21 0,-14 12,-27 35,-37 8,-4 21,-16 36,-37 21,-32 31,-50 29,-53 -1,-3 1,-28 9,-74 9,-41 24,-84 46,-128 22,-44 33,-86 33,-124l0 -31c0,-24 -4,-49 -14,-73 -9,-24 -10,-43 -2,-54 10,-20 37,-28 78,-20 42,7 74,13 98,16 16,3 29,5 41,7 12,2 29,3 52,3 21,0 39,2 53,5 14,4 31,6 49,6 37,7 65,14 83,23 18,9 51,9 98,-2 24,-3 55,-13 93,-27 38,-14 68,-21 91,-21 28,0 57,5 85,16 27,10 54,8 80,-6 10,-7 34,-19 70,-39 37,-19 61,-29 75,-29 13,0 48,5 104,16 56,10 84,26 84,48 0,24 -6,37 -19,37z"/>
  <path fill="black" fill-rule="nonzero" d="M4275 18966c0,22 2,40 8,53 5,14 8,28 8,41 2,28 0,105 -5,230 -5,124 -8,232 -8,324 0,81 17,126 51,134 34,8 65,32 94,72 16,21 32,45 47,74 17,28 31,53 44,76 13,23 30,44 51,65 10,18 26,42 47,72 21,30 43,45 67,45 29,0 70,-4 122,-11 44,7 73,8 85,1 13,-7 39,-26 78,-59 24,-20 37,-33 38,-37 1,-4 10,-23 25,-58 3,-7 10,-29 20,-63 0,-11 2,-19 6,-26 4,-7 8,-20 13,-38 6,-24 11,-46 15,-66 3,-19 5,-48 5,-87 0,-38 -2,-78 -8,-120 -5,-41 -5,-84 1,-126 1,-81 4,-142 7,-182 3,-41 4,-89 4,-144 0,-50 -11,-84 -34,-101 -23,-18 -37,-43 -45,-78 -8,-22 -11,-41 -9,-56 1,-16 -3,-34 -14,-56 -21,-41 -43,-82 -67,-122 -24,-41 -47,-82 -71,-124 -50,-77 -101,-116 -153,-116 -55,0 -103,22 -142,66 -39,43 -77,82 -113,114 -26,20 -46,39 -58,55 -13,16 -27,41 -44,76 -8,14 -21,43 -39,87 -19,43 -27,72 -27,87zm-310 605c0,-77 4,-152 12,-225 2,-39 7,-68 12,-90 5,-21 12,-47 20,-80 13,-53 26,-107 36,-163 11,-56 22,-113 35,-172 7,-46 22,-97 43,-153 21,-56 42,-102 63,-138 32,-53 85,-103 161,-153 76,-49 137,-94 184,-137 16,-10 31,-23 46,-40 14,-16 32,-29 52,-40 13,-7 24,-9 32,-9 8,0 20,-2 35,-6 21,-7 40,-18 55,-34 16,-16 35,-22 58,-18 39,10 68,43 86,99 18,56 38,102 59,138 21,41 46,78 75,110 29,32 57,66 86,100 13,21 26,41 36,60 11,19 24,38 39,56 39,53 78,111 116,174 38,63 65,130 81,200 7,31 22,86 42,165 21,79 30,135 28,167 -6,35 -11,64 -17,87 -5,23 -8,54 -8,93 0,24 -5,52 -16,84 -10,32 -20,57 -27,74 -36,98 -81,182 -133,253 -33,45 -58,82 -73,110 -20,28 -52,57 -100,85 -21,10 -39,23 -53,40 -14,16 -29,29 -45,40 -42,28 -77,53 -106,73 -60,45 -100,80 -118,105 -18,25 -67,38 -145,38 -60,0 -100,-23 -118,-69 -47,-78 -92,-140 -135,-188 -43,-47 -81,-92 -115,-133 -16,-18 -32,-33 -48,-45 -16,-12 -31,-29 -47,-51 -11,-11 -25,-28 -43,-52 -47,-53 -83,-101 -108,-145 -25,-44 -37,-113 -37,-209z"/>
  <path fill="black" fill-rule="nonzero" d="M6932 18448c16,8 31,16 46,24 15,8 29,13 45,13 6,0 11,0 15,0 3,0 9,0 17,0 10,0 19,-5 26,-16 6,-10 18,-18 33,-25 8,0 25,-5 51,-13 26,-9 43,-16 51,-19 10,-7 26,-12 48,-16 21,-4 39,-9 54,-15 31,-4 64,-16 98,-37 6,0 21,-10 44,-29 24,-19 35,-29 35,-29 8,-4 20,-1 37,8 18,9 26,22 26,38 0,14 -7,28 -20,43 -13,14 -23,26 -27,37 -7,18 -13,33 -18,45 -4,13 -10,29 -18,49 -7,18 -10,40 -8,64 2,24 3,43 1,58 -17,42 -26,98 -27,168 -3,14 -5,26 -6,38 -1,11 -2,21 -2,32 0,20 0,40 0,58 0,18 0,38 0,58 0,53 0,103 0,150 0,48 3,98 9,151 5,41 7,76 7,104 0,36 3,71 10,106 7,35 10,66 10,95 0,32 3,65 9,98 6,34 12,66 18,97 3,32 7,65 12,98 5,34 10,66 15,97 24,24 59,59 104,105 46,45 88,68 128,68 10,0 25,-6 43,-18 18,-12 36,-18 54,-18 8,0 25,4 48,11 24,7 35,22 35,47 0,32 -12,52 -35,59 -24,7 -46,11 -67,11 -56,0 -90,-4 -102,-12 -14,-3 -26,-4 -36,-4 -10,0 -20,-3 -27,-11 -73,-24 -125,-37 -157,-37 -36,0 -72,1 -107,3 -36,1 -71,3 -105,3 -2,0 -3,1 -5,2 -1,1 -2,2 -2,2 -28,0 -56,9 -82,27 -26,18 -50,27 -71,27 -18,7 -57,18 -116,34 -59,16 -92,5 -100,-34 0,-39 12,-62 36,-70 7,0 17,0 29,0 12,0 22,0 29,0 26,0 37,-7 35,-23 -2,-15 6,-30 24,-44 15,-11 29,-18 41,-21 12,-4 24,-16 34,-37 15,-39 26,-76 30,-112 0,-59 4,-118 14,-176 10,-57 14,-117 14,-177 0,-53 2,-114 7,-183 0,-32 0,-67 0,-103 0,-37 0,-71 0,-103 0,-14 0,-27 2,-40 1,-13 2,-28 2,-49 -6,-34 -9,-65 -9,-90 0,-31 -1,-62 -3,-92 -2,-30 -4,-61 -4,-92 0,-70 -6,-128 -20,-173 -4,-24 -15,-43 -31,-54 -15,-7 -29,-13 -41,-20 -12,-7 -26,-13 -41,-16 -36,8 -64,12 -82,12 -34,0 -57,-14 -68,-43 -7,-11 -11,-27 -11,-50 0,-23 8,-35 23,-35z"/>
  <path fill="black" fill-rule="nonzero" d="M9718 18404c0,-11 -2,-30 -8,-58 -5,-28 1,-42 20,-42 7,0 21,5 41,13 20,9 37,14 52,14 37,0 79,-23 127,-70 26,-28 56,-53 90,-73 34,-20 67,-42 99,-64 5,-3 12,-7 23,-14 10,-7 19,-14 24,-22 5,-7 9,-17 13,-31 4,-14 9,-23 17,-27 10,-4 24,6 40,29 16,23 30,40 44,50 12,18 24,27 34,27 11,0 24,0 40,0 26,7 46,9 59,9 11,0 26,-9 47,-26 21,-17 36,-26 47,-26 21,0 43,32 67,95 24,63 41,107 51,131 13,43 30,89 51,140 21,51 31,97 31,140 0,46 -4,82 -14,106 -9,24 -16,54 -21,89 -8,32 -18,63 -29,93 -12,29 -18,58 -18,86 0,39 0,73 -2,103 -1,30 -11,60 -29,92 -13,20 -27,43 -43,68 -16,25 -29,46 -39,63 -32,43 -64,84 -97,124 -32,41 -62,82 -87,124 -17,21 -31,41 -44,63 -13,21 -27,42 -44,63 -15,20 -31,41 -47,63 -16,21 -30,43 -43,65 -18,31 -49,76 -93,136 -44,60 -68,105 -73,138 81,-11 151,-11 208,0 39,14 80,24 124,29 43,5 85,16 127,33 9,4 28,11 57,21 30,11 50,16 60,16 21,0 46,0 74,0 27,0 51,2 72,5 24,8 48,9 71,1 24,-7 44,-14 62,-22 17,-3 40,-17 69,-43 30,-26 49,-52 57,-78 13,-39 19,-79 19,-120 0,-4 -3,-13 -9,-27 -6,-14 -9,-26 -9,-37 16,-10 36,-1 63,29 26,30 39,55 39,77 0,45 -8,81 -26,107 -18,26 -26,54 -26,82 0,30 8,49 26,55 17,6 26,21 26,45 0,20 -21,35 -63,42 -7,7 -16,16 -25,28 -9,12 -18,20 -26,24 -10,11 -20,19 -30,26 -10,7 -20,14 -27,20 -16,18 -34,36 -54,56 -20,19 -39,34 -57,44 -10,12 -24,16 -41,14 -17,-2 -30,-1 -41,3 -26,11 -53,20 -79,28 -26,9 -51,13 -75,13 -39,0 -78,-3 -116,-11 -38,-7 -73,-14 -104,-20 -68,-11 -135,-30 -200,-58 -31,-14 -63,-27 -94,-40 -31,-12 -61,-25 -90,-40 -16,-7 -49,-21 -97,-44 -48,-23 -80,-35 -95,-35 -35,0 -67,14 -98,42 -19,18 -37,23 -53,14 -17,-9 -26,-30 -26,-62 0,-16 17,-46 49,-89 32,-42 55,-72 69,-90 39,-53 82,-105 129,-155 47,-51 93,-101 138,-149 88,-102 170,-214 247,-338 31,-69 63,-135 97,-197 34,-61 64,-134 91,-218 8,-26 17,-67 29,-125 11,-58 17,-106 17,-145 0,-101 -27,-189 -82,-262 -15,-18 -27,-30 -37,-35 -9,-5 -22,-22 -38,-50 -2,-7 -16,-20 -40,-41 -25,-21 -40,-32 -46,-32 -15,0 -31,8 -47,24 -16,15 -29,27 -40,34 -31,21 -63,38 -94,52 -31,14 -60,32 -87,54 -23,21 -45,51 -66,89 -21,39 -38,74 -50,106 -9,21 -18,41 -27,60 -9,19 -17,36 -25,50 -21,31 -34,72 -39,122 -3,20 -8,45 -14,75 -7,30 -17,45 -29,45 -21,0 -34,-16 -39,-47 -5,-32 -8,-63 -8,-93 0,-92 12,-183 36,-274 18,-63 27,-149 27,-259z"/>
  <path fill="black" fill-rule="nonzero" d="M13210 18444c0,35 -5,63 -16,84 -11,21 -16,46 -16,74 0,16 0,34 0,52 0,18 0,36 0,52 0,28 12,53 35,74 24,21 48,32 71,32 40,0 68,-19 86,-58 3,-8 7,-16 14,-24 6,-9 11,-18 14,-28 10,-28 23,-42 36,-42 8,0 12,3 12,9 0,71 -7,120 -22,149 -15,28 -32,60 -53,94 -18,35 -46,54 -82,58 -16,4 -37,6 -63,6 -13,0 -25,3 -34,8 -9,5 -16,8 -21,8 -13,0 -27,-6 -42,-16 -14,-11 -26,-22 -33,-32 -11,-6 -29,-32 -55,-79 -8,-14 -23,-47 -42,-97 -20,-51 -29,-86 -29,-107 0,-22 0,-43 0,-64 0,-20 0,-43 0,-68 0,-11 8,-41 26,-90 17,-49 29,-82 37,-101 15,-38 27,-68 35,-90 8,-21 28,-42 60,-63 52,-28 109,-43 173,-43 15,0 29,-3 42,-11 13,-7 27,-12 44,-14 23,-7 59,-11 106,-11 44,0 96,18 157,55 60,37 105,66 136,88 52,34 93,71 122,110 18,24 37,52 57,84 20,32 29,65 29,101 0,16 -6,49 -17,96 -12,48 -19,80 -22,99 -11,63 -30,117 -59,162 -24,38 -51,83 -82,133 -24,31 -62,63 -115,95 9,38 28,72 57,102 30,30 60,80 92,150 24,63 45,124 63,182 18,58 27,122 27,193 0,42 -8,72 -24,90 -16,17 -27,38 -35,63 -15,43 -39,84 -70,126 -17,22 -30,42 -42,61 -12,20 -26,38 -42,56 -23,31 -55,67 -98,107 -42,40 -79,64 -109,70 -47,22 -91,42 -131,62 -41,19 -82,34 -125,44 -12,4 -25,7 -36,11 -12,3 -24,5 -34,5 -32,11 -58,15 -80,14 -22,-1 -49,-2 -80,-2 -11,3 -26,3 -46,2 -20,-1 -34,-2 -45,-2 -36,-4 -66,-7 -90,-9 -24,-2 -51,-8 -82,-18 -42,-14 -81,-45 -118,-95 -36,-49 -54,-111 -54,-185 0,-49 1,-103 3,-163 2,-60 16,-111 40,-153 42,-74 117,-132 224,-178 15,0 28,-5 39,-13 11,-9 27,-18 51,-25 24,-3 54,13 93,46 38,34 56,57 56,71 0,13 -1,31 -3,54 -2,23 -12,35 -28,35 -5,0 -18,-20 -39,-61 -21,-41 -39,-59 -55,-55 -16,11 -30,18 -42,23 -11,5 -24,13 -37,24 -15,14 -26,28 -33,40 -7,13 -15,26 -26,39 -12,18 -23,30 -32,34 -9,5 -14,24 -14,56 0,25 -4,48 -12,70 -8,22 -12,45 -12,67 0,35 44,78 131,128 87,51 139,76 154,76 42,0 94,-23 157,-68 63,-45 106,-84 130,-115 15,-22 34,-41 58,-59 24,-17 44,-40 60,-68 12,-24 28,-49 48,-76 20,-26 38,-52 54,-76 7,-18 22,-45 43,-82 21,-36 32,-71 34,-103 0,-31 -2,-76 -6,-136 -4,-60 -9,-100 -17,-120 -18,-43 -56,-87 -113,-133 -18,-11 -34,-14 -48,-13 -13,2 -29,3 -48,3 -23,0 -40,-3 -50,-11 -11,-7 -24,-11 -40,-11 -31,0 -50,16 -58,47 -8,32 -21,47 -39,47 -11,0 -16,-15 -16,-46 0,-22 4,-34 12,-36 8,-2 18,-8 28,-18 16,-11 30,-28 43,-52 20,-39 34,-59 40,-61 7,-2 31,-3 74,-3 91,0 168,-56 231,-168 21,-38 45,-88 71,-147 26,-60 39,-123 39,-190 0,-7 0,-13 0,-20 0,-7 0,-16 0,-26 0,-74 -39,-136 -117,-183 -78,-47 -139,-71 -184,-71 -11,0 -23,3 -35,9 -13,6 -26,9 -40,9 -18,0 -39,13 -62,37 -16,14 -26,22 -30,23 -4,1 -11,11 -22,29 -26,35 -40,56 -43,63z"/>
  <path fill="black" fill-rule="nonzero" d="M15775 19536c31,0 61,-4 91,-11 30,-7 61,-11 93,-11 24,0 44,-4 59,-11 16,-7 32,-13 51,-16 34,-7 53,-5 55,5 2,11 9,-16 19,-79 6,-31 12,-82 18,-154 6,-72 9,-128 9,-166 0,-53 -1,-118 -3,-195 -2,-77 -8,-142 -15,-195 -8,7 -16,21 -26,44 -9,24 -18,40 -26,51 -7,14 -16,30 -25,47 -9,18 -18,32 -25,41 -21,39 -40,70 -55,95 -16,24 -31,58 -47,100 -8,14 -15,32 -22,53 -7,21 -13,39 -19,53 -5,14 -8,23 -11,26 -2,3 -5,10 -8,20 -8,11 -12,21 -14,30 -1,9 -4,18 -6,28 -16,38 -31,80 -47,126 -16,45 -31,84 -47,117zm642 -1458c0,28 0,55 0,79 0,24 0,49 0,73 0,67 0,126 0,176 0,51 -4,105 -12,161 -2,27 -3,55 -5,83 -1,28 -3,55 -6,79 -3,22 -5,50 -8,85 -2,35 -4,63 -4,85 0,55 0,112 -2,170 -1,58 -2,117 -2,177 0,31 0,61 0,89 0,28 0,57 0,85 0,14 0,47 0,97 0,51 3,76 11,76 11,0 17,-1 20,-3 3,-2 11,-1 23,3 11,4 21,7 29,11 9,3 19,5 29,5 42,-3 73,-18 91,-46 3,-11 6,-20 10,-29 4,-9 9,-18 14,-29 8,-22 15,-43 21,-62 6,-19 15,-39 25,-60 9,-14 20,-28 35,-42 14,-14 25,-32 33,-52 2,-11 8,-33 17,-68 10,-36 20,-53 30,-53 23,0 34,22 34,68 0,61 -12,108 -35,143 -24,34 -43,73 -58,115 -17,39 -30,84 -41,137 -7,32 -11,59 -11,79 -3,22 -13,41 -31,58 -32,0 -57,0 -75,0 -18,0 -39,5 -62,16 -8,4 -32,6 -72,6 -20,0 -32,2 -37,7 -4,5 -13,10 -25,14 0,10 0,19 0,26 0,7 0,16 0,26l-9 164c0,20 2,40 6,58 4,18 7,32 7,42 0,21 -2,39 -7,55 -4,16 -6,33 -6,51 0,31 15,47 43,49 29,2 51,3 68,3 7,0 16,-1 25,-3 9,-2 18,-5 25,-9 38,-3 56,24 56,79 0,28 -18,43 -52,43 -18,3 -29,9 -33,16 -4,7 -13,13 -26,16 -24,11 -46,20 -65,28 -19,8 -38,18 -57,30 -15,11 -57,30 -125,60 -68,30 -109,44 -125,44 -16,0 -37,-3 -62,-7 -25,-5 -37,-20 -37,-45 0,-32 19,-49 57,-53 38,-3 69,-21 92,-53 13,-16 21,-33 24,-49 2,-16 9,-31 20,-45 13,-24 20,-66 20,-126 0,-42 0,-86 0,-129 0,-43 -1,-87 -4,-129 -5,-22 -9,-55 -12,-99 -2,-43 -17,-65 -43,-65 -19,0 -45,5 -81,16 -35,11 -61,16 -76,16 -16,7 -32,9 -48,7 -16,-2 -28,-1 -38,3 -89,28 -169,42 -240,42 -42,0 -72,2 -90,6 -37,7 -62,10 -78,10 -24,0 -36,-11 -36,-31 0,-28 8,-49 24,-61 16,-13 31,-26 47,-40 16,-14 43,-46 79,-95 10,-14 19,-34 25,-61 6,-26 15,-51 25,-72 18,-39 36,-80 52,-125 7,-43 13,-66 15,-72 2,-5 13,-25 32,-60 1,-11 5,-22 11,-32 5,-11 10,-21 16,-31 5,-11 10,-19 15,-26 5,-7 12,-16 19,-28 17,-31 26,-51 28,-60 2,-9 10,-33 24,-72 8,-14 17,-33 29,-57 11,-25 22,-46 30,-64 21,-35 41,-73 59,-115 18,-42 36,-84 55,-126 18,-39 38,-78 59,-116 21,-39 42,-79 63,-122 20,-42 37,-85 50,-127 8,-20 14,-45 20,-73 5,-28 13,-53 24,-74 18,-49 39,-86 63,-110 36,-32 71,-51 105,-58 13,0 20,14 20,41 0,8 -3,16 -10,24 -6,8 -10,18 -10,30z"/>
  <path fill="black" fill-rule="nonzero" d="M4449 22085c6,4 17,6 32,6 7,0 21,-6 39,-18 19,-13 34,-18 47,-18 45,0 89,1 132,2 43,1 88,2 135,2 36,0 72,-8 107,-23 36,-16 72,-34 108,-56 52,-31 109,-72 170,-125 18,-14 48,-32 89,-53 24,-11 38,-24 42,-38 4,-14 14,-30 29,-47 13,-10 26,-21 38,-34 12,-12 26,-25 41,-40 8,-8 19,-24 33,-51 15,-26 25,-40 30,-40 8,-3 17,6 27,29 10,24 16,40 16,51 0,22 -11,42 -32,61 -21,20 -35,40 -43,60 -11,28 -21,54 -30,76 -9,22 -17,46 -25,70 -16,57 -31,112 -46,167 -14,55 -21,119 -21,192 0,7 -6,11 -19,11 -37,-14 -79,-21 -126,-21 -68,0 -135,-1 -202,-3 -67,-2 -132,4 -198,18 -36,10 -72,21 -105,34 -34,12 -70,18 -107,18 0,53 -4,106 -12,161 -8,55 -10,109 -7,161 97,0 195,11 294,31 99,20 186,80 262,179 14,20 33,52 57,95 25,42 38,76 38,100 0,35 -5,59 -14,70 -9,13 -22,24 -38,36 -20,17 -33,28 -40,33 -7,5 -15,20 -26,46 -10,21 -22,38 -33,52 -11,14 -22,27 -30,37 -23,32 -41,68 -54,106 -13,39 -28,76 -43,110 -21,43 -41,88 -61,134 -20,47 -44,86 -73,119 -8,7 -14,11 -20,13 -5,2 -10,7 -15,14 -48,63 -92,120 -134,171 -42,51 -89,101 -142,149 -12,11 -23,24 -32,43 -9,18 -19,32 -29,42 -16,14 -30,28 -42,40 -11,13 -23,24 -33,34 -24,22 -52,42 -85,61 -33,20 -67,29 -103,29 -26,0 -68,-7 -127,-21 -30,-4 -59,-1 -85,8 -26,9 -47,8 -60,-4 -8,-11 -19,-23 -35,-39 -16,-15 -22,-29 -19,-40 0,-20 -2,-39 -6,-55 -4,-16 -6,-34 -6,-55 0,-14 11,-34 32,-61 21,-26 37,-41 48,-45 7,-3 7,13 -1,48 -8,35 -12,65 -12,89 0,22 13,35 40,40 26,5 45,8 55,8 31,0 63,-5 94,-14 31,-9 65,-18 102,-28 21,-4 42,-16 63,-35 21,-20 42,-36 63,-50 23,-13 42,-29 56,-49 14,-19 32,-40 53,-61 17,-18 34,-36 52,-53 18,-17 35,-38 50,-63 14,-18 27,-41 40,-68 13,-28 26,-54 40,-78 24,-46 45,-105 63,-175 19,-66 33,-131 43,-195 2,-31 9,-63 21,-97 12,-34 18,-69 18,-108 0,-150 -18,-247 -54,-289 -55,-63 -129,-95 -220,-95 -34,0 -72,11 -112,34 -40,23 -76,34 -107,34 -8,0 -18,0 -32,0 -13,0 -20,-7 -20,-22 0,-24 14,-77 43,-158 29,-81 50,-132 63,-152 8,-11 18,-32 29,-66 12,-34 22,-59 29,-77 26,-67 38,-142 36,-226 0,-53 6,-79 19,-79z"/>
  <path fill="black" fill-rule="nonzero" d="M7424 24259c-26,0 -46,-20 -60,-61 -14,-40 -28,-72 -42,-97 -18,-24 -38,-47 -59,-68 -21,-21 -41,-43 -59,-68 -10,-10 -20,-22 -29,-36 -9,-14 -18,-28 -25,-43 -5,-4 -9,-7 -12,-11 -3,-3 -5,-9 -8,-16 -16,-10 -53,-59 -114,-146 -60,-88 -91,-144 -93,-170 -9,-31 -22,-79 -38,-144 -17,-65 -20,-109 -9,-130 15,-20 22,-45 20,-74 -2,-28 1,-57 12,-88 1,-18 7,-35 17,-51 9,-15 18,-34 26,-55 16,-31 26,-67 31,-107 5,-41 13,-82 24,-124 10,-42 22,-89 34,-140 12,-51 29,-97 52,-140 2,-7 7,-11 12,-15 5,-4 12,-11 20,-21 31,-74 63,-140 94,-200 31,-59 69,-121 114,-184 7,-10 14,-25 19,-44 5,-19 14,-38 27,-56 16,-32 35,-62 56,-89 18,-26 41,-53 68,-83 27,-30 59,-49 96,-59 18,-8 38,-13 59,-14 21,-1 42,-4 63,-8 28,0 55,-8 78,-24 23,-16 43,-22 59,-18 11,11 24,20 41,29 17,9 25,18 25,29 3,20 8,38 16,52 8,14 14,30 20,48 0,14 0,36 -2,66 -1,30 -6,46 -14,50 -9,7 -20,-7 -34,-40 -15,-33 -23,-62 -25,-88 -6,-13 -22,-20 -48,-20 -26,0 -43,0 -51,0 -31,11 -60,26 -89,47 -29,21 -57,38 -86,51 -24,11 -44,30 -59,57 -16,26 -31,48 -47,65 -21,22 -37,44 -47,66 -11,23 -24,46 -39,70 -37,57 -63,103 -79,137 -18,39 -35,93 -50,164 -9,24 -16,56 -22,95 -6,39 -9,68 -9,89 -8,60 -12,113 -12,158 5,0 10,-3 16,-10 10,-8 21,-16 32,-24 12,-9 25,-18 38,-28 123,-81 270,-34 442,141 8,14 18,26 29,35 12,9 25,18 38,29 5,7 9,14 13,19 4,5 10,9 19,12 31,40 55,74 74,104 19,30 29,76 31,139 0,28 0,55 0,82 0,26 -1,52 -3,76 -3,39 -9,79 -20,121 -7,39 -15,78 -22,116 -6,39 -12,77 -17,116 -10,77 -33,146 -67,205 -21,42 -57,81 -108,117 -51,36 -92,68 -124,99 -14,11 -25,22 -35,33 -10,10 -20,18 -31,25 -10,7 -19,11 -24,11 -5,0 -13,2 -24,6 -16,7 -29,15 -39,26 -10,11 -24,14 -40,11zm-168 -490c12,30 33,59 62,84 29,25 51,50 67,74 34,55 69,80 106,73 39,0 72,-16 98,-50 26,-34 52,-63 79,-87 31,-32 53,-62 66,-89 3,-11 11,-33 24,-65 13,-32 20,-52 20,-63 -3,-11 -6,-21 -10,-32 -3,-11 -5,-22 -5,-32 -3,-16 -4,-69 -4,-157 0,-88 0,-163 0,-226 0,-53 -12,-82 -37,-87 -25,-5 -48,-22 -68,-50 -6,-4 -12,-11 -19,-21 -7,-11 -11,-19 -13,-27 -32,-41 -54,-72 -68,-95 -11,-10 -24,-26 -39,-47 -15,-22 -30,-32 -43,-32 -15,0 -30,2 -43,6 -13,4 -26,6 -39,6 -31,0 -61,10 -88,29 -27,19 -54,39 -81,60 -15,14 -25,32 -28,56 -4,23 -9,47 -15,71 -3,20 -4,37 -5,49 -1,12 -1,30 -1,55 0,32 2,63 5,91 4,28 6,56 6,83 -3,50 -4,88 -4,112 0,24 0,51 0,79 0,16 2,33 6,49 4,16 7,31 10,45 7,11 15,20 24,29 8,9 15,21 19,35 3,17 5,31 7,41 1,11 6,22 14,32z"/>
  <path fill="black" fill-rule="nonzero" d="M10853 22052c-15,28 -28,51 -39,68 -10,22 -18,47 -24,77 -5,30 -12,51 -20,65 -15,36 -28,70 -39,101 -10,32 -21,63 -31,93 -6,14 -11,28 -14,43 -4,14 -7,26 -10,36 -5,22 -10,43 -15,64 -5,20 -9,42 -12,64 -15,59 -29,117 -42,173 -13,57 -24,113 -32,168 -5,39 -11,79 -19,122 -8,39 -14,78 -18,119 -4,41 -9,76 -13,107 -8,36 -14,74 -18,115 -3,41 -7,76 -10,107 -11,99 -20,172 -27,222 -7,59 5,106 37,142 33,36 65,62 97,80 39,21 34,38 -14,49 -49,13 -82,11 -102,-3 -36,-14 -66,-20 -90,-18 -24,2 -47,3 -71,3 -28,0 -70,5 -125,16 -54,10 -103,17 -145,21 -54,11 -82,13 -82,10 -5,-17 18,-57 71,-120 29,-14 49,-33 59,-56 11,-23 21,-45 32,-66 23,-34 40,-66 50,-94 11,-32 19,-70 26,-114 6,-43 14,-85 22,-124 7,-42 17,-84 29,-126 12,-42 24,-86 36,-132 17,-67 38,-133 66,-198 27,-65 49,-136 64,-213 3,-11 11,-33 24,-68 13,-36 21,-61 24,-78 7,-32 19,-66 33,-103 14,-36 26,-74 35,-113 7,-42 17,-77 28,-103 12,-26 17,-55 17,-88l86 -295c-26,0 -58,-1 -96,-2 -38,-1 -69,-4 -93,-8 -91,0 -176,14 -254,43 -32,14 -58,29 -80,44 -22,15 -48,30 -77,44 -34,22 -63,46 -87,72 -24,26 -51,59 -82,97 -26,20 -53,52 -82,93 -29,42 -51,68 -68,80 -10,3 -21,-6 -32,-25 -12,-19 -18,-34 -18,-45 0,-20 7,-40 22,-57 15,-17 26,-37 33,-59 10,-21 21,-41 31,-63 11,-21 21,-43 32,-68 47,-126 68,-210 65,-252 -4,-43 53,-59 171,-49 70,8 140,16 211,24 71,9 142,7 212,-3 37,-4 73,-11 109,-18 36,-9 74,-11 114,-9 55,11 104,12 148,1 43,-11 71,-14 83,-11 16,11 26,20 30,29 4,9 -2,35 -17,77 -3,27 -14,47 -32,60 -18,13 -41,30 -68,50z"/>
  <path fill="black" fill-rule="nonzero" d="M13369 21775c42,0 95,15 157,47 63,32 110,58 141,78 47,36 89,73 125,112 21,20 42,47 61,78 20,31 31,65 34,101 0,17 -5,49 -14,97 -9,47 -14,80 -14,98 -13,66 -32,120 -56,162 -31,61 -56,106 -77,137 -17,24 -34,44 -52,58 -18,14 -38,28 -59,43 8,34 28,67 61,97 33,30 67,80 100,149 63,130 97,253 102,370 0,39 -6,68 -17,87 -12,19 -22,41 -30,66 -15,42 -37,86 -66,131 -16,20 -29,40 -41,60 -12,19 -25,40 -38,61 -23,31 -54,67 -94,107 -39,41 -75,65 -106,72 -47,20 -90,43 -129,67 -39,25 -80,43 -122,54 -13,3 -40,10 -82,20 -42,11 -69,16 -79,16 -39,11 -76,-18 -110,-85 -34,-66 -71,-102 -110,-106 -59,0 -99,-70 -119,-210 -20,-140 -29,-237 -29,-290 -2,-49 0,-115 9,-199 9,-84 26,-147 50,-190 21,-42 51,-78 88,-108 38,-30 80,-55 127,-77 23,-14 53,-29 92,-44 38,-16 52,-25 41,-29 -13,0 -27,-5 -41,-16 -15,-10 -27,-21 -38,-32 -21,-7 -39,-31 -54,-74 -10,-16 -33,-65 -69,-144 -35,-79 -53,-131 -53,-155l-4 -127c0,-14 9,-53 28,-116 19,-63 30,-103 35,-121 13,-39 23,-69 29,-90 6,-21 25,-42 57,-63 55,-35 113,-52 172,-52 17,0 30,-3 42,-11 12,-7 25,-14 42,-22 23,-7 59,-9 109,-9zm267 411c-6,-78 -49,-137 -128,-180 -79,-42 -140,-64 -182,-64 -12,0 -26,3 -39,8 -13,5 -26,8 -39,8 -24,8 -44,22 -59,42 -16,14 -27,30 -34,45 -6,16 -15,32 -25,49 -9,11 -16,24 -23,36 -6,13 -12,24 -18,34 0,31 -5,58 -14,81 -9,23 -12,47 -9,72 0,20 2,45 8,73 5,28 8,51 8,70 0,28 17,62 51,102 34,40 62,60 85,60 38,0 65,-20 83,-58 3,-11 7,-20 14,-28 6,-8 11,-18 14,-30 10,-27 21,-43 31,-46 8,0 12,5 12,15 3,70 -2,120 -16,147 -14,28 -29,61 -48,99 -5,8 -9,13 -13,16 -4,3 -7,7 -10,11 3,0 7,0 12,0 5,0 12,0 20,0 91,-4 165,-64 223,-179 18,-39 39,-89 63,-150 24,-61 36,-123 36,-188l-4 -46zm-75 889c-14,-28 -30,-51 -51,-68 -21,-17 -42,-35 -63,-53 -18,-11 -34,-14 -48,-10 -13,4 -27,6 -43,6 -24,3 -41,1 -50,-6 -9,-7 -22,-10 -37,-10 -21,0 -35,9 -43,25 15,18 23,32 23,43 0,14 0,32 -1,55 -1,22 -10,34 -26,34 0,0 -13,-21 -39,-62 -21,-36 -39,-50 -54,-43 -16,11 -30,18 -40,22 -11,3 -21,12 -32,25 -15,14 -25,27 -31,40 -5,12 -12,24 -19,36 -14,16 -24,28 -32,34 -7,6 -11,24 -11,55 0,20 -3,42 -10,65 -6,23 -8,45 -5,66 0,22 2,72 8,151 5,79 21,157 47,234 10,41 31,82 61,122 30,40 48,61 52,61 39,0 81,-3 126,-11 45,-7 78,-26 103,-57 32,-47 66,-79 104,-99 38,-19 76,-63 115,-133 21,-42 34,-77 40,-103 5,-26 8,-66 8,-119 -3,-32 -10,-85 -22,-158 -12,-73 -22,-121 -29,-143z"/>
  <path fill="black" fill-rule="nonzero" d="M16163 21682c26,7 45,29 58,68 13,38 28,68 44,90 12,31 29,58 50,81 21,23 41,45 59,66 8,14 16,29 26,45 9,16 17,29 25,40 9,6 15,14 20,25 16,14 52,67 108,158 56,92 86,148 91,170 3,31 13,80 30,149 17,68 19,110 5,124 -15,20 -22,45 -21,75 1,30 -2,59 -10,87 -8,22 -15,41 -23,56 -7,15 -16,30 -25,44 -18,36 -31,74 -39,114 -7,40 -17,79 -27,118 -14,42 -27,89 -40,140 -13,51 -30,95 -51,134 -8,11 -14,18 -20,19 -5,1 -10,7 -15,18 -38,74 -73,140 -105,196 -33,56 -71,114 -115,174 -10,14 -19,32 -25,52 -7,20 -14,37 -22,48 -14,21 -35,51 -63,89 -21,24 -46,51 -75,79 -28,28 -59,46 -90,52 -29,8 -71,12 -125,12 -31,3 -59,12 -82,28 -24,16 -42,19 -54,9 -14,-11 -28,-21 -44,-32 -16,-11 -24,-21 -24,-32 -3,-18 -7,-34 -12,-47 -5,-13 -9,-31 -11,-53 -3,-14 4,-36 21,-66 17,-30 29,-48 38,-56 8,-3 10,14 7,48 -3,35 -1,63 4,85 0,20 13,31 39,31 26,0 44,-2 54,-6 32,-6 62,-18 91,-36 28,-18 59,-36 90,-53 21,-7 41,-24 59,-48 19,-24 35,-45 51,-63 19,-21 35,-41 48,-63 13,-21 27,-43 42,-68 17,-20 31,-41 44,-63 13,-21 26,-46 39,-74 11,-20 21,-45 29,-76 9,-30 19,-59 30,-86 10,-42 22,-102 34,-179 7,-57 11,-109 11,-158 -2,3 -4,6 -7,7 -3,1 -4,2 -4,2 -39,28 -63,47 -71,54 -42,31 -70,55 -82,72 -13,17 -47,26 -102,26 -42,0 -68,-16 -79,-47 -31,-53 -63,-95 -94,-129 -31,-34 -58,-65 -82,-93 -11,-10 -22,-20 -33,-30 -11,-11 -22,-23 -33,-37 -18,-24 -27,-37 -27,-37 -34,-36 -60,-70 -77,-101 -17,-31 -25,-78 -25,-142 0,-42 2,-95 7,-158 6,-39 13,-79 23,-122 9,-34 17,-71 25,-110 7,-38 15,-79 23,-121 13,-71 38,-138 75,-201 21,-39 58,-74 110,-105 52,-31 96,-63 130,-93 26,-28 48,-47 66,-58 8,-3 14,-5 20,-5 5,0 14,-2 28,-6 13,0 26,-6 37,-18 11,-13 26,-16 42,-13zm156 494c-16,-31 -38,-58 -65,-81 -27,-23 -49,-50 -64,-81 -31,-53 -65,-79 -102,-79 -39,0 -73,16 -101,47 -27,31 -53,57 -76,78 -36,28 -60,59 -70,91 -9,10 -19,30 -30,60 -11,30 -17,50 -17,61 0,13 2,24 6,33 3,9 5,19 5,29 0,22 -1,76 -3,161 -2,86 -3,160 -3,225 0,55 11,86 33,93 22,7 44,23 65,47 15,14 26,32 31,54 11,20 21,38 29,52 9,14 22,30 37,48 8,11 19,26 33,47 15,20 30,31 46,31 13,0 26,-1 40,-2 15,-1 30,-2 46,-2 50,6 98,-12 145,-54 15,-11 24,-17 25,-20 1,-3 6,-17 14,-41 3,-8 5,-14 6,-19 1,-5 4,-13 9,-24 0,-7 1,-14 4,-19 3,-5 5,-14 7,-29 3,-16 6,-32 10,-44 4,-13 6,-33 6,-60 0,-28 -2,-57 -6,-85 -4,-28 -4,-58 -1,-89 2,-42 4,-76 5,-103 1,-26 4,-56 7,-88 -6,-20 -11,-52 -16,-94 -7,-11 -15,-20 -24,-29 -8,-9 -13,-20 -15,-35 -5,-14 -8,-26 -8,-37 0,-10 -2,-24 -7,-42z"/>
 </g>
</svg>
