<?xml version="1.0" encoding="UTF-8"?>
<!DOCTYPE svg PUBLIC "-//W3C//DTD SVG 1.1//EN" "http://www.w3.org/Graphics/SVG/1.1/DTD/svg11.dtd">
<!-- Creator: CorelDRAW 2017 -->
<svg xmlns="http://www.w3.org/2000/svg" xml:space="preserve" width="210mm" height="297mm" version="1.1" shape-rendering="geometricPrecision" text-rendering="geometricPrecision" image-rendering="optimizeQuality" fill-rule="evenodd" clip-rule="evenodd"
viewBox="0 0 21000 29700"
 xmlns:xlink="http://www.w3.org/1999/xlink">
 <g id="Layer_x0020_1">
  <metadata id="CorelCorpID_0Corel-Layer"/>
  <path fill="black" fill-rule="nonzero" d="M4937 3386l-152 207c-4,-20 -29,-70 -73,-149 -13,-26 -35,-64 -64,-114l-31 0 -299 263c-25,22 -53,37 -84,47 -31,10 -62,15 -92,15 -43,0 -75,-21 -97,-62 -7,-14 -15,-35 -22,-65l458 -579c15,-18 31,-32 48,-43 18,-11 37,-16 57,-16 25,0 44,2 57,7 13,5 24,15 33,31l260 458zm-357 -118c0,-37 -7,-71 -20,-101 -19,-41 -46,-62 -81,-62 -62,0 -116,34 -163,103 -38,57 -57,105 -57,145 0,28 9,54 28,78 18,25 40,37 65,37 38,0 86,-25 143,-74 57,-49 86,-92 86,-127z"/>
  <path fill="black" fill-rule="nonzero" d="M4062 2827l-185 -3 9 532 -273 163 53 -183 0 -520 -537 -15 -327 618c-107,200 -219,351 -335,453 -131,114 -271,170 -421,170 -70,0 -126,-27 -165,-80 -44,-61 -66,-151 -66,-271 0,-183 36,-333 108,-451 51,-85 120,-150 205,-195 51,-28 88,-41 110,-41 1,8 2,14 2,18 3,18 3,31 0,38 -53,68 -96,148 -130,238 -43,112 -64,206 -64,283 0,84 15,154 45,208 30,54 73,85 129,93 92,10 202,-53 328,-188 105,-112 191,-236 260,-373l262 -521 -496 -15 181 -98 361 0 586 -1230c12,-23 23,-47 35,-72 15,-25 29,-38 42,-38 26,0 40,8 40,24l48 1316 194 0 0 139zm-407 -139c0,-8 0,-19 0,-34 0,-15 0,-30 0,-46 0,-26 0,-46 0,-62 0,-152 -1,-270 -3,-356 -2,-86 -9,-179 -21,-279 -4,-24 -17,-32 -38,-24 -15,6 -26,17 -35,32 -8,16 -15,30 -21,41l-360 728 477 0z"/>
  <path fill="black" fill-rule="nonzero" d="M7672 3287l-339 415 -46 0 -159 -223c-16,-22 -22,-56 -18,-102l103 -1454c1,-18 1,-32 -2,-41 -1,-8 -7,-17 -18,-27 44,-16 77,-28 99,-35 68,-26 109,-46 123,-63 -3,12 -6,21 -7,27 -8,28 -12,51 -14,71l-111 1377c-2,18 -4,36 -7,54 0,43 14,89 41,136 27,47 60,71 98,71 38,0 68,-13 90,-38 22,-26 33,-55 33,-89 0,-41 -11,-83 -33,-126 -22,-42 -48,-66 -79,-71 -31,-5 -50,-7 -57,-7 -7,0 -14,0 -20,0 -1,0 -4,0 -7,0l119 -189c18,-4 31,-6 40,-6 50,0 92,19 126,58 34,39 51,99 51,180 0,26 -2,53 -7,83z"/>
  <path fill="black" fill-rule="nonzero" d="M6854 2947c0,110 -20,226 -59,346 -28,87 -58,156 -90,207l148 0 -7 35 -170 0c-26,51 -68,115 -126,192 -68,91 -133,169 -196,234 -154,158 -288,273 -403,346 -141,89 -280,133 -418,133 -154,0 -254,-25 -301,-75 -46,-50 -69,-129 -69,-235 0,-156 69,-300 208,-432 139,-132 276,-198 413,-198l821 0c12,-37 21,-67 26,-89 19,-73 29,-134 29,-183 0,-24 -2,-46 -7,-68 -21,-85 -55,-144 -103,-179 -48,-34 -117,-52 -207,-52l-172 0c-34,0 -76,7 -126,21 -16,4 -39,12 -68,24l0 -27c3,0 47,-66 132,-198 100,-154 182,-290 247,-408 90,-164 134,-272 134,-325 0,-63 -9,-111 -28,-145 -18,-34 -48,-50 -89,-50 -63,0 -117,38 -161,115 -29,49 -62,133 -97,251 -1,0 -32,95 -90,284 -51,166 -109,353 -172,563 -63,210 -96,330 -99,359l-154 115 148 -1466c0,-37 -2,-63 -7,-77 -4,-14 -11,-17 -20,-9l-154 154 -33 -35 486 -514 29 35 -84 115 7 133 -129 1085c34,-108 68,-217 101,-327 68,-216 137,-425 207,-627 81,-234 134,-363 158,-388 13,-18 51,-27 112,-27 41,0 76,5 103,15 47,0 85,20 115,59 29,39 44,92 44,157 0,97 -16,185 -47,266 -32,81 -83,175 -155,284 -4,8 -87,126 -249,355l253 0c153,0 252,21 298,62 46,41 69,104 69,189zm-264 588l-727 0c-117,0 -228,45 -330,136 -119,104 -178,234 -178,387 0,81 32,145 95,192 63,47 138,71 225,71 132,0 252,-35 359,-106 85,-55 189,-154 310,-296 48,-55 103,-135 165,-239 21,-35 48,-84 81,-145z"/>
  <path fill="black" fill-rule="nonzero" d="M9631 2694c0,24 -4,42 -13,56l-51 71 -29 0c-9,-20 -17,-34 -24,-41 -27,-30 -62,-44 -106,-44 -27,0 -48,5 -65,16 -16,11 -24,30 -24,58 0,18 0,31 0,38 0,81 16,156 48,226 32,70 73,105 121,105l108 0 -196 180 -59 0c-40,0 -77,-28 -112,-83 -35,-55 -53,-109 -53,-160 0,-51 14,-118 42,-199 9,-26 23,-63 44,-110l163 -220c47,4 81,9 103,15 69,20 103,50 103,92z"/>
  <path fill="black" fill-rule="nonzero" d="M9590 1689l-181 228 48 6c16,0 29,-1 40,-5 10,-3 21,-8 31,-13 -10,23 -21,43 -33,58 -16,23 -31,37 -44,41 -13,3 -44,19 -92,46 -35,19 -67,29 -95,29 -68,0 -117,-18 -150,-53 -32,-35 -53,-93 -62,-171 -10,0 -48,48 -115,145 -85,124 -156,265 -211,423 -78,219 -117,444 -117,677 0,177 41,314 122,409 81,96 192,143 331,143 56,0 107,-16 154,-47 47,-39 79,-65 95,-77l31 0c-101,106 -159,166 -172,177 -81,71 -195,106 -341,106 -137,0 -244,-59 -321,-177 -63,-97 -95,-205 -95,-325 0,-268 55,-534 165,-798 79,-189 181,-368 306,-535 97,-130 153,-195 167,-195 15,-67 40,-118 75,-152 35,-34 65,-52 90,-52l64 0 185 -101c21,-12 39,-17 55,-15 21,0 37,4 50,13 12,9 19,24 19,46l0 169zm-123 -9c0,-34 -12,-61 -36,-81 -24,-21 -50,-28 -78,-22 -29,6 -54,26 -74,61 -20,34 -30,77 -30,129 0,35 12,68 36,96 24,29 50,43 78,43 29,-26 54,-59 74,-99 20,-40 30,-82 30,-126z"/>
  <path fill="black" fill-rule="nonzero" d="M13726 3251c0,80 -58,190 -174,328 -126,151 -242,227 -348,227 -54,0 -91,-14 -111,-41 -20,-28 -30,-64 -30,-109 0,-93 21,-184 64,-275 13,-30 35,-67 66,-112l139 -27c-18,35 -30,63 -37,83 -26,65 -40,114 -40,148 0,41 13,74 39,99 26,25 57,37 94,37 41,0 80,-17 117,-50 37,-34 55,-74 55,-121 0,-57 -14,-104 -42,-142 -9,-12 -23,-26 -44,-41l-374 -242c-37,-24 -59,-57 -68,-101 -3,-14 -4,-34 -2,-62l130 -263 22 -12c0,16 0,31 0,44 0,32 4,63 11,94 7,31 23,55 48,72l310 240c40,28 69,50 88,68 59,55 88,108 88,160z"/>
  <path fill="black" fill-rule="nonzero" d="M12781 2576c0,225 -81,446 -242,665 -151,205 -286,307 -403,307 -109,0 -194,-7 -257,-22 -62,-15 -146,-47 -250,-96l-379 -174c-100,156 -200,310 -299,464 -119,126 -247,189 -385,189 -95,0 -168,-30 -219,-90 -51,-60 -76,-151 -76,-274 0,-89 33,-192 99,-310 66,-118 128,-195 187,-231l76 -36c15,-10 48,-47 101,-112 16,-22 41,-53 75,-95l502 241 614 -1192c-22,-23 -97,-55 -225,-96 -144,-47 -258,-70 -341,-70 -98,0 -195,28 -291,83 -134,76 -200,183 -200,321 0,128 35,237 106,330 59,78 105,115 139,109l24 38 -148 135 -24 0c-41,-24 -77,-91 -109,-201 -32,-110 -47,-216 -47,-318 0,-203 70,-368 209,-496 126,-116 275,-174 445,-174 26,0 48,0 66,0 18,0 32,0 42,0 81,0 148,8 200,23 53,15 136,58 249,128l75 -130 29 0 165 254c138,99 253,217 344,355 100,150 150,307 150,473zm-139 213c0,-201 -56,-383 -167,-547 -79,-114 -183,-215 -311,-302 -94,-63 -150,-95 -170,-95l-626 1189 476 223c91,40 152,67 183,78 60,21 116,32 167,32 130,0 236,-55 321,-164 84,-109 127,-248 127,-415zm-1447 441l-387 -178c-12,-6 -23,-9 -36,-10 -12,-1 -22,-2 -29,-4 -6,0 -18,1 -35,3 -18,2 -32,3 -44,3 -76,0 -140,34 -194,101 -67,85 -100,209 -100,372 0,75 26,141 77,198 47,51 97,77 150,77 125,0 230,-44 317,-133 69,-68 163,-211 281,-428z"/>
  <path fill="black" fill-rule="nonzero" d="M16029 2760c0,35 -3,57 -9,65 -46,63 -80,110 -104,142 -73,99 -115,149 -123,151l-4 -35 84 -124c9,-14 13,-35 13,-65 0,-32 -15,-51 -44,-58 -29,-7 -55,-10 -77,-10 -10,0 -16,0 -18,0 -1,0 -3,0 -4,0 -6,18 -10,33 -13,44 -9,35 -13,65 -13,89 0,67 15,133 46,198 37,79 84,118 141,118 23,0 40,-2 51,-6 10,-4 19,-8 26,-12l0 15 -163 177c-12,0 -26,0 -42,0 -16,0 -37,0 -64,0 -34,0 -67,-30 -100,-91 -33,-61 -50,-116 -50,-166 0,-36 10,-87 29,-153 19,-67 35,-108 46,-124l185 -227c6,0 20,0 42,0 40,0 77,6 112,18 35,12 53,30 53,53z"/>
  <path fill="black" fill-rule="nonzero" d="M15466 1581c1,10 0,24 -4,41 0,6 -2,14 -7,24l-110 154 -18 0c-15,-57 -36,-100 -64,-127 -48,-47 -123,-71 -225,-71 -41,0 -87,6 -137,19 -50,13 -98,35 -143,66 -91,63 -137,160 -137,292 0,30 9,57 26,83 9,13 24,29 46,47l324 302c34,33 52,52 55,56 17,24 25,53 25,89 0,24 -10,54 -31,91 -3,6 -46,70 -130,192l-260 390c-35,53 -62,106 -80,159 -18,53 -28,104 -28,153 0,61 25,122 75,182 60,72 137,109 229,109 47,0 86,-8 118,-23 32,-16 66,-46 105,-93l37 -46c9,0 15,0 18,0 13,2 20,10 20,24l-330 349 -106 9c-91,0 -175,-38 -253,-115 -78,-77 -117,-157 -117,-242 0,-85 44,-191 134,-319 45,-65 91,-130 138,-195l204 -306c15,-22 27,-44 36,-67 9,-23 13,-45 13,-69 0,-8 -1,-22 -4,-41 -3,-20 -7,-32 -11,-35l-361 -349c-18,-16 -34,-44 -51,-84 -16,-40 -24,-80 -24,-120 0,-88 32,-176 95,-265 56,-78 131,-149 227,-212 91,-55 185,-93 282,-115 97,-22 195,-33 293,-33 21,0 48,10 81,31 34,21 51,43 51,67z"/>
  <path fill="black" fill-rule="nonzero" d="M19467 1461l-53 189c-15,-35 -28,-61 -40,-78 -35,-52 -73,-78 -115,-78 -32,0 -55,1 -68,4 -13,3 -27,12 -42,28 -41,41 -72,109 -94,204 -21,95 -32,199 -32,310l-52 810 349 0 -62 177 -306 0 -81 1259c-13,215 -38,382 -75,503 -22,75 -57,136 -106,183l-18 0 127 -1945 -127 0 11 -33 124 -154 58 -733c12,-157 41,-285 89,-383 33,-68 87,-143 164,-224 32,-34 65,-59 99,-76 44,-24 90,-35 137,-35 32,0 59,5 80,16 21,11 32,29 32,55z"/>
  <path fill="black" fill-rule="nonzero" d="M18415 1373l-70 284 -383 -38 -103 878 429 0 -18 219 -443 0c-25,129 -49,256 -73,383 -70,202 -201,303 -392,303 -46,0 -86,-16 -121,-47 -48,-44 -73,-109 -73,-196 0,-89 12,-165 35,-226 7,-20 20,-43 37,-68l231 -104c-26,35 -46,67 -57,92 -38,77 -57,156 -57,235 0,65 10,115 29,148 26,48 73,71 139,71 72,0 130,-98 174,-294 13,-66 28,-165 44,-297l-99 0 120 -221 101 -876 -203 0c-93,0 -157,9 -194,27 -63,32 -95,96 -95,192l0 284 -33 0 0 -346c0,-101 24,-193 73,-276 48,-84 109,-126 183,-126 79,6 169,11 269,16 100,5 200,7 302,7 41,0 88,-1 142,-3 54,-2 89,-9 107,-21z"/>
  <path fill="black" fill-rule="nonzero" d="M4109 5305l-9 239 -238 0 134 -192c12,-18 25,-30 41,-37 15,-7 30,-10 43,-10 13,0 23,0 29,0zm-9 754c0,75 -19,174 -57,299 -38,124 -91,253 -160,386 -68,133 -148,242 -239,327 -103,95 -204,142 -304,142 -112,0 -201,-46 -269,-139 -22,-30 -45,-76 -68,-139l110 -245c26,79 51,137 73,174 70,118 156,177 255,177 84,0 163,-30 237,-89 74,-59 132,-141 175,-245 29,-71 51,-141 64,-211 13,-70 20,-143 20,-220 0,-128 -108,-215 -323,-260 -215,-45 -323,-121 -323,-228 0,-95 29,-175 88,-242l214 -239 181 24c12,2 25,16 40,43 15,27 22,59 22,96 0,26 -1,46 -4,61 -3,15 -7,27 -11,37l-154 228 258 50c50,10 92,34 126,71 34,37 51,86 51,145zm-414 -426c0,-57 -13,-102 -39,-135 -26,-33 -60,-49 -102,-49 -31,0 -57,9 -79,27 -32,26 -48,64 -48,115 0,83 36,139 108,169 23,10 59,17 108,21 12,-12 21,-23 26,-33 18,-32 26,-70 26,-115z"/>
  <path fill="black" fill-rule="nonzero" d="M2973 5787c0,144 -60,358 -181,641 -125,296 -272,561 -440,795 -60,85 -122,170 -186,257 -64,87 -126,150 -186,189 -75,49 -159,74 -253,74 -72,0 -124,-33 -157,-99 -33,-66 -50,-153 -50,-262 0,-148 44,-304 132,-470 62,-116 144,-234 247,-352 81,-93 126,-139 134,-139 -65,-24 -112,-51 -143,-83 -97,-101 -145,-257 -145,-470 0,-213 50,-422 150,-627 72,-146 166,-285 282,-417 90,-101 140,-151 152,-151 0,-32 2,-64 6,-96 4,-33 14,-57 32,-72l165 -9c10,-2 57,-36 139,-104 37,-30 65,-44 86,-44 23,0 50,15 79,45 29,30 44,58 44,86 0,57 -39,134 -117,231 -25,32 -64,75 -117,130 10,4 23,8 37,12 15,4 32,6 53,6 26,0 48,-6 66,-18l0 15c-25,24 -48,40 -68,50 -62,34 -131,50 -207,50 -87,0 -145,-37 -174,-112 -9,-24 -15,-62 -20,-115 -12,0 -47,36 -106,109 -81,101 -147,216 -198,346 -72,185 -108,386 -108,603 0,134 37,250 110,349 73,99 161,148 264,148 65,0 157,-41 277,-124 40,-28 95,-70 165,-127l-44 -219 194 -98 44 -3c9,10 15,18 20,24 15,20 22,36 22,50zm-236 -1177c0,-32 -11,-61 -32,-87 -21,-27 -43,-40 -65,-40 -19,0 -39,6 -61,19 -21,13 -32,25 -32,37l0 201c4,14 10,26 18,35 15,18 35,34 59,50 25,-28 43,-50 55,-68 38,-55 57,-104 57,-148zm0 1481c-78,74 -140,129 -187,164 -145,111 -263,167 -352,167l-123 0c-6,0 -36,42 -90,127 -69,108 -126,223 -170,343 -62,168 -92,329 -92,485 0,69 10,131 31,186 28,73 68,109 119,109 87,0 206,-121 357,-364 129,-209 249,-447 359,-714 110,-267 160,-435 150,-504z"/>
  <path fill="black" fill-rule="nonzero" d="M7243 6415l-804 1673 -24 -38 10 -35 531 -1094c58,-118 94,-202 106,-251 12,-49 19,-105 19,-168 0,-64 -6,-121 -18,-172 -16,-71 -42,-106 -77,-106 -29,0 -50,6 -62,18l-341 364c10,-146 21,-294 31,-442 6,-77 25,-351 57,-821 10,-148 21,-298 31,-448 1,-28 -1,-51 -7,-71 -1,-6 -5,-13 -11,-21l178 -139 26 0c-6,28 -10,49 -11,65 -9,59 -15,104 -18,136l-81 1239c0,55 1,99 3,130 2,32 8,48 18,50 16,0 30,-4 41,-12 11,-8 27,-24 46,-46l219 -253c10,-13 23,-20 39,-21 15,-1 28,-1 37,-1 25,0 41,15 50,44 8,30 12,66 12,109l0 313z"/>
  <path fill="black" fill-rule="nonzero" d="M6352 5693l-133 172 -63 571 -183 88 59 -659 -839 0 -76 585 -184 73 73 -659 -68 0 -7 -24 117 -246 65 -582c3,-28 5,-47 5,-59 0,-55 -10,-99 -29,-130 -6,-10 -15,-21 -29,-33l187 -207c31,12 51,26 62,41 10,16 15,43 15,83 0,24 -2,55 -7,95l-108 905 831 0 113 -1070 190 -53 -117 1123 95 -41 29 26z"/>
  <path fill="black" fill-rule="nonzero" d="M9959 5398c0,12 -3,25 -9,38 -1,4 -4,10 -9,18 -3,10 -11,20 -24,31 -13,11 -27,23 -41,35 -14,13 -30,31 -47,55 -32,43 -51,65 -55,65l-40 0c-10,0 -19,-8 -26,-24 -7,-16 -11,-37 -11,-65 0,-55 23,-106 70,-152 47,-46 93,-69 139,-69 19,0 33,6 41,19 8,13 12,29 12,49zm-9 862l-159 164 -24 0c-56,-30 -95,-100 -119,-211 -16,-77 -24,-166 -24,-267 0,-20 0,-41 0,-63 0,-6 1,-14 2,-24l181 -95c1,97 5,170 11,220 21,152 63,239 128,261l4 15z"/>
  <path fill="black" fill-rule="nonzero" d="M9421 4420l-348 1544 92 98 -137 95 -59 207c-31,34 -61,68 -90,103 -76,77 -157,141 -242,192 -116,69 -229,103 -339,103 -63,0 -120,-45 -172,-136 -46,-79 -72,-164 -79,-254 -1,-8 -2,-22 -2,-41 0,-75 18,-167 55,-275 12,-35 30,-82 55,-139l218 -89c-26,63 -46,113 -57,151 -38,116 -57,212 -57,287 0,114 15,202 46,263 41,79 107,118 198,118 81,0 157,-40 230,-120 73,-80 124,-182 153,-306l68 -284c-97,-81 -169,-147 -216,-198 -144,-154 -216,-286 -216,-396 0,-95 26,-179 77,-254 43,-61 114,-130 214,-207l608 -462zm-211 415l-247 187c-86,65 -152,132 -199,201 -56,82 -84,170 -84,263 0,80 48,172 143,274 31,34 79,77 145,130l240 -1055z"/>
  <path fill="black" fill-rule="nonzero" d="M12150 4978c0,12 -3,25 -9,38 -1,4 -4,10 -9,18 -3,10 -11,20 -24,31 -13,11 -27,23 -41,35 -14,13 -30,31 -47,55 -32,43 -51,65 -55,65l-40 0c-10,0 -19,-8 -26,-24 -7,-16 -11,-37 -11,-65 0,-55 23,-106 70,-152 47,-46 93,-69 139,-69 19,0 33,6 41,19 8,13 12,29 12,49zm-86 683l-120 1206 -22 83 -291 588 -18 -44c51,-108 90,-196 115,-263 46,-124 74,-240 86,-349 21,-215 37,-419 51,-612 13,-193 20,-347 20,-461 0,-53 -2,-91 -7,-112 0,-35 -5,-73 -15,-112 -3,-14 -9,-31 -18,-50l196 -130c6,20 10,35 11,47 9,45 13,89 13,130 0,12 0,26 0,41 0,16 0,29 0,38z"/>
  <path fill="black" fill-rule="nonzero" d="M11773 4252l-352 1836 115 101 -145 71 -33 127c-69,264 -174,464 -316,600 -142,136 -323,204 -543,204 -47,0 -90,-34 -128,-102 -38,-68 -57,-137 -57,-208 0,-101 20,-192 59,-275 13,-28 34,-59 62,-95l181 -59c-21,49 -35,90 -44,121 -31,102 -46,193 -46,272 0,63 29,119 86,168 48,41 95,62 138,62 120,0 222,-74 304,-221 63,-112 117,-274 163,-486l62 -283 -255 -209c-100,-83 -174,-157 -224,-222 -68,-91 -101,-178 -101,-263 0,-106 25,-197 75,-272 34,-51 95,-113 183,-186 3,0 70,-49 200,-148 120,-91 247,-192 381,-302 144,-118 223,-195 238,-231zm-208 433l-506 425c-63,53 -107,100 -132,139 -35,57 -53,125 -53,204 0,84 11,157 34,218 23,61 61,112 113,154l268 209 275 -1349z"/>
  <path fill="black" fill-rule="nonzero" d="M15211 4498c-6,12 -9,25 -9,38l-143 1756c-3,47 -9,78 -18,92 -9,14 -21,23 -37,27l-119 24 141 -1726c3,-28 -4,-57 -22,-89 -3,-4 -8,-11 -16,-21l26 -21 167 -80 29 0zm307 1888l-139 148 -244 -316 106 -121c15,-16 26,-31 33,-46 7,-15 11,-33 11,-55 0,-26 -10,-55 -29,-89 -6,-10 -15,-24 -29,-41l192 -171c12,22 21,39 26,53 19,45 29,85 29,119 0,24 -4,43 -13,59 -9,16 -23,32 -42,47l-126 112 226 300z"/>
  <path fill="black" fill-rule="nonzero" d="M14695 6010c-40,85 -74,148 -103,189 -91,126 -193,189 -307,189 -75,0 -137,-44 -185,-132l-266 -494c-8,-16 -12,-36 -12,-60 0,-28 8,-57 24,-86l495 -922 22 -112 121 -307c4,-10 13,-17 26,-22 13,-5 26,-5 37,-1l141 62c10,6 15,16 15,30 0,14 -5,30 -15,47l-167 302c-3,4 -5,10 -7,18 -1,6 -2,11 -2,15 0,16 6,31 18,44 3,4 9,9 18,15 -12,20 -22,34 -31,41 -29,30 -59,44 -90,44 -18,0 -38,-15 -62,-44 -3,-4 -7,-11 -13,-21l-412 701 405 652c34,55 71,83 112,83 43,0 91,-38 145,-115 18,-26 40,-64 68,-115l24 0zm-667 -1697c13,12 20,21 20,27 -13,26 -28,64 -46,115 -17,52 -33,116 -48,193l-181 969c-44,236 -73,377 -88,423 -32,102 -76,187 -130,254l-370 464c-16,20 -31,34 -46,43 -14,9 -33,13 -56,13 -43,0 -71,-19 -85,-56 -14,-37 -21,-86 -21,-145l0 -287 110 -86c9,-6 20,-9 33,-9 15,0 27,4 36,12 10,8 14,22 14,41l0 216c0,32 4,56 13,74 9,18 27,27 55,27 22,0 37,-5 44,-15l95 -121c28,-35 55,-86 81,-151 32,-79 55,-159 68,-239l227 -1366c3,-24 4,-41 4,-53 0,-39 -8,-74 -24,-103 -4,-10 -13,-22 -26,-35l185 -254c19,-26 37,-32 55,-18l79 68z"/>
  <path fill="black" fill-rule="nonzero" d="M19330 4438l-148 1809c-22,30 -39,52 -51,67 -35,44 -58,66 -68,64l-22 0c-6,-6 -10,-21 -11,-45 -1,-24 -2,-51 -2,-81 -1,-24 -1,-39 -1,-45 0,-2 0,-4 0,-6l116 -1310c3,-24 5,-47 5,-69 0,-23 0,-40 0,-52 0,-87 -10,-149 -29,-186 -3,-6 -8,-13 -15,-21l198 -124 29 0z"/>
  <path fill="black" fill-rule="nonzero" d="M18480 4601c0,244 -92,471 -277,680 -145,164 -335,304 -570,420 -195,97 -347,145 -456,145l-75 180 570 74c107,11 201,16 282,16 121,0 207,-14 258,-41 18,-8 32,-23 44,-44 -3,83 -10,145 -20,186 -32,126 -95,189 -189,189 -19,0 -34,0 -44,0l-984 -174c-90,181 -150,299 -183,352 -65,108 -133,189 -205,242 -82,61 -179,92 -291,92 -70,0 -118,-15 -143,-46 -25,-31 -37,-75 -37,-132 0,-50 11,-105 33,-168 22,-62 52,-119 90,-170l207 -285c25,-35 62,-65 112,-89 50,-25 105,-37 165,-37l282 26 64 -163 -150 12 0 -53 170 -21c100,-298 199,-591 298,-879 99,-289 194,-490 285,-605 110,-140 247,-210 412,-210 120,0 211,53 273,160 53,91 79,205 79,343zm-207 165c0,-148 -25,-258 -75,-330 -50,-72 -117,-108 -203,-108 -119,0 -239,103 -359,310 -85,148 -175,359 -271,633 -57,169 -115,339 -172,508 63,8 175,-21 335,-86 204,-85 368,-192 493,-322 167,-175 251,-377 251,-606zm-1308 1457c-41,-2 -82,-3 -122,-4 -40,-1 -94,-6 -160,-16 -10,-2 -26,-3 -48,-3 -100,0 -184,45 -253,136 -60,79 -90,163 -90,251 0,61 21,110 64,148 37,32 74,47 112,47 87,0 173,-48 260,-145 60,-67 118,-157 174,-269 21,-49 42,-98 64,-145z"/>
  <path fill="black" fill-rule="nonzero" d="M5272 9686l-153 173 -57 -363c-9,-51 -20,-89 -33,-115 -19,-35 -45,-53 -77,-53 -50,0 -84,12 -102,35l-260 322 -75 -287c-12,-49 -25,-82 -39,-98 -14,-16 -30,-24 -50,-24 -23,0 -45,7 -64,21 -10,8 -28,28 -53,59l-266 328 -84 -358c-10,-46 -30,-79 -59,-100 -9,-6 -22,-12 -40,-16l165 -186c12,0 22,0 31,0 16,0 29,7 40,21 16,22 29,58 40,106l63 292 220 -263c47,-57 99,-85 156,-85 50,0 81,34 95,101l53 265 174 -203c60,-70 123,-106 190,-106 44,0 77,12 98,37 21,25 35,61 41,108l46 387z"/>
  <path fill="black" fill-rule="nonzero" d="M3767 9278l-185 124 -33 -923c0,-94 -6,-170 -18,-227 -16,-80 -43,-121 -81,-121 -43,0 -79,32 -108,95l-546 1191 -33 0 -86 -1493c0,-35 -4,-65 -12,-87 -8,-23 -22,-34 -43,-34 -31,0 -65,31 -101,92 -10,16 -27,50 -51,103l-716 1528c-56,117 -123,217 -201,301 -78,83 -150,125 -217,125 -9,0 -21,-2 -35,-6 -66,-18 -110,-52 -132,-103 -32,-71 -48,-206 -48,-406 0,-109 20,-253 59,-433 13,-59 33,-138 59,-237 57,-41 101,-71 130,-89 90,-59 139,-86 148,-80 -51,34 -96,108 -134,222 -43,129 -64,295 -64,498 0,146 15,258 46,335 26,65 58,98 95,98 48,0 95,-26 141,-78 38,-42 76,-102 112,-182l1020 -2143c9,-20 18,-41 29,-63 10,-22 23,-33 37,-33 18,0 30,14 39,40 8,27 12,56 12,88l70 1410c0,32 2,57 7,77 4,20 13,30 26,30 26,0 51,-26 75,-77 12,-28 23,-55 35,-83l375 -830c21,-44 42,-79 65,-104 23,-25 51,-37 85,-37 63,0 104,52 123,156 10,57 15,160 15,307l42 1050z"/>
  <path fill="black" fill-rule="nonzero" d="M8474 9385l-170 106 -48 -354c-7,-49 -21,-89 -40,-118 -23,-35 -51,-53 -84,-53 -19,0 -39,6 -59,19 -21,13 -36,26 -46,40l-264 375c-4,-102 -10,-178 -18,-228 -25,-152 -70,-228 -134,-228l-35 3 121 -163c7,-6 12,-10 15,-12 26,-18 47,-27 62,-27 23,0 47,14 72,41 24,28 40,56 47,86l57 204 177 -212c20,-26 42,-43 66,-52 23,-9 53,-13 88,-13 54,0 95,24 124,71 29,47 45,107 50,180l20 333z"/>
  <path fill="black" fill-rule="nonzero" d="M7968 7260l-29 662c0,30 -9,54 -26,74 -18,20 -38,30 -62,30 -28,0 -49,-15 -64,-44 -4,-10 -9,-25 -13,-44l-542 1265c-13,30 -27,44 -42,44 -18,0 -28,-11 -31,-33l-141 -1378c-4,-45 -10,-81 -18,-106 -12,-37 -26,-56 -44,-56 -19,0 -37,16 -55,48l-696 1245c-72,128 -159,229 -260,301 -101,73 -197,109 -288,109 -102,0 -177,-56 -227,-169 -40,-89 -59,-200 -59,-334 0,-175 39,-335 116,-477 77,-143 160,-214 250,-214 98,0 200,26 306,77 35,16 79,41 130,77l0 24c-32,-20 -60,-34 -84,-41 -70,-28 -141,-41 -211,-41 -100,0 -177,68 -231,204 -43,106 -64,220 -64,340 0,87 23,178 69,275 46,97 94,145 142,145 62,0 132,-34 210,-103 79,-69 146,-156 201,-260l892 -1647c7,-16 12,-27 15,-33 6,-12 12,-19 20,-21 13,-2 21,13 24,45l178 1552 26 6c6,-6 43,-91 112,-254 10,-26 73,-177 187,-455 66,-162 100,-242 101,-242l0 -207c0,-43 -13,-73 -40,-89 -9,-4 -23,-8 -42,-12l11 -35 183 -251c15,-20 34,-30 59,-30 12,0 21,6 26,18 6,12 8,25 7,38z"/>
  <path fill="black" fill-rule="nonzero" d="M11322 9095c0,30 -3,56 -10,79 -7,23 -19,41 -36,55l-255 200c-25,16 -53,24 -84,24l-130 0c-34,0 -65,-16 -95,-48 -34,-37 -51,-80 -51,-128 0,-32 3,-62 10,-89 7,-28 16,-48 28,-60l198 -190 -62 -38 174 -107 211 113c28,16 52,43 72,82 20,38 30,75 30,108zm-159 129c0,-30 -7,-58 -20,-84 -13,-27 -26,-45 -40,-55l-178 -124 -48 50c-13,14 -22,33 -28,58 -5,25 -8,51 -8,78 0,49 24,94 70,135 47,40 95,61 145,61 31,0 56,-11 76,-34 20,-23 30,-51 30,-84z"/>
  <path fill="black" fill-rule="nonzero" d="M10931 8191c0,242 -68,475 -203,698 -110,183 -261,352 -454,505 -164,142 -346,242 -544,302 -145,43 -303,65 -473,65 -122,0 -222,-45 -302,-136 -85,-99 -128,-231 -128,-396 0,-183 51,-371 154,-562 87,-160 216,-329 388,-507 172,-178 348,-314 528,-406 197,-101 401,-151 612,-151 123,0 224,53 303,158 79,105 118,249 118,430zm-209 106c0,-177 -57,-311 -170,-402 -91,-73 -205,-109 -341,-109 -166,0 -314,34 -444,101 -130,67 -265,180 -404,340 -103,114 -182,248 -237,402 -55,154 -83,321 -83,503 0,162 57,288 172,378 92,73 198,109 317,109 126,0 249,-20 368,-61 119,-40 219,-96 302,-167 161,-144 283,-292 366,-443 103,-191 154,-408 154,-650z"/>
  <path fill="black" fill-rule="nonzero" d="M13929 8682c0,85 -16,153 -48,204 -40,63 -114,126 -222,189l-235 136 -115 1342 -141 100 -1 -130 71 -984 -101 -207 123 -80 15 -213c0,-18 1,-37 2,-58 1,-21 2,-36 2,-46 0,-79 -10,-132 -31,-160l-92 -124 185 -184 72 89c18,22 29,57 35,106 1,16 3,40 4,71l188 -236 225 21c23,0 40,16 50,49 10,33 14,70 14,114zm-192 183c0,-63 -14,-108 -41,-135 -27,-28 -63,-41 -107,-41 -23,0 -52,15 -86,44 -10,10 -25,25 -44,44l-38 390 207 -113c34,-20 61,-45 80,-75 19,-31 29,-68 29,-113z"/>
  <path fill="black" fill-rule="nonzero" d="M13240 7772c0,227 -26,434 -77,621 -69,248 -167,372 -293,372 -69,0 -134,-40 -194,-121 -19,-26 -43,-67 -70,-124l24 0c13,16 24,28 33,35 29,26 57,38 84,38 70,0 133,-64 187,-192 46,-108 68,-208 68,-299 0,-164 -7,-270 -20,-319 -19,-71 -61,-106 -126,-106 -47,0 -98,11 -153,32 -18,6 -40,17 -66,33l-163 1082c-51,345 -145,647 -282,908 -148,286 -305,429 -471,429 -94,0 -169,-55 -225,-164 -56,-109 -84,-242 -84,-398 0,-169 43,-373 129,-612 86,-239 189,-443 311,-612 95,-132 203,-254 323,-367 77,-73 169,-146 275,-219 70,-49 108,-74 112,-74l31 -206 85 0 -30 180c59,-32 107,-54 144,-68 110,-45 202,-68 276,-68 37,0 75,23 114,68 39,45 58,96 58,151zm-686 15c-6,0 -40,23 -101,68 -86,61 -166,131 -243,210 -109,110 -203,230 -283,358 -87,140 -159,297 -216,470 -62,187 -92,360 -92,517 0,175 24,308 72,398 48,90 115,135 201,135 92,0 173,-62 242,-186 60,-106 105,-243 134,-411l286 -1557z"/>
  <path fill="black" fill-rule="nonzero" d="M16829 8746l-139 1833 -161 106 114 -1655c0,-16 0,-28 0,-35 0,-77 -18,-142 -52,-195 -47,-73 -92,-109 -135,-109 -25,0 -51,18 -79,53 -28,35 -41,70 -41,103 0,89 32,153 97,192 21,12 53,23 97,33 -19,28 -35,48 -46,62 -40,41 -80,62 -121,62 -56,0 -100,-12 -132,-35 -48,-35 -73,-95 -73,-177 0,-24 3,-43 8,-59 5,-16 14,-31 28,-44l372 -378 24 0 233 216 7 30z"/>
  <path fill="black" fill-rule="nonzero" d="M15970 7928c0,240 -86,483 -258,727 -122,173 -283,341 -482,503 -156,126 -242,189 -260,189l149 278c56,112 117,197 183,254 56,49 110,74 163,74 13,0 23,0 29,0 87,-12 160,-53 220,-125 60,-71 90,-160 90,-267 0,-85 -14,-168 -42,-249 -9,-26 -23,-59 -42,-98l145 -109 24 0c13,35 20,84 20,145 0,197 -47,393 -141,588 -110,229 -244,343 -401,343 -84,0 -167,-53 -249,-160 -37,-47 -87,-132 -150,-254l-185 -364c-50,23 -91,39 -123,49 -97,33 -181,49 -251,49 -18,0 -40,-2 -66,-6 -172,-35 -261,-54 -266,-56 -91,-37 -137,-107 -137,-209 0,-142 81,-267 242,-375 53,-35 134,-75 244,-118 -23,-45 -40,-81 -51,-106 -35,-84 -53,-153 -53,-206 0,-254 117,-501 350,-741 244,-250 510,-375 799,-375 169,0 296,59 381,177 76,106 115,254 115,443zm-192 177c0,-201 -38,-353 -115,-455 -88,-116 -230,-174 -427,-174 -185,0 -362,87 -532,262 -170,174 -254,359 -254,554 0,152 53,289 160,411 106,122 227,183 362,183 122,0 261,-61 418,-183 51,-39 117,-101 198,-183 -21,35 -41,71 -62,106 -56,79 -123,144 -203,195 -112,73 -233,109 -366,109 -43,0 -83,-2 -122,-7 -39,-5 -76,-11 -111,-19l227 405c16,0 87,-53 214,-160 157,-132 289,-276 396,-432 144,-209 216,-413 216,-612zm-1015 1262c-56,-119 -101,-208 -134,-268 -106,-180 -198,-270 -277,-270 -68,0 -124,27 -170,80 -46,53 -68,127 -68,222 0,114 39,193 117,236 57,32 146,47 266,47 62,0 124,-7 187,-22 21,-4 47,-12 79,-25z"/>
  <path fill="black" fill-rule="nonzero" d="M19503 9187c-23,32 -42,54 -55,68 -46,47 -83,71 -112,71 -21,0 -57,-16 -108,-47 -18,-10 -43,-27 -75,-50l-18 -38 20 -12c32,-26 57,-44 75,-56 57,-39 95,-59 112,-59 43,0 82,21 119,62 12,14 26,34 42,62zm-351 459l-179 73 -64 -357c-15,-83 -42,-143 -81,-180 -12,-12 -29,-23 -53,-33l134 -101c9,-6 25,-9 48,-9 47,0 82,27 105,80 15,34 28,91 40,171l50 355z"/>
  <path fill="black" fill-rule="nonzero" d="M18847 9785c-6,0 -10,0 -13,0 -13,0 -26,0 -37,0 -57,0 -107,-8 -150,-24 -66,-24 -116,-67 -150,-129l-495 -894 -73 59c-25,146 -51,254 -79,325 -84,217 -202,325 -355,325 -87,0 -148,-53 -183,-160 -10,-35 -19,-89 -26,-160l145 -148 31 -18c3,79 9,138 18,177 28,118 81,177 161,177 66,0 114,-56 143,-169 9,-37 17,-94 24,-169l-143 -152 174 -61 170 -1076c-23,0 -59,12 -108,37 -25,13 -61,34 -108,63 12,-47 49,-102 112,-165 51,-53 93,-87 126,-102l18 -138 75 0 -18 136c23,-4 50,-8 79,-12 29,-4 59,-6 90,-6 15,2 25,3 31,3 90,0 164,36 225,109 60,73 90,170 90,290 0,156 -56,298 -167,426 -78,81 -155,162 -231,243l418 870c22,45 44,91 66,136 38,69 85,136 141,202zm-425 -1724c0,-102 -19,-186 -58,-252 -39,-66 -95,-103 -168,-113 -9,-2 -19,-3 -31,-3 -12,0 -21,0 -26,0 -15,0 -29,0 -44,0 -4,0 -10,0 -18,0l-149 1034c179,-132 284,-213 315,-245 119,-124 178,-264 178,-421z"/>
  <path fill="black" fill-rule="nonzero" d="M4211 12082c0,85 -26,154 -79,207 -72,71 -185,106 -339,106 -26,0 -44,-7 -53,-21 -9,-14 -13,-33 -13,-56 0,-22 10,-41 29,-59 19,-18 33,-24 42,-18l128 89c12,8 32,12 62,12 21,0 37,-12 51,-35 13,-24 20,-49 20,-77 -6,-67 -31,-101 -75,-101l-159 0c-22,0 -36,-14 -43,-43 -7,-29 -10,-54 -10,-75 0,-89 48,-171 145,-248 75,-59 126,-89 154,-89l70 0 9 27 -20 130 -18 0 -97 -57 -29 -11c-16,0 -29,11 -40,33 -10,22 -15,48 -15,80 0,39 7,67 22,81 15,15 35,22 62,22l126 0c21,0 37,10 51,30 13,20 20,44 20,74z"/>
  <path fill="black" fill-rule="nonzero" d="M3475 11798c0,128 -24,252 -73,372 -10,24 -41,91 -92,201 -38,81 -75,144 -109,191 -34,46 -83,96 -146,149 -78,63 -140,105 -187,127 -63,30 -139,44 -227,44 -90,0 -196,-25 -320,-74 -124,-49 -247,-99 -369,-148 -122,-49 -223,-74 -304,-74 -125,0 -222,44 -293,133 -50,61 -88,137 -113,228 -26,91 -39,182 -39,275l-7 331 -9 15 -20 0 -11 -15 11 -325c0,-150 21,-273 64,-370 31,-71 85,-148 163,-231 88,-95 162,-162 222,-201 79,-51 167,-77 262,-77 65,0 153,29 266,87 113,58 229,117 348,176 119,59 219,89 302,89 48,0 96,-4 142,-12 46,-8 85,-23 116,-44 90,-67 165,-163 227,-287 32,-63 56,-122 72,-177 15,-55 23,-116 23,-183 0,-24 -1,-41 -2,-53 -6,-75 -23,-136 -53,-183 -29,-47 -70,-71 -121,-71 -16,0 -27,0 -33,0 -15,0 -29,2 -42,6 -13,4 -26,8 -37,12l-576 321c-61,34 -114,56 -160,68 -46,11 -102,16 -166,16 -71,0 -127,-35 -170,-106 -43,-71 -64,-156 -64,-255 0,-97 21,-204 63,-323 42,-119 99,-226 173,-323 79,-105 151,-182 216,-231 120,-93 255,-139 403,-139 59,0 113,6 164,17 51,12 95,31 133,59 9,4 15,7 18,11 12,12 15,27 9,47l-81 283 -29 -33c-37,-44 -68,-76 -95,-96 -81,-66 -161,-99 -242,-99 -98,0 -172,8 -222,24 -94,30 -177,95 -249,194 -57,79 -96,145 -117,196 -31,77 -46,174 -46,289 0,52 19,101 56,147 37,47 75,70 111,70 46,0 88,-6 128,-17 40,-11 79,-28 117,-51l595 -334c32,-20 65,-34 99,-41 34,-8 70,-12 110,-12 75,10 129,51 163,124 34,73 51,168 51,284z"/>
  <path fill="black" fill-rule="nonzero" d="M6549 11973l-75 155 -200 0 -13 118c0,10 0,18 0,24 0,10 0,17 0,21 0,63 17,103 51,121 10,6 28,9 53,9l-88 157c-9,14 -23,21 -44,21 -13,0 -23,0 -31,0 -43,0 -71,-14 -86,-43 -15,-29 -22,-68 -22,-117 0,-18 1,-35 2,-52 1,-17 3,-34 4,-52l18 -219 -110 0 7 -33 128 -145 31 -269 150 0 -29 245c-3,28 6,46 25,56 20,10 47,15 83,15 28,0 61,-6 99,-18 12,-4 28,-10 48,-18l0 23z"/>
  <path fill="black" fill-rule="nonzero" d="M6048 10424l-9 239 -506 -12 -334 1203c-13,51 -25,105 -35,163 -16,91 -24,165 -24,222 0,101 15,170 44,210 25,34 64,50 117,50 92,0 172,-31 240,-92 43,-39 112,-126 207,-260l37 -9 -15 62c-31,39 -61,78 -90,115 -78,89 -157,161 -238,216 -116,79 -225,118 -328,118 -69,0 -120,-31 -154,-92 -26,-49 -40,-112 -40,-189 0,-65 7,-136 22,-213 15,-77 37,-169 66,-275l339 -1230c-26,0 -48,0 -66,0 -106,0 -193,16 -262,47 -113,51 -203,146 -269,285 -15,30 -24,68 -28,116 -4,48 -6,76 -6,84 0,39 10,69 31,91 21,22 46,33 77,33 13,0 30,-5 51,-15 3,0 7,-3 13,-9l-110 236c-22,-28 -38,-53 -48,-77 -32,-71 -48,-156 -48,-254 0,-41 3,-80 9,-115 6,-35 17,-72 33,-109 79,-175 140,-290 183,-343 95,-122 283,-183 564,-183l577 -15z"/>
  <path fill="black" fill-rule="nonzero" d="M9543 12236l-152 169c-70,0 -124,-40 -161,-120 -19,-43 -37,-107 -53,-193l-132 195c-23,34 -49,57 -77,69 -28,13 -62,19 -101,19 -82,0 -143,-101 -183,-302 -13,-67 -25,-168 -35,-302l211 -77c3,107 7,187 13,240 21,162 62,243 126,243 66,0 140,-72 222,-216 26,-47 61,-119 103,-216 18,85 36,169 55,251 35,112 90,192 163,239z"/>
  <path fill="black" fill-rule="nonzero" d="M8491 10712l-132 1815 -9 38 -211 127c18,-41 35,-157 53,-346 6,-61 13,-150 22,-266l-412 399c-48,47 -95,80 -141,98 -46,18 -100,27 -163,27 -90,0 -159,-34 -209,-103 -50,-69 -75,-157 -75,-263l37 -1324c0,-47 -10,-81 -31,-101 -6,-6 -16,-11 -31,-15l170 -213c21,8 36,15 46,21 32,22 48,49 48,83 0,20 -3,61 -9,124 -6,63 -9,117 -9,163l-29 1067c0,114 19,207 57,278 44,83 108,124 192,124 47,0 86,-6 116,-17 30,-12 64,-36 102,-73l339 -337 64 -1211 -32 -65 194 -118c13,-4 26,-3 37,1 12,5 16,34 13,87z"/>
  <path fill="black" fill-rule="nonzero" d="M12471 12044c0,57 -24,99 -70,124l-560 303 -73 -315c-14,-59 -39,-101 -78,-127 -12,-8 -29,-15 -53,-21l154 -171c13,-16 32,-24 55,-24 22,0 40,14 53,41 9,18 18,47 26,89l81 399 189 -124c15,-10 28,-28 41,-53 12,-26 19,-53 19,-83 0,-43 -18,-73 -53,-89 -12,-4 -29,-8 -53,-12l194 -207 24 15 81 128c10,16 17,32 19,47 2,16 3,42 3,80z"/>
  <path fill="black" fill-rule="nonzero" d="M11549 11259l-48 41 -73 127 -22 6c-23,0 -40,-31 -51,-92 -3,-20 -6,-51 -9,-95l-619 1460 -37 0 -116 -1417 -178 316 -23 -1 0 -27 200 -417 0 -239c0,-73 33,-152 99,-236 22,-28 55,-62 99,-103l15 0c9,12 15,32 20,61 4,29 7,72 7,132 0,51 -7,97 -22,136 -5,12 -13,27 -25,44l72 1209c0,32 10,47 29,47 18,0 36,-18 52,-53l418 -998 0 -322c0,-49 11,-94 33,-133 3,-6 8,-14 15,-23l133 -145 31 12 0 709z"/>
  <path fill="black" fill-rule="nonzero" d="M16310 12055c0,35 -8,68 -24,98 -16,30 -36,51 -59,65l-549 355 -79 -257c-15,-45 -30,-82 -46,-112 -21,-37 -39,-55 -53,-53l-73 5 -284 334c-7,10 -16,16 -27,16 -6,0 -10,-6 -13,-17l-55 -331c-6,-40 -22,-68 -48,-82 -9,-4 -22,-8 -39,-12l4 -33 88 -136c7,-10 22,-20 43,-31 21,-10 41,-15 61,-15 34,0 54,22 62,66l66 331 326 -397 119 131 108 462 185 -133c47,-34 70,-81 70,-142 0,-53 -19,-88 -57,-103 -19,-8 -37,-12 -53,-12 -6,0 -11,0 -15,0 -1,0 -4,1 -7,3l211 -205c31,26 54,46 68,62 47,51 70,100 70,145z"/>
  <path fill="black" fill-rule="nonzero" d="M15168 11290l-141 137c-12,10 -26,15 -44,15 -21,0 -35,-16 -44,-47 -3,-10 -5,-27 -7,-50l-630 1378 -31 0 -40 -1129c0,-39 -4,-76 -12,-109 -8,-34 -21,-50 -39,-50 -21,0 -45,19 -73,58 -28,38 -52,81 -73,129l-337 740 0 124c0,16 -27,60 -81,133 -18,24 -46,59 -84,106l-18 -15 0 -174 -68 -1259c0,-141 -7,-246 -22,-313 -18,-48 -35,-97 -53,-146 0,-12 18,-37 53,-77 87,-100 134,-159 143,-179l26 0 117 497c6,22 1,43 -13,63 -14,20 -32,30 -52,30 -10,0 -17,-2 -21,-6l61 1078 12 27 603 -1315c15,-34 33,-50 55,-50 16,0 29,10 37,31 9,21 13,45 13,72l33 1159c0,26 3,45 10,59 7,14 14,21 21,21 6,0 11,-4 17,-12 3,-4 12,-23 26,-57l439 -943 0 -358c0,-71 6,-123 18,-157 7,-20 18,-34 31,-44l108 -68c7,-6 12,-10 15,-12 9,-10 16,-15 22,-15 1,0 8,0 20,0l0 733z"/>
  <path fill="black" fill-rule="nonzero" d="M19254 11732l-139 236c-18,-28 -32,-47 -42,-59 -34,-39 -65,-59 -95,-59 -15,0 -34,13 -59,38 -3,4 -8,10 -15,18l105 194c7,16 14,33 19,50 5,18 8,31 8,39 0,18 -5,33 -15,44l-117 128 -110 -231 -343 656 -37 0 -1 -71 356 -628 -139 -237c-3,-7 -12,-12 -28,-15 -15,-3 -31,-7 -47,-12 35,-41 62,-71 79,-90 56,-60 91,-90 106,-90l29 12 114 219c26,-52 48,-90 66,-114 54,-78 102,-117 145,-117 26,0 61,15 103,44 13,10 32,25 57,44z"/>
  <path fill="black" fill-rule="nonzero" d="M18360 10675c0,59 -18,118 -53,177 -36,59 -70,89 -104,89 -29,0 -51,-11 -66,-33 -4,-7 -10,-19 -15,-35l-18 8 -253 630 349 0 9 15 -20 189 -26 6 -282 0 137 589c4,18 15,27 33,27 3,0 8,0 15,0l-7 26 -178 203c-16,-12 -28,-23 -35,-33 -15,-22 -24,-46 -29,-74l-92 -628 -124 316c-81,203 -155,349 -223,440 -94,128 -200,192 -317,192 -88,0 -163,-27 -223,-80 -70,-63 -106,-150 -106,-260 0,-160 54,-290 163,-390 35,-34 90,-68 165,-103l0 30c-32,30 -56,57 -70,83 -48,79 -73,173 -73,284 0,81 18,145 53,192 41,55 99,83 174,83 91,0 173,-51 247,-154 53,-73 111,-189 174,-349l141 -358 0 -35 -244 0 -66 24 0 -47 59 -172 18 -15 203 0c-31,-159 -54,-278 -68,-358 -47,-240 -76,-366 -88,-378l-31 -27 7 -26 165 -204 20 0 4 71 152 869 291 -760c19,-53 42,-96 69,-130 27,-34 55,-50 83,-50 28,0 50,21 66,62 12,32 18,63 18,95z"/>
  <path fill="black" fill-rule="nonzero" d="M9408 14925c0,30 -3,59 -10,89 -7,30 -23,72 -50,127l-804 1664 -42 86 -22 9c0,-30 0,-61 1,-95 1,-34 6,-60 16,-77l713 -1428c17,-34 25,-71 25,-112 0,-55 -11,-107 -34,-156 -23,-49 -50,-74 -83,-74 -16,0 -29,4 -40,13 -10,9 -22,24 -35,46l-211 355 -22 0c-6,-71 -10,-133 -13,-186 -15,-189 -65,-305 -150,-349l141 -109 57 -9c48,0 84,58 108,174 7,37 14,96 20,177l178 -337c10,-4 18,-6 24,-6 25,-5 40,-8 46,-8 48,0 89,14 121,41 43,35 64,91 64,166z"/>
  <path fill="black" fill-rule="nonzero" d="M8876 13759c0,45 -12,91 -35,136 -6,10 -21,35 -46,77l-1475 2424c-21,35 -31,67 -31,95 0,24 8,41 24,52 16,11 37,16 62,16 22,0 48,-11 77,-33l795 -538c78,-53 140,-110 187,-171 68,-87 101,-180 101,-278 0,-49 -9,-89 -26,-120 -18,-31 -37,-46 -57,-46 -40,0 -79,13 -117,38 -12,8 -27,22 -46,41l-26 -3 2 -27 355 -316 20 15 112 260c19,43 29,92 29,145 0,101 -42,199 -126,296 -54,61 -121,116 -200,166l-1134 698c-15,8 -48,22 -101,41 -38,14 -63,30 -75,47l-42 12 0 -216c62,-41 106,-82 132,-121 22,-47 42,-85 59,-112l539 -887c9,-14 13,-38 13,-74 0,-28 -1,-49 -4,-65 -2,-16 -5,-28 -8,-35l-176 -1457c-10,-83 -29,-138 -57,-164 -13,-10 -25,-20 -37,-30l159 -283c4,0 12,-1 23,-3 11,-2 19,-3 25,-3 25,4 43,18 55,42 7,16 13,43 18,82l163 1713 512 -898c34,-59 62,-131 84,-214 22,-84 33,-163 33,-237 0,-55 -15,-100 -46,-133 -31,-34 -63,-50 -97,-50l-62 0 176 -296 42 -9 211 302c7,10 12,25 13,46 1,21 2,46 2,75z"/>
  <path fill="black" fill-rule="nonzero" d="M12667 15587l-81 163 -522 0c-28,0 -55,-14 -81,-43 -9,-8 -19,-24 -31,-46l421 -402c-1,4 -12,6 -33,6 -46,0 -101,-4 -165,-13 -65,-9 -101,-19 -110,-29l7 -24 84 -171 444 63 -301 302c-21,22 -34,37 -40,45 -21,30 -31,61 -31,93 0,20 15,30 46,30 16,0 27,0 33,0l361 0 0 27z"/>
  <path fill="black" fill-rule="nonzero" d="M12149 15419l-150 263c-97,-20 -175,-34 -233,-41 -186,-30 -333,-44 -438,-44 -129,0 -274,43 -434,130 -112,61 -227,142 -346,242 -47,43 -94,87 -141,130l-26 -18 110 -212 520 -959 -386 12 64 -195 413 -12 459 -795c7,-14 11,-24 11,-30 0,-18 -11,-27 -33,-27l-436 12 -119 59 0 -38 92 -254 33 -24 718 0 0 24 -625 1067 457 6c18,0 39,-5 64,-15 7,-2 18,-7 33,-15 -22,43 -43,75 -62,95 -60,65 -134,98 -222,98l-378 33 -567 981c59,-45 117,-90 176,-133 147,-106 274,-190 381,-251 161,-91 283,-136 366,-136 154,0 338,10 550,30 38,2 87,8 148,18z"/>
  <path fill="black" fill-rule="nonzero" d="M4382 18121c0,286 -57,527 -170,723 -113,196 -244,294 -394,294 -79,0 -147,-38 -203,-115 -56,-77 -84,-169 -84,-275 0,-244 51,-473 154,-686 115,-236 255,-355 423,-355 82,0 148,40 198,121 50,81 75,178 75,293zm-110 302c0,-156 -23,-288 -68,-396 -53,-126 -127,-189 -222,-189 -101,0 -180,68 -236,204 -48,116 -73,257 -73,423 0,144 23,258 70,343 53,95 128,142 225,142 106,0 185,-55 238,-166 44,-93 66,-213 66,-361z"/>
  <path fill="black" fill-rule="nonzero" d="M6999 18862c-32,93 -70,158 -112,195 -72,63 -165,95 -280,95 -76,0 -176,-15 -299,-44 -123,-30 -200,-44 -229,-44l26 -44 227 -257c72,-83 130,-167 174,-251 50,-97 75,-182 75,-257 0,-65 -16,-123 -48,-173 -32,-50 -72,-75 -119,-75 -66,0 -131,55 -194,166 -10,6 -21,12 -31,18 0,-61 34,-124 101,-189 90,-83 180,-167 271,-251l22 0c62,67 113,132 153,194 40,62 61,131 61,205 0,89 -62,208 -185,358 -91,106 -181,212 -271,316l13 38c46,20 82,34 110,41 88,30 156,44 205,44 75,0 147,-7 217,-22 70,-15 108,-35 113,-61z"/>
  <path fill="black" fill-rule="nonzero" d="M5498 17718l-115 1324 -182 101 -20 0 79 -1020c3,-28 -4,-41 -22,-41 -10,0 -20,6 -29,18 -63,87 -110,151 -141,192 -94,128 -143,191 -146,189 -10,14 -21,21 -33,21 -12,0 -18,-7 -18,-21 0,-8 4,-17 11,-27l584 -763c6,-8 12,-11 20,-7 9,4 12,15 11,34z"/>
  <path fill="black" fill-rule="nonzero" d="M8398 17801c-31,22 -122,122 -273,302 -26,30 -62,72 -106,127l156 6c70,0 123,30 156,89 25,45 37,101 37,166 0,201 -86,391 -259,571 -172,179 -346,269 -521,269 -68,0 -112,-34 -134,-101 -6,-22 -10,-56 -11,-103 6,-2 31,12 75,41 54,37 120,56 198,56 113,0 218,-53 314,-158 96,-105 144,-216 144,-333 0,-205 -63,-307 -189,-307 -60,0 -120,24 -178,71 -54,53 -108,106 -161,160 -7,0 -11,-9 -11,-27 0,-14 10,-34 29,-61 19,-27 39,-51 59,-72l236 -243c38,-39 69,-80 92,-123 23,-42 35,-82 35,-120 0,-26 -8,-47 -24,-65 -22,-24 -55,-36 -99,-36 -22,0 -43,8 -62,23 -19,15 -35,34 -48,55l-20 -27 185 -305c29,48 87,82 172,101 53,12 112,18 178,18 13,0 21,0 24,0 1,0 3,0 4,0l0 27z"/>
  <path fill="black" fill-rule="nonzero" d="M9941 18572l-57 177 -242 0 -18 331 -200 109 24 -440 -493 0 -7 -44 727 -1011 29 24 -51 884 201 0c25,0 47,-5 66,-15 6,-2 13,-7 22,-15zm-454 -545l-422 575 389 0 34 -575z"/>
  <path fill="black" fill-rule="nonzero" d="M11211 17775l-56 224 -416 -186c-22,-10 -46,9 -70,56 -15,28 -22,54 -22,80 0,34 34,129 101,287 68,158 101,304 101,440 0,67 -40,158 -119,272 -56,81 -131,172 -225,275 -78,85 -118,127 -121,127l-20 -33c84,-79 155,-169 213,-272 58,-103 87,-208 87,-317 0,-81 -23,-180 -70,-299 -53,-121 -105,-242 -156,-364l399 -450 375 159z"/>
  <path fill="black" fill-rule="nonzero" d="M12543 17745c-94,20 -214,108 -359,266 -145,158 -225,277 -238,358 40,-24 72,-40 97,-50 75,-34 139,-50 192,-50 66,0 119,20 159,59 50,49 75,124 75,224 0,139 -44,271 -133,396 -89,125 -177,187 -263,187 -128,0 -221,-33 -280,-98 -69,-76 -103,-209 -103,-398 0,-234 83,-445 249,-634 160,-181 330,-271 509,-271 37,0 69,4 97,12zm-282 830c0,-63 -15,-117 -46,-162 -31,-45 -65,-68 -103,-68 -76,0 -146,52 -209,156 -63,104 -95,219 -95,344 0,70 14,121 43,150 29,30 69,44 120,44 75,0 144,-63 207,-188 56,-110 84,-202 84,-277z"/>
  <path fill="black" fill-rule="nonzero" d="M15361 17957c9,77 -28,160 -110,248 -26,30 -69,67 -128,112 50,26 87,47 112,65 75,59 112,126 112,201 0,55 -12,109 -37,163 -25,53 -59,100 -101,139l-231 210c-9,8 -16,13 -22,15 -22,12 -44,18 -66,18 -79,0 -138,-28 -176,-83 -32,-45 -48,-102 -48,-171 0,-110 37,-204 110,-281 47,-45 95,-91 143,-136 -35,-32 -62,-58 -79,-80 -54,-67 -81,-128 -81,-183 0,-51 14,-103 43,-155 29,-52 66,-96 111,-132l227 -183 20 0 159 92c21,12 33,34 36,65 4,32 6,57 8,77zm-141 136c0,-51 -18,-100 -55,-145 -37,-45 -74,-68 -112,-68 -31,0 -58,16 -83,49 -24,33 -36,71 -36,117 0,81 28,147 84,198 18,16 46,34 84,53 26,-16 46,-31 59,-44 40,-43 59,-97 59,-160zm-57 668c0,-65 -35,-131 -106,-198 -23,-22 -59,-49 -108,-83 -32,34 -56,62 -70,86 -48,77 -73,158 -73,242 0,65 19,115 57,151 32,30 68,44 106,44 57,0 104,-23 140,-69 36,-46 54,-104 54,-173z"/>
  <path fill="black" fill-rule="nonzero" d="M14085 17656l-412 1342c-23,79 -102,190 -236,334 -148,162 -273,251 -374,269l4 -50c100,-28 199,-124 298,-290 69,-116 135,-264 198,-443 23,-75 48,-151 73,-227l193 -669 -4 -53 -269 -24 -238 0 -46 27 -31 -27 101 -231c23,16 92,30 205,41 37,2 90,6 159,12l310 0 68 -12z"/>
  <path fill="black" fill-rule="nonzero" d="M16881 18169c0,327 -92,616 -277,868 -166,226 -333,339 -502,339 -16,0 -28,0 -35,0 198,-162 345,-325 440,-489 95,-165 143,-333 143,-504 -41,53 -75,93 -101,118 -79,79 -148,118 -205,118 -82,0 -144,-51 -185,-154 -29,-73 -44,-152 -44,-236 0,-152 43,-291 128,-418 85,-127 183,-191 295,-191 94,0 171,39 231,118 75,96 112,240 112,431zm-185 -135c0,-99 -15,-181 -44,-248 -34,-79 -82,-118 -145,-118 -66,0 -118,40 -155,120 -37,80 -56,174 -56,282 0,106 15,193 44,260 37,83 90,124 159,124 68,0 119,-45 154,-136 29,-75 44,-169 44,-284z"/>
 </g>
</svg>
